<svg id="Layer_1" data-name="Layer 1" xmlns="http://www.w3.org/2000/svg" viewBox="0 0 107.82 107.19"><defs><style>.cls-1{fill:#404447;}</style></defs><title>centos</title><path class="cls-1" d="M455.9,283.9h10.3a21.3,21.3,0,0,1,2.5.3c-.5.6-.9,1.3-1.5,1.9l-6.9,6.9c-3.1,3.1-6.1,6.2-9.2,9.2-1.2,1.2-1.3,1.2-2.6,0l-5.4-5.4a3.83,3.83,0,0,1-1.4-3.7c.3-2.3-.1-4.6-.1-6.9,0-1.9.4-2.3,2.3-2.3Z" transform="translate(-426.55 -226.11)"/><path class="cls-1" d="M507.8,275.5c-3.4-.2-6.9-.4-10.3-.5-1,0-2,.3-3,.3a7.11,7.11,0,0,1-2-.4,5.85,5.85,0,0,1,1-1.7c1.5-1.6,3-3,4.5-4.5,3.9-4,7.9-7.9,11.8-11.9.8-.8,1.4-.9,2.2,0q3,3.15,6,6a3.48,3.48,0,0,1,1.1,2.7c-.1,2.5,0,5.1,0,7.6,0,1.8-.4,2.1-2.2,2.2-3,.1-6.1,0-9.1,0Z" transform="translate(-426.55 -226.11)"/><path class="cls-1" d="M484.9,254.9V243.6c0-1.8.1-1.9,1.9-1.9,2.6,0,5.3-.1,7.9,0a4.17,4.17,0,0,1,2.4.9c2,1.8,4,3.7,5.9,5.6a1.64,1.64,0,0,1,0,2.6c-5.5,5.4-10.9,10.9-16.4,16.3a3.93,3.93,0,0,1-1.3.6,7.37,7.37,0,0,1-.4-1.4Z" transform="translate(-426.55 -226.11)"/><path class="cls-1" d="M475.9,304.5V316c0,1.8-.1,1.9-1.9,1.9h-7.9a3.27,3.27,0,0,1-2.7-1c-1.9-2-3.8-3.9-5.8-5.8-.9-.9-.7-1.5.1-2.3,5.7-5.6,11.3-11.3,17-17,.2-.2.7-.3,1-.5a5,5,0,0,1,.2,1.2c0,4.1,0,8,0,12Z" transform="translate(-426.55 -226.11)"/><path class="cls-1" d="M505.5,284.5h11.3c2.2,0,2.2.1,2.3,2.1s-.1,3.9,0,5.8a5,5,0,0,1-1.4,3.9c-1.9,2-4,3.9-6,6-.8.8-1.4.6-2.1-.1l-3.9-3.9L493.4,286a12.49,12.49,0,0,1-.9-1.2,9.36,9.36,0,0,1,1.6-.4C498,284.4,501.8,284.5,505.5,284.5Z" transform="translate(-426.55 -226.11)"/><path class="cls-1" d="M475.1,267.9c-3.8-3.9-7.6-7.8-11.5-11.7-1.8-1.9-3.7-3.8-5.6-5.6-.9-.8-1.2-1.7-.3-2.5,2-2,4.1-3.9,6.2-5.7a2.46,2.46,0,0,1,1.7-.5c2.8-.1,5.7,0,8.5,0,1.1,0,1.7.3,1.7,1.5v24.3A1.85,1.85,0,0,0,475.1,267.9Z" transform="translate(-426.55 -226.11)"/><path class="cls-1" d="M485,304.4V293.5a5.77,5.77,0,0,1,.3-1.4c.4.2,1,.2,1.3.6,5.5,5.4,10.9,10.9,16.4,16.3a1.32,1.32,0,0,1,.1,2.1c-2,2-3.9,4-6,5.9a2.45,2.45,0,0,1-1.6.6c-2.9.1-5.9.1-8.8,0-1.6,0-1.7-.1-1.7-1.8C484.9,311.9,485,308.1,485,304.4Z" transform="translate(-426.55 -226.11)"/><path class="cls-1" d="M455.3,274.7H444c-1.7,0-1.8-.1-1.8-1.7v-7.6a3.1,3.1,0,0,1,1-2.4c2-1.9,3.9-3.8,5.8-5.8.8-.8,1.4-.8,2.3,0,5.4,5.5,10.9,10.9,16.3,16.4a2.32,2.32,0,0,1,.4,1,2.92,2.92,0,0,1-.9.2C463.2,274.7,459.3,274.7,455.3,274.7Z" transform="translate(-426.55 -226.11)"/><path class="cls-1" d="M481.9,304.3v14.3c0,2.4,0,2.4,2.6,2.5h6.4a3.54,3.54,0,0,1,1.1.3,7.46,7.46,0,0,1-.7,1.2c-3.3,3.3-6.5,6.6-9.8,9.8-1.2,1.2-1.4,1.2-2.7,0l-6.9-6.9c-1.1-1.1-2.3-2.3-3.4-3.5a3.21,3.21,0,0,1-.3-.5,1,1,0,0,1,.7-.4h7.9c2,0,2-.1,2-2.1V290.4a8.31,8.31,0,0,1,.3-2.7,1.89,1.89,0,0,1,1.3-1c.3-.1.9.5,1.1.9a9.28,9.28,0,0,1,.3,2.4C481.9,294.7,481.9,299.5,481.9,304.3Z" transform="translate(-426.55 -226.11)"/><path class="cls-1" d="M450.7,318H444c-1.9,0-2.3-.3-2.3-2-.1-4.8,0-9.5,0-14.3a2.46,2.46,0,0,1,.4-1.1,3.58,3.58,0,0,1,1.1.4c1.4,1.3,2.7,2.7,4.1,4.1,2.9,2.9,2.9,2.9,5.9-.1,6.3-6.3,12.6-12.6,18.9-19a9,9,0,0,1,1.8-1.6,1.22,1.22,0,0,1,1.9,1.5,9,9,0,0,1-1.5,1.9l-19.8,19.8a15.93,15.93,0,0,1-1.3,1.3c-1.1.8-.7,1.4.1,2.2l5.4,5.4a3.93,3.93,0,0,1,.6,1.3,6.15,6.15,0,0,1-1.1.3c-2.7-.1-5.1-.1-7.5-.1Z" transform="translate(-426.55 -226.11)"/><path class="cls-1" d="M468.2,237.8a4.23,4.23,0,0,1,.5-.7c3.3-3.4,6.7-6.7,10-10,1.4-1.3,1.4-1.3,2.7-.1,3.4,3.3,6.8,6.7,10.1,10.1.2.2.3.5.5.7-.3.1-.7.4-1,.4h-7.3c-1.6,0-1.7.1-1.7,1.8v30.7c-.1,1-.6,1.9-1.6,1.9-.5,0-1.1-1.1-1.4-1.8a7.23,7.23,0,0,1-.1-2.1V241.6c0-3.8.3-3.4-3.4-3.4-2.2,0-4.5,0-6.7-.1C468.6,238.1,468.4,237.9,468.2,237.8Z" transform="translate(-426.55 -226.11)"/><path class="cls-1" d="M518.7,258.7c-1.3-1.3-2.6-2.6-3.9-3.8-.9-.9-1.8-1.7-2.6-2.6s-1.7-.9-2.6,0c-1.6,1.7-3.3,3.3-5,5-5.3,5.3-10.6,10.6-16,15.9a9,9,0,0,1-1.8,1.6c-.3.2-1.1.3-1.3,0s-.7-1.2-.5-1.6a11.18,11.18,0,0,1,1.7-2.1l19.6-19.6,1.5-1.5c.8-.7.7-1.3,0-2-1.7-1.7-3.5-3.4-5.2-5.2-.8-.8-.6-1.4.5-1.6a4.87,4.87,0,0,1,1.2-.1h12.2c2.1,0,2.4.3,2.4,2.2v14.6C519.1,258.2,518.9,258.4,518.7,258.7Z" transform="translate(-426.55 -226.11)"/><path class="cls-1" d="M501.1,317.4c2.2-2.2,3.9-4,5.7-5.7,2.3-2.3,2-1.8.1-3.7-6.7-6.7-13.3-13.4-20-20a14.48,14.48,0,0,1-1.7-1.8c-.6-.8-.2-1.6.8-1.7a2.29,2.29,0,0,1,2.1.8c7,7.1,14,14.2,21,21.2,1.4,1.4,1.4,1.4,2.9-.1,1.9-1.8,3.7-3.7,5.6-5.6a1.8,1.8,0,0,1,1.1-.3c.1,0,.3.5.3.8v14.6c0,.8-.3,1.4-1.2,1.4C512.5,317.4,507.1,317.4,501.1,317.4Z" transform="translate(-426.55 -226.11)"/><path class="cls-1" d="M522.3,292c-.1-1.1-.2-1.7-.2-2.3v-5.2c-.1-4.2.5-3.6-3.5-3.6H490.9a9.74,9.74,0,0,1-2.4-.2c-.4-.1-1-.7-.9-1a1.89,1.89,0,0,1,1-1.3,9.46,9.46,0,0,1,2.4-.1h29.5c1.1.1,1.7-.3,1.6-1.6-.1-2.6,0-5.3,0-7.9,0-.4.2-.8.2-1.2.3.2.7.2,1,.5,3.5,3.4,6.9,6.9,10.4,10.3.6.6,1,1.1.3,1.8C530.2,284.1,526.4,287.9,522.3,292Z" transform="translate(-426.55 -226.11)"/><path class="cls-1" d="M442.4,259c-.1-.9-.2-1.4-.2-1.8V243.5c0-.9.1-1.6,1.3-1.6h16.1c-2,2-3.5,3.6-5.1,5.1l-1.5,1.5a1.39,1.39,0,0,0,0,1.9c.5.6,1.1,1.2,1.7,1.8l19.2,19.2a12.94,12.94,0,0,1,1.6,1.8,1.45,1.45,0,0,1,.1,1.1,1.1,1.1,0,0,1-1,.4,6.54,6.54,0,0,1-2.3-1.3c-4.3-4.3-8.6-8.6-13-12.9l-8-8c-1.2-1.1-1.2-1.1-2.5,0C446.8,254.5,444.8,256.6,442.4,259Z" transform="translate(-426.55 -226.11)"/><path class="cls-1" d="M437.9,291.7c-3.6-3.7-7.2-7.4-10.9-11-.6-.6-.6-1,0-1.5,3.6-3.6,7.2-7.2,10.8-10.7.1-.1.4-.1.8-.2v7.9c0,2.1,0,2.2,2.2,2.2h29.3a14.7,14.7,0,0,1,2.1,0,4.19,4.19,0,0,1,1.4.9c-.4.5-.7,1.2-1.2,1.3a8,8,0,0,1-2.7.3H441.6c-3.5,0-3.2-.4-3.2,3v7.6C438.4,291.6,438.2,291.6,437.9,291.7Z" transform="translate(-426.55 -226.11)"/></svg>