<?xml version="1.0" encoding="utf-8"?>
<!-- Generator: Adobe Illustrator 19.2.1, SVG Export Plug-In . SVG Version: 6.00 Build 0)  -->
<svg version="1.1" id="Layer_1" xmlns="http://www.w3.org/2000/svg" xmlns:xlink="http://www.w3.org/1999/xlink" x="0px" y="0px"
	 viewBox="0 0 77.8 83" style="enable-background:new 0 0 77.8 83;" xml:space="preserve">
<style type="text/css">
	.st0{fill:#404447;}
</style>
<g>
	<g>
		<path class="st0" d="M39,61.5c-9.7,0-17.6-7.9-17.6-17.6S29.3,26.3,39,26.3c8,0,14.8,5.4,16.9,12.7h6.8c-2.3-11-12-19.3-23.7-19.3
			c-13.3,0-24.2,10.9-24.2,24.2c0,13.3,10.9,24.2,24.2,24.2c11.7,0,21.4-8.3,23.7-19.3h-6.8C53.8,56.1,47.1,61.5,39,61.5"/>
		<path class="st0" d="M27.2,55.8c3,3,7.2,4.9,11.9,4.9v-7c-2.7,0-5.1-1.1-6.9-2.9L27.2,55.8z"/>
		<path class="st0" d="M22.3,43.9c0,2.4,0.5,4.7,1.4,6.8l6.4-2.8c-0.5-1.2-0.8-2.5-0.8-3.9c0-5.4,4.4-9.8,9.8-9.8v-7
			C29.8,27.1,22.3,34.7,22.3,43.9"/>
		<path class="st0" d="M45.1,28.3l-2.5,6.5c2.1,0.8,3.8,2.3,4.9,4.2h7.6C53.6,34.1,49.9,30.1,45.1,28.3"/>
		<path class="st0" d="M42.6,53l2.5,6.5c4.8-1.9,8.5-5.8,10-10.8h-7.6C46.4,50.7,44.7,52.2,42.6,53"/>
		<path class="st0" d="M8,53.3c-0.1-0.4-0.2-0.7-0.3-1.1c0,0,0,0,0-0.1c-0.1-0.3-0.2-0.7-0.3-1c0-0.1,0-0.1,0-0.2
			c-0.1-0.3-0.1-0.6-0.2-0.9c0-0.1,0-0.3-0.1-0.4c0-0.2-0.1-0.5-0.1-0.7s-0.1-0.4-0.1-0.6c-0.2-1.4-0.3-2.9-0.3-4.3H0
			c0,1.6,0.1,3.2,0.3,4.7l0,0v0.1c0.1,0.4,0.1,0.8,0.2,1.3c0,0.1,0,0.2,0.1,0.3c0.1,0.3,0.1,0.7,0.2,1c0,0.2,0.1,0.4,0.1,0.5
			C1,52.2,1,52.4,1.1,52.7c0.1,0.2,0.1,0.5,0.2,0.7s0.1,0.4,0.2,0.6c0.1,0.3,0.2,0.6,0.2,0.8c0,0.1,0.1,0.2,0.1,0.3l0,0
			c0.5,1.5,1,3,1.6,4.4l6.1-2.7C8.8,55.8,8.4,54.6,8,53.3z"/>
		<path class="st0" d="M39,76.4c-8.9,0-17.1-3.6-22.9-9.5l-4.7,4.7C18.5,78.7,28.2,83,39,83c19.9,0,36.4-14.9,38.8-34.2h-6.7
			C68.8,64.4,55.3,76.4,39,76.4"/>
		<path class="st0" d="M39,11.5c7.3,0,14,2.4,19.4,6.5l4-5.3C55.9,7.8,47.8,4.9,39,4.9C22.4,4.9,8.3,15.2,2.6,29.8l6.2,2.4
			C13.5,20.1,25.3,11.5,39,11.5"/>
		<path class="st0" d="M71.1,39h6.7c-0.7-5.7-2.7-11.1-5.6-15.8l-5.6,3.5C68.9,30.4,70.4,34.6,71.1,39"/>
		<path class="st0" d="M63.6,39h6.7c-1.8-11.3-9.5-20.6-19.8-24.6l-2.4,6.2C56,23.7,61.9,30.6,63.6,39"/>
		<path class="st0" d="M39,18.9L39,18.9v-6.6l0,0c-13.4,0-24.9,8.4-29.5,20.2l6.2,2.4C19.4,25.5,28.5,18.9,39,18.9"/>
		<path class="st0" d="M14,43.9L14,43.9H7.4l0,0c0,13.3,8.2,24.7,19.9,29.4l2.5-6.1C20.6,63.4,14,54.4,14,43.9"/>
		<path class="st0" d="M39,68.9v6.6c15.8,0,28.9-11.6,31.2-26.7h-6.7C61.3,60.3,51.2,68.9,39,68.9"/>
	</g>
</g>
</svg>
