<svg id="Layer_1" data-name="Layer 1" xmlns="http://www.w3.org/2000/svg" viewBox="0 0 97.92 92.2"><defs><style>.cls-1{fill:#404447;}</style></defs><title>compliance-remediate</title><path class="cls-1" d="M23.9,96a10.79,10.79,0,0,1-7.8-3.1c-4.8-4.8-4-13.3,1.9-19.2L37.1,54.6a3.92,3.92,0,0,1,5.5,0L54.4,66.4a3.86,3.86,0,0,1,0,5.4L35.3,90.9A16.18,16.18,0,0,1,23.9,96h0ZM39.8,62.9L23.5,79.2c-3,3-3.4,6.7-1.9,8.2a3.24,3.24,0,0,0,2.3.8,8.78,8.78,0,0,0,5.9-2.8L46.1,69.1l-6.3-6.2h0Z" transform="translate(-3.88 -5.5)"/><path class="cls-1" d="M87.6,30.8A9.47,9.47,0,0,1,80.9,28a9.36,9.36,0,0,1,0-13.3l6.5-6.5a3.92,3.92,0,0,1,5.5,0l7.8,7.8a3.86,3.86,0,0,1,0,5.4l-6.5,6.5a8.79,8.79,0,0,1-6.6,2.9h0Zm2.6-14.3-3.7,3.7a1.69,1.69,0,0,0,0,2.3,1.4,1.4,0,0,0,2.3,0l3.7-3.7-2.3-2.3h0Z" transform="translate(-3.88 -5.5)"/><path class="cls-1" d="M62.4,50.5a3.86,3.86,0,0,1-2.7-1.1,3.92,3.92,0,0,1,0-5.5L81,22.6a3.89,3.89,0,0,1,5.5,5.5L65.2,49.4a4.3,4.3,0,0,1-2.8,1.1h0Z" transform="translate(-3.88 -5.5)"/><path class="cls-1" d="M81.1,97.7h0a15.16,15.16,0,0,1-10.6-4.4L33.4,56.2A25.42,25.42,0,0,1,5.5,22.1a3.78,3.78,0,0,1,2.8-2.4,4,4,0,0,1,3.6,1L22.4,31.2l5.7-1.5L29.6,24,19.1,13.5a3.92,3.92,0,0,1-1-3.6,4,4,0,0,1,2.4-2.8,25.58,25.58,0,0,1,27,5.9,25.56,25.56,0,0,1,7.1,22.1L91.7,72.2a15,15,0,0,1,4.4,10.6,15.16,15.16,0,0,1-4.4,10.6,15.51,15.51,0,0,1-10.6,4.3h0ZM34.6,48.1a3.86,3.86,0,0,1,2.7,1.1L75.9,87.8a7.43,7.43,0,0,0,10.2,0,7.11,7.11,0,0,0,2.1-5.1,7.54,7.54,0,0,0-2.1-5.1L47.5,39a3.92,3.92,0,0,1-1-3.7A17.72,17.72,0,0,0,29.7,13.1l6.8,6.8a3.69,3.69,0,0,1,1,3.7l-2.7,10a3.87,3.87,0,0,1-2.7,2.7L22.1,39a3.87,3.87,0,0,1-3.8-1l-6.8-6.8A17.72,17.72,0,0,0,33.7,48a2.77,2.77,0,0,0,.9.1h0Z" transform="translate(-3.88 -5.5)"/><path class="cls-1" d="M80.5,78.6a3.2,3.2,0,1,0,3.2,3.2,3.22,3.22,0,0,0-3.2-3.2h0Z" transform="translate(-3.88 -5.5)"/></svg>