<svg id="Layer_1" data-name="Layer 1" xmlns="http://www.w3.org/2000/svg" viewBox="0 0 94.4 96"><defs><style>.cls-1{fill:#404447;}</style></defs><title>compliance-scan</title><path class="cls-1" d="M45.7,86.8A41.2,41.2,0,1,1,86.9,45.6,41.27,41.27,0,0,1,45.7,86.8h0Zm0-74.1A32.9,32.9,0,1,0,78.6,45.6,33,33,0,0,0,45.7,12.7h0Z" transform="translate(-4.5 -4.4)"/><path class="cls-1" d="M22.5,45.6H18.4A27.34,27.34,0,0,1,45.7,18.3v4.1A23.41,23.41,0,0,0,22.5,45.6h0Z" transform="translate(-4.5 -4.4)"/><path class="cls-1" d="M94.8,100.4a4,4,0,0,1-2.9-1.2l-23-23a4.1,4.1,0,0,1,5.8-5.8l23,23a4.1,4.1,0,0,1,0,5.8,4.18,4.18,0,0,1-2.9,1.2h0Z" transform="translate(-4.5 -4.4)"/></svg>