<?xml version="1.0" encoding="utf-8"?>
<!-- Generator: Adobe Illustrator 19.1.0, SVG Export Plug-In . SVG Version: 6.00 Build 0)  -->
<svg version="1.1" id="Layer_1" xmlns="http://www.w3.org/2000/svg" xmlns:xlink="http://www.w3.org/1999/xlink" x="0px" y="0px"
	 viewBox="0 0 148.4 113" style="enable-background:new 0 0 148.4 113;" xml:space="preserve">
<style type="text/css">
	.st0{fill:#445464;}
</style>
<g>
	<path class="st0" d="M12.3,12.3h64.2v50.8H12.3V12.3 M0,0l0,75.4h88.8V0L0,0L0,0z"/>
	<g>
		<path class="st0" d="M50.3,95.1H84c3.4,0,6.2-2.8,6.2-6.2s-2.8-6.2-6.2-6.2H50.3c-3.4,0-6.2,2.8-6.2,6.2S46.9,95.1,50.3,95.1
			L50.3,95.1z"/>
	</g>
	<path class="st0" d="M24,92.2c2.8,0,5.1,2.3,5.1,5.1c0,2.8-2.3,5.1-5.1,5.1c-2.8,0-5.1-2.3-5.1-5.1C18.8,94.5,21.1,92.2,24,92.2
		 M24,81.7c-8.7,0-15.7,7-15.7,15.7c0,8.6,7,15.7,15.7,15.7c8.6,0,15.6-7,15.6-15.7C39.6,88.7,32.6,81.7,24,81.7L24,81.7z"/>
	<path class="st0" d="M109.2,36.6h14l12.9,25.2V76c-6.3-8-16-13-26.9-13.1V36.6 M96.9,24.3v54.6c3.5-2.3,7.7-3.7,12.2-3.7
		c11.4,0,20.8,8.7,21.9,19.8h17.4V58.9l-17.6-34.6H96.9L96.9,24.3z"/>
	<path class="st0" d="M109.1,92.2c2.8,0,5.1,2.3,5.1,5.1c0,2.8-2.3,5.1-5.1,5.1c-2.8,0-5.1-2.3-5.1-5.1
		C104,94.5,106.3,92.2,109.1,92.2 M109.1,81.7c-8.7,0-15.7,7-15.7,15.7c0,8.6,7,15.7,15.7,15.7c8.6,0,15.6-7,15.6-15.7
		C124.8,88.7,117.8,81.7,109.1,81.7L109.1,81.7z"/>
</g>
</svg>
