<?xml version="1.0" encoding="utf-8"?>
<!-- Generator: Adobe Illustrator 19.2.1, SVG Export Plug-In . SVG Version: 6.00 Build 0)  -->
<svg version="1.1" id="Layer_1" xmlns="http://www.w3.org/2000/svg" xmlns:xlink="http://www.w3.org/1999/xlink" x="0px" y="0px"
	 viewBox="0 0 169.2 169.2" style="enable-background:new 0 0 169.2 169.2;" xml:space="preserve">
<style type="text/css">
	.st0{fill:none;stroke:#FFFFFF;stroke-miterlimit:10;}
	.st1{fill:#445464;}
</style>
<g>
	<rect x="-16.9" y="-16.9" class="st0" width="203" height="203"/>
</g>
<g>
	<g>
		<g>
			<path class="st1" d="M56.2,76.5c-0.7,0-1.4-0.3-2-0.7l-9.4-8.1c-0.9-0.7-1.2-1.7-1-2.9c0.1-1,0.9-2,1.9-2.3l26.8-10.7
				c1-0.4,2.3-0.3,3.2,0.6l9.4,8.1c0.9,0.7,1.2,1.7,1,2.9c-0.1,1-0.9,2-1.9,2.3L57.4,76.4C57,76.5,56.7,76.5,56.2,76.5L56.2,76.5z
				 M52.6,66.3l4.2,3.6l20.3-8.1l-4.2-3.6L52.6,66.3L52.6,66.3z"/>
		</g>
		<g>
			<path class="st1" d="M82.4,120.9c-0.6,0-1.3-0.1-1.9-0.6c-0.9-0.6-1.3-1.4-1.3-2.4V87.6c0-1.7,1.4-3,3-3c1.7,0,3,1.4,3,3v25.9
				l25.9-8.2V91.5c0-1.7,1.4-3,3-3c1.7,0,3,1.4,3,3v16c0,1.3-0.9,2.6-2.2,2.9L83,120.6C83.2,120.7,82.9,120.9,82.4,120.9L82.4,120.9
				z"/>
		</g>
		<g>
			<path class="st1" d="M100,97.8c-0.7,0-1.4-0.3-2-0.7L88.6,89c-0.9-0.7-1.2-1.7-1-2.9c0.1-1,0.9-2,1.9-2.3l26.8-10.7
				c1-0.4,2.3-0.3,3.2,0.6l9.4,8.1c0.9,0.7,1.2,1.7,1,2.9c-0.1,1-0.9,2-1.9,2.3l-26.8,10.7C100.7,97.7,100.4,97.8,100,97.8L100,97.8
				z M96.4,87.6l4.2,3.6l20.3-8.1l-4.2-3.6L96.4,87.6L96.4,87.6z"/>
		</g>
		<g>
			<path class="st1" d="M114.7,76c-0.4,0-0.7-0.1-1.2-0.3L86.8,65c-1-0.4-1.7-1.3-1.9-2.3c-0.1-1,0.1-2,0.9-2.9l9.2-8.9
				c0.9-0.9,2.2-1.2,3.3-0.7L125.1,61c1,0.4,1.7,1.3,1.9,2.3c0.1,1-0.1,2-0.9,2.9l-9.2,8.9C116.1,75.7,115.4,76,114.7,76L114.7,76z
				 M93.4,61l20.6,8.2l4.3-4.2l-20.6-8.2L93.4,61L93.4,61z"/>
		</g>
		<g>
			<path class="st1" d="M82,120.9c-0.4,0-0.7-0.1-1.2-0.3L56,110.4c-1.2-0.4-1.9-1.6-1.9-2.9V92.7c0-1.7,1.4-3,3-3c1.7,0,3,1.4,3,3
				v12.8l22.9,9.4c1.6,0.6,2.3,2.4,1.7,4C84.3,120.2,83.2,120.9,82,120.9L82,120.9z"/>
		</g>
		<g>
			<path class="st1" d="M73.2,99.6c-0.4,0-0.7-0.1-1.2-0.3L45.3,88.5c-1-0.4-1.7-1.3-1.9-2.3c-0.1-1,0.1-2,0.9-2.9l9.2-8.9
				c0.9-0.9,2.2-1.2,3.3-0.7l26.8,10.7c1,0.4,1.7,1.3,1.9,2.3c0.1,1-0.1,2-0.9,2.9l-9.2,8.9C74.8,99.3,74.1,99.6,73.2,99.6
				L73.2,99.6z M57.5,84.7l17.2,6.8l3.6-3.5l-17.2-6.8L57.5,84.7L57.5,84.7z"/>
		</g>
	</g>
	<g>
		<path class="st1" d="M147.1,152.9h-125c-3.2,0-5.8-2.6-5.8-5.8v-125c0-3.2,2.6-5.8,5.8-5.8h125c3.2,0,5.8,2.6,5.8,5.8v125
			C152.9,150.3,150.3,152.9,147.1,152.9L147.1,152.9z M27.9,141.5h113.5V27.9H27.9V141.5L27.9,141.5z"/>
	</g>
</g>
</svg>
