<?xml version="1.0" encoding="utf-8"?>
<!-- Generator: Adobe Illustrator 19.2.1, SVG Export Plug-In . SVG Version: 6.00 Build 0)  -->
<svg version="1.1" id="Layer_1" xmlns="http://www.w3.org/2000/svg" xmlns:xlink="http://www.w3.org/1999/xlink" x="0px" y="0px"
	 viewBox="0 0 136.6 136.6" style="enable-background:new 0 0 136.6 136.6;" xml:space="preserve">
<style type="text/css">
	.st0{fill:none;stroke:#FFFFFF;stroke-miterlimit:10;}
	.st1{fill:#445464;}
</style>
<g>
	<rect x="-33.2" y="-33.2" class="st0" width="203" height="203"/>
</g>
<g>
	<g>
		<g>
			<path class="st1" d="M39.9,60.2c-0.7,0-1.4-0.3-2-0.7l-9.4-8.1c-0.9-0.7-1.2-1.7-1-2.9c0.1-1,0.9-2,1.9-2.3l26.8-10.7
				c1-0.4,2.3-0.3,3.2,0.6l9.4,8.1c0.9,0.7,1.2,1.7,1,2.9c-0.1,1-0.9,2-1.9,2.3L41.1,60.1C40.7,60.2,40.4,60.2,39.9,60.2L39.9,60.2z
				 M36.3,50l4.2,3.6l20.3-8.1l-4.2-3.6L36.3,50L36.3,50z"/>
		</g>
		<g>
			<path class="st1" d="M66.1,104.6c-0.6,0-1.3-0.1-1.9-0.6c-0.9-0.6-1.3-1.4-1.3-2.4V71.3c0-1.7,1.4-3,3-3c1.7,0,3,1.4,3,3v25.9
				L94.8,89V75.2c0-1.7,1.4-3,3-3c1.7,0,3,1.4,3,3v16c0,1.3-0.9,2.6-2.2,2.9l-31.9,10.2C66.9,104.4,66.6,104.6,66.1,104.6
				L66.1,104.6z"/>
		</g>
		<g>
			<path class="st1" d="M83.7,81.5c-0.7,0-1.4-0.3-2-0.7l-9.4-8.1c-0.9-0.7-1.2-1.7-1-2.9c0.1-1,0.9-2,1.9-2.3L100,56.8
				c1-0.4,2.3-0.3,3.2,0.6l9.4,8.1c0.9,0.7,1.2,1.7,1,2.9c-0.1,1-0.9,2-1.9,2.3L84.9,81.4C84.4,81.4,84.1,81.5,83.7,81.5L83.7,81.5z
				 M80.1,71.3l4.2,3.6l20.3-8.1l-4.2-3.6L80.1,71.3L80.1,71.3z"/>
		</g>
		<g>
			<path class="st1" d="M98.4,59.7c-0.4,0-0.7-0.1-1.2-0.3L70.5,48.7c-1-0.4-1.7-1.3-1.9-2.3c-0.1-1,0.1-2,0.9-2.9l9.2-8.9
				c0.9-0.9,2.2-1.2,3.3-0.7l26.8,10.8c1,0.4,1.7,1.3,1.9,2.3c0.1,1-0.1,2-0.9,2.9l-9.2,8.9C99.8,59.4,99.1,59.7,98.4,59.7
				L98.4,59.7z M77.1,44.7l20.6,8.2l4.3-4.2l-20.6-8.2L77.1,44.7L77.1,44.7z"/>
		</g>
		<g>
			<path class="st1" d="M65.7,104.6c-0.4,0-0.7-0.1-1.2-0.3L39.7,94.1c-1.2-0.4-1.9-1.6-1.9-2.9V76.4c0-1.7,1.4-3,3-3
				c1.7,0,3,1.4,3,3v12.8l22.9,9.4c1.6,0.6,2.3,2.4,1.7,4C68,103.9,66.9,104.6,65.7,104.6L65.7,104.6z"/>
		</g>
		<g>
			<path class="st1" d="M56.9,83.3c-0.4,0-0.7-0.1-1.2-0.3L29,72.2c-1-0.4-1.7-1.3-1.9-2.3c-0.1-1,0.1-2,0.9-2.9l9.2-8.9
				c0.9-0.9,2.2-1.2,3.3-0.7l26.8,10.7c1,0.4,1.7,1.3,1.9,2.3c0.1,1-0.1,2-0.9,2.9l-9.2,8.9C58.5,83,57.8,83.3,56.9,83.3L56.9,83.3z
				 M41.2,68.4l17.2,6.8l3.6-3.5l-17.2-6.8L41.2,68.4L41.2,68.4z"/>
		</g>
	</g>
	<g>
		<path class="st1" d="M130.8,136.6H5.8c-3.2,0-5.8-2.6-5.8-5.8V5.8C0,2.6,2.6,0,5.8,0h125c3.2,0,5.8,2.6,5.8,5.8v125
			C136.6,134,134,136.6,130.8,136.6L130.8,136.6z M11.6,125.2h113.5V11.6H11.6V125.2L11.6,125.2z"/>
	</g>
</g>
</svg>
