<?xml version="1.0" encoding="utf-8"?>
<!-- Generator: Adobe Illustrator 19.2.1, SVG Export Plug-In . SVG Version: 6.00 Build 0)  -->
<svg version="1.1" id="Layer_1" xmlns="http://www.w3.org/2000/svg" xmlns:xlink="http://www.w3.org/1999/xlink" x="0px" y="0px"
	 viewBox="0 0 151.3 136.8" style="enable-background:new 0 0 151.3 136.8;" xml:space="preserve">
<style type="text/css">
	.st0{fill:#445464;}
</style>
<g>
	<g>
		<path class="st0" d="M127.1,124.4H24.6c-2.6,0-4.7-2-4.7-4.7V17.4c0-2.6,2-4.7,4.7-4.7H127c2.6,0,4.7,2,4.7,4.7v102.4
			C131.8,122.2,129.6,124.4,127.1,124.4L127.1,124.4z M29.3,114.9h93v-93h-93V114.9L29.3,114.9z"/>
	</g>
	<g>
		<path class="st0" d="M106.2,101H46.5c-1.6,0-2.8-1.2-2.8-2.8V38.5c0-1.6,1.2-2.8,2.8-2.8h59.8c1.6,0,2.8,1.2,2.8,2.8v59.8
			C109,99.7,107.8,101,106.2,101L106.2,101z M49.1,95.5h54.4V41.1H49.1V95.5L49.1,95.5z"/>
	</g>
	<g>
		<path class="st0" d="M98.3,92H54.6c-1.1,0-2-0.8-2-2V46.4c0-1.1,0.8-2,2-2h43.6c1.1,0,2,0.8,2,2V90C100.2,91,99.4,92,98.3,92
			L98.3,92z M56.7,87.9h39.6V48.3H56.7V87.9L56.7,87.9z"/>
	</g>
	<g>
		<path class="st0" d="M90.9,84.2H62.1c-0.7,0-1.3-0.6-1.3-1.3V54.1c0-0.7,0.6-1.3,1.3-1.3h28.8c0.7,0,1.3,0.6,1.3,1.3v28.8
			C92.2,83.6,91.6,84.2,90.9,84.2L90.9,84.2z M63.4,81.6h26.2V55.4H63.4V81.6L63.4,81.6z"/>
	</g>
</g>
<g>
</g>
<g>
</g>
<g>
</g>
<g>
</g>
<g>
</g>
<g>
</g>
<g>
</g>
<g>
</g>
<g>
</g>
<g>
</g>
<g>
</g>
<g>
</g>
<g>
</g>
<g>
</g>
<g>
</g>
</svg>
