<?xml version="1.0" encoding="utf-8"?>
<!-- Generator: Adobe Illustrator 19.2.1, SVG Export Plug-In . SVG Version: 6.00 Build 0)  -->
<svg version="1.1" id="Layer_1" xmlns="http://www.w3.org/2000/svg" xmlns:xlink="http://www.w3.org/1999/xlink" x="0px" y="0px"
	 viewBox="0 0 111.8 111.7" style="enable-background:new 0 0 111.8 111.7;" xml:space="preserve">
<style type="text/css">
	.st0{fill:#445464;}
</style>
<g>
	<g>
		<path class="st0" d="M107.2,111.7H4.7c-2.6,0-4.7-2-4.7-4.7V4.7C0,2.1,2,0,4.7,0h102.4c2.6,0,4.7,2,4.7,4.7v102.4
			C111.9,109.5,109.7,111.7,107.2,111.7L107.2,111.7z M9.4,102.2h93v-93h-93L9.4,102.2L9.4,102.2z"/>
	</g>
	<g>
		<path class="st0" d="M86.3,88.3H26.6c-1.6,0-2.8-1.2-2.8-2.8V25.8c0-1.6,1.2-2.8,2.8-2.8h59.8c1.6,0,2.8,1.2,2.8,2.8v59.8
			C89.1,87,87.9,88.3,86.3,88.3L86.3,88.3z M29.2,82.8h54.4V28.4H29.2V82.8L29.2,82.8z"/>
	</g>
	<g>
		<path class="st0" d="M78.4,79.3H34.7c-1.1,0-2-0.8-2-2V33.7c0-1.1,0.8-2,2-2h43.6c1.1,0,2,0.8,2,2v43.6
			C80.3,78.3,79.5,79.3,78.4,79.3L78.4,79.3z M36.8,75.2h39.6V35.6H36.8V75.2L36.8,75.2z"/>
	</g>
	<g>
		<path class="st0" d="M71,71.5H42.2c-0.7,0-1.3-0.6-1.3-1.3V41.4c0-0.7,0.6-1.3,1.3-1.3H71c0.7,0,1.3,0.6,1.3,1.3v28.8
			C72.3,70.9,71.7,71.5,71,71.5L71,71.5z M43.5,68.9h26.2V42.7H43.5V68.9L43.5,68.9z"/>
	</g>
</g>
</svg>
