<svg id="Layer_1" data-name="Layer 1" xmlns="http://www.w3.org/2000/svg" viewBox="0 0 103 100.3"><defs><style>.cls-1{fill:#404447;}</style></defs><title>insight</title><path class="cls-1" d="M91,0H12A12,12,0,0,0,0,12V88.3a12,12,0,0,0,12,12H91a12,12,0,0,0,12-12V12A12,12,0,0,0,91,0ZM45.3,63.8A16.41,16.41,0,0,1,29.1,80.4,16.4,16.4,0,0,1,13,65.2H12.8l0.1-31.5H13A16.41,16.41,0,0,1,29.2,17.4c8.8,0,16,7.4,16.1,16.4h0L45.2,62.1h0C45.2,62.6,45.3,63.2,45.3,63.8Zm42.3,2.9v24H64.9V90.6a15.83,15.83,0,0,1-3.8-.5,17.07,17.07,0,0,1-3.9-1.7,15.2,15.2,0,0,1-7.3-13V74.5h0v-24H72.6A15.2,15.2,0,0,1,87.5,65.7a3.75,3.75,0,0,1,.1,1h0Zm2.3-34.8h0A15.65,15.65,0,0,1,74.5,47.2H73.6l-24-.1,0.1-22.9V23.8h0A15.5,15.5,0,0,1,65,8.5h1L90,8.6Z"/><path class="cls-1" d="M38,33.1v0.6c-0.3,4.4-4.3,7.8-9,7.8a8.79,8.79,0,0,1-9-7.9V33c0-4.6,4.1-8.4,9.1-8.3S38.1,28.5,38,33.1Z"/></svg>