<svg id="Layer_1" data-name="Layer 1" xmlns="http://www.w3.org/2000/svg" viewBox="0 0 96.6 98.8"><defs><style>.cls-1{fill:#404447;}</style></defs><title>ohai</title><path class="cls-1" d="M435.3,328.7a4.06,4.06,0,0,1-4.1-4.1V287.4a4.1,4.1,0,0,1,8.2,0v37.2a4.12,4.12,0,0,1-4.1,4.1h0Z" transform="translate(-431.2 -229.9)"/><path class="cls-1" d="M453,328.7a4.06,4.06,0,0,1-4.1-4.1V251.3a4.1,4.1,0,0,1,8.2,0v73.3a4.19,4.19,0,0,1-4.1,4.1h0Z" transform="translate(-431.2 -229.9)"/><path class="cls-1" d="M470.6,328.7a4.06,4.06,0,0,1-4.1-4.1V234a4.1,4.1,0,0,1,8.2,0v90.6a4.12,4.12,0,0,1-4.1,4.1h0Z" transform="translate(-431.2 -229.9)"/><path class="cls-1" d="M488.3,328.7a4.06,4.06,0,0,1-4.1-4.1V265.7a4.1,4.1,0,0,1,8.2,0v58.9a4.12,4.12,0,0,1-4.1,4.1h0Z" transform="translate(-431.2 -229.9)"/><path class="cls-1" d="M523.7,328.7a4.06,4.06,0,0,1-4.1-4.1V304.2a4.1,4.1,0,0,1,8.2,0v20.4a4.19,4.19,0,0,1-4.1,4.1h0Z" transform="translate(-431.2 -229.9)"/><path class="cls-1" d="M506,328.7a4.06,4.06,0,0,1-4.1-4.1V234a4.1,4.1,0,0,1,8.2,0v90.6a4.12,4.12,0,0,1-4.1,4.1h0Z" transform="translate(-431.2 -229.9)"/></svg>