<svg id="Layer_1" data-name="Layer 1" xmlns="http://www.w3.org/2000/svg" viewBox="0 0 115.33 94.38"><defs><style>.cls-1{fill:#404447;}</style></defs><title>package</title><path class="cls-1" d="M17,38.3a3.94,3.94,0,0,1-2.7-1L1.7,26.5A4.19,4.19,0,0,1,.3,22.7a4,4,0,0,1,2.5-3.1L38.5,5.3a4,4,0,0,1,4.2.7L55.3,16.8a4.19,4.19,0,0,1,1.4,3.8,4,4,0,0,1-2.5,3.1L18.5,38a3.65,3.65,0,0,1-1.5.3ZM12.3,24.7l5.5,4.8L44.9,18.7l-5.5-4.8L12.3,24.7Z" transform="translate(0.09 -3.02)"/><path class="cls-1" d="M52.1,97.4A4.15,4.15,0,0,1,48,93.3V53a4.1,4.1,0,1,1,8.2,0V87.7l34.6-11V58.3a4.1,4.1,0,1,1,8.2,0V79.7a4.08,4.08,0,0,1-2.9,3.9L53.2,97.2a2,2,0,0,1-1.1.2Z" transform="translate(0.09 -3.02)"/><path class="cls-1" d="M75.4,66.7a3.94,3.94,0,0,1-2.7-1L60.2,54.9a4.19,4.19,0,0,1-1.4-3.8A4,4,0,0,1,61.3,48L97,33.7a4,4,0,0,1,4.2.7l12.6,10.8a4.19,4.19,0,0,1,1.4,3.8,4,4,0,0,1-2.5,3.1L77,66.4a4.52,4.52,0,0,1-1.6.3ZM70.7,53.1l5.5,4.8L103.3,47l-5.5-4.8L70.7,53.1Z" transform="translate(0.09 -3.02)"/><path class="cls-1" d="M95,37.5a4,4,0,0,1-1.5-.3L57.7,22.9a4.21,4.21,0,0,1-2.5-3,3.89,3.89,0,0,1,1.2-3.7l12.3-12a4.22,4.22,0,0,1,4.4-.9l35.8,14.3a4.21,4.21,0,0,1,2.5,3,3.89,3.89,0,0,1-1.2,3.7L97.9,36.2A4.05,4.05,0,0,1,95,37.5ZM66.6,17.6,94,28.6l5.8-5.7-27.4-11-5.8,5.7Z" transform="translate(0.09 -3.02)"/><path class="cls-1" d="M51.4,97.4a5,5,0,0,1-1.6-.3L16.7,83.5a4.15,4.15,0,0,1-2.6-3.8V59.9a4.1,4.1,0,1,1,8.2,0V77L52.8,89.5a4.25,4.25,0,0,1,2.3,5.4,3.88,3.88,0,0,1-3.7,2.5Z" transform="translate(0.09 -3.02)"/><path class="cls-1" d="M39.8,69.1a4,4,0,0,1-1.5-.3L2.5,54.5a4.21,4.21,0,0,1-2.5-3,3.89,3.89,0,0,1,1.2-3.7L13.5,35.9a4.22,4.22,0,0,1,4.4-.9L53.7,49.3a4.21,4.21,0,0,1,2.5,3A3.89,3.89,0,0,1,55,56L42.7,68a4.56,4.56,0,0,1-2.9,1.1ZM11.4,49.2l27.4,11,5.8-5.7-27.5-11-5.7,5.7Z" transform="translate(0.09 -3.02)"/></svg>