<?xml version="1.0" encoding="utf-8"?>
<!-- Generator: Adobe Illustrator 20.0.0, SVG Export Plug-In . SVG Version: 6.00 Build 0)  -->
<svg version="1.1"
	 id="svg1" inkscape:version="0.48.2 r9819" sodipodi:docname="rhel.svg" sodipodi:version="0.30.1" xmlns:cc="http://creativecommons.org/ns#" xmlns:dc="http://purl.org/dc/elements/1.1/" xmlns:inkscape="http://www.inkscape.org/namespaces/inkscape" xmlns:rdf="http://www.w3.org/1999/02/22-rdf-syntax-ns#" xmlns:sodipodi="http://sodipodi.sourceforge.net/DTD/sodipodi-0.dtd" xmlns:svg="http://www.w3.org/2000/svg"
	 xmlns="http://www.w3.org/2000/svg" xmlns:xlink="http://www.w3.org/1999/xlink" x="0px" y="0px" viewBox="0 0 639.7 578.3"
	 style="enable-background:new 0 0 639.7 578.3;" xml:space="preserve">
<style type="text/css">
	.st0{fill:#212C35;}
	.st1{fill:#FFFFFF;}
</style>
<sodipodi:namedview  id="base" inkscape:current-layer="svg1" inkscape:cx="232.14818" inkscape:cy="372.04724" inkscape:window-height="1084" inkscape:window-maximized="0" inkscape:window-width="1426" inkscape:window-x="892" inkscape:window-y="146" inkscape:zoom="1.2686561" showgrid="false">
	</sodipodi:namedview>
<g id="g2992" transform="translate(-52.16165,-82.919048)">
	<g>
		<path id="path194_1_" inkscape:connector-curvature="0" class="st0" d="M436.3,559.7c-5.3-2.2-10.8,5.2-16.1,5.6
			c-9.7,0.8-16.2-10.2-26.3-7.6c-5,1.3-13.7,9.5-7.1,14.3c3.6,2.5,9.3,2,13.4,3.3c9.9,3,17.8,9.4,28.8,5.9
			C435.9,579,447.9,564.5,436.3,559.7z M352.7,220.1c-17.6-3.9-35.8,3.8-52.5-2.1c-6.5-2.3-16.4-15.9-23.5-12.3
			c-4.6,2.4-5.2,9.2-5.3,13.6c-0.3,13.5,8.7,23.5,21.2,28.3c6.9,2.6,12.5-3.2,18.8-5.3c15.2-5.1,40.7-0.7,53.5-10.6
			C374.5,224.2,357.3,221.1,352.7,220.1z M465.4,176.8c-9.6-15.8-40.2-12.3-55.2-8.7v1.2c6.3,1.5,28.9,2.1,27.6,12.5
			c-0.6,4.8-7.3,8.8-10.1,12.5C437.5,197.2,476.7,195.6,465.4,176.8z M465.4,176.8c-9.6-15.8-40.2-12.3-55.2-8.7v1.2
			c6.3,1.5,28.9,2.1,27.6,12.5c-0.6,4.8-7.3,8.8-10.1,12.5C437.5,197.2,476.7,195.6,465.4,176.8z M352.7,220.1
			c-17.6-3.9-35.8,3.8-52.5-2.1c-6.5-2.3-16.4-15.9-23.5-12.3c-4.6,2.4-5.2,9.2-5.3,13.6c-0.3,13.5,8.7,23.5,21.2,28.3
			c6.9,2.6,12.5-3.2,18.8-5.3c15.2-5.1,40.7-0.7,53.5-10.6C374.5,224.2,357.3,221.1,352.7,220.1z M606.9,187.6
			c-103.5-113.7-273.4-137.3-404-56C72.4,212.8,18.5,375.7,74.8,518.8c9.1-4.1,11.7-7.5,8.8-26.7c15.6,0.2,42.9,0,56.5,0.1
			c6.7,0.1,15.5-1.7,21.1,0.3c14.1,5.1,24.6,29.1,45.1,34.8c7.9,2.1,17.7-4.4,17-10.8c-1.1-9.1-11.6-9.4-21.5-22.8
			c-13-17.3-24.3-38.9-10.9-53.7c3.9-4.3,18.2-11.7,32.2-3.3c21.3,12.8,24.5,31.8,34.9,35.2c8.3,2.7,13.4-4.4,21.3-0.9
			c17,7.6,29.4,36.1,47.9,44.3c23,10.2,52.3,1.6,66.5,1.6c13.5,0,17.7,3.2,34.6,3.9c9.2,0.2,19.5-1.7,29.6-1.9
			c12.8-0.2,18.4,1.5,28,2.2c9.2,0.6,16.4-3.2,22-2.4c8.1,1.1,3.8,16.3-1.1,32.4c-2.1,6.5-1.1,16-5.7,30.9
			c-3.7,11.8-17.6,29.3-29.8,43.9c-12.1,14.7-25.8,26.8-19.8,32.7c11.2,10.7,36.3-22.4,55.3-34.2c13.9-8.8,23-9.5,28.8-14.7
			c7.7-7.2,0.7-10.1,6.6-16.6c2.7-3.2,14.8-1.3,24.8-1.2c18.6,0.5,45.1-2.5,57.7,3.2C721.5,468.3,710.4,301.3,606.9,187.6z M117,307
			c2.7-11.6,14.3-20.6,24.3-25.9c24.9-13.4,59.1-9.2,86.3-9.2c-2.7,11.9-6.4,24.5-1.2,36.4c5.5,11.7,19.1,18.4,29.8,24.6
			c25.8,14.8,53.2,27.6,81.3,37.4c14.4,5,29.7,11.2,45,12.7c3.8,0.4,14,1.8,15.9-2.8c2.2-5.6-10-14.8-11.5-20.7
			c-2.1-8.1-0.7-16.7-6.2-23.7c-8.1-10.3-22.6-13.6-34.5-17.2c-22.6-6.7-45.4-13.4-67.5-21.8c-20.4-7.7-45.8-19.6-41.8-46
			c5.6-36.6,12.9-95.1,56.8-102c28.1-4.5,55.7,8.9,83.8,6.8c37.6-2.7,76.6-19.1,108.8,11.5c11.9,11.3,16.9,27.5,22.8,42.4
			c11.6,28.8,29.6,61,31,92.5c0.8,17.2-8.7,36.3-6.2,52.5c11.9-6.9,17.2-18.8,21.3-31.3c22,3.3,63.1,24.1,74.3,43.8
			c13.3,23.4,2.2,59.4-13.7,78.8c-30.9,37.7-92,57-139.4,54.9c-99.4-4.3-198.3-34.6-278.8-94.4c-23.3-17.3-44.3-36.7-63.9-58
			C123.3,336.9,113.1,323.4,117,307z M437.8,181.8c-0.6,4.8-7.3,8.8-10.1,12.5c9.8,2.9,49,1.3,37.7-17.5
			c-9.6-15.8-40.2-12.3-55.2-8.7v1.2C416.5,170.8,439.1,171.4,437.8,181.8z M352.7,220.1c-17.6-3.9-35.8,3.8-52.5-2.1
			c-6.5-2.3-16.4-15.9-23.5-12.3c-4.6,2.4-5.2,9.2-5.3,13.6c-0.3,13.5,8.7,23.5,21.2,28.3c6.9,2.6,12.5-3.2,18.8-5.3
			c15.2-5.1,40.7-0.7,53.5-10.6C374.5,224.2,357.3,221.1,352.7,220.1z"/>
		<path d="M465.9,176.5c-11.5-18.9-51.2-10-55.8-8.9l-0.4,0.1v2l0.4,0.1c1.3,0.3,3.1,0.6,5.3,0.9c8.6,1.2,22.9,3.2,21.9,11.1
			c-0.4,3-3.3,5.7-6.1,8.3c-1.5,1.4-2.9,2.7-3.9,4l-0.4,0.6l0.7,0.2c2.4,0.7,6.5,1.2,11,1.2c10.2,0,23.1-2.1,27.6-7.9
			c1.2-1.5,1.7-3.2,1.7-5C468,181,467.3,178.8,465.9,176.5z M428.6,194c0.9-1,2.1-2.1,3.3-3.2c2.8-2.6,6-5.6,6.5-8.9
			c1.1-8.9-13.8-11-22.8-12.2c-1.9-0.3-3.6-0.5-4.8-0.8v-0.4c5.9-1.4,43.4-9.3,54.3,8.6c2.5,4.1,2.6,7.5,0.4,10.3
			C459.4,195.2,437,196,428.6,194z M368.2,226.8c-1-4.1-10.2-6.1-14.6-7l-0.8-0.2c-8.2-1.8-16.6-1.1-24.7-0.5
			c-9.7,0.8-18.9,1.5-27.7-1.6c-2.3-0.8-5.1-3.1-8-5.5c-5.2-4.3-11.1-9.2-15.9-6.7c-4.8,2.5-5.5,9.2-5.6,14
			c-0.3,12.7,7.8,23.5,21.5,28.8c1.3,0.5,2.5,0.7,3.7,0.7c3.5,0,6.7-1.7,9.8-3.4c1.8-1,3.7-2,5.6-2.6c6.1-2,13.7-2.5,21.7-3.1
			c11.9-0.8,24.2-1.6,31.9-7.6C367.6,230.2,368.6,228.4,368.2,226.8z M333.2,238.7c-8.1,0.5-15.8,1-22,3.1c-2,0.7-3.9,1.7-5.8,2.7
			c-4.2,2.2-8.1,4.3-12.7,2.6c-13.3-5.1-21.2-15.5-20.9-27.8c0.1-4.6,0.7-10.9,5-13.2c0.7-0.4,1.5-0.5,2.3-0.5
			c3.8,0,8.4,3.8,12.5,7.2c3,2.5,5.8,4.8,8.3,5.7c9.1,3.2,18.8,2.4,28.2,1.7c8-0.7,16.3-1.3,24.4,0.5l0.8,0.2
			c3.5,0.7,13,2.7,13.8,6.2c0.3,1.3-0.6,2.7-2.6,4.3C357.1,237.1,345,237.9,333.2,238.7z M465.9,176.5c-11.5-18.9-51.2-10-55.8-8.9
			l-0.4,0.1v2l0.4,0.1c1.3,0.3,3.1,0.6,5.3,0.9c8.6,1.2,22.9,3.2,21.9,11.1c-0.4,3-3.3,5.7-6.1,8.3c-1.5,1.4-2.9,2.7-3.9,4l-0.4,0.6
			l0.7,0.2c2.4,0.7,6.5,1.2,11,1.2c10.2,0,23.1-2.1,27.6-7.9c1.2-1.5,1.7-3.2,1.7-5C468,181,467.3,178.8,465.9,176.5z M428.6,194
			c0.9-1,2.1-2.1,3.3-3.2c2.8-2.6,6-5.6,6.5-8.9c1.1-8.9-13.8-11-22.8-12.2c-1.9-0.3-3.6-0.5-4.8-0.8v-0.4
			c5.9-1.4,43.4-9.3,54.3,8.6c2.5,4.1,2.6,7.5,0.4,10.3C459.4,195.2,437,196,428.6,194z M353.7,219.8l-0.8-0.2
			c-8.2-1.8-16.6-1.1-24.7-0.5c-9.7,0.8-18.9,1.5-27.7-1.6c-2.3-0.8-5.1-3.1-8-5.5c-5.2-4.3-11.1-9.2-15.9-6.7
			c-4.8,2.5-5.5,9.2-5.6,14c-0.3,12.7,7.8,23.5,21.5,28.8c1.3,0.5,2.5,0.7,3.7,0.7c3.5,0,6.7-1.7,9.8-3.4c1.8-1,3.7-2,5.6-2.6
			c6.1-2,13.7-2.5,21.7-3.1c11.9-0.8,24.2-1.6,31.9-7.6c2.4-1.8,3.4-3.6,3-5.3C367.3,222.6,358.1,220.7,353.7,219.8z M333.2,238.7
			c-8.1,0.5-15.8,1-22,3.1c-2,0.7-3.9,1.7-5.8,2.7c-4.2,2.2-8.1,4.3-12.7,2.6c-13.3-5.1-21.2-15.5-20.9-27.8
			c0.1-4.6,0.7-10.9,5-13.2c0.7-0.4,1.5-0.5,2.3-0.5c3.8,0,8.4,3.8,12.5,7.2c3,2.5,5.8,4.8,8.3,5.7c9.1,3.2,18.8,2.4,28.2,1.7
			c8-0.7,16.3-1.3,24.4,0.5l0.8,0.2c3.5,0.7,13,2.7,13.8,6.2c0.3,1.3-0.6,2.7-2.6,4.3C357.1,237.1,345,237.9,333.2,238.7z
			 M630,366.7c-11.6-20.5-53.3-40.8-74.7-44l-0.4-0.1l-0.1,0.4c-3.9,11.8-9,23.7-20.4,30.7c-1.1-8.4,0.9-17.3,3-26.8
			c1.8-8.3,3.7-16.8,3.3-24.9c-1.1-24.3-11.9-48.7-22.3-72.2c-3.1-7.1-6.1-13.8-8.8-20.4c-0.8-2.1-1.6-4.1-2.4-6.2
			c-5-13-10.2-26.6-20.5-36.4c-25.1-23.8-54.8-19.3-83.5-14.9c-8.4,1.3-17.2,2.6-25.7,3.2c-13,1-26.1-1.4-38.8-3.8
			c-14.7-2.7-29.9-5.5-45.1-3c-42.7,6.7-51.1,61.9-56.6,98.5l-0.6,3.9c-3.9,25.5,19.1,37.9,42.1,46.5c10.7,4.1,21.7,7.8,32.7,11.2
			c2.7,0.9,5.5,1.7,8.2,2.6c4.1,1.3,8.2,2.5,12.3,3.7c4.1,1.2,8.2,2.4,12.2,3.6l2.1,0.6c1.3,0.4,2.6,0.8,3.9,1.2
			c10.9,3.2,23.2,6.8,30.4,15.9c3.6,4.5,4.2,9.7,4.8,15.2c0.2,1.4,0.3,2.8,0.5,4.1c0.1,0.7,0.2,1.4,0.3,2.1c0.1,0.7,0.3,1.4,0.5,2.1
			c0.6,2.5,3.1,5.5,5.6,8.7c3.5,4.3,7.1,8.7,5.9,11.7c-1.7,4-10.8,3-14.7,2.6l-0.7-0.1c-12.8-1.3-25.6-5.8-38-10.2
			c-2.3-0.8-4.6-1.6-6.9-2.4c-27.2-9.5-54.6-22.1-81.2-37.4c-1.1-0.7-2.3-1.3-3.5-2c-6.2-3.5-13-7.4-18.3-12.2
			c-0.5-0.5-1.1-1-1.6-1.5c-2.5-2.6-4.7-5.4-6.2-8.6c-4.7-10.7-2.1-22,0.5-32.9c0.2-1,0.5-2.1,0.7-3.1l0.1-0.6h-0.6
			c-5.1,0-10.4-0.1-15.9-0.3c-23.6-0.6-50.3-1.4-70.6,9.6c-0.4,0.2-0.8,0.4-1.3,0.7c-0.6,0.3-1.2,0.7-1.9,1.1
			c-6.3,3.7-10.7,7.5-13.9,11c-0.2,0.2-0.3,0.4-0.5,0.6c-4.2,4.8-6,9.1-6.8,11.8c-0.1,0.3-0.2,0.7-0.3,1
			c-3.9,16.3,5.8,29.7,16.8,41.8c20.7,22.4,41.6,41.4,64,58.1c39.2,29.1,83.7,52,132.5,68.1c46.4,15.3,95.7,24.2,146.6,26.4
			c2.2,0.1,4.5,0.1,6.9,0.1c44.7,0,102.7-18.3,132.9-55.2C632.9,425.7,643,389.6,630,366.7z M611.1,450.5c-1,1.1-2.1,2.2-3.1,3.2
			c-33.2,32.9-89.7,48.3-131.5,46.5c-50.8-2.2-100-11.1-146.4-26.4c-48.6-16.1-93.1-38.9-132.2-67.9c-22.3-16.6-43.2-35.5-63.8-57.9
			c-10.8-11.9-20.3-25-16.6-40.8c3.1-13.2,17.8-22.3,24-25.6c15.2-8.2,34.1-9.8,52.6-9.8c5.9,0,11.8,0.2,17.5,0.3
			c5.4,0.2,10.4,0.3,15.3,0.3c-0.2,0.8-0.4,1.7-0.6,2.5c-0.4,1.7-0.8,3.3-1.1,5c-0.2,0.8-0.3,1.5-0.5,2.3c0,0.1-0.1,0.3-0.1,0.4
			c-0.9,4.7-1.6,9.4-1.4,14.1c0.1,1.7,0.3,3.4,0.6,5.1c0.1,0.3,0.1,0.6,0.2,0.9c0.4,1.7,0.9,3.4,1.5,5c0.1,0.3,0.2,0.6,0.3,0.8l0,0
			c5,10.6,16.4,17.1,26.5,22.8c1.2,0.7,2.4,1.3,3.5,2c26.7,15.3,54.1,27.9,81.4,37.4c2.3,0.8,4.6,1.6,6.9,2.4
			c12.4,4.4,25.3,9,38.2,10.3l0.7,0.1c4.5,0.5,13.8,1.5,15.7-3.2c1.4-3.6-2.4-8.2-6.1-12.7c-2.5-3.1-4.8-6-5.4-8.3
			c-0.7-2.7-1-5.5-1.3-8.1c-0.6-5.4-1.2-11-5-15.7c-7.3-9.3-19.8-13-30.9-16.2c-1.3-0.4-2.6-0.8-3.9-1.1l-2-0.6
			c-2.7-0.8-5.4-1.6-8.2-2.4c-2.7-0.8-5.4-1.6-8.2-2.4c-3.2-1-6.5-2-9.8-3c-1.9-0.6-3.8-1.2-5.7-1.8c-11.3-3.6-22.6-7.4-33.6-11.5
			c-22.6-8.5-45.3-20.6-41.5-45.4l0.6-3.9c5.5-36.3,13.8-91.1,55.8-97.7c15-2.4,30.1,0.4,44.7,3c12.7,2.3,25.9,4.7,39,3.8
			c8.6-0.6,17.3-2,25.8-3.2c29.8-4.6,58-8.9,82.7,14.6c10.2,9.7,15.3,23.1,20.3,36c0.8,2.1,1.6,4.2,2.4,6.2
			c2.7,6.7,5.6,13.4,8.8,20.5c10.4,23.5,21.1,47.7,22.2,71.9c0.4,7.9-1.5,16.4-3.3,24.6c-2.1,9.4-4.2,19.2-2.9,27.9l0.1,0.7l0.6-0.4
			c12-7,17.4-19.1,21.4-31.2c0.7,0.1,1.4,0.2,2.1,0.4c0.7,0.1,1.4,0.3,2.1,0.4c3.4,0.8,7.1,1.9,11,3.2c0.4,0.1,0.9,0.3,1.3,0.5
			c0.4,0.2,0.9,0.3,1.3,0.5c19.6,7.3,43.2,20.9,53.5,35.1c0.8,1.1,1.6,2.3,2.2,3.4c12.8,22.5,2.9,58.1-13.7,78.2
			C614,447.2,612.6,448.9,611.1,450.5z M410.1,167.6l-0.4,0.1v2l0.4,0.1c1.3,0.3,3.1,0.6,5.3,0.9c8.6,1.2,22.9,3.2,21.9,11.1
			c-0.4,3-3.3,5.7-6.1,8.3c-1.5,1.4-2.9,2.7-3.9,4l-0.4,0.6l0.7,0.2c2.4,0.7,6.5,1.2,11,1.2c10.2,0,23.1-2.1,27.6-7.9
			c1.2-1.5,1.7-3.2,1.7-5c0-2-0.7-4.2-2.1-6.5C454.4,157.6,414.6,166.5,410.1,167.6z M465.4,187.4c-6.1,7.9-28.5,8.7-36.8,6.6
			c0.9-1,2.1-2.1,3.3-3.2c2.8-2.6,6-5.6,6.5-8.9c1.1-8.9-13.8-11-22.8-12.2c-1.9-0.3-3.6-0.5-4.8-0.8v-0.4
			c5.9-1.4,43.4-9.3,54.3,8.6C467.5,181.1,467.6,184.6,465.4,187.4z M353.7,219.8l-0.8-0.2c-8.2-1.8-16.6-1.1-24.7-0.5
			c-9.7,0.8-18.9,1.5-27.7-1.6c-2.3-0.8-5.1-3.1-8-5.5c-5.2-4.3-11.1-9.2-15.9-6.7c-4.8,2.5-5.5,9.2-5.6,14
			c-0.3,12.7,7.8,23.5,21.5,28.8c1.3,0.5,2.5,0.7,3.7,0.7c3.5,0,6.7-1.7,9.8-3.4c1.8-1,3.7-2,5.6-2.6c6.1-2,13.7-2.5,21.7-3.1
			c11.9-0.8,24.2-1.6,31.9-7.6c2.4-1.8,3.4-3.6,3-5.3C367.3,222.6,358.1,220.7,353.7,219.8z M333.2,238.7c-8.1,0.5-15.8,1-22,3.1
			c-2,0.7-3.9,1.7-5.8,2.7c-4.2,2.2-8.1,4.3-12.7,2.6c-13.3-5.1-21.2-15.5-20.9-27.8c0.1-4.6,0.7-10.9,5-13.2
			c0.7-0.4,1.5-0.5,2.3-0.5c3.8,0,8.4,3.8,12.5,7.2c3,2.5,5.8,4.8,8.3,5.7c9.1,3.2,18.8,2.4,28.2,1.7c8-0.7,16.3-1.3,24.4,0.5
			l0.8,0.2c3.5,0.7,13,2.7,13.8,6.2c0.3,1.3-0.6,2.7-2.6,4.3C357.1,237.1,345,237.9,333.2,238.7z M436.5,559.2
			c-3.3-1.4-6.6,0.7-9.8,2.6c-2.2,1.4-4.4,2.8-6.5,2.9c-4.4,0.4-8-1.7-11.9-3.9c-4.4-2.5-8.9-5.1-14.5-3.7c-3.4,0.9-8.9,5-9.7,9.5
			c-0.4,2.2,0.4,4.2,2.5,5.7c2.3,1.6,5.5,2,8.5,2.4c1.8,0.2,3.6,0.5,5.1,1c2.7,0.8,5.3,1.9,7.8,3c4.9,2,9.5,4,14.8,4
			c2.1,0,4.3-0.3,6.6-1c4.7-1.5,12.2-9,12.5-15.3c0-0.1,0-0.2,0-0.3C441.7,563.8,440.8,561,436.5,559.2z M408.2,577.8
			c-2.5-1-5.1-2.2-7.8-3c-1.6-0.5-3.5-0.8-5.2-1c-2.9-0.4-5.9-0.8-8-2.2c-1.7-1.3-2.4-2.8-2.1-4.7c0.7-3.7,5.5-7.8,9-8.7
			c1-0.3,2-0.4,3-0.4c3.9,0,7.2,1.9,10.8,3.9c3.8,2.2,7.8,4.4,12.4,4.1c2.3-0.2,4.7-1.6,7-3.1c2.4-1.5,4.8-3,7-3
			c0.6,0,1.3,0.1,1.9,0.4c3.1,1.3,4.6,3.4,4.5,6.2c-0.2,5.8-7.4,13-11.8,14.3C421.1,583.2,414.9,580.6,408.2,577.8z M630,366.7
			c-11.6-20.5-53.3-40.8-74.7-44l-0.4-0.1l-0.1,0.4c-3.9,11.8-9,23.7-20.4,30.7c-1.1-8.4,0.9-17.3,3-26.8c1.8-8.3,3.7-16.8,3.3-24.9
			c-1.1-24.3-11.9-48.7-22.3-72.2c-3.1-7.1-6.1-13.8-8.8-20.4c-0.8-2.1-1.6-4.1-2.4-6.2c-5-13-10.2-26.6-20.5-36.4
			c-25.1-23.8-54.8-19.3-83.5-14.9c-8.4,1.3-17.2,2.6-25.7,3.2c-13,1-26.1-1.4-38.8-3.8c-14.7-2.7-29.9-5.5-45.1-3
			c-42.7,6.7-51.1,61.9-56.6,98.5l-0.6,3.9c-3.9,25.5,19.1,37.9,42.1,46.5c10.7,4.1,21.7,7.8,32.7,11.2c2.7,0.9,5.5,1.7,8.2,2.6
			c4.1,1.3,8.2,2.5,12.3,3.7c4.1,1.2,8.2,2.4,12.2,3.6l2.1,0.6c1.3,0.4,2.6,0.8,3.9,1.2c10.9,3.2,23.2,6.8,30.4,15.9
			c3.6,4.5,4.2,9.7,4.8,15.2c0.2,1.4,0.3,2.8,0.5,4.1c0.1,0.7,0.2,1.4,0.3,2.1c0.1,0.7,0.3,1.4,0.5,2.1c0.6,2.5,3.1,5.5,5.6,8.7
			c3.5,4.3,7.1,8.7,5.9,11.7c-1.7,4-10.8,3-14.7,2.6l-0.7-0.1c-12.8-1.3-25.6-5.8-38-10.2c-2.3-0.8-4.6-1.6-6.9-2.4
			c-27.2-9.5-54.6-22.1-81.2-37.4c-1.1-0.7-2.3-1.3-3.5-2c-6.2-3.5-13-7.4-18.3-12.2c-0.5-0.5-1.1-1-1.6-1.5
			c-2.5-2.6-4.7-5.4-6.2-8.6c-4.7-10.7-2.1-22,0.5-32.9c0.2-1,0.5-2.1,0.7-3.1l0.1-0.6h-0.6c-5.1,0-10.4-0.1-15.9-0.3
			c-23.6-0.6-50.3-1.4-70.6,9.6c-0.4,0.2-0.8,0.4-1.3,0.7c-0.6,0.3-1.2,0.7-1.9,1.1c-6.3,3.7-10.7,7.5-13.9,11
			c-0.2,0.2-0.3,0.4-0.5,0.6c-4.2,4.8-6,9.1-6.8,11.8c-0.1,0.3-0.2,0.7-0.3,1c-3.9,16.3,5.8,29.7,16.8,41.8
			c20.7,22.4,41.6,41.4,64,58.1c39.2,29.1,83.7,52,132.5,68.1c46.4,15.3,95.7,24.2,146.6,26.4c2.2,0.1,4.5,0.1,6.9,0.1
			c44.7,0,102.7-18.3,132.9-55.2C632.9,425.7,643,389.6,630,366.7z M611.1,450.5c-1,1.1-2.1,2.2-3.1,3.2
			c-33.2,32.9-89.7,48.3-131.5,46.5c-50.8-2.2-100-11.1-146.4-26.4c-48.6-16.1-93.1-38.9-132.2-67.9c-22.3-16.6-43.2-35.5-63.8-57.9
			c-10.8-11.9-20.3-25-16.6-40.8c3.1-13.2,17.8-22.3,24-25.6c15.2-8.2,34.1-9.8,52.6-9.8c5.9,0,11.8,0.2,17.5,0.3
			c5.4,0.2,10.4,0.3,15.3,0.3c-0.2,0.8-0.4,1.7-0.6,2.5c-0.4,1.7-0.8,3.3-1.1,5c-0.2,0.8-0.3,1.5-0.5,2.3c0,0.1-0.1,0.3-0.1,0.4
			c-0.9,4.7-1.6,9.4-1.4,14.1c0.1,1.7,0.3,3.4,0.6,5.1c0.1,0.3,0.1,0.6,0.2,0.9c0.4,1.7,0.9,3.4,1.5,5c0.1,0.3,0.2,0.6,0.3,0.8l0,0
			c5,10.6,16.4,17.1,26.5,22.8c1.2,0.7,2.4,1.3,3.5,2c26.7,15.3,54.1,27.9,81.4,37.4c2.3,0.8,4.6,1.6,6.9,2.4
			c12.4,4.4,25.3,9,38.2,10.3l0.7,0.1c4.5,0.5,13.8,1.5,15.7-3.2c1.4-3.6-2.4-8.2-6.1-12.7c-2.5-3.1-4.8-6-5.4-8.3
			c-0.7-2.7-1-5.5-1.3-8.1c-0.6-5.4-1.2-11-5-15.7c-7.3-9.3-19.8-13-30.9-16.2c-1.3-0.4-2.6-0.8-3.9-1.1l-2-0.6
			c-2.7-0.8-5.4-1.6-8.2-2.4c-2.7-0.8-5.4-1.6-8.2-2.4c-3.2-1-6.5-2-9.8-3c-1.9-0.6-3.8-1.2-5.7-1.8c-11.3-3.6-22.6-7.4-33.6-11.5
			c-22.6-8.5-45.3-20.6-41.5-45.4l0.6-3.9c5.5-36.3,13.8-91.1,55.8-97.7c15-2.4,30.1,0.4,44.7,3c12.7,2.3,25.9,4.7,39,3.8
			c8.6-0.6,17.3-2,25.8-3.2c29.8-4.6,58-8.9,82.7,14.6c10.2,9.7,15.3,23.1,20.3,36c0.8,2.1,1.6,4.2,2.4,6.2
			c2.7,6.7,5.6,13.4,8.8,20.5c10.4,23.5,21.1,47.7,22.2,71.9c0.4,7.9-1.5,16.4-3.3,24.6c-2.1,9.4-4.2,19.2-2.9,27.9l0.1,0.7l0.6-0.4
			c12-7,17.4-19.1,21.4-31.2c0.7,0.1,1.4,0.2,2.1,0.4c0.7,0.1,1.4,0.3,2.1,0.4c3.4,0.8,7.1,1.9,11,3.2c0.4,0.1,0.9,0.3,1.3,0.5
			c0.4,0.2,0.9,0.3,1.3,0.5c19.6,7.3,43.2,20.9,53.5,35.1c0.8,1.1,1.6,2.3,2.2,3.4c12.8,22.5,2.9,58.1-13.7,78.2
			C614,447.2,612.6,448.9,611.1,450.5z M410.1,167.6l-0.4,0.1v2l0.4,0.1c1.3,0.3,3.1,0.6,5.3,0.9c8.6,1.2,22.9,3.2,21.9,11.1
			c-0.4,3-3.3,5.7-6.1,8.3c-1.5,1.4-2.9,2.7-3.9,4l-0.4,0.6l0.7,0.2c2.4,0.7,6.5,1.2,11,1.2c10.2,0,23.1-2.1,27.6-7.9
			c1.2-1.5,1.7-3.2,1.7-5c0-2-0.7-4.2-2.1-6.5C454.4,157.6,414.6,166.5,410.1,167.6z M465.4,187.4c-6.1,7.9-28.5,8.7-36.8,6.6
			c0.9-1,2.1-2.1,3.3-3.2c2.8-2.6,6-5.6,6.5-8.9c1.1-8.9-13.8-11-22.8-12.2c-1.9-0.3-3.6-0.5-4.8-0.8v-0.4
			c5.9-1.4,43.4-9.3,54.3,8.6C467.5,181.1,467.6,184.6,465.4,187.4z M353.7,219.8l-0.8-0.2c-8.2-1.8-16.6-1.1-24.7-0.5
			c-9.7,0.8-18.9,1.5-27.7-1.6c-2.3-0.8-5.1-3.1-8-5.5c-5.2-4.3-11.1-9.2-15.9-6.7c-4.8,2.5-5.5,9.2-5.6,14
			c-0.3,12.7,7.8,23.5,21.5,28.8c1.3,0.5,2.5,0.7,3.7,0.7c3.5,0,6.7-1.7,9.8-3.4c1.8-1,3.7-2,5.6-2.6c6.1-2,13.7-2.5,21.7-3.1
			c11.9-0.8,24.2-1.6,31.9-7.6c2.4-1.8,3.4-3.6,3-5.3C367.3,222.6,358.1,220.7,353.7,219.8z M333.2,238.7c-8.1,0.5-15.8,1-22,3.1
			c-2,0.7-3.9,1.7-5.8,2.7c-4.2,2.2-8.1,4.3-12.7,2.6c-13.3-5.1-21.2-15.5-20.9-27.8c0.1-4.6,0.7-10.9,5-13.2
			c0.7-0.4,1.5-0.5,2.3-0.5c3.8,0,8.4,3.8,12.5,7.2c3,2.5,5.8,4.8,8.3,5.7c9.1,3.2,18.8,2.4,28.2,1.7c8-0.7,16.3-1.3,24.4,0.5
			l0.8,0.2c3.5,0.7,13,2.7,13.8,6.2c0.3,1.3-0.6,2.7-2.6,4.3C357.1,237.1,345,237.9,333.2,238.7z M691.5,386.4
			c-1.8-36.1-9.9-71.5-24-105.2c-14.4-34.2-34.6-65.9-60.2-93.9C503.6,73.3,333.5,49.7,202.7,131.2C71.9,212.5,18,375.6,74.4,519
			l0.2,0.5l0.5-0.2c9.5-4.3,11.9-8.3,9.2-26.7c9,0.1,21.3,0.1,33.2,0.1c8.7,0,16.9,0,22.7,0c2.2,0,4.6-0.1,7.2-0.3
			c5-0.4,10.1-0.7,13.8,0.6c6.1,2.2,11.6,8.1,17.5,14.4c7.5,8.1,16,17.2,27.7,20.4c4.4,1.2,10-0.2,13.9-3.6c2.7-2.3,4.1-5.1,3.8-7.8
			c-0.6-5.1-4.1-7.6-8.5-10.7c-3.8-2.7-8.5-6.1-13.1-12.3c-18-23.9-21.6-41.3-10.9-53.1c3.5-3.8,17.4-11.7,31.6-3.2
			c11.7,7,17.9,16,22.9,23.1c4.1,5.9,7.3,10.5,12.1,12.1c4.2,1.3,7.5,0.3,10.8-0.7c3.4-1,6.6-2,10.5-0.3
			c8.2,3.7,15.2,12.2,22.7,21.2c7.7,9.3,15.6,18.9,25.2,23.1c16.9,7.5,37.4,4.9,52.3,3c5.7-0.7,10.6-1.3,14.4-1.3
			c6.8,0,11.1,0.8,16,1.7c4.7,0.9,10.1,1.9,18.5,2.2c5,0.1,10.3-0.4,15.8-0.9c4.5-0.4,9.2-0.9,13.8-1c8.3-0.1,13.7,0.6,18.9,1.2
			c2.8,0.4,5.7,0.7,9.1,1c4.9,0.3,9.3-0.6,13.2-1.4c3.4-0.7,6.2-1.3,8.8-1c1.4,0.2,2.3,0.8,3,1.8c3.1,4.9-1.1,18.8-4.5,29.9
			c-0.9,2.7-1.2,5.9-1.6,9.7c-0.6,5.5-1.4,12.4-4.1,21.2c-3.6,11.5-17,28.6-29.7,43.7c-2.6,3.2-5.2,6.2-7.8,9.1
			c-9.5,10.8-17,19.4-12,24.3c1.6,1.6,3.5,2.3,5.6,2.3c7.9,0,18.6-9.7,29.9-19.8c6.9-6.2,14-12.6,20.4-16.6c7.1-4.5,13-6.9,17.7-8.8
			c4.6-1.9,8.2-3.4,11.2-5.9c4.3-4,4.2-6.8,4.1-9.4c-0.1-2.2-0.1-4.3,2.5-7.2c1.8-2.2,9.1-1.8,16.1-1.4c2.8,0.2,5.6,0.3,8.3,0.3
			c5.3,0.1,11.1,0,17.2-0.1c15.4-0.4,31.3-0.7,40.2,3.3l0.4,0.2l0.2-0.3c23.7-31.1,41.5-65.2,52.7-101.3
			C688.7,459,693.3,422.8,691.5,386.4z M676.9,493.7c-11.1,35.9-28.8,69.8-52.3,100.7c-9.2-4-25-3.6-40.3-3.2
			c-6.1,0.1-12,0.3-17.2,0.1c-2.7,0-5.5-0.2-8.3-0.3c-7.9-0.4-14.8-0.8-16.9,1.7c-2.9,3.2-2.8,5.6-2.8,7.9c0.1,2.6,0.1,5-3.8,8.7
			c-2.8,2.5-6.3,3.9-10.8,5.8c-4.8,1.9-10.7,4.4-17.9,8.9c-6.4,4-13.6,10.4-20.5,16.7c-13.3,12-27.1,24.4-34.2,17.6
			c-4.4-4.3,2.9-12.5,12-23c2.6-2.9,5.2-5.9,7.8-9.1c12.7-15.2,26.2-32.4,29.9-44.1c2.7-8.9,3.5-15.8,4.1-21.4
			c0.4-3.8,0.8-6.9,1.6-9.5c4.4-14.5,7.5-25.9,4.4-30.8c-0.8-1.3-2.1-2-3.7-2.3c-0.6-0.1-1.1-0.1-1.7-0.1c-2.2,0-4.7,0.5-7.4,1.1
			c-3.8,0.8-8.1,1.7-12.9,1.4c-3.3-0.2-6.2-0.6-9-1c-5.2-0.7-10.6-1.4-19-1.2c-4.6,0.1-9.4,0.5-13.9,1c-5.5,0.5-10.7,1-15.7,0.9
			c-8.3-0.3-13.7-1.3-18.4-2.2c-4.8-0.9-9.4-1.7-16.2-1.7c-3.9,0-8.8,0.6-14.5,1.4c-14.8,1.9-35.2,4.5-51.8-2.9
			c-9.4-4.1-17.2-13.6-24.8-22.8c-7.5-9.1-14.6-17.7-23.1-21.5c-4.2-1.9-7.8-0.8-11.1,0.2c-3.1,0.9-6.3,1.9-10.2,0.7
			c-4.5-1.5-7.6-6-11.6-11.7c-5-7.2-11.3-16.3-23.2-23.4c-14.7-8.8-29.2-0.6-32.8,3.4c-10.9,12-7.2,30.3,10.9,54.3
			c4.7,6.3,9.5,9.7,13.3,12.5c4.4,3.1,7.5,5.4,8.1,10c0.2,2.3-1,4.8-3.4,6.9c-3,2.6-8.2,4.6-12.9,3.4c-11.4-3.2-19.8-12.2-27.2-20.1
			c-5.9-6.4-11.5-12.4-17.9-14.7c-3.9-1.4-9.1-1-14.2-0.6c-2.5,0.2-4.9,0.3-7.1,0.3c-5.8,0-14,0-22.7,0c-11.6,0-24.8,0-33.8-0.1
			l-0.6,0l0.1,0.6c2.8,18.8,0.2,22.2-8,26C19.2,375.3,73,213,203.2,132c130.4-81.1,300-57.6,403.4,55.9c25.5,28,45.7,59.5,60,93.7
			c14.1,33.6,22.1,68.9,23.9,104.9C692.3,422.8,687.7,458.9,676.9,493.7z M555.3,322.7l-0.4-0.1l-0.1,0.4
			c-3.9,11.8-9,23.7-20.4,30.7c-1.1-8.4,0.9-17.3,3-26.8c1.8-8.3,3.7-16.8,3.3-24.9c-1.1-24.3-11.9-48.7-22.3-72.2
			c-3.1-7.1-6.1-13.8-8.8-20.4c-0.8-2.1-1.6-4.1-2.4-6.2c-5-13-10.2-26.6-20.5-36.4c-25.1-23.8-54.8-19.3-83.5-14.9
			c-8.4,1.3-17.2,2.6-25.7,3.2c-13,1-26.1-1.4-38.8-3.8c-14.7-2.7-29.9-5.5-45.1-3c-42.7,6.7-51.1,61.9-56.6,98.5l-0.6,3.9
			c-3.9,25.5,19.1,37.9,42.1,46.5c10.7,4.1,21.7,7.8,32.7,11.2c2.7,0.9,5.5,1.7,8.2,2.6c4.1,1.3,8.2,2.5,12.3,3.7
			c4.1,1.2,8.2,2.4,12.2,3.6l2.1,0.6c1.3,0.4,2.6,0.8,3.9,1.2c10.9,3.2,23.2,6.8,30.4,15.9c3.6,4.5,4.2,9.7,4.8,15.2
			c0.2,1.4,0.3,2.8,0.5,4.1c0.1,0.7,0.2,1.4,0.3,2.1c0.1,0.7,0.3,1.4,0.5,2.1c0.6,2.5,3.1,5.5,5.6,8.7c3.5,4.3,7.1,8.7,5.9,11.7
			c-1.7,4-10.8,3-14.7,2.6l-0.7-0.1c-12.8-1.3-25.6-5.8-38-10.2c-2.3-0.8-4.6-1.6-6.9-2.4c-27.2-9.5-54.6-22.1-81.2-37.4
			c-1.1-0.7-2.3-1.3-3.5-2c-6.2-3.5-13-7.4-18.3-12.2c-0.5-0.5-1.1-1-1.6-1.5c-2.5-2.6-4.7-5.4-6.2-8.6c-4.7-10.7-2.1-22,0.5-32.9
			c0.2-1,0.5-2.1,0.7-3.1l0.1-0.6h-0.6c-5.1,0-10.4-0.1-15.9-0.3c-23.6-0.6-50.3-1.4-70.6,9.6c-0.4,0.2-0.8,0.4-1.3,0.7
			c-0.6,0.3-1.2,0.7-1.9,1.1c-6.3,3.7-10.7,7.5-13.9,11c-0.2,0.2-0.3,0.4-0.5,0.6c-4.2,4.8-6,9.1-6.8,11.8c-0.1,0.3-0.2,0.7-0.3,1
			c-3.9,16.3,5.8,29.7,16.8,41.8c20.7,22.4,41.6,41.4,64,58.1c39.2,29.1,83.7,52,132.5,68.1c46.4,15.3,95.7,24.2,146.6,26.4
			c2.2,0.1,4.5,0.1,6.9,0.1c44.7,0,102.7-18.3,132.9-55.2c16.7-20.4,26.7-56.5,13.7-79.4C618.3,346.2,576.7,325.9,555.3,322.7z
			 M611.1,450.5c-1,1.1-2.1,2.2-3.1,3.2c-33.2,32.9-89.7,48.3-131.5,46.5c-50.8-2.2-100-11.1-146.4-26.4
			c-48.6-16.1-93.1-38.9-132.2-67.9c-22.3-16.6-43.2-35.5-63.8-57.9c-10.8-11.9-20.3-25-16.6-40.8c3.1-13.2,17.8-22.3,24-25.6
			c15.2-8.2,34.1-9.8,52.6-9.8c5.9,0,11.8,0.2,17.5,0.3c5.4,0.2,10.4,0.3,15.3,0.3c-0.2,0.8-0.4,1.7-0.6,2.5c-0.4,1.7-0.8,3.3-1.1,5
			c-0.2,0.8-0.3,1.5-0.5,2.3c0,0.1-0.1,0.3-0.1,0.4c-0.9,4.7-1.6,9.4-1.4,14.1c0.1,1.7,0.3,3.4,0.6,5.1c0.1,0.3,0.1,0.6,0.2,0.9
			c0.4,1.7,0.9,3.4,1.5,5c0.1,0.3,0.2,0.6,0.3,0.8l0,0c5,10.6,16.4,17.1,26.5,22.8c1.2,0.7,2.4,1.3,3.5,2
			c26.7,15.3,54.1,27.9,81.4,37.4c2.3,0.8,4.6,1.6,6.9,2.4c12.4,4.4,25.3,9,38.2,10.3l0.7,0.1c4.5,0.5,13.8,1.5,15.7-3.2
			c1.4-3.6-2.4-8.2-6.1-12.7c-2.5-3.1-4.8-6-5.4-8.3c-0.7-2.7-1-5.5-1.3-8.1c-0.6-5.4-1.2-11-5-15.7c-7.3-9.3-19.8-13-30.9-16.2
			c-1.3-0.4-2.6-0.8-3.9-1.1l-2-0.6c-2.7-0.8-5.4-1.6-8.2-2.4c-2.7-0.8-5.4-1.6-8.2-2.4c-3.2-1-6.5-2-9.8-3
			c-1.9-0.6-3.8-1.2-5.7-1.8c-11.3-3.6-22.6-7.4-33.6-11.5c-22.6-8.5-45.3-20.6-41.5-45.4l0.6-3.9c5.5-36.3,13.8-91.1,55.8-97.7
			c15-2.4,30.1,0.4,44.7,3c12.7,2.3,25.9,4.7,39,3.8c8.6-0.6,17.3-2,25.8-3.2c29.8-4.6,58-8.9,82.7,14.6c10.2,9.7,15.3,23.1,20.3,36
			c0.8,2.1,1.6,4.2,2.4,6.2c2.7,6.7,5.6,13.4,8.8,20.5c10.4,23.5,21.1,47.7,22.2,71.9c0.4,7.9-1.5,16.4-3.3,24.6
			c-2.1,9.4-4.2,19.2-2.9,27.9l0.1,0.7l0.6-0.4c12-7,17.4-19.1,21.4-31.2c0.7,0.1,1.4,0.2,2.1,0.4c0.7,0.1,1.4,0.3,2.1,0.4
			c3.4,0.8,7.1,1.9,11,3.2c0.4,0.1,0.9,0.3,1.3,0.5c0.4,0.2,0.9,0.3,1.3,0.5c19.6,7.3,43.2,20.9,53.5,35.1c0.8,1.1,1.6,2.3,2.2,3.4
			c12.8,22.5,2.9,58.1-13.7,78.2C614,447.2,612.6,448.9,611.1,450.5z M410.1,167.6l-0.4,0.1v2l0.4,0.1c1.3,0.3,3.1,0.6,5.3,0.9
			c8.6,1.2,22.9,3.2,21.9,11.1c-0.4,3-3.3,5.7-6.1,8.3c-1.5,1.4-2.9,2.7-3.9,4l-0.4,0.6l0.7,0.2c2.4,0.7,6.5,1.2,11,1.2
			c10.2,0,23.1-2.1,27.6-7.9c1.2-1.5,1.7-3.2,1.7-5c0-2-0.7-4.2-2.1-6.5C454.4,157.6,414.6,166.5,410.1,167.6z M465.4,187.4
			c-6.1,7.9-28.5,8.7-36.8,6.6c0.9-1,2.1-2.1,3.3-3.2c2.8-2.6,6-5.6,6.5-8.9c1.1-8.9-13.8-11-22.8-12.2c-1.9-0.3-3.6-0.5-4.8-0.8
			v-0.4c5.9-1.4,43.4-9.3,54.3,8.6C467.5,181.1,467.6,184.6,465.4,187.4z M353.7,219.8l-0.8-0.2c-8.2-1.8-16.6-1.1-24.7-0.5
			c-9.7,0.8-18.9,1.5-27.7-1.6c-2.3-0.8-5.1-3.1-8-5.5c-5.2-4.3-11.1-9.2-15.9-6.7c-4.8,2.5-5.5,9.2-5.6,14
			c-0.3,12.7,7.8,23.5,21.5,28.8c1.3,0.5,2.5,0.7,3.7,0.7c3.5,0,6.7-1.7,9.8-3.4c1.8-1,3.7-2,5.6-2.6c6.1-2,13.7-2.5,21.7-3.1
			c11.9-0.8,24.2-1.6,31.9-7.6c2.4-1.8,3.4-3.6,3-5.3C367.3,222.6,358.1,220.7,353.7,219.8z M333.2,238.7c-8.1,0.5-15.8,1-22,3.1
			c-2,0.7-3.9,1.7-5.8,2.7c-4.2,2.2-8.1,4.3-12.7,2.6c-13.3-5.1-21.2-15.5-20.9-27.8c0.1-4.6,0.7-10.9,5-13.2
			c0.7-0.4,1.5-0.5,2.3-0.5c3.8,0,8.4,3.8,12.5,7.2c3,2.5,5.8,4.8,8.3,5.7c9.1,3.2,18.8,2.4,28.2,1.7c8-0.7,16.3-1.3,24.4,0.5
			l0.8,0.2c3.5,0.7,13,2.7,13.8,6.2c0.3,1.3-0.6,2.7-2.6,4.3C357.1,237.1,345,237.9,333.2,238.7z"/>
	</g>
	<g>
		<path id="path173_1_" inkscape:connector-curvature="0" class="st1" d="M629.5,367c-11.2-19.7-52.3-40.5-74.3-43.8
			c-4.1,12.5-9.4,24.4-21.3,31.3c-2.5-16.2,7-35.3,6.2-52.5c-1.4-31.5-19.4-63.7-31-92.5c-5.9-14.9-10.9-31.1-22.8-42.4
			c-32.2-30.6-71.2-14.2-108.8-11.5c-28.1,2.1-55.7-11.3-83.8-6.8c-43.9,6.9-51.2,65.4-56.8,102c-4,26.4,21.4,38.3,41.8,46
			c22.1,8.4,44.9,15.1,67.5,21.8c11.9,3.6,26.4,6.9,34.5,17.2c5.5,7,4.1,15.6,6.2,23.7c1.5,5.9,13.7,15.1,11.5,20.7
			c-1.9,4.6-12.1,3.2-15.9,2.8c-15.3-1.5-30.6-7.7-45-12.7c-28.1-9.8-55.5-22.6-81.3-37.4c-10.7-6.2-24.3-12.9-29.8-24.6
			c-5.2-11.9-1.5-24.5,1.2-36.4c-27.2,0-61.4-4.2-86.3,9.2c-10,5.3-21.6,14.3-24.3,25.9c-3.9,16.4,6.3,29.9,16.7,41.3
			c19.6,21.3,40.6,40.7,63.9,58c80.5,59.8,179.4,90.1,278.8,94.4c47.4,2.1,108.5-17.2,139.4-54.9C631.7,426.4,642.8,390.4,629.5,367
			z M615.5,445.5c-1.4,1.7-2.9,3.4-4.4,5c-1,1.1-2.1,2.2-3.1,3.2c-33.2,32.9-89.7,48.3-131.5,46.5c-50.8-2.2-100-11.1-146.4-26.4
			c-48.6-16.1-93.1-38.9-132.2-67.9c-22.3-16.6-43.2-35.5-63.8-57.9c-10.8-11.9-20.3-25-16.6-40.8c3.1-13.2,17.8-22.3,24-25.6
			c15.2-8.2,34.1-9.8,52.6-9.8c5.9,0,11.8,0.2,17.5,0.3c5.4,0.2,10.4,0.3,15.3,0.3c-0.2,0.8-0.4,1.7-0.6,2.5c-0.4,1.7-0.8,3.3-1.1,5
			c-0.2,0.8-0.3,1.5-0.5,2.3c0,0.1-0.1,0.3-0.1,0.4c-0.1,0.7-0.3,1.5-0.4,2.2c-0.7,4-1.1,7.9-1,11.9c0.1,1.7,0.2,3.4,0.6,5.1
			c0.1,0.3,0.1,0.6,0.2,0.9c0.4,1.7,0.9,3.4,1.5,5c0.1,0.3,0.2,0.6,0.3,0.8l0,0c5,10.6,16.4,17.1,26.5,22.8c1.2,0.7,2.4,1.3,3.5,2
			c26.7,15.3,54.1,27.9,81.4,37.4c2.3,0.8,4.6,1.6,6.9,2.4c12.4,4.4,25.3,9,38.2,10.3l0.7,0.1c4.5,0.5,13.8,1.5,15.7-3.2
			c1.4-3.6-2.4-8.2-6.1-12.7c-2.5-3.1-4.8-6-5.4-8.3c-0.7-2.7-1-5.5-1.3-8.1c-0.6-5.4-1.2-11-5-15.7c-7.3-9.3-19.8-13-30.9-16.2
			c-1.3-0.4-2.6-0.8-3.9-1.1l-2-0.6c-2.7-0.8-5.4-1.6-8.2-2.4c-2.7-0.8-5.4-1.6-8.2-2.4c-3.2-1-6.5-2-9.8-3
			c-1.9-0.6-3.8-1.2-5.7-1.8c-11.3-3.6-22.6-7.4-33.6-11.5c-22.6-8.5-45.3-20.6-41.5-45.4l0.6-3.9c5.5-36.3,13.8-91.1,55.8-97.7
			c15-2.4,30.1,0.4,44.7,3c12.7,2.3,25.9,4.7,39,3.8c8.6-0.6,17.3-2,25.8-3.2c29.8-4.6,58-8.9,82.7,14.6c10.2,9.7,15.3,23.1,20.3,36
			c0.8,2.1,1.6,4.2,2.4,6.2c2.7,6.7,5.6,13.4,8.8,20.5c10.4,23.5,21.1,47.7,22.2,71.9c0.4,7.9-1.5,16.4-3.3,24.6
			c-2.1,9.4-4.2,19.2-2.9,27.9l0.1,0.7l0.6-0.4c12-7,17.4-19.1,21.4-31.2c0.7,0.1,1.4,0.2,2.1,0.4c0.7,0.1,1.4,0.3,2.1,0.4
			c3.4,0.8,7.1,1.9,11,3.2c0.4,0.1,0.9,0.3,1.3,0.5c0.4,0.2,0.9,0.3,1.3,0.5c7.4,2.8,15.3,6.4,22.8,10.6
			c14.1,7.9,24.8,16.5,30.7,24.5c0.8,1.1,1.6,2.3,2.2,3.4C641.9,389.7,632,425.3,615.5,445.5z M410.1,167.6l-0.4,0.1v2l0.4,0.1
			c1.3,0.3,3.1,0.6,5.3,0.9c8.6,1.2,22.9,3.2,21.9,11.1c-0.4,3-3.3,5.7-6.1,8.3c-1.5,1.4-2.9,2.7-3.9,4l-0.4,0.6l0.7,0.2
			c2.4,0.7,6.5,1.2,11,1.2c10.2,0,23.1-2.1,27.6-7.9c1.2-1.5,1.7-3.2,1.7-5c0-2-0.7-4.2-2.1-6.5
			C454.4,157.6,414.6,166.5,410.1,167.6z M427.7,194.3c2.8-3.7,9.5-7.7,10.1-12.5c1.3-10.4-21.3-11-27.6-12.5v-1.2
			c15-3.6,45.6-7.1,55.2,8.7C476.7,195.6,437.5,197.2,427.7,194.3z M353.7,219.8l-0.8-0.2c-8.2-1.8-16.6-1.1-24.7-0.5
			c-9.7,0.8-18.9,1.5-27.7-1.6c-2.3-0.8-5.1-3.1-8-5.5c-5.2-4.3-11.1-9.2-15.9-6.7c-4.8,2.5-5.5,9.2-5.6,14
			c-0.3,12.7,7.8,23.5,21.5,28.8c1.3,0.5,2.5,0.7,3.7,0.7c3.5,0,6.7-1.7,9.8-3.4c1.8-1,3.7-2,5.6-2.6c6.1-2,13.7-2.5,21.7-3.1
			c11.9-0.8,24.2-1.6,31.9-7.6c2.4-1.8,3.4-3.6,3-5.3C367.3,222.6,358.1,220.7,353.7,219.8z M364.9,231.7
			c-12.8,9.9-38.3,5.5-53.5,10.6c-6.3,2.1-11.9,7.9-18.8,5.3c-12.5-4.8-21.5-14.8-21.2-28.3c0.1-4.4,0.7-11.2,5.3-13.6
			c7.1-3.6,17,10,23.5,12.3c16.7,5.9,34.9-1.8,52.5,2.1C357.3,221.1,374.5,224.2,364.9,231.7z"/>
		<path d="M465.9,176.5c-11.5-18.9-51.2-10-55.8-8.9l-0.4,0.1v2l0.4,0.1c1.3,0.3,3.1,0.6,5.3,0.9c8.6,1.2,22.9,3.2,21.9,11.1
			c-0.4,3-3.3,5.7-6.1,8.3c-1.5,1.4-2.9,2.7-3.9,4l-0.4,0.6l0.7,0.2c2.4,0.7,6.5,1.2,11,1.2c10.2,0,23.1-2.1,27.6-7.9
			c1.2-1.5,1.7-3.2,1.7-5C468,181,467.3,178.8,465.9,176.5z M428.6,194c0.9-1,2.1-2.1,3.3-3.2c2.8-2.6,6-5.6,6.5-8.9
			c1.1-8.9-13.8-11-22.8-12.2c-1.9-0.3-3.6-0.5-4.8-0.8v-0.4c5.9-1.4,43.4-9.3,54.3,8.6c2.5,4.1,2.6,7.5,0.4,10.3
			C459.4,195.2,437,196,428.6,194z M368.2,226.8c-1-4.1-10.2-6.1-14.6-7l-0.8-0.2c-8.2-1.8-16.6-1.1-24.7-0.5
			c-9.7,0.8-18.9,1.5-27.7-1.6c-2.3-0.8-5.1-3.1-8-5.5c-5.2-4.3-11.1-9.2-15.9-6.7c-4.8,2.5-5.5,9.2-5.6,14
			c-0.3,12.7,7.8,23.5,21.5,28.8c1.3,0.5,2.5,0.7,3.7,0.7c3.5,0,6.7-1.7,9.8-3.4c1.8-1,3.7-2,5.6-2.6c6.1-2,13.7-2.5,21.7-3.1
			c11.9-0.8,24.2-1.6,31.9-7.6C367.6,230.2,368.6,228.4,368.2,226.8z M333.2,238.7c-8.1,0.5-15.8,1-22,3.1c-2,0.7-3.9,1.7-5.8,2.7
			c-4.2,2.2-8.1,4.3-12.7,2.6c-13.3-5.1-21.2-15.5-20.9-27.8c0.1-4.6,0.7-10.9,5-13.2c0.7-0.4,1.5-0.5,2.3-0.5
			c3.8,0,8.4,3.8,12.5,7.2c3,2.5,5.8,4.8,8.3,5.7c9.1,3.2,18.8,2.4,28.2,1.7c8-0.7,16.3-1.3,24.4,0.5l0.8,0.2
			c3.5,0.7,13,2.7,13.8,6.2c0.3,1.3-0.6,2.7-2.6,4.3C357.1,237.1,345,237.9,333.2,238.7z M465.9,176.5c-11.5-18.9-51.2-10-55.8-8.9
			l-0.4,0.1v2l0.4,0.1c1.3,0.3,3.1,0.6,5.3,0.9c8.6,1.2,22.9,3.2,21.9,11.1c-0.4,3-3.3,5.7-6.1,8.3c-1.5,1.4-2.9,2.7-3.9,4l-0.4,0.6
			l0.7,0.2c2.4,0.7,6.5,1.2,11,1.2c10.2,0,23.1-2.1,27.6-7.9c1.2-1.5,1.7-3.2,1.7-5C468,181,467.3,178.8,465.9,176.5z M428.6,194
			c0.9-1,2.1-2.1,3.3-3.2c2.8-2.6,6-5.6,6.5-8.9c1.1-8.9-13.8-11-22.8-12.2c-1.9-0.3-3.6-0.5-4.8-0.8v-0.4
			c5.9-1.4,43.4-9.3,54.3,8.6c2.5,4.1,2.6,7.5,0.4,10.3C459.4,195.2,437,196,428.6,194z M353.7,219.8l-0.8-0.2
			c-8.2-1.8-16.6-1.1-24.7-0.5c-9.7,0.8-18.9,1.5-27.7-1.6c-2.3-0.8-5.1-3.1-8-5.5c-5.2-4.3-11.1-9.2-15.9-6.7
			c-4.8,2.5-5.5,9.2-5.6,14c-0.3,12.7,7.8,23.5,21.5,28.8c1.3,0.5,2.5,0.7,3.7,0.7c3.5,0,6.7-1.7,9.8-3.4c1.8-1,3.7-2,5.6-2.6
			c6.1-2,13.7-2.5,21.7-3.1c11.9-0.8,24.2-1.6,31.9-7.6c2.4-1.8,3.4-3.6,3-5.3C367.3,222.6,358.1,220.7,353.7,219.8z M333.2,238.7
			c-8.1,0.5-15.8,1-22,3.1c-2,0.7-3.9,1.7-5.8,2.7c-4.2,2.2-8.1,4.3-12.7,2.6c-13.3-5.1-21.2-15.5-20.9-27.8
			c0.1-4.6,0.7-10.9,5-13.2c0.7-0.4,1.5-0.5,2.3-0.5c3.8,0,8.4,3.8,12.5,7.2c3,2.5,5.8,4.8,8.3,5.7c9.1,3.2,18.8,2.4,28.2,1.7
			c8-0.7,16.3-1.3,24.4,0.5l0.8,0.2c3.5,0.7,13,2.7,13.8,6.2c0.3,1.3-0.6,2.7-2.6,4.3C357.1,237.1,345,237.9,333.2,238.7z
			 M630,366.7c-11.6-20.5-53.3-40.8-74.7-44l-0.4-0.1l-0.1,0.4c-3.9,11.8-9,23.7-20.4,30.7c-1.1-8.4,0.9-17.3,3-26.8
			c1.8-8.3,3.7-16.8,3.3-24.9c-1.1-24.3-11.9-48.7-22.3-72.2c-3.1-7.1-6.1-13.8-8.8-20.4c-0.8-2.1-1.6-4.1-2.4-6.2
			c-5-13-10.2-26.6-20.5-36.4c-25.1-23.8-54.8-19.3-83.5-14.9c-8.4,1.3-17.2,2.6-25.7,3.2c-13,1-26.1-1.4-38.8-3.8
			c-14.7-2.7-29.9-5.5-45.1-3c-42.7,6.7-51.1,61.9-56.6,98.5l-0.6,3.9c-3.9,25.5,19.1,37.9,42.1,46.5c10.7,4.1,21.7,7.8,32.7,11.2
			c2.7,0.9,5.5,1.7,8.2,2.6c4.1,1.3,8.2,2.5,12.3,3.7c4.1,1.2,8.2,2.5,12.2,3.7l2,0.6c1.3,0.4,2.6,0.8,3.9,1.2
			c10.9,3.2,23.2,6.8,30.4,15.9c3.6,4.5,4.2,9.7,4.8,15.2c0.2,1.4,0.3,2.8,0.5,4.1c0.1,0.7,0.2,1.4,0.3,2.1c0.1,0.7,0.3,1.4,0.5,2.1
			c0.6,2.5,3.1,5.5,5.6,8.7c3.5,4.3,7.1,8.7,5.9,11.7c-1.7,4-10.8,3-14.7,2.6l-0.7-0.1c-12.8-1.3-25.6-5.8-38-10.2
			c-2.3-0.8-4.6-1.6-6.9-2.4c-27.2-9.5-54.6-22.1-81.2-37.4c-1.1-0.7-2.3-1.3-3.5-2c-6.2-3.5-13-7.4-18.3-12.2
			c-0.5-0.5-1.1-1-1.6-1.5c-2.5-2.6-4.7-5.4-6.2-8.6c-4.7-10.7-2.1-22,0.5-32.9c0.2-1,0.5-2.1,0.7-3.1l0.1-0.6h-0.6
			c-5.1,0-10.4-0.1-15.9-0.3c-23.6-0.6-50.3-1.4-70.6,9.6c-0.4,0.2-0.8,0.4-1.3,0.7c-4.1,2.3-10.6,6.4-15.8,12.1
			c-0.2,0.2-0.3,0.4-0.5,0.6c-2.8,3.1-5.1,6.7-6.4,10.7c-0.1,0.4-0.3,0.8-0.4,1.1c-0.1,0.3-0.2,0.7-0.3,1
			c-3.9,16.3,5.8,29.7,16.8,41.8c20.7,22.4,41.6,41.4,64,58.1c39.2,29.1,83.7,52,132.5,68.1c46.4,15.3,95.7,24.2,146.6,26.4
			c2.2,0.1,4.5,0.1,6.9,0.1c44.7,0,102.7-18.3,132.9-55.2C632.9,425.7,643,389.6,630,366.7z M611.1,450.5c-1,1.1-2.1,2.2-3.1,3.2
			c-33.2,32.9-89.7,48.3-131.5,46.5c-50.8-2.2-100-11.1-146.4-26.4c-48.6-16.1-93.1-38.9-132.2-67.9c-22.3-16.6-43.2-35.5-63.8-57.9
			c-10.8-11.9-20.3-25-16.6-40.8c3.1-13.2,17.8-22.3,24-25.6c15.2-8.2,34.1-9.8,52.6-9.8c5.9,0,11.8,0.2,17.5,0.3
			c5.4,0.2,10.4,0.3,15.3,0.3c-0.2,0.8-0.4,1.7-0.6,2.5c-0.4,1.7-0.8,3.3-1.1,5c-0.2,0.8-0.3,1.5-0.5,2.3c0,0.1-0.1,0.3-0.1,0.4
			c-0.1,0.7-0.3,1.5-0.4,2.2c-0.7,4-1.1,7.9-1,11.9c0.1,1.7,0.2,3.4,0.6,5.1c0.1,0.3,0.1,0.6,0.2,0.9c0.4,1.7,0.9,3.4,1.5,5
			c0.1,0.3,0.2,0.6,0.3,0.8l0,0c5,10.6,16.4,17.1,26.5,22.8c1.2,0.7,2.4,1.3,3.5,2c26.7,15.3,54.1,27.9,81.4,37.4
			c2.3,0.8,4.6,1.6,6.9,2.4c12.4,4.4,25.3,9,38.2,10.3l0.7,0.1c4.5,0.5,13.8,1.5,15.7-3.2c1.4-3.6-2.4-8.2-6.1-12.7
			c-2.5-3.1-4.8-6-5.4-8.3c-0.7-2.7-1-5.5-1.3-8.1c-0.6-5.4-1.2-11-5-15.7c-7.3-9.3-19.8-13-30.9-16.2c-1.3-0.4-2.6-0.8-3.9-1.1
			l-2-0.6c-2.7-0.8-5.4-1.6-8.2-2.4c-2.7-0.8-5.4-1.6-8.2-2.4c-3.2-1-6.5-2-9.8-3c-1.9-0.6-3.8-1.2-5.7-1.8
			c-11.3-3.6-22.6-7.4-33.6-11.5c-22.6-8.5-45.3-20.6-41.5-45.4l0.6-3.9c5.5-36.3,13.8-91.1,55.8-97.7c15-2.4,30.1,0.4,44.7,3
			c12.7,2.3,25.9,4.7,39,3.8c8.6-0.6,17.3-2,25.8-3.2c29.8-4.6,58-8.9,82.7,14.6c10.2,9.7,15.3,23.1,20.3,36
			c0.8,2.1,1.6,4.2,2.4,6.2c2.7,6.7,5.6,13.4,8.8,20.5c10.4,23.5,21.1,47.7,22.2,71.9c0.4,7.9-1.5,16.4-3.3,24.6
			c-2.1,9.4-4.2,19.2-2.9,27.9l0.1,0.7l0.6-0.4c12-7,17.4-19.1,21.4-31.2c0.7,0.1,1.4,0.2,2.1,0.4c0.7,0.1,1.4,0.3,2.1,0.4
			c3.4,0.8,7.1,1.9,11,3.2c0.4,0.1,0.9,0.3,1.3,0.5c0.4,0.2,0.9,0.3,1.3,0.5c7.4,2.8,15.3,6.4,22.8,10.6
			c14.1,7.9,24.8,16.5,30.7,24.5c0.8,1.1,1.6,2.3,2.2,3.4c12.8,22.5,2.9,58.1-13.7,78.2C614,447.2,612.6,448.9,611.1,450.5z
			 M410.1,167.6l-0.4,0.1v2l0.4,0.1c1.3,0.3,3.1,0.6,5.3,0.9c8.6,1.2,22.9,3.2,21.9,11.1c-0.4,3-3.3,5.7-6.1,8.3
			c-1.5,1.4-2.9,2.7-3.9,4l-0.4,0.6l0.7,0.2c2.4,0.7,6.5,1.2,11,1.2c10.2,0,23.1-2.1,27.6-7.9c1.2-1.5,1.7-3.2,1.7-5
			c0-2-0.7-4.2-2.1-6.5C454.4,157.6,414.6,166.5,410.1,167.6z M465.4,187.4c-6.1,7.9-28.5,8.7-36.8,6.6c0.9-1,2.1-2.1,3.3-3.2
			c2.8-2.6,6-5.6,6.5-8.9c1.1-8.9-13.8-11-22.8-12.2c-1.9-0.3-3.6-0.5-4.8-0.8v-0.4c5.9-1.4,43.4-9.3,54.3,8.6
			C467.5,181.1,467.6,184.6,465.4,187.4z M353.7,219.8l-0.8-0.2c-8.2-1.8-16.6-1.1-24.7-0.5c-9.7,0.8-18.9,1.5-27.7-1.6
			c-2.3-0.8-5.1-3.1-8-5.5c-5.2-4.3-11.1-9.2-15.9-6.7c-4.8,2.5-5.5,9.2-5.6,14c-0.3,12.7,7.8,23.5,21.5,28.8
			c1.3,0.5,2.5,0.7,3.7,0.7c3.5,0,6.7-1.7,9.8-3.4c1.8-1,3.7-2,5.6-2.6c6.1-2,13.7-2.5,21.7-3.1c11.9-0.8,24.2-1.6,31.9-7.6
			c2.4-1.8,3.4-3.6,3-5.3C367.3,222.6,358.1,220.7,353.7,219.8z M333.2,238.7c-8.1,0.5-15.8,1-22,3.1c-2,0.7-3.9,1.7-5.8,2.7
			c-4.2,2.2-8.1,4.3-12.7,2.6c-13.3-5.1-21.2-15.5-20.9-27.8c0.1-4.6,0.7-10.9,5-13.2c0.7-0.4,1.5-0.5,2.3-0.5
			c3.8,0,8.4,3.8,12.5,7.2c3,2.5,5.8,4.8,8.3,5.7c9.1,3.2,18.8,2.4,28.2,1.7c8-0.7,16.3-1.3,24.4,0.5l0.8,0.2
			c3.5,0.7,13,2.7,13.8,6.2c0.3,1.3-0.6,2.7-2.6,4.3C357.1,237.1,345,237.9,333.2,238.7z"/>
	</g>
</g>
</svg>
