<?xml version="1.0" encoding="utf-8"?>
<!-- Generator: Adobe Illustrator 19.2.1, SVG Export Plug-In . SVG Version: 6.00 Build 0)  -->
<svg version="1.1"
	 id="svg1" inkscape:version="0.48.2 r9819" sodipodi:docname="rhel.svg" sodipodi:version="0.30.1" xmlns:cc="http://creativecommons.org/ns#" xmlns:dc="http://purl.org/dc/elements/1.1/" xmlns:inkscape="http://www.inkscape.org/namespaces/inkscape" xmlns:rdf="http://www.w3.org/1999/02/22-rdf-syntax-ns#" xmlns:sodipodi="http://sodipodi.sourceforge.net/DTD/sodipodi-0.dtd" xmlns:svg="http://www.w3.org/2000/svg"
	 xmlns="http://www.w3.org/2000/svg" xmlns:xlink="http://www.w3.org/1999/xlink" x="0px" y="0px" viewBox="0 0 639.8 639.8"
	 style="enable-background:new 0 0 639.8 639.8;" xml:space="preserve">
<style type="text/css">
	.st0{fill:#212C35;stroke:#000000;}
	.st1{fill:#FFFFFF;stroke:#000000;}
</style>
<sodipodi:namedview  id="base" inkscape:current-layer="svg1" inkscape:cx="232.14818" inkscape:cy="372.04724" inkscape:window-height="1084" inkscape:window-maximized="0" inkscape:window-width="1426" inkscape:window-x="892" inkscape:window-y="146" inkscape:zoom="1.2686561" showgrid="false">
	</sodipodi:namedview>
<g id="g2992" transform="translate(-52.16165,-82.919048)">
	<path id="path194" inkscape:connector-curvature="0" class="st0" d="M393.9,557.7c-5,1.3-13.7,9.5-7.1,14.3c3.6,2.5,9.3,2,13.4,3.3
		c9.9,3,17.8,9.4,28.8,5.9c6.9-2.2,18.9-16.7,7.3-21.5c-5.3-2.2-10.8,5.2-16.1,5.6C410.5,566.1,404,555.1,393.9,557.7z M74.8,518.8
		c-56.3-143.1-2.4-306,128.1-387.2c130.6-81.3,300.5-57.7,404,56c103.5,113.7,114.6,280.7,17.8,407.5c-12.6-5.7-39.1-2.7-57.7-3.2
		c-10-0.1-22.1-2-24.8,1.2c-5.9,6.5,1.1,9.4-6.6,16.6c-5.8,5.2-14.9,5.9-28.8,14.7c-19,11.8-44.1,44.9-55.3,34.2
		c-6-5.9,7.7-18,19.8-32.7c12.2-14.6,26.1-32.1,29.8-43.9c4.6-14.9,3.6-24.4,5.7-30.9c4.9-16.1,9.2-31.3,1.1-32.4
		c-5.6-0.8-12.8,3-22,2.4c-9.6-0.7-15.2-2.4-28-2.2c-10.1,0.2-20.4,2.1-29.6,1.9c-16.9-0.7-21.1-3.9-34.6-3.9
		c-14.2,0-43.5,8.6-66.5-1.6c-18.5-8.2-30.9-36.7-47.9-44.3c-7.9-3.5-13,3.6-21.3,0.9c-10.4-3.4-13.6-22.4-34.9-35.2
		c-14-8.4-28.3-1-32.2,3.3c-13.4,14.8-2.1,36.4,10.9,53.7c9.9,13.4,20.4,13.7,21.5,22.8c0.7,6.4-9.1,12.9-17,10.8
		c-20.5-5.7-31-29.7-45.1-34.8c-5.6-2-14.4-0.2-21.1-0.3c-13.6-0.1-40.9,0.1-56.5-0.1C86.5,511.3,83.9,514.7,74.8,518.8L74.8,518.8z
		"/>
	<path id="path173" inkscape:connector-curvature="0" class="st1" d="M582.7,163.1L582.7,163.1z M227.6,271.9
		c-27.2,0-61.4-4.2-86.3,9.2c-10,5.3-21.6,14.3-24.3,25.9c-3.9,16.4,6.3,29.9,16.7,41.3c19.6,21.3,40.6,40.7,63.9,58
		c80.5,59.8,179.4,90.1,278.8,94.4c47.4,2.1,108.5-17.2,139.4-54.9c15.9-19.4,27-55.4,13.7-78.8c-11.2-19.7-52.3-40.5-74.3-43.8
		c-4.1,12.5-9.4,24.4-21.3,31.3c-2.5-16.2,7-35.3,6.2-52.5c-1.4-31.5-19.4-63.7-31-92.5c-5.9-14.9-10.9-31.1-22.8-42.4
		c-32.2-30.6-71.2-14.2-108.8-11.5c-28.1,2.1-55.7-11.3-83.8-6.8c-43.9,6.9-51.2,65.4-56.8,102c-4,26.4,21.4,38.3,41.8,46
		c22.1,8.4,44.9,15.1,67.5,21.8c11.9,3.6,26.4,6.9,34.5,17.2c5.5,7,4.1,15.6,6.2,23.7c1.5,5.9,13.7,15.1,11.5,20.7
		c-1.9,4.6-12.1,3.2-15.9,2.8c-15.3-1.5-30.6-7.7-45-12.7c-28.1-9.8-55.5-22.6-81.3-37.4c-10.7-6.2-24.3-12.9-29.8-24.6
		C221.2,296.4,224.9,283.8,227.6,271.9 M410.2,168.1v1.2c6.3,1.5,28.9,2.1,27.6,12.5c-0.6,4.8-7.3,8.8-10.1,12.5
		c9.8,2.9,49,1.3,37.7-17.5C455.8,161,425.2,164.5,410.2,168.1L410.2,168.1z M276.7,205.7c-4.6,2.4-5.2,9.2-5.3,13.6
		c-0.3,13.5,8.7,23.5,21.2,28.3c6.9,2.6,12.5-3.2,18.8-5.3c15.2-5.1,40.7-0.7,53.5-10.6c9.6-7.5-7.6-10.6-12.2-11.6
		c-17.6-3.9-35.8,3.8-52.5-2.1C293.7,215.7,283.8,202.1,276.7,205.7L276.7,205.7z"/>
</g>
</svg>
