<svg id="Layer_1" data-name="Layer 1" xmlns="http://www.w3.org/2000/svg" viewBox="0 0 100.85 101.4"><defs><style>.cls-1{fill:#404447;}</style></defs><title>refactor</title><path class="cls-1" d="M516.4,267.2h0l-65.8-.2a4.34,4.34,0,0,1-3-1.3,4.23,4.23,0,0,1-1.2-3l0.1-21.6a4.27,4.27,0,0,1,4.3-4.3h0l65.8,0.2a4.1,4.1,0,0,1,3.1,1.4l9.8,10.8a4.3,4.3,0,0,1,0,5.8l-9.9,10.8a4.48,4.48,0,0,1-3.2,1.4h0Zm-61.6-8.7,59.7,0.2,6-6.5-5.9-6.5-59.7-.2-0.1,13h0Z" transform="translate(-429.77 -229.3)"/><path class="cls-1" d="M509.7,301.4h0l-65.8-.2a4.48,4.48,0,0,1-3.2-1.4L430.9,289a4.3,4.3,0,0,1,0-5.8l9.9-10.8a4.26,4.26,0,0,1,3.1-1.4h0l65.8,0.2a4.27,4.27,0,0,1,4.3,4.3l-0.1,21.6a4.34,4.34,0,0,1-1.3,3,3.35,3.35,0,0,1-2.9,1.3h0Zm-63.9-8.7,59.7,0.2v-13l-59.7-.2-6,6.5,6,6.5h0Z" transform="translate(-429.77 -229.3)"/><path class="cls-1" d="M477.2,330.7h0a4.27,4.27,0,0,1-4.3-4.3l0.1-29a4.27,4.27,0,0,1,4.3-4.3h0a4.27,4.27,0,0,1,4.3,4.3l-0.1,29a4.4,4.4,0,0,1-4.3,4.3h0Z" transform="translate(-429.77 -229.3)"/><path class="cls-1" d="M477.4,242.4h0a4.27,4.27,0,0,1-4.3-4.3v-4.5a4.27,4.27,0,0,1,4.3-4.3h0a4.27,4.27,0,0,1,4.3,4.3v4.5a4.27,4.27,0,0,1-4.3,4.3h0Z" transform="translate(-429.77 -229.3)"/><path class="cls-1" d="M477.3,277.2h0a4.27,4.27,0,0,1-4.3-4.3v-7.1a4.27,4.27,0,0,1,4.3-4.3h0a4.27,4.27,0,0,1,4.3,4.3v7.1a4.27,4.27,0,0,1-4.3,4.3h0Z" transform="translate(-429.77 -229.3)"/></svg>