<svg id="Layer_1" data-name="Layer 1" xmlns="http://www.w3.org/2000/svg" viewBox="0 0 106.4 101.22"><defs><style>.cls-1{fill:#404447;}</style></defs><title>resources</title><path class="cls-1" d="M480.2,292.7a5.37,5.37,0,0,1-2.1-.5L429,264.7a4.33,4.33,0,0,1-2.2-3.7,4.25,4.25,0,0,1,2.2-3.7L477.8,230a4.26,4.26,0,0,1,4.1,0L531,257.5a4.33,4.33,0,0,1,2.2,3.7,4.25,4.25,0,0,1-2.2,3.7l-48.8,27.3a4.55,4.55,0,0,1-2,.5h0Zm-40.5-31.8,40.5,22.7,40.2-22.5-40.5-22.7-40.2,22.5h0Z" transform="translate(-426.8 -229.48)"/><path class="cls-1" d="M480.2,311.7a5.37,5.37,0,0,1-2.1-.5L429,283.7a4.19,4.19,0,1,1,4.1-7.3l47.1,26.4,46.7-26.2a4.19,4.19,0,1,1,4.1,7.3l-48.8,27.3a4.55,4.55,0,0,1-2,.5h0Z" transform="translate(-426.8 -229.48)"/><path class="cls-1" d="M480.2,330.7a5.37,5.37,0,0,1-2.1-.5L429,302.7a4.19,4.19,0,1,1,4.1-7.3l47.1,26.4,46.7-26.2a4.19,4.19,0,1,1,4.1,7.3l-48.8,27.3a4.55,4.55,0,0,1-2,.5h0Z" transform="translate(-426.8 -229.48)"/><path class="cls-1" d="M479.7,271.1a9.7,9.7,0,1,1,9.7-9.7,9.71,9.71,0,0,1-9.7,9.7h0Zm0-16.1a6.4,6.4,0,1,0,6.4,6.4,6.38,6.38,0,0,0-6.4-6.4h0Z" transform="translate(-426.8 -229.48)"/><path class="cls-1" d="M473.7,257a1.61,1.61,0,0,1-1.1-.5l-2.2-2.2a1.63,1.63,0,0,1,2.3-2.3l2.2,2.2a1.69,1.69,0,0,1,0,2.3,2.08,2.08,0,0,1-1.2.5h0Z" transform="translate(-426.8 -229.48)"/><path class="cls-1" d="M488.1,271.4a1.61,1.61,0,0,1-1.1-.5l-2.6-2.6a1.63,1.63,0,0,1,2.3-2.3l2.6,2.6a1.69,1.69,0,0,1,0,2.3,2.08,2.08,0,0,1-1.2.5h0Z" transform="translate(-426.8 -229.48)"/><path class="cls-1" d="M485.8,257a1.61,1.61,0,0,1-1.1-.5,1.69,1.69,0,0,1,0-2.3l2.2-2.2a1.63,1.63,0,1,1,2.3,2.3l-2.2,2.2a2.08,2.08,0,0,1-1.2.5h0Z" transform="translate(-426.8 -229.48)"/><path class="cls-1" d="M471.4,271.4a1.61,1.61,0,0,1-1.1-.5,1.69,1.69,0,0,1,0-2.3L473,266a1.63,1.63,0,0,1,2.3,2.3l-2.7,2.6a2.08,2.08,0,0,1-1.2.5h0Z" transform="translate(-426.8 -229.48)"/><path class="cls-1" d="M479.7,254.5a1.58,1.58,0,0,1-1.6-1.6v-3.2a1.6,1.6,0,0,1,3.2,0v3.2a1.58,1.58,0,0,1-1.6,1.6h0Z" transform="translate(-426.8 -229.48)"/><path class="cls-1" d="M479.7,274.8h0a1.58,1.58,0,0,1-1.6-1.6v-3.7a1.58,1.58,0,0,1,1.6-1.6h0a1.58,1.58,0,0,1,1.6,1.6v3.7a1.58,1.58,0,0,1-1.6,1.6h0Z" transform="translate(-426.8 -229.48)"/><path class="cls-1" d="M491.5,263.1h-3.2a1.6,1.6,0,0,1,0-3.2h3.2a1.58,1.58,0,0,1,1.6,1.6,1.64,1.64,0,0,1-1.6,1.6h0Z" transform="translate(-426.8 -229.48)"/><path class="cls-1" d="M471.7,263.1H468a1.6,1.6,0,0,1,0-3.2h3.7a1.58,1.58,0,0,1,1.6,1.6,1.64,1.64,0,0,1-1.6,1.6h0Z" transform="translate(-426.8 -229.48)"/></svg>