<svg id="Layer_1" data-name="Layer 1" xmlns="http://www.w3.org/2000/svg" viewBox="0 0 86.5 102.44"><defs><style>.cls-1{fill:#404447;}</style></defs><title>rubocop</title><path class="cls-1" d="M523,276.2a5.36,5.36,0,0,0-2.1-4.4,1.11,1.11,0,0,1-.5-1v-2.9a6.53,6.53,0,0,0-4.6-5.9,6.6,6.6,0,0,0-2.4-.3H445.2a6.43,6.43,0,0,0-4.3,2,6,6,0,0,0-1.8,4.4V271a0.91,0.91,0,0,1-.4.8c-0.1.1-.2,0.1-0.3,0.2a4.93,4.93,0,0,0-1.9,3.9v9a4.1,4.1,0,0,0,.1,1.1,4.9,4.9,0,0,0,2,3,0.81,0.81,0,0,1,.4.8v3.1a6.41,6.41,0,0,0,5.1,6.1,13.56,13.56,0,0,0,2,.2H514a6.5,6.5,0,0,0,5.9-4.2,6.9,6.9,0,0,0,.4-2.5v-2.6a1.11,1.11,0,0,1,.5-1,5.36,5.36,0,0,0,2.1-4.4C523,281.8,523,279,523,276.2Zm-15.4,9.1h-55a6.6,6.6,0,0,1-1.4-.1,5,5,0,0,1-4.1-4.6,4.77,4.77,0,0,1,3.9-4.8,7.57,7.57,0,0,1,1.5-.1h54.3a9.15,9.15,0,0,1,1.7.1,4.9,4.9,0,0,1,3.8,4.4A4.65,4.65,0,0,1,507.6,285.3Z" transform="translate(-436.5 -228.16)"/><path class="cls-1" d="M479.7,259.7H445.1c-1.4,0-1.2.1-1-1.2a35.67,35.67,0,0,1,14-23.1,36.88,36.88,0,0,1,10-5.3,32.18,32.18,0,0,1,8.6-1.8,35,35,0,0,1,9.7.5,35.67,35.67,0,0,1,15.6,7,36.68,36.68,0,0,1,10.8,13.6,33.75,33.75,0,0,1,2.7,8.7,6.75,6.75,0,0,1,.2,1.4,0.27,0.27,0,0,1-.3.3h-0.8C502.9,259.7,491.3,259.7,479.7,259.7Z" transform="translate(-436.5 -228.16)"/><path class="cls-1" d="M479.7,330.4H460.1a14.77,14.77,0,0,1-12.9-8.4,14.62,14.62,0,0,1-1.7-6.5v-14a0.22,0.22,0,0,1,.2-0.2h7.9a0.27,0.27,0,0,1,.3.3V315a6.72,6.72,0,0,0,1.6,4.5,7,7,0,0,0,5,2.5c1.3,0.1,2.6,0,3.9,0a2.68,2.68,0,0,0,2.3-1.2c1.3-1.7,2.6-3.4,3.9-5,0.2-.2.3-0.4,0.5-0.6a2.52,2.52,0,0,1,2-.9h13.1a2.51,2.51,0,0,1,2.1,1c0.6,0.7,1.1,1.4,1.6,2.1,0.8,1.1,1.6,2.1,2.5,3.2a2.65,2.65,0,0,0,.5.6,2.27,2.27,0,0,0,1.8.9h3.9a6.9,6.9,0,0,0,5.3-2.5,7,7,0,0,0,1.6-4.4v-13c0-.8,0-0.8.9-0.8h7.3a0.27,0.27,0,0,1,.3.3v13.9a14.69,14.69,0,0,1-4.8,10.8,14.85,14.85,0,0,1-9.8,4.2h-1.6C491.8,330.4,485.8,330.4,479.7,330.4Z" transform="translate(-436.5 -228.16)"/><path class="cls-1" d="M479.8,304.3h12.1a1.09,1.09,0,0,1,.9.4c0.8,1,1.7,1.9,2.5,2.9a1.51,1.51,0,0,0,.4.4c0.2,0.3.2,0.4-.1,0.6-0.9.8-1.8,1.6-2.7,2.3-0.2.2-.3,0.2-0.5-0.1-0.5-.6-1-1.1-1.5-1.7a1.17,1.17,0,0,0-1.1-.5H470.1c-1.2,0-.9-0.1-1.6.7-0.4.5-.8,0.9-1.2,1.4s-0.4.4-.8,0l-2.4-2.1c-0.4-.4-0.4-0.4-0.1-0.8s0.5-.6.8-0.9l1.9-2.2a1,1,0,0,1,1.1-.5h0.5C472.1,304.3,475.9,304.3,479.8,304.3Z" transform="translate(-436.5 -228.16)"/></svg>