<?xml version="1.0" encoding="utf-8"?>
<!-- Generator: Adobe Illustrator 19.2.1, SVG Export Plug-In . SVG Version: 6.00 Build 0)  -->
<svg version="1.1" id="Layer_1" xmlns="http://www.w3.org/2000/svg" xmlns:xlink="http://www.w3.org/1999/xlink" x="0px" y="0px"
	 viewBox="0 0 93.6 92.7" style="enable-background:new 0 0 93.6 92.7;" xml:space="preserve">
<style type="text/css">
	.st0{fill:#404447;}
</style>
<g>
	<g>
		<g>
			<path class="st0" d="M90.5,92.7H4.2c-2.2,0-4-1.8-4-4V4c0-2.2,1.8-4,4-4h86.3c2.2,0,4,1.8,4,4v84.7C94.5,91,92.7,92.7,90.5,92.7
				L90.5,92.7z M8.2,84.8h78.3V8H8.2V84.8L8.2,84.8z"/>
		</g>
		<g>
			<path class="st0" d="M77.6,65H17.1c-1.1,0-2-0.9-2-2V16.8c0-1.1,0.9-2,2-2h60.5c1.1,0,2,0.9,2,2V63C79.6,64.1,78.7,65,77.6,65
				L77.6,65z M19.1,61.1h56.6V18.9H19.1V61.1L19.1,61.1z"/>
		</g>
	</g>
	<g>
		<g>
			<path class="st0" d="M27.3,76.9c0-0.9,0.7-1.7,1.7-1.7h8.3c0.9,0,1.7,0.7,1.7,1.7c0,0.9-0.7,1.7-1.7,1.7H29
				C28,78.6,27.3,77.8,27.3,76.9L27.3,76.9z"/>
		</g>
		<g>
			<path class="st0" d="M41.6,76.9c0-0.9,0.7-1.7,1.7-1.7h8.3c0.9,0,1.7,0.7,1.7,1.7c0,0.9-0.7,1.7-1.7,1.7h-8.3
				C42.3,78.6,41.6,77.8,41.6,76.9L41.6,76.9z"/>
		</g>
		<g>
			<path class="st0" d="M55.8,76.9c0-0.9,0.7-1.7,1.7-1.7h8.3c0.9,0,1.7,0.7,1.7,1.7c0,0.9-0.7,1.7-1.7,1.7h-8.3
				C56.6,78.6,55.8,77.8,55.8,76.9L55.8,76.9z"/>
		</g>
	</g>
</g>
<g>
</g>
<g>
</g>
<g>
</g>
<g>
</g>
<g>
</g>
<g>
</g>
<g>
</g>
<g>
</g>
<g>
</g>
<g>
</g>
<g>
</g>
<g>
</g>
<g>
</g>
<g>
</g>
<g>
</g>
</svg>
