<?xml version="1.0" encoding="utf-8"?>
<!-- Generator: Adobe Illustrator 19.2.1, SVG Export Plug-In . SVG Version: 6.00 Build 0)  -->
<svg version="1.1" id="Layer_1" xmlns="http://www.w3.org/2000/svg" xmlns:xlink="http://www.w3.org/1999/xlink" x="0px" y="0px"
	 viewBox="0 0 77.8 78.1" style="enable-background:new 0 0 77.8 78.1;" xml:space="preserve">
<style type="text/css">
	.st0{fill:#404447;}
</style>
<g>
	<g>
		<path class="st0" d="M39,56.6c-9.7,0-17.6-7.9-17.6-17.6S29.3,21.4,39,21.4c8,0,14.8,5.4,16.9,12.7h6.8c-2.3-11-12-19.3-23.7-19.3
			c-13.3,0-24.2,10.9-24.2,24.2c0,13.3,10.9,24.2,24.2,24.2c11.7,0,21.4-8.3,23.7-19.3h-6.8C53.8,51.2,47.1,56.6,39,56.6"/>
		<path class="st0" d="M27.2,50.9c3,3,7.2,4.9,11.9,4.9v-7c-2.7,0-5.1-1.1-6.9-2.9L27.2,50.9z"/>
		<path class="st0" d="M22.3,39c0,2.4,0.5,4.7,1.4,6.8l6.4-2.8c-0.5-1.2-0.8-2.5-0.8-3.9c0-5.4,4.4-9.8,9.8-9.8v-7
			C29.8,22.2,22.3,29.8,22.3,39"/>
		<path class="st0" d="M45.1,23.4l-2.5,6.5c2.1,0.8,3.8,2.3,4.9,4.2h7.6C53.6,29.2,49.9,25.2,45.1,23.4"/>
		<path class="st0" d="M42.6,48.1l2.5,6.5c4.8-1.9,8.5-5.8,10-10.8h-7.6C46.4,45.8,44.7,47.3,42.6,48.1"/>
		<path class="st0" d="M8,48.4c-0.1-0.4-0.2-0.7-0.3-1.1c0,0,0,0,0-0.1c-0.1-0.3-0.2-0.7-0.3-1c0-0.1,0-0.1,0-0.2
			c-0.1-0.3-0.1-0.6-0.2-0.9c0-0.1,0-0.3-0.1-0.4C7.1,44.5,7,44.2,7,44s-0.1-0.4-0.1-0.6c-0.2-1.4-0.3-2.9-0.3-4.3H0
			c0,1.6,0.1,3.2,0.3,4.7l0,0v0.1c0.1,0.4,0.1,0.8,0.2,1.3c0,0.1,0,0.2,0.1,0.3c0.1,0.3,0.1,0.7,0.2,1c0,0.2,0.1,0.4,0.1,0.5
			C1,47.3,1,47.5,1.1,47.8c0.1,0.2,0.1,0.5,0.2,0.7s0.1,0.4,0.2,0.6c0.1,0.3,0.2,0.6,0.2,0.8c0,0.1,0.1,0.2,0.1,0.3l0,0
			c0.5,1.5,1,3,1.6,4.4l6.1-2.7C8.8,50.9,8.4,49.7,8,48.4z"/>
		<path class="st0" d="M39,71.5c-8.9,0-17.1-3.6-22.9-9.5l-4.7,4.7c7.1,7.1,16.8,11.4,27.6,11.4c19.9,0,36.4-14.9,38.8-34.2h-6.7
			C68.8,59.5,55.3,71.5,39,71.5"/>
		<path class="st0" d="M39,6.6c7.3,0,14,2.4,19.4,6.5l4-5.3C55.9,2.9,47.8,0,39,0C22.4,0,8.3,10.3,2.6,24.9l6.2,2.4
			C13.5,15.2,25.3,6.6,39,6.6"/>
		<path class="st0" d="M71.1,34.1h6.7c-0.7-5.7-2.7-11.1-5.6-15.8l-5.6,3.5C68.9,25.5,70.4,29.7,71.1,34.1"/>
		<path class="st0" d="M63.6,34.1h6.7c-1.8-11.3-9.5-20.6-19.8-24.6l-2.4,6.2C56,18.8,61.9,25.7,63.6,34.1"/>
		<path class="st0" d="M39,14L39,14V7.4l0,0c-13.4,0-24.9,8.4-29.5,20.2l6.2,2.4C19.4,20.6,28.5,14,39,14"/>
		<path class="st0" d="M14,39L14,39H7.4l0,0c0,13.3,8.2,24.7,19.9,29.4l2.5-6.1C20.6,58.5,14,49.5,14,39"/>
		<path class="st0" d="M39,64v6.6c15.8,0,28.9-11.6,31.2-26.7h-6.7C61.3,55.4,51.2,64,39,64"/>
	</g>
</g>
</svg>
