<svg id="Layer_1" data-name="Layer 1" xmlns="http://www.w3.org/2000/svg" viewBox="0 0 100.4 100.4"><defs><style>.cls-1{fill:#404447;}</style></defs><title>web-app</title><path class="cls-1" d="M50.7,101.8a50.2,50.2,0,1,1,50.2-50.2,50.23,50.23,0,0,1-50.2,50.2h0Zm0-91.9A41.7,41.7,0,1,0,92.4,51.6,41.74,41.74,0,0,0,50.7,9.9h0Z" transform="translate(-0.5 -1.4)"/><path class="cls-1" d="M50.7,99.7C34.9,99.7,22,78.1,22,51.6S34.9,3.5,50.7,3.5,79.4,25.1,79.4,51.6,66.5,99.7,50.7,99.7h0Zm0-92c-13.5,0-24.5,19.7-24.5,43.8s11,43.8,24.5,43.8S75.2,75.6,75.2,51.5,64.2,7.7,50.7,7.7h0Z" transform="translate(-0.5 -1.4)"/><path class="cls-1" d="M50.7,99.7a2.05,2.05,0,0,1-2.1-2.1V5.7a2.05,2.05,0,0,1,2.1-2.1,48.05,48.05,0,1,1,0,96.1h0ZM52.8,7.8V95.4a43.85,43.85,0,0,0,0-87.6h0Z" transform="translate(-0.5 -1.4)"/><path class="cls-1" d="M93.7,69.9H7.8a2,2,0,0,1-2-1.4A47.21,47.21,0,0,1,2.7,51.6a48.15,48.15,0,0,1,3.1-17,2.17,2.17,0,0,1,2-1.4H93.7a2,2,0,0,1,2,1.4,47.89,47.89,0,0,1,0,33.9,2.23,2.23,0,0,1-2,1.4h0ZM9.2,65.7h83a42.62,42.62,0,0,0,0-28.2H9.2A42.63,42.63,0,0,0,6.8,51.6,43.07,43.07,0,0,0,9.2,65.7h0Z" transform="translate(-0.5 -1.4)"/></svg>