<?xml version="1.0" encoding="utf-8"?>
<!-- Generator: Adobe Illustrator 19.2.1, SVG Export Plug-In . SVG Version: 6.00 Build 0)  -->
<svg version="1.1" id="Layer_1" xmlns="http://www.w3.org/2000/svg" xmlns:xlink="http://www.w3.org/1999/xlink" x="0px" y="0px"
	 viewBox="0 0 102.6 115.8" style="enable-background:new 0 0 102.6 115.8;" xml:space="preserve">
<style type="text/css">
	.st0{fill:none;stroke:#FFFFFF;stroke-miterlimit:10;}
	.st1{fill:#445464;}
</style>
<g>
	<rect x="-46" y="-43.6" class="st0" width="203" height="203"/>
</g>
<g>
	<g>
		<path class="st1" d="M77.1,48.5H39.4c-1.3,0-2.4-1.1-2.4-2.4V24.8c0-1.3,1.1-2.4,2.4-2.4h37.7c1.3,0,2.4,1.1,2.4,2.4V46
			C79.5,47.3,78.4,48.5,77.1,48.5L77.1,48.5z M41.8,43.6h32.8V27.2H41.8V43.6L41.8,43.6z"/>
	</g>
	<g>
		<g>
			<path class="st1" d="M97.7,115.8H13.5c-2.8,0-4.9-2.2-4.9-4.9V4.9c0-2.8,2.2-4.9,4.9-4.9h84.2c2.8,0,4.9,2.2,4.9,4.9v106
				C102.7,113.6,100.4,115.8,97.7,115.8L97.7,115.8z M18.3,106h74.4V9.8H18.3V106L18.3,106z"/>
		</g>
		<g>
			<path class="st1" d="M22,29.6H4.9c-2.8,0-4.9-2.2-4.9-4.9c0-2.8,2.2-4.9,4.9-4.9h17.2c2.8,0,4.9,2.2,4.9,4.9
				C26.9,27.5,24.8,29.6,22,29.6L22,29.6z"/>
		</g>
		<g>
			<path class="st1" d="M22,51.6H4.9c-2.8,0-4.9-2.2-4.9-4.9c0-2.8,2.2-4.9,4.9-4.9h17.2c2.8,0,4.9,2.2,4.9,4.9
				C26.9,49.4,24.8,51.6,22,51.6L22,51.6z"/>
		</g>
		<g>
			<path class="st1" d="M22,73.6H4.9c-2.8,0-4.9-2.2-4.9-4.9s2.2-4.9,4.9-4.9h17.2c2.8,0,4.9,2.2,4.9,4.9S24.8,73.6,22,73.6L22,73.6
				z"/>
		</g>
		<g>
			<path class="st1" d="M22,95.4H4.9c-2.8,0-4.9-2.2-4.9-4.9c0-2.8,2.2-4.9,4.9-4.9h17.2c2.8,0,4.9,2.2,4.9,4.9
				C26.9,93.2,24.8,95.4,22,95.4L22,95.4z"/>
		</g>
	</g>
</g>
</svg>
