<?xml version="1.0" encoding="utf-8"?>
<!-- Generator: Adobe Illustrator 19.2.1, SVG Export Plug-In . SVG Version: 6.00 Build 0)  -->
<svg version="1.1" id="Layer_1" xmlns="http://www.w3.org/2000/svg" xmlns:xlink="http://www.w3.org/1999/xlink" x="0px" y="0px"
	 viewBox="0 0 169.2 169.2" style="enable-background:new 0 0 169.2 169.2;" xml:space="preserve">
<style type="text/css">
	.st0{fill:#FFFFFF;}
	.st1{fill:#445464;}
</style>
<g>
	<rect x="-16.9" y="-16.9" class="st0" width="203" height="203"/>
</g>
<g>
	<g>
		<path class="st1" d="M106.2,75.2H68.5c-1.3,0-2.4-1.1-2.4-2.4V51.5c0-1.3,1.1-2.4,2.4-2.4h37.7c1.3,0,2.4,1.1,2.4,2.4v21.2
			C108.6,74,107.5,75.2,106.2,75.2L106.2,75.2z M70.9,70.3h32.8V53.9H70.9V70.3L70.9,70.3z"/>
	</g>
	<g>
		<g>
			<path class="st1" d="M126.8,142.5H42.6c-2.8,0-4.9-2.2-4.9-4.9v-106c0-2.8,2.2-4.9,4.9-4.9h84.2c2.8,0,4.9,2.2,4.9,4.9v106
				C131.8,140.3,129.5,142.5,126.8,142.5L126.8,142.5z M47.4,132.7h74.4V36.5H47.4V132.7L47.4,132.7z"/>
		</g>
		<g>
			<path class="st1" d="M51.1,56.3H34c-2.8,0-4.9-2.2-4.9-4.9c0-2.8,2.2-4.9,4.9-4.9h17.2c2.8,0,4.9,2.2,4.9,4.9
				C56,54.2,53.9,56.3,51.1,56.3L51.1,56.3z"/>
		</g>
		<g>
			<path class="st1" d="M51.1,78.3H34c-2.8,0-4.9-2.2-4.9-4.9c0-2.8,2.2-4.9,4.9-4.9h17.2c2.8,0,4.9,2.2,4.9,4.9
				C56,76.1,53.9,78.3,51.1,78.3L51.1,78.3z"/>
		</g>
		<g>
			<path class="st1" d="M51.1,100.3H34c-2.8,0-4.9-2.2-4.9-4.9s2.2-4.9,4.9-4.9h17.2c2.8,0,4.9,2.2,4.9,4.9S53.9,100.3,51.1,100.3
				L51.1,100.3z"/>
		</g>
		<g>
			<path class="st1" d="M51.1,122.1H34c-2.8,0-4.9-2.2-4.9-4.9c0-2.8,2.2-4.9,4.9-4.9h17.2c2.8,0,4.9,2.2,4.9,4.9
				C56,119.9,53.9,122.1,51.1,122.1L51.1,122.1z"/>
		</g>
	</g>
</g>
<g>
</g>
<g>
</g>
<g>
</g>
<g>
</g>
<g>
</g>
<g>
</g>
<g>
</g>
<g>
</g>
<g>
</g>
<g>
</g>
<g>
</g>
<g>
</g>
<g>
</g>
<g>
</g>
<g>
</g>
</svg>
