<?xml version="1.0" encoding="utf-8"?>
<!-- Generator: Adobe Illustrator 19.2.1, SVG Export Plug-In . SVG Version: 6.00 Build 0)  -->
<svg version="1.1" id="Layer_1" xmlns="http://www.w3.org/2000/svg" xmlns:xlink="http://www.w3.org/1999/xlink" x="0px" y="0px"
	 viewBox="0 0 589.3 352.7" style="enable-background:new 0 0 589.3 352.7;" xml:space="preserve">
<style type="text/css">
	.st0{fill:none;stroke:#000000;stroke-width:2;stroke-miterlimit:10;}
	.st1{fill:#445464;}
	.st2{fill:#445464;stroke:#000000;stroke-width:0.25;stroke-miterlimit:10;}
	.st3{fill:#59B8B3;}
	.st4{fill:#FFFFFF;}
	.st5{fill:#F08921;}
	.st6{fill:#6CB2E2;}
	.st7{font-family:'CenturyGothic-Bold';}
	.st8{font-size:12px;}
	.st9{font-size:11px;}
	.st10{font-size:10px;}
	.st11{font-size:9px;}
	.st12{fill:none;stroke:#000000;stroke-miterlimit:10;}
</style>
<rect x="51.7" y="28" class="st0" width="470.9" height="284"/>
<g>
	<g>
		<rect x="272.4" y="202.2" class="st1" width="78" height="79"/>
	</g>
</g>
<g>
	<g>
		<rect x="280" y="210.2" class="st2" width="78" height="79"/>
	</g>
</g>
<g>
	<rect x="450.6" y="241.5" class="st3" width="63.7" height="63.7"/>
	<g>
		<g>
			<g>
				<path class="st4" d="M498.6,285.3h-32.4c-0.7,0-1.2-0.5-1.2-1.2v-9.2c0-0.7,0.5-1.2,1.2-1.2h32.4c0.7,0,1.2,0.5,1.2,1.2v9.2
					C499.8,284.8,499.3,285.3,498.6,285.3L498.6,285.3z M467.5,282.9h30V276h-30V282.9L467.5,282.9z"/>
			</g>
			<path class="st4" d="M470.7,278.1c-0.8,0-1.4,0.6-1.4,1.4s0.6,1.4,1.4,1.4c0.8,0,1.4-0.6,1.4-1.4S471.4,278.1,470.7,278.1
				L470.7,278.1z"/>
			<path class="st4" d="M475.2,278.1c-0.8,0-1.4,0.6-1.4,1.4s0.6,1.4,1.4,1.4c0.8,0,1.4-0.6,1.4-1.4S476,278.1,475.2,278.1
				L475.2,278.1z"/>
			<path class="st4" d="M479.8,278.1c-0.8,0-1.4,0.6-1.4,1.4s0.6,1.4,1.4,1.4c0.8,0,1.4-0.6,1.4-1.4S480.5,278.1,479.8,278.1
				L479.8,278.1z"/>
		</g>
		<g>
			<g>
				<path class="st4" d="M498.6,272.7h-32.4c-0.7,0-1.2-0.5-1.2-1.2v-9.2c0-0.7,0.5-1.2,1.2-1.2h32.4c0.7,0,1.2,0.5,1.2,1.2v9.2
					C499.8,272.2,499.3,272.7,498.6,272.7L498.6,272.7z M467.5,270.3h30v-6.9h-30V270.3L467.5,270.3z"/>
			</g>
			<path class="st4" d="M470.7,265.5c-0.8,0-1.4,0.6-1.4,1.4s0.6,1.4,1.4,1.4c0.8,0,1.4-0.6,1.4-1.4
				C472.1,266.1,471.4,265.5,470.7,265.5L470.7,265.5z"/>
			<path class="st4" d="M475.2,265.5c-0.8,0-1.4,0.6-1.4,1.4s0.6,1.4,1.4,1.4c0.8,0,1.4-0.6,1.4-1.4
				C476.6,266.1,476,265.5,475.2,265.5L475.2,265.5z"/>
			<path class="st4" d="M479.8,265.5c-0.8,0-1.4,0.6-1.4,1.4s0.6,1.4,1.4,1.4c0.8,0,1.4-0.6,1.4-1.4
				C481.2,266.1,480.5,265.5,479.8,265.5L479.8,265.5z"/>
		</g>
		<g>
			<g>
				<path class="st4" d="M498.6,260.1h-32.4c-0.7,0-1.2-0.5-1.2-1.2v-9.2c0-0.7,0.5-1.2,1.2-1.2h32.4c0.7,0,1.2,0.5,1.2,1.2v9.2
					C499.8,259.6,499.3,260.1,498.6,260.1L498.6,260.1z M467.5,257.7h30v-6.9h-30V257.7L467.5,257.7z"/>
			</g>
			<path class="st4" d="M470.7,252.9c-0.8,0-1.4,0.6-1.4,1.4s0.6,1.4,1.4,1.4c0.8,0,1.4-0.6,1.4-1.4S471.4,252.9,470.7,252.9
				L470.7,252.9z"/>
			<path class="st4" d="M475.2,252.9c-0.8,0-1.4,0.6-1.4,1.4s0.6,1.4,1.4,1.4c0.8,0,1.4-0.6,1.4-1.4S476,252.9,475.2,252.9
				L475.2,252.9z"/>
			<path class="st4" d="M479.8,252.9c-0.8,0-1.4,0.6-1.4,1.4s0.6,1.4,1.4,1.4c0.8,0,1.4-0.6,1.4-1.4S480.5,252.9,479.8,252.9
				L479.8,252.9z"/>
		</g>
	</g>
	<rect x="450.6" y="173.5" class="st3" width="63.7" height="63.7"/>
	<g>
		<g>
			<g>
				<path class="st4" d="M498.6,217.3h-32.4c-0.7,0-1.2-0.5-1.2-1.2v-9.2c0-0.7,0.5-1.2,1.2-1.2h32.4c0.7,0,1.2,0.5,1.2,1.2v9.2
					C499.8,216.7,499.3,217.3,498.6,217.3L498.6,217.3z M467.5,214.9h30V208h-30V214.9L467.5,214.9z"/>
			</g>
			<path class="st4" d="M470.7,210c-0.8,0-1.4,0.6-1.4,1.4s0.6,1.4,1.4,1.4c0.8,0,1.4-0.6,1.4-1.4S471.4,210,470.7,210L470.7,210z"
				/>
			<path class="st4" d="M475.2,210c-0.8,0-1.4,0.6-1.4,1.4s0.6,1.4,1.4,1.4c0.8,0,1.4-0.6,1.4-1.4S476,210,475.2,210L475.2,210z"/>
			<path class="st4" d="M479.8,210c-0.8,0-1.4,0.6-1.4,1.4s0.6,1.4,1.4,1.4c0.8,0,1.4-0.6,1.4-1.4S480.5,210,479.8,210L479.8,210z"
				/>
		</g>
		<g>
			<g>
				<path class="st4" d="M498.6,204.7h-32.4c-0.7,0-1.2-0.5-1.2-1.2v-9.2c0-0.7,0.5-1.2,1.2-1.2h32.4c0.7,0,1.2,0.5,1.2,1.2v9.2
					C499.8,204.1,499.3,204.7,498.6,204.7L498.6,204.7z M467.5,202.3h30v-6.9h-30V202.3L467.5,202.3z"/>
			</g>
			<path class="st4" d="M470.7,197.4c-0.8,0-1.4,0.6-1.4,1.4s0.6,1.4,1.4,1.4c0.8,0,1.4-0.6,1.4-1.4S471.4,197.4,470.7,197.4
				L470.7,197.4z"/>
			<path class="st4" d="M475.2,197.4c-0.8,0-1.4,0.6-1.4,1.4s0.6,1.4,1.4,1.4c0.8,0,1.4-0.6,1.4-1.4S476,197.4,475.2,197.4
				L475.2,197.4z"/>
			<path class="st4" d="M479.8,197.4c-0.8,0-1.4,0.6-1.4,1.4s0.6,1.4,1.4,1.4c0.8,0,1.4-0.6,1.4-1.4S480.5,197.4,479.8,197.4
				L479.8,197.4z"/>
		</g>
		<g>
			<g>
				<path class="st4" d="M498.6,192.1h-32.4c-0.7,0-1.2-0.5-1.2-1.2v-9.2c0-0.7,0.5-1.2,1.2-1.2h32.4c0.7,0,1.2,0.5,1.2,1.2v9.2
					C499.8,191.5,499.3,192.1,498.6,192.1L498.6,192.1z M467.5,189.7h30v-6.9h-30V189.7L467.5,189.7z"/>
			</g>
			<path class="st4" d="M470.7,184.9c-0.8,0-1.4,0.6-1.4,1.4s0.6,1.4,1.4,1.4c0.8,0,1.4-0.6,1.4-1.4S471.4,184.9,470.7,184.9
				L470.7,184.9z"/>
			<path class="st4" d="M475.2,184.9c-0.8,0-1.4,0.6-1.4,1.4s0.6,1.4,1.4,1.4c0.8,0,1.4-0.6,1.4-1.4S476,184.9,475.2,184.9
				L475.2,184.9z"/>
			<path class="st4" d="M479.8,184.9c-0.8,0-1.4,0.6-1.4,1.4s0.6,1.4,1.4,1.4c0.8,0,1.4-0.6,1.4-1.4S480.5,184.9,479.8,184.9
				L479.8,184.9z"/>
		</g>
	</g>
	<rect x="450.6" y="105.5" class="st3" width="63.7" height="63.7"/>
	<g>
		<g>
			<g>
				<path class="st4" d="M498.6,149.2h-32.4c-0.7,0-1.2-0.5-1.2-1.2v-9.2c0-0.7,0.5-1.2,1.2-1.2h32.4c0.7,0,1.2,0.5,1.2,1.2v9.2
					C499.8,148.7,499.3,149.2,498.6,149.2L498.6,149.2z M467.5,146.9h30V140h-30V146.9L467.5,146.9z"/>
			</g>
			<path class="st4" d="M470.7,142c-0.8,0-1.4,0.6-1.4,1.4c0,0.8,0.6,1.4,1.4,1.4c0.8,0,1.4-0.6,1.4-1.4S471.4,142,470.7,142
				L470.7,142z"/>
			<path class="st4" d="M475.2,142c-0.8,0-1.4,0.6-1.4,1.4c0,0.8,0.6,1.4,1.4,1.4c0.8,0,1.4-0.6,1.4-1.4S476,142,475.2,142
				L475.2,142z"/>
			<path class="st4" d="M479.8,142c-0.8,0-1.4,0.6-1.4,1.4c0,0.8,0.6,1.4,1.4,1.4c0.8,0,1.4-0.6,1.4-1.4S480.5,142,479.8,142
				L479.8,142z"/>
		</g>
		<g>
			<g>
				<path class="st4" d="M498.6,136.6h-32.4c-0.7,0-1.2-0.5-1.2-1.2v-9.2c0-0.7,0.5-1.2,1.2-1.2h32.4c0.7,0,1.2,0.5,1.2,1.2v9.2
					C499.8,136.1,499.3,136.6,498.6,136.6L498.6,136.6z M467.5,134.3h30v-6.9h-30V134.3L467.5,134.3z"/>
			</g>
			<path class="st4" d="M470.7,129.4c-0.8,0-1.4,0.6-1.4,1.4s0.6,1.4,1.4,1.4c0.8,0,1.4-0.6,1.4-1.4
				C472.1,130,471.4,129.4,470.7,129.4L470.7,129.4z"/>
			<path class="st4" d="M475.2,129.4c-0.8,0-1.4,0.6-1.4,1.4s0.6,1.4,1.4,1.4c0.8,0,1.4-0.6,1.4-1.4
				C476.6,130,476,129.4,475.2,129.4L475.2,129.4z"/>
			<path class="st4" d="M479.8,129.4c-0.8,0-1.4,0.6-1.4,1.4s0.6,1.4,1.4,1.4c0.8,0,1.4-0.6,1.4-1.4S480.5,129.4,479.8,129.4
				L479.8,129.4z"/>
		</g>
		<g>
			<g>
				<path class="st4" d="M498.6,124h-32.4c-0.7,0-1.2-0.5-1.2-1.2v-9.2c0-0.7,0.5-1.2,1.2-1.2h32.4c0.7,0,1.2,0.5,1.2,1.2v9.2
					C499.8,123.5,499.3,124,498.6,124L498.6,124z M467.5,121.7h30v-6.9h-30V121.7L467.5,121.7z"/>
			</g>
			<path class="st4" d="M470.7,116.8c-0.8,0-1.4,0.6-1.4,1.4s0.6,1.4,1.4,1.4c0.8,0,1.4-0.6,1.4-1.4
				C472.1,117.5,471.4,116.8,470.7,116.8L470.7,116.8z"/>
			<path class="st4" d="M475.2,116.8c-0.8,0-1.4,0.6-1.4,1.4s0.6,1.4,1.4,1.4c0.8,0,1.4-0.6,1.4-1.4
				C476.6,117.5,476,116.8,475.2,116.8L475.2,116.8z"/>
			<path class="st4" d="M479.8,116.8c-0.8,0-1.4,0.6-1.4,1.4s0.6,1.4,1.4,1.4c0.8,0,1.4-0.6,1.4-1.4
				C481.2,117.5,480.5,116.8,479.8,116.8L479.8,116.8z"/>
		</g>
	</g>
	<g>
		<rect x="450.6" y="37.5" class="st3" width="63.7" height="63.7"/>
		<g>
			<g>
				<g>
					<path class="st4" d="M498.6,81.2h-32.4c-0.7,0-1.2-0.5-1.2-1.2v-9.2c0-0.7,0.5-1.2,1.2-1.2h32.4c0.7,0,1.2,0.5,1.2,1.2V80
						C499.8,80.7,499.3,81.2,498.6,81.2L498.6,81.2z M467.5,78.8h30v-6.9h-30V78.8L467.5,78.8z"/>
				</g>
				<path class="st4" d="M470.7,74c-0.8,0-1.4,0.6-1.4,1.4s0.6,1.4,1.4,1.4c0.8,0,1.4-0.6,1.4-1.4C472.1,74.6,471.4,74,470.7,74
					L470.7,74z"/>
				<path class="st4" d="M475.2,74c-0.8,0-1.4,0.6-1.4,1.4s0.6,1.4,1.4,1.4c0.8,0,1.4-0.6,1.4-1.4C476.6,74.6,476,74,475.2,74
					L475.2,74z"/>
				<path class="st4" d="M479.8,74c-0.8,0-1.4,0.6-1.4,1.4s0.6,1.4,1.4,1.4c0.8,0,1.4-0.6,1.4-1.4C481.2,74.6,480.5,74,479.8,74
					L479.8,74z"/>
			</g>
			<g>
				<g>
					<path class="st4" d="M498.6,68.6h-32.4c-0.7,0-1.2-0.5-1.2-1.2v-9.2c0-0.7,0.5-1.2,1.2-1.2h32.4c0.7,0,1.2,0.5,1.2,1.2v9.2
						C499.8,68.1,499.3,68.6,498.6,68.6L498.6,68.6z M467.5,66.2h30v-6.9h-30V66.2L467.5,66.2z"/>
				</g>
				<path class="st4" d="M470.7,61.4c-0.8,0-1.4,0.6-1.4,1.4s0.6,1.4,1.4,1.4c0.8,0,1.4-0.6,1.4-1.4S471.4,61.4,470.7,61.4
					L470.7,61.4z"/>
				<path class="st4" d="M475.2,61.4c-0.8,0-1.4,0.6-1.4,1.4s0.6,1.4,1.4,1.4c0.8,0,1.4-0.6,1.4-1.4S476,61.4,475.2,61.4L475.2,61.4
					z"/>
				<path class="st4" d="M479.8,61.4c-0.8,0-1.4,0.6-1.4,1.4s0.6,1.4,1.4,1.4c0.8,0,1.4-0.6,1.4-1.4S480.5,61.4,479.8,61.4
					L479.8,61.4z"/>
			</g>
			<g>
				<g>
					<path class="st4" d="M498.6,56h-32.4c-0.7,0-1.2-0.5-1.2-1.2v-9.2c0-0.7,0.5-1.2,1.2-1.2h32.4c0.7,0,1.2,0.5,1.2,1.2v9.2
						C499.8,55.5,499.3,56,498.6,56L498.6,56z M467.5,53.6h30v-6.9h-30V53.6L467.5,53.6z"/>
				</g>
				<path class="st4" d="M470.7,48.8c-0.8,0-1.4,0.6-1.4,1.4s0.6,1.4,1.4,1.4c0.8,0,1.4-0.6,1.4-1.4S471.4,48.8,470.7,48.8
					L470.7,48.8z"/>
				<path class="st4" d="M475.2,48.8c-0.8,0-1.4,0.6-1.4,1.4s0.6,1.4,1.4,1.4c0.8,0,1.4-0.6,1.4-1.4S476,48.8,475.2,48.8L475.2,48.8
					z"/>
				<path class="st4" d="M479.8,48.8c-0.8,0-1.4,0.6-1.4,1.4s0.6,1.4,1.4,1.4c0.8,0,1.4-0.6,1.4-1.4S480.5,48.8,479.8,48.8
					L479.8,48.8z"/>
			</g>
		</g>
	</g>
</g>
<g>
	<rect x="59.4" y="50.9" class="st5" width="92.8" height="99.8"/>
	<g>
		<g>
			<path class="st4" d="M135.5,108.3H75.1c-1.5,0-2.7-1.3-2.7-2.9V64c0-1.7,1.2-2.9,2.7-2.9h60.4c1.5,0,2.7,1.3,2.7,2.9v41.3
				C138.3,106.9,137,108.3,135.5,108.3L135.5,108.3z M77.9,102.4h54.9V67H77.9V102.4L77.9,102.4z"/>
		</g>
		<g>
			<path class="st4" d="M130.1,100.9H80.6c-0.7,0-1.4-0.6-1.4-1.5V69.9c0-0.8,0.6-1.5,1.4-1.5h49.4c0.7,0,1.4,0.6,1.4,1.5v29.6
				C131.4,100.2,130.8,100.9,130.1,100.9L130.1,100.9z M82,97.9h46.7V71.4H82V97.9L82,97.9z"/>
		</g>
		<g>
			<path class="st4" d="M144,116.9H67.6c-1.5,0-2.7-1.3-2.7-2.9c0-1.7,1.2-2.9,2.7-2.9H144c1.5,0,2.7,1.3,2.7,2.9
				C146.8,115.6,145.5,116.9,144,116.9L144,116.9z"/>
		</g>
	</g>
</g>
<g>
	<g>
		<polygon class="st6" points="193.4,191.4 184.9,191.4 184.9,182.9 189.9,182.9 189.9,186.4 193.4,186.4 		"/>
	</g>
	<g>
		<path class="st6" d="M189.9,174.6h-5v-12.1h5V174.6z M189.9,156.5h-5v-12.1h5V156.5z M189.9,138.4h-5v-12.1h5V138.4z M189.9,120.2
			h-5v-12.1h5V120.2z M189.9,102.1h-5V90h5V102.1z M189.9,84h-5V71.9h5V84z M189.9,65.9h-5V53.8h5V65.9z"/>
	</g>
	<g>
		<polygon class="st6" points="189.9,45.9 184.9,45.9 184.9,37.4 193.4,37.4 193.4,42.4 189.9,42.4 		"/>
	</g>
	<rect x="364.2" y="186.4" class="st6" width="12.2" height="5"/>
	<rect x="345.9" y="186.4" class="st6" width="12.2" height="5"/>
	<rect x="327.6" y="186.4" class="st6" width="12.2" height="5"/>
	<rect x="400.8" y="186.4" class="st6" width="12.2" height="5"/>
	<rect x="382.5" y="186.4" class="st6" width="12.2" height="5"/>
	<rect x="236.1" y="186.4" class="st6" width="12.2" height="5"/>
	<rect x="291" y="186.4" class="st6" width="12.2" height="5"/>
	<rect x="272.7" y="186.4" class="st6" width="12.2" height="5"/>
	<rect x="254.4" y="186.4" class="st6" width="12.2" height="5"/>
	<rect x="217.8" y="186.4" class="st6" width="12.2" height="5"/>
	<rect x="199.5" y="186.4" class="st6" width="12.2" height="5"/>
	<rect x="309.3" y="186.4" class="st6" width="12.2" height="5"/>
	<rect x="236.1" y="37.4" class="st6" width="12.2" height="5"/>
	<rect x="199.5" y="37.4" class="st6" width="12.2" height="5"/>
	<rect x="382.5" y="37.4" class="st6" width="12.2" height="5"/>
	<rect x="217.8" y="37.4" class="st6" width="12.2" height="5"/>
	<rect x="364.2" y="37.4" class="st6" width="12.2" height="5"/>
	<rect x="345.9" y="37.4" class="st6" width="12.2" height="5"/>
	<rect x="309.3" y="37.4" class="st6" width="12.2" height="5"/>
	<rect x="291" y="37.4" class="st6" width="12.2" height="5"/>
	<rect x="254.4" y="37.4" class="st6" width="12.2" height="5"/>
	<rect x="272.7" y="37.4" class="st6" width="12.2" height="5"/>
	<rect x="327.6" y="37.4" class="st6" width="12.2" height="5"/>
	<rect x="400.8" y="37.4" class="st6" width="12.2" height="5"/>
	<g>
		<polygon class="st6" points="423.1,186.4 419.6,186.4 419.6,191.4 428.1,191.4 428.1,182.9 423.1,182.9 		"/>
		<polygon class="st6" points="419.6,37.4 419.6,42.4 423.1,42.4 423.1,45.9 428.1,45.9 428.1,37.4 		"/>
		<rect x="423.1" y="144.4" class="st6" width="5" height="12.1"/>
		<rect x="423.1" y="162.5" class="st6" width="5" height="12.1"/>
		<rect x="423.1" y="126.3" class="st6" width="5" height="12.1"/>
		<rect x="423.1" y="53.8" class="st6" width="5" height="12.1"/>
		<rect x="423.1" y="71.9" class="st6" width="5" height="12.1"/>
		<rect x="423.1" y="108.2" class="st6" width="5" height="12.1"/>
		<rect x="423.1" y="90" class="st6" width="5" height="12.1"/>
	</g>
</g>
<text transform="matrix(1 0 0 1 199.4835 176.9112)" class="st1 st7 st8">AWS OpsWorks for Chef Automate</text>
<g>
	<g>
		<rect x="307.3" y="53" class="st6" width="101.3" height="101.3"/>
		<g>
			<g>
				<g>
					<g>
						<g>
							<path class="st4" d="M384.2,122h-55.8c-1.1,0-2.1-0.9-2.1-2.1V104c0-1.1,0.9-2.1,2.1-2.1h55.8c1.1,0,2.1,0.9,2.1,2.1v15.9
								C386.3,121,385.3,122,384.2,122L384.2,122z M330.4,117.9h51.7v-11.8h-51.7V117.9L330.4,117.9z"/>
						</g>
						<path class="st4" d="M336,109.5c-1.4,0-2.4,1.1-2.4,2.4c0,1.3,1,2.4,2.4,2.4s2.4-1.1,2.4-2.4
							C338.4,110.6,337.3,109.5,336,109.5L336,109.5z"/>
						<path class="st4" d="M343.8,109.5c-1.4,0-2.4,1.1-2.4,2.4c0,1.3,1,2.4,2.4,2.4s2.4-1.1,2.4-2.4
							C346.2,110.6,345.2,109.5,343.8,109.5L343.8,109.5z"/>
						<path class="st4" d="M351.6,109.5c-1.4,0-2.4,1.1-2.4,2.4c0,1.3,1,2.4,2.4,2.4s2.4-1.1,2.4-2.4
							C354,110.6,353,109.5,351.6,109.5L351.6,109.5z"/>
					</g>
					<g>
						<g>
							<path class="st4" d="M384.2,100.2h-55.8c-1.1,0-2.1-0.9-2.1-2.1V82.2c0-1.1,0.9-2.1,2.1-2.1h55.8c1.1,0,2.1,0.9,2.1,2.1v15.9
								C386.3,99.4,385.3,100.2,384.2,100.2L384.2,100.2z M330.4,96.2h51.7V84.4h-51.7V96.2L330.4,96.2z"/>
						</g>
						<path class="st4" d="M336,87.8c-1.4,0-2.4,1.1-2.4,2.4s1,2.4,2.4,2.4s2.4-1.1,2.4-2.4C338.4,89,337.3,87.8,336,87.8L336,87.8z
							"/>
						<path class="st4" d="M343.8,87.8c-1.4,0-2.4,1.1-2.4,2.4s1,2.4,2.4,2.4s2.4-1.1,2.4-2.4C346.2,89,345.2,87.8,343.8,87.8
							L343.8,87.8z"/>
						<path class="st4" d="M351.6,87.8c-1.4,0-2.4,1.1-2.4,2.4s1,2.4,2.4,2.4s2.4-1.1,2.4-2.4C354,89,353,87.8,351.6,87.8
							L351.6,87.8z"/>
					</g>
					<g>
						<g>
							<path class="st4" d="M384.2,78.6h-55.8c-1.1,0-2.1-0.9-2.1-2.1V60.6c0-1.1,0.9-2.1,2.1-2.1h55.8c1.1,0,2.1,0.9,2.1,2.1v15.9
								C386.3,77.6,385.3,78.6,384.2,78.6L384.2,78.6z M330.4,74.5h51.7V62.6h-51.7V74.5L330.4,74.5z"/>
						</g>
						<path class="st4" d="M336,66.1c-1.4,0-2.4,1.1-2.4,2.4c0,1.4,1,2.4,2.4,2.4s2.4-1.1,2.4-2.4S337.3,66.1,336,66.1L336,66.1z"/>
						<path class="st4" d="M343.8,66.1c-1.4,0-2.4,1.1-2.4,2.4c0,1.4,1,2.4,2.4,2.4s2.4-1.1,2.4-2.4S345.2,66.1,343.8,66.1
							L343.8,66.1z"/>
						<path class="st4" d="M351.6,66.1c-1.4,0-2.4,1.1-2.4,2.4c0,1.4,1,2.4,2.4,2.4s2.4-1.1,2.4-2.4C354.1,67.2,353,66.1,351.6,66.1
							L351.6,66.1z"/>
					</g>
				</g>
				<g>
					<g>
						<path class="st6" d="M384.8,110.2c-5.2,0-9.4-4.2-9.4-9.4s4.2-9.4,9.4-9.4c5.2,0,9.4,4.2,9.4,9.4
							C394.2,106,390,110.2,384.8,110.2z"/>
						<path class="st4" d="M384.8,93.8c3.9,0,7,3.1,7,7s-3.1,7-7,7s-7-3.1-7-7C377.7,96.9,380.9,93.8,384.8,93.8 M384.8,89
							c-6.6,0-11.8,5.3-11.8,11.8c0,6.6,5.3,11.8,11.8,11.8s11.8-5.3,11.8-11.8C396.6,94.2,391.3,89,384.8,89L384.8,89z"/>
					</g>
				</g>
			</g>
			<g>
				<path class="st4" d="M380,100.8L380,100.8c0-3,2.2-5.3,5.4-5.3c1.9,0,3.1,0.6,4,1.6l-1.4,1.7c-0.8-0.7-1.6-1.1-2.6-1.1
					c-1.8,0-3,1.4-3,3.2l0,0c0,1.8,1.2,3.2,3,3.2c1.2,0,1.9-0.5,2.7-1.2l1.4,1.4c-1,1.1-2.2,1.8-4.2,1.8
					C382.3,106.1,380,103.8,380,100.8z"/>
			</g>
		</g>
	</g>
	<g>
		<rect x="200.6" y="52.1" class="st6" width="101.3" height="101.3"/>
		<g>
			<path class="st4" d="M221,71.9h31.4v24.8H221L221,71.9 M214.9,65.9v36.9h43.4V65.9H214.9L214.9,65.9z"/>
			<g>
				<path class="st4" d="M239.6,112.4h16.5c1.7,0,3-1.4,3-3s-1.4-3-3-3h-16.5c-1.7,0-3,1.4-3,3C236.5,111,237.9,112.4,239.6,112.4
					L239.6,112.4z"/>
			</g>
			<path class="st4" d="M226.7,110.9c1.4,0,2.5,1.1,2.5,2.5s-1.1,2.5-2.5,2.5s-2.5-1.1-2.5-2.5C224.1,112.1,225.3,110.9,226.7,110.9
				 M226.7,105.8c-4.2,0-7.7,3.4-7.7,7.7c0,4.2,3.4,7.7,7.7,7.7c4.2,0,7.6-3.4,7.6-7.7C234.3,109.3,230.9,105.8,226.7,105.8
				L226.7,105.8z"/>
			<path class="st4" d="M268.4,83.7h6.9l6.3,12.3v7c-3-3.9-7.8-6.3-13.1-6.4L268.4,83.7 M262.3,77.7v26.7c1.7-1.1,3.8-1.8,6-1.8
				c5.6,0,10.2,4.2,10.7,9.7h8.5V94.6l-8.6-16.9L262.3,77.7L262.3,77.7z"/>
			<path class="st4" d="M268.3,110.9c1.4,0,2.5,1.1,2.5,2.5s-1.1,2.5-2.5,2.5s-2.5-1.1-2.5-2.5S266.9,110.9,268.3,110.9
				 M268.3,105.8c-4.2,0-7.7,3.4-7.7,7.7c0,4.2,3.4,7.7,7.7,7.7c4.2,0,7.6-3.4,7.6-7.7C276,109.3,272.5,105.8,268.3,105.8
				L268.3,105.8z"/>
		</g>
	</g>
</g>
<g>
	<g>
		<rect x="288.9" y="220.5" class="st2" width="78" height="79"/>
	</g>
	<g>
		<g>
			<g>
				<path class="st4" d="M351.1,280.8h-46c-0.9,0-1.7-0.8-1.7-1.7V266c0-0.9,0.8-1.7,1.7-1.7h46c0.9,0,1.7,0.8,1.7,1.7v13.1
					C352.8,280.1,352,280.8,351.1,280.8L351.1,280.8z M306.8,277.5h42.6v-9.8h-42.6V277.5L306.8,277.5z"/>
			</g>
			<path class="st4" d="M311.4,270.6c-1.1,0-2,0.9-2,2s0.9,2,2,2s2-0.9,2-2S312.5,270.6,311.4,270.6L311.4,270.6z"/>
			<path class="st4" d="M317.8,270.6c-1.1,0-2,0.9-2,2s0.9,2,2,2s2-0.9,2-2S318.9,270.6,317.8,270.6L317.8,270.6z"/>
			<path class="st4" d="M324.3,270.6c-1.1,0-2,0.9-2,2s0.9,2,2,2s2-0.9,2-2S325.4,270.6,324.3,270.6L324.3,270.6z"/>
		</g>
		<g>
			<g>
				<path class="st4" d="M351.1,263h-46c-0.9,0-1.7-0.8-1.7-1.7v-13.1c0-0.9,0.8-1.7,1.7-1.7h46c0.9,0,1.7,0.8,1.7,1.7v13.1
					C352.8,262.2,352,263,351.1,263L351.1,263z M306.8,259.6h42.6v-9.8h-42.6V259.6L306.8,259.6z"/>
			</g>
			<path class="st4" d="M311.4,252.7c-1.1,0-2,0.9-2,2s0.9,2,2,2s2-0.9,2-2S312.5,252.7,311.4,252.7L311.4,252.7z"/>
			<path class="st4" d="M317.8,252.7c-1.1,0-2,0.9-2,2s0.9,2,2,2s2-0.9,2-2S318.9,252.7,317.8,252.7L317.8,252.7z"/>
			<path class="st4" d="M324.3,252.7c-1.1,0-2,0.9-2,2s0.9,2,2,2s2-0.9,2-2S325.4,252.7,324.3,252.7L324.3,252.7z"/>
		</g>
		<g>
			<g>
				<path class="st4" d="M351.1,245.1h-46c-0.9,0-1.7-0.8-1.7-1.7v-13.1c0-0.9,0.8-1.7,1.7-1.7h46c0.9,0,1.7,0.8,1.7,1.7v13.1
					C352.8,244.3,352,245.1,351.1,245.1L351.1,245.1z M306.8,241.7h42.6v-9.8h-42.6V241.7L306.8,241.7z"/>
			</g>
			<path class="st4" d="M311.4,234.8c-1.1,0-2,0.9-2,2s0.9,2,2,2s2-0.9,2-2C313.4,235.7,312.5,234.8,311.4,234.8L311.4,234.8z"/>
			<path class="st4" d="M317.8,234.8c-1.1,0-2,0.9-2,2s0.9,2,2,2s2-0.9,2-2C319.8,235.7,318.9,234.8,317.8,234.8L317.8,234.8z"/>
			<path class="st4" d="M324.3,234.8c-1.1,0-2,0.9-2,2s0.9,2,2,2s2-0.9,2-2C326.3,235.7,325.4,234.8,324.3,234.8L324.3,234.8z"/>
		</g>
	</g>
</g>
<text transform="matrix(1 0 0 1 75.9759 135.9998)" class="st4 st7 st9">workstation</text>
<text transform="matrix(1 0 0 1 210.3031 134.3333)"><tspan x="0" y="0" class="st4 st7 st9">Chef Automate</tspan><tspan x="24.6" y="13.2" class="st4 st7 st9">server</tspan></text>
<text transform="matrix(1 0 0 1 326.4193 139.6668)" class="st4 st7 st9">Chef server</text>
<text transform="matrix(1 0 0 1 310.3997 293.3333)" class="st4 st7 st10">runners</text>
<text transform="matrix(1 0 0 1 454.6361 93.9998)" class="st4 st7 st11">acceptance</text>
<text transform="matrix(1 0 0 1 469.1728 162.5338)" class="st4 st7 st11">union</text>
<text transform="matrix(1 0 0 1 461.6605 228.5838)" class="st4 st7 st11">rehearsal</text>
<text transform="matrix(1 0 0 1 461.8332 296.6665)" class="st4 st7 st11">delivered</text>
<line class="st12" x1="152.2" y1="103.6" x2="193.4" y2="103.6"/>
</svg>
