<?xml version="1.0" encoding="utf-8"?>
<!-- Generator: Adobe Illustrator 19.2.1, SVG Export Plug-In . SVG Version: 6.00 Build 0)  -->
<svg version="1.1" id="Layer_1" xmlns="http://www.w3.org/2000/svg" xmlns:xlink="http://www.w3.org/1999/xlink" x="0px" y="0px"
	 viewBox="0 0 629 320" style="enable-background:new 0 0 629 320;" xml:space="preserve">
<style type="text/css">
	.st0{fill:#445464;}
	.st1{fill:#FFFFFF;}
	.st2{fill:#6CB2E2;}
	.st3{fill:#F08921;}
	.st4{fill:#59B8B3;}
	.st5{fill:none;}
</style>
<g>
	<g>
		<rect x="370" y="197.1" class="st0" width="78" height="79"/>
	</g>
	<g>
		<g>
			<g>
				<path class="st1" d="M432.2,257.4h-46c-0.9,0-1.7-0.8-1.7-1.7v-13.1c0-0.9,0.8-1.7,1.7-1.7h46c0.9,0,1.7,0.8,1.7,1.7v13.1
					C433.9,256.7,433.1,257.4,432.2,257.4L432.2,257.4z M387.9,254.1h42.6v-9.8h-42.6V254.1L387.9,254.1z"/>
			</g>
			<path class="st1" d="M392.5,247.2c-1.1,0-2,0.9-2,2s0.9,2,2,2s2-0.9,2-2S393.6,247.2,392.5,247.2L392.5,247.2z"/>
			<path class="st1" d="M398.9,247.2c-1.1,0-2,0.9-2,2s0.9,2,2,2s2-0.9,2-2S400,247.2,398.9,247.2L398.9,247.2z"/>
			<path class="st1" d="M405.4,247.2c-1.1,0-2,0.9-2,2s0.9,2,2,2s2-0.9,2-2S406.5,247.2,405.4,247.2L405.4,247.2z"/>
		</g>
		<g>
			<g>
				<path class="st1" d="M432.2,239.6h-46c-0.9,0-1.7-0.8-1.7-1.7v-13.1c0-0.9,0.8-1.7,1.7-1.7h46c0.9,0,1.7,0.8,1.7,1.7v13.1
					C433.9,238.8,433.1,239.6,432.2,239.6L432.2,239.6z M387.9,236.2h42.6v-9.8h-42.6V236.2L387.9,236.2z"/>
			</g>
			<path class="st1" d="M392.5,229.3c-1.1,0-2,0.9-2,2c0,1.1,0.9,2,2,2s2-0.9,2-2C394.5,230.2,393.6,229.3,392.5,229.3L392.5,229.3z
				"/>
			<path class="st1" d="M398.9,229.3c-1.1,0-2,0.9-2,2c0,1.1,0.9,2,2,2s2-0.9,2-2C400.9,230.2,400,229.3,398.9,229.3L398.9,229.3z"
				/>
			<path class="st1" d="M405.4,229.3c-1.1,0-2,0.9-2,2c0,1.1,0.9,2,2,2s2-0.9,2-2C407.4,230.2,406.5,229.3,405.4,229.3L405.4,229.3z
				"/>
		</g>
		<g>
			<g>
				<path class="st1" d="M432.2,221.7h-46c-0.9,0-1.7-0.8-1.7-1.7v-13.1c0-0.9,0.8-1.7,1.7-1.7h46c0.9,0,1.7,0.8,1.7,1.7V220
					C433.9,220.9,433.1,221.7,432.2,221.7L432.2,221.7z M387.9,218.3h42.6v-9.8h-42.6V218.3L387.9,218.3z"/>
			</g>
			<path class="st1" d="M392.5,211.4c-1.1,0-2,0.9-2,2s0.9,2,2,2s2-0.9,2-2C394.5,212.3,393.6,211.4,392.5,211.4L392.5,211.4z"/>
			<path class="st1" d="M398.9,211.4c-1.1,0-2,0.9-2,2s0.9,2,2,2s2-0.9,2-2C400.9,212.3,400,211.4,398.9,211.4L398.9,211.4z"/>
			<path class="st1" d="M405.4,211.4c-1.1,0-2,0.9-2,2s0.9,2,2,2s2-0.9,2-2C407.4,212.3,406.5,211.4,405.4,211.4L405.4,211.4z"/>
		</g>
	</g>
	<g>
		<path class="st1" d="M388.2,268.9v0.6h-1.3v-6.1h1.3v2.3c0.3-0.4,0.7-0.7,1.4-0.7c1,0,2,0.8,2,2.3l0,0c0,1.5-1,2.3-2,2.3
			C388.9,269.6,388.5,269.3,388.2,268.9z M390.3,267.3L390.3,267.3c0-0.8-0.5-1.3-1.1-1.3s-1.1,0.5-1.1,1.2l0,0
			c0,0.7,0.5,1.2,1.1,1.2C389.8,268.4,390.3,268,390.3,267.3z"/>
		<path class="st1" d="M392.5,267.9V265h1.3v2.5c0,0.6,0.3,0.9,0.8,0.9s0.8-0.3,0.8-0.9V265h1.3v4.5h-1.3v-0.6
			c-0.3,0.4-0.7,0.7-1.3,0.7C393.1,269.6,392.5,268.9,392.5,267.9z"/>
		<path class="st1" d="M397.8,263.4h1.3v1.1h-1.3V263.4z M397.8,265h1.3v4.5h-1.3V265z"/>
		<path class="st1" d="M400.3,263.4h1.3v6.1h-1.3V263.4z"/>
		<path class="st1" d="M402.6,267.3L402.6,267.3c0-1.5,1-2.3,2-2.3c0.7,0,1.1,0.3,1.4,0.7v-2.2h1.3v6.1H406V269
			c-0.3,0.4-0.7,0.7-1.4,0.7C403.6,269.6,402.6,268.8,402.6,267.3z M406.1,267.3L406.1,267.3c0-0.8-0.5-1.3-1.1-1.3
			s-1.1,0.5-1.1,1.2l0,0c0,0.7,0.5,1.2,1.1,1.2C405.6,268.4,406.1,268,406.1,267.3z"/>
		<path class="st1" d="M410.9,265h1.3v0.6c0.3-0.4,0.7-0.7,1.3-0.7c1,0,1.5,0.6,1.5,1.7v2.9h-1.3V267c0-0.6-0.3-0.9-0.8-0.9
			s-0.8,0.3-0.8,0.9v2.5h-1.3L410.9,265L410.9,265z"/>
		<path class="st1" d="M415.9,267.3L415.9,267.3c0-1.3,1-2.3,2.4-2.3s2.4,1,2.4,2.3l0,0c0,1.3-1,2.3-2.4,2.3
			C417,269.6,415.9,268.6,415.9,267.3z M419.5,267.3L419.5,267.3c0-0.7-0.5-1.3-1.2-1.3s-1.2,0.6-1.2,1.2l0,0c0,0.7,0.5,1.2,1.2,1.2
			C419.1,268.5,419.5,267.9,419.5,267.3z"/>
		<path class="st1" d="M421.5,267.3L421.5,267.3c0-1.5,1-2.3,2-2.3c0.7,0,1.1,0.3,1.4,0.7v-2.2h1.3v6.1h-1.3V269
			c-0.3,0.4-0.7,0.7-1.4,0.7C422.5,269.6,421.5,268.8,421.5,267.3z M425,267.3L425,267.3c0-0.8-0.5-1.3-1.1-1.3s-1.1,0.5-1.1,1.2
			l0,0c0,0.7,0.5,1.2,1.1,1.2C424.5,268.4,425,268,425,267.3z"/>
		<path class="st1" d="M427.1,267.3L427.1,267.3c0-1.3,0.9-2.3,2.2-2.3c1.5,0,2.2,1.2,2.2,2.4c0,0.1,0,0.2,0,0.3h-3.1
			c0.1,0.6,0.5,0.9,1.1,0.9c0.4,0,0.7-0.1,1.1-0.5l0.7,0.6c-0.4,0.5-1,0.8-1.8,0.8C428.1,269.6,427.1,268.7,427.1,267.3z
			 M430.3,266.9c-0.1-0.6-0.4-1-0.9-1s-0.9,0.4-1,1H430.3z"/>
	</g>
</g>
<g>
	<g>
		<rect x="284.6" y="197.1" class="st0" width="78" height="79"/>
	</g>
	<g>
		<g>
			<g>
				<path class="st1" d="M346.8,257.4h-46c-0.9,0-1.7-0.8-1.7-1.7v-13.1c0-0.9,0.8-1.7,1.7-1.7h46c0.9,0,1.7,0.8,1.7,1.7v13.1
					C348.5,256.7,347.7,257.4,346.8,257.4L346.8,257.4z M302.5,254.1h42.6v-9.8h-42.6V254.1L302.5,254.1z"/>
			</g>
			<path class="st1" d="M307.1,247.2c-1.1,0-2,0.9-2,2s0.9,2,2,2s2-0.9,2-2S308.2,247.2,307.1,247.2L307.1,247.2z"/>
			<path class="st1" d="M313.5,247.2c-1.1,0-2,0.9-2,2s0.9,2,2,2s2-0.9,2-2S314.6,247.2,313.5,247.2L313.5,247.2z"/>
			<path class="st1" d="M320,247.2c-1.1,0-2,0.9-2,2s0.9,2,2,2s2-0.9,2-2S321.1,247.2,320,247.2L320,247.2z"/>
		</g>
		<g>
			<g>
				<path class="st1" d="M346.8,239.6h-46c-0.9,0-1.7-0.8-1.7-1.7v-13.1c0-0.9,0.8-1.7,1.7-1.7h46c0.9,0,1.7,0.8,1.7,1.7v13.1
					C348.5,238.8,347.7,239.6,346.8,239.6L346.8,239.6z M302.5,236.2h42.6v-9.8h-42.6V236.2L302.5,236.2z"/>
			</g>
			<path class="st1" d="M307.1,229.3c-1.1,0-2,0.9-2,2c0,1.1,0.9,2,2,2s2-0.9,2-2C309.1,230.2,308.2,229.3,307.1,229.3L307.1,229.3z
				"/>
			<path class="st1" d="M313.5,229.3c-1.1,0-2,0.9-2,2c0,1.1,0.9,2,2,2s2-0.9,2-2C315.5,230.2,314.6,229.3,313.5,229.3L313.5,229.3z
				"/>
			<path class="st1" d="M320,229.3c-1.1,0-2,0.9-2,2c0,1.1,0.9,2,2,2s2-0.9,2-2C322,230.2,321.1,229.3,320,229.3L320,229.3z"/>
		</g>
		<g>
			<g>
				<path class="st1" d="M346.8,221.7h-46c-0.9,0-1.7-0.8-1.7-1.7v-13.1c0-0.9,0.8-1.7,1.7-1.7h46c0.9,0,1.7,0.8,1.7,1.7V220
					C348.5,220.9,347.7,221.7,346.8,221.7L346.8,221.7z M302.5,218.3h42.6v-9.8h-42.6V218.3L302.5,218.3z"/>
			</g>
			<path class="st1" d="M307.1,211.4c-1.1,0-2,0.9-2,2s0.9,2,2,2s2-0.9,2-2C309.1,212.3,308.2,211.4,307.1,211.4L307.1,211.4z"/>
			<path class="st1" d="M313.5,211.4c-1.1,0-2,0.9-2,2s0.9,2,2,2s2-0.9,2-2C315.5,212.3,314.6,211.4,313.5,211.4L313.5,211.4z"/>
			<path class="st1" d="M320,211.4c-1.1,0-2,0.9-2,2s0.9,2,2,2s2-0.9,2-2C322,212.3,321.1,211.4,320,211.4L320,211.4z"/>
		</g>
	</g>
	<g>
		<path class="st1" d="M302.8,268.9v0.6h-1.3v-6.1h1.3v2.3c0.3-0.4,0.7-0.7,1.4-0.7c1,0,2,0.8,2,2.3l0,0c0,1.5-1,2.3-2,2.3
			C303.5,269.6,303.1,269.3,302.8,268.9z M304.9,267.3L304.9,267.3c0-0.8-0.5-1.3-1.1-1.3s-1.1,0.5-1.1,1.2l0,0
			c0,0.7,0.5,1.2,1.1,1.2C304.4,268.4,304.9,268,304.9,267.3z"/>
		<path class="st1" d="M307.1,267.9V265h1.3v2.5c0,0.6,0.3,0.9,0.8,0.9s0.8-0.3,0.8-0.9V265h1.3v4.5H310v-0.6
			c-0.3,0.4-0.7,0.7-1.3,0.7C307.7,269.6,307.1,268.9,307.1,267.9z"/>
		<path class="st1" d="M312.4,263.4h1.3v1.1h-1.3V263.4z M312.4,265h1.3v4.5h-1.3V265z"/>
		<path class="st1" d="M314.9,263.4h1.3v6.1h-1.3V263.4z"/>
		<path class="st1" d="M317.2,267.3L317.2,267.3c0-1.5,1-2.3,2-2.3c0.7,0,1.1,0.3,1.4,0.7v-2.2h1.3v6.1h-1.3V269
			c-0.3,0.4-0.7,0.7-1.4,0.7C318.2,269.6,317.2,268.8,317.2,267.3z M320.7,267.3L320.7,267.3c0-0.8-0.5-1.3-1.1-1.3
			s-1.1,0.5-1.1,1.2l0,0c0,0.7,0.5,1.2,1.1,1.2C320.2,268.4,320.7,268,320.7,267.3z"/>
		<path class="st1" d="M325.5,265h1.3v0.6c0.3-0.4,0.7-0.7,1.3-0.7c1,0,1.5,0.6,1.5,1.7v2.9h-1.3V267c0-0.6-0.3-0.9-0.8-0.9
			s-0.8,0.3-0.8,0.9v2.5h-1.3L325.5,265L325.5,265z"/>
		<path class="st1" d="M330.5,267.3L330.5,267.3c0-1.3,1-2.3,2.4-2.3s2.4,1,2.4,2.3l0,0c0,1.3-1,2.3-2.4,2.3
			C331.6,269.6,330.5,268.6,330.5,267.3z M334.1,267.3L334.1,267.3c0-0.7-0.5-1.3-1.2-1.3s-1.2,0.6-1.2,1.2l0,0
			c0,0.7,0.5,1.2,1.2,1.2C333.7,268.5,334.1,267.9,334.1,267.3z"/>
		<path class="st1" d="M336.1,267.3L336.1,267.3c0-1.5,1-2.3,2-2.3c0.7,0,1.1,0.3,1.4,0.7v-2.2h1.3v6.1h-1.3V269
			c-0.3,0.4-0.7,0.7-1.4,0.7C337.1,269.6,336.1,268.8,336.1,267.3z M339.6,267.3L339.6,267.3c0-0.8-0.5-1.3-1.1-1.3
			s-1.1,0.5-1.1,1.2l0,0c0,0.7,0.5,1.2,1.1,1.2C339.1,268.4,339.6,268,339.6,267.3z"/>
		<path class="st1" d="M341.7,267.3L341.7,267.3c0-1.3,0.9-2.3,2.2-2.3c1.5,0,2.2,1.2,2.2,2.4c0,0.1,0,0.2,0,0.3H343
			c0.1,0.6,0.5,0.9,1.1,0.9c0.4,0,0.7-0.1,1.1-0.5l0.7,0.6c-0.4,0.5-1,0.8-1.8,0.8C342.7,269.6,341.7,268.7,341.7,267.3z
			 M344.9,266.9c-0.1-0.6-0.4-1-0.9-1s-0.9,0.4-1,1H344.9z"/>
	</g>
</g>
<g>
	<g>
		<rect x="316" y="83.1" class="st2" width="101.3" height="101.3"/>
		<g>
			<path class="st1" d="M354.5,161.4L354.5,161.4c0-2.2,1.6-3.9,3.9-3.9c1.4,0,2.2,0.5,3,1.2l-1,1.2c-0.6-0.6-1.2-0.9-1.9-0.9
				c-1.3,0-2.2,1-2.2,2.3l0,0c0,1.3,0.9,2.4,2.2,2.4c0.9,0,1.4-0.3,2-0.9l1,1c-0.8,0.8-1.6,1.4-3.1,1.4
				C356.2,165.3,354.5,163.5,354.5,161.4z"/>
			<path class="st1" d="M362.7,157.3h1.6v2.9c0.4-0.5,0.9-1,1.7-1c1.2,0,2,0.8,2,2.2v3.8h-1.6v-3.2c0-0.8-0.4-1.2-1-1.2
				c-0.6,0-1,0.4-1,1.2v3.2h-1.6L362.7,157.3L362.7,157.3z"/>
			<path class="st1" d="M369.1,162.3L369.1,162.3c0-1.7,1.2-3,2.9-3c1.9,0,2.8,1.5,2.8,3.1c0,0.2,0,0.3,0,0.4h-4
				c0.2,0.7,0.6,1.1,1.4,1.1c0.6,0,1-0.2,1.4-0.6l1,0.8c-0.6,0.6-1.3,1-2.4,1C370.3,165.3,369.1,164.1,369.1,162.3z M373.1,161.8
				c-0.1-0.7-0.6-1.2-1.2-1.2c-0.6,0-1.1,0.5-1.3,1.2H373.1z"/>
			<path class="st1" d="M376.3,160.7h-0.6v-1.4h0.6V159c0-0.6,0.2-1.1,0.5-1.4s0.7-0.5,1.4-0.5c0.5,0,0.9,0.1,1.2,0.2v1.4
				c-0.2-0.1-0.5-0.2-0.7-0.2c-0.4,0-0.6,0.2-0.6,0.6v0.2h1.4v1.4h-1.3v4.4h-1.6v-4.3H376.3z"/>
			<path class="st1" d="M350,177.3l0.7-1c0.6,0.5,1.3,0.7,1.8,0.7c0.5,0,0.7-0.2,0.7-0.4l0,0c0-0.3-0.6-0.5-1.2-0.6
				c-0.8-0.2-1.8-0.6-1.8-1.8l0,0c0-1.2,1-1.8,2.1-1.8c0.7,0,1.5,0.2,2.2,0.6l-0.6,1.1c-0.6-0.3-1.1-0.6-1.6-0.6
				c-0.4,0-0.6,0.2-0.6,0.4l0,0c0,0.3,0.6,0.5,1.2,0.7c0.8,0.2,1.8,0.6,1.8,1.7l0,0c0,1.3-1,1.8-2.2,1.8
				C351.7,178.2,350.8,177.9,350,177.3z"/>
			<path class="st1" d="M355.6,175.2L355.6,175.2c0-1.7,1.2-3,2.9-3c1.9,0,2.8,1.5,2.8,3.1c0,0.2,0,0.3,0,0.4h-4
				c0.2,0.7,0.6,1.1,1.4,1.1c0.6,0,1-0.2,1.4-0.6l1,0.8c-0.6,0.6-1.3,1-2.4,1C356.9,178.2,355.6,177,355.6,175.2z M359.7,174.7
				c-0.1-0.7-0.6-1.2-1.2-1.2s-1.1,0.5-1.3,1.2H359.7z"/>
			<path class="st1" d="M362.5,172.3h1.6v1.2c0.3-0.8,0.9-1.3,1.8-1.3v1.7h-0.1c-1.1,0-1.8,0.6-1.8,2v2.2h-1.6L362.5,172.3
				L362.5,172.3z"/>
			<path class="st1" d="M366.5,172.3h1.8l1.3,3.8l1.3-3.8h1.7l-2.2,5.8h-1.5L366.5,172.3z"/>
			<path class="st1" d="M372.9,175.2L372.9,175.2c0-1.7,1.2-3,2.9-3c1.9,0,2.8,1.5,2.8,3.1c0,0.2,0,0.3,0,0.4h-4
				c0.2,0.7,0.6,1.1,1.4,1.1c0.6,0,1-0.2,1.4-0.6l1,0.8c-0.6,0.6-1.3,1-2.4,1C374.2,178.2,372.9,177,372.9,175.2z M376.9,174.7
				c-0.1-0.7-0.6-1.2-1.2-1.2c-0.6,0-1.1,0.5-1.3,1.2H376.9z"/>
			<path class="st1" d="M379.8,172.3h1.6v1.2c0.3-0.8,0.9-1.3,1.8-1.3v1.7h-0.1c-1.1,0-1.8,0.6-1.8,2v2.2h-1.6L379.8,172.3
				L379.8,172.3z"/>
		</g>
		<g>
			<g>
				<g>
					<g>
						<g>
							<path class="st1" d="M392.9,152.1h-55.8c-1.1,0-2.1-0.9-2.1-2.1v-15.9c0-1.1,0.9-2.1,2.1-2.1h55.8c1.1,0,2.1,0.9,2.1,2.1V150
								C395,151.1,394,152.1,392.9,152.1L392.9,152.1z M339.1,148h51.7v-11.8h-51.7V148L339.1,148z"/>
						</g>
						<path class="st1" d="M344.7,139.6c-1.4,0-2.4,1.1-2.4,2.4c0,1.3,1,2.4,2.4,2.4c1.4,0,2.4-1.1,2.4-2.4
							C347.1,140.7,346,139.6,344.7,139.6L344.7,139.6z"/>
						<path class="st1" d="M352.5,139.6c-1.4,0-2.4,1.1-2.4,2.4c0,1.3,1,2.4,2.4,2.4s2.4-1.1,2.4-2.4
							C354.9,140.7,353.9,139.6,352.5,139.6L352.5,139.6z"/>
						<path class="st1" d="M360.3,139.6c-1.4,0-2.4,1.1-2.4,2.4c0,1.3,1,2.4,2.4,2.4s2.4-1.1,2.4-2.4
							C362.7,140.7,361.7,139.6,360.3,139.6L360.3,139.6z"/>
					</g>
					<g>
						<g>
							<path class="st1" d="M392.9,130.3h-55.8c-1.1,0-2.1-0.9-2.1-2.1v-15.9c0-1.1,0.9-2.1,2.1-2.1h55.8c1.1,0,2.1,0.9,2.1,2.1
								v15.9C395,129.5,394,130.3,392.9,130.3L392.9,130.3z M339.1,126.3h51.7v-11.8h-51.7V126.3L339.1,126.3z"/>
						</g>
						<path class="st1" d="M344.7,117.9c-1.4,0-2.4,1.1-2.4,2.4c0,1.3,1,2.4,2.4,2.4c1.4,0,2.4-1.1,2.4-2.4
							C347.1,119.1,346,117.9,344.7,117.9L344.7,117.9z"/>
						<path class="st1" d="M352.5,117.9c-1.4,0-2.4,1.1-2.4,2.4c0,1.3,1,2.4,2.4,2.4s2.4-1.1,2.4-2.4
							C354.9,119.1,353.9,117.9,352.5,117.9L352.5,117.9z"/>
						<path class="st1" d="M360.3,117.9c-1.4,0-2.4,1.1-2.4,2.4c0,1.3,1,2.4,2.4,2.4s2.4-1.1,2.4-2.4
							C362.7,119.1,361.7,117.9,360.3,117.9L360.3,117.9z"/>
					</g>
					<g>
						<g>
							<path class="st1" d="M392.9,108.7h-55.8c-1.1,0-2.1-0.9-2.1-2.1V90.7c0-1.1,0.9-2.1,2.1-2.1h55.8c1.1,0,2.1,0.9,2.1,2.1v15.9
								C395,107.7,394,108.7,392.9,108.7L392.9,108.7z M339.1,104.6h51.7V92.7h-51.7V104.6L339.1,104.6z"/>
						</g>
						<path class="st1" d="M344.7,96.2c-1.4,0-2.4,1.1-2.4,2.4c0,1.4,1,2.4,2.4,2.4c1.4,0,2.4-1.1,2.4-2.4S346,96.2,344.7,96.2
							L344.7,96.2z"/>
						<path class="st1" d="M352.5,96.2c-1.4,0-2.4,1.1-2.4,2.4c0,1.4,1,2.4,2.4,2.4s2.4-1.1,2.4-2.4S353.9,96.2,352.5,96.2
							L352.5,96.2z"/>
						<path class="st1" d="M360.3,96.2c-1.4,0-2.4,1.1-2.4,2.4c0,1.4,1,2.4,2.4,2.4s2.4-1.1,2.4-2.4
							C362.8,97.3,361.7,96.2,360.3,96.2L360.3,96.2z"/>
					</g>
				</g>
				<g>
					<g>
						<path class="st2" d="M393.5,140.3c-5.2,0-9.4-4.2-9.4-9.4c0-5.2,4.2-9.4,9.4-9.4c5.2,0,9.4,4.2,9.4,9.4
							C402.9,136.1,398.7,140.3,393.5,140.3z"/>
						<path class="st1" d="M393.5,123.9c3.9,0,7,3.1,7,7c0,3.9-3.1,7-7,7c-3.9,0-7-3.1-7-7C386.4,127,389.6,123.9,393.5,123.9
							 M393.5,119.1c-6.6,0-11.8,5.3-11.8,11.8c0,6.6,5.3,11.8,11.8,11.8s11.8-5.3,11.8-11.8C405.3,124.3,400,119.1,393.5,119.1
							L393.5,119.1z"/>
					</g>
				</g>
			</g>
			<g>
				<path class="st1" d="M388.7,130.9L388.7,130.9c0-3,2.2-5.3,5.4-5.3c1.9,0,3.1,0.6,4,1.6l-1.4,1.7c-0.8-0.7-1.6-1.1-2.6-1.1
					c-1.8,0-3,1.4-3,3.2l0,0c0,1.8,1.2,3.2,3,3.2c1.2,0,1.9-0.5,2.7-1.2l1.4,1.4c-1,1.1-2.2,1.8-4.2,1.8
					C391,136.2,388.7,133.9,388.7,130.9z"/>
			</g>
		</g>
	</g>
	<g>
		<rect x="209.3" y="82.2" class="st2" width="101.3" height="101.3"/>
		<g>
			<path class="st1" d="M229.7,102h31.4v24.8h-31.4V102 M223.6,96v36.9h43.4V96H223.6L223.6,96z"/>
			<g>
				<path class="st1" d="M248.3,142.5h16.5c1.7,0,3-1.4,3-3s-1.4-3-3-3h-16.5c-1.7,0-3,1.4-3,3C245.2,141.1,246.6,142.5,248.3,142.5
					L248.3,142.5z"/>
			</g>
			<path class="st1" d="M235.4,141c1.4,0,2.5,1.1,2.5,2.5s-1.1,2.5-2.5,2.5c-1.4,0-2.5-1.1-2.5-2.5C232.8,142.2,234,141,235.4,141
				 M235.4,135.9c-4.2,0-7.7,3.4-7.7,7.7c0,4.2,3.4,7.7,7.7,7.7c4.2,0,7.6-3.4,7.6-7.7C243,139.4,239.6,135.9,235.4,135.9
				L235.4,135.9z"/>
			<path class="st1" d="M277.1,113.8h6.9l6.3,12.3v7c-3-3.9-7.8-6.3-13.1-6.4L277.1,113.8 M271,107.8v26.7c1.7-1.1,3.8-1.8,6-1.8
				c5.6,0,10.2,4.2,10.7,9.7h8.5v-17.7l-8.6-16.9L271,107.8L271,107.8z"/>
			<path class="st1" d="M277,141c1.4,0,2.5,1.1,2.5,2.5s-1.1,2.5-2.5,2.5s-2.5-1.1-2.5-2.5S275.6,141,277,141 M277,135.9
				c-4.2,0-7.7,3.4-7.7,7.7c0,4.2,3.4,7.7,7.7,7.7c4.2,0,7.6-3.4,7.6-7.7C284.7,139.4,281.2,135.9,277,135.9L277,135.9z"/>
		</g>
	</g>
</g>
<g>
	<polyline class="st3" points="151,52.1 266,52.1 266,71.1 261,71.1 261,57.1 156,57.1 	"/>
	<g>
		<polygon class="st3" points="258.1,66.7 263.1,75.2 268.1,66.7 		"/>
	</g>
</g>
<rect x="144.5" y="52.1" class="st3" width="47" height="5"/>
<g>
	<polygon class="st3" points="369,71.1 364,71.1 364,57.1 228,57.1 228,52.1 369,52.1 	"/>
	<g>
		<polygon class="st3" points="361.7,70.1 366.7,78.7 371.7,70.1 		"/>
	</g>
</g>
<path class="st0" d="M108,3.1v4.5h516v308H5V7.6h51V3.1H0V320h629V3.1H108z"/>
<g>
	<rect x="548.3" y="235.2" class="st4" width="63.7" height="63.7"/>
	<g>
		<g>
			<g>
				<path class="st1" d="M596.3,279h-32.4c-0.7,0-1.2-0.5-1.2-1.2v-9.2c0-0.7,0.5-1.2,1.2-1.2h32.4c0.7,0,1.2,0.5,1.2,1.2v9.2
					C597.5,278.5,597,279,596.3,279L596.3,279z M565.2,276.6h30v-6.9h-30V276.6L565.2,276.6z"/>
			</g>
			<path class="st1" d="M568.4,271.8c-0.8,0-1.4,0.6-1.4,1.4s0.6,1.4,1.4,1.4c0.8,0,1.4-0.6,1.4-1.4S569.1,271.8,568.4,271.8
				L568.4,271.8z"/>
			<path class="st1" d="M572.9,271.8c-0.8,0-1.4,0.6-1.4,1.4s0.6,1.4,1.4,1.4c0.8,0,1.4-0.6,1.4-1.4S573.7,271.8,572.9,271.8
				L572.9,271.8z"/>
			<path class="st1" d="M577.5,271.8c-0.8,0-1.4,0.6-1.4,1.4s0.6,1.4,1.4,1.4c0.8,0,1.4-0.6,1.4-1.4S578.2,271.8,577.5,271.8
				L577.5,271.8z"/>
		</g>
		<g>
			<g>
				<path class="st1" d="M596.3,266.4h-32.4c-0.7,0-1.2-0.5-1.2-1.2V256c0-0.7,0.5-1.2,1.2-1.2h32.4c0.7,0,1.2,0.5,1.2,1.2v9.2
					C597.5,265.9,597,266.4,596.3,266.4L596.3,266.4z M565.2,264h30v-6.9h-30V264L565.2,264z"/>
			</g>
			<path class="st1" d="M568.4,259.2c-0.8,0-1.4,0.6-1.4,1.4s0.6,1.4,1.4,1.4c0.8,0,1.4-0.6,1.4-1.4
				C569.8,259.8,569.1,259.2,568.4,259.2L568.4,259.2z"/>
			<path class="st1" d="M572.9,259.2c-0.8,0-1.4,0.6-1.4,1.4s0.6,1.4,1.4,1.4c0.8,0,1.4-0.6,1.4-1.4
				C574.3,259.8,573.7,259.2,572.9,259.2L572.9,259.2z"/>
			<path class="st1" d="M577.5,259.2c-0.8,0-1.4,0.6-1.4,1.4s0.6,1.4,1.4,1.4c0.8,0,1.4-0.6,1.4-1.4
				C578.9,259.8,578.2,259.2,577.5,259.2L577.5,259.2z"/>
		</g>
		<g>
			<g>
				<path class="st1" d="M596.3,253.8h-32.4c-0.7,0-1.2-0.5-1.2-1.2v-9.2c0-0.7,0.5-1.2,1.2-1.2h32.4c0.7,0,1.2,0.5,1.2,1.2v9.2
					C597.5,253.3,597,253.8,596.3,253.8L596.3,253.8z M565.2,251.4h30v-6.9h-30V251.4L565.2,251.4z"/>
			</g>
			<path class="st1" d="M568.4,246.6c-0.8,0-1.4,0.6-1.4,1.4s0.6,1.4,1.4,1.4c0.8,0,1.4-0.6,1.4-1.4S569.1,246.6,568.4,246.6
				L568.4,246.6z"/>
			<path class="st1" d="M572.9,246.6c-0.8,0-1.4,0.6-1.4,1.4s0.6,1.4,1.4,1.4c0.8,0,1.4-0.6,1.4-1.4S573.7,246.6,572.9,246.6
				L572.9,246.6z"/>
			<path class="st1" d="M577.5,246.6c-0.8,0-1.4,0.6-1.4,1.4s0.6,1.4,1.4,1.4c0.8,0,1.4-0.6,1.4-1.4S578.2,246.6,577.5,246.6
				L577.5,246.6z"/>
		</g>
	</g>
	<g>
		<path class="st1" d="M560.3,284.6h2.3c1.9,0,3.1,1.3,3.1,2.9l0,0c0,1.7-1.3,3-3.1,3h-2.3V284.6z M561.6,285.8v3.6h1
			c1.1,0,1.8-0.7,1.8-1.8l0,0c0-1-0.7-1.8-1.8-1.8L561.6,285.8L561.6,285.8z"/>
		<path class="st1" d="M566.5,288.3L566.5,288.3c0-1.3,0.9-2.4,2.2-2.4c1.5,0,2.2,1.2,2.2,2.5c0,0.1,0,0.2,0,0.3h-3.2
			c0.1,0.6,0.5,0.9,1.1,0.9c0.4,0,0.7-0.1,1.1-0.5l0.7,0.7c-0.4,0.5-1,0.8-1.9,0.8C567.5,290.6,566.5,289.7,566.5,288.3z
			 M569.7,287.9c-0.1-0.6-0.4-1-1-1c-0.5,0-0.9,0.4-1,1H569.7z"/>
		<path class="st1" d="M572,284.4h1.3v6.2H572V284.4z"/>
		<path class="st1" d="M574.5,284.4h1.4v1.1h-1.4V284.4z M574.5,286h1.3v4.5h-1.3V286z"/>
		<path class="st1" d="M576.6,286h1.4l1,3l1-3h1.3l-1.8,4.6h-1.2L576.6,286z"/>
		<path class="st1" d="M581.6,288.3L581.6,288.3c0-1.3,0.9-2.4,2.2-2.4c1.5,0,2.2,1.2,2.2,2.5c0,0.1,0,0.2,0,0.3h-3.2
			c0.1,0.6,0.5,0.9,1.1,0.9c0.4,0,0.7-0.1,1.1-0.5l0.7,0.7c-0.4,0.5-1,0.8-1.9,0.8C582.6,290.6,581.6,289.7,581.6,288.3z
			 M584.8,287.9c-0.1-0.6-0.4-1-1-1c-0.5,0-0.9,0.4-1,1H584.8z"/>
		<path class="st1" d="M587,286h1.3v0.9c0.3-0.6,0.7-1,1.4-1v1.3h-0.1c-0.9,0-1.4,0.5-1.4,1.6v1.7h-1.3L587,286L587,286z"/>
		<path class="st1" d="M590.2,288.3L590.2,288.3c0-1.3,0.9-2.4,2.2-2.4c1.5,0,2.2,1.2,2.2,2.5c0,0.1,0,0.2,0,0.3h-3.2
			c0.1,0.6,0.5,0.9,1.1,0.9c0.4,0,0.7-0.1,1.1-0.5l0.7,0.7c-0.4,0.5-1,0.8-1.9,0.8C591.2,290.6,590.2,289.7,590.2,288.3z
			 M593.4,287.9c-0.1-0.6-0.4-1-1-1c-0.5,0-0.9,0.4-1,1H593.4z"/>
		<path class="st1" d="M595.4,288.3L595.4,288.3c0-1.5,1-2.4,2.1-2.4c0.7,0,1.1,0.3,1.4,0.7v-2.2h1.3v6.2h-1.3v-0.7
			c-0.3,0.4-0.7,0.7-1.4,0.7C596.4,290.6,595.4,289.8,595.4,288.3z M598.9,288.3L598.9,288.3c0-0.8-0.5-1.3-1.1-1.3
			s-1.1,0.5-1.1,1.3l0,0c0,0.8,0.5,1.3,1.1,1.3C598.4,289.5,598.9,289,598.9,288.3z"/>
	</g>
	<rect x="548.3" y="167.2" class="st4" width="63.7" height="63.7"/>
	<g>
		<g>
			<g>
				<path class="st1" d="M596.3,211h-32.4c-0.7,0-1.2-0.5-1.2-1.2v-9.2c0-0.7,0.5-1.2,1.2-1.2h32.4c0.7,0,1.2,0.5,1.2,1.2v9.2
					C597.5,210.4,597,211,596.3,211L596.3,211z M565.2,208.6h30v-6.9h-30V208.6L565.2,208.6z"/>
			</g>
			<path class="st1" d="M568.4,203.7c-0.8,0-1.4,0.6-1.4,1.4s0.6,1.4,1.4,1.4c0.8,0,1.4-0.6,1.4-1.4S569.1,203.7,568.4,203.7
				L568.4,203.7z"/>
			<path class="st1" d="M572.9,203.7c-0.8,0-1.4,0.6-1.4,1.4s0.6,1.4,1.4,1.4c0.8,0,1.4-0.6,1.4-1.4S573.7,203.7,572.9,203.7
				L572.9,203.7z"/>
			<path class="st1" d="M577.5,203.7c-0.8,0-1.4,0.6-1.4,1.4s0.6,1.4,1.4,1.4c0.8,0,1.4-0.6,1.4-1.4S578.2,203.7,577.5,203.7
				L577.5,203.7z"/>
		</g>
		<g>
			<g>
				<path class="st1" d="M596.3,198.4h-32.4c-0.7,0-1.2-0.5-1.2-1.2V188c0-0.7,0.5-1.2,1.2-1.2h32.4c0.7,0,1.2,0.5,1.2,1.2v9.2
					C597.5,197.8,597,198.4,596.3,198.4L596.3,198.4z M565.2,196h30v-6.9h-30V196L565.2,196z"/>
			</g>
			<path class="st1" d="M568.4,191.1c-0.8,0-1.4,0.6-1.4,1.4s0.6,1.4,1.4,1.4c0.8,0,1.4-0.6,1.4-1.4S569.1,191.1,568.4,191.1
				L568.4,191.1z"/>
			<path class="st1" d="M572.9,191.1c-0.8,0-1.4,0.6-1.4,1.4s0.6,1.4,1.4,1.4c0.8,0,1.4-0.6,1.4-1.4S573.7,191.1,572.9,191.1
				L572.9,191.1z"/>
			<path class="st1" d="M577.5,191.1c-0.8,0-1.4,0.6-1.4,1.4s0.6,1.4,1.4,1.4c0.8,0,1.4-0.6,1.4-1.4S578.2,191.1,577.5,191.1
				L577.5,191.1z"/>
		</g>
		<g>
			<g>
				<path class="st1" d="M596.3,185.8h-32.4c-0.7,0-1.2-0.5-1.2-1.2v-9.2c0-0.7,0.5-1.2,1.2-1.2h32.4c0.7,0,1.2,0.5,1.2,1.2v9.2
					C597.5,185.2,597,185.8,596.3,185.8L596.3,185.8z M565.2,183.4h30v-6.9h-30V183.4L565.2,183.4z"/>
			</g>
			<path class="st1" d="M568.4,178.6c-0.8,0-1.4,0.6-1.4,1.4s0.6,1.4,1.4,1.4c0.8,0,1.4-0.6,1.4-1.4S569.1,178.6,568.4,178.6
				L568.4,178.6z"/>
			<path class="st1" d="M572.9,178.6c-0.8,0-1.4,0.6-1.4,1.4s0.6,1.4,1.4,1.4c0.8,0,1.4-0.6,1.4-1.4S573.7,178.6,572.9,178.6
				L572.9,178.6z"/>
			<path class="st1" d="M577.5,178.6c-0.8,0-1.4,0.6-1.4,1.4s0.6,1.4,1.4,1.4c0.8,0,1.4-0.6,1.4-1.4S578.2,178.6,577.5,178.6
				L577.5,178.6z"/>
		</g>
	</g>
	<g>
		<path class="st1" d="M559.9,216.6h2.7c0.8,0,1.3,0.2,1.7,0.6c0.3,0.3,0.5,0.8,0.5,1.4l0,0c0,1-0.5,1.6-1.3,1.8l1.4,2.1h-1.5
			l-1.3-1.9h-1v1.9h-1.3L559.9,216.6L559.9,216.6z M562.5,219.5c0.6,0,1-0.3,1-0.8l0,0c0-0.6-0.4-0.8-1-0.8h-1.3v1.7L562.5,219.5
			L562.5,219.5z"/>
		<path class="st1" d="M565.5,220.3L565.5,220.3c0-1.3,0.9-2.4,2.2-2.4c1.5,0,2.2,1.2,2.2,2.5c0,0.1,0,0.2,0,0.3h-3.2
			c0.1,0.6,0.5,0.9,1.1,0.9c0.4,0,0.7-0.1,1.1-0.5l0.7,0.7c-0.4,0.5-1,0.8-1.9,0.8C566.6,222.6,565.5,221.7,565.5,220.3z
			 M568.7,219.9c-0.1-0.6-0.4-1-1-1c-0.5,0-0.9,0.4-1,1H568.7z"/>
		<path class="st1" d="M570.9,216.3h1.3v2.3c0.3-0.4,0.7-0.7,1.3-0.7c1,0,1.5,0.6,1.5,1.7v2.9h-1.3V220c0-0.6-0.3-0.9-0.8-0.9
			s-0.8,0.3-0.8,0.9v2.5h-1.3L570.9,216.3L570.9,216.3z"/>
		<path class="st1" d="M576,220.3L576,220.3c0-1.3,0.9-2.4,2.2-2.4c1.5,0,2.2,1.2,2.2,2.5c0,0.1,0,0.2,0,0.3h-3.2
			c0.1,0.6,0.5,0.9,1.1,0.9c0.4,0,0.7-0.1,1.1-0.5l0.7,0.7c-0.4,0.5-1,0.8-1.9,0.8C577,222.6,576,221.7,576,220.3z M579.2,219.9
			c-0.1-0.6-0.4-1-1-1c-0.5,0-0.9,0.4-1,1H579.2z"/>
		<path class="st1" d="M581.1,221.2L581.1,221.2c0-1,0.8-1.5,1.8-1.5c0.5,0,0.8,0.1,1.1,0.2v-0.1c0-0.5-0.3-0.8-1-0.8
			c-0.5,0-0.8,0.1-1.3,0.2l-0.3-1c0.5-0.2,1-0.4,1.8-0.4c0.7,0,1.2,0.2,1.5,0.5s0.5,0.8,0.5,1.4v2.6H584V222
			c-0.3,0.3-0.7,0.6-1.4,0.6C581.8,222.6,581.1,222.1,581.1,221.2z M584.1,220.9v-0.2c-0.2-0.1-0.5-0.2-0.8-0.2
			c-0.5,0-0.9,0.2-0.9,0.6l0,0c0,0.3,0.3,0.5,0.7,0.5C583.7,221.7,584.1,221.4,584.1,220.9z"/>
		<path class="st1" d="M586.4,218h1.3v0.9c0.3-0.6,0.7-1,1.4-1v1.3l0,0c-0.9,0-1.4,0.5-1.4,1.6v1.7h-1.3V218z"/>
		<path class="st1" d="M589.6,221.9l0.5-0.8c0.5,0.4,1,0.5,1.4,0.5s0.5-0.1,0.5-0.3l0,0c0-0.3-0.4-0.4-0.9-0.5
			c-0.6-0.2-1.4-0.5-1.4-1.4l0,0c0-0.9,0.7-1.4,1.7-1.4c0.6,0,1.2,0.2,1.7,0.5l-0.5,0.9c-0.4-0.3-0.9-0.4-1.2-0.4s-0.5,0.1-0.5,0.3
			l0,0c0,0.3,0.4,0.4,0.9,0.5c0.6,0.2,1.4,0.5,1.4,1.3l0,0c0,1-0.8,1.5-1.7,1.5C590.9,222.6,590.2,222.4,589.6,221.9z"/>
		<path class="st1" d="M593.9,221.2L593.9,221.2c0-1,0.8-1.5,1.8-1.5c0.5,0,0.8,0.1,1.1,0.2v-0.1c0-0.5-0.3-0.8-1-0.8
			c-0.5,0-0.8,0.1-1.3,0.2l-0.3-1c0.5-0.2,1-0.4,1.8-0.4c0.7,0,1.2,0.2,1.5,0.5s0.5,0.8,0.5,1.4v2.6h-1.2V222
			c-0.3,0.3-0.7,0.6-1.4,0.6C594.6,222.6,593.9,222.1,593.9,221.2z M596.9,220.9v-0.2c-0.2-0.1-0.5-0.2-0.8-0.2
			c-0.5,0-0.9,0.2-0.9,0.6l0,0c0,0.3,0.3,0.5,0.7,0.5C596.4,221.7,596.9,221.4,596.9,220.9z"/>
		<path class="st1" d="M599.2,216.3h1.3v6.2h-1.3V216.3z"/>
	</g>
	<rect x="548.3" y="99.2" class="st4" width="63.7" height="63.7"/>
	<g>
		<g>
			<g>
				<path class="st1" d="M596.3,142.9h-32.4c-0.7,0-1.2-0.5-1.2-1.2v-9.2c0-0.7,0.5-1.2,1.2-1.2h32.4c0.7,0,1.2,0.5,1.2,1.2v9.2
					C597.5,142.4,597,142.9,596.3,142.9L596.3,142.9z M565.2,140.6h30v-6.9h-30V140.6L565.2,140.6z"/>
			</g>
			<path class="st1" d="M568.4,135.7c-0.8,0-1.4,0.6-1.4,1.4c0,0.8,0.6,1.4,1.4,1.4c0.8,0,1.4-0.6,1.4-1.4S569.1,135.7,568.4,135.7
				L568.4,135.7z"/>
			<path class="st1" d="M572.9,135.7c-0.8,0-1.4,0.6-1.4,1.4c0,0.8,0.6,1.4,1.4,1.4c0.8,0,1.4-0.6,1.4-1.4S573.7,135.7,572.9,135.7
				L572.9,135.7z"/>
			<path class="st1" d="M577.5,135.7c-0.8,0-1.4,0.6-1.4,1.4c0,0.8,0.6,1.4,1.4,1.4c0.8,0,1.4-0.6,1.4-1.4S578.2,135.7,577.5,135.7
				L577.5,135.7z"/>
		</g>
		<g>
			<g>
				<path class="st1" d="M596.3,130.3h-32.4c-0.7,0-1.2-0.5-1.2-1.2v-9.2c0-0.7,0.5-1.2,1.2-1.2h32.4c0.7,0,1.2,0.5,1.2,1.2v9.2
					C597.5,129.8,597,130.3,596.3,130.3L596.3,130.3z M565.2,128h30v-6.9h-30V128L565.2,128z"/>
			</g>
			<path class="st1" d="M568.4,123.1c-0.8,0-1.4,0.6-1.4,1.4c0,0.8,0.6,1.4,1.4,1.4c0.8,0,1.4-0.6,1.4-1.4
				C569.8,123.7,569.1,123.1,568.4,123.1L568.4,123.1z"/>
			<path class="st1" d="M572.9,123.1c-0.8,0-1.4,0.6-1.4,1.4c0,0.8,0.6,1.4,1.4,1.4c0.8,0,1.4-0.6,1.4-1.4
				C574.3,123.7,573.7,123.1,572.9,123.1L572.9,123.1z"/>
			<path class="st1" d="M577.5,123.1c-0.8,0-1.4,0.6-1.4,1.4c0,0.8,0.6,1.4,1.4,1.4c0.8,0,1.4-0.6,1.4-1.4
				C578.9,123.7,578.2,123.1,577.5,123.1L577.5,123.1z"/>
		</g>
		<g>
			<g>
				<path class="st1" d="M596.3,117.7h-32.4c-0.7,0-1.2-0.5-1.2-1.2v-9.2c0-0.7,0.5-1.2,1.2-1.2h32.4c0.7,0,1.2,0.5,1.2,1.2v9.2
					C597.5,117.2,597,117.7,596.3,117.7L596.3,117.7z M565.2,115.4h30v-6.9h-30V115.4L565.2,115.4z"/>
			</g>
			<path class="st1" d="M568.4,110.5c-0.8,0-1.4,0.6-1.4,1.4c0,0.8,0.6,1.4,1.4,1.4c0.8,0,1.4-0.6,1.4-1.4
				C569.8,111.2,569.1,110.5,568.4,110.5L568.4,110.5z"/>
			<path class="st1" d="M572.9,110.5c-0.8,0-1.4,0.6-1.4,1.4c0,0.8,0.6,1.4,1.4,1.4c0.8,0,1.4-0.6,1.4-1.4
				C574.3,111.2,573.7,110.5,572.9,110.5L572.9,110.5z"/>
			<path class="st1" d="M577.5,110.5c-0.8,0-1.4,0.6-1.4,1.4c0,0.8,0.6,1.4,1.4,1.4c0.8,0,1.4-0.6,1.4-1.4
				C578.9,111.2,578.2,110.5,577.5,110.5L577.5,110.5z"/>
		</g>
	</g>
	<g>
		<path class="st1" d="M568.2,152v-3.4h1.3v3.3c0,1,0.5,1.5,1.3,1.5s1.3-0.5,1.3-1.4v-3.4h1.3v3.3c0,1.8-1,2.7-2.6,2.7
			C569.2,154.6,568.2,153.7,568.2,152z"/>
		<path class="st1" d="M574.6,150h1.3v0.6c0.3-0.4,0.7-0.7,1.3-0.7c1,0,1.5,0.6,1.5,1.7v2.9h-1.3V152c0-0.6-0.3-0.9-0.8-0.9
			s-0.8,0.3-0.8,0.9v2.5h-1.3L574.6,150L574.6,150z"/>
		<path class="st1" d="M579.9,148.3h1.4v1.1h-1.4V148.3z M579.9,150h1.3v4.5h-1.3V150z"/>
		<path class="st1" d="M582.2,152.2L582.2,152.2c0-1.3,1-2.4,2.5-2.4c1.4,0,2.4,1,2.4,2.3l0,0c0,1.3-1,2.4-2.5,2.4
			C583.2,154.6,582.2,153.6,582.2,152.2z M585.8,152.2L585.8,152.2c0-0.7-0.5-1.3-1.2-1.3s-1.2,0.6-1.2,1.2l0,0
			c0,0.7,0.5,1.3,1.2,1.3C585.4,153.5,585.8,152.9,585.8,152.2z"/>
		<path class="st1" d="M588,150h1.3v0.6c0.3-0.4,0.7-0.7,1.3-0.7c1,0,1.5,0.6,1.5,1.7v2.9h-1.3V152c0-0.6-0.3-0.9-0.8-0.9
			s-0.8,0.3-0.8,0.9v2.5h-1.3L588,150L588,150z"/>
	</g>
	<g>
		<rect x="548.3" y="31.2" class="st4" width="63.7" height="63.7"/>
		<g>
			<g>
				<g>
					<path class="st1" d="M596.3,74.9h-32.4c-0.7,0-1.2-0.5-1.2-1.2v-9.2c0-0.7,0.5-1.2,1.2-1.2h32.4c0.7,0,1.2,0.5,1.2,1.2v9.2
						C597.5,74.4,597,74.9,596.3,74.9L596.3,74.9z M565.2,72.5h30v-6.9h-30V72.5L565.2,72.5z"/>
				</g>
				<path class="st1" d="M568.4,67.7c-0.8,0-1.4,0.6-1.4,1.4s0.6,1.4,1.4,1.4c0.8,0,1.4-0.6,1.4-1.4
					C569.8,68.3,569.1,67.7,568.4,67.7L568.4,67.7z"/>
				<path class="st1" d="M572.9,67.7c-0.8,0-1.4,0.6-1.4,1.4s0.6,1.4,1.4,1.4c0.8,0,1.4-0.6,1.4-1.4
					C574.3,68.3,573.7,67.7,572.9,67.7L572.9,67.7z"/>
				<path class="st1" d="M577.5,67.7c-0.8,0-1.4,0.6-1.4,1.4s0.6,1.4,1.4,1.4c0.8,0,1.4-0.6,1.4-1.4
					C578.9,68.3,578.2,67.7,577.5,67.7L577.5,67.7z"/>
			</g>
			<g>
				<g>
					<path class="st1" d="M596.3,62.3h-32.4c-0.7,0-1.2-0.5-1.2-1.2v-9.2c0-0.7,0.5-1.2,1.2-1.2h32.4c0.7,0,1.2,0.5,1.2,1.2v9.2
						C597.5,61.8,597,62.3,596.3,62.3L596.3,62.3z M565.2,59.9h30V53h-30V59.9L565.2,59.9z"/>
				</g>
				<path class="st1" d="M568.4,55.1c-0.8,0-1.4,0.6-1.4,1.4s0.6,1.4,1.4,1.4c0.8,0,1.4-0.6,1.4-1.4S569.1,55.1,568.4,55.1
					L568.4,55.1z"/>
				<path class="st1" d="M572.9,55.1c-0.8,0-1.4,0.6-1.4,1.4s0.6,1.4,1.4,1.4c0.8,0,1.4-0.6,1.4-1.4S573.7,55.1,572.9,55.1
					L572.9,55.1z"/>
				<path class="st1" d="M577.5,55.1c-0.8,0-1.4,0.6-1.4,1.4s0.6,1.4,1.4,1.4c0.8,0,1.4-0.6,1.4-1.4S578.2,55.1,577.5,55.1
					L577.5,55.1z"/>
			</g>
			<g>
				<g>
					<path class="st1" d="M596.3,49.7h-32.4c-0.7,0-1.2-0.5-1.2-1.2v-9.2c0-0.7,0.5-1.2,1.2-1.2h32.4c0.7,0,1.2,0.5,1.2,1.2v9.2
						C597.5,49.2,597,49.7,596.3,49.7L596.3,49.7z M565.2,47.3h30v-6.9h-30V47.3L565.2,47.3z"/>
				</g>
				<path class="st1" d="M568.4,42.5c-0.8,0-1.4,0.6-1.4,1.4s0.6,1.4,1.4,1.4c0.8,0,1.4-0.6,1.4-1.4S569.1,42.5,568.4,42.5
					L568.4,42.5z"/>
				<path class="st1" d="M572.9,42.5c-0.8,0-1.4,0.6-1.4,1.4s0.6,1.4,1.4,1.4c0.8,0,1.4-0.6,1.4-1.4S573.7,42.5,572.9,42.5
					L572.9,42.5z"/>
				<path class="st1" d="M577.5,42.5c-0.8,0-1.4,0.6-1.4,1.4s0.6,1.4,1.4,1.4c0.8,0,1.4-0.6,1.4-1.4S578.2,42.5,577.5,42.5
					L577.5,42.5z"/>
			</g>
		</g>
		<g>
			<path class="st1" d="M557.7,80.5h1.2l2.5,6h-1.3l-0.5-1.3h-2.5l-0.5,1.3h-1.3L557.7,80.5z M559.1,84l-0.8-1.9l-0.8,1.9H559.1z"/>
			<path class="st1" d="M561.8,84.2L561.8,84.2c0-1.3,1-2.4,2.4-2.4c0.9,0,1.4,0.3,1.8,0.8l-0.8,0.8c-0.3-0.3-0.6-0.5-1-0.5
				c-0.6,0-1.1,0.6-1.1,1.2l0,0c0,0.7,0.4,1.3,1.1,1.3c0.4,0,0.7-0.2,1-0.5l0.8,0.8c-0.4,0.5-0.9,0.8-1.9,0.8
				C562.8,86.6,561.8,85.5,561.8,84.2z"/>
			<path class="st1" d="M566.5,84.2L566.5,84.2c0-1.3,1-2.4,2.4-2.4c0.9,0,1.4,0.3,1.8,0.8l-0.8,0.8c-0.3-0.3-0.6-0.5-1-0.5
				c-0.6,0-1.1,0.6-1.1,1.2l0,0c0,0.7,0.4,1.3,1.1,1.3c0.4,0,0.7-0.2,1-0.5l0.8,0.8c-0.4,0.5-0.9,0.8-1.9,0.8
				C567.5,86.6,566.5,85.5,566.5,84.2z"/>
			<path class="st1" d="M571.2,84.2L571.2,84.2c0-1.3,0.9-2.4,2.2-2.4c1.5,0,2.2,1.2,2.2,2.5c0,0.1,0,0.2,0,0.3h-3.2
				c0.1,0.6,0.5,0.9,1.1,0.9c0.4,0,0.7-0.1,1.1-0.5l0.7,0.7c-0.4,0.5-1,0.8-1.9,0.8C572.2,86.6,571.2,85.6,571.2,84.2z M574.4,83.8
				c-0.1-0.6-0.4-1-1-1c-0.5,0-0.9,0.4-1,1H574.4z"/>
			<path class="st1" d="M576.6,81.9h1.3v0.7c0.3-0.4,0.7-0.7,1.4-0.7c1.1,0,2.1,0.8,2.1,2.3l0,0c0,1.5-1,2.3-2.1,2.3
				c-0.7,0-1.1-0.3-1.4-0.7v1.9h-1.3V81.9z M580.1,84.2L580.1,84.2c0-0.8-0.5-1.3-1.1-1.3s-1.1,0.5-1.1,1.3l0,0
				c0,0.8,0.5,1.3,1.1,1.3C579.5,85.5,580.1,85,580.1,84.2z"/>
			<path class="st1" d="M582.5,85.2V83H582v-1.1h0.5v-1.2h1.3v1.2h1.1V83h-1.1v1.9c0,0.3,0.1,0.4,0.4,0.4c0.2,0,0.4-0.1,0.6-0.2v1
				c-0.3,0.2-0.6,0.3-1,0.3C583,86.5,582.5,86.2,582.5,85.2z"/>
			<path class="st1" d="M585.5,85.2L585.5,85.2c0-1,0.8-1.5,1.8-1.5c0.5,0,0.8,0.1,1.1,0.2v-0.1c0-0.5-0.3-0.8-1-0.8
				c-0.5,0-0.8,0.1-1.3,0.2l-0.3-1c0.5-0.2,1-0.4,1.8-0.4c0.7,0,1.2,0.2,1.5,0.5s0.5,0.8,0.5,1.4v2.6h-1.2V86
				c-0.3,0.3-0.7,0.6-1.4,0.6C586.2,86.5,585.5,86.1,585.5,85.2z M588.5,84.9v-0.2c-0.2-0.1-0.5-0.2-0.8-0.2c-0.5,0-0.9,0.2-0.9,0.6
				l0,0c0,0.3,0.3,0.5,0.7,0.5C588.1,85.7,588.5,85.3,588.5,84.9z"/>
			<path class="st1" d="M590.8,81.9h1.3v0.6c0.3-0.4,0.7-0.7,1.3-0.7c1,0,1.5,0.6,1.5,1.7v2.9h-1.3v-2.5c0-0.6-0.3-0.9-0.8-0.9
				s-0.8,0.3-0.8,0.9v2.5h-1.3L590.8,81.9L590.8,81.9z"/>
			<path class="st1" d="M595.8,84.2L595.8,84.2c0-1.3,1-2.4,2.4-2.4c0.9,0,1.4,0.3,1.8,0.8l-0.8,0.8c-0.3-0.3-0.6-0.5-1-0.5
				c-0.6,0-1.1,0.6-1.1,1.2l0,0c0,0.7,0.4,1.3,1.1,1.3c0.4,0,0.7-0.2,1-0.5l0.8,0.8c-0.4,0.5-0.9,0.8-1.9,0.8
				C596.8,86.6,595.8,85.5,595.8,84.2z"/>
			<path class="st1" d="M600.5,84.2L600.5,84.2c0-1.3,0.9-2.4,2.2-2.4c1.5,0,2.2,1.2,2.2,2.5c0,0.1,0,0.2,0,0.3h-3.2
				c0.1,0.6,0.5,0.9,1.1,0.9c0.4,0,0.7-0.1,1.1-0.5l0.7,0.7c-0.4,0.5-1,0.8-1.9,0.8C601.5,86.6,600.5,85.6,600.5,84.2z M603.7,83.8
				c-0.1-0.6-0.4-1-1-1c-0.5,0-0.9,0.4-1,1H603.7z"/>
		</g>
	</g>
</g>
<g>
	<rect x="25.2" y="28.1" class="st3" width="126.6" height="126.6"/>
	<g>
		<path class="st1" d="M36.7,129.7v-3.4h-0.9v-1.8h0.9v-1.8h2v1.8h1.7v1.8h-1.7v3.1c0,0.5,0.2,0.7,0.7,0.7c0.4,0,0.7-0.1,1-0.3v1.6
			c-0.4,0.3-0.9,0.4-1.6,0.4C37.5,131.9,36.7,131.4,36.7,129.7z"/>
		<path class="st1" d="M41.4,128.2L41.4,128.2c0-2.1,1.5-3.8,3.6-3.8c2.4,0,3.5,1.9,3.5,3.9c0,0.2,0,0.4,0,0.5h-5
			c0.2,0.9,0.8,1.4,1.8,1.4c0.7,0,1.2-0.2,1.8-0.7l1.2,1c-0.7,0.8-1.6,1.3-3,1.3C43,131.9,41.4,130.4,41.4,128.2z M46.5,127.6
			c-0.1-0.9-0.7-1.5-1.5-1.5s-1.4,0.6-1.6,1.5H46.5z"/>
		<path class="st1" d="M49.5,129.7L49.5,129.7c0-1.6,1.2-2.3,2.9-2.3c0.7,0,1.3,0.1,1.8,0.3v-0.1c0-0.8-0.5-1.3-1.5-1.3
			c-0.8,0-1.3,0.1-2,0.4l-0.5-1.6c0.8-0.3,1.6-0.6,2.8-0.6c1.1,0,1.9,0.3,2.4,0.8s0.8,1.3,0.8,2.3v4.2h-2V131
			c-0.5,0.6-1.2,0.9-2.2,0.9C50.7,131.9,49.5,131.1,49.5,129.7z M54.2,129.2v-0.4c-0.4-0.2-0.8-0.3-1.3-0.3c-0.9,0-1.4,0.4-1.4,1
			l0,0c0,0.6,0.5,0.9,1.1,0.9C53.6,130.5,54.2,130,54.2,129.2z"/>
		<path class="st1" d="M57.9,124.5h2v1c0.5-0.6,1.1-1.2,2.1-1.2c0.9,0,1.7,0.4,2,1.1c0.6-0.7,1.4-1.1,2.4-1.1c1.5,0,2.4,0.9,2.4,2.7
			v4.7h-2v-4c0-1-0.4-1.5-1.2-1.5s-1.2,0.5-1.2,1.5v4h-2v-4c0-1-0.4-1.5-1.2-1.5s-1.2,0.6-1.2,1.5v4h-2L57.9,124.5L57.9,124.5z"/>
		<path class="st1" d="M74.8,124.5h2v1c0.5-0.6,1.1-1.2,2.1-1.2c0.9,0,1.7,0.4,2,1.1c0.6-0.7,1.4-1.1,2.4-1.1c1.5,0,2.4,0.9,2.4,2.7
			v4.7h-2v-4c0-1-0.4-1.5-1.2-1.5s-1.2,0.5-1.2,1.5v4h-2v-4c0-1-0.4-1.5-1.2-1.5s-1.2,0.5-1.2,1.5v4h-2v-7.2H74.8z"/>
		<path class="st1" d="M87.2,128.2L87.2,128.2c0-2.1,1.5-3.8,3.6-3.8c2.4,0,3.5,1.9,3.5,3.9c0,0.2,0,0.4,0,0.5h-5
			c0.2,0.9,0.8,1.4,1.8,1.4c0.7,0,1.2-0.2,1.8-0.7l1.2,1c-0.7,0.8-1.6,1.3-3,1.3C88.8,131.9,87.2,130.4,87.2,128.2z M92.3,127.6
			c-0.1-0.9-0.7-1.5-1.5-1.5s-1.4,0.6-1.6,1.5H92.3z"/>
		<path class="st1" d="M95.8,124.5h2v1c0.5-0.6,1.1-1.2,2.1-1.2c0.9,0,1.7,0.4,2,1.1c0.6-0.7,1.4-1.1,2.4-1.1c1.5,0,2.4,0.9,2.4,2.7
			v4.7h-2v-4c0-1-0.4-1.5-1.2-1.5s-1.2,0.5-1.2,1.5v4h-2v-4c0-1-0.4-1.5-1.2-1.5c-0.8,0-1.2,0.5-1.2,1.5v4h-2v-7.2H95.8z"/>
		<path class="st1" d="M110.7,130.8v0.9h-2v-9.8h2v3.7c0.5-0.7,1.2-1.2,2.2-1.2c1.7,0,3.3,1.3,3.3,3.7l0,0c0,2.4-1.6,3.7-3.3,3.7
			C111.8,131.9,111.2,131.4,110.7,130.8z M114.2,128.2L114.2,128.2c0-1.2-0.8-2-1.8-2s-1.8,0.8-1.8,2l0,0c0,1.2,0.8,2,1.8,2
			C113.4,130.2,114.2,129.4,114.2,128.2z"/>
		<path class="st1" d="M117.4,128.2L117.4,128.2c0-2.1,1.5-3.8,3.6-3.8c2.4,0,3.5,1.9,3.5,3.9c0,0.2,0,0.4,0,0.5h-5
			c0.2,0.9,0.8,1.4,1.8,1.4c0.7,0,1.2-0.2,1.8-0.7l1.2,1c-0.7,0.8-1.6,1.3-3,1.3C119,131.9,117.4,130.4,117.4,128.2z M122.5,127.6
			c-0.1-0.9-0.7-1.5-1.5-1.5s-1.4,0.6-1.6,1.5H122.5z"/>
		<path class="st1" d="M126,124.5h2v1.5c0.4-1,1.1-1.6,2.3-1.6v2.1h-0.1c-1.4,0-2.2,0.8-2.2,2.5v2.7h-2V124.5z"/>
		<path class="st1" d="M131.6,125.8c0.9-0.1,1.4-0.6,1.3-1.3h-0.8v-2.2h2.2v1.8c0,1.8-0.9,2.5-2.5,2.5L131.6,125.8z"/>
		<path class="st1" d="M135.2,130.8l0.9-1.3c0.8,0.6,1.6,0.9,2.3,0.9c0.6,0,0.9-0.2,0.9-0.5l0,0c0-0.4-0.7-0.6-1.5-0.8
			c-1-0.3-2.2-0.8-2.2-2.2l0,0c0-1.5,1.2-2.3,2.6-2.3c0.9,0,1.9,0.3,2.7,0.8l-0.8,1.4c-0.7-0.4-1.4-0.7-2-0.7
			c-0.5,0-0.8,0.2-0.8,0.5l0,0c0,0.4,0.7,0.6,1.5,0.9c1,0.3,2.2,0.8,2.2,2.1l0,0c0,1.6-1.2,2.3-2.8,2.3
			C137.2,131.9,136.1,131.6,135.2,130.8z"/>
		<path class="st1" d="M48.4,140.7h2.1l1.2,4.4l1.4-4.4h1.8l1.4,4.4l1.2-4.4h2l-2.2,7.3h-1.8l-1.4-4.4l-1.4,4.4h-1.8L48.4,140.7z"/>
		<path class="st1" d="M59.9,144.4L59.9,144.4c0-2.1,1.7-3.8,3.9-3.8c2.2,0,3.9,1.7,3.9,3.7l0,0c0,2.1-1.7,3.8-3.9,3.8
			C61.5,148.1,59.9,146.4,59.9,144.4z M65.6,144.4L65.6,144.4c0-1.1-0.8-2-1.9-2c-1.2,0-1.9,0.9-1.9,2l0,0c0,1.1,0.8,2,1.9,2
			C64.9,146.3,65.6,145.4,65.6,144.4z"/>
		<path class="st1" d="M69.1,140.7h2v1.5c0.4-1,1.1-1.6,2.3-1.6v2.1h-0.1c-1.4,0-2.2,0.8-2.2,2.5v2.7h-2
			C69.1,147.9,69.1,140.7,69.1,140.7z"/>
		<path class="st1" d="M74.8,138.1h2v5.2l2.4-2.6h2.5l-2.7,2.8l2.8,4.4h-2.4l-1.8-3l-0.7,0.8v2.2h-2v-9.8L74.8,138.1L74.8,138.1z"/>
		<path class="st1" d="M82.2,147l0.9-1.3c0.8,0.6,1.6,0.9,2.3,0.9c0.6,0,0.9-0.2,0.9-0.5l0,0c0-0.4-0.7-0.6-1.5-0.8
			c-1-0.3-2.2-0.8-2.2-2.2l0,0c0-1.5,1.2-2.3,2.6-2.3c0.9,0,1.9,0.3,2.7,0.8l-0.8,1.4c-0.7-0.4-1.4-0.7-2-0.7
			c-0.5,0-0.8,0.2-0.8,0.5l0,0c0,0.4,0.7,0.6,1.5,0.9c1,0.3,2.2,0.8,2.2,2.1l0,0c0,1.6-1.2,2.3-2.8,2.3
			C84.3,148.1,83.1,147.7,82.2,147z"/>
		<path class="st1" d="M89.7,145.9v-3.4h-0.9v-1.8h0.9v-1.8h2v1.8h1.7v1.8h-1.7v3.1c0,0.5,0.2,0.7,0.7,0.7c0.4,0,0.7-0.1,1-0.3v1.6
			c-0.4,0.3-0.9,0.4-1.6,0.4C90.6,148,89.7,147.5,89.7,145.9z"/>
		<path class="st1" d="M94.5,145.8L94.5,145.8c0-1.6,1.2-2.3,2.9-2.3c0.7,0,1.3,0.1,1.8,0.3v-0.1c0-0.8-0.5-1.3-1.5-1.3
			c-0.8,0-1.3,0.1-2,0.4l-0.5-1.6c0.8-0.3,1.6-0.6,2.8-0.6c1.1,0,1.9,0.3,2.4,0.8s0.8,1.3,0.8,2.3v4.2h-2v-0.8
			c-0.5,0.6-1.2,0.9-2.2,0.9C95.7,148.1,94.5,147.3,94.5,145.8z M99.2,145.4V145c-0.4-0.2-0.8-0.3-1.3-0.3c-0.9,0-1.4,0.4-1.4,1l0,0
			c0,0.6,0.5,0.9,1.1,0.9C98.6,146.6,99.2,146.1,99.2,145.4z"/>
		<path class="st1" d="M103.2,145.9v-3.4h-0.9v-1.8h0.9v-1.8h2v1.8h1.7v1.8h-1.7v3.1c0,0.5,0.2,0.7,0.7,0.7c0.4,0,0.7-0.1,1-0.3v1.6
			c-0.4,0.3-0.9,0.4-1.6,0.4C104.1,148,103.2,147.5,103.2,145.9z"/>
		<path class="st1" d="M108.5,138.1h2.2v1.8h-2.2V138.1z M108.6,140.7h2v7.2h-2V140.7z"/>
		<path class="st1" d="M112.2,144.4L112.2,144.4c0-2.1,1.7-3.8,3.9-3.8c2.2,0,3.9,1.7,3.9,3.7l0,0c0,2.1-1.7,3.8-3.9,3.8
			C113.8,148.1,112.2,146.4,112.2,144.4z M118,144.4L118,144.4c0-1.1-0.8-2-1.9-2c-1.2,0-1.9,0.9-1.9,2l0,0c0,1.1,0.8,2,1.9,2
			C117.3,146.3,118,145.4,118,144.4z"/>
		<path class="st1" d="M121.5,140.7h2v1c0.5-0.6,1.1-1.2,2.1-1.2c1.5,0,2.5,1,2.5,2.7v4.7h-2v-4c0-1-0.5-1.5-1.2-1.5
			s-1.3,0.5-1.3,1.5v4h-2v-7.2H121.5z"/>
	</g>
	<g>
		<g>
			<path class="st1" d="M129.1,100.9H46.7c-2.1,0-3.7-1.7-3.7-3.7V44.8c0-2.1,1.7-3.7,3.7-3.7h82.4c2.1,0,3.7,1.7,3.7,3.7v52.4
				C132.8,99.2,131.1,100.9,129.1,100.9L129.1,100.9z M50.4,93.4h74.9V48.5H50.4V93.4L50.4,93.4z"/>
		</g>
		<g>
			<path class="st1" d="M121.6,91.6H54.2c-1,0-1.9-0.8-1.9-1.9V52.2c0-1,0.8-1.9,1.9-1.9h67.4c1,0,1.9,0.8,1.9,1.9v37.5
				C123.4,90.7,122.6,91.6,121.6,91.6L121.6,91.6z M56,87.8h63.7V54.1H56V87.8L56,87.8z"/>
		</g>
		<g>
			<path class="st1" d="M140.6,111.8H36.4c-2.1,0-3.7-1.7-3.7-3.7c0-2.1,1.7-3.7,3.7-3.7h104.2c2.1,0,3.7,1.7,3.7,3.7
				C144.4,110.2,142.7,111.8,140.6,111.8L140.6,111.8z"/>
		</g>
	</g>
</g>
<g>
	<path class="st0" d="M62.2,0.1h3.1L68.6,9l3.2-8.9h3l-5.1,12.7h-2.4L62.2,0.1z"/>
	<path class="st0" d="M76.8,0.1h5.1c3,0,4.8,1.8,4.8,4.4l0,0c0,2.9-2.3,4.4-5.1,4.4h-2.1v3.8h-2.7C76.8,12.7,76.8,0.1,76.8,0.1z
		 M81.7,6.4c1.4,0,2.2-0.8,2.2-1.9l0,0c0-1.2-0.9-1.9-2.3-1.9h-2.1v3.9L81.7,6.4C81.7,6.5,81.7,6.4,81.7,6.4z"/>
	<path class="st0" d="M88.2,6.4L88.2,6.4c0-3.6,2.7-6.6,6.6-6.6c2.4,0,3.8,0.8,5,1.9l-1.8,2c-1-0.9-2-1.4-3.2-1.4
		c-2.1,0-3.7,1.8-3.7,3.9l0,0c0,2.2,1.5,4,3.7,4c1.4,0,2.3-0.6,3.3-1.5l1.8,1.8c-1.3,1.4-2.7,2.3-5.2,2.3C91,12.9,88.2,10,88.2,6.4z
		"/>
</g>
<rect x="507" y="299.6" class="st2" width="12.2" height="5"/>
<g>
	<g>
		<polygon class="st2" points="207.7,304.6 199.2,304.6 199.2,296.1 204.2,296.1 204.2,299.6 207.7,299.6 		"/>
	</g>
	<g>
		<path class="st2" d="M204.2,287.8h-5v-12.1h5V287.8z M204.2,269.7h-5v-12.1h5V269.7z M204.2,251.6h-5v-12.1h5V251.6z M204.2,233.4
			h-5v-12.1h5V233.4z M204.2,215.3h-5v-12.1h5V215.3z M204.2,197.2h-5v-12.1h5V197.2z M204.2,179.1h-5V167h5V179.1z M204.2,161h-5
			v-12.1h5V161z M204.2,142.8h-5v-12.1h5V142.8z M204.2,124.7h-5v-12.1h5V124.7z M204.2,106.6h-5V94.5h5V106.6z M204.2,88.5h-5V76.4
			h5V88.5z M204.2,70.3h-5v-12h5V70.3z M204.2,52.2h-5V40.1h5V52.2z"/>
	</g>
	<g>
		<polygon class="st2" points="204.2,34.1 199.2,34.1 199.2,25.6 207.7,25.6 207.7,30.6 204.2,30.6 		"/>
	</g>
	<rect x="378.5" y="299.6" class="st2" width="12.2" height="5"/>
	<rect x="451.7" y="299.6" class="st2" width="12.2" height="5"/>
	<rect x="360.2" y="299.6" class="st2" width="12.2" height="5"/>
	<rect x="341.9" y="299.6" class="st2" width="12.2" height="5"/>
	<rect x="470" y="299.6" class="st2" width="12.2" height="5"/>
	<rect x="433.4" y="299.6" class="st2" width="12.2" height="5"/>
	<rect x="488.3" y="299.6" class="st2" width="12.2" height="5"/>
	<rect x="415.1" y="299.6" class="st2" width="12.2" height="5"/>
	<rect x="396.8" y="299.6" class="st2" width="12.2" height="5"/>
	<rect x="250.4" y="299.6" class="st2" width="12.2" height="5"/>
	<rect x="305.3" y="299.6" class="st2" width="12.2" height="5"/>
	<rect x="287" y="299.6" class="st2" width="12.2" height="5"/>
	<rect x="268.7" y="299.6" class="st2" width="12.2" height="5"/>
	<rect x="232.1" y="299.6" class="st2" width="12.2" height="5"/>
	<rect x="213.8" y="299.6" class="st2" width="12.2" height="5"/>
	<rect x="323.6" y="299.6" class="st2" width="12.2" height="5"/>
	<rect x="250.4" y="25.6" class="st2" width="12.2" height="5"/>
	<rect x="213.8" y="25.6" class="st2" width="12.2" height="5"/>
	<rect x="396.8" y="25.6" class="st2" width="12.2" height="5"/>
	<rect x="232.1" y="25.6" class="st2" width="12.2" height="5"/>
	<rect x="378.5" y="25.6" class="st2" width="12.2" height="5"/>
	<rect x="360.2" y="25.6" class="st2" width="12.2" height="5"/>
	<rect x="323.6" y="25.6" class="st2" width="12.2" height="5"/>
	<rect x="305.3" y="25.6" class="st2" width="12.2" height="5"/>
	<rect x="268.7" y="25.6" class="st2" width="12.2" height="5"/>
	<rect x="433.4" y="25.6" class="st2" width="12.2" height="5"/>
	<rect x="287" y="25.6" class="st2" width="12.2" height="5"/>
	<rect x="341.9" y="25.6" class="st2" width="12.2" height="5"/>
	<rect x="415.1" y="25.6" class="st2" width="12.2" height="5"/>
	<rect x="451.7" y="25.6" class="st2" width="12.2" height="5"/>
	<rect x="488.3" y="25.6" class="st2" width="12.2" height="5"/>
	<rect x="470" y="25.6" class="st2" width="12.2" height="5"/>
	<rect x="506.6" y="25.6" class="st2" width="12.2" height="5"/>
	<g>
		<polygon class="st2" points="528.4,299.6 524.9,299.6 524.9,304.6 533.4,304.6 533.4,296.1 528.4,296.1 		"/>
		<rect x="506.6" y="299.6" class="st2" width="12.2" height="5"/>
		<rect x="506.6" y="25.6" class="st2" width="12.2" height="5"/>
		<polygon class="st2" points="524.9,25.6 524.9,30.6 528.4,30.6 528.4,34.1 533.4,34.1 533.4,25.6 		"/>
		<rect x="528.4" y="112.6" class="st2" width="5" height="12.1"/>
		<rect x="528.4" y="148.9" class="st2" width="5" height="12.1"/>
		<rect x="528.4" y="94.5" class="st2" width="5" height="12.1"/>
		<rect x="528.4" y="130.8" class="st2" width="5" height="12.1"/>
		<rect x="528.4" y="40.1" class="st2" width="5" height="12.1"/>
		<rect x="528.4" y="76.4" class="st2" width="5" height="12.1"/>
		<rect x="528.4" y="58.3" class="st2" width="5" height="12.1"/>
		<rect x="528.4" y="257.6" class="st2" width="5" height="12.1"/>
		<rect x="528.4" y="275.7" class="st2" width="5" height="12.1"/>
		<rect x="528.4" y="239.5" class="st2" width="5" height="12.1"/>
		<rect x="528.4" y="167" class="st2" width="5" height="12.1"/>
		<rect x="528.4" y="185.1" class="st2" width="5" height="12.1"/>
		<rect x="528.4" y="221.4" class="st2" width="5" height="12.1"/>
		<rect x="528.4" y="203.2" class="st2" width="5" height="12.1"/>
	</g>
</g>
<g>
	<rect x="423" y="82.9" class="st2" width="101.3" height="101.3"/>
	<g>
		<g>
			<g>
				<g>
					<g>
						<path class="st1" d="M499.9,151.9H444c-1.1,0-2.1-0.9-2.1-2.1v-15.9c0-1.1,0.9-2.1,2.1-2.1h55.8c1.1,0,2.1,0.9,2.1,2.1v15.9
							C501.9,151,501,151.9,499.9,151.9L499.9,151.9z M446.1,147.9h51.7V136h-51.7V147.9L446.1,147.9z"/>
					</g>
					<g>
						<path class="st5" d="M451.6,139.5c-1.4,0-2.4,1.1-2.4,2.4c0,1.3,1,2.4,2.4,2.4s2.4-1.1,2.4-2.4
							C454,140.6,453,139.5,451.6,139.5L451.6,139.5z"/>
					</g>
					<path class="st1" d="M459.5,139.5c-1.4,0-2.4,1.1-2.4,2.4c0,1.3,1,2.4,2.4,2.4s2.4-1.1,2.4-2.4
						C461.9,140.6,460.8,139.5,459.5,139.5L459.5,139.5z"/>
					<path class="st1" d="M467.3,139.5c-1.4,0-2.4,1.1-2.4,2.4c0,1.3,1,2.4,2.4,2.4c1.4,0,2.4-1.1,2.4-2.4
						C469.7,140.6,468.6,139.5,467.3,139.5L467.3,139.5z"/>
				</g>
				<g>
					<g>
						<path class="st1" d="M499.9,130.2H444c-1.1,0-2.1-0.9-2.1-2.1v-15.9c0-1.1,0.9-2.1,2.1-2.1h55.8c1.1,0,2.1,0.9,2.1,2.1v15.9
							C501.9,129.3,501,130.2,499.9,130.2L499.9,130.2z M446.1,126.1h51.7v-11.8h-51.7V126.1L446.1,126.1z"/>
					</g>
					<path class="st1" d="M451.6,117.8c-1.4,0-2.4,1.1-2.4,2.4s1,2.4,2.4,2.4s2.4-1.1,2.4-2.4S453,117.8,451.6,117.8L451.6,117.8z"
						/>
					<path class="st1" d="M459.5,117.8c-1.4,0-2.4,1.1-2.4,2.4s1,2.4,2.4,2.4s2.4-1.1,2.4-2.4S460.8,117.8,459.5,117.8L459.5,117.8z
						"/>
					<path class="st1" d="M467.3,117.8c-1.4,0-2.4,1.1-2.4,2.4s1,2.4,2.4,2.4c1.4,0,2.4-1.1,2.4-2.4S468.6,117.8,467.3,117.8
						L467.3,117.8z"/>
				</g>
				<g>
					<g>
						<path class="st1" d="M499.9,108.5H444c-1.1,0-2.1-0.9-2.1-2.1V90.5c0-1.1,0.9-2.1,2.1-2.1h55.8c1.1,0,2.1,0.9,2.1,2.1v15.9
							C501.9,107.5,501,108.5,499.9,108.5L499.9,108.5z M446.1,104.4h51.7V92.6h-51.7V104.4L446.1,104.4z"/>
					</g>
					<path class="st1" d="M451.6,96c-1.4,0-2.4,1.1-2.4,2.4c0,1.4,1,2.4,2.4,2.4s2.4-1.1,2.4-2.4S453,96,451.6,96L451.6,96z"/>
					<path class="st1" d="M459.5,96c-1.4,0-2.4,1.1-2.4,2.4c0,1.4,1,2.4,2.4,2.4s2.4-1.1,2.4-2.4S460.8,96,459.5,96L459.5,96z"/>
					<path class="st1" d="M467.3,96c-1.4,0-2.4,1.1-2.4,2.4c0,1.4,1,2.4,2.4,2.4c1.4,0,2.4-1.1,2.4-2.4
						C469.8,97.1,468.6,96,467.3,96L467.3,96z"/>
				</g>
			</g>
			<g>
				<g>
					<path class="st2" d="M500.4,140.2c-5.2,0-9.4-4.2-9.4-9.4c0-5.2,4.2-9.4,9.4-9.4c5.2,0,9.4,4.2,9.4,9.4
						C509.8,135.9,505.6,140.2,500.4,140.2z"/>
					<path class="st1" d="M500.4,123.7c3.9,0,7,3.1,7,7c0,3.9-3.1,7-7,7c-3.9,0-7-3.1-7-7C493.4,126.8,496.6,123.7,500.4,123.7
						 M500.4,118.9c-6.6,0-11.8,5.3-11.8,11.8s5.3,11.8,11.8,11.8s11.8-5.3,11.8-11.8C512.2,124.2,507,118.9,500.4,118.9
						L500.4,118.9z"/>
				</g>
			</g>
		</g>
		<g>
			<path class="st1" d="M495.7,130.7L495.7,130.7c0-3,2.2-5.3,5.4-5.3c1.9,0,3.1,0.6,4,1.6l-1.4,1.7c-0.8-0.7-1.6-1.1-2.6-1.1
				c-1.8,0-3,1.4-3,3.2l0,0c0,1.8,1.2,3.2,3,3.2c1.2,0,1.9-0.5,2.7-1.2l1.4,1.4c-1,1.1-2.2,1.8-4.2,1.8
				C497.9,136,495.7,133.7,495.7,130.7z"/>
		</g>
	</g>
</g>
<g>
	<polygon class="st3" points="476,70.9 471,70.9 471,56.9 335,56.9 335,51.9 476,51.9 	"/>
	<g>
		<polygon class="st3" points="468.6,69.9 473.6,78.5 478.6,69.9 		"/>
	</g>
</g>
<g>
	<path class="st1" d="M465.2,165.2c-2.3,0-3.9-1.7-3.9-4v0c0-2.2,1.7-4,4-4c1.5,0,2.3,0.5,3,1.2l-1.1,1.2c-0.6-0.5-1.2-0.9-2-0.9
		c-1.3,0-2.2,1.1-2.2,2.4v0c0,1.3,0.9,2.4,2.2,2.4c0.9,0,1.4-0.4,2-0.9l1.1,1.1C467.6,164.7,466.7,165.2,465.2,165.2z"/>
	<path class="st1" d="M473.2,165.1v-3.3c0-0.8-0.4-1.2-1-1.2c-0.6,0-1,0.4-1,1.2v3.3h-1.7v-8h1.7v3c0.4-0.5,0.9-0.9,1.7-0.9
		c1.3,0,2,0.8,2,2.2v3.8H473.2z"/>
	<path class="st1" d="M481.8,162.7h-4.1c0.2,0.8,0.7,1.2,1.4,1.2c0.6,0,1-0.2,1.4-0.6l1,0.8c-0.6,0.7-1.3,1.1-2.4,1.1
		c-1.8,0-3.1-1.2-3.1-3v0c0-1.7,1.2-3.1,2.9-3.1c2,0,2.9,1.5,2.9,3.2v0C481.9,162.5,481.9,162.6,481.8,162.7z M479,160.4
		c-0.7,0-1.1,0.5-1.3,1.3h2.5C480.1,160.9,479.7,160.4,479,160.4z"/>
	<path class="st1" d="M485.7,158.4c-0.4,0-0.6,0.2-0.6,0.6v0.2h1.4v1.4h-1.3v4.5h-1.7v-4.5h-0.7v-1.4h0.7v-0.4
		c0-1.3,0.6-1.9,1.8-1.9c0.5,0,0.9,0.1,1.2,0.2v1.4C486.2,158.4,485.9,158.4,485.7,158.4z"/>
	<path class="st1" d="M445.1,178.4c-1.8,0-3.1-1.4-3.1-3v0c0-1.7,1.3-3.1,3.1-3.1c1.1,0,1.8,0.4,2.4,1l-1,1.1
		c-0.4-0.4-0.7-0.6-1.3-0.6c-0.8,0-1.4,0.7-1.4,1.6v0c0,0.9,0.6,1.6,1.5,1.6c0.6,0,0.9-0.2,1.4-0.6l1,1
		C446.9,178,446.2,178.4,445.1,178.4z"/>
	<path class="st1" d="M451.3,178.4c-1.8,0-3.2-1.4-3.2-3v0c0-1.7,1.4-3.1,3.2-3.1c1.8,0,3.2,1.4,3.2,3v0
		C454.5,177,453.1,178.4,451.3,178.4z M452.8,175.3c0-0.9-0.6-1.6-1.6-1.6c-1,0-1.5,0.7-1.5,1.6v0c0,0.9,0.6,1.6,1.6,1.6
		C452.3,177,452.8,176.2,452.8,175.3L452.8,175.3z"/>
	<path class="st1" d="M463,178.3V175c0-0.8-0.4-1.2-1-1.2s-1,0.4-1,1.2v3.3h-1.7V175c0-0.8-0.4-1.2-1-1.2s-1,0.4-1,1.2v3.3h-1.7
		v-5.9h1.7v0.8c0.4-0.5,0.9-0.9,1.7-0.9c0.8,0,1.4,0.3,1.7,0.9c0.5-0.6,1.1-0.9,1.9-0.9c1.2,0,2,0.7,2,2.2v3.8H463z"/>
	<path class="st1" d="M469.7,178.4c-0.9,0-1.4-0.4-1.8-0.9v2.5h-1.7v-7.7h1.7v0.8c0.4-0.5,1-1,1.8-1c1.4,0,2.7,1.1,2.7,3v0
		C472.3,177.3,471.1,178.4,469.7,178.4z M470.7,175.3c0-1-0.7-1.6-1.4-1.6c-0.8,0-1.4,0.6-1.4,1.6v0c0,1,0.6,1.6,1.4,1.6
		C470,177,470.7,176.3,470.7,175.3L470.7,175.3z"/>
	<path class="st1" d="M473.6,178.3v-8h1.7v8H473.6z"/>
	<path class="st1" d="M476.9,171.7v-1.5h1.8v1.5H476.9z M477,178.3v-5.9h1.7v5.9H477z"/>
	<path class="st1" d="M483.7,178.3v-0.6c-0.4,0.5-1,0.7-1.8,0.7c-1.1,0-2-0.6-2-1.8v0c0-1.3,1-1.9,2.4-1.9c0.6,0,1,0.1,1.4,0.2v-0.1
		c0-0.7-0.4-1.1-1.3-1.1c-0.6,0-1.1,0.1-1.6,0.3l-0.4-1.3c0.6-0.3,1.3-0.5,2.3-0.5c1.8,0,2.6,0.9,2.6,2.5v3.4H483.7z M483.7,175.9
		c-0.3-0.1-0.7-0.2-1.1-0.2c-0.7,0-1.2,0.3-1.2,0.8v0c0,0.5,0.4,0.7,0.9,0.7c0.8,0,1.3-0.4,1.3-1V175.9z"/>
	<path class="st1" d="M490.5,178.3V175c0-0.8-0.4-1.2-1-1.2c-0.6,0-1,0.4-1,1.2v3.3h-1.7v-5.9h1.7v0.8c0.4-0.5,0.9-0.9,1.7-0.9
		c1.3,0,2,0.8,2,2.2v3.8H490.5z"/>
	<path class="st1" d="M496.4,178.4c-1.8,0-3.1-1.4-3.1-3v0c0-1.7,1.3-3.1,3.1-3.1c1.1,0,1.8,0.4,2.4,1l-1,1.1
		c-0.4-0.4-0.7-0.6-1.3-0.6c-0.8,0-1.4,0.7-1.4,1.6v0c0,0.9,0.6,1.6,1.5,1.6c0.6,0,0.9-0.2,1.4-0.6l1,1
		C498.2,178,497.5,178.4,496.4,178.4z"/>
	<path class="st1" d="M505.2,175.9h-4.1c0.2,0.8,0.7,1.2,1.4,1.2c0.6,0,1-0.2,1.4-0.6l1,0.8c-0.6,0.7-1.3,1.1-2.4,1.1
		c-1.8,0-3.1-1.2-3.1-3v0c0-1.7,1.2-3.1,2.9-3.1c2,0,2.9,1.5,2.9,3.2v0C505.2,175.7,505.2,175.8,505.2,175.9z M502.3,173.6
		c-0.7,0-1.1,0.5-1.3,1.3h2.5C503.5,174.1,503,173.6,502.3,173.6z"/>
</g>
<g>
	<path class="st1" d="M220.4,167.3c-2.3,0-3.9-1.7-3.9-4v0c0-2.2,1.7-4,4-4c1.5,0,2.3,0.5,3,1.2l-1.1,1.2c-0.6-0.5-1.2-0.9-2-0.9
		c-1.3,0-2.2,1.1-2.2,2.4v0c0,1.3,0.9,2.4,2.2,2.4c0.9,0,1.4-0.4,2-0.9l1.1,1.1C222.8,166.8,221.9,167.3,220.4,167.3z"/>
	<path class="st1" d="M228.5,167.2v-3.3c0-0.8-0.4-1.2-1-1.2c-0.6,0-1,0.4-1,1.2v3.3h-1.7v-8h1.7v3c0.4-0.5,0.9-0.9,1.7-0.9
		c1.3,0,2,0.8,2,2.2v3.8H228.5z"/>
	<path class="st1" d="M237.1,164.8H233c0.2,0.8,0.7,1.2,1.4,1.2c0.6,0,1-0.2,1.4-0.6l1,0.8c-0.5,0.7-1.3,1.1-2.4,1.1
		c-1.8,0-3.1-1.2-3.1-3v0c0-1.7,1.2-3.1,2.9-3.1c2,0,2.9,1.5,2.9,3.2v0C237.1,164.6,237.1,164.7,237.1,164.8z M234.2,162.5
		c-0.7,0-1.1,0.5-1.3,1.3h2.5C235.4,163,234.9,162.5,234.2,162.5z"/>
	<path class="st1" d="M240.9,160.5c-0.4,0-0.6,0.2-0.6,0.6v0.2h1.4v1.4h-1.3v4.5h-1.7v-4.5h-0.7v-1.4h0.7V161c0-1.3,0.6-1.9,1.8-1.9
		c0.5,0,0.9,0.1,1.2,0.2v1.4C241.4,160.6,241.2,160.5,240.9,160.5z"/>
	<path class="st1" d="M251.8,167.2l-0.7-1.7h-3.3l-0.7,1.7h-1.7l3.3-7.8h1.6l3.3,7.8H251.8z M249.4,161.5l-1,2.5h2L249.4,161.5z"/>
	<path class="st1" d="M258.1,167.2v-0.8c-0.4,0.5-0.9,0.9-1.7,0.9c-1.3,0-2-0.8-2-2.2v-3.8h1.7v3.3c0,0.8,0.4,1.2,1,1.2
		c0.6,0,1-0.4,1-1.2v-3.3h1.7v5.9H258.1z"/>
	<path class="st1" d="M263.3,167.3c-1,0-1.7-0.4-1.7-1.8v-2.8h-0.7v-1.4h0.7v-1.5h1.7v1.5h1.4v1.4h-1.4v2.5c0,0.4,0.2,0.6,0.5,0.6
		c0.3,0,0.6-0.1,0.8-0.2v1.3C264.2,167.2,263.8,167.3,263.3,167.3z"/>
	<path class="st1" d="M268.6,167.3c-1.8,0-3.2-1.4-3.2-3v0c0-1.7,1.4-3.1,3.2-3.1c1.8,0,3.2,1.4,3.2,3v0
		C271.8,166,270.4,167.3,268.6,167.3z M270.1,164.3c0-0.9-0.6-1.6-1.6-1.6c-1,0-1.5,0.7-1.5,1.6v0c0,0.9,0.6,1.6,1.6,1.6
		C269.5,165.9,270.1,165.2,270.1,164.3L270.1,164.3z"/>
	<path class="st1" d="M280.3,167.2v-3.3c0-0.8-0.4-1.2-1-1.2c-0.6,0-1,0.4-1,1.2v3.3h-1.7v-3.3c0-0.8-0.4-1.2-1-1.2
		c-0.6,0-1,0.4-1,1.2v3.3H273v-5.9h1.7v0.8c0.4-0.5,0.9-0.9,1.7-0.9c0.8,0,1.4,0.3,1.7,0.9c0.5-0.6,1.1-0.9,1.9-0.9
		c1.2,0,2,0.7,2,2.2v3.8H280.3z"/>
	<path class="st1" d="M286.9,167.2v-0.6c-0.4,0.5-1,0.7-1.8,0.7c-1.1,0-2-0.6-2-1.8v0c0-1.3,1-1.9,2.4-1.9c0.6,0,1,0.1,1.4,0.2v-0.1
		c0-0.7-0.4-1.1-1.3-1.1c-0.6,0-1.1,0.1-1.6,0.3l-0.4-1.3c0.6-0.3,1.3-0.5,2.3-0.5c1.8,0,2.6,0.9,2.6,2.5v3.4H286.9z M286.9,164.8
		c-0.3-0.1-0.7-0.2-1.1-0.2c-0.7,0-1.2,0.3-1.2,0.8v0c0,0.5,0.4,0.7,0.9,0.7c0.8,0,1.3-0.4,1.3-1V164.8z"/>
	<path class="st1" d="M291.9,167.3c-1,0-1.7-0.4-1.7-1.8v-2.8h-0.7v-1.4h0.7v-1.5h1.7v1.5h1.4v1.4h-1.4v2.5c0,0.4,0.2,0.6,0.5,0.6
		c0.3,0,0.6-0.1,0.8-0.2v1.3C292.8,167.2,292.4,167.3,291.9,167.3z"/>
	<path class="st1" d="M299.8,164.8h-4.1c0.2,0.8,0.7,1.2,1.4,1.2c0.6,0,1-0.2,1.4-0.6l1,0.8c-0.5,0.7-1.3,1.1-2.4,1.1
		c-1.8,0-3.1-1.2-3.1-3v0c0-1.7,1.2-3.1,2.9-3.1c2,0,2.9,1.5,2.9,3.2v0C299.8,164.6,299.8,164.7,299.8,164.8z M296.9,162.5
		c-0.7,0-1.1,0.5-1.3,1.3h2.5C298.1,163,297.6,162.5,296.9,162.5z"/>
	<path class="st1" d="M243.7,180.5c-0.8,0-1.7-0.3-2.5-0.9l0.7-1.1c0.6,0.5,1.3,0.7,1.9,0.7c0.5,0,0.7-0.2,0.7-0.4v0
		c0-0.4-0.6-0.5-1.2-0.7c-0.8-0.2-1.8-0.6-1.8-1.8v0c0-1.2,1-1.9,2.2-1.9c0.7,0,1.6,0.3,2.2,0.7l-0.6,1.2c-0.6-0.3-1.2-0.6-1.6-0.6
		c-0.4,0-0.6,0.2-0.6,0.4v0c0,0.3,0.6,0.5,1.2,0.7c0.8,0.3,1.8,0.7,1.8,1.7v0C245.9,179.9,244.9,180.5,243.7,180.5z"/>
	<path class="st1" d="M252.6,178h-4.1c0.2,0.8,0.7,1.2,1.4,1.2c0.6,0,1-0.2,1.4-0.6l1,0.8c-0.5,0.7-1.3,1.1-2.4,1.1
		c-1.8,0-3.1-1.2-3.1-3v0c0-1.7,1.2-3.1,2.9-3.1c2,0,2.9,1.5,2.9,3.2v0C252.6,177.8,252.6,177.9,252.6,178z M249.7,175.7
		c-0.7,0-1.1,0.5-1.3,1.3h2.5C250.9,176.2,250.4,175.7,249.7,175.7z"/>
	<path class="st1" d="M257.3,176.1c-1.1,0-1.8,0.7-1.8,2.1v2.2h-1.7v-5.9h1.7v1.2c0.3-0.8,0.9-1.3,1.9-1.3L257.3,176.1L257.3,176.1z
		"/>
	<path class="st1" d="M261.8,180.4h-1.5l-2.3-5.9h1.8l1.3,3.9l1.3-3.9h1.7L261.8,180.4z"/>
	<path class="st1" d="M270.2,178h-4.1c0.2,0.8,0.7,1.2,1.4,1.2c0.6,0,1-0.2,1.4-0.6l1,0.8c-0.5,0.7-1.3,1.1-2.4,1.1
		c-1.8,0-3.1-1.2-3.1-3v0c0-1.7,1.2-3.1,2.9-3.1c2,0,2.9,1.5,2.9,3.2v0C270.2,177.8,270.2,177.9,270.2,178z M267.4,175.7
		c-0.7,0-1.1,0.5-1.3,1.3h2.5C268.5,176.2,268.1,175.7,267.4,175.7z"/>
	<path class="st1" d="M274.9,176.1c-1.1,0-1.8,0.7-1.8,2.1v2.2h-1.7v-5.9h1.7v1.2c0.3-0.8,0.9-1.3,1.9-1.3L274.9,176.1L274.9,176.1z
		"/>
</g>
<g>
	<path class="st0" d="M217.6,293.8c-2.9,0-5-2.2-5-5v0c0-2.8,2.1-5.1,5.1-5.1c1.8,0,3,0.6,3.9,1.5l-1.4,1.6
		c-0.8-0.7-1.5-1.1-2.5-1.1c-1.7,0-2.8,1.4-2.8,3.1v0c0,1.7,1.2,3.1,2.8,3.1c1.1,0,1.8-0.4,2.6-1.1l1.4,1.4
		C220.6,293.1,219.5,293.8,217.6,293.8z"/>
	<path class="st0" d="M227.8,293.6v-4.2c0-1-0.5-1.5-1.3-1.5c-0.8,0-1.3,0.5-1.3,1.5v4.2h-2.1v-10.2h2.1v3.8
		c0.5-0.6,1.1-1.2,2.2-1.2c1.6,0,2.5,1.1,2.5,2.8v4.9H227.8z"/>
	<path class="st0" d="M238.8,290.6h-5.2c0.2,1,0.9,1.5,1.8,1.5c0.7,0,1.2-0.2,1.8-0.8l1.2,1.1c-0.7,0.9-1.7,1.4-3.1,1.4
		c-2.3,0-3.9-1.6-3.9-3.9v0c0-2.1,1.5-3.9,3.7-3.9c2.5,0,3.7,1.9,3.7,4.1v0C238.8,290.3,238.8,290.4,238.8,290.6z M235.1,287.7
		c-0.9,0-1.5,0.6-1.6,1.6h3.2C236.6,288.3,236,287.7,235.1,287.7z"/>
	<path class="st0" d="M243.6,285.1c-0.5,0-0.8,0.3-0.8,0.8v0.3h1.7v1.7h-1.7v5.7h-2.1v-5.7h-0.9v-1.8h0.9v-0.5
		c0-1.7,0.8-2.4,2.3-2.4c0.7,0,1.1,0.1,1.5,0.2v1.8C244.3,285.1,244,285.1,243.6,285.1z"/>
	<path class="st0" d="M257.4,293.6l-0.9-2.2h-4.1l-0.9,2.2h-2.2l4.2-9.9h2l4.2,9.9H257.4z M254.5,286.3l-1.3,3.2h2.6L254.5,286.3z"
		/>
	<path class="st0" d="M265.5,293.6v-1.1c-0.5,0.6-1.1,1.2-2.2,1.2c-1.6,0-2.5-1.1-2.5-2.8v-4.9h2.1v4.2c0,1,0.5,1.5,1.3,1.5
		s1.3-0.5,1.3-1.5v-4.2h2.1v7.5H265.5z"/>
	<path class="st0" d="M272.1,293.7c-1.3,0-2.2-0.5-2.2-2.3v-3.6H269v-1.8h0.9v-1.9h2.1v1.9h1.8v1.8H272v3.2c0,0.5,0.2,0.7,0.7,0.7
		c0.4,0,0.7-0.1,1.1-0.3v1.7C273.3,293.6,272.8,293.7,272.1,293.7z"/>
	<path class="st0" d="M278.9,293.8c-2.3,0-4-1.7-4-3.9v0c0-2.2,1.7-3.9,4.1-3.9c2.3,0,4,1.7,4,3.9v0
		C282.9,292,281.2,293.8,278.9,293.8z M280.8,289.9c0-1.1-0.8-2.1-2-2.1c-1.2,0-1.9,0.9-1.9,2v0c0,1.1,0.8,2.1,2,2.1
		C280.1,291.9,280.8,291,280.8,289.9L280.8,289.9z"/>
	<path class="st0" d="M293.8,293.6v-4.2c0-1-0.4-1.5-1.2-1.5c-0.8,0-1.3,0.5-1.3,1.5v4.2h-2.1v-4.2c0-1-0.4-1.5-1.2-1.5
		c-0.8,0-1.3,0.5-1.3,1.5v4.2h-2.1v-7.5h2.1v1.1c0.5-0.6,1.1-1.2,2.2-1.2c1,0,1.7,0.4,2.1,1.2c0.7-0.8,1.4-1.2,2.5-1.2
		c1.6,0,2.5,1,2.5,2.8v4.9H293.8z"/>
	<path class="st0" d="M302.2,293.6v-0.8c-0.5,0.6-1.2,1-2.3,1c-1.4,0-2.6-0.8-2.6-2.3v0c0-1.6,1.2-2.4,3-2.4c0.8,0,1.3,0.1,1.8,0.3
		v-0.1c0-0.9-0.5-1.4-1.6-1.4c-0.8,0-1.4,0.2-2.1,0.4l-0.5-1.6c0.8-0.4,1.6-0.6,2.9-0.6c2.3,0,3.3,1.2,3.3,3.2v4.4H302.2z
		 M302.2,290.6c-0.4-0.2-0.8-0.3-1.4-0.3c-0.9,0-1.5,0.4-1.5,1v0c0,0.6,0.5,0.9,1.2,0.9c1,0,1.7-0.5,1.7-1.3V290.6z"/>
	<path class="st0" d="M308.5,293.7c-1.3,0-2.2-0.5-2.2-2.3v-3.6h-0.9v-1.8h0.9v-1.9h2.1v1.9h1.8v1.8h-1.8v3.2c0,0.5,0.2,0.7,0.7,0.7
		c0.4,0,0.7-0.1,1.1-0.3v1.7C309.7,293.6,309.2,293.7,308.5,293.7z"/>
	<path class="st0" d="M318.6,290.6h-5.2c0.2,1,0.9,1.5,1.8,1.5c0.7,0,1.2-0.2,1.8-0.8l1.2,1.1c-0.7,0.9-1.7,1.4-3.1,1.4
		c-2.3,0-3.9-1.6-3.9-3.9v0c0-2.1,1.5-3.9,3.7-3.9c2.5,0,3.7,1.9,3.7,4.1v0C318.6,290.3,318.6,290.4,318.6,290.6z M314.9,287.7
		c-0.9,0-1.5,0.6-1.6,1.6h3.2C316.4,288.3,315.8,287.7,314.9,287.7z"/>
</g>
</svg>
