<?xml version="1.0" encoding="utf-8"?>
<!-- Generator: Adobe Illustrator 19.2.1, SVG Export Plug-In . SVG Version: 6.00 Build 0)  -->
<svg version="1.1" id="Layer_1" xmlns="http://www.w3.org/2000/svg" xmlns:xlink="http://www.w3.org/1999/xlink" x="0px" y="0px"
	 viewBox="0 0 336.4 235.6" style="enable-background:new 0 0 336.4 235.6;" xml:space="preserve">
<style type="text/css">
	.st0{opacity:0.7;fill:none;stroke:#7F888D;stroke-width:3;stroke-miterlimit:10;enable-background:new    ;}
	.st1{fill:#7F888D;}
	.st2{opacity:0.2;fill:#F08921;enable-background:new    ;}
	.st3{enable-background:new    ;}
	.st4{fill:#445464;}
	.st5{fill:#435363;}
	.st6{fill:#F38B00;}
	.st7{fill:#F08921;}
	.st8{fill:#FFFFFF;}
	.st9{clip-path:url(#SVGID_2_);fill:#FFFFFF;}
	.st10{clip-path:url(#SVGID_4_);fill:#FFFFFF;}
</style>
<line class="st0" x1="52.5" y1="120.1" x2="52.5" y2="176.1"/>
<line class="st0" x1="283.5" y1="120.1" x2="283.5" y2="176.1"/>
<line class="st0" x1="168.5" y1="120.1" x2="168.5" y2="176.1"/>
<rect x="19.3" y="130.1" class="st1" width="297.8" height="31.5"/>
<rect x="305.2" y="0.2" class="st2" width="31.3" height="120"/>
<g class="st3">
	<path class="st4" d="M317.3,26.9h2.5v-2.6h-2.5V23h6.3v1.4h-2.5v2.6h2.5v1.4h-6.3V26.9z"/>
	<path class="st4" d="M317.3,29.7h4.8v1.4h-4.8V29.7z M322.7,29.7h1.2v1.4h-1.2V29.7z"/>
	<path class="st4" d="M315.9,34.5c0-0.8,0.2-1.5,0.5-2.1l1,0.5c-0.3,0.5-0.4,1-0.4,1.6c0,0.9,0.5,1.4,1.3,1.4h0.2
		c-0.5-0.4-0.8-0.8-0.8-1.6c0-1.1,0.8-2.1,2.2-2.1h0c1.4,0,2.2,1,2.2,2.1c0,0.7-0.3,1.2-0.7,1.6h0.6v1.4h-3.7
		C316.6,37.2,315.9,36.3,315.9,34.5z M320,35.9c0.7,0,1.1-0.5,1.1-1.2c0-0.7-0.5-1.2-1.1-1.2h0c-0.7,0-1.1,0.5-1.1,1.2
		C318.9,35.4,319.3,35.9,320,35.9L320,35.9z"/>
	<path class="st4" d="M317.3,41.5h2.7c0.6,0,1-0.3,1-0.8c0-0.5-0.3-0.9-1-0.9h-2.7v-1.4h6.6v1.4h-2.4c0.4,0.3,0.8,0.7,0.8,1.4
		c0,1-0.7,1.6-1.8,1.6h-3.1V41.5z"/>
	<path class="st4" d="M317.3,51.6l1.4-0.6v-2.7l-1.4-0.6v-1.4l6.3,2.7v1.3l-6.3,2.7V51.6z M322,49.7l-2-0.8v1.7L322,49.7z"/>
	<path class="st4" d="M317.3,55.9v-1.2l4.9-1.9v1.4l-3.2,1.1l3.2,1.1v1.4L317.3,55.9z"/>
	<path class="st4" d="M317.3,61.2h0.5c-0.4-0.3-0.6-0.8-0.6-1.5c0-0.9,0.5-1.7,1.5-1.7h0c1.1,0,1.5,0.8,1.5,1.9
		c0,0.5-0.1,0.8-0.2,1.2h0.1c0.6,0,0.9-0.4,0.9-1c0-0.5-0.1-0.9-0.3-1.3l1-0.3c0.2,0.5,0.4,1.1,0.4,1.9c0,1.5-0.8,2.2-2.1,2.2h-2.8
		V61.2z M319.3,61.3c0.1-0.2,0.2-0.5,0.2-0.9c0-0.6-0.2-0.9-0.7-0.9h0c-0.4,0-0.6,0.3-0.6,0.7c0,0.6,0.4,1.1,0.8,1.1H319.3z"/>
	<path class="st4" d="M317.3,63.8h4.8v1.4h-4.8V63.8z M322.7,63.8h1.2v1.4h-1.2V63.8z"/>
	<path class="st4" d="M317.3,66.5h6.6v1.4h-6.6V66.5z"/>
	<path class="st4" d="M317.3,72h0.5c-0.4-0.3-0.6-0.8-0.6-1.5c0-0.9,0.5-1.7,1.5-1.7h0c1.1,0,1.5,0.8,1.5,1.9c0,0.5-0.1,0.8-0.2,1.2
		h0.1c0.6,0,0.9-0.4,0.9-1c0-0.5-0.1-0.9-0.3-1.3l1-0.3c0.2,0.5,0.4,1.1,0.4,1.9c0,1.5-0.8,2.2-2.1,2.2h-2.8V72z M319.3,72
		c0.1-0.2,0.2-0.5,0.2-0.9c0-0.6-0.2-0.9-0.7-0.9h0c-0.4,0-0.6,0.3-0.6,0.7c0,0.6,0.4,1.1,0.8,1.1H319.3z"/>
	<path class="st4" d="M317.2,77.4c0-0.7,0.3-1.2,0.7-1.5h-0.6v-1.4h6.6v1.4h-2.4c0.5,0.3,0.8,0.8,0.8,1.5c0,1.1-0.9,2.2-2.5,2.2h0
		C318.1,79.6,317.2,78.5,317.2,77.4z M319.8,78.2c0.8,0,1.3-0.5,1.3-1.2s-0.5-1.2-1.3-1.2h0c-0.8,0-1.3,0.5-1.3,1.2
		S318.9,78.2,319.8,78.2L319.8,78.2z"/>
	<path class="st4" d="M317.3,80.6h4.8V82h-4.8V80.6z M322.7,80.6h1.2V82h-1.2V80.6z"/>
	<path class="st4" d="M317.3,83.3h6.6v1.4h-6.6V83.3z"/>
	<path class="st4" d="M317.3,86.1h4.8v1.4h-4.8V86.1z M322.7,86h1.2v1.4h-1.2V86z"/>
	<path class="st4" d="M317.3,90.4c0-0.8,0.3-1.4,1.4-1.4h2.3v-0.6h1.2v0.6h1.2v1.4h-1.2v1.1H321v-1.1h-2.1c-0.3,0-0.5,0.1-0.5,0.4
		c0,0.3,0.1,0.5,0.2,0.7h-1.1C317.4,91.1,317.3,90.8,317.3,90.4z"/>
	<path class="st4" d="M317.2,95.2c-1-0.4-1.4-0.8-1.4-1.6c0-0.5,0.1-0.9,0.3-1.2l1,0.5c-0.1,0.2-0.2,0.4-0.2,0.6
		c0,0.2,0.1,0.4,0.3,0.5l4.8-1.9v1.4l-3.3,1.1l3.3,1.1V97L317.2,95.2z"/>
</g>
<rect class="st2" width="301" height="120.1"/>
<path class="st5" d="M9.2,14.4L9.2,14.4c0-3.6,2.7-6.5,6.6-6.5c2.4,0,3.8,0.8,5,1.9l-1.8,2c-1-0.9-2-1.4-3.2-1.4
	c-2.1,0-3.6,1.8-3.6,3.9l0,0c0,2.2,1.5,4,3.6,4c1.4,0,2.3-0.6,3.3-1.5l1.8,1.8c-1.3,1.4-2.7,2.2-5.2,2.2C11.9,20.9,9.2,18,9.2,14.4z
	"/>
<path class="st5" d="M23,8.1h2.8v5h5.1v-5h2.8v12.6h-2.8v-5.1h-5.1v5.1H23V8.1z"/>
<path class="st5" d="M36.7,8.1h9.5v2.5h-6.7v2.6h5.9v2.5h-5.9v2.6h6.8v2.5h-9.6C36.7,20.8,36.7,8.1,36.7,8.1z"/>
<path class="st5" d="M48.7,8.1h9.6v2.5h-6.8v2.7h6v2.5h-6v4.9h-2.8C48.7,20.7,48.7,8.1,48.7,8.1z"/>
<path class="st6" d="M65.4,8h1.3l5.7,12.7h-1.5l-1.5-3.3h-6.8l-1.5,3.3h-1.5L65.4,8z M68.9,16L66,9.6L63.2,16H68.9z"/>
<path class="st6" d="M74.3,15.4V8.1h1.4v7.2c0,2.7,1.5,4.2,3.8,4.2s3.8-1.4,3.8-4.2V8.1h1.4v7.2c0,3.7-2.1,5.6-5.2,5.6
	C76.4,20.8,74.3,18.9,74.3,15.4z"/>
<path class="st6" d="M91.5,9.4h-4.2V8.1h9.9v1.3H93v11.3h-1.4V9.4H91.5z"/>
<path class="st6" d="M98.4,14.4L98.4,14.4c0-3.5,2.6-6.5,6.4-6.5s6.4,3,6.4,6.5l0,0c0,3.5-2.6,6.5-6.4,6.5S98.4,17.9,98.4,14.4z
	 M109.7,14.4L109.7,14.4c0-2.9-2.1-5.2-5-5.2s-4.9,2.3-4.9,5.2l0,0c0,2.9,2.1,5.2,5,5.2S109.7,17.2,109.7,14.4z"/>
<path class="st6" d="M114.2,8.1h1.4l4.6,6.9l4.6-6.9h1.4v12.6h-1.4V10.5l-4.6,6.7h-0.1l-4.6-6.7v10.2h-1.4L114.2,8.1L114.2,8.1z"/>
<path class="st6" d="M134.5,8h1.3l5.7,12.7H140l-1.5-3.3h-6.8l-1.5,3.3h-1.5L134.5,8z M138,16l-2.9-6.4l-2.9,6.4H138z"/>
<path class="st6" d="M145.7,9.4h-4.2V8.1h9.9v1.3h-4.2v11.3h-1.4V9.4H145.7z"/>
<path class="st6" d="M154,8.1h9.1v1.3h-7.7v4.3h6.9V15h-6.9v4.4h7.8v1.3H154V8.1z"/>
<rect x="105.4" y="28.9" class="st7" width="90.3" height="82.9"/>
<rect x="7.3" y="28.9" class="st7" width="90.3" height="82.9"/>
<rect x="203.4" y="28.9" class="st7" width="90.3" height="82.9"/>
<g class="st3">
	<path class="st8" d="M32.7,73.8h-1.6l-1.9-5.5l-1.9,5.5h-1.6l-2.9-8.5h2l1.7,5.7l1.9-5.7H30l1.9,5.7l1.7-5.7h1.9L32.7,73.8z"/>
	<path class="st8" d="M39.1,73.9c-2,0-3.5-1.5-3.5-3.3v0c0-1.8,1.5-3.3,3.5-3.3c2,0,3.5,1.5,3.5,3.3v0
		C42.6,72.4,41.1,73.9,39.1,73.9z M40.8,70.5c0-0.9-0.7-1.8-1.7-1.8c-1,0-1.7,0.8-1.7,1.8v0c0,0.9,0.7,1.8,1.7,1.8
		C40.2,72.3,40.8,71.5,40.8,70.5L40.8,70.5z"/>
	<path class="st8" d="M47.7,69.1c-1.2,0-2,0.7-2,2.3v2.4h-1.8v-6.4h1.8v1.3c0.4-0.9,1-1.5,2.1-1.4L47.7,69.1L47.7,69.1z"/>
	<path class="st8" d="M53.1,73.7l-1.7-2.6l-0.6,0.7v2h-1.8V65h1.8v4.7l2.1-2.3h2.2l-2.4,2.5l2.5,3.9H53.1z"/>
	<path class="st8" d="M58.8,66.4c-0.4,0-0.7,0.2-0.7,0.7v0.3h1.5v1.5h-1.5v4.9h-1.8v-4.9h-0.8v-1.5h0.8v-0.4c0-1.4,0.7-2.1,2-2.1
		c0.6,0,1,0.1,1.3,0.2v1.5C59.4,66.5,59.1,66.4,58.8,66.4z"/>
	<path class="st8" d="M60.7,73.7V65h1.8v8.8H60.7z"/>
	<path class="st8" d="M67.4,73.9c-2,0-3.5-1.5-3.5-3.3v0c0-1.8,1.5-3.3,3.5-3.3c2,0,3.5,1.5,3.5,3.3v0
		C70.9,72.4,69.4,73.9,67.4,73.9z M69.1,70.5c0-0.9-0.7-1.8-1.7-1.8c-1,0-1.7,0.8-1.7,1.8v0c0,0.9,0.7,1.8,1.7,1.8
		C68.4,72.3,69.1,71.5,69.1,70.5L69.1,70.5z"/>
	<path class="st8" d="M79.1,73.8h-1.6l-1.2-3.9L75,73.8h-1.6l-2-6.5h1.8l1,3.9l1.2-3.9H77l1.2,3.9l1.1-3.9h1.8L79.1,73.8z"/>
</g>
<g class="st3">
	<path class="st8" d="M129.1,73.8h-1.6l-3.4-8.5h2l2.2,5.9l2.2-5.9h2L129.1,73.8z"/>
	<path class="st8" d="M133.4,66.6V65h1.9v1.6H133.4z M133.5,73.7v-6.4h1.8v6.4H133.5z"/>
	<path class="st8" d="M139.3,73.8c-0.9,0-1.9-0.3-2.8-1l0.8-1.2c0.7,0.5,1.4,0.8,2,0.8c0.5,0,0.8-0.2,0.8-0.5v0
		c0-0.4-0.6-0.5-1.3-0.7c-0.9-0.3-1.9-0.7-1.9-1.9v0c0-1.3,1.1-2,2.4-2c0.8,0,1.7,0.3,2.4,0.7l-0.7,1.3c-0.6-0.4-1.3-0.6-1.7-0.6
		c-0.4,0-0.7,0.2-0.7,0.4v0c0,0.4,0.6,0.5,1.3,0.8c0.9,0.3,1.9,0.7,1.9,1.9v0C141.7,73.2,140.7,73.8,139.3,73.8z"/>
	<path class="st8" d="M143.1,66.6V65h1.9v1.6H143.1z M143.1,73.7v-6.4h1.8v6.4H143.1z"/>
	<path class="st8" d="M150.5,73.8c-1,0-1.6-0.4-2-1v0.8h-1.8V65h1.8v3.2c0.4-0.6,1.1-1,2-1c1.5,0,2.9,1.2,2.9,3.3v0
		C153.4,72.7,152,73.8,150.5,73.8z M151.6,70.5c0-1.1-0.7-1.8-1.6-1.8s-1.6,0.7-1.6,1.8v0c0,1.1,0.7,1.8,1.6,1.8
		S151.6,71.6,151.6,70.5L151.6,70.5z"/>
	<path class="st8" d="M154.8,66.6V65h1.9v1.6H154.8z M154.8,73.7v-6.4h1.8v6.4H154.8z"/>
	<path class="st8" d="M158.5,73.7V65h1.8v8.8H158.5z"/>
	<path class="st8" d="M162,66.6V65h1.9v1.6H162z M162.1,73.7v-6.4h1.8v6.4H162.1z"/>
	<path class="st8" d="M167.8,73.8c-1.1,0-1.9-0.4-1.9-1.9v-3h-0.8v-1.6h0.8v-1.6h1.8v1.6h1.5v1.6h-1.5v2.7c0,0.4,0.2,0.6,0.6,0.6
		c0.3,0,0.6-0.1,0.9-0.2v1.5C168.9,73.7,168.4,73.8,167.8,73.8z"/>
	<path class="st8" d="M174.3,73.9c-0.5,1.3-1,1.8-2.1,1.8c-0.7,0-1.2-0.2-1.6-0.4l0.6-1.3c0.2,0.1,0.5,0.3,0.8,0.3
		c0.3,0,0.5-0.1,0.6-0.4l-2.5-6.5h1.9l1.5,4.4l1.4-4.4h1.9L174.3,73.9z"/>
</g>
<g class="st3">
	<path class="st8" d="M217.3,73.9c-2.5,0-4.3-1.9-4.3-4.3v0c0-2.4,1.8-4.3,4.4-4.3c1.6,0,2.5,0.5,3.3,1.3l-1.2,1.4
		c-0.6-0.6-1.3-0.9-2.1-0.9c-1.4,0-2.4,1.2-2.4,2.6v0c0,1.4,1,2.6,2.4,2.6c1,0,1.5-0.4,2.2-1l1.2,1.2
		C219.9,73.3,219,73.9,217.3,73.9z"/>
	<path class="st8" d="M225.1,73.9c-2,0-3.5-1.5-3.5-3.3v0c0-1.8,1.5-3.3,3.5-3.3c2,0,3.5,1.5,3.5,3.3v0
		C228.6,72.4,227.1,73.9,225.1,73.9z M226.8,70.5c0-0.9-0.7-1.8-1.7-1.8c-1,0-1.7,0.8-1.7,1.8v0c0,0.9,0.7,1.8,1.7,1.8
		C226.2,72.3,226.8,71.5,226.8,70.5L226.8,70.5z"/>
	<path class="st8" d="M237.9,73.7v-3.6c0-0.9-0.4-1.3-1.1-1.3s-1.1,0.4-1.1,1.3v3.6h-1.8v-3.6c0-0.9-0.4-1.3-1.1-1.3
		s-1.1,0.4-1.1,1.3v3.6h-1.8v-6.4h1.8v0.9c0.4-0.5,1-1,1.9-1c0.8,0,1.5,0.4,1.8,1c0.6-0.7,1.2-1,2.1-1c1.4,0,2.2,0.8,2.2,2.4v4.2
		H237.9z"/>
	<path class="st8" d="M245.1,73.8c-1,0-1.6-0.4-2-1v2.8h-1.8v-8.3h1.8v0.9c0.4-0.6,1.1-1,2-1c1.5,0,2.9,1.2,2.9,3.3v0
		C248.1,72.7,246.7,73.8,245.1,73.8z M246.2,70.5c0-1.1-0.7-1.8-1.6-1.8s-1.6,0.7-1.6,1.8v0c0,1.1,0.7,1.8,1.6,1.8
		S246.2,71.6,246.2,70.5L246.2,70.5z"/>
	<path class="st8" d="M249.5,73.7V65h1.8v8.8H249.5z"/>
	<path class="st8" d="M253.1,66.6V65h1.9v1.6H253.1z M253.1,73.7v-6.4h1.8v6.4H253.1z"/>
	<path class="st8" d="M260.4,73.7V73c-0.4,0.5-1.1,0.8-1.9,0.8c-1.2,0-2.2-0.7-2.2-2v0c0-1.4,1.1-2.1,2.6-2.1c0.6,0,1.1,0.1,1.6,0.3
		v-0.1c0-0.8-0.5-1.2-1.4-1.2c-0.7,0-1.2,0.1-1.8,0.3l-0.5-1.4c0.7-0.3,1.4-0.5,2.5-0.5c2,0,2.9,1,2.9,2.8v3.7H260.4z M260.5,71.1
		c-0.3-0.1-0.7-0.2-1.2-0.2c-0.8,0-1.3,0.3-1.3,0.9v0c0,0.5,0.4,0.8,1,0.8c0.9,0,1.4-0.5,1.4-1.1V71.1z"/>
	<path class="st8" d="M267.8,73.7v-3.6c0-0.9-0.4-1.3-1.1-1.3s-1.1,0.4-1.1,1.3v3.6h-1.8v-6.4h1.8v0.9c0.4-0.5,1-1,1.9-1
		c1.4,0,2.2,0.9,2.2,2.4v4.2H267.8z"/>
	<path class="st8" d="M274.3,73.9c-1.9,0-3.3-1.5-3.3-3.3v0c0-1.8,1.4-3.3,3.4-3.3c1.2,0,2,0.4,2.6,1.1l-1.1,1.2
		c-0.4-0.4-0.8-0.7-1.5-0.7c-0.9,0-1.6,0.8-1.6,1.8v0c0,1,0.6,1.8,1.6,1.8c0.6,0,1-0.3,1.5-0.7l1.1,1.1
		C276.3,73.4,275.6,73.9,274.3,73.9z"/>
	<path class="st8" d="M283.9,71.1h-4.5c0.2,0.8,0.8,1.3,1.6,1.3c0.6,0,1.1-0.2,1.6-0.7l1,0.9c-0.6,0.7-1.5,1.2-2.6,1.2
		c-1.9,0-3.4-1.4-3.4-3.3v0c0-1.8,1.3-3.3,3.2-3.3c2.1,0,3.1,1.7,3.1,3.5v0C283.9,70.9,283.9,71,283.9,71.1z M280.8,68.6
		c-0.8,0-1.2,0.5-1.4,1.4h2.7C282,69.2,281.6,68.6,280.8,68.6z"/>
</g>
<rect x="0.1" y="171.8" class="st4" width="106.1" height="63.7"/>
<rect x="230.2" y="171.8" class="st4" width="106.1" height="63.7"/>
<rect x="115.2" y="171.8" class="st4" width="106.1" height="63.7"/>
<g>
	<g class="st3">
		<path class="st8" d="M8.4,222.4v-4.9h1.1v4.9H8.4z"/>
		<path class="st8" d="M12.9,222.4v-2.1c0-0.5-0.2-0.8-0.6-0.8s-0.7,0.3-0.7,0.8v2.1h-1.1v-3.8h1.1v0.5c0.2-0.3,0.6-0.6,1.1-0.6
			c0.8,0,1.3,0.5,1.3,1.4v2.4H12.9z"/>
		<path class="st8" d="M16.5,218.1c-0.2,0-0.4,0.1-0.4,0.4v0.1H17v0.9h-0.8v2.8h-1.1v-2.8h-0.4v-0.9h0.4v-0.2c0-0.8,0.4-1.2,1.2-1.2
			c0.3,0,0.6,0,0.8,0.1v0.9C16.9,218.1,16.7,218.1,16.5,218.1z"/>
		<path class="st8" d="M19.8,219.7c-0.7,0-1.1,0.4-1.1,1.3v1.4h-1.1v-3.8h1.1v0.8c0.2-0.5,0.6-0.9,1.2-0.8L19.8,219.7L19.8,219.7z"
			/>
		<path class="st8" d="M22.5,222.4V222c-0.3,0.3-0.6,0.5-1.1,0.5c-0.7,0-1.3-0.4-1.3-1.1v0c0-0.8,0.6-1.2,1.5-1.2
			c0.4,0,0.7,0.1,0.9,0.2v-0.1c0-0.4-0.3-0.7-0.8-0.7c-0.4,0-0.7,0.1-1,0.2l-0.3-0.8c0.4-0.2,0.8-0.3,1.5-0.3c1.2,0,1.7,0.6,1.7,1.6
			v2.2H22.5z M22.6,220.9c-0.2-0.1-0.4-0.1-0.7-0.1c-0.5,0-0.7,0.2-0.7,0.5v0c0,0.3,0.2,0.5,0.6,0.5c0.5,0,0.8-0.3,0.8-0.7V220.9z"
			/>
		<path class="st8" d="M25.8,222.5c-0.5,0-1.1-0.2-1.6-0.6l0.5-0.7c0.4,0.3,0.8,0.4,1.2,0.4c0.3,0,0.4-0.1,0.4-0.3v0
			c0-0.2-0.4-0.3-0.8-0.4c-0.5-0.2-1.1-0.4-1.1-1.1v0c0-0.8,0.6-1.2,1.4-1.2c0.5,0,1,0.2,1.4,0.4l-0.4,0.7c-0.4-0.2-0.7-0.3-1-0.3
			c-0.3,0-0.4,0.1-0.4,0.3v0c0,0.2,0.4,0.3,0.8,0.4c0.5,0.2,1.1,0.4,1.1,1.1v0C27.2,222.1,26.6,222.5,25.8,222.5z"/>
		<path class="st8" d="M29.2,222.4c-0.7,0-1.1-0.3-1.1-1.1v-1.8h-0.4v-0.9h0.4v-1h1.1v1H30v0.9h-0.9v1.6c0,0.2,0.1,0.4,0.3,0.4
			c0.2,0,0.4,0,0.5-0.1v0.9C29.8,222.4,29.5,222.4,29.2,222.4z"/>
		<path class="st8" d="M33,219.7c-0.7,0-1.1,0.4-1.1,1.3v1.4h-1.1v-3.8h1.1v0.8c0.2-0.5,0.6-0.9,1.2-0.8L33,219.7L33,219.7z"/>
		<path class="st8" d="M36.1,222.4v-0.5c-0.2,0.3-0.6,0.6-1.1,0.6c-0.8,0-1.3-0.5-1.3-1.4v-2.4h1.1v2.1c0,0.5,0.2,0.8,0.6,0.8
			s0.7-0.3,0.7-0.8v-2.1h1.1v3.8H36.1z"/>
		<path class="st8" d="M39.9,222.5c-1.1,0-2-0.9-2-1.9v0c0-1.1,0.8-2,2-2c0.7,0,1.1,0.2,1.5,0.6l-0.7,0.7c-0.2-0.3-0.5-0.4-0.9-0.4
			c-0.5,0-0.9,0.5-0.9,1v0c0,0.6,0.4,1,1,1c0.4,0,0.6-0.2,0.9-0.4l0.6,0.6C41.1,222.2,40.6,222.5,39.9,222.5z"/>
		<path class="st8" d="M43.4,222.4c-0.7,0-1.1-0.3-1.1-1.1v-1.8h-0.4v-0.9h0.4v-1h1.1v1h0.9v0.9h-0.9v1.6c0,0.2,0.1,0.4,0.3,0.4
			c0.2,0,0.4,0,0.5-0.1v0.9C44,222.4,43.7,222.4,43.4,222.4z"/>
		<path class="st8" d="M47.4,222.4v-0.5c-0.2,0.3-0.6,0.6-1.1,0.6c-0.8,0-1.3-0.5-1.3-1.4v-2.4h1.1v2.1c0,0.5,0.2,0.8,0.6,0.8
			s0.7-0.3,0.7-0.8v-2.1h1.1v3.8H47.4z"/>
		<path class="st8" d="M51.6,219.7c-0.7,0-1.1,0.4-1.1,1.3v1.4h-1.1v-3.8h1.1v0.8c0.2-0.5,0.6-0.9,1.2-0.8L51.6,219.7L51.6,219.7z"
			/>
		<path class="st8" d="M55.7,220.9h-2.6c0.1,0.5,0.4,0.7,0.9,0.7c0.4,0,0.6-0.1,0.9-0.4l0.6,0.5c-0.4,0.4-0.9,0.7-1.5,0.7
			c-1.1,0-2-0.8-2-1.9v0c0-1.1,0.8-2,1.9-2c1.3,0,1.8,1,1.8,2v0C55.7,220.7,55.7,220.8,55.7,220.9z M53.9,219.4
			c-0.4,0-0.7,0.3-0.8,0.8h1.6C54.6,219.7,54.3,219.4,53.9,219.4z"/>
		<path class="st8" d="M62.3,222.4l-0.4-1.1h-2.1l-0.4,1.1h-1.1l2.1-4.9h1l2.1,4.9H62.3z M60.9,218.7l-0.7,1.6h1.3L60.9,218.7z"/>
		<path class="st8" d="M66.4,222.4v-0.5c-0.2,0.3-0.6,0.6-1.1,0.6c-0.8,0-1.3-0.5-1.3-1.4v-2.4h1.1v2.1c0,0.5,0.2,0.8,0.6,0.8
			s0.7-0.3,0.7-0.8v-2.1h1.1v3.8H66.4z"/>
		<path class="st8" d="M69.7,222.4c-0.7,0-1.1-0.3-1.1-1.1v-1.8h-0.4v-0.9h0.4v-1h1.1v1h0.9v0.9h-0.9v1.6c0,0.2,0.1,0.4,0.3,0.4
			c0.2,0,0.4,0,0.5-0.1v0.9C70.3,222.4,70,222.4,69.7,222.4z"/>
		<path class="st8" d="M73,222.5c-1.2,0-2-0.9-2-1.9v0c0-1.1,0.9-2,2-2c1.2,0,2,0.9,2,1.9v0C75.1,221.6,74.2,222.5,73,222.5z
			 M74,220.5c0-0.6-0.4-1-1-1c-0.6,0-1,0.5-1,1v0c0,0.6,0.4,1,1,1C73.7,221.5,74,221.1,74,220.5L74,220.5z"/>
		<path class="st8" d="M80.5,222.4v-2.1c0-0.5-0.2-0.8-0.6-0.8c-0.4,0-0.6,0.3-0.6,0.8v2.1h-1.1v-2.1c0-0.5-0.2-0.8-0.6-0.8
			c-0.4,0-0.6,0.3-0.6,0.8v2.1h-1.1v-3.8h1.1v0.5c0.2-0.3,0.6-0.6,1.1-0.6c0.5,0,0.9,0.2,1.1,0.6c0.3-0.4,0.7-0.6,1.2-0.6
			c0.8,0,1.3,0.5,1.3,1.4v2.4H80.5z"/>
		<path class="st8" d="M84.7,222.4V222c-0.3,0.3-0.6,0.5-1.1,0.5c-0.7,0-1.3-0.4-1.3-1.1v0c0-0.8,0.6-1.2,1.5-1.2
			c0.4,0,0.7,0.1,0.9,0.2v-0.1c0-0.4-0.3-0.7-0.8-0.7c-0.4,0-0.7,0.1-1,0.2l-0.3-0.8c0.4-0.2,0.8-0.3,1.5-0.3c1.2,0,1.7,0.6,1.7,1.6
			v2.2H84.7z M84.7,220.9c-0.2-0.1-0.4-0.1-0.7-0.1c-0.5,0-0.7,0.2-0.7,0.5v0c0,0.3,0.2,0.5,0.6,0.5c0.5,0,0.8-0.3,0.8-0.7V220.9z"
			/>
		<path class="st8" d="M87.9,222.4c-0.7,0-1.1-0.3-1.1-1.1v-1.8h-0.4v-0.9h0.4v-1h1.1v1h0.9v0.9h-0.9v1.6c0,0.2,0.1,0.4,0.3,0.4
			c0.2,0,0.4,0,0.5-0.1v0.9C88.5,222.4,88.2,222.4,87.9,222.4z"/>
		<path class="st8" d="M89.5,218.2v-0.9h1.1v0.9H89.5z M89.6,222.4v-3.8h1.1v3.8H89.6z"/>
		<path class="st8" d="M93.5,222.5c-1.2,0-2-0.9-2-1.9v0c0-1.1,0.9-2,2-2c1.2,0,2,0.9,2,1.9v0C95.5,221.6,94.6,222.5,93.5,222.5z
			 M94.5,220.5c0-0.6-0.4-1-1-1c-0.6,0-1,0.5-1,1v0c0,0.6,0.4,1,1,1C94.1,221.5,94.5,221.1,94.5,220.5L94.5,220.5z"/>
		<path class="st8" d="M98.7,222.4v-2.1c0-0.5-0.2-0.8-0.6-0.8s-0.7,0.3-0.7,0.8v2.1h-1.1v-3.8h1.1v0.5c0.2-0.3,0.6-0.6,1.1-0.6
			c0.8,0,1.3,0.5,1.3,1.4v2.4H98.7z"/>
	</g>
</g>
<g>
	<g class="st3">
		<path class="st8" d="M243.9,222.5c-1.4,0-2.5-1.1-2.5-2.5v0c0-1.4,1.1-2.5,2.6-2.5c0.9,0,1.5,0.3,1.9,0.8l-0.7,0.8
			c-0.4-0.3-0.8-0.6-1.3-0.6c-0.8,0-1.4,0.7-1.4,1.5v0c0,0.8,0.6,1.5,1.4,1.5c0.6,0,0.9-0.2,1.3-0.6l0.7,0.7
			C245.4,222.1,244.8,222.5,243.9,222.5z"/>
		<path class="st8" d="M248.4,222.5c-1.2,0-2-0.9-2-1.9v0c0-1.1,0.9-2,2-2c1.2,0,2,0.9,2,1.9v0C250.5,221.6,249.6,222.5,248.4,222.5
			z M249.4,220.5c0-0.6-0.4-1-1-1c-0.6,0-1,0.5-1,1v0c0,0.6,0.4,1,1,1C249.1,221.5,249.4,221.1,249.4,220.5L249.4,220.5z"/>
		<path class="st8" d="M255.9,222.4v-2.1c0-0.5-0.2-0.8-0.6-0.8c-0.4,0-0.6,0.3-0.6,0.8v2.1h-1.1v-2.1c0-0.5-0.2-0.8-0.6-0.8
			c-0.4,0-0.6,0.3-0.6,0.8v2.1h-1.1v-3.8h1.1v0.5c0.2-0.3,0.6-0.6,1.1-0.6c0.5,0,0.9,0.2,1.1,0.6c0.3-0.4,0.7-0.6,1.2-0.6
			c0.8,0,1.3,0.5,1.3,1.4v2.4H255.9z"/>
		<path class="st8" d="M260.1,222.5c-0.6,0-0.9-0.3-1.2-0.6v1.6h-1.1v-4.9h1.1v0.5c0.3-0.3,0.6-0.6,1.2-0.6c0.9,0,1.7,0.7,1.7,1.9v0
			C261.8,221.8,261,222.5,260.1,222.5z M260.8,220.5c0-0.6-0.4-1-0.9-1c-0.5,0-0.9,0.4-0.9,1v0c0,0.6,0.4,1,0.9,1
			C260.3,221.5,260.8,221.1,260.8,220.5L260.8,220.5z"/>
		<path class="st8" d="M262.7,222.4v-5.1h1.1v5.1H262.7z"/>
		<path class="st8" d="M264.7,218.2v-0.9h1.1v0.9H264.7z M264.8,222.4v-3.8h1.1v3.8H264.8z"/>
		<path class="st8" d="M269,222.4V222c-0.3,0.3-0.6,0.5-1.1,0.5c-0.7,0-1.3-0.4-1.3-1.1v0c0-0.8,0.6-1.2,1.5-1.2
			c0.4,0,0.7,0.1,0.9,0.2v-0.1c0-0.4-0.3-0.7-0.8-0.7c-0.4,0-0.7,0.1-1,0.2l-0.3-0.8c0.4-0.2,0.8-0.3,1.5-0.3c1.2,0,1.7,0.6,1.7,1.6
			v2.2H269z M269.1,220.9c-0.2-0.1-0.4-0.1-0.7-0.1c-0.5,0-0.7,0.2-0.7,0.5v0c0,0.3,0.2,0.5,0.6,0.5c0.5,0,0.8-0.3,0.8-0.7V220.9z"
			/>
		<path class="st8" d="M273.4,222.4v-2.1c0-0.5-0.2-0.8-0.6-0.8s-0.7,0.3-0.7,0.8v2.1H271v-3.8h1.1v0.5c0.2-0.3,0.6-0.6,1.1-0.6
			c0.8,0,1.3,0.5,1.3,1.4v2.4H273.4z"/>
		<path class="st8" d="M277.1,222.5c-1.1,0-2-0.9-2-1.9v0c0-1.1,0.8-2,2-2c0.7,0,1.1,0.2,1.5,0.6l-0.7,0.7c-0.2-0.3-0.5-0.4-0.9-0.4
			c-0.5,0-0.9,0.5-0.9,1v0c0,0.6,0.4,1,1,1c0.4,0,0.6-0.2,0.9-0.4l0.6,0.6C278.3,222.2,277.9,222.5,277.1,222.5z"/>
		<path class="st8" d="M282.7,220.9h-2.6c0.1,0.5,0.4,0.7,0.9,0.7c0.4,0,0.6-0.1,0.9-0.4l0.6,0.5c-0.4,0.4-0.9,0.7-1.5,0.7
			c-1.1,0-2-0.8-2-1.9v0c0-1.1,0.8-2,1.9-2c1.3,0,1.8,1,1.8,2v0C282.7,220.7,282.7,220.8,282.7,220.9z M280.9,219.4
			c-0.4,0-0.7,0.3-0.8,0.8h1.6C281.6,219.7,281.4,219.4,280.9,219.4z"/>
		<path class="st8" d="M289.4,222.4l-0.4-1.1h-2.1l-0.4,1.1h-1.1l2.1-4.9h1l2.1,4.9H289.4z M287.9,218.7l-0.7,1.6h1.3L287.9,218.7z"
			/>
		<path class="st8" d="M293.4,222.4v-0.5c-0.2,0.3-0.6,0.6-1.1,0.6c-0.8,0-1.3-0.5-1.3-1.4v-2.4h1.1v2.1c0,0.5,0.2,0.8,0.6,0.8
			s0.7-0.3,0.7-0.8v-2.1h1.1v3.8H293.4z"/>
		<path class="st8" d="M296.7,222.4c-0.7,0-1.1-0.3-1.1-1.1v-1.8h-0.4v-0.9h0.4v-1h1.1v1h0.9v0.9h-0.9v1.6c0,0.2,0.1,0.4,0.3,0.4
			c0.2,0,0.4,0,0.5-0.1v0.9C297.3,222.4,297.1,222.4,296.7,222.4z"/>
		<path class="st8" d="M300.1,222.5c-1.2,0-2-0.9-2-1.9v0c0-1.1,0.9-2,2-2c1.2,0,2,0.9,2,1.9v0C302.1,221.6,301.3,222.5,300.1,222.5
			z M301.1,220.5c0-0.6-0.4-1-1-1c-0.6,0-1,0.5-1,1v0c0,0.6,0.4,1,1,1C300.7,221.5,301.1,221.1,301.1,220.5L301.1,220.5z"/>
		<path class="st8" d="M307.6,222.4v-2.1c0-0.5-0.2-0.8-0.6-0.8c-0.4,0-0.6,0.3-0.6,0.8v2.1h-1.1v-2.1c0-0.5-0.2-0.8-0.6-0.8
			c-0.4,0-0.6,0.3-0.6,0.8v2.1h-1.1v-3.8h1.1v0.5c0.2-0.3,0.6-0.6,1.1-0.6c0.5,0,0.9,0.2,1.1,0.6c0.3-0.4,0.7-0.6,1.2-0.6
			c0.8,0,1.3,0.5,1.3,1.4v2.4H307.6z"/>
		<path class="st8" d="M311.7,222.4V222c-0.3,0.3-0.6,0.5-1.1,0.5c-0.7,0-1.3-0.4-1.3-1.1v0c0-0.8,0.6-1.2,1.5-1.2
			c0.4,0,0.7,0.1,0.9,0.2v-0.1c0-0.4-0.3-0.7-0.8-0.7c-0.4,0-0.7,0.1-1,0.2l-0.3-0.8c0.4-0.2,0.8-0.3,1.5-0.3c1.2,0,1.7,0.6,1.7,1.6
			v2.2H311.7z M311.8,220.9c-0.2-0.1-0.4-0.1-0.7-0.1c-0.5,0-0.7,0.2-0.7,0.5v0c0,0.3,0.2,0.5,0.6,0.5c0.5,0,0.8-0.3,0.8-0.7V220.9z
			"/>
		<path class="st8" d="M314.9,222.4c-0.7,0-1.1-0.3-1.1-1.1v-1.8h-0.4v-0.9h0.4v-1h1.1v1h0.9v0.9h-0.9v1.6c0,0.2,0.1,0.4,0.3,0.4
			c0.2,0,0.4,0,0.5-0.1v0.9C315.5,222.4,315.3,222.4,314.9,222.4z"/>
		<path class="st8" d="M316.6,218.2v-0.9h1.1v0.9H316.6z M316.6,222.4v-3.8h1.1v3.8H316.6z"/>
		<path class="st8" d="M320.5,222.5c-1.2,0-2-0.9-2-1.9v0c0-1.1,0.9-2,2-2c1.2,0,2,0.9,2,1.9v0C322.6,221.6,321.7,222.5,320.5,222.5
			z M321.5,220.5c0-0.6-0.4-1-1-1c-0.6,0-1,0.5-1,1v0c0,0.6,0.4,1,1,1C321.1,221.5,321.5,221.1,321.5,220.5L321.5,220.5z"/>
		<path class="st8" d="M325.7,222.4v-2.1c0-0.5-0.2-0.8-0.6-0.8s-0.7,0.3-0.7,0.8v2.1h-1.1v-3.8h1.1v0.5c0.2-0.3,0.6-0.6,1.1-0.6
			c0.8,0,1.3,0.5,1.3,1.4v2.4H325.7z"/>
	</g>
</g>
<g>
	<g class="st3">
		<path class="st8" d="M130.8,222.4l-0.4-1.1h-2.1l-0.4,1.1h-1.1l2.1-4.9h1l2.1,4.9H130.8z M129.3,218.7l-0.7,1.6h1.3L129.3,218.7z"
			/>
		<path class="st8" d="M134.8,222.5c-0.6,0-0.9-0.3-1.2-0.6v1.6h-1.1v-4.9h1.1v0.5c0.3-0.3,0.6-0.6,1.2-0.6c0.9,0,1.7,0.7,1.7,1.9v0
			C136.5,221.8,135.7,222.5,134.8,222.5z M135.4,220.5c0-0.6-0.4-1-0.9-1c-0.5,0-0.9,0.4-0.9,1v0c0,0.6,0.4,1,0.9,1
			C135,221.5,135.4,221.1,135.4,220.5L135.4,220.5z"/>
		<path class="st8" d="M139.5,222.5c-0.6,0-0.9-0.3-1.2-0.6v1.6h-1.1v-4.9h1.1v0.5c0.3-0.3,0.6-0.6,1.2-0.6c0.9,0,1.7,0.7,1.7,1.9v0
			C141.2,221.8,140.4,222.5,139.5,222.5z M140.1,220.5c0-0.6-0.4-1-0.9-1c-0.5,0-0.9,0.4-0.9,1v0c0,0.6,0.4,1,0.9,1
			C139.7,221.5,140.1,221.1,140.1,220.5L140.1,220.5z"/>
		<path class="st8" d="M142,222.4v-5.1h1.1v5.1H142z"/>
		<path class="st8" d="M144.1,218.2v-0.9h1.1v0.9H144.1z M144.2,222.4v-3.8h1.1v3.8H144.2z"/>
		<path class="st8" d="M148,222.5c-1.1,0-2-0.9-2-1.9v0c0-1.1,0.8-2,2-2c0.7,0,1.1,0.2,1.5,0.6l-0.7,0.7c-0.2-0.3-0.5-0.4-0.9-0.4
			c-0.5,0-0.9,0.5-0.9,1v0c0,0.6,0.4,1,1,1c0.4,0,0.6-0.2,0.9-0.4l0.6,0.6C149.2,222.2,148.7,222.5,148,222.5z"/>
		<path class="st8" d="M152.4,222.4V222c-0.3,0.3-0.6,0.5-1.1,0.5c-0.7,0-1.3-0.4-1.3-1.1v0c0-0.8,0.6-1.2,1.5-1.2
			c0.4,0,0.7,0.1,0.9,0.2v-0.1c0-0.4-0.3-0.7-0.8-0.7c-0.4,0-0.7,0.1-1,0.2l-0.3-0.8c0.4-0.2,0.8-0.3,1.5-0.3c1.2,0,1.7,0.6,1.7,1.6
			v2.2H152.4z M152.4,220.9c-0.2-0.1-0.4-0.1-0.7-0.1c-0.5,0-0.7,0.2-0.7,0.5v0c0,0.3,0.2,0.5,0.6,0.5c0.5,0,0.8-0.3,0.8-0.7V220.9z
			"/>
		<path class="st8" d="M155.6,222.4c-0.7,0-1.1-0.3-1.1-1.1v-1.8H154v-0.9h0.4v-1h1.1v1h0.9v0.9h-0.9v1.6c0,0.2,0.1,0.4,0.3,0.4
			c0.2,0,0.4,0,0.5-0.1v0.9C156.2,222.4,155.9,222.4,155.6,222.4z"/>
		<path class="st8" d="M157.2,218.2v-0.9h1.1v0.9H157.2z M157.3,222.4v-3.8h1.1v3.8H157.3z"/>
		<path class="st8" d="M161.2,222.5c-1.2,0-2-0.9-2-1.9v0c0-1.1,0.9-2,2-2c1.2,0,2,0.9,2,1.9v0C163.2,221.6,162.4,222.5,161.2,222.5
			z M162.2,220.5c0-0.6-0.4-1-1-1c-0.6,0-1,0.5-1,1v0c0,0.6,0.4,1,1,1C161.8,221.5,162.2,221.1,162.2,220.5L162.2,220.5z"/>
		<path class="st8" d="M166.4,222.4v-2.1c0-0.5-0.2-0.8-0.6-0.8s-0.7,0.3-0.7,0.8v2.1H164v-3.8h1.1v0.5c0.2-0.3,0.6-0.6,1.1-0.6
			c0.8,0,1.3,0.5,1.3,1.4v2.4H166.4z"/>
		<path class="st8" d="M174.2,222.4l-0.4-1.1h-2.1l-0.4,1.1h-1.1l2.1-4.9h1l2.1,4.9H174.2z M172.7,218.7l-0.7,1.6h1.3L172.7,218.7z"
			/>
		<path class="st8" d="M178.3,222.4v-0.5c-0.2,0.3-0.6,0.6-1.1,0.6c-0.8,0-1.3-0.5-1.3-1.4v-2.4h1.1v2.1c0,0.5,0.2,0.8,0.6,0.8
			s0.7-0.3,0.7-0.8v-2.1h1.1v3.8H178.3z"/>
		<path class="st8" d="M181.5,222.4c-0.7,0-1.1-0.3-1.1-1.1v-1.8H180v-0.9h0.4v-1h1.1v1h0.9v0.9h-0.9v1.6c0,0.2,0.1,0.4,0.3,0.4
			c0.2,0,0.4,0,0.5-0.1v0.9C182.2,222.4,181.9,222.4,181.5,222.4z"/>
		<path class="st8" d="M184.9,222.5c-1.2,0-2-0.9-2-1.9v0c0-1.1,0.9-2,2-2c1.2,0,2,0.9,2,1.9v0C187,221.6,186.1,222.5,184.9,222.5z
			 M185.9,220.5c0-0.6-0.4-1-1-1c-0.6,0-1,0.5-1,1v0c0,0.6,0.4,1,1,1C185.5,221.5,185.9,221.1,185.9,220.5L185.9,220.5z"/>
		<path class="st8" d="M192.4,222.4v-2.1c0-0.5-0.2-0.8-0.6-0.8c-0.4,0-0.6,0.3-0.6,0.8v2.1h-1.1v-2.1c0-0.5-0.2-0.8-0.6-0.8
			c-0.4,0-0.6,0.3-0.6,0.8v2.1h-1.1v-3.8h1.1v0.5c0.2-0.3,0.6-0.6,1.1-0.6c0.5,0,0.9,0.2,1.1,0.6c0.3-0.4,0.7-0.6,1.2-0.6
			c0.8,0,1.3,0.5,1.3,1.4v2.4H192.4z"/>
		<path class="st8" d="M196.6,222.4V222c-0.3,0.3-0.6,0.5-1.1,0.5c-0.7,0-1.3-0.4-1.3-1.1v0c0-0.8,0.6-1.2,1.5-1.2
			c0.4,0,0.7,0.1,0.9,0.2v-0.1c0-0.4-0.3-0.7-0.8-0.7c-0.4,0-0.7,0.1-1,0.2l-0.3-0.8c0.4-0.2,0.8-0.3,1.5-0.3c1.2,0,1.7,0.6,1.7,1.6
			v2.2H196.6z M196.6,220.9c-0.2-0.1-0.4-0.1-0.7-0.1c-0.5,0-0.7,0.2-0.7,0.5v0c0,0.3,0.2,0.5,0.6,0.5c0.5,0,0.8-0.3,0.8-0.7V220.9z
			"/>
		<path class="st8" d="M199.7,222.4c-0.7,0-1.1-0.3-1.1-1.1v-1.8h-0.4v-0.9h0.4v-1h1.1v1h0.9v0.9h-0.9v1.6c0,0.2,0.1,0.4,0.3,0.4
			c0.2,0,0.4,0,0.5-0.1v0.9C200.4,222.4,200.1,222.4,199.7,222.4z"/>
		<path class="st8" d="M201.4,218.2v-0.9h1.1v0.9H201.4z M201.4,222.4v-3.8h1.1v3.8H201.4z"/>
		<path class="st8" d="M205.3,222.5c-1.2,0-2-0.9-2-1.9v0c0-1.1,0.9-2,2-2c1.2,0,2,0.9,2,1.9v0C207.4,221.6,206.5,222.5,205.3,222.5
			z M206.3,220.5c0-0.6-0.4-1-1-1c-0.6,0-1,0.5-1,1v0c0,0.6,0.4,1,1,1C206,221.5,206.3,221.1,206.3,220.5L206.3,220.5z"/>
		<path class="st8" d="M210.5,222.4v-2.1c0-0.5-0.2-0.8-0.6-0.8s-0.7,0.3-0.7,0.8v2.1h-1.1v-3.8h1.1v0.5c0.2-0.3,0.6-0.6,1.1-0.6
			c0.8,0,1.3,0.5,1.3,1.4v2.4H210.5z"/>
	</g>
</g>
<path class="st8" d="M64.3,203L64.3,203l-0.1-0.5H64v-0.1h0.5v0.1h-0.2V203L64.3,203z M64.9,202.9L64.9,202.9l-0.2-0.3v0.5h-0.1
	v-0.6h0.1l0.2,0.3l0.2-0.3h0.1v0.6h-0.1v-0.5L64.9,202.9L64.9,202.9z"/>
<path class="st8" d="M41.1,205L41.1,205c0-1.6,1.2-2.8,2.8-2.8c1,0,1.6,0.3,2.1,0.8l-0.8,0.9c-0.4-0.4-0.8-0.6-1.4-0.6
	c-0.9,0-1.6,0.8-1.6,1.7l0,0c0,0.9,0.6,1.7,1.6,1.7c0.6,0,1-0.2,1.4-0.6l0.8,0.8c-0.6,0.6-1.2,1-2.2,1
	C42.3,207.8,41.1,206.6,41.1,205"/>
<polygon class="st8" points="47.5,202.3 48.7,202.3 48.7,204.5 50.9,204.5 50.9,202.3 52.1,202.3 52.1,207.7 50.9,207.7 50.9,205.6 
	48.7,205.6 48.7,207.7 47.5,207.7 "/>
<polygon class="st8" points="53.5,202.3 57.6,202.3 57.6,203.4 54.7,203.4 54.7,204.5 57.3,204.5 57.3,205.5 54.7,205.5 54.7,206.7 
	57.6,206.7 57.6,207.7 53.5,207.7 "/>
<polygon class="st8" points="59.2,202.3 63.3,202.3 63.3,203.4 60.4,203.4 60.4,204.6 63,204.6 63,205.6 60.4,205.6 60.4,207.7 
	59.2,207.7 "/>
<path class="st8" d="M52.3,195c-1.9,0-3.4-1.5-3.4-3.4s1.5-3.4,3.4-3.4c1.5,0,2.9,1,3.3,2.5h1.3c-0.4-2.1-2.3-3.7-4.6-3.7
	c-2.6,0-4.7,2.1-4.7,4.7c0,2.6,2.1,4.7,4.7,4.7c2.3,0,4.1-1.6,4.6-3.7h-1.3C55.2,194,53.9,195,52.3,195"/>
<path class="st8" d="M50.1,193.9c0.6,0.6,1.4,1,2.3,1v-1.4c-0.5,0-1-0.2-1.3-0.6L50.1,193.9L50.1,193.9z"/>
<path class="st8" d="M49.1,191.6c0,0.5,0.1,0.9,0.3,1.3l1.2-0.5c-0.1-0.2-0.2-0.5-0.2-0.8c0-1,0.8-1.9,1.9-1.9v-1.4
	C50.6,188.4,49.1,189.8,49.1,191.6"/>
<path class="st8" d="M53.5,188.6l-0.5,1.3c0.4,0.2,0.7,0.4,1,0.8h1.5C55.2,189.7,54.4,188.9,53.5,188.6"/>
<path class="st8" d="M53,193.4l0.5,1.3c0.9-0.4,1.6-1.1,1.9-2.1H54C53.8,192.9,53.4,193.2,53,193.4"/>
<path class="st8" d="M52.3,197.9c-1.7,0-3.3-0.7-4.4-1.8L47,197c1.4,1.4,3.3,2.2,5.3,2.2c3.9,0,7-2.9,7.5-6.6h-1.3
	C58.1,195.6,55.5,197.9,52.3,197.9"/>
<path class="st8" d="M52.3,185.3c1.4,0,2.7,0.5,3.8,1.2l0.8-1c-1.3-0.9-2.8-1.5-4.5-1.5c-3.2,0-5.9,2-7,4.8l1.2,0.5
	C47.4,187,49.7,185.3,52.3,185.3"/>
<path class="st8" d="M58.6,190.7h1.3c-0.1-1.1-0.5-2.1-1.1-3.1l-1.1,0.7C58.1,189,58.4,189.8,58.6,190.7"/>
<path class="st8" d="M57.1,190.7h1.3c-0.3-2.2-1.8-4-3.8-4.8l-0.5,1.2C55.6,187.7,56.8,189,57.1,190.7"/>
<path class="st8" d="M52.3,186.8L52.3,186.8v-1.3l0,0c-2.6,0-4.8,1.6-5.7,3.9l1.2,0.5C48.5,188,50.3,186.8,52.3,186.8"/>
<path class="st8" d="M47.5,191.6L47.5,191.6h-1.3l0,0c0,2.6,1.6,4.8,3.8,5.7l0.5-1.2C48.8,195.4,47.5,193.6,47.5,191.6"/>
<path class="st8" d="M52.3,196.4v1.3c3.1,0,5.6-2.2,6-5.2H57C56.7,194.8,54.7,196.4,52.3,196.4"/>
<path class="st8" d="M45.4,194.6c-0.4-1-0.6-2-0.6-3h1.3c0,0.9,0.2,1.7,0.5,2.5L45.4,194.6L45.4,194.6z"/>
<path class="st8" d="M264.1,196c0,1.3-1.1,2.4-2.4,2.4s-2.4-1.1-2.4-2.4s1.1-2.4,2.4-2.4S264.2,194.6,264.1,196L264.1,196z"/>
<path class="st8" d="M268.8,196c0,3.9-3.2,7-7.1,7c-1.6,0-3.1-0.6-4.3-1.5l2-2c0.6,0.4,1.4,0.7,2.2,0.7c2.3,0,4.2-1.9,4.2-4.2
	s-1.9-4.2-4.2-4.2c-2.3,0-4.2,1.9-4.2,4.2c0,0.8,0.2,1.6,0.6,2.3l-2,2c-0.9-1.2-1.4-2.7-1.4-4.3c0-3.9,3.2-7,7.1-7
	C265.7,188.9,268.8,192.1,268.8,196L268.8,196z"/>
<polygon class="st8" points="271.4,199.8 271.4,191.8 273,191.8 273,199.8 "/>
<polygon class="st8" points="281.3,199.8 276.8,195.1 276.8,199.8 275.2,199.8 275.2,191.8 275.7,191.8 280.1,196.3 280.1,191.8 
	281.7,191.8 281.7,199.8 "/>
<path class="st8" d="M286.2,196.4c-0.3-0.1-0.8-0.2-1.2-0.5c-0.6-0.4-1-1-1-1.8c0-0.6,0.2-1.2,0.6-1.6c0.6-0.6,1.5-0.8,1.9-0.8
	c1.2,0,1.8,0.4,2.4,0.8l0.3,0.2l-0.8,1.4l-0.3-0.2c-0.5-0.3-0.8-0.6-1.5-0.6c-0.1,0-0.5,0.1-0.7,0.3c-0.1,0.1-0.1,0.2-0.1,0.5
	c0,0.4,0.3,0.6,1,0.8c0.1,0,0.2,0,0.2,0.1c0.8,0.3,1.4,0.6,1.8,1.1s0.6,1,0.6,1.6s-0.2,1.1-0.6,1.6c-0.5,0.5-1.1,0.8-1.8,0.8
	c-0.4,0-0.8,0-1.4-0.2c-0.7-0.2-1.4-0.6-1.9-1.2l1.2-1.1c0.8,0.9,1.8,0.9,2.2,0.9c0.7,0,0.9-0.6,0.9-0.8
	C287.6,197.1,287.1,196.7,286.2,196.4L286.2,196.4L286.2,196.4L286.2,196.4z"/>
<path class="st8" d="M293.8,195c0.4,0,0.8-0.4,0.8-0.8c0-0.4-0.4-0.8-0.8-0.8h-1v1.6H293.8L293.8,195z M293.8,191.8
	c1.3,0,2.4,1.1,2.4,2.4c0,1.3-1.1,2.4-2.4,2.4h-1v3.2h-1.6v-8L293.8,191.8L293.8,191.8z"/>
<path class="st8" d="M297.9,198.2h5.3v1.6h-5.3V198.2L297.9,198.2z M297.9,194.9h4.4v1.6h-4.4V194.9L297.9,194.9z M303.3,193.4h-5.4
	v-1.6h5.4V193.4L303.3,193.4z"/>
<path class="st8" d="M310.8,193.7c-1.6-1-3.9-0.1-3.9,2.1c0,2.3,2.5,3.2,4,2l1,1.2c-0.7,0.6-1.7,1-2.7,1c-2.3,0-4.2-1.9-4.2-4.2
	s1.9-4.2,4.2-4.2c1,0,1.9,0.3,2.6,0.9L310.8,193.7L310.8,193.7z"/>
<path class="st8" d="M161.4,203.2c-0.4,0.4-0.9,0.6-1.5,0.6l0,0c-1.2,0-2.1-0.8-2.1-2s0.8-2,2-2.1c1.2,0,2,0.8,2,1.9
	C161.9,202.3,161.7,202.9,161.4,203.2L161.4,203.2z M162,199.4c-0.6-0.5-1.4-0.8-2.2-0.7c-0.6,0.1-1.2,0.3-1.6,0.7
	c-0.1,0.1-0.3,0-0.3-0.1v-2.7c0-0.1-0.1-0.2-0.2-0.2H157c-0.1,0-0.2,0.1-0.2,0.2l0,0v0.1c0,0.1,0,0.1,0,0.2v0.6c0,1.4,0,2.8,0,4.2
	c0,0.2,0,0.5,0.1,0.8c0.3,1.5,1.5,2.4,3.1,2.4h0.1c1.3,0,2.4-0.8,2.8-1.9C163.3,201.6,162.9,200.2,162,199.4L162,199.4z"/>
<path class="st8" d="M146.9,198.7c-0.9-0.1-1.6,0-2.2,0.5c-0.1,0.1-0.3,0-0.3-0.1v-2.5c0-0.1-0.1-0.2-0.2-0.2h-0.7
	c-0.1,0-0.2,0.1-0.2,0.2v7.9c0,0.1,0.1,0.2,0.2,0.2h0.7c0.1,0,0.2-0.1,0.2-0.2c0-0.3,0-0.9,0-1.1c0-0.6,0-1.2,0-1.8s0.2-1.1,0.5-1.4
	c0.3-0.3,0.9-0.5,1.5-0.4c0.9,0.1,1.5,0.6,1.6,1.5c0,0.7,0,1.3,0,2c0,0.3,0,0.6,0,0.9c0,0.1,0,0.2,0,0.3v0.1c0,0.1,0.1,0.2,0.2,0.2
	h0.7c0.1,0,0.2-0.1,0.2-0.2l0,0c0-0.3,0-0.6,0-1c0-0.7,0-1.4,0-2.2C149.1,199.9,148.3,199,146.9,198.7L146.9,198.7z"/>
<path class="st8" d="M164.7,198.8H164c-0.1,0-0.2,0.1-0.2,0.2v5.5c0,0.1,0.1,0.2,0.2,0.2h0.7c0.1,0,0.2-0.1,0.2-0.2V199
	C164.8,198.9,164.8,198.8,164.7,198.8L164.7,198.8z"/>
<path class="st8" d="M154.3,203.2c-0.4,0.4-0.9,0.6-1.5,0.6l0,0c-1.2,0-2-0.8-2-2s0.8-2.1,2-2.1l0,0c1.2,0,2,0.8,2,2
	C154.9,202.3,154.7,202.8,154.3,203.2L154.3,203.2z M155.3,199.8c-0.9-1.1-2.6-1.4-4-0.8c-1.3,0.6-1.9,2.1-1.5,3.5
	c0.3,1.1,1,1.9,2.1,2.2c0.3,0.1,0.6,0.1,0.9,0.1c0.8,0,1.4-0.3,2-0.9c0.1-0.1,0.1-0.1,0.2-0.2v0.7c0,0.1,0.1,0.2,0.2,0.2h0.6
	c0.1,0,0.2-0.1,0.2-0.2l0,0c0-0.3,0-0.6,0-1c0-0.8,0-1.5,0-2.3C155.9,200.8,155.7,200.3,155.3,199.8L155.3,199.8z"/>
<g>
	<g>
		<defs>
			<rect id="SVGID_1_" x="143.4" y="187" width="49.9" height="17.8"/>
		</defs>
		<clipPath id="SVGID_2_">
			<use xlink:href="#SVGID_1_"  style="overflow:visible;"/>
		</clipPath>
		<path class="st9" d="M182.5,202.2h-0.8c-0.1,0-0.2,0.1-0.2,0.2v0.1c0,0.1,0,0.1,0,0.2c0,0.7-0.4,1-1.1,1.1c-0.5,0-1.3-0.1-1.3-0.9
			c-0.1-0.7-0.1-1.5-0.1-2.2c0-0.2,0-0.4,0-0.7c0-0.1,0.1-0.2,0.2-0.2h2c0.2,0,0.2-0.2,0.1-0.3l-0.9-0.7h-0.1h-1.2
			c-0.1,0-0.2-0.1-0.2-0.2v-1.1c0-0.1-0.1-0.2-0.2-0.2H178c-0.1,0-0.2,0.1-0.2,0.2v0.3c0,0,0,3.1,0,5c0,0.8,0.7,1.6,1.6,1.8
			c0.2,0.1,0.5,0.1,0.8,0.1h0.1c0.6,0,1.2-0.3,1.6-0.7c0.4-0.5,0.6-1.1,0.5-1.7L182.5,202.2L182.5,202.2z"/>
	</g>
	<g>
		<defs>
			<rect id="SVGID_3_" x="143.4" y="187" width="49.9" height="17.8"/>
		</defs>
		<clipPath id="SVGID_4_">
			<use xlink:href="#SVGID_3_"  style="overflow:visible;"/>
		</clipPath>
		<path class="st10" d="M190.5,193.8l-0.9,0.9c-0.1,0.1-0.2,0-0.2-0.1v-0.3c0-0.1-0.1-0.1-0.1-0.1h-0.5c-0.1,0-0.1,0.1-0.1,0.1v0.7
			c0,0.1,0.1,0.1,0.1,0.1h0.2c0.1,0,0.2,0.2,0.1,0.2l-0.9,0.9c-0.1,0.1-0.1,0.1-0.2,0l-0.9-0.9c-0.1-0.1,0-0.2,0.1-0.2h0.2
			c0.1,0,0.1-0.1,0.1-0.1v-0.7c0-0.1-0.1-0.1-0.1-0.1H186c-0.1,0-0.1,0.1-0.1,0.1v0.7c0,0.1,0.1,0.1,0.1,0.1h0.2
			c0.1,0,0.2,0.2,0.1,0.2l-0.9,0.9c-0.1,0.1-0.1,0.1-0.2,0l-0.9-0.9c-0.1-0.1,0-0.2,0.1-0.2h0.2c0.1,0,0.1-0.1,0.1-0.1v-0.7
			c0-0.1-0.1-0.1-0.1-0.1H184c-0.1,0-0.1,0.1-0.1,0.1v0.3c0,0.1-0.2,0.2-0.2,0.1l-0.9-0.9c-0.1-0.1-0.1-0.1,0-0.2l0.9-0.9
			c0.1-0.1,0.2,0,0.2,0.1v0.3c0,0.1,0.1,0.1,0.1,0.1h0.5c0.1,0,0.1-0.1,0.1-0.1v-0.7c0-0.1-0.1-0.1-0.1-0.1h-0.2
			c-0.1,0-0.2-0.2-0.1-0.2l0.9-0.9c0.1-0.1,0.1-0.1,0.2,0l0.9,0.9c0.1,0.1,0,0.2-0.1,0.2H186c-0.1,0-0.1,0.1-0.1,0.1v0.7
			c0,0.1,0.1,0.1,0.1,0.1h1.1c0.1,0,0.1-0.1,0.1-0.1v-0.7c0-0.1-0.1-0.1-0.1-0.1h-0.2c-0.1,0-0.2-0.2-0.1-0.2l0.9-0.9
			c0.1-0.1,0.1-0.1,0.2,0l0.9,0.9c0.1,0.1,0,0.2-0.1,0.2h-0.2c-0.1,0-0.1,0.1-0.1,0.1v0.7c0,0.1,0.1,0.1,0.1,0.1h0.5
			c0.1,0,0.1-0.1,0.1-0.1v-0.3c0-0.1,0.2-0.2,0.2-0.1l0.9,0.9C190.5,193.7,190.5,193.7,190.5,193.8L190.5,193.8z M192.8,192.6
			l-5.1-5.1c-0.6-0.6-1.6-0.6-2.2,0l-5.1,5.1c-0.6,0.6-0.6,1.6,0,2.2l5.1,5.1c0.6,0.6,1.6,0.6,2.2,0l5.1-5.1
			C193.4,194.2,193.4,193.2,192.8,192.6L192.8,192.6z"/>
	</g>
</g>
<path class="st8" d="M175.7,203.2c-0.4,0.4-0.9,0.6-1.5,0.6l0,0c-1.2,0-2-0.8-2-2s0.8-2.1,2-2.1l0,0c1.2,0,2,0.8,2,2
	C176.2,202.3,176,202.8,175.7,203.2L175.7,203.2z M176.7,199.8c-0.9-1.1-2.6-1.4-4-0.8c-1.3,0.6-1.9,2.1-1.5,3.5
	c0.3,1.1,1,1.9,2.1,2.2c0.3,0.1,0.6,0.1,0.9,0.1c0.8,0,1.4-0.3,2-0.9c0.1-0.1,0.1-0.1,0.2-0.2v0.7c0,0.1,0.1,0.2,0.2,0.2h0.6
	c0.1,0,0.2-0.1,0.2-0.2l0,0c0-0.3,0-0.6,0-1c0-0.8,0-1.5,0-2.3C177.3,200.8,177,200.3,176.7,199.8L176.7,199.8z"/>
<path class="st8" d="M170.4,202.2h-0.8c-0.1,0-0.2,0.1-0.2,0.2v0.1c0,0.1,0,0.2,0,0.2c0,0.6-0.4,1-1.1,1.1c-0.5,0-1.3-0.1-1.3-0.9
	c-0.1-0.7-0.1-1.5-0.1-2.2c0-0.2,0-0.5,0-0.7c0-0.1,0.1-0.2,0.2-0.2h2.1c0.2,0,0.2-0.2,0.1-0.3l-0.8-0.7h-0.1H167
	c-0.1,0-0.2-0.1-0.2-0.2v-1.1c0-0.1-0.1-0.2-0.2-0.2H166c-0.1,0-0.2,0.1-0.2,0.2v0.3c0,0,0,3.2,0,5.1c0,0.5,0.2,0.9,0.6,1.3
	c0.5,0.5,1.1,0.6,1.6,0.6c0.1,0,0.3,0,0.4,0c0.6,0,1.2-0.4,1.5-0.9c0.4-0.5,0.5-1.1,0.4-1.6L170.4,202.2L170.4,202.2z"/>
<path class="st8" d="M164.7,197.1H164c-0.1,0-0.2,0.1-0.2,0.2v0.7c0,0.1,0.1,0.2,0.2,0.2h0.7c0.1,0,0.2-0.1,0.2-0.2v-0.7
	C164.8,197.2,164.8,197.1,164.7,197.1L164.7,197.1z"/>
<g>
	<g class="st3">
		<path class="st8" d="M58.9,148.5c-1.9,0-3.2-1.4-3.2-3.2v0c0-1.8,1.4-3.3,3.3-3.3c1.2,0,1.9,0.4,2.5,1l-0.9,1
			c-0.5-0.4-1-0.7-1.6-0.7c-1.1,0-1.8,0.9-1.8,2v0c0,1.1,0.7,2,1.8,2c0.7,0,1.2-0.3,1.7-0.7l0.9,0.9
			C60.8,148.1,60.1,148.5,58.9,148.5z"/>
		<path class="st8" d="M64.7,148.5c-1.5,0-2.6-1.1-2.6-2.5v0c0-1.4,1.1-2.5,2.6-2.5c1.5,0,2.6,1.1,2.6,2.5v0
			C67.3,147.4,66.2,148.5,64.7,148.5z M66,146c0-0.7-0.5-1.3-1.3-1.3c-0.8,0-1.3,0.6-1.3,1.3v0c0,0.7,0.5,1.3,1.3,1.3
			C65.5,147.3,66,146.7,66,146L66,146z"/>
		<path class="st8" d="M71.3,148.4v-2.7c0-0.6-0.3-1-0.8-1c-0.5,0-0.9,0.3-0.9,1v2.7h-1.4v-4.8h1.4v0.7c0.3-0.4,0.7-0.8,1.4-0.8
			c1,0,1.6,0.7,1.6,1.8v3.1H71.3z"/>
		<path class="st8" d="M75.5,148.5c-0.8,0-1.4-0.3-1.4-1.4v-2.3h-0.6v-1.2h0.6v-1.2h1.4v1.2h1.1v1.2h-1.1v2.1c0,0.3,0.1,0.5,0.4,0.5
			c0.3,0,0.5-0.1,0.7-0.2v1.1C76.3,148.4,76,148.5,75.5,148.5z"/>
		<path class="st8" d="M82,146.5h-3.4c0.1,0.6,0.6,0.9,1.2,0.9c0.5,0,0.8-0.1,1.2-0.5l0.8,0.7c-0.5,0.6-1.1,0.9-2,0.9
			c-1.4,0-2.5-1-2.5-2.5v0c0-1.4,1-2.5,2.4-2.5c1.6,0,2.4,1.3,2.4,2.6v0C82,146.3,82,146.3,82,146.5z M79.7,144.6
			c-0.6,0-0.9,0.4-1,1h2.1C80.6,145,80.2,144.6,79.7,144.6z"/>
		<path class="st8" d="M86.1,148.4v-2.7c0-0.6-0.3-1-0.8-1c-0.5,0-0.9,0.3-0.9,1v2.7H83v-4.8h1.4v0.7c0.3-0.4,0.7-0.8,1.4-0.8
			c1,0,1.6,0.7,1.6,1.8v3.1H86.1z"/>
		<path class="st8" d="M90.3,148.5c-0.8,0-1.4-0.3-1.4-1.4v-2.3h-0.6v-1.2h0.6v-1.2h1.4v1.2h1.1v1.2h-1.1v2.1c0,0.3,0.1,0.5,0.4,0.5
			c0.3,0,0.5-0.1,0.7-0.2v1.1C91,148.4,90.7,148.5,90.3,148.5z"/>
	</g>
	<g class="st3">
		<path class="st8" d="M96.1,146.4c0,1,0.4,1.6,1.4,2.3l-0.5,0.7c-1.3-0.7-1.9-1.7-1.9-3s0.7-2.3,1.9-3l0.5,0.7
			C96.5,144.8,96.1,145.4,96.1,146.4z"/>
		<path class="st8" d="M100.4,148.5c-1.4,0-2.5-1.1-2.5-2.5v0c0-1.4,1.1-2.5,2.6-2.5c0.9,0,1.5,0.3,1.9,0.8l-0.7,0.8
			c-0.4-0.3-0.8-0.6-1.3-0.6c-0.8,0-1.4,0.7-1.4,1.5v0c0,0.8,0.6,1.5,1.4,1.5c0.6,0,0.9-0.2,1.3-0.6l0.7,0.7
			C101.9,148.1,101.4,148.5,100.4,148.5z"/>
		<path class="st8" d="M105.6,148.4v-2.1c0-0.5-0.2-0.8-0.6-0.8s-0.7,0.3-0.7,0.8v2.1h-1.1v-5.1h1.1v1.9c0.2-0.3,0.6-0.6,1.1-0.6
			c0.8,0,1.3,0.5,1.3,1.4v2.4H105.6z"/>
		<path class="st8" d="M111,146.9h-2.6c0.1,0.5,0.4,0.7,0.9,0.7c0.4,0,0.6-0.1,0.9-0.4l0.6,0.5c-0.4,0.4-0.9,0.7-1.5,0.7
			c-1.1,0-2-0.8-2-1.9v0c0-1.1,0.8-2,1.9-2c1.3,0,1.8,1,1.8,2v0C111.1,146.7,111.1,146.8,111,146.9z M109.2,145.4
			c-0.4,0-0.7,0.3-0.8,0.8h1.6C110,145.8,109.7,145.4,109.2,145.4z"/>
		<path class="st8" d="M113.5,144.1c-0.2,0-0.4,0.1-0.4,0.4v0.1h0.9v0.9h-0.8v2.8H112v-2.8h-0.4v-0.9h0.4v-0.2
			c0-0.8,0.4-1.2,1.2-1.2c0.3,0,0.6,0,0.8,0.1v0.9C113.8,144.2,113.7,144.1,113.5,144.1z"/>
		<path class="st8" d="M119,148.5c-1.4,0-2.5-1.1-2.5-2.5v0c0-1.4,1.1-2.5,2.6-2.5c0.9,0,1.5,0.3,1.9,0.8l-0.7,0.8
			c-0.4-0.3-0.8-0.6-1.3-0.6c-0.8,0-1.4,0.7-1.4,1.5v0c0,0.8,0.6,1.5,1.4,1.5c0.6,0,0.9-0.2,1.3-0.6l0.7,0.7
			C120.5,148.1,120,148.5,119,148.5z"/>
		<path class="st8" d="M123.6,148.5c-1.2,0-2-0.9-2-1.9v0c0-1.1,0.9-2,2-2c1.2,0,2,0.9,2,1.9v0C125.6,147.6,124.7,148.5,123.6,148.5
			z M124.6,146.5c0-0.6-0.4-1-1-1c-0.6,0-1,0.5-1,1v0c0,0.6,0.4,1,1,1C124.2,147.6,124.6,147.1,124.6,146.5L124.6,146.5z"/>
		<path class="st8" d="M128.2,148.5c-1.2,0-2-0.9-2-1.9v0c0-1.1,0.9-2,2-2c1.2,0,2,0.9,2,1.9v0C130.2,147.6,129.4,148.5,128.2,148.5
			z M129.2,146.5c0-0.6-0.4-1-1-1c-0.6,0-1,0.5-1,1v0c0,0.6,0.4,1,1,1C128.8,147.6,129.2,147.1,129.2,146.5L129.2,146.5z"/>
		<path class="st8" d="M133.4,148.4l-1-1.5l-0.4,0.4v1.1H131v-5.1h1.1v2.7l1.2-1.4h1.3l-1.4,1.5l1.5,2.3H133.4z"/>
		<path class="st8" d="M137.4,148.5c-0.6,0-0.9-0.3-1.2-0.6v0.5h-1.1v-5.1h1.1v1.9c0.3-0.3,0.6-0.6,1.2-0.6c0.9,0,1.7,0.7,1.7,1.9v0
			C139.1,147.8,138.3,148.5,137.4,148.5z M138,146.5c0-0.6-0.4-1-0.9-1c-0.5,0-0.9,0.4-0.9,1v0c0,0.6,0.4,1,0.9,1
			C137.6,147.6,138,147.2,138,146.5L138,146.5z"/>
		<path class="st8" d="M141.7,148.5c-1.2,0-2-0.9-2-1.9v0c0-1.1,0.9-2,2-2c1.2,0,2,0.9,2,1.9v0C143.8,147.6,142.9,148.5,141.7,148.5
			z M142.7,146.5c0-0.6-0.4-1-1-1c-0.6,0-1,0.5-1,1v0c0,0.6,0.4,1,1,1C142.4,147.6,142.7,147.1,142.7,146.5L142.7,146.5z"/>
		<path class="st8" d="M146.4,148.5c-1.2,0-2-0.9-2-1.9v0c0-1.1,0.9-2,2-2c1.2,0,2,0.9,2,1.9v0C148.4,147.6,147.5,148.5,146.4,148.5
			z M147.4,146.5c0-0.6-0.4-1-1-1c-0.6,0-1,0.5-1,1v0c0,0.6,0.4,1,1,1C147,147.6,147.4,147.1,147.4,146.5L147.4,146.5z"/>
		<path class="st8" d="M151.6,148.4l-1-1.5l-0.4,0.4v1.1h-1.1v-5.1h1.1v2.7l1.2-1.4h1.3l-1.4,1.5l1.5,2.3H151.6z"/>
		<path class="st8" d="M154.6,148.5c-0.5,0-1.1-0.2-1.6-0.6l0.5-0.7c0.4,0.3,0.8,0.4,1.2,0.4c0.3,0,0.4-0.1,0.4-0.3v0
			c0-0.2-0.4-0.3-0.8-0.4c-0.5-0.2-1.1-0.4-1.1-1.1v0c0-0.8,0.6-1.2,1.4-1.2c0.5,0,1,0.2,1.4,0.4l-0.4,0.7c-0.4-0.2-0.7-0.3-1-0.3
			c-0.3,0-0.4,0.1-0.4,0.3v0c0,0.2,0.4,0.3,0.8,0.4c0.5,0.2,1.1,0.4,1.1,1.1v0C156.1,148.1,155.5,148.5,154.6,148.5z"/>
		<path class="st8" d="M157.2,148.4h-0.4v-1.1h1.1v0.9c0,0.9-0.5,1.3-1.3,1.3l-0.1-0.4C157,149,157.3,148.8,157.2,148.4z"/>
		<path class="st8" d="M164.1,148.4v-2h-2v2h-1.1v-4.9h1.1v1.9h2v-1.9h1.1v4.9H164.1z"/>
		<path class="st8" d="M168.5,148.4V148c-0.3,0.3-0.6,0.5-1.1,0.5c-0.7,0-1.3-0.4-1.3-1.1v0c0-0.8,0.6-1.2,1.5-1.2
			c0.4,0,0.7,0.1,0.9,0.2v-0.1c0-0.4-0.3-0.7-0.8-0.7c-0.4,0-0.7,0.1-1,0.2l-0.3-0.8c0.4-0.2,0.8-0.3,1.5-0.3c1.2,0,1.7,0.6,1.7,1.6
			v2.2H168.5z M168.5,146.9c-0.2-0.1-0.4-0.1-0.7-0.1c-0.5,0-0.7,0.2-0.7,0.5v0c0,0.3,0.2,0.5,0.6,0.5c0.5,0,0.8-0.3,0.8-0.7V146.9z
			"/>
		<path class="st8" d="M172.6,148.5c-0.6,0-0.9-0.3-1.2-0.6v0.5h-1.1v-5.1h1.1v1.9c0.3-0.3,0.6-0.6,1.2-0.6c0.9,0,1.7,0.7,1.7,1.9v0
			C174.3,147.8,173.5,148.5,172.6,148.5z M173.3,146.5c0-0.6-0.4-1-0.9-1c-0.5,0-0.9,0.4-0.9,1v0c0,0.6,0.4,1,0.9,1
			C172.9,147.6,173.3,147.2,173.3,146.5L173.3,146.5z"/>
		<path class="st8" d="M175.2,144.2v-0.9h1.1v0.9H175.2z M175.2,148.4v-3.8h1.1v3.8H175.2z"/>
		<path class="st8" d="M178.5,148.5c-0.7,0-1.1-0.3-1.1-1.1v-1.8H177v-0.9h0.4v-1h1.1v1h0.9v0.9h-0.9v1.6c0,0.2,0.1,0.4,0.3,0.4
			c0.2,0,0.4,0,0.5-0.1v0.9C179.1,148.4,178.9,148.5,178.5,148.5z"/>
		<path class="st8" d="M182.3,148.4V148c-0.3,0.3-0.6,0.5-1.1,0.5c-0.7,0-1.3-0.4-1.3-1.1v0c0-0.8,0.6-1.2,1.5-1.2
			c0.4,0,0.7,0.1,0.9,0.2v-0.1c0-0.4-0.3-0.7-0.8-0.7c-0.4,0-0.7,0.1-1,0.2l-0.3-0.8c0.4-0.2,0.8-0.3,1.5-0.3c1.2,0,1.7,0.6,1.7,1.6
			v2.2H182.3z M182.4,146.9c-0.2-0.1-0.4-0.1-0.7-0.1c-0.5,0-0.7,0.2-0.7,0.5v0c0,0.3,0.2,0.5,0.6,0.5c0.5,0,0.8-0.3,0.8-0.7V146.9z
			"/>
		<path class="st8" d="M185.5,148.5c-0.7,0-1.1-0.3-1.1-1.1v-1.8H184v-0.9h0.4v-1h1.1v1h0.9v0.9h-0.9v1.6c0,0.2,0.1,0.4,0.3,0.4
			c0.2,0,0.4,0,0.5-0.1v0.9C186.1,148.4,185.9,148.5,185.5,148.5z"/>
		<path class="st8" d="M191.3,146.9h-0.8v1.5h-1.1v-4.9h2c1.2,0,1.9,0.7,1.9,1.7v0C193.3,146.3,192.4,146.9,191.3,146.9z
			 M192.2,145.2c0-0.5-0.3-0.7-0.9-0.7h-0.8v1.5h0.9C191.8,146,192.2,145.6,192.2,145.2L192.2,145.2z"/>
		<path class="st8" d="M194,148.4v-5.1h1.1v5.1H194z"/>
		<path class="st8" d="M198.3,148.4V148c-0.3,0.3-0.6,0.5-1.1,0.5c-0.7,0-1.3-0.4-1.3-1.1v0c0-0.8,0.6-1.2,1.5-1.2
			c0.4,0,0.7,0.1,0.9,0.2v-0.1c0-0.4-0.3-0.7-0.8-0.7c-0.4,0-0.7,0.1-1,0.2l-0.3-0.8c0.4-0.2,0.8-0.3,1.5-0.3c1.2,0,1.7,0.6,1.7,1.6
			v2.2H198.3z M198.3,146.9c-0.2-0.1-0.4-0.1-0.7-0.1c-0.5,0-0.7,0.2-0.7,0.5v0c0,0.3,0.2,0.5,0.6,0.5c0.5,0,0.8-0.3,0.8-0.7V146.9z
			"/>
		<path class="st8" d="M202.6,148.4v-2.1c0-0.5-0.2-0.8-0.6-0.8s-0.7,0.3-0.7,0.8v2.1h-1.1v-3.8h1.1v0.5c0.2-0.3,0.6-0.6,1.1-0.6
			c0.8,0,1.3,0.5,1.3,1.4v2.4H202.6z"/>
		<path class="st8" d="M205.9,148.5c-0.5,0-1.1-0.2-1.6-0.6l0.5-0.7c0.4,0.3,0.8,0.4,1.2,0.4c0.3,0,0.4-0.1,0.4-0.3v0
			c0-0.2-0.4-0.3-0.8-0.4c-0.5-0.2-1.1-0.4-1.1-1.1v0c0-0.8,0.6-1.2,1.4-1.2c0.5,0,1,0.2,1.4,0.4l-0.4,0.7c-0.4-0.2-0.7-0.3-1-0.3
			c-0.3,0-0.4,0.1-0.4,0.3v0c0,0.2,0.4,0.3,0.8,0.4c0.5,0.2,1.1,0.4,1.1,1.1v0C207.3,148.1,206.7,148.5,205.9,148.5z"/>
		<path class="st8" d="M208.5,148.4H208v-1.1h1.1v0.9c0,0.9-0.5,1.3-1.3,1.3l-0.1-0.4C208.3,149,208.5,148.8,208.5,148.4z"/>
		<path class="st8" d="M214.6,148.5c-1.4,0-2.5-1.1-2.5-2.5v0c0-1.4,1.1-2.5,2.6-2.5c0.9,0,1.5,0.3,1.9,0.8l-0.7,0.8
			c-0.4-0.3-0.8-0.6-1.3-0.6c-0.8,0-1.4,0.7-1.4,1.5v0c0,0.8,0.6,1.5,1.4,1.5c0.6,0,0.9-0.2,1.3-0.6l0.7,0.7
			C216.1,148.1,215.5,148.5,214.6,148.5z"/>
		<path class="st8" d="M219.1,148.5c-1.2,0-2-0.9-2-1.9v0c0-1.1,0.9-2,2-2c1.2,0,2,0.9,2,1.9v0C221.2,147.6,220.3,148.5,219.1,148.5
			z M220.1,146.5c0-0.6-0.4-1-1-1c-0.6,0-1,0.5-1,1v0c0,0.6,0.4,1,1,1C219.7,147.6,220.1,147.1,220.1,146.5L220.1,146.5z"/>
		<path class="st8" d="M226.6,148.4v-2.1c0-0.5-0.2-0.8-0.6-0.8s-0.6,0.3-0.6,0.8v2.1h-1.1v-2.1c0-0.5-0.2-0.8-0.6-0.8
			c-0.4,0-0.6,0.3-0.6,0.8v2.1h-1.1v-3.8h1.1v0.5c0.2-0.3,0.6-0.6,1.1-0.6c0.5,0,0.9,0.2,1.1,0.6c0.3-0.4,0.7-0.6,1.2-0.6
			c0.8,0,1.3,0.5,1.3,1.4v2.4H226.6z"/>
		<path class="st8" d="M230.8,148.5c-0.6,0-0.9-0.3-1.2-0.6v1.6h-1.1v-4.9h1.1v0.5c0.3-0.3,0.6-0.6,1.2-0.6c0.9,0,1.7,0.7,1.7,1.9v0
			C232.5,147.8,231.7,148.5,230.8,148.5z M231.4,146.5c0-0.6-0.4-1-0.9-1c-0.5,0-0.9,0.4-0.9,1v0c0,0.6,0.4,1,0.9,1
			C231,147.6,231.4,147.2,231.4,146.5L231.4,146.5z"/>
		<path class="st8" d="M233.3,148.4v-5.1h1.1v5.1H233.3z"/>
		<path class="st8" d="M235.4,144.2v-0.9h1.1v0.9H235.4z M235.5,148.4v-3.8h1.1v3.8H235.5z"/>
		<path class="st8" d="M239.7,148.4V148c-0.3,0.3-0.6,0.5-1.1,0.5c-0.7,0-1.3-0.4-1.3-1.1v0c0-0.8,0.6-1.2,1.5-1.2
			c0.4,0,0.7,0.1,0.9,0.2v-0.1c0-0.4-0.3-0.7-0.8-0.7c-0.4,0-0.7,0.1-1,0.2l-0.3-0.8c0.4-0.2,0.8-0.3,1.5-0.3c1.2,0,1.7,0.6,1.7,1.6
			v2.2H239.7z M239.7,146.9c-0.2-0.1-0.4-0.1-0.7-0.1c-0.5,0-0.7,0.2-0.7,0.5v0c0,0.3,0.2,0.5,0.6,0.5c0.5,0,0.8-0.3,0.8-0.7V146.9z
			"/>
		<path class="st8" d="M244,148.4v-2.1c0-0.5-0.2-0.8-0.6-0.8s-0.7,0.3-0.7,0.8v2.1h-1.1v-3.8h1.1v0.5c0.2-0.3,0.6-0.6,1.1-0.6
			c0.8,0,1.3,0.5,1.3,1.4v2.4H244z"/>
		<path class="st8" d="M247.8,148.5c-1.1,0-2-0.9-2-1.9v0c0-1.1,0.8-2,2-2c0.7,0,1.1,0.2,1.5,0.6l-0.7,0.7c-0.2-0.3-0.5-0.4-0.9-0.4
			c-0.5,0-0.9,0.5-0.9,1v0c0,0.6,0.4,1,1,1c0.4,0,0.6-0.2,0.9-0.4l0.6,0.6C249,148.2,248.5,148.5,247.8,148.5z"/>
		<path class="st8" d="M253.4,146.9h-2.6c0.1,0.5,0.4,0.7,0.9,0.7c0.4,0,0.6-0.1,0.9-0.4l0.6,0.5c-0.3,0.4-0.9,0.7-1.5,0.7
			c-1.1,0-2-0.8-2-1.9v0c0-1.1,0.8-2,1.9-2c1.3,0,1.8,1,1.8,2v0C253.4,146.7,253.4,146.8,253.4,146.9z M251.6,145.4
			c-0.4,0-0.7,0.3-0.8,0.8h1.6C252.3,145.8,252,145.4,251.6,145.4z"/>
		<path class="st8" d="M258.3,146.9h-0.8v1.5h-1.1v-4.9h2c1.2,0,1.9,0.7,1.9,1.7v0C260.3,146.3,259.4,146.9,258.3,146.9z
			 M259.2,145.2c0-0.5-0.3-0.7-0.9-0.7h-0.8v1.5h0.9C258.9,146,259.2,145.6,259.2,145.2L259.2,145.2z"/>
		<path class="st8" d="M263.2,145.7c-0.7,0-1.1,0.4-1.1,1.3v1.4H261v-3.8h1.1v0.8c0.2-0.5,0.6-0.9,1.2-0.8L263.2,145.7L263.2,145.7z
			"/>
		<path class="st8" d="M265.6,148.5c-1.2,0-2-0.9-2-1.9v0c0-1.1,0.9-2,2-2c1.2,0,2,0.9,2,1.9v0C267.7,147.6,266.8,148.5,265.6,148.5
			z M266.6,146.5c0-0.6-0.4-1-1-1c-0.6,0-1,0.5-1,1v0c0,0.6,0.4,1,1,1C266.3,147.6,266.6,147.1,266.6,146.5L266.6,146.5z"/>
		<path class="st8" d="M270.1,144.1c-0.2,0-0.4,0.1-0.4,0.4v0.1h0.9v0.9h-0.8v2.8h-1.1v-2.8h-0.4v-0.9h0.4v-0.2
			c0-0.8,0.4-1.2,1.2-1.2c0.3,0,0.6,0,0.8,0.1v0.9C270.4,144.2,270.3,144.1,270.1,144.1z"/>
		<path class="st8" d="M271.1,144.2v-0.9h1.1v0.9H271.1z M271.2,148.4v-3.8h1.1v3.8H271.2z"/>
		<path class="st8" d="M273.3,148.4v-5.1h1.1v5.1H273.3z"/>
		<path class="st8" d="M278.8,146.9h-2.6c0.1,0.5,0.4,0.7,0.9,0.7c0.4,0,0.6-0.1,0.9-0.4l0.6,0.5c-0.3,0.4-0.9,0.7-1.5,0.7
			c-1.1,0-2-0.8-2-1.9v0c0-1.1,0.8-2,1.9-2c1.3,0,1.8,1,1.8,2v0C278.9,146.7,278.9,146.8,278.8,146.9z M277,145.4
			c-0.4,0-0.7,0.3-0.8,0.8h1.6C277.8,145.8,277.5,145.4,277,145.4z"/>
		<path class="st8" d="M281,148.5c-0.5,0-1.1-0.2-1.6-0.6l0.5-0.7c0.4,0.3,0.8,0.4,1.2,0.4c0.3,0,0.4-0.1,0.4-0.3v0
			c0-0.2-0.4-0.3-0.8-0.4c-0.5-0.2-1.1-0.4-1.1-1.1v0c0-0.8,0.6-1.2,1.4-1.2c0.5,0,1,0.2,1.4,0.4l-0.4,0.7c-0.4-0.2-0.7-0.3-1-0.3
			c-0.3,0-0.4,0.1-0.4,0.3v0c0,0.2,0.4,0.3,0.8,0.4c0.5,0.2,1.1,0.4,1.1,1.1v0C282.4,148.1,281.8,148.5,281,148.5z"/>
		<path class="st8" d="M283.3,149.4l-0.5-0.7c0.9-0.7,1.4-1.3,1.4-2.3c0-1-0.4-1.6-1.4-2.3l0.5-0.7c1.3,0.7,1.9,1.7,1.9,3
			S284.6,148.7,283.3,149.4z"/>
	</g>
</g>
</svg>
