<svg id="Layer_1" data-name="Layer 1" xmlns="http://www.w3.org/2000/svg" xmlns:xlink="http://www.w3.org/1999/xlink" viewBox="0 0 336.5 235.5"><defs><style>.cls-1{fill:none;}.cls-2{fill:#7f888d;}.cls-3,.cls-5{isolation:isolate;}.cls-4{fill:#445464;}.cls-5,.cls-8{fill:#f08921;}.cls-5{opacity:0.2;}.cls-6{fill:#435363;}.cls-7{fill:#f38b00;}.cls-9{fill:#fff;}.cls-10{clip-path:url(#clip-path);}</style><clipPath id="clip-path"><rect class="cls-1" x="143.4" y="187" width="49.9" height="17.8"/></clipPath></defs><title>automate-architecture-visibility</title><line class="cls-2" x1="52.5" y1="120.1" x2="52.5" y2="176.1"/><line class="cls-2" x1="283.5" y1="120.1" x2="283.5" y2="176.1"/><line class="cls-2" x1="168.5" y1="120.1" x2="168.5" y2="176.1"/><rect class="cls-2" x="19.3" y="130.1" width="297.8" height="31.5"/><rect class="cls-2" x="305.2" y="0.2" width="31.3" height="120"/><g class="cls-3"><path class="cls-4" d="M317.33,26.89h2.53V24.34h-2.53V23h6.3v1.39h-2.49v2.56h2.49v1.39h-6.3V26.89Z"/><path class="cls-4" d="M317.33,29.71h4.83v1.37h-4.83V29.71Zm5.36,0h1.22v1.44h-1.22V29.67Z"/><path class="cls-4" d="M315.87,34.52a4.58,4.58,0,0,1,.5-2.13l1,0.47a3.15,3.15,0,0,0-.44,1.63,1.19,1.19,0,0,0,1.31,1.38h0.23a1.89,1.89,0,0,1-.78-1.58A2.12,2.12,0,0,1,320,32.15h0a2.12,2.12,0,0,1,2.25,2.14,2,2,0,0,1-.72,1.56h0.63v1.37h-3.74C316.6,37.22,315.87,36.32,315.87,34.52ZM320,35.87a1.18,1.18,0,0,0,0-2.35h0a1.1,1.1,0,0,0-1.12,1.17A1.11,1.11,0,0,0,320,35.87h0Z"/><path class="cls-4" d="M317.33,41.49H320a0.82,0.82,0,0,0,1-.83,0.84,0.84,0,0,0-1-.86h-2.69V38.44h6.57v1.37h-2.43a1.71,1.71,0,0,1,.77,1.41,1.58,1.58,0,0,1-1.79,1.64h-3.12V41.49Z"/><path class="cls-4" d="M317.33,51.58l1.41-.58V48.34l-1.41-.58V46.35l6.35,2.7v1.28L317.33,53V51.58ZM322,49.67l-2-.84v1.67Z"/><path class="cls-4" d="M317.3,55.94V54.69l4.86-1.9v1.45l-3.23,1.08,3.23,1.09v1.42Z"/><path class="cls-4" d="M317.33,61.23h0.52a1.85,1.85,0,0,1-.61-1.46,1.49,1.49,0,0,1,1.48-1.66h0c1.05,0,1.54.8,1.54,1.94a3.43,3.43,0,0,1-.2,1.18h0.08a0.87,0.87,0,0,0,.88-1,3.55,3.55,0,0,0-.26-1.33l1-.34a4.25,4.25,0,0,1,.39,1.87,1.88,1.88,0,0,1-2.08,2.15h-2.8V61.23Zm1.94,0a2.11,2.11,0,0,0,.18-0.87,0.77,0.77,0,0,0-.67-0.95h0a0.64,0.64,0,0,0-.58.75,0.93,0.93,0,0,0,.85,1.07h0.24Z"/><path class="cls-4" d="M317.33,63.79h4.83v1.37h-4.83V63.79Zm5.36,0h1.22V65.2h-1.22V63.76Z"/><path class="cls-4" d="M317.33,66.51h6.57v1.37h-6.57V66.51Z"/><path class="cls-4" d="M317.33,72h0.52a1.85,1.85,0,0,1-.61-1.46,1.49,1.49,0,0,1,1.48-1.66h0c1.05,0,1.54.8,1.54,1.94a3.43,3.43,0,0,1-.2,1.18h0.08a0.87,0.87,0,0,0,.88-1,3.55,3.55,0,0,0-.26-1.33l1-.34a4.25,4.25,0,0,1,.39,1.87,1.88,1.88,0,0,1-2.08,2.15h-2.8V72Zm1.94,0a2.11,2.11,0,0,0,.18-0.87,0.77,0.77,0,0,0-.67-0.95h0a0.64,0.64,0,0,0-.58.75A0.93,0.93,0,0,0,319,72h0.24Z"/><path class="cls-4" d="M317.24,77.36a1.85,1.85,0,0,1,.72-1.5h-0.63V74.49h6.57v1.37h-2.44a1.77,1.77,0,0,1,.78,1.5,2.27,2.27,0,0,1-2.49,2.2h0A2.26,2.26,0,0,1,317.24,77.36Zm2.51,0.83a1.18,1.18,0,1,0,0-2.35h0a1.18,1.18,0,1,0,0,2.35h0Z"/><path class="cls-4" d="M317.33,80.63h4.83V82h-4.83V80.63Zm5.36,0h1.22V82h-1.22V80.59Z"/><path class="cls-4" d="M317.33,83.35h6.57v1.37h-6.57V83.35Z"/><path class="cls-4" d="M317.33,86.07h4.83v1.37h-4.83V86.07Zm5.36,0h1.22v1.44h-1.22V86Z"/><path class="cls-4" d="M317.25,90.35a1.24,1.24,0,0,1,1.45-1.4H321V88.37h1.17v0.58h1.23v1.37h-1.23v1.13H321V90.31h-2.06a0.4,0.4,0,0,0-.47.44,1.39,1.39,0,0,0,.17.67h-1.1A2,2,0,0,1,317.25,90.35Z"/><path class="cls-4" d="M317.21,95.19c-1-.37-1.35-0.77-1.35-1.58a2.27,2.27,0,0,1,.33-1.22l1,0.46a1.25,1.25,0,0,0-.19.58,0.46,0.46,0,0,0,.32.48L322.16,92v1.45l-3.29,1.1,3.29,1.05V97Z"/></g><rect class="cls-5" width="301" height="120.1"/><path class="cls-6" d="M9.2,14.4h0a6.39,6.39,0,0,1,6.6-6.5,6.77,6.77,0,0,1,5,1.9l-1.8,2a4.66,4.66,0,0,0-3.2-1.4,3.72,3.72,0,0,0-3.6,3.9h0a3.75,3.75,0,0,0,3.6,4,4.63,4.63,0,0,0,3.3-1.5l1.8,1.8a6.35,6.35,0,0,1-5.2,2.2A6.22,6.22,0,0,1,9.2,14.4Z"/><path class="cls-6" d="M23,8.1h2.8v5h5.1v-5h2.8V20.7H30.9V15.6H25.8v5.1H23V8.1Z"/><path class="cls-6" d="M36.7,8.1h9.5v2.5H39.5v2.6h5.9v2.5H39.5v2.6h6.8v2.5H36.7V8.1Z"/><path class="cls-6" d="M48.7,8.1h9.6v2.5H51.5v2.7h6v2.5h-6v4.9H48.7V8.1Z"/><path class="cls-7" d="M65.4,8h1.3l5.7,12.7H70.9l-1.5-3.3H62.6l-1.5,3.3H59.6Zm3.5,8L66,9.6,63.2,16h5.7Z"/><path class="cls-7" d="M74.3,15.4V8.1h1.4v7.2c0,2.7,1.5,4.2,3.8,4.2s3.8-1.4,3.8-4.2V8.1h1.4v7.2c0,3.7-2.1,5.6-5.2,5.6S74.3,18.9,74.3,15.4Z"/><path class="cls-7" d="M91.5,9.4H87.3V8.1h9.9V9.4H93V20.7H91.6V9.4H91.5Z"/><path class="cls-7" d="M98.4,14.4h0a6.4,6.4,0,1,1,12.8,0h0A6.4,6.4,0,1,1,98.4,14.4Zm11.3,0h0a5,5,0,0,0-5-5.2,4.92,4.92,0,0,0-4.9,5.2h0A5,5,0,1,0,109.7,14.4Z"/><path class="cls-7" d="M114.2,8.1h1.4l4.6,6.9,4.6-6.9h1.4V20.7h-1.4V10.5l-4.6,6.7h-0.1l-4.6-6.7V20.7h-1.4V8.1h0.1Z"/><path class="cls-7" d="M134.5,8h1.3l5.7,12.7H140l-1.5-3.3h-6.8l-1.5,3.3h-1.5Zm3.5,8-2.9-6.4L132.2,16H138Z"/><path class="cls-7" d="M145.7,9.4h-4.2V8.1h9.9V9.4h-4.2V20.7h-1.4V9.4h-0.1Z"/><path class="cls-7" d="M154,8.1h9.1V9.4h-7.7v4.3h6.9V15h-6.9v4.4h7.8v1.3H154V8.1Z"/><rect class="cls-8" x="105.4" y="28.9" width="90.3" height="82.9"/><rect class="cls-2" x="7.3" y="28.9" width="90.3" height="82.9"/><rect class="cls-2" x="203.4" y="28.9" width="90.3" height="82.9"/><g class="cls-3"><path class="cls-9" d="M32.66,73.77H31.05l-1.89-5.49-1.9,5.49H25.66l-2.87-8.46h2L26.51,71l1.88-5.71H30L31.86,71l1.74-5.68h1.93Z"/><path class="cls-9" d="M39.08,73.86a3.34,3.34,0,0,1-3.47-3.32v0a3.48,3.48,0,0,1,7,0v0A3.37,3.37,0,0,1,39.08,73.86Zm1.69-3.35a1.71,1.71,0,0,0-1.69-1.78,1.65,1.65,0,0,0-1.67,1.75v0a1.71,1.71,0,0,0,1.69,1.78,1.65,1.65,0,0,0,1.67-1.75v0Z"/><path class="cls-9" d="M47.68,69.07c-1.21,0-2,.73-2,2.27v2.38H43.9V67.29h1.82v1.3a2,2,0,0,1,2.05-1.42v1.91h-0.1Z"/><path class="cls-9" d="M53.05,73.71l-1.68-2.63-0.64.67v2H48.91V65h1.82v4.67l2.13-2.34h2.18l-2.45,2.53,2.53,3.9H53.05Z"/><path class="cls-9" d="M58.79,66.41a0.6,0.6,0,0,0-.66.7v0.25H59.6v1.49H58.15v4.87H56.33V68.85H55.57v-1.5h0.76V66.94a1.79,1.79,0,0,1,2-2.06,4,4,0,0,1,1.3.18v1.51A2.31,2.31,0,0,0,58.79,66.41Z"/><path class="cls-9" d="M60.69,73.71V65h1.82v8.75H60.69Z"/><path class="cls-9" d="M67.38,73.86a3.34,3.34,0,0,1-3.47-3.32v0a3.48,3.48,0,0,1,7,0v0A3.37,3.37,0,0,1,67.38,73.86Zm1.69-3.35a1.71,1.71,0,0,0-1.69-1.78,1.65,1.65,0,0,0-1.67,1.75v0a1.71,1.71,0,0,0,1.69,1.78,1.65,1.65,0,0,0,1.67-1.75v0Z"/><path class="cls-9" d="M79.11,73.76H77.47l-1.24-3.95L75,73.76H73.34l-2-6.48h1.85l1,3.9,1.21-3.92H77l1.22,3.93,1.06-3.91h1.81Z"/></g><g class="cls-3"><path class="cls-9" d="M129.12,73.77h-1.63l-3.39-8.46h2l2.19,5.91,2.19-5.91h2Z"/><path class="cls-9" d="M133.42,66.58V65h1.92v1.62h-1.92Zm0,7.14V67.29h1.82v6.43h-1.82Z"/><path class="cls-9" d="M139.26,73.83a4.5,4.5,0,0,1-2.76-1l0.78-1.2a3.63,3.63,0,0,0,2,.77c0.53,0,.77-0.19.77-0.48v0c0-.4-0.62-0.53-1.33-0.74-0.9-.26-1.92-0.68-1.92-1.93v0a2.1,2.1,0,0,1,2.35-2,4.45,4.45,0,0,1,2.4.74l-0.7,1.26a3.81,3.81,0,0,0-1.74-.6c-0.44,0-.67.19-0.67,0.44v0c0,0.36.61,0.53,1.31,0.77,0.9,0.3,1.94.73,1.94,1.91v0C141.72,73.19,140.65,73.83,139.26,73.83Z"/><path class="cls-9" d="M143.07,66.58V65H145v1.62h-1.92Zm0,7.14V67.29h1.82v6.43h-1.82Z"/><path class="cls-9" d="M150.48,73.83a2.47,2.47,0,0,1-2-1v0.84h-1.82V65h1.82v3.25a2.36,2.36,0,0,1,2-1,3,3,0,0,1,2.93,3.32v0A3,3,0,0,1,150.48,73.83Zm1.1-3.35a1.58,1.58,0,1,0-3.13,0v0a1.58,1.58,0,1,0,3.13,0v0Z"/><path class="cls-9" d="M154.79,66.58V65h1.92v1.62h-1.92Zm0,7.14V67.29h1.82v6.43h-1.82Z"/><path class="cls-9" d="M158.46,73.71V65h1.82v8.75h-1.82Z"/><path class="cls-9" d="M162,66.58V65H164v1.62H162Zm0,7.14V67.29h1.82v6.43h-1.82Z"/><path class="cls-9" d="M167.8,73.82a1.65,1.65,0,0,1-1.87-1.93v-3h-0.77V67.29h0.77V65.64h1.82v1.64h1.51v1.56h-1.51v2.75a0.53,0.53,0,0,0,.59.62,1.86,1.86,0,0,0,.9-0.23v1.46A2.69,2.69,0,0,1,167.8,73.82Z"/><path class="cls-9" d="M174.25,73.87c-0.49,1.31-1,1.8-2.11,1.8a3,3,0,0,1-1.62-.44l0.61-1.32a1.65,1.65,0,0,0,.78.25,0.61,0.61,0,0,0,.63-0.42L170,67.29H172l1.46,4.38,1.4-4.38h1.89Z"/></g><g class="cls-3"><path class="cls-9" d="M217.34,73.86A4.24,4.24,0,0,1,213,69.54v0a4.27,4.27,0,0,1,4.38-4.34,4.33,4.33,0,0,1,3.31,1.29l-1.18,1.36a3.1,3.1,0,0,0-2.15-.95A2.49,2.49,0,0,0,215,69.49v0a2.49,2.49,0,0,0,2.43,2.64,3,3,0,0,0,2.21-1l1.17,1.19A4.29,4.29,0,0,1,217.34,73.86Z"/><path class="cls-9" d="M225.1,73.86a3.34,3.34,0,0,1-3.47-3.32v0a3.37,3.37,0,0,1,3.49-3.35,3.34,3.34,0,0,1,3.47,3.32v0A3.37,3.37,0,0,1,225.1,73.86Zm1.69-3.35a1.71,1.71,0,0,0-1.69-1.78,1.65,1.65,0,0,0-1.67,1.75v0a1.71,1.71,0,0,0,1.69,1.78,1.65,1.65,0,0,0,1.67-1.75v0Z"/><path class="cls-9" d="M237.91,73.71V70.13a1.08,1.08,0,0,0-1.07-1.31,1.1,1.1,0,0,0-1.1,1.31v3.59h-1.82V70.13a1.08,1.08,0,0,0-1.07-1.31,1.1,1.1,0,0,0-1.1,1.31v3.59h-1.82V67.29h1.82V68.2a2.3,2.3,0,0,1,1.9-1,1.92,1.92,0,0,1,1.81,1,2.65,2.65,0,0,1,2.11-1,2.06,2.06,0,0,1,2.17,2.36v4.19h-1.82Z"/><path class="cls-9" d="M245.14,73.83a2.47,2.47,0,0,1-2-1v2.76h-1.82V67.29h1.82v0.92a2.36,2.36,0,0,1,2-1,3,3,0,0,1,2.93,3.32v0A3,3,0,0,1,245.14,73.83Zm1.1-3.35a1.58,1.58,0,1,0-3.13,0v0a1.58,1.58,0,1,0,3.13,0v0Z"/><path class="cls-9" d="M249.5,73.71V65h1.82v8.75H249.5Z"/><path class="cls-9" d="M253.08,66.58V65H255v1.62h-1.92Zm0,7.14V67.29h1.82v6.43h-1.82Z"/><path class="cls-9" d="M260.43,73.71V73a2.47,2.47,0,0,1-1.94.82,2,2,0,0,1-2.21-2v0c0-1.4,1.07-2.05,2.59-2.05a4.58,4.58,0,0,1,1.57.26V69.95a1.15,1.15,0,0,0-1.38-1.18,4.72,4.72,0,0,0-1.77.35l-0.46-1.39a5.66,5.66,0,0,1,2.49-.52c2,0,2.87,1,2.87,2.77v3.73h-1.76Zm0-2.59a2.83,2.83,0,0,0-1.16-.24,1,1,0,0,0-1.26.89v0a0.85,0.85,0,0,0,1,.78,1.24,1.24,0,0,0,1.43-1.13V71.12Z"/><path class="cls-9" d="M267.83,73.71V70.13a1.1,1.1,0,0,0-1.1-1.31,1.12,1.12,0,0,0-1.14,1.31v3.59h-1.82V67.29h1.82V68.2a2.27,2.27,0,0,1,1.88-1,2.11,2.11,0,0,1,2.18,2.39v4.16h-1.82Z"/><path class="cls-9" d="M274.28,73.86a3.28,3.28,0,0,1-3.35-3.32v0a3.3,3.3,0,0,1,3.37-3.35,3.16,3.16,0,0,1,2.57,1.08l-1.12,1.2a1.88,1.88,0,0,0-1.46-.71,1.64,1.64,0,0,0-1.56,1.75v0a1.65,1.65,0,0,0,1.63,1.78,2,2,0,0,0,1.48-.68l1.07,1.08A3.24,3.24,0,0,1,274.28,73.86Z"/><path class="cls-9" d="M283.89,71.14h-4.47A1.49,1.49,0,0,0,281,72.4a2.1,2.1,0,0,0,1.56-.66l1,0.92a3.4,3.4,0,0,1-6-2.12v0a3.2,3.2,0,0,1,3.18-3.35c2.15,0,3.13,1.67,3.13,3.49v0C283.91,70.86,283.9,71,283.89,71.14Zm-3.11-2.51A1.43,1.43,0,0,0,279.39,70h2.75A1.38,1.38,0,0,0,280.78,68.63Z"/></g><rect class="cls-2" x="0.1" y="171.8" width="106.1" height="63.7"/><rect class="cls-2" x="230.2" y="171.8" width="106.1" height="63.7"/><rect class="cls-2" x="115.2" y="171.8" width="106.1" height="63.7"/><g class="cls-3"><path class="cls-9" d="M8.36,222.38v-4.9H9.43v4.9H8.36Z"/><path class="cls-9" d="M12.92,222.38v-2.09a0.64,0.64,0,0,0-.64-0.76,0.65,0.65,0,0,0-.67.76v2.09H10.55v-3.75h1.06v0.53a1.33,1.33,0,0,1,1.1-.6A1.23,1.23,0,0,1,14,219.95v2.43H12.92Z"/><path class="cls-9" d="M16.53,218.11a0.35,0.35,0,0,0-.39.41v0.15H17v0.87H16.15v2.84H15.09v-2.84H14.65v-0.87h0.44v-0.24a1,1,0,0,1,1.16-1.21,2.34,2.34,0,0,1,.76.11v0.88A1.33,1.33,0,0,0,16.53,218.11Z"/><path class="cls-9" d="M19.79,219.67A1.11,1.11,0,0,0,18.65,221v1.39H17.58v-3.75h1.06v0.76a1.16,1.16,0,0,1,1.2-.83v1.11H19.79Z"/><path class="cls-9" d="M22.53,222.38V222a1.44,1.44,0,0,1-1.13.48,1.16,1.16,0,0,1-1.29-1.15h0a1.26,1.26,0,0,1,1.51-1.2,2.65,2.65,0,0,1,.92.15v-0.06a0.67,0.67,0,0,0-.81-0.69,2.76,2.76,0,0,0-1,.2l-0.27-.81a3.32,3.32,0,0,1,1.46-.3,1.46,1.46,0,0,1,1.67,1.62v2.18h-1Zm0-1.51a1.65,1.65,0,0,0-.68-0.14,0.6,0.6,0,0,0-.74.52h0a0.49,0.49,0,0,0,.58.46,0.73,0.73,0,0,0,.83-0.66v-0.19Z"/><path class="cls-9" d="M25.79,222.45a2.63,2.63,0,0,1-1.61-.57l0.46-.7a2.12,2.12,0,0,0,1.18.45c0.31,0,.45-0.11.45-0.28h0a0.9,0.9,0,0,0-.78-0.43,1.23,1.23,0,0,1-1.12-1.13h0a1.23,1.23,0,0,1,1.37-1.19,2.6,2.6,0,0,1,1.4.43l-0.41.74a2.23,2.23,0,0,0-1-.35c-0.26,0-.39.11-0.39,0.26h0a1,1,0,0,0,.76.45,1.29,1.29,0,0,1,1.13,1.11h0A1.23,1.23,0,0,1,25.79,222.45Z"/><path class="cls-9" d="M29.19,222.44a1,1,0,0,1-1.09-1.13v-1.78H27.65v-0.91H28.1v-1h1.06v1H30v0.91H29.16v1.6a0.31,0.31,0,0,0,.34.36,1.08,1.08,0,0,0,.53-0.13v0.85A1.57,1.57,0,0,1,29.19,222.44Z"/><path class="cls-9" d="M33,219.67A1.11,1.11,0,0,0,31.89,221v1.39H30.83v-3.75h1.06v0.76a1.16,1.16,0,0,1,1.2-.83v1.11H33Z"/><path class="cls-9" d="M36.1,222.38v-0.53a1.33,1.33,0,0,1-1.1.6,1.23,1.23,0,0,1-1.27-1.39v-2.43h1.06v2.09a0.64,0.64,0,0,0,.64.76,0.65,0.65,0,0,0,.67-0.76v-2.09h1.06v3.75H36.1Z"/><path class="cls-9" d="M39.88,222.46a1.92,1.92,0,0,1-2-1.94h0a1.93,1.93,0,0,1,2-2,1.85,1.85,0,0,1,1.5.63l-0.65.7a1.1,1.1,0,0,0-.85-0.41,1,1,0,0,0-.91,1h0a1,1,0,0,0,1,1,1.19,1.19,0,0,0,.86-0.4l0.62,0.63A1.89,1.89,0,0,1,39.88,222.46Z"/><path class="cls-9" d="M43.38,222.44a1,1,0,0,1-1.09-1.13v-1.78H41.84v-0.91h0.45v-1h1.06v1h0.88v0.91H43.35v1.6a0.31,0.31,0,0,0,.34.36,1.08,1.08,0,0,0,.53-0.13v0.85A1.57,1.57,0,0,1,43.38,222.44Z"/><path class="cls-9" d="M47.36,222.38v-0.53a1.33,1.33,0,0,1-1.1.6A1.23,1.23,0,0,1,45,221.06v-2.43h1.06v2.09a0.64,0.64,0,0,0,.64.76,0.65,0.65,0,0,0,.67-0.76v-2.09h1.06v3.75H47.36Z"/><path class="cls-9" d="M51.58,219.67A1.11,1.11,0,0,0,50.44,221v1.39H49.38v-3.75h1.06v0.76a1.16,1.16,0,0,1,1.2-.83v1.11H51.58Z"/><path class="cls-9" d="M55.68,220.87H53.07a0.87,0.87,0,0,0,.92.74,1.23,1.23,0,0,0,.91-0.38l0.61,0.54a2,2,0,0,1-3.5-1.24h0a1.87,1.87,0,0,1,1.86-2,1.83,1.83,0,0,1,1.83,2h0C55.7,220.71,55.69,220.78,55.68,220.87Zm-1.81-1.46a0.84,0.84,0,0,0-.81.8h1.6A0.8,0.8,0,0,0,53.87,219.41Z"/><path class="cls-9" d="M62.35,222.38l-0.45-1.1H59.83l-0.45,1.1h-1.1l2.1-4.94h1l2.1,4.94H62.35Zm-1.48-3.64-0.65,1.59h1.3Z"/><path class="cls-9" d="M66.39,222.38v-0.53a1.33,1.33,0,0,1-1.1.6A1.23,1.23,0,0,1,64,221.06v-2.43h1.06v2.09a0.64,0.64,0,0,0,.64.76,0.65,0.65,0,0,0,.67-0.76v-2.09h1.06v3.75H66.39Z"/><path class="cls-9" d="M69.68,222.44a1,1,0,0,1-1.09-1.13v-1.78H68.13v-0.91h0.45v-1h1.06v1h0.88v0.91H69.65v1.6a0.31,0.31,0,0,0,.34.36,1.08,1.08,0,0,0,.53-0.13v0.85A1.57,1.57,0,0,1,69.68,222.44Z"/><path class="cls-9" d="M73,222.46a2,2,0,0,1-2-1.94h0a2,2,0,0,1,4.06,0h0A2,2,0,0,1,73,222.46Zm1-2a1,1,0,0,0-1-1,1,1,0,0,0-1,1h0a1,1,0,0,0,1,1,1,1,0,0,0,1-1h0Z"/><path class="cls-9" d="M80.52,222.38v-2.09a0.63,0.63,0,0,0-.62-0.76,0.64,0.64,0,0,0-.64.76v2.09H78.19v-2.09a0.63,0.63,0,0,0-.62-0.76,0.64,0.64,0,0,0-.64.76v2.09H75.86v-3.75h1.06v0.53a1.34,1.34,0,0,1,1.11-.6,1.12,1.12,0,0,1,1.06.6,1.54,1.54,0,0,1,1.23-.6,1.2,1.2,0,0,1,1.27,1.38v2.44H80.52Z"/><path class="cls-9" d="M84.7,222.38V222a1.44,1.44,0,0,1-1.13.48,1.16,1.16,0,0,1-1.29-1.15h0a1.26,1.26,0,0,1,1.51-1.2,2.65,2.65,0,0,1,.92.15v-0.06a0.67,0.67,0,0,0-.81-0.69,2.76,2.76,0,0,0-1,.2l-0.27-.81a3.32,3.32,0,0,1,1.46-.3,1.46,1.46,0,0,1,1.67,1.62v2.18h-1Zm0-1.51a1.65,1.65,0,0,0-.68-0.14,0.6,0.6,0,0,0-.74.52h0a0.49,0.49,0,0,0,.58.46,0.73,0.73,0,0,0,.83-0.66v-0.19Z"/><path class="cls-9" d="M87.88,222.44a1,1,0,0,1-1.09-1.13v-1.78H86.34v-0.91h0.45v-1h1.06v1h0.88v0.91H87.85v1.6a0.31,0.31,0,0,0,.34.36,1.08,1.08,0,0,0,.53-0.13v0.85A1.57,1.57,0,0,1,87.88,222.44Z"/><path class="cls-9" d="M89.54,218.21v-0.95h1.12v0.95H89.54Zm0,4.17v-3.75h1.06v3.75H89.57Z"/><path class="cls-9" d="M93.48,222.46a2,2,0,0,1-2-1.94h0a2,2,0,0,1,4.06,0h0A2,2,0,0,1,93.48,222.46Zm1-2a1,1,0,0,0-1-1,1,1,0,0,0-1,1h0a1,1,0,0,0,1,1,1,1,0,0,0,1-1h0Z"/><path class="cls-9" d="M98.66,222.38v-2.09a0.64,0.64,0,0,0-.64-0.76,0.65,0.65,0,0,0-.67.76v2.09H96.28v-3.75h1.06v0.53a1.33,1.33,0,0,1,1.1-.6,1.23,1.23,0,0,1,1.27,1.39v2.43H98.66Z"/></g><g class="cls-3"><path class="cls-9" d="M243.9,222.46a2.48,2.48,0,0,1-2.51-2.52h0a2.49,2.49,0,0,1,2.56-2.54,2.53,2.53,0,0,1,1.93.76l-0.69.79a1.81,1.81,0,0,0-1.25-.55,1.45,1.45,0,0,0-1.42,1.53h0a1.46,1.46,0,0,0,1.42,1.54,1.77,1.77,0,0,0,1.29-.57l0.69,0.69A2.51,2.51,0,0,1,243.9,222.46Z"/><path class="cls-9" d="M248.43,222.46a2,2,0,0,1-2-1.94h0a2,2,0,0,1,4.06,0h0A2,2,0,0,1,248.43,222.46Zm1-2a1,1,0,0,0-1-1,1,1,0,0,0-1,1h0a1,1,0,0,0,1,1,1,1,0,0,0,1-1h0Z"/><path class="cls-9" d="M255.9,222.38v-2.09a0.63,0.63,0,0,0-.62-0.76,0.64,0.64,0,0,0-.64.76v2.09h-1.06v-2.09a0.63,0.63,0,0,0-.62-0.76,0.64,0.64,0,0,0-.64.76v2.09h-1.07v-3.75h1.07v0.53a1.34,1.34,0,0,1,1.11-.6,1.12,1.12,0,0,1,1.06.6,1.54,1.54,0,0,1,1.23-.6,1.2,1.2,0,0,1,1.27,1.38v2.44H255.9Z"/><path class="cls-9" d="M260.12,222.45a1.44,1.44,0,0,1-1.17-.56v1.61h-1.07v-4.87H259v0.54a1.38,1.38,0,0,1,1.17-.61,1.77,1.77,0,0,1,1.71,1.94h0A1.76,1.76,0,0,1,260.12,222.45Zm0.64-2a0.92,0.92,0,1,0-1.83,0h0a0.92,0.92,0,1,0,1.83,0h0Z"/><path class="cls-9" d="M262.66,222.38v-5.11h1.06v5.11h-1.06Z"/><path class="cls-9" d="M264.75,218.21v-0.95h1.12v0.95h-1.12Zm0,4.17v-3.75h1.06v3.75h-1.06Z"/><path class="cls-9" d="M269,222.38V222a1.44,1.44,0,0,1-1.13.48,1.16,1.16,0,0,1-1.29-1.15h0a1.26,1.26,0,0,1,1.51-1.2,2.65,2.65,0,0,1,.92.15v-0.06a0.67,0.67,0,0,0-.81-0.69,2.76,2.76,0,0,0-1,.2l-0.27-.81a3.32,3.32,0,0,1,1.46-.3,1.46,1.46,0,0,1,1.67,1.62v2.18h-1Zm0-1.51a1.65,1.65,0,0,0-.68-0.14,0.6,0.6,0,0,0-.74.52h0a0.49,0.49,0,0,0,.58.46,0.73,0.73,0,0,0,.83-0.66v-0.19Z"/><path class="cls-9" d="M273.36,222.38v-2.09a0.64,0.64,0,0,0-.64-0.76,0.65,0.65,0,0,0-.67.76v2.09H271v-3.75H272v0.53a1.33,1.33,0,0,1,1.1-.6,1.23,1.23,0,0,1,1.27,1.39v2.43h-1.06Z"/><path class="cls-9" d="M277.12,222.46a1.92,1.92,0,0,1-2-1.94h0a1.93,1.93,0,0,1,2-2,1.85,1.85,0,0,1,1.5.63l-0.65.7a1.1,1.1,0,0,0-.85-0.41,1,1,0,0,0-.91,1h0a1,1,0,0,0,1,1,1.19,1.19,0,0,0,.86-0.4l0.62,0.63A1.89,1.89,0,0,1,277.12,222.46Z"/><path class="cls-9" d="M282.73,220.87h-2.61a0.87,0.87,0,0,0,.92.74,1.23,1.23,0,0,0,.91-0.38l0.61,0.54a2,2,0,0,1-3.5-1.24h0a1.87,1.87,0,0,1,1.86-2,1.83,1.83,0,0,1,1.83,2h0C282.74,220.71,282.73,220.78,282.73,220.87Zm-1.81-1.46a0.84,0.84,0,0,0-.81.8h1.6A0.81,0.81,0,0,0,280.91,219.41Z"/><path class="cls-9" d="M289.39,222.38l-0.45-1.1h-2.07l-0.45,1.1h-1.1l2.1-4.94h1l2.1,4.94h-1.13Zm-1.49-3.64-0.65,1.59h1.3Z"/><path class="cls-9" d="M293.43,222.38v-0.53a1.33,1.33,0,0,1-1.1.6,1.23,1.23,0,0,1-1.27-1.39v-2.43h1.06v2.09a0.64,0.64,0,0,0,.64.76,0.65,0.65,0,0,0,.67-0.76v-2.09h1.06v3.75h-1.06Z"/><path class="cls-9" d="M296.72,222.44a1,1,0,0,1-1.09-1.13v-1.78h-0.45v-0.91h0.45v-1h1.06v1h0.88v0.91h-0.88v1.6a0.31,0.31,0,0,0,.34.36,1.08,1.08,0,0,0,.53-0.13v0.85A1.57,1.57,0,0,1,296.72,222.44Z"/><path class="cls-9" d="M300.09,222.46a2,2,0,0,1-2-1.94h0a2,2,0,0,1,4.06,0h0A2,2,0,0,1,300.09,222.46Zm1-2a1,1,0,0,0-1-1,1,1,0,0,0-1,1h0a1,1,0,0,0,1,1,1,1,0,0,0,1-1h0Z"/><path class="cls-9" d="M307.56,222.38v-2.09a0.63,0.63,0,0,0-.62-0.76,0.64,0.64,0,0,0-.64.76v2.09h-1.06v-2.09a0.63,0.63,0,0,0-.62-0.76,0.64,0.64,0,0,0-.64.76v2.09H302.9v-3.75H304v0.53a1.34,1.34,0,0,1,1.11-.6,1.12,1.12,0,0,1,1.06.6,1.54,1.54,0,0,1,1.23-.6,1.2,1.2,0,0,1,1.27,1.38v2.44h-1.06Z"/><path class="cls-9" d="M311.75,222.38V222a1.44,1.44,0,0,1-1.13.48,1.16,1.16,0,0,1-1.29-1.15h0a1.26,1.26,0,0,1,1.51-1.2,2.66,2.66,0,0,1,.92.15v-0.06a0.67,0.67,0,0,0-.81-0.69,2.77,2.77,0,0,0-1,.2l-0.27-.81a3.32,3.32,0,0,1,1.46-.3,1.46,1.46,0,0,1,1.67,1.62v2.18h-1Zm0-1.51a1.65,1.65,0,0,0-.68-0.14,0.6,0.6,0,0,0-.74.52h0a0.49,0.49,0,0,0,.58.46,0.73,0.73,0,0,0,.83-0.66v-0.19Z"/><path class="cls-9" d="M314.92,222.44a1,1,0,0,1-1.09-1.13v-1.78h-0.45v-0.91h0.45v-1h1.06v1h0.88v0.91H314.9v1.6a0.31,0.31,0,0,0,.34.36,1.08,1.08,0,0,0,.53-0.13v0.85A1.57,1.57,0,0,1,314.92,222.44Z"/><path class="cls-9" d="M316.58,218.21v-0.95h1.12v0.95h-1.12Zm0,4.17v-3.75h1.06v3.75h-1.06Z"/><path class="cls-9" d="M320.52,222.46a2,2,0,0,1-2-1.94h0a2,2,0,0,1,4.06,0h0A2,2,0,0,1,320.52,222.46Zm1-2a1,1,0,0,0-1-1,1,1,0,0,0-1,1h0a1,1,0,0,0,1,1,1,1,0,0,0,1-1h0Z"/><path class="cls-9" d="M325.7,222.38v-2.09a0.64,0.64,0,0,0-.64-0.76,0.65,0.65,0,0,0-.67.76v2.09h-1.07v-3.75h1.07v0.53a1.33,1.33,0,0,1,1.1-.6,1.23,1.23,0,0,1,1.27,1.39v2.43H325.7Z"/></g><g class="cls-3"><path class="cls-9" d="M130.77,222.38l-0.45-1.1h-2.07l-0.45,1.1h-1.1l2.1-4.94h1l2.1,4.94h-1.13Zm-1.48-3.64-0.65,1.59h1.3Z"/><path class="cls-9" d="M134.77,222.45a1.44,1.44,0,0,1-1.17-.56v1.61h-1.06v-4.87h1.06v0.54a1.38,1.38,0,0,1,1.17-.61,1.77,1.77,0,0,1,1.71,1.94h0A1.76,1.76,0,0,1,134.77,222.45Zm0.64-2a0.92,0.92,0,1,0-1.83,0h0a0.92,0.92,0,1,0,1.83,0h0Z"/><path class="cls-9" d="M139.5,222.45a1.44,1.44,0,0,1-1.17-.56v1.61h-1.06v-4.87h1.06v0.54a1.38,1.38,0,0,1,1.17-.61,1.77,1.77,0,0,1,1.71,1.94h0A1.76,1.76,0,0,1,139.5,222.45Zm0.64-2a0.92,0.92,0,1,0-1.83,0h0a0.92,0.92,0,1,0,1.83,0h0Z"/><path class="cls-9" d="M142,222.38v-5.11h1.06v5.11H142Z"/><path class="cls-9" d="M144.12,218.21v-0.95h1.12v0.95h-1.12Zm0,4.17v-3.75h1.06v3.75h-1.06Z"/><path class="cls-9" d="M148,222.46a1.92,1.92,0,0,1-2-1.94h0a1.93,1.93,0,0,1,2-2,1.85,1.85,0,0,1,1.5.63l-0.65.7a1.1,1.1,0,0,0-.85-0.41,1,1,0,0,0-.91,1h0a1,1,0,0,0,1,1,1.19,1.19,0,0,0,.86-0.4l0.62,0.63A1.89,1.89,0,0,1,148,222.46Z"/><path class="cls-9" d="M152.41,222.38V222a1.44,1.44,0,0,1-1.13.48A1.16,1.16,0,0,1,150,221.3h0a1.26,1.26,0,0,1,1.51-1.2,2.65,2.65,0,0,1,.92.15v-0.06a0.67,0.67,0,0,0-.81-0.69,2.76,2.76,0,0,0-1,.2l-0.27-.81a3.32,3.32,0,0,1,1.46-.3,1.46,1.46,0,0,1,1.67,1.62v2.18h-1Zm0-1.51a1.65,1.65,0,0,0-.68-0.14,0.6,0.6,0,0,0-.74.52h0a0.49,0.49,0,0,0,.58.46,0.73,0.73,0,0,0,.83-0.66v-0.19Z"/><path class="cls-9" d="M155.59,222.44a1,1,0,0,1-1.09-1.13v-1.78H154v-0.91h0.45v-1h1.06v1h0.88v0.91h-0.88v1.6a0.31,0.31,0,0,0,.34.36,1.08,1.08,0,0,0,.53-0.13v0.85A1.57,1.57,0,0,1,155.59,222.44Z"/><path class="cls-9" d="M157.25,218.21v-0.95h1.12v0.95h-1.12Zm0,4.17v-3.75h1.06v3.75h-1.06Z"/><path class="cls-9" d="M161.18,222.46a2,2,0,0,1-2-1.94h0a2,2,0,0,1,4.06,0h0A2,2,0,0,1,161.18,222.46Zm1-2a1,1,0,0,0-1-1,1,1,0,0,0-1,1h0a1,1,0,0,0,1,1,1,1,0,0,0,1-1h0Z"/><path class="cls-9" d="M166.36,222.38v-2.09a0.64,0.64,0,0,0-.64-0.76,0.65,0.65,0,0,0-.67.76v2.09H164v-3.75h1.06v0.53a1.33,1.33,0,0,1,1.1-.6,1.23,1.23,0,0,1,1.27,1.39v2.43h-1.06Z"/><path class="cls-9" d="M174.21,222.38l-0.45-1.1h-2.07l-0.45,1.1h-1.1l2.1-4.94h1l2.1,4.94h-1.13Zm-1.49-3.64-0.65,1.59h1.3Z"/><path class="cls-9" d="M178.26,222.38v-0.53a1.33,1.33,0,0,1-1.1.6,1.23,1.23,0,0,1-1.27-1.39v-2.43h1.06v2.09a0.64,0.64,0,0,0,.64.76,0.65,0.65,0,0,0,.67-0.76v-2.09h1.06v3.75h-1.06Z"/><path class="cls-9" d="M181.54,222.44a1,1,0,0,1-1.09-1.13v-1.78H180v-0.91h0.45v-1h1.06v1h0.88v0.91h-0.88v1.6a0.31,0.31,0,0,0,.34.36,1.08,1.08,0,0,0,.53-0.13v0.85A1.57,1.57,0,0,1,181.54,222.44Z"/><path class="cls-9" d="M184.91,222.46a2,2,0,0,1-2-1.94h0a2,2,0,0,1,2-2,2,2,0,0,1,2,1.94h0A2,2,0,0,1,184.91,222.46Zm1-2a1,1,0,0,0-1-1,1,1,0,0,0-1,1h0a1,1,0,0,0,1,1,1,1,0,0,0,1-1h0Z"/><path class="cls-9" d="M192.38,222.38v-2.09a0.63,0.63,0,0,0-.62-0.76,0.64,0.64,0,0,0-.64.76v2.09h-1.06v-2.09a0.63,0.63,0,0,0-.62-0.76,0.64,0.64,0,0,0-.64.76v2.09h-1.07v-3.75h1.07v0.53a1.34,1.34,0,0,1,1.11-.6,1.12,1.12,0,0,1,1.06.6,1.54,1.54,0,0,1,1.23-.6,1.2,1.2,0,0,1,1.27,1.38v2.44h-1.06Z"/><path class="cls-9" d="M196.57,222.38V222a1.44,1.44,0,0,1-1.13.48,1.16,1.16,0,0,1-1.29-1.15h0a1.26,1.26,0,0,1,1.51-1.2,2.65,2.65,0,0,1,.92.15v-0.06a0.67,0.67,0,0,0-.81-0.69,2.76,2.76,0,0,0-1,.2l-0.27-.81a3.32,3.32,0,0,1,1.46-.3,1.46,1.46,0,0,1,1.67,1.62v2.18h-1Zm0-1.51a1.65,1.65,0,0,0-.68-0.14,0.6,0.6,0,0,0-.74.52h0a0.49,0.49,0,0,0,.58.46,0.73,0.73,0,0,0,.83-0.66v-0.19Z"/><path class="cls-9" d="M199.75,222.44a1,1,0,0,1-1.09-1.13v-1.78h-0.45v-0.91h0.45v-1h1.06v1h0.88v0.91h-0.88v1.6a0.31,0.31,0,0,0,.34.36,1.08,1.08,0,0,0,.53-0.13v0.85A1.57,1.57,0,0,1,199.75,222.44Z"/><path class="cls-9" d="M201.4,218.21v-0.95h1.12v0.95H201.4Zm0,4.17v-3.75h1.06v3.75h-1.06Z"/><path class="cls-9" d="M205.34,222.46a2,2,0,0,1-2-1.94h0a2,2,0,0,1,2-2,2,2,0,0,1,2,1.94h0A2,2,0,0,1,205.34,222.46Zm1-2a1,1,0,0,0-1-1,1,1,0,0,0-1,1h0a1,1,0,0,0,1,1,1,1,0,0,0,1-1h0Z"/><path class="cls-9" d="M210.52,222.38v-2.09a0.64,0.64,0,0,0-.64-0.76,0.65,0.65,0,0,0-.67.76v2.09h-1.07v-3.75h1.07v0.53a1.33,1.33,0,0,1,1.1-.6,1.23,1.23,0,0,1,1.27,1.39v2.43h-1.06Z"/></g><path class="cls-9" d="M64.3,203h0l-0.1-.5H64v-0.1h0.5v0.1H64.3V203h0Zm0.6-.1h0l-0.2-.3v0.5H64.6v-0.6h0.1l0.2,0.3,0.2-.3h0.1v0.6H65.1v-0.5l-0.2.3h0Z"/><path class="cls-9" d="M41.1,205h0a2.9,2.9,0,0,1,4.9-2l-0.8.9a1.82,1.82,0,0,0-1.4-.6,1.67,1.67,0,0,0-1.6,1.7h0a1.6,1.6,0,0,0,1.6,1.7,1.82,1.82,0,0,0,1.4-.6l0.8,0.8a2.77,2.77,0,0,1-4.9-1.9"/><polygon class="cls-9" points="47.5 202.3 48.7 202.3 48.7 204.5 50.9 204.5 50.9 202.3 52.1 202.3 52.1 207.7 50.9 207.7 50.9 205.6 48.7 205.6 48.7 207.7 47.5 207.7 47.5 202.3"/><polygon class="cls-9" points="53.5 202.3 57.6 202.3 57.6 203.4 54.7 203.4 54.7 204.5 57.3 204.5 57.3 205.5 54.7 205.5 54.7 206.7 57.6 206.7 57.6 207.7 53.5 207.7 53.5 202.3"/><polygon class="cls-9" points="59.2 202.3 63.3 202.3 63.3 203.4 60.4 203.4 60.4 204.6 63 204.6 63 205.6 60.4 205.6 60.4 207.7 59.2 207.7 59.2 202.3"/><path class="cls-9" d="M52.3,195a3.4,3.4,0,1,1,0-6.8,3.42,3.42,0,0,1,3.3,2.5h1.3a4.64,4.64,0,0,0-4.6-3.7,4.7,4.7,0,1,0,4.6,5.7H55.6a3.4,3.4,0,0,1-3.3,2.3"/><path class="cls-9" d="M50.1,193.9a3.26,3.26,0,0,0,2.3,1v-1.4a1.61,1.61,0,0,1-1.3-.6l-1,1h0Z"/><path class="cls-9" d="M49.1,191.6a2.77,2.77,0,0,0,.3,1.3l1.2-.5a1.86,1.86,0,0,1,1.7-2.7v-1.4a3.38,3.38,0,0,0-3.2,3.3"/><path class="cls-9" d="M53.5,188.6L53,189.9a2.54,2.54,0,0,1,1,.8h1.5a3.23,3.23,0,0,0-2-2.1"/><path class="cls-9" d="M53,193.4l0.5,1.3a3.31,3.31,0,0,0,1.9-2.1H54a2.72,2.72,0,0,1-1,.8"/><path class="cls-9" d="M52.3,197.9a6.28,6.28,0,0,1-4.4-1.8L47,197a7.54,7.54,0,0,0,12.8-4.4H58.5a6.18,6.18,0,0,1-6.2,5.3"/><path class="cls-9" d="M52.3,185.3a7.13,7.13,0,0,1,3.8,1.2l0.8-1a7.83,7.83,0,0,0-4.5-1.5,7.52,7.52,0,0,0-7,4.8l1.2,0.5a6.09,6.09,0,0,1,5.7-4"/><path class="cls-9" d="M58.6,190.7h1.3a7.24,7.24,0,0,0-1.1-3.1l-1.1.7a8.54,8.54,0,0,1,.9,2.4"/><path class="cls-9" d="M57.1,190.7h1.3a6.09,6.09,0,0,0-3.8-4.8l-0.5,1.2a4.81,4.81,0,0,1,3,3.6"/><path class="cls-9" d="M52.3,186.8h0v-1.3h0a6.1,6.1,0,0,0-5.7,3.9l1.2,0.5a4.76,4.76,0,0,1,4.5-3.1"/><path class="cls-9" d="M47.5,191.6H46.2a6.16,6.16,0,0,0,3.8,5.7l0.5-1.2a5,5,0,0,1-3-4.5"/><path class="cls-9" d="M52.3,196.4v1.3a6,6,0,0,0,6-5.2H57a4.58,4.58,0,0,1-4.7,3.9"/><path class="cls-9" d="M45.4,194.6a8,8,0,0,1-.6-3h1.3a7,7,0,0,0,.5,2.5l-1.2.5h0Z"/><path class="cls-9" d="M264.1,196a2.4,2.4,0,1,1-2.4-2.4,2.31,2.31,0,0,1,2.4,2.4h0Z"/><path class="cls-9" d="M268.8,196a7,7,0,0,1-7.1,7,7.23,7.23,0,0,1-4.3-1.5l2-2a4.1,4.1,0,0,0,2.2.7,4.2,4.2,0,1,0-4.2-4.2,4.65,4.65,0,0,0,.6,2.3l-2,2a7.14,7.14,0,0,1-1.4-4.3,7,7,0,0,1,7.1-7,6.92,6.92,0,0,1,7.1,7h0Z"/><polygon class="cls-9" points="271.4 199.8 271.4 191.8 273 191.8 273 199.8 271.4 199.8"/><polygon class="cls-9" points="281.3 199.8 276.8 195.1 276.8 199.8 275.2 199.8 275.2 191.8 275.7 191.8 280.1 196.3 280.1 191.8 281.7 191.8 281.7 199.8 281.3 199.8"/><path class="cls-9" d="M286.2,196.4a3.85,3.85,0,0,1-1.2-.5,2.1,2.1,0,0,1-1-1.8,2.27,2.27,0,0,1,.6-1.6,3,3,0,0,1,1.9-.8,3.79,3.79,0,0,1,2.4.8l0.3,0.2-0.8,1.4-0.3-.2a2.53,2.53,0,0,0-1.5-.6,1.33,1.33,0,0,0-.7.3,0.62,0.62,0,0,0-.1.5c0,0.4.3,0.6,1,.8,0.1,0,.2,0,0.2.1a4,4,0,0,1,1.8,1.1,2.43,2.43,0,0,1,0,3.2,2.5,2.5,0,0,1-1.8.8,3.9,3.9,0,0,1-1.4-.2,3.87,3.87,0,0,1-1.9-1.2l1.2-1.1a2.76,2.76,0,0,0,2.2.9,0.87,0.87,0,0,0,.9-0.8,3.15,3.15,0,0,0-1.8-1.3h0Z"/><path class="cls-9" d="M293.8,195a0.8,0.8,0,0,0,0-1.6h-1V195h1Zm0-3.2a2.4,2.4,0,1,1,0,4.8h-1v3.2h-1.6v-8h2.6Z"/><path class="cls-9" d="M297.9,198.2h5.3v1.6h-5.3v-1.6h0Zm0-3.3h4.4v1.6h-4.4v-1.6h0Zm5.4-1.5h-5.4v-1.6h5.4v1.6h0Z"/><path class="cls-9" d="M310.8,193.7a2.5,2.5,0,0,0-3.9,2.1,2.47,2.47,0,0,0,4,2l1,1.2a4.19,4.19,0,1,1-2.7-7.4,3.92,3.92,0,0,1,2.6.9l-1,1.2h0Z"/><path class="cls-9" d="M161.4,203.2a2,2,0,0,1-1.5.6h0a2,2,0,0,1-2.1-2,2,2,0,0,1,2-2.1,1.87,1.87,0,0,1,2,1.9,1.93,1.93,0,0,1-.4,1.6h0Zm0.6-3.8a2.88,2.88,0,0,0-3.8,0,0.19,0.19,0,0,1-.3-0.1v-2.7a0.22,0.22,0,0,0-.2-0.2H157a0.22,0.22,0,0,0-.2.2h0v5.1a2.49,2.49,0,0,0,.1.8,3,3,0,0,0,3.1,2.4h0.1a3,3,0,0,0,2.8-1.9,3.52,3.52,0,0,0-.9-3.6h0Z"/><path class="cls-9" d="M146.9,198.7a2.72,2.72,0,0,0-2.2.5,0.19,0.19,0,0,1-.3-0.1v-2.5a0.22,0.22,0,0,0-.2-0.2h-0.7a0.22,0.22,0,0,0-.2.2v7.9a0.22,0.22,0,0,0,.2.2h0.7a0.22,0.22,0,0,0,.2-0.2v-2.9a2,2,0,0,1,.5-1.4,1.81,1.81,0,0,1,1.5-.4,1.63,1.63,0,0,1,1.6,1.5v3.3a0.22,0.22,0,0,0,.2.2h0.7a0.22,0.22,0,0,0,.2-0.2h0v-3.2a2.54,2.54,0,0,0-2.2-2.7h0Z"/><path class="cls-9" d="M164.7,198.8H164a0.22,0.22,0,0,0-.2.2v5.5a0.22,0.22,0,0,0,.2.2h0.7a0.22,0.22,0,0,0,.2-0.2V199a0.38,0.38,0,0,0-.2-0.2h0Z"/><path class="cls-9" d="M154.3,203.2a2,2,0,0,1-1.5.6h0a1.89,1.89,0,0,1-2-2,2,2,0,0,1,2-2.1h0a1.89,1.89,0,0,1,2,2,1.65,1.65,0,0,1-.5,1.5h0Zm1-3.4a3.47,3.47,0,0,0-4-.8,3.12,3.12,0,0,0,.6,5.7,2.77,2.77,0,0,0,.9.1,2.67,2.67,0,0,0,2-.9l0.2-.2v0.7a0.22,0.22,0,0,0,.2.2h0.6a0.22,0.22,0,0,0,.2-0.2h0v-3.3a4.21,4.21,0,0,0-.7-1.3h0Z"/><g class="cls-10"><path class="cls-9" d="M182.5,202.2h-0.8a0.22,0.22,0,0,0-.2.2v0.3a1,1,0,0,1-1.1,1.1,1.06,1.06,0,0,1-1.3-.9,16.2,16.2,0,0,1-.1-2.2V200a0.22,0.22,0,0,1,.2-0.2h2c0.2,0,.2-0.2.1-0.3l-0.9-.7h-1.3a0.22,0.22,0,0,1-.2-0.2v-1.1a0.22,0.22,0,0,0-.2-0.2H178a0.22,0.22,0,0,0-.2.2v5.3a2,2,0,0,0,1.6,1.8,2,2,0,0,0,.8.1h0.1a2.36,2.36,0,0,0,1.6-.7,2.16,2.16,0,0,0,.5-1.7l0.1-.1h0Z"/></g><g class="cls-10"><path class="cls-9" d="M190.5,193.8l-0.9.9c-0.1.1-.2,0-0.2-0.1v-0.3a0.1,0.1,0,0,0-.1-0.1h-0.5a0.1,0.1,0,0,0-.1.1V195a0.1,0.1,0,0,0,.1.1H189c0.1,0,.2.2,0.1,0.2l-0.9.9c-0.1.1-.1,0.1-0.2,0l-0.9-.9c-0.1-.1,0-0.2.1-0.2h0.2a0.1,0.1,0,0,0,.1-0.1v-0.7a0.1,0.1,0,0,0-.1-0.1H186a0.1,0.1,0,0,0-.1.1V195a0.1,0.1,0,0,0,.1.1h0.2c0.1,0,.2.2,0.1,0.2l-0.9.9c-0.1.1-.1,0.1-0.2,0l-0.9-.9c-0.1-.1,0-0.2.1-0.2h0.2a0.1,0.1,0,0,0,.1-0.1v-0.7a0.1,0.1,0,0,0-.1-0.1H184a0.1,0.1,0,0,0-.1.1v0.3c0,0.1-.2.2-0.2,0.1l-0.9-.9c-0.1-.1-0.1-0.1,0-0.2l0.9-.9c0.1-.1.2,0,0.2,0.1v0.3a0.1,0.1,0,0,0,.1.1h0.5a0.1,0.1,0,0,0,.1-0.1v-0.7a0.1,0.1,0,0,0-.1-0.1h-0.2c-0.1,0-.2-0.2-0.1-0.2l0.9-.9c0.1-.1.1-0.1,0.2,0l0.9,0.9c0.1,0.1,0,.2-0.1.2H186a0.1,0.1,0,0,0-.1.1v0.7a0.1,0.1,0,0,0,.1.1h1.1a0.1,0.1,0,0,0,.1-0.1v-0.7a0.1,0.1,0,0,0-.1-0.1h-0.2c-0.1,0-.2-0.2-0.1-0.2l0.9-.9c0.1-.1.1-0.1,0.2,0l0.9,0.9c0.1,0.1,0,.2-0.1.2h-0.2a0.1,0.1,0,0,0-.1.1v0.7a0.1,0.1,0,0,0,.1.1H189a0.1,0.1,0,0,0,.1-0.1v-0.3c0-.1.2-0.2,0.2-0.1l0.9,0.9c0.3,0.1.3,0.1,0.3,0.2h0Zm2.3-1.2-5.1-5.1a1.57,1.57,0,0,0-2.2,0l-5.1,5.1a1.57,1.57,0,0,0,0,2.2l5.1,5.1a1.57,1.57,0,0,0,2.2,0l5.1-5.1a1.57,1.57,0,0,0,0-2.2h0Z"/></g><path class="cls-9" d="M175.7,203.2a2,2,0,0,1-1.5.6h0a1.89,1.89,0,0,1-2-2,2,2,0,0,1,2-2.1h0a1.89,1.89,0,0,1,2,2,2.46,2.46,0,0,1-.5,1.5h0Zm1-3.4a3.47,3.47,0,0,0-4-.8,3.12,3.12,0,0,0,.6,5.7,2.77,2.77,0,0,0,.9.1,2.67,2.67,0,0,0,2-.9l0.2-.2v0.7a0.22,0.22,0,0,0,.2.2h0.6a0.22,0.22,0,0,0,.2-0.2h0v-3.3a8.79,8.79,0,0,0-.7-1.3h0Z"/><path class="cls-9" d="M170.4,202.2h-0.8a0.22,0.22,0,0,0-.2.2v0.3a1.11,1.11,0,0,1-1.1,1.1,1.06,1.06,0,0,1-1.3-.9,16.2,16.2,0,0,1-.1-2.2V200a0.22,0.22,0,0,1,.2-0.2h2.1c0.2,0,.2-0.2.1-0.3l-0.8-.7H167a0.22,0.22,0,0,1-.2-0.2v-1.1a0.22,0.22,0,0,0-.2-0.2H166a0.22,0.22,0,0,0-.2.2v5.4a1.76,1.76,0,0,0,.6,1.3,2.16,2.16,0,0,0,1.6.6h0.4a1.86,1.86,0,0,0,1.5-.9,2,2,0,0,0,.4-1.6l0.1-.1h0Z"/><path class="cls-9" d="M164.7,197.1H164a0.22,0.22,0,0,0-.2.2V198a0.22,0.22,0,0,0,.2.2h0.7a0.22,0.22,0,0,0,.2-0.2v-0.7a0.38,0.38,0,0,0-.2-0.2h0Z"/><g class="cls-3"><g class="cls-3"><path class="cls-9" d="M58.86,148.51a3.18,3.18,0,0,1-3.23-3.24v0A3.2,3.2,0,0,1,58.92,142a3.25,3.25,0,0,1,2.48,1l-0.88,1a2.33,2.33,0,0,0-1.61-.71,1.87,1.87,0,0,0-1.83,2v0a1.87,1.87,0,0,0,1.83,2,2.27,2.27,0,0,0,1.66-.74l0.88,0.89A3.22,3.22,0,0,1,58.86,148.51Z"/><path class="cls-9" d="M64.69,148.51a2.51,2.51,0,0,1-2.6-2.49v0a2.53,2.53,0,0,1,2.62-2.51A2.51,2.51,0,0,1,67.3,146v0A2.53,2.53,0,0,1,64.69,148.51ZM66,146a1.28,1.28,0,0,0-1.27-1.33A1.24,1.24,0,0,0,63.43,146v0a1.28,1.28,0,0,0,1.27,1.33A1.24,1.24,0,0,0,66,146v0Z"/><path class="cls-9" d="M71.35,148.4v-2.69a0.82,0.82,0,0,0-.83-1,0.84,0.84,0,0,0-.86,1v2.69H68.29v-4.83h1.37v0.68a1.71,1.71,0,0,1,1.41-.77,1.58,1.58,0,0,1,1.64,1.79v3.12H71.35Z"/><path class="cls-9" d="M75.53,148.48a1.24,1.24,0,0,1-1.4-1.45v-2.29H73.55v-1.17h0.58v-1.23h1.37v1.23h1.13v1.17H75.49v2.06a0.4,0.4,0,0,0,.44.47,1.39,1.39,0,0,0,.67-0.17v1.1A2,2,0,0,1,75.53,148.48Z"/><path class="cls-9" d="M82,146.46H78.63a1.12,1.12,0,0,0,1.18.95,1.58,1.58,0,0,0,1.17-.5l0.78,0.69A2.55,2.55,0,0,1,77.27,146v0a2.4,2.4,0,0,1,2.39-2.51A2.35,2.35,0,0,1,82,146.1v0C82,146.26,82,146.34,82,146.46Zm-2.33-1.88a1.08,1.08,0,0,0-1,1h2.06A1,1,0,0,0,79.65,144.58Z"/><path class="cls-9" d="M86.07,148.4v-2.69a0.82,0.82,0,0,0-.83-1,0.84,0.84,0,0,0-.86,1v2.69H83v-4.83h1.37v0.68a1.71,1.71,0,0,1,1.41-.77,1.58,1.58,0,0,1,1.64,1.79v3.12H86.07Z"/><path class="cls-9" d="M90.25,148.48a1.24,1.24,0,0,1-1.4-1.45v-2.29H88.27v-1.17h0.58v-1.23h1.37v1.23h1.13v1.17H90.22v2.06a0.4,0.4,0,0,0,.44.47,1.39,1.39,0,0,0,.67-0.17v1.1A2,2,0,0,1,90.25,148.48Z"/></g><g class="cls-3"><path class="cls-9" d="M96.12,146.39a2.58,2.58,0,0,0,1.35,2.29l-0.47.71a3.29,3.29,0,0,1,0-6l0.47,0.71A2.58,2.58,0,0,0,96.12,146.39Z"/><path class="cls-9" d="M100.44,148.48A2.47,2.47,0,0,1,97.93,146h0a2.49,2.49,0,0,1,2.56-2.54,2.53,2.53,0,0,1,1.93.76l-0.69.79a1.81,1.81,0,0,0-1.25-.55,1.45,1.45,0,0,0-1.42,1.53h0a1.46,1.46,0,0,0,1.42,1.54,1.77,1.77,0,0,0,1.29-.57l0.69,0.69A2.51,2.51,0,0,1,100.44,148.48Z"/><path class="cls-9" d="M105.57,148.4V146.3a0.64,0.64,0,0,0-.64-0.76,0.65,0.65,0,0,0-.67.76v2.09H103.2v-5.11h1.06v1.89a1.33,1.33,0,0,1,1.1-.6,1.23,1.23,0,0,1,1.27,1.39v2.43h-1.06Z"/><path class="cls-9" d="M111,146.89h-2.61a0.87,0.87,0,0,0,.92.74,1.23,1.23,0,0,0,.91-0.38l0.61,0.54a2,2,0,0,1-3.5-1.24h0a1.87,1.87,0,0,1,1.86-2,1.83,1.83,0,0,1,1.83,2h0C111.06,146.73,111.06,146.79,111,146.89Zm-1.81-1.46a0.84,0.84,0,0,0-.81.8H110A0.8,0.8,0,0,0,109.24,145.43Z"/><path class="cls-9" d="M113.47,144.13a0.35,0.35,0,0,0-.39.41v0.15h0.86v0.87H113.1v2.84H112v-2.84h-0.44v-0.87H112v-0.24a1,1,0,0,1,1.16-1.21,2.34,2.34,0,0,1,.76.11v0.88A1.33,1.33,0,0,0,113.47,144.13Z"/><path class="cls-9" d="M119,148.48a2.47,2.47,0,0,1-2.51-2.52h0a2.49,2.49,0,0,1,2.56-2.54,2.53,2.53,0,0,1,1.93.76l-0.69.79a1.81,1.81,0,0,0-1.25-.55,1.45,1.45,0,0,0-1.42,1.53h0a1.46,1.46,0,0,0,1.42,1.54,1.77,1.77,0,0,0,1.29-.57l0.69,0.69A2.51,2.51,0,0,1,119,148.48Z"/><path class="cls-9" d="M123.56,148.48a2,2,0,0,1-2-1.94h0a2,2,0,0,1,4.06,0h0A2,2,0,0,1,123.56,148.48Zm1-2a1,1,0,0,0-1-1,1,1,0,0,0-1,1h0a1,1,0,0,0,1,1,1,1,0,0,0,1-1h0Z"/><path class="cls-9" d="M128.21,148.48a2,2,0,0,1-2-1.94h0a2,2,0,0,1,4.06,0h0A2,2,0,0,1,128.21,148.48Zm1-2a1,1,0,0,0-1-1,1,1,0,0,0-1,1h0a1,1,0,0,0,1,1,1,1,0,0,0,1-1h0Z"/><path class="cls-9" d="M133.43,148.4l-1-1.53-0.37.39v1.14H131v-5.11h1.06V146l1.25-1.37h1.27l-1.43,1.48,1.48,2.28h-1.22Z"/><path class="cls-9" d="M137.4,148.47a1.44,1.44,0,0,1-1.17-.56v0.49h-1.06v-5.11h1.06v1.9a1.38,1.38,0,0,1,1.17-.61,1.77,1.77,0,0,1,1.71,1.94h0A1.76,1.76,0,0,1,137.4,148.47Zm0.64-2a0.92,0.92,0,1,0-1.83,0h0a0.92,0.92,0,1,0,1.83,0h0Z"/><path class="cls-9" d="M141.73,148.48a2,2,0,0,1-2-1.94h0a2,2,0,0,1,4.06,0h0A2,2,0,0,1,141.73,148.48Zm1-2a1,1,0,0,0-1-1,1,1,0,0,0-1,1h0a1,1,0,0,0,1,1,1,1,0,0,0,1-1h0Z"/><path class="cls-9" d="M146.38,148.48a2,2,0,0,1-2-1.94h0a2,2,0,0,1,4.06,0h0A2,2,0,0,1,146.38,148.48Zm1-2a1,1,0,0,0-1-1,1,1,0,0,0-1,1h0a1,1,0,0,0,1,1,1,1,0,0,0,1-1h0Z"/><path class="cls-9" d="M151.6,148.4l-1-1.53-0.37.39v1.14h-1.06v-5.11h1.06V146l1.25-1.37h1.27l-1.43,1.48,1.48,2.28H151.6Z"/><path class="cls-9" d="M154.64,148.47a2.63,2.63,0,0,1-1.61-.57l0.46-.7a2.12,2.12,0,0,0,1.18.45c0.31,0,.45-0.11.45-0.28h0a0.9,0.9,0,0,0-.78-0.43,1.23,1.23,0,0,1-1.12-1.13h0a1.23,1.23,0,0,1,1.37-1.19,2.6,2.6,0,0,1,1.4.43l-0.41.74a2.23,2.23,0,0,0-1-.35c-0.26,0-.39.11-0.39,0.26h0a1,1,0,0,0,.76.45,1.29,1.29,0,0,1,1.13,1.11h0A1.23,1.23,0,0,1,154.64,148.47Z"/><path class="cls-9" d="M157.23,148.4H156.8v-1.12h1.13v0.95a1.15,1.15,0,0,1-1.3,1.31l-0.09-.44A0.63,0.63,0,0,0,157.23,148.4Z"/><path class="cls-9" d="M164.12,148.4v-2h-2v2h-1.08v-4.9h1.08v1.94h2V143.5h1.08v4.9h-1.08Z"/><path class="cls-9" d="M168.46,148.4V148a1.44,1.44,0,0,1-1.13.48,1.16,1.16,0,0,1-1.29-1.15h0a1.26,1.26,0,0,1,1.51-1.2,2.65,2.65,0,0,1,.92.15V146.2a0.67,0.67,0,0,0-.81-0.69,2.76,2.76,0,0,0-1,.2l-0.27-.81a3.32,3.32,0,0,1,1.46-.3,1.46,1.46,0,0,1,1.67,1.62v2.18h-1Zm0-1.51a1.65,1.65,0,0,0-.68-0.14,0.6,0.6,0,0,0-.74.52h0a0.49,0.49,0,0,0,.58.46,0.73,0.73,0,0,0,.83-0.66v-0.19Z"/><path class="cls-9" d="M172.64,148.47a1.44,1.44,0,0,1-1.17-.56v0.49h-1.06v-5.11h1.06v1.9a1.38,1.38,0,0,1,1.17-.61,1.77,1.77,0,0,1,1.71,1.94h0A1.76,1.76,0,0,1,172.64,148.47Zm0.64-2a0.92,0.92,0,1,0-1.83,0h0a0.92,0.92,0,1,0,1.83,0h0Z"/><path class="cls-9" d="M175.15,144.23v-0.95h1.12v0.95h-1.12Zm0,4.17v-3.75h1.06v3.75h-1.06Z"/><path class="cls-9" d="M178.51,148.46a1,1,0,0,1-1.09-1.13v-1.78H177v-0.91h0.45v-1h1.06v1h0.88v0.91h-0.88v1.6a0.31,0.31,0,0,0,.34.36,1.08,1.08,0,0,0,.53-0.13v0.85A1.57,1.57,0,0,1,178.51,148.46Z"/><path class="cls-9" d="M182.35,148.4V148a1.45,1.45,0,0,1-1.13.48,1.16,1.16,0,0,1-1.29-1.15h0a1.26,1.26,0,0,1,1.51-1.2,2.65,2.65,0,0,1,.92.15V146.2a0.67,0.67,0,0,0-.81-0.69,2.77,2.77,0,0,0-1,.2l-0.27-.81a3.32,3.32,0,0,1,1.46-.3,1.46,1.46,0,0,1,1.67,1.62v2.18h-1Zm0-1.51a1.65,1.65,0,0,0-.68-0.14,0.6,0.6,0,0,0-.74.52h0a0.5,0.5,0,0,0,.58.46,0.73,0.73,0,0,0,.83-0.66v-0.19Z"/><path class="cls-9" d="M185.53,148.46a1,1,0,0,1-1.09-1.13v-1.78H184v-0.91h0.45v-1h1.06v1h0.88v0.91H185.5v1.6a0.31,0.31,0,0,0,.34.36,1.08,1.08,0,0,0,.53-0.13v0.85A1.57,1.57,0,0,1,185.53,148.46Z"/><path class="cls-9" d="M191.27,146.93h-0.82v1.47h-1.08v-4.9h2a1.68,1.68,0,0,1,1.88,1.69h0A1.75,1.75,0,0,1,191.27,146.93Zm0.89-1.72a0.75,0.75,0,0,0-.88-0.74h-0.83V146h0.85a0.76,0.76,0,0,0,.86-0.74h0Z"/><path class="cls-9" d="M194,148.4v-5.11h1.06v5.11H194Z"/><path class="cls-9" d="M198.25,148.4V148a1.44,1.44,0,0,1-1.13.48,1.16,1.16,0,0,1-1.29-1.15h0a1.26,1.26,0,0,1,1.51-1.2,2.65,2.65,0,0,1,.92.15V146.2a0.67,0.67,0,0,0-.8-0.69,2.77,2.77,0,0,0-1,.2l-0.27-.81a3.31,3.31,0,0,1,1.46-.3,1.46,1.46,0,0,1,1.67,1.62v2.18h-1Zm0-1.51a1.65,1.65,0,0,0-.68-0.14,0.6,0.6,0,0,0-.74.52h0a0.49,0.49,0,0,0,.58.46,0.73,0.73,0,0,0,.83-0.66v-0.19Z"/><path class="cls-9" d="M202.57,148.4V146.3a0.64,0.64,0,0,0-.64-0.76,0.65,0.65,0,0,0-.67.76v2.09H200.2v-3.75h1.07v0.53a1.33,1.33,0,0,1,1.1-.6,1.23,1.23,0,0,1,1.27,1.39v2.43h-1.06Z"/><path class="cls-9" d="M205.88,148.47a2.63,2.63,0,0,1-1.61-.57l0.46-.7a2.12,2.12,0,0,0,1.18.45c0.31,0,.45-0.11.45-0.28h0a0.9,0.9,0,0,0-.78-0.43,1.23,1.23,0,0,1-1.12-1.13h0a1.23,1.23,0,0,1,1.37-1.19,2.59,2.59,0,0,1,1.4.43l-0.41.74a2.23,2.23,0,0,0-1-.35c-0.26,0-.39.11-0.39,0.26h0a1,1,0,0,0,.76.45,1.29,1.29,0,0,1,1.13,1.11h0A1.23,1.23,0,0,1,205.88,148.47Z"/><path class="cls-9" d="M208.46,148.4H208v-1.12h1.13v0.95a1.15,1.15,0,0,1-1.3,1.31l-0.09-.44A0.63,0.63,0,0,0,208.46,148.4Z"/><path class="cls-9" d="M214.58,148.48a2.47,2.47,0,0,1-2.51-2.52h0a2.49,2.49,0,0,1,2.56-2.54,2.53,2.53,0,0,1,1.93.76l-0.69.79a1.81,1.81,0,0,0-1.25-.55,1.45,1.45,0,0,0-1.42,1.53h0a1.46,1.46,0,0,0,1.42,1.54,1.77,1.77,0,0,0,1.29-.57l0.69,0.69A2.51,2.51,0,0,1,214.58,148.48Z"/><path class="cls-9" d="M219.11,148.48a2,2,0,0,1-2-1.94h0a2,2,0,0,1,2-2,2,2,0,0,1,2,1.94h0A2,2,0,0,1,219.11,148.48Zm1-2a1,1,0,0,0-1-1,1,1,0,0,0-1,1h0a1,1,0,0,0,1,1,1,1,0,0,0,1-1h0Z"/><path class="cls-9" d="M226.58,148.4V146.3a0.63,0.63,0,0,0-.62-0.76,0.64,0.64,0,0,0-.64.76v2.09h-1.06V146.3a0.63,0.63,0,0,0-.62-0.76,0.64,0.64,0,0,0-.64.76v2.09h-1.07v-3.75H223v0.53a1.34,1.34,0,0,1,1.11-.6,1.12,1.12,0,0,1,1.06.6,1.54,1.54,0,0,1,1.23-.6,1.2,1.2,0,0,1,1.27,1.38v2.44h-1.07Z"/><path class="cls-9" d="M230.8,148.47a1.44,1.44,0,0,1-1.17-.56v1.61h-1.06v-4.87h1.06v0.54a1.38,1.38,0,0,1,1.17-.61,1.77,1.77,0,0,1,1.71,1.94h0A1.76,1.76,0,0,1,230.8,148.47Zm0.64-2a0.92,0.92,0,1,0-1.83,0h0a0.92,0.92,0,1,0,1.83,0h0Z"/><path class="cls-9" d="M233.34,148.4v-5.11h1.06v5.11h-1.06Z"/><path class="cls-9" d="M235.43,144.23v-0.95h1.12v0.95h-1.12Zm0,4.17v-3.75h1.06v3.75h-1.06Z"/><path class="cls-9" d="M239.72,148.4V148a1.45,1.45,0,0,1-1.13.48,1.16,1.16,0,0,1-1.29-1.15h0a1.26,1.26,0,0,1,1.51-1.2,2.65,2.65,0,0,1,.92.15V146.2a0.67,0.67,0,0,0-.81-0.69,2.77,2.77,0,0,0-1,.2l-0.27-.81a3.32,3.32,0,0,1,1.46-.3,1.46,1.46,0,0,1,1.67,1.62v2.18h-1Zm0-1.51a1.65,1.65,0,0,0-.68-0.14,0.6,0.6,0,0,0-.74.52h0a0.5,0.5,0,0,0,.58.46,0.73,0.73,0,0,0,.83-0.66v-0.19Z"/><path class="cls-9" d="M244,148.4V146.3a0.64,0.64,0,0,0-.64-0.76,0.65,0.65,0,0,0-.66.76v2.09h-1.07v-3.75h1.07v0.53a1.33,1.33,0,0,1,1.1-.6A1.23,1.23,0,0,1,245.1,146v2.43H244Z"/><path class="cls-9" d="M247.8,148.48a1.92,1.92,0,0,1-2-1.94h0a1.93,1.93,0,0,1,2-2,1.84,1.84,0,0,1,1.5.63l-0.65.7a1.1,1.1,0,0,0-.86-0.41,1,1,0,0,0-.91,1h0a1,1,0,0,0,1,1,1.19,1.19,0,0,0,.86-0.4l0.62,0.63A1.89,1.89,0,0,1,247.8,148.48Z"/><path class="cls-9" d="M253.41,146.89h-2.61a0.87,0.87,0,0,0,.92.74,1.23,1.23,0,0,0,.91-0.38l0.61,0.54a2,2,0,0,1-3.49-1.24h0a1.87,1.87,0,0,1,1.86-2,1.83,1.83,0,0,1,1.83,2h0C253.42,146.73,253.41,146.79,253.41,146.89Zm-1.81-1.46a0.84,0.84,0,0,0-.81.8h1.6A0.8,0.8,0,0,0,251.59,145.43Z"/><path class="cls-9" d="M258.32,146.93H257.5v1.47h-1.08v-4.9h2a1.68,1.68,0,0,1,1.88,1.69h0A1.75,1.75,0,0,1,258.32,146.93Zm0.89-1.72a0.74,0.74,0,0,0-.87-0.74H257.5V146h0.85a0.76,0.76,0,0,0,.85-0.74h0Z"/><path class="cls-9" d="M263.19,145.69A1.11,1.11,0,0,0,262,147v1.39H261v-3.75H262v0.76a1.16,1.16,0,0,1,1.2-.83v1.11h-0.06Z"/><path class="cls-9" d="M265.65,148.48a2,2,0,0,1-2-1.94h0a2,2,0,0,1,2-2,2,2,0,0,1,2,1.94h0A2,2,0,0,1,265.65,148.48Zm1-2a1,1,0,0,0-1-1,1,1,0,0,0-1,1h0a1,1,0,0,0,1,1,1,1,0,0,0,1-1h0Z"/><path class="cls-9" d="M270.07,144.13a0.35,0.35,0,0,0-.39.41v0.15h0.86v0.87H269.7v2.84h-1.07v-2.84H268.2v-0.87h0.44v-0.24a1,1,0,0,1,1.16-1.21,2.34,2.34,0,0,1,.76.11v0.88A1.33,1.33,0,0,0,270.07,144.13Z"/><path class="cls-9" d="M271.15,144.23v-0.95h1.12v0.95h-1.12Zm0,4.17v-3.75h1.06v3.75h-1.06Z"/><path class="cls-9" d="M273.29,148.4v-5.11h1.06v5.11h-1.06Z"/><path class="cls-9" d="M278.84,146.89h-2.61a0.87,0.87,0,0,0,.92.74,1.23,1.23,0,0,0,.91-0.38l0.61,0.54a2,2,0,0,1-3.49-1.24h0a1.87,1.87,0,0,1,1.86-2,1.83,1.83,0,0,1,1.83,2h0C278.86,146.73,278.85,146.79,278.84,146.89ZM277,145.43a0.84,0.84,0,0,0-.81.8h1.6A0.8,0.8,0,0,0,277,145.43Z"/><path class="cls-9" d="M281,148.47a2.63,2.63,0,0,1-1.61-.57l0.46-.7a2.12,2.12,0,0,0,1.18.45c0.31,0,.45-0.11.45-0.28h0a0.9,0.9,0,0,0-.78-0.43,1.23,1.23,0,0,1-1.12-1.13h0a1.23,1.23,0,0,1,1.37-1.19,2.59,2.59,0,0,1,1.4.43l-0.41.74a2.23,2.23,0,0,0-1-.35c-0.26,0-.39.11-0.39,0.26h0a1,1,0,0,0,.76.45,1.29,1.29,0,0,1,1.13,1.11h0A1.23,1.23,0,0,1,281,148.47Z"/><path class="cls-9" d="M283.31,149.39l-0.47-.71a2.62,2.62,0,0,0,0-4.58l0.47-.71A3.29,3.29,0,0,1,283.31,149.39Z"/></g></g></svg>