<svg id="Layer_1" data-name="Layer 1" xmlns="http://www.w3.org/2000/svg" viewBox="0 0 472.9 286"><defs><style>.cls-1,.cls-2,.cls-7{fill:none;}.cls-2{stroke:#f08921;stroke-width:3px;}.cls-2,.cls-7,.cls-9{stroke-miterlimit:10;}.cls-3{fill:#f08921;}.cls-4{fill:#59b8b3;}.cls-5{fill:#fff;}.cls-6{fill:#6cb2e2;}.cls-7{stroke:#666;stroke-width:2px;}.cls-8,.cls-9{fill:#445464;}.cls-9{stroke:#000;stroke-width:0.25px;}</style></defs><title>automate-scenario-architecture</title><line class="cls-1" x1="236.9" y1="143.3" x2="236.9" y2="175.2"/><line class="cls-2" x1="236.9" y1="143.3" x2="236.9" y2="168.74"/><polygon class="cls-3" points="232.41 167.43 236.9 175.2 241.39 167.43 232.41 167.43"/><rect class="cls-4" x="399.9" y="214.5" width="63.7" height="63.7"/><path class="cls-5" d="M447.9,258.3H415.5a1.16,1.16,0,0,1-1.2-1.12s0-.05,0-.08v-9.2a1.16,1.16,0,0,1,1.12-1.2H447.9a1.16,1.16,0,0,1,1.2,1.12s0,.05,0,.08v9.2a1.16,1.16,0,0,1-1.12,1.2Zm-31.1-2.4h30V249h-30v6.9Z"/><path class="cls-5" d="M420,251.1a1.4,1.4,0,1,0,1.4,1.4h0a1.43,1.43,0,0,0-1.4-1.4Z"/><path class="cls-5" d="M424.5,251.1a1.4,1.4,0,1,0,1.4,1.4h0a1.37,1.37,0,0,0-1.34-1.4Z"/><path class="cls-5" d="M429.1,251.1a1.4,1.4,0,1,0,1.4,1.4h0a1.43,1.43,0,0,0-1.4-1.4Z"/><path class="cls-5" d="M447.9,245.7H415.5a1.16,1.16,0,0,1-1.2-1.12s0-.05,0-.08v-9.2a1.16,1.16,0,0,1,1.12-1.2H447.9a1.16,1.16,0,0,1,1.2,1.12s0,.05,0,.08v9.2a1.16,1.16,0,0,1-1.12,1.2Zm-31.1-2.4h30v-6.9h-30v6.9Z"/><path class="cls-5" d="M420,238.5a1.4,1.4,0,1,0,1.4,1.4h0a1.43,1.43,0,0,0-1.4-1.4Z"/><path class="cls-5" d="M424.5,238.5a1.4,1.4,0,1,0,1.4,1.4h0a1.37,1.37,0,0,0-1.34-1.4Z"/><path class="cls-5" d="M429.1,238.5a1.4,1.4,0,1,0,1.4,1.4h0a1.43,1.43,0,0,0-1.4-1.4Z"/><path class="cls-5" d="M447.9,233.1H415.5a1.16,1.16,0,0,1-1.2-1.12s0-.05,0-.08v-9.2a1.16,1.16,0,0,1,1.12-1.2H447.9a1.16,1.16,0,0,1,1.2,1.12s0,.05,0,.08v9.2a1.16,1.16,0,0,1-1.12,1.2Zm-31.1-2.4h30v-6.9h-30v6.9Z"/><path class="cls-5" d="M420,225.9a1.4,1.4,0,1,0,1.4,1.4h0a1.43,1.43,0,0,0-1.4-1.4Z"/><path class="cls-5" d="M424.5,225.9a1.4,1.4,0,1,0,1.4,1.4h0a1.37,1.37,0,0,0-1.34-1.4Z"/><path class="cls-5" d="M429.1,225.9a1.4,1.4,0,1,0,1.4,1.4h0a1.43,1.43,0,0,0-1.4-1.4Z"/><rect class="cls-4" x="399.9" y="146.5" width="63.7" height="63.7"/><path class="cls-5" d="M447.9,190.3H415.5a1.16,1.16,0,0,1-1.2-1.12s0-.05,0-.08v-9.2a1.16,1.16,0,0,1,1.12-1.2H447.9a1.16,1.16,0,0,1,1.2,1.12s0,.05,0,.08v9.2a1.22,1.22,0,0,1-1.2,1.2Zm-31.1-2.4h30V181h-30v6.9h0Z"/><path class="cls-5" d="M420,183a1.4,1.4,0,1,0,1.4,1.4h0A1.43,1.43,0,0,0,420,183Z"/><path class="cls-5" d="M424.5,183a1.4,1.4,0,1,0,1.4,1.4h0a1.37,1.37,0,0,0-1.34-1.4Z"/><path class="cls-5" d="M429.1,183a1.4,1.4,0,1,0,1.4,1.4h0a1.43,1.43,0,0,0-1.4-1.4Z"/><path class="cls-5" d="M447.9,177.7H415.5a1.16,1.16,0,0,1-1.2-1.12s0-.05,0-.08v-9.2a1.16,1.16,0,0,1,1.12-1.2H447.9a1.16,1.16,0,0,1,1.2,1.12s0,.05,0,.08v9.2a1.22,1.22,0,0,1-1.2,1.2Zm-31.1-2.4h30v-6.9h-30v6.9Z"/><path class="cls-5" d="M420,170.4a1.4,1.4,0,1,0,1.4,1.4h0a1.43,1.43,0,0,0-1.4-1.4Z"/><path class="cls-5" d="M424.5,170.4a1.4,1.4,0,1,0,1.4,1.4h0a1.37,1.37,0,0,0-1.34-1.4Z"/><path class="cls-5" d="M429.1,170.4a1.4,1.4,0,1,0,1.4,1.4h0a1.43,1.43,0,0,0-1.4-1.4Z"/><path class="cls-5" d="M447.9,165.1H415.5a1.16,1.16,0,0,1-1.2-1.12s0-.05,0-.08v-9.2a1.16,1.16,0,0,1,1.12-1.2H447.9a1.16,1.16,0,0,1,1.2,1.12s0,.05,0,.08v9.2a1.22,1.22,0,0,1-1.2,1.2Zm-31.1-2.4h30v-6.9h-30v6.9Z"/><path class="cls-5" d="M420,157.9a1.4,1.4,0,1,0,1.4,1.4h0a1.43,1.43,0,0,0-1.4-1.4Z"/><path class="cls-5" d="M424.5,157.9a1.4,1.4,0,1,0,1.4,1.4h0a1.37,1.37,0,0,0-1.34-1.4Z"/><path class="cls-5" d="M429.1,157.9a1.4,1.4,0,1,0,1.4,1.4h0a1.43,1.43,0,0,0-1.4-1.4Z"/><rect class="cls-4" x="399.9" y="78.5" width="63.7" height="63.7"/><path class="cls-5" d="M447.9,122.2H415.5a1.16,1.16,0,0,1-1.2-1.12s0-.05,0-.08v-9.2a1.16,1.16,0,0,1,1.12-1.2H447.9a1.16,1.16,0,0,1,1.2,1.12s0,.05,0,.08V121a1.16,1.16,0,0,1-1.12,1.2Zm-31.1-2.3h30V113h-30v6.9Z"/><path class="cls-5" d="M420,115a1.4,1.4,0,1,0,1.4,1.4h0A1.43,1.43,0,0,0,420,115Z"/><path class="cls-5" d="M424.5,115a1.4,1.4,0,1,0,1.4,1.4h0a1.37,1.37,0,0,0-1.34-1.4Z"/><path class="cls-5" d="M429.1,115a1.4,1.4,0,1,0,1.4,1.4h0a1.43,1.43,0,0,0-1.4-1.4Z"/><path class="cls-5" d="M447.9,109.6H415.5a1.16,1.16,0,0,1-1.2-1.12s0-.05,0-.08V99.2a1.16,1.16,0,0,1,1.12-1.2H447.9a1.16,1.16,0,0,1,1.2,1.12s0,.05,0,.08v9.2a1.16,1.16,0,0,1-1.12,1.2Zm-31.1-2.3h30v-6.9h-30v6.9Z"/><path class="cls-5" d="M420,102.4a1.4,1.4,0,1,0,1.4,1.4h0a1.43,1.43,0,0,0-1.4-1.4Z"/><path class="cls-5" d="M424.5,102.4a1.4,1.4,0,1,0,1.4,1.4h0a1.37,1.37,0,0,0-1.34-1.4Z"/><path class="cls-5" d="M429.1,102.4a1.4,1.4,0,1,0,1.4,1.4h0a1.43,1.43,0,0,0-1.4-1.4Z"/><path class="cls-5" d="M447.9,97H415.5a1.16,1.16,0,0,1-1.2-1.12s0-.05,0-.08V86.6a1.16,1.16,0,0,1,1.12-1.2H447.9a1.16,1.16,0,0,1,1.2,1.12s0,.05,0,.08v9.2A1.16,1.16,0,0,1,448,97Zm-31.1-2.3h30V87.8h-30v6.9Z"/><path class="cls-5" d="M420,89.8a1.4,1.4,0,1,0,1.4,1.4h0a1.51,1.51,0,0,0-1.4-1.4Z"/><path class="cls-5" d="M424.5,89.8a1.4,1.4,0,1,0,1.4,1.4h0a1.43,1.43,0,0,0-1.4-1.4Z"/><path class="cls-5" d="M429.1,89.8a1.4,1.4,0,1,0,1.4,1.4h0a1.51,1.51,0,0,0-1.4-1.4Z"/><rect class="cls-4" x="399.9" y="10.5" width="63.7" height="63.7"/><path class="cls-5" d="M447.9,54.2H415.5a1.16,1.16,0,0,1-1.2-1.12s0-.05,0-.08V43.8a1.16,1.16,0,0,1,1.12-1.2H447.9a1.16,1.16,0,0,1,1.2,1.12s0,.05,0,.08V53A1.16,1.16,0,0,1,448,54.2Zm-31.1-2.4h30V44.9h-30v6.9Z"/><path class="cls-5" d="M420,47a1.4,1.4,0,1,0,1.4,1.4h0A1.43,1.43,0,0,0,420,47Z"/><path class="cls-5" d="M424.5,47a1.4,1.4,0,1,0,1.4,1.4h0a1.37,1.37,0,0,0-1.34-1.4Z"/><path class="cls-5" d="M429.1,47a1.4,1.4,0,1,0,1.4,1.4h0a1.43,1.43,0,0,0-1.4-1.4Z"/><path class="cls-5" d="M447.9,41.6H415.5a1.16,1.16,0,0,1-1.2-1.12s0-.05,0-.08V31.2a1.16,1.16,0,0,1,1.12-1.2H447.9a1.16,1.16,0,0,1,1.2,1.12s0,.05,0,.08v9.2A1.16,1.16,0,0,1,448,41.6Zm-31.1-2.4h30V32.3h-30v6.9Z"/><path class="cls-5" d="M420,34.4a1.4,1.4,0,1,0,1.4,1.4h0a1.43,1.43,0,0,0-1.4-1.4Z"/><path class="cls-5" d="M424.5,34.4a1.4,1.4,0,1,0,1.4,1.4h0a1.37,1.37,0,0,0-1.34-1.4Z"/><path class="cls-5" d="M429.1,34.4a1.4,1.4,0,1,0,1.4,1.4h0a1.43,1.43,0,0,0-1.4-1.4Z"/><path class="cls-5" d="M447.9,29H415.5a1.16,1.16,0,0,1-1.2-1.12s0-.05,0-.08V18.6a1.16,1.16,0,0,1,1.12-1.2H447.9a1.16,1.16,0,0,1,1.2,1.12s0,.05,0,.08v9.2A1.16,1.16,0,0,1,448,29Zm-31.1-2.4h30V19.7h-30v6.9Z"/><path class="cls-5" d="M420,21.8a1.4,1.4,0,1,0,1.4,1.4h0a1.43,1.43,0,0,0-1.4-1.4Z"/><path class="cls-5" d="M424.5,21.8a1.4,1.4,0,1,0,1.4,1.4h0a1.37,1.37,0,0,0-1.34-1.4Z"/><path class="cls-5" d="M429.1,21.8a1.4,1.4,0,1,0,1.4,1.4h0a1.43,1.43,0,0,0-1.4-1.4Z"/><polygon class="cls-6" points="142.7 164.4 134.2 164.4 134.2 155.9 139.2 155.9 139.2 159.4 142.7 159.4 142.7 164.4"/><path class="cls-6" d="M139.2,147.6h-5V135.5h5Zm0-18.1h-5V117.4h5Zm0-18.1h-5V99.3h5v12.1Zm0-18.2h-5V81.1h5Zm0-18.1h-5V63h5Zm0-18.1h-5V44.9h5Zm0-18.1h-5V26.8h5Z"/><polygon class="cls-6" points="139.2 18.9 134.2 18.9 134.2 10.4 142.7 10.4 142.7 15.4 139.2 15.4 139.2 18.9"/><rect class="cls-6" x="313.5" y="159.4" width="12.2" height="5"/><rect class="cls-6" x="295.2" y="159.4" width="12.2" height="5"/><rect class="cls-6" x="276.9" y="159.4" width="12.2" height="5"/><rect class="cls-6" x="350.1" y="159.4" width="12.2" height="5"/><rect class="cls-6" x="331.8" y="159.4" width="12.2" height="5"/><rect class="cls-6" x="185.4" y="159.4" width="12.2" height="5"/><rect class="cls-6" x="240.3" y="159.4" width="12.2" height="5"/><rect class="cls-6" x="222" y="159.4" width="12.2" height="5"/><rect class="cls-6" x="203.7" y="159.4" width="12.2" height="5"/><rect class="cls-6" x="167.1" y="159.4" width="12.2" height="5"/><rect class="cls-6" x="148.8" y="159.4" width="12.2" height="5"/><rect class="cls-6" x="258.6" y="159.4" width="12.2" height="5"/><rect class="cls-6" x="185.4" y="10.4" width="12.2" height="5"/><rect class="cls-6" x="148.8" y="10.4" width="12.2" height="5"/><rect class="cls-6" x="331.8" y="10.4" width="12.2" height="5"/><rect class="cls-6" x="167.1" y="10.4" width="12.2" height="5"/><rect class="cls-6" x="313.5" y="10.4" width="12.2" height="5"/><rect class="cls-6" x="295.2" y="10.4" width="12.2" height="5"/><rect class="cls-6" x="258.6" y="10.4" width="12.2" height="5"/><rect class="cls-6" x="240.3" y="10.4" width="12.2" height="5"/><rect class="cls-6" x="203.7" y="10.4" width="12.2" height="5"/><rect class="cls-6" x="222" y="10.4" width="12.2" height="5"/><rect class="cls-6" x="276.9" y="10.4" width="12.2" height="5"/><rect class="cls-6" x="350.1" y="10.4" width="12.2" height="5"/><polygon class="cls-6" points="372.4 159.4 368.9 159.4 368.9 164.4 377.4 164.4 377.4 155.9 372.4 155.9 372.4 159.4"/><polygon class="cls-6" points="368.9 10.4 368.9 15.4 372.4 15.4 372.4 18.9 377.4 18.9 377.4 10.4 368.9 10.4"/><rect class="cls-6" x="372.4" y="117.4" width="5" height="12.1"/><rect class="cls-6" x="372.4" y="135.5" width="5" height="12.1"/><rect class="cls-6" x="372.4" y="99.3" width="5" height="12.1"/><rect class="cls-6" x="372.4" y="26.8" width="5" height="12.1"/><rect class="cls-6" x="372.4" y="44.9" width="5" height="12.1"/><rect class="cls-6" x="372.4" y="81.2" width="5" height="12.1"/><rect class="cls-6" x="372.4" y="63" width="5" height="12.1"/><line class="cls-1" x1="384.8" y1="42.35" x2="399.8" y2="42.35"/><line class="cls-2" x1="384.8" y1="42.35" x2="393.34" y2="42.35"/><polygon class="cls-3" points="392.03 46.84 399.8 42.35 392.03 37.86 392.03 46.84"/><line class="cls-1" x1="387.09" y1="110.8" x2="400.41" y2="109.9"/><line class="cls-2" x1="387.09" y1="110.8" x2="393.96" y2="110.34"/><polygon class="cls-3" points="392.96 114.9 400.41 109.9 392.35 105.95 392.96 114.9"/><line class="cls-1" x1="386.59" y1="177.7" x2="399.9" y2="177.7"/><line class="cls-2" x1="386.59" y1="177.7" x2="393.44" y2="177.7"/><polygon class="cls-3" points="392.13 182.19 399.9 177.7 392.13 173.21 392.13 182.19"/><line class="cls-1" x1="386.59" y1="241.3" x2="399.9" y2="241.3"/><line class="cls-2" x1="386.59" y1="241.3" x2="393.44" y2="241.3"/><polygon class="cls-3" points="392.13 245.79 399.9 241.3 392.13 236.81 392.13 245.79"/><rect class="cls-7" x="1" y="1" width="470.9" height="284"/><rect class="cls-8" x="221.7" y="175.2" width="78" height="79"/><rect class="cls-9" x="229.3" y="183.2" width="78" height="79"/><rect class="cls-3" x="8.7" y="23.9" width="92.8" height="99.8"/><path class="cls-5" d="M84.8,81.3H24.4a2.8,2.8,0,0,1-2.7-2.9h0V37a2.74,2.74,0,0,1,2.58-2.9H84.8A2.8,2.8,0,0,1,87.5,37h0V78.3a2.83,2.83,0,0,1-2.65,3ZM27.2,75.4H82.1V40H27.2V75.4Z"/><path class="cls-5" d="M79.4,73.9H29.9a1.45,1.45,0,0,1-1.4-1.5h0V42.9a1.45,1.45,0,0,1,1.4-1.5H79.3a1.45,1.45,0,0,1,1.4,1.5h0V72.5a1.42,1.42,0,0,1-1.3,1.4h0Zm-48.1-3H78V44.4H31.3V70.9Z"/><path class="cls-5" d="M93.3,89.9H16.9A2.8,2.8,0,0,1,14.2,87h0a2.74,2.74,0,0,1,2.58-2.9H93.3A2.8,2.8,0,0,1,96,87h0a2.74,2.74,0,0,1-2.58,2.9Z"/><rect class="cls-6" x="256.6" y="42" width="101.3" height="101.3"/><path class="cls-5" d="M333.5,111H277.7a2.11,2.11,0,0,1-2.1-2.1V93a2.11,2.11,0,0,1,2.1-2.1h55.8a2.11,2.11,0,0,1,2.1,2.1v15.9a2.18,2.18,0,0,1-2.1,2.1h0Zm-53.8-4.1h51.7V95.1H279.7v11.8h0Z"/><path class="cls-5" d="M285.3,98.5a2.4,2.4,0,1,0,2.4,2.4h0a2.43,2.43,0,0,0-2.4-2.4Z"/><path class="cls-5" d="M293.1,98.5a2.4,2.4,0,1,0,2.4,2.4h0a2.37,2.37,0,0,0-2.34-2.4Z"/><path class="cls-5" d="M300.9,98.5a2.4,2.4,0,1,0,2.4,2.4h0A2.37,2.37,0,0,0,301,98.5Z"/><path class="cls-5" d="M333.5,89.2H277.7a2.11,2.11,0,0,1-2.1-2.1V71.2a2.11,2.11,0,0,1,2.1-2.1h55.8a2.11,2.11,0,0,1,2.1,2.1V87.1a2,2,0,0,1-1.89,2.1h-.21Zm-53.8-4h51.7V73.4H279.7V85.2h0Z"/><path class="cls-5" d="M285.3,76.8a2.4,2.4,0,1,0,2.4,2.4h0a2.5,2.5,0,0,0-2.4-2.4Z"/><path class="cls-5" d="M293.1,76.8a2.4,2.4,0,1,0,2.4,2.4h0a2.43,2.43,0,0,0-2.4-2.4Z"/><path class="cls-5" d="M300.9,76.8a2.4,2.4,0,1,0,2.4,2.4h0a2.43,2.43,0,0,0-2.4-2.4Z"/><path class="cls-5" d="M333.5,67.6H277.7a2.11,2.11,0,0,1-2.1-2.1V49.6a2.11,2.11,0,0,1,2.1-2.1h55.8a2.11,2.11,0,0,1,2.1,2.1V65.5a2.18,2.18,0,0,1-2.1,2.1h0Zm-53.8-4.1h51.7V51.6H279.7V63.5h0Z"/><path class="cls-5" d="M285.3,55.1a2.37,2.37,0,0,0-2.4,2.34s0,0,0,.06a2.31,2.31,0,0,0,2.22,2.4h.18a2.37,2.37,0,0,0,2.4-2.34s0,0,0-.06a2.43,2.43,0,0,0-2.4-2.4Z"/><path class="cls-5" d="M293.1,55.1a2.37,2.37,0,0,0-2.4,2.34s0,0,0,.06a2.31,2.31,0,0,0,2.22,2.4h.18a2.4,2.4,0,0,0,0-4.8Z"/><path class="cls-5" d="M300.9,55.1a2.37,2.37,0,0,0-2.4,2.34s0,0,0,.06a2.31,2.31,0,0,0,2.22,2.4h.18a2.37,2.37,0,0,0,2.4-2.34s0,0,0-.06a2.31,2.31,0,0,0-2.22-2.4Z"/><path class="cls-6" d="M334.1,99.2a9.4,9.4,0,1,1,9.4-9.4h0a9.39,9.39,0,0,1-9.38,9.4Z"/><path class="cls-5" d="M334.1,82.8a7,7,0,1,1-7,7,7,7,0,0,1,7-7m0-4.8a11.8,11.8,0,1,0,11.8,11.8h0A11.76,11.76,0,0,0,334.18,78Z"/><path class="cls-5" d="M329.3,89.8h0a5.18,5.18,0,0,1,5.05-5.3h.35a5,5,0,0,1,4,1.6l-1.4,1.7a3.81,3.81,0,0,0-2.6-1.1,3,3,0,0,0-3,3q0,.1,0,.21h0a3,3,0,0,0,2.79,3.19h.21a3.78,3.78,0,0,0,2.7-1.2l1.4,1.4a5.45,5.45,0,0,1-9.5-3.5Z"/><rect class="cls-6" x="149.9" y="41.1" width="101.3" height="101.3"/><path class="cls-5" d="M170.3,60.9h31.4V85.7H170.3V60.9m-6.1-6V91.8h43.4V54.9Z"/><path class="cls-5" d="M188.9,101.4h16.5a3,3,0,0,0,3-3,3.08,3.08,0,0,0-3-3H188.9a3,3,0,0,0,0,6Z"/><path class="cls-5" d="M176,99.9a2.5,2.5,0,1,1-2.5,2.5h0A2.48,2.48,0,0,1,176,99.9h0m0-5.1a7.7,7.7,0,0,0,0,15.4h0a7.7,7.7,0,0,0,0-15.4Z"/><path class="cls-5" d="M217.7,72.7h6.9L230.9,85v7a16.84,16.84,0,0,0-13.1-6.4l-.1-12.9m-6.1-6V93.4a11.15,11.15,0,0,1,6-1.8,10.68,10.68,0,0,1,10.7,9.7h8.5V83.6l-8.6-16.9H211.6Z"/><path class="cls-5" d="M217.6,99.9a2.5,2.5,0,1,1-2.5,2.5h0a2.48,2.48,0,0,1,2.46-2.5h0m0-5.1a7.7,7.7,0,1,0,7.7,7.7,7.7,7.7,0,0,0-7.7-7.7Z"/><rect class="cls-9" x="238.2" y="193.5" width="78" height="79"/><path class="cls-5" d="M300.4,253.8h-46a1.75,1.75,0,0,1-1.7-1.7V239a1.75,1.75,0,0,1,1.7-1.7h46a1.75,1.75,0,0,1,1.7,1.7v13.1a1.69,1.69,0,0,1-1.68,1.7h0Zm-44.3-3.3h42.6v-9.8H256.1v9.8h0Z"/><path class="cls-5" d="M260.7,243.6a2,2,0,1,0,2,2,2,2,0,0,0-2-2Z"/><path class="cls-5" d="M267.1,243.6a2,2,0,1,0,2,2,2,2,0,0,0-2-2Z"/><path class="cls-5" d="M273.6,243.6a2,2,0,1,0,2,2,2,2,0,0,0-2-2Z"/><path class="cls-5" d="M300.4,236h-46a1.75,1.75,0,0,1-1.7-1.7V221.2a1.75,1.75,0,0,1,1.7-1.7h46a1.75,1.75,0,0,1,1.7,1.7v13.1a1.75,1.75,0,0,1-1.7,1.7Zm-44.3-3.4h42.6v-9.8H256.1v9.8h0Z"/><path class="cls-5" d="M260.7,225.7a2,2,0,1,0,2,2,2,2,0,0,0-2-2Z"/><path class="cls-5" d="M267.1,225.7a2,2,0,1,0,2,2,2,2,0,0,0-2-2Z"/><path class="cls-5" d="M273.6,225.7a2,2,0,1,0,2,2,2,2,0,0,0-2-2Z"/><path class="cls-5" d="M300.4,218.1h-46a1.75,1.75,0,0,1-1.7-1.7V203.3a1.75,1.75,0,0,1,1.7-1.7h46a1.75,1.75,0,0,1,1.7,1.7v13.1a1.75,1.75,0,0,1-1.7,1.7Zm-44.3-3.4h42.6v-9.8H256.1v9.8h0Z"/><path class="cls-5" d="M260.7,207.8a2,2,0,1,0,2,2,2,2,0,0,0-2-2Z"/><path class="cls-5" d="M267.1,207.8a2,2,0,1,0,2,2,2,2,0,0,0-2-2Z"/><path class="cls-5" d="M273.6,207.8a2,2,0,1,0,2,2,2,2,0,0,0-2-2Z"/><path class="cls-5" d="M25.37,103.16h1.44L28,106.48l1.26-3.32h.88l1.24,3.29,1.18-3.29H34L31.85,109h-.93l-1.25-3.33L28.39,109h-.91Z"/><path class="cls-5" d="M37.56,103a3.09,3.09,0,0,1,1.56.41,3,3,0,0,1,1.59,2.66,3.06,3.06,0,0,1-.41,1.55,3,3,0,0,1-1.12,1.13,3.09,3.09,0,0,1-1.56.41,2.91,2.91,0,0,1-2.15-.89,3.1,3.1,0,0,1,0-4.38l.08-.08A2.93,2.93,0,0,1,37.56,103Zm0,1.38a1.51,1.51,0,0,0-1.14.47,1.69,1.69,0,0,0-.45,1.22,1.72,1.72,0,0,0,.45,1.24,1.5,1.5,0,0,0,1.14.47,1.52,1.52,0,0,0,1.15-.48,1.88,1.88,0,0,0,0-2.45,1.52,1.52,0,0,0-1.13-.46Z"/><path class="cls-5" d="M41.51,103.16h1.26v.74a1.57,1.57,0,0,1,.54-.66A1.31,1.31,0,0,1,44,103a1.37,1.37,0,0,1,.6.15l-.46,1.26a1,1,0,0,0-.42-.13.67.67,0,0,0-.57.42,3.84,3.84,0,0,0-.23,1.64V109H41.51Z"/><path class="cls-5" d="M45.39,100.9h1.47v4.67L49,103.16h1.84L48.3,106l2.82,3H49.3l-2.48-2.69V109H45.39Z"/><path class="cls-5" d="M55.3,104l-.91.91a1.54,1.54,0,0,0-1-.55.63.63,0,0,0-.39.11.31.31,0,0,0-.14.26.32.32,0,0,0,.09.22,1.63,1.63,0,0,0,.44.27l.54.27a3.18,3.18,0,0,1,1.17.85,1.78,1.78,0,0,1-.26,2.32,2.19,2.19,0,0,1-1.53.52,2.44,2.44,0,0,1-2-1l.9-1a2.06,2.06,0,0,0,.6.49,1.33,1.33,0,0,0,.61.19.74.74,0,0,0,.47-.14.4.4,0,0,0,.18-.32.91.91,0,0,0-.64-.66l-.49-.25a2.09,2.09,0,0,1-1.42-1.79,1.55,1.55,0,0,1,.53-1.18,1.94,1.94,0,0,1,1.37-.49A2.37,2.37,0,0,1,55.3,104Z"/><path class="cls-5" d="M56.77,101h1.47v2.15h.87v1.26h-.87V109H56.77v-4.58H56v-1.26h.75Z"/><path class="cls-5" d="M64.21,103.16h1.47V109H64.21v-.62a2.89,2.89,0,0,1-.86.59,2.41,2.41,0,0,1-.94.18,2.6,2.6,0,0,1-2-.88,3.06,3.06,0,0,1-.83-2.18,3.14,3.14,0,0,1,.8-2.22,2.55,2.55,0,0,1,1.94-.87,2.46,2.46,0,0,1,1,.2,2.69,2.69,0,0,1,.85.6v-.64Zm-1.54,1.2a1.48,1.48,0,0,0-1.13.48,1.92,1.92,0,0,0,0,2.48,1.48,1.48,0,0,0,1.13.49,1.51,1.51,0,0,0,1.15-.48,1.76,1.76,0,0,0,.46-1.26,1.71,1.71,0,0,0-.46-1.24,1.53,1.53,0,0,0-1.16-.47Z"/><path class="cls-5" d="M67.3,101h1.47v2.15h.87v1.26H68.8V109H67.3v-4.58h-.75v-1.26h.75Z"/><path class="cls-5" d="M71,100.75a.9.9,0,0,1,.66.28.93.93,0,0,1,.28.68.92.92,0,0,1-.27.67.89.89,0,0,1-.65.28.9.9,0,0,1-.67-.28.94.94,0,0,1-.28-.68.93.93,0,0,1,.91-.95Zm-.72,2.41h1.47V109H70.3Z"/><path class="cls-5" d="M75.83,103a3.09,3.09,0,0,1,1.56.41,3,3,0,0,1,1.55,2.65,3.06,3.06,0,0,1-.41,1.55,3,3,0,0,1-1.12,1.13,3.09,3.09,0,0,1-1.56.41,2.91,2.91,0,0,1-2.15-.89,3.1,3.1,0,0,1,0-4.38l.08-.08A2.93,2.93,0,0,1,75.83,103Zm0,1.38a1.51,1.51,0,0,0-1.14.47,1.69,1.69,0,0,0-.45,1.22,1.72,1.72,0,0,0,.45,1.24,1.5,1.5,0,0,0,1.14.47A1.52,1.52,0,0,0,77,107.3a1.88,1.88,0,0,0,0-2.45,1.52,1.52,0,0,0-1.12-.46Z"/><path class="cls-5" d="M80.13,103.16H81.6v.6a3.54,3.54,0,0,1,.9-.58,2.19,2.19,0,0,1,.8-.18,2,2,0,0,1,1.48.61,2.08,2.08,0,0,1,.51,1.53V109H83.84v-2.56a6.47,6.47,0,0,0-.09-1.39,1,1,0,0,0-.33-.52.91.91,0,0,0-.58-.18,1.08,1.08,0,0,0-.76.3,1.59,1.59,0,0,0-.44.82,6.63,6.63,0,0,0-.06,1.19V109H80.11v-5.84Z"/><path class="cls-5" d="M167.77,116.82l-1.05,1a3.26,3.26,0,0,0-2.42-1.13,2.65,2.65,0,0,0-2.68,2.62s0,0,0,.06a2.82,2.82,0,0,0,.34,1.4,2.46,2.46,0,0,0,1,1,2.81,2.81,0,0,0,1.4.35,2.86,2.86,0,0,0,1.2-.25,4.26,4.26,0,0,0,1.19-.89l1,1.06a5.59,5.59,0,0,1-1.65,1.18,4.51,4.51,0,0,1-1.78.33,4.09,4.09,0,0,1-3-1.17,4,4,0,0,1-1.17-3,4.1,4.1,0,0,1,.53-2.1,4,4,0,0,1,1.53-1.48,4.32,4.32,0,0,1,2.15-.56A4.56,4.56,0,0,1,167.77,116.82Z"/><path class="cls-5" d="M168.93,115.23h1.46v2.85a3.33,3.33,0,0,1,.86-.56,2.22,2.22,0,0,1,.88-.19,2,2,0,0,1,1.47.6,2.1,2.1,0,0,1,.51,1.53v3.86h-1.44v-2.56a6.33,6.33,0,0,0-.1-1.37,1,1,0,0,0-.33-.54.94.94,0,0,0-.58-.18,1.09,1.09,0,0,0-.77.3,1.56,1.56,0,0,0-.44.8,6.68,6.68,0,0,0-.06,1.2v2.35h-1.46v-8.1Z"/><path class="cls-5" d="M181.38,120.84h-4.71a1.56,1.56,0,0,0,.55,1,1.71,1.71,0,0,0,1.13.37,2,2,0,0,0,1.41-.57l1.24.58a2.91,2.91,0,0,1-1.11,1,3.45,3.45,0,0,1-1.53.31,3,3,0,0,1-3.1-3,3.05,3.05,0,0,1,.86-2.22,2.9,2.9,0,0,1,2.16-.88,3,3,0,0,1,2.25.88,3.19,3.19,0,0,1,.86,2.33v.24Zm-1.47-1.15a1.47,1.47,0,0,0-.57-.79,1.66,1.66,0,0,0-1-.31,1.76,1.76,0,0,0-1.08.34,1.92,1.92,0,0,0-.54.76h3.19Z"/><path class="cls-5" d="M181.87,117.49h.52v-1.36a1.12,1.12,0,0,1,.41-.76,1.51,1.51,0,0,1,1-.28,3.08,3.08,0,0,1,1,.21v1.12a2,2,0,0,0-.52-.09.55.55,0,0,0-.38.11.47.47,0,0,0-.09.33v.73h.93v1.24h-.93v4.6h-1.47v-4.6h-.52V117.5Z"/><path class="cls-5" d="M191.3,115.43h1.53l3,7.9H194.3l-.62-1.63h-3.22l-.64,1.63h-1.56Zm.77,2.09L191,120.23h2.11Z"/><path class="cls-5" d="M196.85,117.49h1.45v2.81a3.89,3.89,0,0,0,.11,1.14,1,1,0,0,0,1,.68,1.08,1.08,0,0,0,.62-.17,1,1,0,0,0,.38-.51,3.93,3.93,0,0,0,.09-1.08V117.5h1.47V120a6.07,6.07,0,0,1-.24,2.09,2.28,2.28,0,0,1-.87,1.06,2.67,2.67,0,0,1-1.46.37,2.59,2.59,0,0,1-1.55-.43,2.27,2.27,0,0,1-.84-1.2,7.26,7.26,0,0,1-.17-1.93v-2.43Z"/><path class="cls-5" d="M203.64,115.34h1.47v2.15H206v1.26h-.88v4.58h-1.47v-4.58h-.75v-1.26h.75v-2.15Z"/><path class="cls-5" d="M209.5,117.34a3.09,3.09,0,0,1,1.56.41,3,3,0,0,1,1.55,2.65,3.06,3.06,0,0,1-.41,1.55,3,3,0,0,1-1.12,1.13,3.09,3.09,0,0,1-1.56.41,2.91,2.91,0,0,1-2.15-.89,3.1,3.1,0,0,1,0-4.38l.08-.08A2.93,2.93,0,0,1,209.5,117.34Zm0,1.38a1.51,1.51,0,0,0-1.14.47,1.69,1.69,0,0,0-.45,1.22,1.72,1.72,0,0,0,.45,1.24,1.5,1.5,0,0,0,1.14.47,1.52,1.52,0,0,0,1.15-.48,1.88,1.88,0,0,0,0-2.45,1.52,1.52,0,0,0-1.13-.47Z"/><path class="cls-5" d="M213.79,117.49h1.51v.67a2.49,2.49,0,0,1,.84-.62,2.44,2.44,0,0,1,1-.2,1.87,1.87,0,0,1,1,.27,1.94,1.94,0,0,1,.71.78,2.31,2.31,0,0,1,2-1.05,2.06,2.06,0,0,1,1.1.29,1.68,1.68,0,0,1,.68.76,4,4,0,0,1,.21,1.52v3.43H221.3v-3A2.54,2.54,0,0,0,221,119a.85.85,0,0,0-.74-.35,1.12,1.12,0,0,0-.67.21,1.27,1.27,0,0,0-.44.59,3.69,3.69,0,0,0-.15,1.22v2.64h-1.48v-2.8a4,4,0,0,0-.12-1.14,1,1,0,0,0-.35-.52.92.92,0,0,0-.56-.17,1.1,1.1,0,0,0-.67.22,1.29,1.29,0,0,0-.45.61,3.77,3.77,0,0,0-.15,1.24v2.6H213.8V117.5Z"/><path class="cls-5" d="M228.45,117.49h1.47v5.84h-1.47v-.62a2.89,2.89,0,0,1-.86.59,2.41,2.41,0,0,1-.94.18,2.6,2.6,0,0,1-2-.88,3.06,3.06,0,0,1-.83-2.18,3.14,3.14,0,0,1,.8-2.22,2.55,2.55,0,0,1,1.94-.87,2.46,2.46,0,0,1,1,.2,2.69,2.69,0,0,1,.85.6v-.64Zm-1.54,1.2a1.48,1.48,0,0,0-1.13.48,1.92,1.92,0,0,0,0,2.48,1.48,1.48,0,0,0,1.13.49,1.51,1.51,0,0,0,1.15-.48,1.76,1.76,0,0,0,.46-1.26,1.71,1.71,0,0,0-.46-1.24A1.53,1.53,0,0,0,226.91,118.69Z"/><path class="cls-5" d="M231.58,115.34H233v2.15h.87v1.26H233v4.58h-1.47v-4.58h-.75v-1.26h.75Z"/><path class="cls-5" d="M240.55,120.84h-4.71a1.56,1.56,0,0,0,.55,1,1.71,1.71,0,0,0,1.13.37,2,2,0,0,0,1.41-.57l1.24.58a2.91,2.91,0,0,1-1.11,1,3.45,3.45,0,0,1-1.53.31,3,3,0,0,1-3.1-3,3.05,3.05,0,0,1,.86-2.22,2.9,2.9,0,0,1,2.16-.88,3,3,0,0,1,2.25.88,3.19,3.19,0,0,1,.86,2.33v.24Zm-1.47-1.15a1.47,1.47,0,0,0-.57-.79,1.66,1.66,0,0,0-1-.31,1.76,1.76,0,0,0-1.08.34,1.92,1.92,0,0,0-.54.76h3.19Z"/><path class="cls-5" d="M188.52,131.51l-.91.91a1.54,1.54,0,0,0-1-.55.63.63,0,0,0-.39.11.31.31,0,0,0-.14.26.32.32,0,0,0,.09.22,1.63,1.63,0,0,0,.44.27l.54.27a3.18,3.18,0,0,1,1.17.85,1.78,1.78,0,0,1-.26,2.32,2.19,2.19,0,0,1-1.53.52,2.44,2.44,0,0,1-2-1l.9-1a2.06,2.06,0,0,0,.6.49,1.33,1.33,0,0,0,.61.19.74.74,0,0,0,.47-.14.4.4,0,0,0,.18-.32.91.91,0,0,0-.64-.66l-.49-.25a2.09,2.09,0,0,1-1.42-1.79,1.55,1.55,0,0,1,.53-1.18,1.94,1.94,0,0,1,1.37-.49A2.37,2.37,0,0,1,188.52,131.51Z"/><path class="cls-5" d="M195.64,134h-4.71a1.56,1.56,0,0,0,.55,1,1.71,1.71,0,0,0,1.13.37,2,2,0,0,0,1.41-.57l1.28.6a2.91,2.91,0,0,1-1.11,1,3.45,3.45,0,0,1-1.53.31,3,3,0,0,1-3.1-3,3.05,3.05,0,0,1,.86-2.22,2.9,2.9,0,0,1,2.16-.88,3,3,0,0,1,2.25.88,3.19,3.19,0,0,1,.86,2.33V134Zm-1.47-1.15a1.47,1.47,0,0,0-.57-.79,1.66,1.66,0,0,0-1-.31,1.76,1.76,0,0,0-1.08.34,1.92,1.92,0,0,0-.54.76h3.19Z"/><path class="cls-5" d="M196.48,130.69h1.26v.74a1.57,1.57,0,0,1,.54-.66,1.31,1.31,0,0,1,.74-.23,1.37,1.37,0,0,1,.6.15l-.46,1.31a1,1,0,0,0-.42-.13.67.67,0,0,0-.57.42,3.84,3.84,0,0,0-.23,1.64v2.65h-1.46v-5.89Z"/><path class="cls-5" d="M199.72,130.69h1.49l1.48,3.45,1.47-3.45h1.49l-2.49,5.84h-1Z"/><path class="cls-5" d="M212.36,134h-4.71a1.56,1.56,0,0,0,.55,1,1.71,1.71,0,0,0,1.13.37,2,2,0,0,0,1.41-.57l1.24.58a2.91,2.91,0,0,1-1.11,1,3.45,3.45,0,0,1-1.53.31,3,3,0,0,1-3.1-3,3.05,3.05,0,0,1,.86-2.22,2.9,2.9,0,0,1,2.16-.88,3,3,0,0,1,2.25.88,3.19,3.19,0,0,1,.86,2.33V134Zm-1.47-1.15a1.47,1.47,0,0,0-.57-.79,1.66,1.66,0,0,0-1-.31,1.76,1.76,0,0,0-1.08.34,1.92,1.92,0,0,0-.54.76h3.19Z"/><path class="cls-5" d="M213.2,130.69h1.26v.74a1.57,1.57,0,0,1,.54-.66,1.31,1.31,0,0,1,.74-.23,1.37,1.37,0,0,1,.6.15l-.46,1.31a1,1,0,0,0-.42-.13.67.67,0,0,0-.57.42,3.84,3.84,0,0,0-.23,1.64v2.65H213.2v-5.89Z"/><path class="cls-5" d="M283.88,122.15l-1,1a3.26,3.26,0,0,0-2.42-1.13,2.65,2.65,0,0,0-2.68,2.62s0,0,0,.06a2.83,2.83,0,0,0,.34,1.4,2.46,2.46,0,0,0,1,1,2.82,2.82,0,0,0,1.4.35,2.86,2.86,0,0,0,1.2-.25,4.25,4.25,0,0,0,1.19-.89l1,1.06a5.58,5.58,0,0,1-1.65,1.18,4.5,4.5,0,0,1-1.78.33,4.09,4.09,0,0,1-3-1.17,4,4,0,0,1-1.17-3,4.1,4.1,0,0,1,.53-2.1,4,4,0,0,1,1.53-1.48,4.32,4.32,0,0,1,2.15-.56A4.56,4.56,0,0,1,283.88,122.15Z"/><path class="cls-5" d="M285,120.57h1.46v2.85a3.32,3.32,0,0,1,.86-.56,2.22,2.22,0,0,1,.88-.19,2,2,0,0,1,1.47.6,2.1,2.1,0,0,1,.51,1.53v3.86h-1.44V126.1a6.33,6.33,0,0,0-.1-1.37,1,1,0,0,0-.33-.54.94.94,0,0,0-.58-.18,1.09,1.09,0,0,0-.76.3,1.55,1.55,0,0,0-.44.8,6.68,6.68,0,0,0-.06,1.2v2.35H285v-8.1Z"/><path class="cls-5" d="M297.49,126.17h-4.71a1.56,1.56,0,0,0,.54,1,1.71,1.71,0,0,0,1.13.37,2,2,0,0,0,1.41-.57l1.24.58a2.91,2.91,0,0,1-1.11,1,3.45,3.45,0,0,1-1.53.31,3,3,0,0,1-3.1-3,3.05,3.05,0,0,1,.86-2.22,2.9,2.9,0,0,1,2.16-.88,3,3,0,0,1,2.25.88,3.19,3.19,0,0,1,.87,2.33v.24ZM296,125a1.47,1.47,0,0,0-.57-.79,1.66,1.66,0,0,0-1-.31,1.76,1.76,0,0,0-1.08.34,1.92,1.92,0,0,0-.54.76H296Z"/><path class="cls-5" d="M298,122.82h.52v-1.36a1.12,1.12,0,0,1,.41-.76,1.51,1.51,0,0,1,1-.28,3.08,3.08,0,0,1,1,.21v1.12a2,2,0,0,0-.52-.09.55.55,0,0,0-.38.11.47.47,0,0,0-.09.33v.73h.93v1.24h-.93v4.6H298.5v-4.6H298v-1.24Z"/><path class="cls-5" d="M308.41,123.64l-.91.91a1.54,1.54,0,0,0-1-.55.63.63,0,0,0-.39.11.31.31,0,0,0-.14.26.32.32,0,0,0,.09.22,1.62,1.62,0,0,0,.44.27l.54.27a3.17,3.17,0,0,1,1.17.85,1.78,1.78,0,0,1-.25,2.32,2.19,2.19,0,0,1-1.53.52,2.44,2.44,0,0,1-2-1l.9-1a2.06,2.06,0,0,0,.6.49,1.33,1.33,0,0,0,.61.19.74.74,0,0,0,.47-.14.4.4,0,0,0,.18-.32.91.91,0,0,0-.64-.66l-.49-.25a2.09,2.09,0,0,1-1.42-1.79,1.55,1.55,0,0,1,.53-1.18,1.94,1.94,0,0,1,1.37-.49A2.37,2.37,0,0,1,308.41,123.64Z"/><path class="cls-5" d="M315.53,126.17h-4.71a1.56,1.56,0,0,0,.54,1,1.71,1.71,0,0,0,1.13.37,2,2,0,0,0,1.41-.57l1.24.58a2.91,2.91,0,0,1-1.11,1,3.45,3.45,0,0,1-1.53.31,2.94,2.94,0,0,1-3.06-3,3.05,3.05,0,0,1,.86-2.22,2.9,2.9,0,0,1,2.16-.88,3,3,0,0,1,2.25.88,3.19,3.19,0,0,1,.87,2.33v.28ZM314.06,125a1.47,1.47,0,0,0-.57-.79,1.66,1.66,0,0,0-1-.31,1.76,1.76,0,0,0-1.08.34,1.92,1.92,0,0,0-.54.76h3.19Z"/><path class="cls-5" d="M316.37,122.82h1.26v.74a1.56,1.56,0,0,1,.54-.66,1.31,1.31,0,0,1,.74-.23,1.37,1.37,0,0,1,.6.15l-.46,1.26a1,1,0,0,0-.42-.13.67.67,0,0,0-.57.42,3.84,3.84,0,0,0-.23,1.64v2.65h-1.46v-5.84Z"/><path class="cls-5" d="M319.61,122.82h1.49l1.48,3.45,1.47-3.45h1.49L323,128.66h-1Z"/><path class="cls-5" d="M332.3,126.17h-4.71a1.57,1.57,0,0,0,.55,1,1.71,1.71,0,0,0,1.13.37,2,2,0,0,0,1.41-.57l1.24.58a2.92,2.92,0,0,1-1.11,1,3.46,3.46,0,0,1-1.53.31,3,3,0,0,1-3.11-3,3.05,3.05,0,0,1,.86-2.22,2.9,2.9,0,0,1,2.16-.88,3,3,0,0,1,2.25.88,3.19,3.19,0,0,1,.86,2.33v.24ZM330.78,125a1.47,1.47,0,0,0-.57-.79,1.66,1.66,0,0,0-1-.31,1.76,1.76,0,0,0-1.08.34,1.93,1.93,0,0,0-.54.76h3.19Z"/><path class="cls-5" d="M333.09,122.82h1.21v.74a1.57,1.57,0,0,1,.54-.66,1.31,1.31,0,0,1,.74-.23,1.36,1.36,0,0,1,.6.15l-.46,1.26a1,1,0,0,0-.42-.08.67.67,0,0,0-.57.42,3.84,3.84,0,0,0-.23,1.64v2.65H333v-5.84Z"/><path class="cls-5" d="M260.06,261h1.14v.67a1.43,1.43,0,0,1,.49-.6,1.19,1.19,0,0,1,.67-.21,1.25,1.25,0,0,1,.54.14l-.42,1.15a.91.91,0,0,0-.39-.12.61.61,0,0,0-.52.38,3.48,3.48,0,0,0-.21,1.49v2.41H260V261Z"/><path class="cls-5" d="M263.57,261h1.35v2.56a3.55,3.55,0,0,0,.1,1,.91.91,0,0,0,.33.45.94.94,0,0,0,.56.16,1,1,0,0,0,.57-.16.94.94,0,0,0,.34-.47,3.57,3.57,0,0,0,.08-1V261h1.33v2.25a5.52,5.52,0,0,1-.22,1.9,2.08,2.08,0,0,1-.79,1,2.42,2.42,0,0,1-1.33.33,2.35,2.35,0,0,1-1.41-.39,2.06,2.06,0,0,1-.76-1.09,6.63,6.63,0,0,1-.16-1.76V261Z"/><path class="cls-5" d="M269.57,261h1.33v.54a3.21,3.21,0,0,1,.82-.53,2,2,0,0,1,.75-.15,1.82,1.82,0,0,1,1.34.55,1.89,1.89,0,0,1,.46,1.39v3.51h-1.32V264a5.91,5.91,0,0,0-.08-1.26.87.87,0,0,0-.3-.48.84.84,0,0,0-.52-.16,1,1,0,0,0-.69.27,1.45,1.45,0,0,0-.4.75,6,6,0,0,0-.06,1.08v2.13h-1.33V261Z"/><path class="cls-5" d="M275.57,261h1.33v.54a3.21,3.21,0,0,1,.82-.53,2,2,0,0,1,.75-.15,1.82,1.82,0,0,1,1.34.55,1.89,1.89,0,0,1,.46,1.39v3.51h-1.32V264a5.91,5.91,0,0,0-.08-1.26.87.87,0,0,0-.3-.48.84.84,0,0,0-.52-.16,1,1,0,0,0-.69.27,1.45,1.45,0,0,0-.4.75,6,6,0,0,0-.06,1.08v2.13h-1.33V261Z"/><path class="cls-5" d="M286.9,264.06h-4.28a1.43,1.43,0,0,0,.5.9,1.56,1.56,0,0,0,1,.33,1.77,1.77,0,0,0,1.28-.52l1.12.53a2.65,2.65,0,0,1-1,.88,3.16,3.16,0,0,1-1.39.29,2.75,2.75,0,0,1-2-.79,2.68,2.68,0,0,1-.79-2,2.78,2.78,0,0,1,.78-2,2.63,2.63,0,0,1,2-.8,2.73,2.73,0,0,1,2,.8,2.9,2.9,0,0,1,.79,2.12V264Zm-1.33-1a1.34,1.34,0,0,0-.52-.72,1.51,1.51,0,0,0-.9-.28,1.6,1.6,0,0,0-1,.31,1.74,1.74,0,0,0-.49.69h2.91Z"/><path class="cls-5" d="M287.66,261h1.14v.67a1.43,1.43,0,0,1,.49-.6,1.19,1.19,0,0,1,.67-.21,1.25,1.25,0,0,1,.54.14l-.42,1.15a.91.91,0,0,0-.39-.12.61.61,0,0,0-.52.38,3.48,3.48,0,0,0-.21,1.49v2.41h-1.32V261Z"/><path class="cls-5" d="M294.43,261.76l-.83.83a1.4,1.4,0,0,0-.91-.5.58.58,0,0,0-.35.09.29.29,0,0,0-.05.44,1.54,1.54,0,0,0,.4.25l.49.24a2.87,2.87,0,0,1,1.06.78A1.62,1.62,0,0,1,294,266a2,2,0,0,1-1.39.47,2.22,2.22,0,0,1-1.86-.91l.82-.89a1.91,1.91,0,0,0,.55.44,1.23,1.23,0,0,0,.56.17.66.66,0,0,0,.42-.13.37.37,0,0,0,.16-.29.83.83,0,0,0-.58-.6l-.45-.22a1.9,1.9,0,0,1-1.29-1.63,1.41,1.41,0,0,1,.49-1.08,1.76,1.76,0,0,1,1.24-.45A2.15,2.15,0,0,1,294.43,261.76Z"/><path class="cls-5" d="M408.07,62.22h1.23V67h-1.2v-.51a2.32,2.32,0,0,1-.71.48,2,2,0,0,1-.77.15,2.13,2.13,0,0,1-1.6-.72,2.51,2.51,0,0,1-.68-1.79,2.57,2.57,0,0,1,.65-1.82,2.09,2.09,0,0,1,1.59-.71,2,2,0,0,1,.81.16,2.22,2.22,0,0,1,.7.49v-.51Zm-1.26,1a1.21,1.21,0,0,0-.92.39,1.52,1.52,0,0,0,0,2,1.21,1.21,0,0,0,.92.4,1.24,1.24,0,0,0,.94-.39,1.44,1.44,0,0,0,.37-1,1.4,1.4,0,0,0-.37-1,1.25,1.25,0,0,0-.95-.42Z"/><path class="cls-5" d="M415.16,63.19l-1,.55a1.7,1.7,0,0,0-.56-.41,1.67,1.67,0,0,0-.64-.11,1.5,1.5,0,0,0-1.09.4,1.37,1.37,0,0,0-.42,1,1.32,1.32,0,0,0,.4,1,1.45,1.45,0,0,0,1,.39,1.53,1.53,0,0,0,1.25-.55l1,.65a2.91,2.91,0,0,1-4.11.29l0,0a2.48,2.48,0,0,1,.6-3.95,2.9,2.9,0,0,1,1.39-.33,2.82,2.82,0,0,1,1.28.28A2.43,2.43,0,0,1,415.16,63.19Z"/><path class="cls-5" d="M420.93,63.19l-1,.55a1.72,1.72,0,0,0-.56-.41,1.67,1.67,0,0,0-.64-.11,1.5,1.5,0,0,0-1.09.4,1.37,1.37,0,0,0-.42,1,1.32,1.32,0,0,0,.4,1,1.45,1.45,0,0,0,1,.39,1.53,1.53,0,0,0,1.25-.55l1,.65a2.91,2.91,0,0,1-4.11.29l0,0a2.48,2.48,0,0,1,.6-3.95,2.89,2.89,0,0,1,1.39-.33,2.83,2.83,0,0,1,1.28.28A2.43,2.43,0,0,1,420.93,63.19Z"/><path class="cls-5" d="M426.8,65h-3.85a1.29,1.29,0,0,0,.45.81,1.4,1.4,0,0,0,.93.3,1.59,1.59,0,0,0,1.16-.47l1,.47a2.38,2.38,0,0,1-.91.79,2.84,2.84,0,0,1-1.25.26,2.47,2.47,0,0,1-1.83-.71,2.41,2.41,0,0,1-.71-1.78,2.5,2.5,0,0,1,.71-1.82,2.37,2.37,0,0,1,1.8-.75,2.46,2.46,0,0,1,1.84.72,2.62,2.62,0,0,1,.71,1.91V65Zm-1.2-1a1.2,1.2,0,0,0-.47-.65,1.36,1.36,0,0,0-.81-.25,1.43,1.43,0,0,0-.88.28A1.56,1.56,0,0,0,423,64Z"/><path class="cls-5" d="M429,62.22v.53a2.27,2.27,0,0,1,.7-.49,2,2,0,0,1,.81-.16,2.09,2.09,0,0,1,1.59.71,2.57,2.57,0,0,1,.66,1.82,2.5,2.5,0,0,1-.68,1.79,2.13,2.13,0,0,1-1.6.72,2,2,0,0,1-.77-.15,2.32,2.32,0,0,1-.71-.48v2.25h-1.19V62.22H429Zm1.26,1a1.25,1.25,0,0,0-.94.39,1.39,1.39,0,0,0-.37,1,1.43,1.43,0,0,0,.37,1,1.24,1.24,0,0,0,.94.39,1.22,1.22,0,0,0,.92-.4,1.43,1.43,0,0,0,.38-1,1.41,1.41,0,0,0-.37-1,1.22,1.22,0,0,0-.93-.4Z"/><path class="cls-5" d="M433.85,60.46H435v1.76h.71v1H435V67h-1.2V63.25h-.62v-1h.62Z"/><path class="cls-5" d="M439.94,62.22h1.2V67h-1.2v-.51a2.33,2.33,0,0,1-.7.48,2,2,0,0,1-.77.15,2.13,2.13,0,0,1-1.6-.72,2.5,2.5,0,0,1-.68-1.79,2.57,2.57,0,0,1,.65-1.82,2.09,2.09,0,0,1,1.59-.71,2,2,0,0,1,.81.16,2.23,2.23,0,0,1,.7.49Zm-1.26,1a1.21,1.21,0,0,0-.92.39,1.42,1.42,0,0,0-.37,1,1.44,1.44,0,0,0,.37,1,1.21,1.21,0,0,0,.92.4,1.23,1.23,0,0,0,.94-.39,1.44,1.44,0,0,0,.37-1,1.4,1.4,0,0,0-.37-1,1.25,1.25,0,0,0-.94-.42Z"/><path class="cls-5" d="M442.3,62.22h1.2v.49a2.89,2.89,0,0,1,.74-.48,1.79,1.79,0,0,1,.68-.13,1.64,1.64,0,0,1,1.21.5,1.71,1.71,0,0,1,.42,1.25V67H445.4V64.91a5.34,5.34,0,0,0-.08-1.14.78.78,0,0,0-.27-.43.75.75,0,0,0-.47-.15.88.88,0,0,0-.62.24,1.3,1.3,0,0,0-.36.67,5.43,5.43,0,0,0,0,1V67H442.3Z"/><path class="cls-5" d="M452.43,63.19l-1,.55a1.7,1.7,0,0,0-.56-.41,1.67,1.67,0,0,0-.64-.11,1.5,1.5,0,0,0-1.09.4,1.37,1.37,0,0,0-.42,1,1.32,1.32,0,0,0,.4,1,1.45,1.45,0,0,0,1,.39,1.53,1.53,0,0,0,1.25-.55l1,.65a2.91,2.91,0,0,1-4.11.29l0,0a2.48,2.48,0,0,1,.6-3.95,2.9,2.9,0,0,1,1.39-.33,2.82,2.82,0,0,1,1.28.28A2.43,2.43,0,0,1,452.43,63.19Z"/><path class="cls-5" d="M458.3,65h-3.85a1.29,1.29,0,0,0,.45.81,1.4,1.4,0,0,0,.92.3,1.6,1.6,0,0,0,1.16-.47l1,.47a2.38,2.38,0,0,1-.91.79,2.84,2.84,0,0,1-1.25.26,2.47,2.47,0,0,1-1.83-.71,2.41,2.41,0,0,1-.71-1.78,2.5,2.5,0,0,1,.71-1.82,2.37,2.37,0,0,1,1.77-.72,2.46,2.46,0,0,1,1.84.72,2.61,2.61,0,0,1,.71,1.91V65Zm-1.2-1a1.2,1.2,0,0,0-.47-.65,1.36,1.36,0,0,0-.81-.25,1.44,1.44,0,0,0-.88.28,1.57,1.57,0,0,0-.44.62Z"/><path class="cls-5" d="M419.07,130.75h1.23v2.3a3.19,3.19,0,0,0,.09.93.81.81,0,0,0,.3.41.85.85,0,0,0,.5.15.89.89,0,0,0,.51-.14A.84.84,0,0,0,422,134a3.22,3.22,0,0,0,.08-.88v-2.34h1.21v2a5,5,0,0,1-.2,1.71,1.87,1.87,0,0,1-.71.86,2.18,2.18,0,0,1-1.2.3,2.12,2.12,0,0,1-1.27-.35,1.85,1.85,0,0,1-.68-1,5.93,5.93,0,0,1-.14-1.58v-2Z"/><path class="cls-5" d="M424.48,130.75h1.2v.49a2.87,2.87,0,0,1,.74-.48,1.78,1.78,0,0,1,.68-.13,1.65,1.65,0,0,1,1.21.5,1.71,1.71,0,0,1,.42,1.25v3.16h-1.19v-2.09a5.25,5.25,0,0,0-.08-1.14.78.78,0,0,0-.27-.43.74.74,0,0,0-.47-.15.88.88,0,0,0-.62.24,1.3,1.3,0,0,0-.36.67,5.43,5.43,0,0,0,0,1v1.92h-1.2v-4.81Z"/><path class="cls-5" d="M430.3,128.78a.73.73,0,0,1,.54.23.76.76,0,0,1,.23.55.75.75,0,0,1-.22.55.72.72,0,0,1-.53.23.74.74,0,0,1-.55-.23.78.78,0,0,1,.53-1.33Zm-.6,2h1.2v4.78h-1.2Z"/><path class="cls-5" d="M434.3,130.63a2.54,2.54,0,0,1,1.27.34,2.48,2.48,0,0,1,1.26,2.17,2.52,2.52,0,0,1-.34,1.27,2.42,2.42,0,0,1-.92.92,2.53,2.53,0,0,1-1.28.33,2.39,2.39,0,0,1-1.76-.73,2.54,2.54,0,0,1,0-3.59l.06-.06A2.4,2.4,0,0,1,434.3,130.63Zm0,1.13a1.23,1.23,0,0,0-.93.39,1.38,1.38,0,0,0-.37,1,1.41,1.41,0,0,0,.37,1,1.32,1.32,0,0,0,1.87,0,1.54,1.54,0,0,0,0-2,1.24,1.24,0,0,0-.94-.39Z"/><path class="cls-5" d="M437.8,130.75H439v.49a2.89,2.89,0,0,1,.74-.48,1.79,1.79,0,0,1,.68-.13,1.64,1.64,0,0,1,1.21.5,1.71,1.71,0,0,1,.42,1.25v3.16h-1.19v-2.09a5.34,5.34,0,0,0-.08-1.14.78.78,0,0,0-.27-.43.75.75,0,0,0-.47-.15.88.88,0,0,0-.62.24,1.3,1.3,0,0,0-.36.67,5.43,5.43,0,0,0,0,1v1.92h-1.2v-4.81Z"/><path class="cls-5" d="M411.3,196.8h1v.6a1.29,1.29,0,0,1,.44-.54,1.07,1.07,0,0,1,.61-.18,1.12,1.12,0,0,1,.49.12l-.37,1a.83.83,0,0,0-.35-.11.55.55,0,0,0-.47.34,3.13,3.13,0,0,0-.19,1.35v2.17H411.3Z"/><path class="cls-5" d="M419.24,199.54h-3.85a1.29,1.29,0,0,0,.45.81,1.4,1.4,0,0,0,.92.3,1.6,1.6,0,0,0,1.16-.47l1,.47a2.38,2.38,0,0,1-.91.79,2.84,2.84,0,0,1-1.25.26,2.47,2.47,0,0,1-1.83-.71,2.41,2.41,0,0,1-.71-1.78,2.5,2.5,0,0,1,.71-1.82,2.37,2.37,0,0,1,1.77-.72,2.46,2.46,0,0,1,1.84.72,2.61,2.61,0,0,1,.71,1.91v.23Zm-1.2-.95a1.2,1.2,0,0,0-.47-.65,1.36,1.36,0,0,0-.81-.25,1.44,1.44,0,0,0-.88.28,1.57,1.57,0,0,0-.44.62Z"/><path class="cls-5" d="M420.21,195h1.19v2.33a2.75,2.75,0,0,1,.71-.46,1.83,1.83,0,0,1,.72-.15,1.62,1.62,0,0,1,1.2.49,1.72,1.72,0,0,1,.42,1.25v3.16H423.3v-2.1a5.17,5.17,0,0,0-.08-1.12A.78.78,0,0,0,423,198a.75.75,0,0,0-.47-.15.9.9,0,0,0-.63.24,1.29,1.29,0,0,0-.36.66,5.46,5.46,0,0,0,0,1v1.92h-1.19V195Z"/><path class="cls-5" d="M430.4,199.54h-3.85a1.29,1.29,0,0,0,.45.81,1.4,1.4,0,0,0,.92.3,1.6,1.6,0,0,0,1.16-.47l1,.47a2.38,2.38,0,0,1-.91.79,2.84,2.84,0,0,1-1.25.26,2.47,2.47,0,0,1-1.83-.71,2.41,2.41,0,0,1-.71-1.78,2.5,2.5,0,0,1,.71-1.82,2.37,2.37,0,0,1,1.77-.72,2.46,2.46,0,0,1,1.84.72,2.61,2.61,0,0,1,.71,1.91v.23Zm-1.2-.95a1.2,1.2,0,0,0-.47-.65,1.36,1.36,0,0,0-.81-.25,1.44,1.44,0,0,0-.88.28,1.57,1.57,0,0,0-.44.62Z"/><path class="cls-5" d="M434.9,196.8h1.2v4.78h-1.2v-.51a2.32,2.32,0,0,1-.71.48,2,2,0,0,1-.77.15,2.13,2.13,0,0,1-1.6-.72,2.51,2.51,0,0,1-.68-1.79,2.57,2.57,0,0,1,.65-1.82,2.09,2.09,0,0,1,1.59-.71,2,2,0,0,1,.81.16,2.22,2.22,0,0,1,.7.49v-.51Zm-1.26,1a1.21,1.21,0,0,0-.92.39,1.52,1.52,0,0,0,0,2,1.21,1.21,0,0,0,.92.4,1.24,1.24,0,0,0,.94-.39,1.44,1.44,0,0,0,.37-1,1.4,1.4,0,0,0-.37-1,1.25,1.25,0,0,0-1-.41Z"/><path class="cls-5" d="M437,196.8h1v.6a1.29,1.29,0,0,1,.44-.54,1.07,1.07,0,0,1,.61-.18,1.12,1.12,0,0,1,.49.12l-.37,1a.83.83,0,0,0-.35-.11.55.55,0,0,0-.47.34,3.13,3.13,0,0,0-.19,1.35v2.17H437V196.8Z"/><path class="cls-5" d="M443.12,197.47l-.74.74a1.25,1.25,0,0,0-.82-.45.52.52,0,0,0-.32.08.26.26,0,0,0,0,.39,1.38,1.38,0,0,0,.36.22l.44.22a2.58,2.58,0,0,1,1,.7,1.45,1.45,0,0,1-.21,1.9,1.79,1.79,0,0,1-1.25.43,2,2,0,0,1-1.67-.82l.74-.8a1.72,1.72,0,0,0,.49.4,1.1,1.1,0,0,0,.5.15.6.6,0,0,0,.38-.11.33.33,0,0,0,.14-.26.75.75,0,0,0-.52-.54l-.4-.2a1.71,1.71,0,0,1-1.16-1.46,1.27,1.27,0,0,1,.44-1,1.58,1.58,0,0,1,1.12-.4A1.94,1.94,0,0,1,443.12,197.47Z"/><path class="cls-5" d="M447.68,196.8h1.2v4.78h-1.2v-.51a2.32,2.32,0,0,1-.71.48,2,2,0,0,1-.77.15,2.13,2.13,0,0,1-1.6-.72,2.51,2.51,0,0,1-.68-1.79,2.57,2.57,0,0,1,.65-1.82,2.09,2.09,0,0,1,1.59-.71,2,2,0,0,1,.81.16,2.22,2.22,0,0,1,.7.49v-.51Zm-1.26,1a1.21,1.21,0,0,0-.92.39,1.52,1.52,0,0,0,0,2,1.21,1.21,0,0,0,.92.4,1.24,1.24,0,0,0,.94-.39,1.44,1.44,0,0,0,.37-1,1.4,1.4,0,0,0-.37-1,1.25,1.25,0,0,0-1-.41Z"/><path class="cls-5" d="M450,195h1.2v6.63H450Z"/><path class="cls-5" d="M415.3,263h1.2v6.63h-1.2v-.51a2.31,2.31,0,0,1-.71.48,2,2,0,0,1-.77.15,2.13,2.13,0,0,1-1.6-.72,2.51,2.51,0,0,1-.68-1.79,2.57,2.57,0,0,1,.65-1.82,2.09,2.09,0,0,1,1.59-.71,2,2,0,0,1,.81.16,2.22,2.22,0,0,1,.7.49V263ZM414,265.83a1.21,1.21,0,0,0-.92.39,1.52,1.52,0,0,0,0,2,1.21,1.21,0,0,0,.92.4,1.23,1.23,0,0,0,.94-.39,1.44,1.44,0,0,0,.37-1,1.4,1.4,0,0,0-.37-1,1.25,1.25,0,0,0-1-.36Z"/><path class="cls-5" d="M422.47,267.62h-3.85a1.29,1.29,0,0,0,.45.81,1.4,1.4,0,0,0,.93.3,1.59,1.59,0,0,0,1.16-.47l1,.47a2.38,2.38,0,0,1-.91.79,2.85,2.85,0,0,1-1.25.26,2.48,2.48,0,0,1-1.83-.71,2.42,2.42,0,0,1-.71-1.78,2.5,2.5,0,0,1,.71-1.82,2.37,2.37,0,0,1,1.77-.72,2.46,2.46,0,0,1,1.84.72,2.62,2.62,0,0,1,.71,1.91v.23Zm-1.2-1a1.21,1.21,0,0,0-.47-.65,1.37,1.37,0,0,0-.81-.25,1.43,1.43,0,0,0-.88.28,1.56,1.56,0,0,0-.44.62h2.6Z"/><path class="cls-5" d="M423.3,263h1.2v6.63h-1.2Z"/><path class="cls-5" d="M426.07,262.92a.73.73,0,0,1,.54.23.76.76,0,0,1,.23.55.75.75,0,0,1-.22.55.73.73,0,0,1-.54.23.74.74,0,0,1-.54-.23.77.77,0,0,1-.23-.56.74.74,0,0,1,.22-.54A.73.73,0,0,1,426.07,262.92Zm-.6,2h1.2v4.78h-1.2Z"/><path class="cls-5" d="M427.25,264.88h1.22l1.21,2.82,1.21-2.82h1.22l-2,4.78h-.81Z"/><path class="cls-5" d="M437.59,267.62h-3.85a1.29,1.29,0,0,0,.45.81,1.4,1.4,0,0,0,.93.3,1.59,1.59,0,0,0,1.16-.47l1,.47a2.38,2.38,0,0,1-.91.79,2.85,2.85,0,0,1-1.25.26,2.48,2.48,0,0,1-1.83-.71,2.42,2.42,0,0,1-.71-1.78,2.5,2.5,0,0,1,.71-1.82,2.37,2.37,0,0,1,1.77-.72,2.46,2.46,0,0,1,1.84.72,2.62,2.62,0,0,1,.71,1.91v.23Zm-1.2-1a1.21,1.21,0,0,0-.47-.65,1.37,1.37,0,0,0-.81-.25,1.43,1.43,0,0,0-.88.28,1.56,1.56,0,0,0-.44.62Z"/><path class="cls-5" d="M438.3,264.88h1v.6a1.29,1.29,0,0,1,.44-.54,1.07,1.07,0,0,1,.61-.19,1.12,1.12,0,0,1,.49.12l-.37,1a.82.82,0,0,0-.35-.11.55.55,0,0,0-.47.34,3.13,3.13,0,0,0-.19,1.35v2.17H438.3v-4.74Z"/><path class="cls-5" d="M446.23,267.62h-3.85a1.29,1.29,0,0,0,.45.81,1.4,1.4,0,0,0,.93.3,1.59,1.59,0,0,0,1.16-.47l1,.47a2.38,2.38,0,0,1-.91.79,2.85,2.85,0,0,1-1.25.26,2.48,2.48,0,0,1-1.83-.71,2.42,2.42,0,0,1-.71-1.78,2.5,2.5,0,0,1,.71-1.82,2.37,2.37,0,0,1,1.77-.72,2.46,2.46,0,0,1,1.84.72,2.62,2.62,0,0,1,.71,1.91v.23Zm-1.2-1a1.21,1.21,0,0,0-.47-.65,1.37,1.37,0,0,0-.81-.25,1.43,1.43,0,0,0-.88.28,1.56,1.56,0,0,0-.44.62Z"/><path class="cls-5" d="M450.73,263h1.2v6.63h-1.2v-.51a2.32,2.32,0,0,1-.7.48,2,2,0,0,1-.77.15,2.12,2.12,0,0,1-1.6-.72,2.5,2.5,0,0,1-.68-1.79,2.58,2.58,0,0,1,.65-1.82,2.09,2.09,0,0,1,1.59-.71,2,2,0,0,1,.81.16,2.23,2.23,0,0,1,.7.49Zm-1.26,2.83a1.21,1.21,0,0,0-.92.39,1.41,1.41,0,0,0-.37,1,1.43,1.43,0,0,0,.37,1,1.21,1.21,0,0,0,.92.4,1.23,1.23,0,0,0,.94-.39,1.44,1.44,0,0,0,.37-1,1.4,1.4,0,0,0-.37-1,1.25,1.25,0,0,0-.94-.36Z"/><line class="cls-1" x1="101.5" y1="77.6" x2="134.2" y2="77.6"/><line class="cls-2" x1="101.5" y1="77.6" x2="127.74" y2="77.6"/><polygon class="cls-3" points="126.43 82.09 134.2 77.6 126.43 73.11 126.43 82.09"/><path class="cls-8" d="M160.31,25.56l-1.15,1.09a3.55,3.55,0,0,0-2.63-1.24,2.89,2.89,0,0,0-2.93,2.85s0,.05,0,.08a3.08,3.08,0,0,0,.38,1.53,2.69,2.69,0,0,0,1.06,1,3.08,3.08,0,0,0,1.52.38,3.14,3.14,0,0,0,1.3-.27,4.67,4.67,0,0,0,1.3-1l1.11,1.16a6.09,6.09,0,0,1-1.8,1.29,4.93,4.93,0,0,1-1.94.36,4.46,4.46,0,0,1-3.31-1.19,4.41,4.41,0,0,1-1.28-3.27,4.47,4.47,0,0,1,.58-2.29,4.34,4.34,0,0,1,1.7-1.61,4.71,4.71,0,0,1,2.34-.61A5,5,0,0,1,160.31,25.56Z"/><path class="cls-8" d="M161.58,23.83h1.59v3.11a3.64,3.64,0,0,1,.94-.61,2.43,2.43,0,0,1,1-.2,2.16,2.16,0,0,1,1.6.66,2.29,2.29,0,0,1,.51,1.66v4.21h-1.58V29.87a6.9,6.9,0,0,0-.11-1.5.85.85,0,0,0-.94-.81,1.19,1.19,0,0,0-.83.32,1.71,1.71,0,0,0-.54.87,7.28,7.28,0,0,0-.07,1.31v2.56h-1.59V23.83Z"/><path class="cls-8" d="M175.16,29.94H170a1.71,1.71,0,0,0,.59,1.08,1.87,1.87,0,0,0,1.23.4,2.13,2.13,0,0,0,1.54-.63l1.35.63a3.18,3.18,0,0,1-1.21,1.06,3.77,3.77,0,0,1-1.67.34,3.3,3.3,0,0,1-2.44-1,3.22,3.22,0,0,1-.94-2.37,3.33,3.33,0,0,1,.94-2.42,3.16,3.16,0,0,1,2.36-1,3.28,3.28,0,0,1,2.45,1,3.48,3.48,0,0,1,.94,2.55v.3Zm-1.6-1.26a1.6,1.6,0,0,0-.62-.87,1.81,1.81,0,0,0-1.08-.33,1.92,1.92,0,0,0-1.17.38,2.1,2.1,0,0,0-.59.83h3.46Z"/><path class="cls-8" d="M175.69,26.29h.53V24.81a1.22,1.22,0,0,1,.44-.83,1.65,1.65,0,0,1,1.07-.31,3.33,3.33,0,0,1,1.13.23v1.22a2.14,2.14,0,0,0-.57-.1.6.6,0,0,0-.41.12.51.51,0,0,0-.09.36v.8h1v1.35h-1v5h-1.57v-5h-.57V26.29Z"/><path class="cls-8" d="M186,24h1.66L191,32.66h-1.73l-.67-1.78H185l-.7,1.78h-1.71Zm.84,2.29-1.16,3H188Z"/><path class="cls-8" d="M192,26.29h1.62v3.07a4.22,4.22,0,0,0,.12,1.25,1.08,1.08,0,0,0,.4.54,1.13,1.13,0,0,0,.67.19,1.18,1.18,0,0,0,.68-.19,1.12,1.12,0,0,0,.41-.56,4.3,4.3,0,0,0,.1-1.18V26.29h1.6V29a6.63,6.63,0,0,1-.26,2.29,2.49,2.49,0,0,1-1,1.15,2.91,2.91,0,0,1-1.59.4,2.83,2.83,0,0,1-1.7-.47,2.48,2.48,0,0,1-.92-1.31,7.92,7.92,0,0,1-.19-2.11V26.29Z"/><path class="cls-8" d="M199.44,23.94H201v2.35h1v1.38h-1v5h-1.6v-5h-.82V26.29h.82Z"/><path class="cls-8" d="M205.84,26.12a3.38,3.38,0,0,1,1.7.45,3.31,3.31,0,0,1,1.68,2.9,3.35,3.35,0,0,1-.45,1.69,3.23,3.23,0,0,1-1.22,1.23,3.37,3.37,0,0,1-1.71.44,3.18,3.18,0,0,1-2.34-1,3.38,3.38,0,0,1,0-4.78l.08-.08A3.2,3.2,0,0,1,205.84,26.12Zm0,1.51a1.65,1.65,0,0,0-1.24.52,1.84,1.84,0,0,0-.5,1.33,1.87,1.87,0,0,0,.49,1.35,1.64,1.64,0,0,0,1.24.52,1.66,1.66,0,0,0,1.25-.52,2.06,2.06,0,0,0,0-2.67,1.66,1.66,0,0,0-1.21-.53Z"/><path class="cls-8" d="M210.52,26.29h1.6V27a2.73,2.73,0,0,1,.91-.67,2.66,2.66,0,0,1,1.09-.22,2,2,0,0,1,1.08.29,2.11,2.11,0,0,1,.77.86,2.58,2.58,0,0,1,.94-.86,2.55,2.55,0,0,1,1.21-.29,2.24,2.24,0,0,1,1.2.32,1.82,1.82,0,0,1,.74.83,4.42,4.42,0,0,1,.23,1.66v3.74h-1.61V29.43a2.77,2.77,0,0,0-.27-1.47.92.92,0,0,0-.81-.38,1.23,1.23,0,0,0-.74.23,1.39,1.39,0,0,0-.48.65,4,4,0,0,0-.16,1.29v2.88h-1.61V29.57a4.36,4.36,0,0,0-.13-1.24,1.12,1.12,0,0,0-.38-.57,1,1,0,0,0-.61-.19,1.2,1.2,0,0,0-.73.24,1.41,1.41,0,0,0-.49.67,4.09,4.09,0,0,0-.16,1.35v2.84h-1.6V26.29Z"/><path class="cls-8" d="M226.51,26.29h1.6v6.38h-1.6V32a3.12,3.12,0,0,1-.94.64,2.62,2.62,0,0,1-1,.2,2.84,2.84,0,0,1-2.14-1,3.34,3.34,0,0,1-.9-2.38A3.43,3.43,0,0,1,222.4,27a2.78,2.78,0,0,1,2.12-.94,2.69,2.69,0,0,1,1.08.22,2.94,2.94,0,0,1,.93.65v-.7Zm-1.68,1.31a1.61,1.61,0,0,0-1.23.52,1.89,1.89,0,0,0-.49,1.34,1.91,1.91,0,0,0,.5,1.36,1.62,1.62,0,0,0,1.23.53,1.65,1.65,0,0,0,1.25-.52,1.92,1.92,0,0,0,.5-1.37,1.86,1.86,0,0,0-.5-1.35,1.67,1.67,0,0,0-1.26-.51Z"/><path class="cls-8" d="M229.92,23.94h1.6v2.35h1v1.38h-1v5h-1.6v-5h-.82V26.29h.82V23.94Z"/><path class="cls-8" d="M239.71,29.94h-5.14a1.71,1.71,0,0,0,.59,1.08,1.87,1.87,0,0,0,1.23.4,2.13,2.13,0,0,0,1.54-.63l1.35.63a3.18,3.18,0,0,1-1.21,1.06,3.77,3.77,0,0,1-1.67.34,3.3,3.3,0,0,1-2.44-1A3.22,3.22,0,0,1,233,29.5a3.33,3.33,0,0,1,.94-2.42,3.16,3.16,0,0,1,2.36-1,3.28,3.28,0,0,1,2.45,1,3.48,3.48,0,0,1,.94,2.55v.3Zm-1.6-1.26a1.6,1.6,0,0,0-.62-.87,1.81,1.81,0,0,0-1.08-.33,1.92,1.92,0,0,0-1.17.38,2.1,2.1,0,0,0-.59.83h3.46Z"/><line class="cls-1" x1="288.3" y1="174.95" x2="288.3" y2="143.05"/><line class="cls-2" x1="288.3" y1="174.95" x2="288.3" y2="149.51"/><polygon class="cls-3" points="292.79 150.82 288.3 143.05 283.81 150.82 292.79 150.82"/><line class="cls-2" x1="386.3" y1="40.97" x2="386.59" y2="242.97"/><line class="cls-1" x1="357.9" y1="89.2" x2="384.8" y2="89.2"/><line class="cls-2" x1="357.9" y1="95.75" x2="384.8" y2="95.75"/></svg>