<svg id="Layer_1" data-name="Layer 1" xmlns="http://www.w3.org/2000/svg" viewBox="0 0 472.9 286"><defs><style>.cls-1{fill:#f08921;}.cls-10,.cls-2,.cls-6{fill:none;}.cls-2{stroke:#f08921;stroke-width:3px;}.cls-2,.cls-6,.cls-8{stroke-miterlimit:10;}.cls-3{fill:#59b8b3;}.cls-4{fill:#fff;}.cls-5{fill:#6cb2e2;}.cls-6{stroke:#666;stroke-width:2px;}.cls-7,.cls-8{fill:#445464;}.cls-8{stroke:#000;stroke-width:0.25px;}.cls-9{isolation:isolate;}</style></defs><title>automate-scenario-architecture-opsworks</title><line class="cls-1" x1="236.9" y1="143.3" x2="236.9" y2="175.2"/><line class="cls-2" x1="236.9" y1="143.3" x2="236.9" y2="168.74"/><polygon class="cls-1" points="232.41 167.43 236.9 175.2 241.39 167.43 232.41 167.43"/><rect class="cls-3" x="399.9" y="214.5" width="63.7" height="63.7"/><path class="cls-4" d="M498.6,285.3H466.2a1.16,1.16,0,0,1-1.2-1.2v-9.2a1.16,1.16,0,0,1,1.2-1.2h32.4a1.16,1.16,0,0,1,1.2,1.2v9.2a1.16,1.16,0,0,1-1.2,1.2h0Zm-31.1-2.4h30V276h-30v6.9h0Z" transform="translate(-50.7 -27)"/><path class="cls-4" d="M470.7,278.1a1.4,1.4,0,1,0,1.4,1.4,1.43,1.43,0,0,0-1.4-1.4h0Z" transform="translate(-50.7 -27)"/><path class="cls-4" d="M475.2,278.1a1.4,1.4,0,1,0,1.4,1.4,1.37,1.37,0,0,0-1.4-1.4h0Z" transform="translate(-50.7 -27)"/><path class="cls-4" d="M479.8,278.1a1.4,1.4,0,1,0,1.4,1.4,1.43,1.43,0,0,0-1.4-1.4h0Z" transform="translate(-50.7 -27)"/><path class="cls-4" d="M498.6,272.7H466.2a1.16,1.16,0,0,1-1.2-1.2v-9.2a1.16,1.16,0,0,1,1.2-1.2h32.4a1.16,1.16,0,0,1,1.2,1.2v9.2a1.16,1.16,0,0,1-1.2,1.2h0Zm-31.1-2.4h30v-6.9h-30v6.9h0Z" transform="translate(-50.7 -27)"/><path class="cls-4" d="M470.7,265.5a1.4,1.4,0,1,0,1.4,1.4,1.43,1.43,0,0,0-1.4-1.4h0Z" transform="translate(-50.7 -27)"/><path class="cls-4" d="M475.2,265.5a1.4,1.4,0,1,0,1.4,1.4,1.37,1.37,0,0,0-1.4-1.4h0Z" transform="translate(-50.7 -27)"/><path class="cls-4" d="M479.8,265.5a1.4,1.4,0,1,0,1.4,1.4,1.43,1.43,0,0,0-1.4-1.4h0Z" transform="translate(-50.7 -27)"/><path class="cls-4" d="M498.6,260.1H466.2a1.16,1.16,0,0,1-1.2-1.2v-9.2a1.16,1.16,0,0,1,1.2-1.2h32.4a1.16,1.16,0,0,1,1.2,1.2v9.2a1.16,1.16,0,0,1-1.2,1.2h0Zm-31.1-2.4h30v-6.9h-30v6.9h0Z" transform="translate(-50.7 -27)"/><path class="cls-4" d="M470.7,252.9a1.4,1.4,0,1,0,1.4,1.4,1.43,1.43,0,0,0-1.4-1.4h0Z" transform="translate(-50.7 -27)"/><path class="cls-4" d="M475.2,252.9a1.4,1.4,0,1,0,1.4,1.4,1.37,1.37,0,0,0-1.4-1.4h0Z" transform="translate(-50.7 -27)"/><path class="cls-4" d="M479.8,252.9a1.4,1.4,0,1,0,1.4,1.4,1.43,1.43,0,0,0-1.4-1.4h0Z" transform="translate(-50.7 -27)"/><rect class="cls-3" x="399.9" y="146.5" width="63.7" height="63.7"/><path class="cls-4" d="M498.6,217.3H466.2a1.16,1.16,0,0,1-1.2-1.2v-9.2a1.16,1.16,0,0,1,1.2-1.2h32.4a1.16,1.16,0,0,1,1.2,1.2v9.2a1.22,1.22,0,0,1-1.2,1.2h0Zm-31.1-2.4h30V208h-30v6.9h0Z" transform="translate(-50.7 -27)"/><path class="cls-4" d="M470.7,210a1.4,1.4,0,1,0,1.4,1.4,1.43,1.43,0,0,0-1.4-1.4h0Z" transform="translate(-50.7 -27)"/><path class="cls-4" d="M475.2,210a1.4,1.4,0,1,0,1.4,1.4,1.37,1.37,0,0,0-1.4-1.4h0Z" transform="translate(-50.7 -27)"/><path class="cls-4" d="M479.8,210a1.4,1.4,0,1,0,1.4,1.4,1.43,1.43,0,0,0-1.4-1.4h0Z" transform="translate(-50.7 -27)"/><path class="cls-4" d="M498.6,204.7H466.2a1.16,1.16,0,0,1-1.2-1.2v-9.2a1.16,1.16,0,0,1,1.2-1.2h32.4a1.16,1.16,0,0,1,1.2,1.2v9.2a1.22,1.22,0,0,1-1.2,1.2h0Zm-31.1-2.4h30v-6.9h-30v6.9h0Z" transform="translate(-50.7 -27)"/><path class="cls-4" d="M470.7,197.4a1.4,1.4,0,1,0,1.4,1.4,1.43,1.43,0,0,0-1.4-1.4h0Z" transform="translate(-50.7 -27)"/><path class="cls-4" d="M475.2,197.4a1.4,1.4,0,1,0,1.4,1.4,1.37,1.37,0,0,0-1.4-1.4h0Z" transform="translate(-50.7 -27)"/><path class="cls-4" d="M479.8,197.4a1.4,1.4,0,1,0,1.4,1.4,1.43,1.43,0,0,0-1.4-1.4h0Z" transform="translate(-50.7 -27)"/><path class="cls-4" d="M498.6,192.1H466.2a1.16,1.16,0,0,1-1.2-1.2v-9.2a1.16,1.16,0,0,1,1.2-1.2h32.4a1.16,1.16,0,0,1,1.2,1.2v9.2a1.22,1.22,0,0,1-1.2,1.2h0Zm-31.1-2.4h30v-6.9h-30v6.9h0Z" transform="translate(-50.7 -27)"/><path class="cls-4" d="M470.7,184.9a1.4,1.4,0,1,0,1.4,1.4,1.43,1.43,0,0,0-1.4-1.4h0Z" transform="translate(-50.7 -27)"/><path class="cls-4" d="M475.2,184.9a1.4,1.4,0,1,0,1.4,1.4,1.37,1.37,0,0,0-1.4-1.4h0Z" transform="translate(-50.7 -27)"/><path class="cls-4" d="M479.8,184.9a1.4,1.4,0,1,0,1.4,1.4,1.43,1.43,0,0,0-1.4-1.4h0Z" transform="translate(-50.7 -27)"/><rect class="cls-3" x="399.9" y="78.5" width="63.7" height="63.7"/><path class="cls-4" d="M498.6,149.2H466.2A1.16,1.16,0,0,1,465,148v-9.2a1.16,1.16,0,0,1,1.2-1.2h32.4a1.16,1.16,0,0,1,1.2,1.2V148a1.16,1.16,0,0,1-1.2,1.2h0Zm-31.1-2.3h30V140h-30v6.9h0Z" transform="translate(-50.7 -27)"/><path class="cls-4" d="M470.7,142a1.4,1.4,0,1,0,1.4,1.4,1.43,1.43,0,0,0-1.4-1.4h0Z" transform="translate(-50.7 -27)"/><path class="cls-4" d="M475.2,142a1.4,1.4,0,1,0,1.4,1.4,1.37,1.37,0,0,0-1.4-1.4h0Z" transform="translate(-50.7 -27)"/><path class="cls-4" d="M479.8,142a1.4,1.4,0,1,0,1.4,1.4,1.43,1.43,0,0,0-1.4-1.4h0Z" transform="translate(-50.7 -27)"/><path class="cls-4" d="M498.6,136.6H466.2a1.16,1.16,0,0,1-1.2-1.2v-9.2a1.16,1.16,0,0,1,1.2-1.2h32.4a1.16,1.16,0,0,1,1.2,1.2v9.2a1.16,1.16,0,0,1-1.2,1.2h0Zm-31.1-2.3h30v-6.9h-30v6.9h0Z" transform="translate(-50.7 -27)"/><path class="cls-4" d="M470.7,129.4a1.4,1.4,0,1,0,1.4,1.4,1.43,1.43,0,0,0-1.4-1.4h0Z" transform="translate(-50.7 -27)"/><path class="cls-4" d="M475.2,129.4a1.4,1.4,0,1,0,1.4,1.4,1.37,1.37,0,0,0-1.4-1.4h0Z" transform="translate(-50.7 -27)"/><path class="cls-4" d="M479.8,129.4a1.4,1.4,0,1,0,1.4,1.4,1.43,1.43,0,0,0-1.4-1.4h0Z" transform="translate(-50.7 -27)"/><path class="cls-4" d="M498.6,124H466.2a1.16,1.16,0,0,1-1.2-1.2v-9.2a1.16,1.16,0,0,1,1.2-1.2h32.4a1.16,1.16,0,0,1,1.2,1.2v9.2a1.16,1.16,0,0,1-1.2,1.2h0Zm-31.1-2.3h30v-6.9h-30v6.9h0Z" transform="translate(-50.7 -27)"/><path class="cls-4" d="M470.7,116.8a1.4,1.4,0,1,0,1.4,1.4,1.51,1.51,0,0,0-1.4-1.4h0Z" transform="translate(-50.7 -27)"/><path class="cls-4" d="M475.2,116.8a1.4,1.4,0,1,0,1.4,1.4,1.43,1.43,0,0,0-1.4-1.4h0Z" transform="translate(-50.7 -27)"/><path class="cls-4" d="M479.8,116.8a1.4,1.4,0,1,0,1.4,1.4,1.51,1.51,0,0,0-1.4-1.4h0Z" transform="translate(-50.7 -27)"/><rect class="cls-3" x="399.9" y="10.5" width="63.7" height="63.7"/><path class="cls-4" d="M498.6,81.2H466.2A1.16,1.16,0,0,1,465,80V70.8a1.16,1.16,0,0,1,1.2-1.2h32.4a1.16,1.16,0,0,1,1.2,1.2V80a1.16,1.16,0,0,1-1.2,1.2h0Zm-31.1-2.4h30V71.9h-30v6.9h0Z" transform="translate(-50.7 -27)"/><path class="cls-4" d="M470.7,74a1.4,1.4,0,1,0,1.4,1.4,1.43,1.43,0,0,0-1.4-1.4h0Z" transform="translate(-50.7 -27)"/><path class="cls-4" d="M475.2,74a1.4,1.4,0,1,0,1.4,1.4,1.37,1.37,0,0,0-1.4-1.4h0Z" transform="translate(-50.7 -27)"/><path class="cls-4" d="M479.8,74a1.4,1.4,0,1,0,1.4,1.4,1.43,1.43,0,0,0-1.4-1.4h0Z" transform="translate(-50.7 -27)"/><path class="cls-4" d="M498.6,68.6H466.2a1.16,1.16,0,0,1-1.2-1.2V58.2a1.16,1.16,0,0,1,1.2-1.2h32.4a1.16,1.16,0,0,1,1.2,1.2v9.2a1.16,1.16,0,0,1-1.2,1.2h0Zm-31.1-2.4h30V59.3h-30v6.9h0Z" transform="translate(-50.7 -27)"/><path class="cls-4" d="M470.7,61.4a1.4,1.4,0,1,0,1.4,1.4,1.43,1.43,0,0,0-1.4-1.4h0Z" transform="translate(-50.7 -27)"/><path class="cls-4" d="M475.2,61.4a1.4,1.4,0,1,0,1.4,1.4,1.37,1.37,0,0,0-1.4-1.4h0Z" transform="translate(-50.7 -27)"/><path class="cls-4" d="M479.8,61.4a1.4,1.4,0,1,0,1.4,1.4,1.43,1.43,0,0,0-1.4-1.4h0Z" transform="translate(-50.7 -27)"/><path class="cls-4" d="M498.6,56H466.2a1.16,1.16,0,0,1-1.2-1.2V45.6a1.16,1.16,0,0,1,1.2-1.2h32.4a1.16,1.16,0,0,1,1.2,1.2v9.2a1.16,1.16,0,0,1-1.2,1.2h0Zm-31.1-2.4h30V46.7h-30v6.9h0Z" transform="translate(-50.7 -27)"/><path class="cls-4" d="M470.7,48.8a1.4,1.4,0,1,0,1.4,1.4,1.43,1.43,0,0,0-1.4-1.4h0Z" transform="translate(-50.7 -27)"/><path class="cls-4" d="M475.2,48.8a1.4,1.4,0,1,0,1.4,1.4,1.37,1.37,0,0,0-1.4-1.4h0Z" transform="translate(-50.7 -27)"/><path class="cls-4" d="M479.8,48.8a1.4,1.4,0,1,0,1.4,1.4,1.43,1.43,0,0,0-1.4-1.4h0Z" transform="translate(-50.7 -27)"/><polygon class="cls-5" points="142.7 164.4 134.2 164.4 134.2 155.9 139.2 155.9 139.2 159.4 142.7 159.4 142.7 164.4"/><path class="cls-5" d="M189.9,174.6h-5V162.5h5v12.1Zm0-18.1h-5V144.4h5v12.1Zm0-18.1h-5V126.3h5v12.1Zm0-18.2h-5V108.1h5v12.1Zm0-18.1h-5V90h5v12.1Zm0-18.1h-5V71.9h5V84Zm0-18.1h-5V53.8h5V65.9Z" transform="translate(-50.7 -27)"/><polygon class="cls-5" points="139.2 18.9 134.2 18.9 134.2 10.4 142.7 10.4 142.7 15.4 139.2 15.4 139.2 18.9"/><rect class="cls-5" x="313.5" y="159.4" width="12.2" height="5"/><rect class="cls-5" x="295.2" y="159.4" width="12.2" height="5"/><rect class="cls-5" x="276.9" y="159.4" width="12.2" height="5"/><rect class="cls-5" x="350.1" y="159.4" width="12.2" height="5"/><rect class="cls-5" x="331.8" y="159.4" width="12.2" height="5"/><rect class="cls-5" x="185.4" y="159.4" width="12.2" height="5"/><rect class="cls-5" x="240.3" y="159.4" width="12.2" height="5"/><rect class="cls-5" x="222" y="159.4" width="12.2" height="5"/><rect class="cls-5" x="203.7" y="159.4" width="12.2" height="5"/><rect class="cls-5" x="167.1" y="159.4" width="12.2" height="5"/><rect class="cls-5" x="148.8" y="159.4" width="12.2" height="5"/><rect class="cls-5" x="258.6" y="159.4" width="12.2" height="5"/><rect class="cls-5" x="185.4" y="10.4" width="12.2" height="5"/><rect class="cls-5" x="148.8" y="10.4" width="12.2" height="5"/><rect class="cls-5" x="331.8" y="10.4" width="12.2" height="5"/><rect class="cls-5" x="167.1" y="10.4" width="12.2" height="5"/><rect class="cls-5" x="313.5" y="10.4" width="12.2" height="5"/><rect class="cls-5" x="295.2" y="10.4" width="12.2" height="5"/><rect class="cls-5" x="258.6" y="10.4" width="12.2" height="5"/><rect class="cls-5" x="240.3" y="10.4" width="12.2" height="5"/><rect class="cls-5" x="203.7" y="10.4" width="12.2" height="5"/><rect class="cls-5" x="222" y="10.4" width="12.2" height="5"/><rect class="cls-5" x="276.9" y="10.4" width="12.2" height="5"/><rect class="cls-5" x="350.1" y="10.4" width="12.2" height="5"/><polygon class="cls-5" points="372.4 159.4 368.9 159.4 368.9 164.4 377.4 164.4 377.4 155.9 372.4 155.9 372.4 159.4"/><polygon class="cls-5" points="368.9 10.4 368.9 15.4 372.4 15.4 372.4 18.9 377.4 18.9 377.4 10.4 368.9 10.4"/><rect class="cls-5" x="372.4" y="117.4" width="5" height="12.1"/><rect class="cls-5" x="372.4" y="135.5" width="5" height="12.1"/><rect class="cls-5" x="372.4" y="99.3" width="5" height="12.1"/><rect class="cls-5" x="372.4" y="26.8" width="5" height="12.1"/><rect class="cls-5" x="372.4" y="44.9" width="5" height="12.1"/><rect class="cls-5" x="372.4" y="81.2" width="5" height="12.1"/><rect class="cls-5" x="372.4" y="63" width="5" height="12.1"/><line class="cls-1" x1="384.8" y1="42.35" x2="399.8" y2="42.35"/><line class="cls-2" x1="384.8" y1="42.35" x2="393.34" y2="42.35"/><polygon class="cls-1" points="392.03 46.84 399.8 42.35 392.03 37.86 392.03 46.84"/><line class="cls-1" x1="387.09" y1="110.8" x2="400.41" y2="109.9"/><line class="cls-2" x1="387.09" y1="110.8" x2="393.96" y2="110.34"/><polygon class="cls-1" points="392.96 114.9 400.41 109.9 392.35 105.95 392.96 114.9"/><line class="cls-1" x1="386.59" y1="177.7" x2="399.9" y2="177.7"/><line class="cls-2" x1="386.59" y1="177.7" x2="393.44" y2="177.7"/><polygon class="cls-1" points="392.13 182.19 399.9 177.7 392.13 173.21 392.13 182.19"/><line class="cls-1" x1="386.59" y1="241.3" x2="399.9" y2="241.3"/><line class="cls-2" x1="386.59" y1="241.3" x2="393.44" y2="241.3"/><polygon class="cls-1" points="392.13 245.79 399.9 241.3 392.13 236.81 392.13 245.79"/><rect class="cls-6" x="1" y="1" width="470.9" height="284"/><rect class="cls-7" x="221.7" y="175.2" width="78" height="79"/><rect class="cls-8" x="229.3" y="183.2" width="78" height="79"/><rect class="cls-1" x="8.7" y="23.9" width="92.8" height="99.8"/><path class="cls-4" d="M135.5,108.3H75.1a2.8,2.8,0,0,1-2.7-2.9V64a2.74,2.74,0,0,1,2.7-2.9h60.4a2.8,2.8,0,0,1,2.7,2.9v41.3a2.83,2.83,0,0,1-2.7,3h0Zm-57.6-5.9h54.9V67H77.9v35.4h0Z" transform="translate(-50.7 -27)"/><path class="cls-4" d="M130.1,100.9H80.6a1.45,1.45,0,0,1-1.4-1.5V69.9a1.45,1.45,0,0,1,1.4-1.5H130a1.45,1.45,0,0,1,1.4,1.5V99.5a1.42,1.42,0,0,1-1.3,1.4h0ZM82,97.9h46.7V71.4H82V97.9h0Z" transform="translate(-50.7 -27)"/><path class="cls-4" d="M144,116.9H67.6a2.8,2.8,0,0,1-2.7-2.9,2.74,2.74,0,0,1,2.7-2.9H144a2.8,2.8,0,0,1,2.7,2.9,2.74,2.74,0,0,1-2.7,2.9h0Z" transform="translate(-50.7 -27)"/><rect class="cls-5" x="256.6" y="42" width="101.3" height="101.3"/><path class="cls-4" d="M384.2,138H328.4a2.11,2.11,0,0,1-2.1-2.1V120a2.11,2.11,0,0,1,2.1-2.1h55.8a2.11,2.11,0,0,1,2.1,2.1v15.9a2.18,2.18,0,0,1-2.1,2.1h0Zm-53.8-4.1h51.7V122.1H330.4v11.8h0Z" transform="translate(-50.7 -27)"/><path class="cls-4" d="M336,125.5a2.4,2.4,0,1,0,2.4,2.4,2.43,2.43,0,0,0-2.4-2.4h0Z" transform="translate(-50.7 -27)"/><path class="cls-4" d="M343.8,125.5a2.4,2.4,0,1,0,2.4,2.4,2.37,2.37,0,0,0-2.4-2.4h0Z" transform="translate(-50.7 -27)"/><path class="cls-4" d="M351.6,125.5a2.4,2.4,0,1,0,2.4,2.4,2.37,2.37,0,0,0-2.4-2.4h0Z" transform="translate(-50.7 -27)"/><path class="cls-4" d="M384.2,116.2H328.4a2.11,2.11,0,0,1-2.1-2.1V98.2a2.11,2.11,0,0,1,2.1-2.1h55.8a2.11,2.11,0,0,1,2.1,2.1v15.9a2,2,0,0,1-2.1,2.1h0Zm-53.8-4h51.7V100.4H330.4v11.8h0Z" transform="translate(-50.7 -27)"/><path class="cls-4" d="M336,103.8a2.4,2.4,0,1,0,2.4,2.4,2.5,2.5,0,0,0-2.4-2.4h0Z" transform="translate(-50.7 -27)"/><path class="cls-4" d="M343.8,103.8a2.4,2.4,0,1,0,2.4,2.4,2.43,2.43,0,0,0-2.4-2.4h0Z" transform="translate(-50.7 -27)"/><path class="cls-4" d="M351.6,103.8a2.4,2.4,0,1,0,2.4,2.4,2.43,2.43,0,0,0-2.4-2.4h0Z" transform="translate(-50.7 -27)"/><path class="cls-4" d="M384.2,94.6H328.4a2.11,2.11,0,0,1-2.1-2.1V76.6a2.11,2.11,0,0,1,2.1-2.1h55.8a2.11,2.11,0,0,1,2.1,2.1V92.5a2.18,2.18,0,0,1-2.1,2.1h0Zm-53.8-4.1h51.7V78.6H330.4V90.5h0Z" transform="translate(-50.7 -27)"/><path class="cls-4" d="M336,82.1a2.37,2.37,0,0,0-2.4,2.4,2.31,2.31,0,0,0,2.4,2.4,2.37,2.37,0,0,0,2.4-2.4,2.43,2.43,0,0,0-2.4-2.4h0Z" transform="translate(-50.7 -27)"/><path class="cls-4" d="M343.8,82.1a2.37,2.37,0,0,0-2.4,2.4,2.31,2.31,0,0,0,2.4,2.4,2.4,2.4,0,0,0,0-4.8h0Z" transform="translate(-50.7 -27)"/><path class="cls-4" d="M351.6,82.1a2.37,2.37,0,0,0-2.4,2.4,2.31,2.31,0,0,0,2.4,2.4,2.37,2.37,0,0,0,2.4-2.4,2.31,2.31,0,0,0-2.4-2.4h0Z" transform="translate(-50.7 -27)"/><path class="cls-5" d="M384.8,126.2a9.4,9.4,0,1,1,9.4-9.4A9.39,9.39,0,0,1,384.8,126.2Z" transform="translate(-50.7 -27)"/><path class="cls-4" d="M384.8,109.8a7,7,0,1,1-7,7,7,7,0,0,1,7-7m0-4.8a11.8,11.8,0,1,0,11.8,11.8A11.76,11.76,0,0,0,384.8,105h0Z" transform="translate(-50.7 -27)"/><path class="cls-4" d="M380,116.8h0a5.18,5.18,0,0,1,5.4-5.3,5,5,0,0,1,4,1.6l-1.4,1.7a3.81,3.81,0,0,0-2.6-1.1,3,3,0,0,0-3,3.2h0a3,3,0,0,0,3,3.2,3.78,3.78,0,0,0,2.7-1.2l1.4,1.4A5.45,5.45,0,0,1,380,116.8Z" transform="translate(-50.7 -27)"/><rect class="cls-5" x="149.9" y="41.1" width="101.3" height="101.3"/><path class="cls-4" d="M221,87.9h31.4v24.8H221V87.9m-6.1-6v36.9h43.4V81.9H214.9Z" transform="translate(-50.7 -27)"/><path class="cls-4" d="M239.6,128.4h16.5a3,3,0,0,0,3-3,3.08,3.08,0,0,0-3-3H239.6a3,3,0,0,0-3,3,3,3,0,0,0,3,3h0Z" transform="translate(-50.7 -27)"/><path class="cls-4" d="M226.7,126.9a2.5,2.5,0,1,1-2.5,2.5,2.48,2.48,0,0,1,2.5-2.5m0-5.1a7.7,7.7,0,1,0,0,15.4,7.7,7.7,0,0,0,0-15.4h0Z" transform="translate(-50.7 -27)"/><path class="cls-4" d="M268.4,99.7h6.9l6.3,12.3v7a16.84,16.84,0,0,0-13.1-6.4l-0.1-12.9m-6.1-6v26.7a11.15,11.15,0,0,1,6-1.8,10.68,10.68,0,0,1,10.7,9.7h8.5V110.6l-8.6-16.9H262.3Z" transform="translate(-50.7 -27)"/><path class="cls-4" d="M268.3,126.9a2.5,2.5,0,1,1-2.5,2.5,2.48,2.48,0,0,1,2.5-2.5m0-5.1a7.7,7.7,0,1,0,0,15.4,7.7,7.7,0,0,0,0-15.4h0Z" transform="translate(-50.7 -27)"/><rect class="cls-8" x="238.2" y="193.5" width="78" height="79"/><path class="cls-4" d="M351.1,280.8h-46a1.75,1.75,0,0,1-1.7-1.7V266a1.75,1.75,0,0,1,1.7-1.7h46a1.75,1.75,0,0,1,1.7,1.7v13.1a1.69,1.69,0,0,1-1.7,1.7h0Zm-44.3-3.3h42.6v-9.8H306.8v9.8h0Z" transform="translate(-50.7 -27)"/><path class="cls-4" d="M311.4,270.6a2,2,0,1,0,2,2,2,2,0,0,0-2-2h0Z" transform="translate(-50.7 -27)"/><path class="cls-4" d="M317.8,270.6a2,2,0,1,0,2,2,2,2,0,0,0-2-2h0Z" transform="translate(-50.7 -27)"/><path class="cls-4" d="M324.3,270.6a2,2,0,1,0,2,2,2,2,0,0,0-2-2h0Z" transform="translate(-50.7 -27)"/><path class="cls-4" d="M351.1,263h-46a1.75,1.75,0,0,1-1.7-1.7V248.2a1.75,1.75,0,0,1,1.7-1.7h46a1.75,1.75,0,0,1,1.7,1.7v13.1a1.75,1.75,0,0,1-1.7,1.7h0Zm-44.3-3.4h42.6v-9.8H306.8v9.8h0Z" transform="translate(-50.7 -27)"/><path class="cls-4" d="M311.4,252.7a2,2,0,1,0,2,2,2,2,0,0,0-2-2h0Z" transform="translate(-50.7 -27)"/><path class="cls-4" d="M317.8,252.7a2,2,0,1,0,2,2,2,2,0,0,0-2-2h0Z" transform="translate(-50.7 -27)"/><path class="cls-4" d="M324.3,252.7a2,2,0,1,0,2,2,2,2,0,0,0-2-2h0Z" transform="translate(-50.7 -27)"/><path class="cls-4" d="M351.1,245.1h-46a1.75,1.75,0,0,1-1.7-1.7V230.3a1.75,1.75,0,0,1,1.7-1.7h46a1.75,1.75,0,0,1,1.7,1.7v13.1a1.75,1.75,0,0,1-1.7,1.7h0Zm-44.3-3.4h42.6v-9.8H306.8v9.8h0Z" transform="translate(-50.7 -27)"/><path class="cls-4" d="M311.4,234.8a2,2,0,1,0,2,2,2,2,0,0,0-2-2h0Z" transform="translate(-50.7 -27)"/><path class="cls-4" d="M317.8,234.8a2,2,0,1,0,2,2,2,2,0,0,0-2-2h0Z" transform="translate(-50.7 -27)"/><path class="cls-4" d="M324.3,234.8a2,2,0,1,0,2,2,2,2,0,0,0-2-2h0Z" transform="translate(-50.7 -27)"/><g class="cls-9"><path class="cls-4" d="M76.07,130.16h1.44l1.17,3.32,1.26-3.32h0.88l1.24,3.29,1.18-3.29h1.44L82.55,136H81.62l-1.25-3.33L79.09,136H78.18Z" transform="translate(-50.7 -27)"/><path class="cls-4" d="M88.26,130a3.09,3.09,0,0,1,1.56.41A3,3,0,0,1,91,131.54a3,3,0,0,1,.41,1.53,3.06,3.06,0,0,1-.41,1.55,3,3,0,0,1-1.12,1.13,3.09,3.09,0,0,1-1.56.41,2.91,2.91,0,0,1-2.15-.89,3.1,3.1,0,0,1,.12-4.46A2.93,2.93,0,0,1,88.26,130Zm0,1.38a1.51,1.51,0,0,0-1.14.47,1.69,1.69,0,0,0-.45,1.22,1.72,1.72,0,0,0,.45,1.24,1.5,1.5,0,0,0,1.14.47,1.52,1.52,0,0,0,1.15-.48,1.88,1.88,0,0,0,0-2.45A1.52,1.52,0,0,0,88.28,131.39Z" transform="translate(-50.7 -27)"/><path class="cls-4" d="M92.21,130.16h1.26v0.74a1.57,1.57,0,0,1,.54-0.66,1.31,1.31,0,0,1,.74-0.23,1.37,1.37,0,0,1,.6.15l-0.46,1.26a1,1,0,0,0-.42-0.13,0.67,0.67,0,0,0-.57.42,3.84,3.84,0,0,0-.23,1.64V136H92.21v-5.84Z" transform="translate(-50.7 -27)"/><path class="cls-4" d="M96.09,127.9h1.47v4.67l2.16-2.41h1.84L99,133l2.82,3H100l-2.48-2.69V136H96.09v-8.1Z" transform="translate(-50.7 -27)"/><path class="cls-4" d="M106,131l-0.91.91a1.54,1.54,0,0,0-1-.55,0.63,0.63,0,0,0-.39.11,0.31,0.31,0,0,0-.14.26,0.32,0.32,0,0,0,.09.22,1.63,1.63,0,0,0,.44.27l0.54,0.27a3.18,3.18,0,0,1,1.17.85,1.78,1.78,0,0,1-.26,2.32,2.19,2.19,0,0,1-1.53.52,2.44,2.44,0,0,1-2-1l0.9-1a2.06,2.06,0,0,0,.6.49,1.33,1.33,0,0,0,.61.19,0.74,0.74,0,0,0,.47-0.14,0.4,0.4,0,0,0,.18-0.32,0.91,0.91,0,0,0-.64-0.66l-0.49-.25a2.09,2.09,0,0,1-1.42-1.79,1.55,1.55,0,0,1,.53-1.18,1.94,1.94,0,0,1,1.37-.49A2.37,2.37,0,0,1,106,131Z" transform="translate(-50.7 -27)"/><path class="cls-4" d="M107.47,128h1.47v2.15h0.87v1.26h-0.87V136h-1.47v-4.58h-0.75v-1.26h0.75V128Z" transform="translate(-50.7 -27)"/><path class="cls-4" d="M114.91,130.16h1.47V136h-1.47v-0.62a2.89,2.89,0,0,1-.86.59,2.41,2.41,0,0,1-.94.18,2.6,2.6,0,0,1-2-.88,3.06,3.06,0,0,1-.83-2.18,3.14,3.14,0,0,1,.8-2.22,2.55,2.55,0,0,1,1.94-.87,2.46,2.46,0,0,1,1,.2,2.69,2.69,0,0,1,.85.6v-0.64Zm-1.54,1.2a1.48,1.48,0,0,0-1.13.48,1.92,1.92,0,0,0,0,2.48,1.48,1.48,0,0,0,1.13.49,1.51,1.51,0,0,0,1.15-.48,1.76,1.76,0,0,0,.46-1.26,1.71,1.71,0,0,0-.46-1.24A1.53,1.53,0,0,0,113.36,131.36Z" transform="translate(-50.7 -27)"/><path class="cls-4" d="M118,128h1.47v2.15h0.87v1.26H119.5V136H118v-4.58h-0.75v-1.26H118V128Z" transform="translate(-50.7 -27)"/><path class="cls-4" d="M121.72,127.75a0.9,0.9,0,0,1,.66.28,0.93,0.93,0,0,1,.28.68,0.92,0.92,0,0,1-.27.67,0.89,0.89,0,0,1-.65.28,0.9,0.9,0,0,1-.67-0.28,0.94,0.94,0,0,1-.28-0.68A0.93,0.93,0,0,1,121.72,127.75ZM121,130.16h1.47V136H121v-5.84Z" transform="translate(-50.7 -27)"/><path class="cls-4" d="M126.53,130a3.09,3.09,0,0,1,1.56.41,3,3,0,0,1,1.14,1.12,3,3,0,0,1,.41,1.53,3.06,3.06,0,0,1-.41,1.55,3,3,0,0,1-1.12,1.13,3.09,3.09,0,0,1-1.56.41,2.91,2.91,0,0,1-2.15-.89,3.1,3.1,0,0,1,.12-4.46A2.93,2.93,0,0,1,126.53,130Zm0,1.38a1.51,1.51,0,0,0-1.14.47,1.69,1.69,0,0,0-.45,1.22,1.72,1.72,0,0,0,.45,1.24,1.5,1.5,0,0,0,1.14.47,1.52,1.52,0,0,0,1.15-.48,1.88,1.88,0,0,0,0-2.45A1.52,1.52,0,0,0,126.56,131.39Z" transform="translate(-50.7 -27)"/><path class="cls-4" d="M130.83,130.16h1.47v0.6a3.54,3.54,0,0,1,.9-0.58A2.19,2.19,0,0,1,134,130a2,2,0,0,1,1.48.61,2.08,2.08,0,0,1,.51,1.53V136h-1.45v-2.56a6.47,6.47,0,0,0-.09-1.39,1,1,0,0,0-.33-0.52,0.91,0.91,0,0,0-.58-0.18,1.08,1.08,0,0,0-.76.3,1.59,1.59,0,0,0-.44.82,6.63,6.63,0,0,0-.06,1.19V136h-1.47v-5.84Z" transform="translate(-50.7 -27)"/></g><g class="cls-9"><g class="cls-9"><path class="cls-4" d="M218.47,143.82l-1.05,1a3.26,3.26,0,0,0-2.42-1.13,2.65,2.65,0,0,0-2.68,2.68,2.82,2.82,0,0,0,.34,1.4,2.46,2.46,0,0,0,1,1,2.81,2.81,0,0,0,1.4.35,2.86,2.86,0,0,0,1.2-.25,4.26,4.26,0,0,0,1.19-.89l1,1.06a5.59,5.59,0,0,1-1.65,1.18,4.51,4.51,0,0,1-1.78.33,4.09,4.09,0,0,1-3-1.17,4,4,0,0,1-1.17-3,4.1,4.1,0,0,1,.53-2.1,4,4,0,0,1,1.53-1.48,4.32,4.32,0,0,1,2.15-.56A4.56,4.56,0,0,1,218.47,143.82Z" transform="translate(-50.7 -27)"/><path class="cls-4" d="M219.63,142.23h1.46v2.85a3.33,3.33,0,0,1,.86-0.56,2.22,2.22,0,0,1,.88-0.19,2,2,0,0,1,1.47.6,2.1,2.1,0,0,1,.51,1.53v3.86h-1.44v-2.56a6.33,6.33,0,0,0-.1-1.37,1,1,0,0,0-.33-0.54,0.94,0.94,0,0,0-.58-0.18,1.09,1.09,0,0,0-.77.3,1.56,1.56,0,0,0-.44.8,6.68,6.68,0,0,0-.06,1.2v2.35h-1.46v-8.1Z" transform="translate(-50.7 -27)"/><path class="cls-4" d="M232.08,147.84h-4.71a1.56,1.56,0,0,0,.55,1,1.71,1.71,0,0,0,1.13.37,2,2,0,0,0,1.41-.57l1.24,0.58a2.91,2.91,0,0,1-1.11,1,3.45,3.45,0,0,1-1.53.31,3,3,0,0,1-2.24-.87,3,3,0,0,1-.86-2.17,3.05,3.05,0,0,1,.86-2.22,2.9,2.9,0,0,1,2.16-.88,3,3,0,0,1,2.25.88,3.19,3.19,0,0,1,.86,2.33v0.28Zm-1.47-1.15a1.47,1.47,0,0,0-.57-0.79,1.66,1.66,0,0,0-1-.31,1.76,1.76,0,0,0-1.08.34,1.92,1.92,0,0,0-.54.76h3.18Z" transform="translate(-50.7 -27)"/><path class="cls-4" d="M232.57,144.49h0.52c0-.77,0-1.22,0-1.36a1.12,1.12,0,0,1,.41-0.76,1.51,1.51,0,0,1,1-.28,3.08,3.08,0,0,1,1,.21v1.12a2,2,0,0,0-.52-0.09,0.55,0.55,0,0,0-.38.11,0.47,0.47,0,0,0-.09.33v0.73h0.93v1.24h-0.93v4.6h-1.47v-4.6h-0.52v-1.24Z" transform="translate(-50.7 -27)"/><path class="cls-4" d="M242,142.43h1.53l3,7.9H245l-0.62-1.63h-3.22l-0.64,1.63h-1.56Zm0.77,2.09-1.06,2.71h2.11Z" transform="translate(-50.7 -27)"/><path class="cls-4" d="M247.55,144.49H249v2.81a3.89,3.89,0,0,0,.11,1.14,1,1,0,0,0,.36.5,1,1,0,0,0,.62.18,1.08,1.08,0,0,0,.62-0.17,1,1,0,0,0,.38-0.51,3.93,3.93,0,0,0,.09-1.08v-2.86h1.47V147a6.07,6.07,0,0,1-.24,2.09,2.28,2.28,0,0,1-.87,1.06,2.67,2.67,0,0,1-1.46.37,2.59,2.59,0,0,1-1.55-.43,2.27,2.27,0,0,1-.84-1.2,7.26,7.26,0,0,1-.17-1.93v-2.43Z" transform="translate(-50.7 -27)"/><path class="cls-4" d="M254.34,142.34h1.47v2.15h0.87v1.26H255.8v4.58h-1.47v-4.58h-0.75v-1.26h0.75v-2.15Z" transform="translate(-50.7 -27)"/><path class="cls-4" d="M260.2,144.34a3.09,3.09,0,0,1,1.56.41,3,3,0,0,1,1.14,1.12,3,3,0,0,1,.41,1.53,3.06,3.06,0,0,1-.41,1.55,3,3,0,0,1-1.12,1.13,3.09,3.09,0,0,1-1.56.41,2.91,2.91,0,0,1-2.15-.89,3.1,3.1,0,0,1,.12-4.46A2.93,2.93,0,0,1,260.2,144.34Zm0,1.38a1.51,1.51,0,0,0-1.14.47,1.69,1.69,0,0,0-.45,1.22,1.72,1.72,0,0,0,.45,1.24,1.5,1.5,0,0,0,1.14.47,1.52,1.52,0,0,0,1.15-.48,1.88,1.88,0,0,0,0-2.45A1.52,1.52,0,0,0,260.22,145.72Z" transform="translate(-50.7 -27)"/><path class="cls-4" d="M264.49,144.49H266v0.67a2.49,2.49,0,0,1,.84-0.62,2.44,2.44,0,0,1,1-.2,1.87,1.87,0,0,1,1,.27,1.94,1.94,0,0,1,.71.78,2.31,2.31,0,0,1,2-1.05,2.06,2.06,0,0,1,1.1.29,1.68,1.68,0,0,1,.68.76,4,4,0,0,1,.21,1.52v3.43H272v-3a2.54,2.54,0,0,0-.25-1.35,0.85,0.85,0,0,0-.74-0.35,1.12,1.12,0,0,0-.67.21,1.27,1.27,0,0,0-.44.59,3.69,3.69,0,0,0-.15,1.22v2.64h-1.48V147.5a4,4,0,0,0-.12-1.14,1,1,0,0,0-.35-0.52,0.92,0.92,0,0,0-.56-0.17,1.1,1.1,0,0,0-.67.22,1.29,1.29,0,0,0-.45.61,3.77,3.77,0,0,0-.15,1.24v2.6h-1.47v-5.84Z" transform="translate(-50.7 -27)"/><path class="cls-4" d="M279.15,144.49h1.47v5.84h-1.47v-0.62a2.89,2.89,0,0,1-.86.59,2.41,2.41,0,0,1-.94.18,2.6,2.6,0,0,1-2-.88,3.06,3.06,0,0,1-.83-2.18,3.14,3.14,0,0,1,.8-2.22,2.55,2.55,0,0,1,1.94-.87,2.46,2.46,0,0,1,1,.2,2.69,2.69,0,0,1,.85.6v-0.64Zm-1.54,1.2a1.48,1.48,0,0,0-1.13.48,1.92,1.92,0,0,0,0,2.48,1.48,1.48,0,0,0,1.13.49,1.51,1.51,0,0,0,1.15-.48,1.76,1.76,0,0,0,.46-1.26,1.71,1.71,0,0,0-.46-1.24A1.53,1.53,0,0,0,277.61,145.69Z" transform="translate(-50.7 -27)"/><path class="cls-4" d="M282.28,142.34h1.47v2.15h0.87v1.26h-0.87v4.58h-1.47v-4.58h-0.75v-1.26h0.75v-2.15Z" transform="translate(-50.7 -27)"/><path class="cls-4" d="M291.25,147.84h-4.71a1.56,1.56,0,0,0,.55,1,1.71,1.71,0,0,0,1.13.37,2,2,0,0,0,1.41-.57l1.24,0.58a2.91,2.91,0,0,1-1.11,1,3.45,3.45,0,0,1-1.53.31,3,3,0,0,1-2.24-.87,3,3,0,0,1-.86-2.17,3.05,3.05,0,0,1,.86-2.22,2.9,2.9,0,0,1,2.16-.88,3,3,0,0,1,2.25.88,3.19,3.19,0,0,1,.86,2.33v0.28Zm-1.47-1.15a1.47,1.47,0,0,0-.57-0.79,1.66,1.66,0,0,0-1-.31,1.76,1.76,0,0,0-1.08.34,1.92,1.92,0,0,0-.54.76h3.18Z" transform="translate(-50.7 -27)"/></g><g class="cls-9"><path class="cls-4" d="M239.22,158.51l-0.91.91a1.54,1.54,0,0,0-1-.55,0.63,0.63,0,0,0-.39.11,0.31,0.31,0,0,0-.14.26,0.32,0.32,0,0,0,.09.22,1.63,1.63,0,0,0,.44.27l0.54,0.27a3.18,3.18,0,0,1,1.17.85,1.78,1.78,0,0,1-.26,2.32,2.19,2.19,0,0,1-1.53.52,2.44,2.44,0,0,1-2-1l0.9-1a2.06,2.06,0,0,0,.6.49,1.33,1.33,0,0,0,.61.19,0.74,0.74,0,0,0,.47-0.14,0.4,0.4,0,0,0,.18-0.32,0.91,0.91,0,0,0-.64-0.66l-0.49-.25a2.09,2.09,0,0,1-1.42-1.79,1.55,1.55,0,0,1,.53-1.18,1.94,1.94,0,0,1,1.37-.49A2.37,2.37,0,0,1,239.22,158.51Z" transform="translate(-50.7 -27)"/><path class="cls-4" d="M246.34,161h-4.71a1.56,1.56,0,0,0,.55,1,1.71,1.71,0,0,0,1.13.37,2,2,0,0,0,1.41-.57L246,162.4a2.91,2.91,0,0,1-1.11,1,3.45,3.45,0,0,1-1.53.31,3,3,0,0,1-2.24-.87,3,3,0,0,1-.86-2.17,3.05,3.05,0,0,1,.86-2.22,2.9,2.9,0,0,1,2.16-.88,3,3,0,0,1,2.25.88,3.19,3.19,0,0,1,.86,2.33V161Zm-1.47-1.15a1.47,1.47,0,0,0-.57-0.79,1.66,1.66,0,0,0-1-.31,1.76,1.76,0,0,0-1.08.34,1.92,1.92,0,0,0-.54.76h3.18Z" transform="translate(-50.7 -27)"/><path class="cls-4" d="M247.18,157.69h1.26v0.74a1.57,1.57,0,0,1,.54-0.66,1.31,1.31,0,0,1,.74-0.23,1.37,1.37,0,0,1,.6.15L249.86,159a1,1,0,0,0-.42-0.13,0.67,0.67,0,0,0-.57.42,3.84,3.84,0,0,0-.23,1.64v2.65h-1.46v-5.84Z" transform="translate(-50.7 -27)"/><path class="cls-4" d="M250.42,157.69h1.49l1.48,3.45,1.47-3.45h1.49l-2.49,5.84h-1Z" transform="translate(-50.7 -27)"/><path class="cls-4" d="M263.06,161h-4.71a1.56,1.56,0,0,0,.55,1,1.71,1.71,0,0,0,1.13.37,2,2,0,0,0,1.41-.57l1.24,0.58a2.91,2.91,0,0,1-1.11,1,3.45,3.45,0,0,1-1.53.31,3,3,0,0,1-2.24-.87,3,3,0,0,1-.86-2.17,3.05,3.05,0,0,1,.86-2.22,2.9,2.9,0,0,1,2.16-.88,3,3,0,0,1,2.25.88,3.19,3.19,0,0,1,.86,2.33V161Zm-1.47-1.15a1.47,1.47,0,0,0-.57-0.79,1.66,1.66,0,0,0-1-.31,1.76,1.76,0,0,0-1.08.34,1.92,1.92,0,0,0-.54.76h3.18Z" transform="translate(-50.7 -27)"/><path class="cls-4" d="M263.9,157.69h1.26v0.74a1.57,1.57,0,0,1,.54-0.66,1.31,1.31,0,0,1,.74-0.23,1.37,1.37,0,0,1,.6.15L266.58,159a1,1,0,0,0-.42-0.13,0.67,0.67,0,0,0-.57.42,3.84,3.84,0,0,0-.23,1.64v2.65H263.9v-5.84Z" transform="translate(-50.7 -27)"/></g></g><g class="cls-9"><path class="cls-4" d="M334.58,149.15l-1.05,1a3.26,3.26,0,0,0-2.42-1.13,2.65,2.65,0,0,0-2.68,2.68,2.83,2.83,0,0,0,.34,1.4,2.46,2.46,0,0,0,1,1,2.82,2.82,0,0,0,1.4.35,2.86,2.86,0,0,0,1.2-.25,4.25,4.25,0,0,0,1.19-.89l1,1.06a5.58,5.58,0,0,1-1.65,1.18,4.5,4.5,0,0,1-1.78.33,4.09,4.09,0,0,1-3-1.17,4,4,0,0,1-1.17-3,4.1,4.1,0,0,1,.53-2.1,4,4,0,0,1,1.53-1.48,4.32,4.32,0,0,1,2.15-.56A4.56,4.56,0,0,1,334.58,149.15Z" transform="translate(-50.7 -27)"/><path class="cls-4" d="M335.74,147.57h1.46v2.85a3.32,3.32,0,0,1,.86-0.56,2.22,2.22,0,0,1,.88-0.19,2,2,0,0,1,1.47.6,2.1,2.1,0,0,1,.51,1.53v3.86h-1.44V153.1a6.33,6.33,0,0,0-.1-1.37,1,1,0,0,0-.33-0.54,0.94,0.94,0,0,0-.58-0.18,1.09,1.09,0,0,0-.76.3,1.55,1.55,0,0,0-.44.8,6.68,6.68,0,0,0-.06,1.2v2.35h-1.46v-8.1Z" transform="translate(-50.7 -27)"/><path class="cls-4" d="M348.19,153.17h-4.71a1.56,1.56,0,0,0,.54,1,1.71,1.71,0,0,0,1.13.37,2,2,0,0,0,1.41-.57l1.24,0.58a2.91,2.91,0,0,1-1.11,1,3.45,3.45,0,0,1-1.53.31,3,3,0,0,1-2.24-.87,3,3,0,0,1-.86-2.17,3.05,3.05,0,0,1,.86-2.22,2.9,2.9,0,0,1,2.16-.88,3,3,0,0,1,2.25.88,3.19,3.19,0,0,1,.87,2.33v0.28ZM346.73,152a1.47,1.47,0,0,0-.57-0.79,1.66,1.66,0,0,0-1-.31,1.76,1.76,0,0,0-1.08.34,1.92,1.92,0,0,0-.54.76h3.18Z" transform="translate(-50.7 -27)"/><path class="cls-4" d="M348.68,149.82h0.52c0-.77,0-1.22,0-1.36a1.12,1.12,0,0,1,.41-0.76,1.51,1.51,0,0,1,1-.28,3.08,3.08,0,0,1,1,.21v1.12a2,2,0,0,0-.52-0.09,0.55,0.55,0,0,0-.38.11,0.47,0.47,0,0,0-.09.33v0.73h0.93v1.24h-0.93v4.6H349.2v-4.6h-0.52v-1.24Z" transform="translate(-50.7 -27)"/><path class="cls-4" d="M359.11,150.64l-0.91.91a1.54,1.54,0,0,0-1-.55,0.63,0.63,0,0,0-.39.11,0.31,0.31,0,0,0-.14.26,0.32,0.32,0,0,0,.09.22,1.62,1.62,0,0,0,.44.27l0.54,0.27a3.17,3.17,0,0,1,1.17.85,1.78,1.78,0,0,1-.25,2.32,2.19,2.19,0,0,1-1.53.52,2.44,2.44,0,0,1-2-1l0.9-1a2.06,2.06,0,0,0,.6.49,1.33,1.33,0,0,0,.61.19,0.74,0.74,0,0,0,.47-0.14,0.4,0.4,0,0,0,.18-0.32,0.91,0.91,0,0,0-.64-0.66l-0.49-.25a2.09,2.09,0,0,1-1.42-1.79,1.55,1.55,0,0,1,.53-1.18,1.94,1.94,0,0,1,1.37-.49A2.37,2.37,0,0,1,359.11,150.64Z" transform="translate(-50.7 -27)"/><path class="cls-4" d="M366.23,153.17h-4.71a1.56,1.56,0,0,0,.54,1,1.71,1.71,0,0,0,1.13.37,2,2,0,0,0,1.41-.57l1.24,0.58a2.91,2.91,0,0,1-1.11,1,3.45,3.45,0,0,1-1.53.31A3,3,0,0,1,361,155a3,3,0,0,1-.86-2.17,3.05,3.05,0,0,1,.86-2.22,2.9,2.9,0,0,1,2.16-.88,3,3,0,0,1,2.25.88,3.19,3.19,0,0,1,.87,2.33v0.28ZM364.76,152a1.47,1.47,0,0,0-.57-0.79,1.66,1.66,0,0,0-1-.31,1.76,1.76,0,0,0-1.08.34,1.92,1.92,0,0,0-.54.76h3.18Z" transform="translate(-50.7 -27)"/><path class="cls-4" d="M367.07,149.82h1.26v0.74a1.56,1.56,0,0,1,.54-0.66,1.31,1.31,0,0,1,.74-0.23,1.37,1.37,0,0,1,.6.15l-0.46,1.26a1,1,0,0,0-.42-0.13,0.67,0.67,0,0,0-.57.42,3.84,3.84,0,0,0-.23,1.64v2.65h-1.46v-5.84Z" transform="translate(-50.7 -27)"/><path class="cls-4" d="M370.31,149.82h1.49l1.48,3.45,1.47-3.45h1.49l-2.49,5.84h-1Z" transform="translate(-50.7 -27)"/><path class="cls-4" d="M383,153.17h-4.71a1.57,1.57,0,0,0,.55,1,1.71,1.71,0,0,0,1.13.37,2,2,0,0,0,1.41-.57l1.24,0.58a2.92,2.92,0,0,1-1.11,1,3.46,3.46,0,0,1-1.53.31,3,3,0,0,1-2.24-.87,3,3,0,0,1-.87-2.17,3.05,3.05,0,0,1,.86-2.22,2.9,2.9,0,0,1,2.16-.88,3,3,0,0,1,2.25.88,3.19,3.19,0,0,1,.86,2.33v0.28ZM381.48,152a1.47,1.47,0,0,0-.57-0.79,1.66,1.66,0,0,0-1-.31,1.76,1.76,0,0,0-1.08.34,1.93,1.93,0,0,0-.54.76h3.18Z" transform="translate(-50.7 -27)"/><path class="cls-4" d="M383.79,149.82H385v0.74a1.57,1.57,0,0,1,.54-0.66,1.31,1.31,0,0,1,.74-0.23,1.36,1.36,0,0,1,.6.15l-0.46,1.26A1,1,0,0,0,386,151a0.67,0.67,0,0,0-.57.42,3.84,3.84,0,0,0-.23,1.64v2.65h-1.46v-5.84Z" transform="translate(-50.7 -27)"/></g><g class="cls-9"><path class="cls-4" d="M310.76,288h1.14v0.67a1.43,1.43,0,0,1,.49-0.6,1.19,1.19,0,0,1,.67-0.21,1.25,1.25,0,0,1,.54.14l-0.42,1.15a0.91,0.91,0,0,0-.39-0.12,0.61,0.61,0,0,0-.52.38,3.48,3.48,0,0,0-.21,1.49v2.41h-1.32V288Z" transform="translate(-50.7 -27)"/><path class="cls-4" d="M314.27,288h1.35v2.56a3.55,3.55,0,0,0,.1,1,0.91,0.91,0,0,0,.33.45,0.94,0.94,0,0,0,.56.16,1,1,0,0,0,.57-0.16,0.94,0.94,0,0,0,.34-0.47,3.57,3.57,0,0,0,.08-1V288h1.33v2.25a5.52,5.52,0,0,1-.22,1.9,2.08,2.08,0,0,1-.79,1,2.42,2.42,0,0,1-1.33.33,2.35,2.35,0,0,1-1.41-.39,2.06,2.06,0,0,1-.76-1.09,6.63,6.63,0,0,1-.16-1.76V288Z" transform="translate(-50.7 -27)"/><path class="cls-4" d="M320.27,288h1.33v0.54a3.21,3.21,0,0,1,.82-0.53,2,2,0,0,1,.75-0.15,1.82,1.82,0,0,1,1.34.55,1.89,1.89,0,0,1,.46,1.39v3.51h-1.32V291a5.91,5.91,0,0,0-.08-1.26,0.87,0.87,0,0,0-.3-0.48,0.84,0.84,0,0,0-.52-0.16,1,1,0,0,0-.69.27,1.45,1.45,0,0,0-.4.75,6,6,0,0,0-.06,1.08v2.13h-1.33V288Z" transform="translate(-50.7 -27)"/><path class="cls-4" d="M326.27,288h1.33v0.54a3.21,3.21,0,0,1,.82-0.53,2,2,0,0,1,.75-0.15,1.82,1.82,0,0,1,1.34.55,1.89,1.89,0,0,1,.46,1.39v3.51h-1.32V291a5.91,5.91,0,0,0-.08-1.26,0.87,0.87,0,0,0-.3-0.48,0.84,0.84,0,0,0-.52-0.16,1,1,0,0,0-.69.27,1.45,1.45,0,0,0-.4.75,6,6,0,0,0-.06,1.08v2.13h-1.33V288Z" transform="translate(-50.7 -27)"/><path class="cls-4" d="M337.6,291.06h-4.28a1.43,1.43,0,0,0,.5.9,1.56,1.56,0,0,0,1,.33,1.77,1.77,0,0,0,1.28-.52l1.12,0.53a2.65,2.65,0,0,1-1,.88,3.16,3.16,0,0,1-1.39.29,2.75,2.75,0,0,1-2-.79,2.68,2.68,0,0,1-.79-2,2.78,2.78,0,0,1,.78-2,2.63,2.63,0,0,1,2-.8,2.73,2.73,0,0,1,2,.8,2.9,2.9,0,0,1,.79,2.12v0.25Zm-1.33-1a1.34,1.34,0,0,0-.52-0.72,1.51,1.51,0,0,0-.9-0.28,1.6,1.6,0,0,0-1,.31,1.74,1.74,0,0,0-.49.69h2.89Z" transform="translate(-50.7 -27)"/><path class="cls-4" d="M338.36,288h1.14v0.67a1.43,1.43,0,0,1,.49-0.6,1.19,1.19,0,0,1,.67-0.21,1.25,1.25,0,0,1,.54.14l-0.42,1.15a0.91,0.91,0,0,0-.39-0.12,0.61,0.61,0,0,0-.52.38,3.48,3.48,0,0,0-.21,1.49v2.41h-1.32V288Z" transform="translate(-50.7 -27)"/><path class="cls-4" d="M345.13,288.76l-0.83.83a1.4,1.4,0,0,0-.91-0.5,0.58,0.58,0,0,0-.35.09,0.29,0.29,0,0,0-.13.24,0.29,0.29,0,0,0,.08.2,1.54,1.54,0,0,0,.4.25l0.49,0.24a2.87,2.87,0,0,1,1.06.78,1.62,1.62,0,0,1-.23,2.11,2,2,0,0,1-1.39.47,2.22,2.22,0,0,1-1.86-.91l0.82-.89a1.91,1.91,0,0,0,.55.44,1.23,1.23,0,0,0,.56.17,0.66,0.66,0,0,0,.42-0.13,0.37,0.37,0,0,0,.16-0.29,0.83,0.83,0,0,0-.58-0.6l-0.45-.22a1.9,1.9,0,0,1-1.29-1.63,1.41,1.41,0,0,1,.49-1.08,1.76,1.76,0,0,1,1.24-.45A2.15,2.15,0,0,1,345.13,288.76Z" transform="translate(-50.7 -27)"/></g><g class="cls-9"><path class="cls-4" d="M458.77,89.22H460V94h-1.2V93.49a2.32,2.32,0,0,1-.71.48,2,2,0,0,1-.77.15,2.13,2.13,0,0,1-1.6-.72,2.51,2.51,0,0,1-.68-1.79,2.57,2.57,0,0,1,.65-1.82,2.09,2.09,0,0,1,1.59-.71,2,2,0,0,1,.81.16,2.22,2.22,0,0,1,.7.49V89.22Zm-1.26,1a1.21,1.21,0,0,0-.92.39,1.42,1.42,0,0,0-.37,1,1.43,1.43,0,0,0,.38,1,1.21,1.21,0,0,0,.92.4,1.24,1.24,0,0,0,.94-0.39,1.44,1.44,0,0,0,.37-1,1.4,1.4,0,0,0-.37-1A1.25,1.25,0,0,0,457.51,90.2Z" transform="translate(-50.7 -27)"/><path class="cls-4" d="M465.86,90.19l-1,.55a1.7,1.7,0,0,0-.56-0.41,1.67,1.67,0,0,0-.64-0.11,1.5,1.5,0,0,0-1.09.4,1.37,1.37,0,0,0-.42,1,1.32,1.32,0,0,0,.4,1,1.45,1.45,0,0,0,1.05.39,1.53,1.53,0,0,0,1.25-.55l0.95,0.65a2.91,2.91,0,0,1-4.15.25,2.48,2.48,0,0,1,.6-3.95,2.9,2.9,0,0,1,1.39-.33,2.82,2.82,0,0,1,1.28.28A2.43,2.43,0,0,1,465.86,90.19Z" transform="translate(-50.7 -27)"/><path class="cls-4" d="M471.63,90.19l-1,.55a1.72,1.72,0,0,0-.56-0.41,1.67,1.67,0,0,0-.64-0.11,1.5,1.5,0,0,0-1.09.4,1.37,1.37,0,0,0-.42,1,1.32,1.32,0,0,0,.4,1,1.45,1.45,0,0,0,1.05.39,1.53,1.53,0,0,0,1.25-.55l0.95,0.65a2.91,2.91,0,0,1-4.15.25,2.48,2.48,0,0,1,.6-3.95,2.89,2.89,0,0,1,1.39-.33,2.83,2.83,0,0,1,1.28.28A2.43,2.43,0,0,1,471.63,90.19Z" transform="translate(-50.7 -27)"/><path class="cls-4" d="M477.5,92h-3.85a1.29,1.29,0,0,0,.45.81,1.4,1.4,0,0,0,.93.3,1.59,1.59,0,0,0,1.16-.47l1,0.47a2.38,2.38,0,0,1-.91.79,2.84,2.84,0,0,1-1.25.26,2.47,2.47,0,0,1-1.83-.71,2.41,2.41,0,0,1-.71-1.78,2.5,2.5,0,0,1,.71-1.82A2.37,2.37,0,0,1,475,89.1a2.46,2.46,0,0,1,1.84.72,2.62,2.62,0,0,1,.71,1.91V92ZM476.3,91a1.2,1.2,0,0,0-.47-0.65,1.36,1.36,0,0,0-.81-0.25,1.43,1.43,0,0,0-.88.28,1.56,1.56,0,0,0-.44.62h2.6Z" transform="translate(-50.7 -27)"/><path class="cls-4" d="M479.66,89.22v0.53a2.27,2.27,0,0,1,.7-0.49,2,2,0,0,1,.81-0.16,2.09,2.09,0,0,1,1.59.71,2.57,2.57,0,0,1,.66,1.82,2.5,2.5,0,0,1-.68,1.79,2.13,2.13,0,0,1-1.6.72,2,2,0,0,1-.77-0.15,2.32,2.32,0,0,1-.71-0.48v2.25h-1.19V89.22h1.19Zm1.26,1a1.25,1.25,0,0,0-.94.39,1.39,1.39,0,0,0-.37,1,1.43,1.43,0,0,0,.37,1,1.24,1.24,0,0,0,.94.39,1.22,1.22,0,0,0,.92-0.4,1.43,1.43,0,0,0,.38-1,1.41,1.41,0,0,0-.37-1A1.22,1.22,0,0,0,480.92,90.2Z" transform="translate(-50.7 -27)"/><path class="cls-4" d="M484.55,87.46h1.2v1.76h0.71v1h-0.71V94h-1.2V90.25h-0.62v-1h0.62V87.46Z" transform="translate(-50.7 -27)"/><path class="cls-4" d="M490.64,89.22h1.2V94h-1.2V93.49a2.33,2.33,0,0,1-.7.48,2,2,0,0,1-.77.15,2.13,2.13,0,0,1-1.6-.72,2.5,2.5,0,0,1-.68-1.79,2.57,2.57,0,0,1,.65-1.82,2.09,2.09,0,0,1,1.59-.71,2,2,0,0,1,.81.16,2.23,2.23,0,0,1,.7.49V89.22Zm-1.26,1a1.21,1.21,0,0,0-.92.39,1.42,1.42,0,0,0-.37,1,1.44,1.44,0,0,0,.37,1,1.21,1.21,0,0,0,.92.4,1.23,1.23,0,0,0,.94-0.39,1.44,1.44,0,0,0,.37-1,1.4,1.4,0,0,0-.37-1A1.25,1.25,0,0,0,489.38,90.2Z" transform="translate(-50.7 -27)"/><path class="cls-4" d="M493,89.22h1.2v0.49a2.89,2.89,0,0,1,.74-0.48,1.79,1.79,0,0,1,.68-0.13,1.64,1.64,0,0,1,1.21.5,1.71,1.71,0,0,1,.42,1.25V94H496.1V91.91a5.34,5.34,0,0,0-.08-1.14,0.78,0.78,0,0,0-.27-0.43,0.75,0.75,0,0,0-.47-0.15,0.88,0.88,0,0,0-.62.24,1.3,1.3,0,0,0-.36.67,5.43,5.43,0,0,0-.05,1V94H493V89.22Z" transform="translate(-50.7 -27)"/><path class="cls-4" d="M503.13,90.19l-1,.55a1.7,1.7,0,0,0-.56-0.41,1.67,1.67,0,0,0-.64-0.11,1.5,1.5,0,0,0-1.09.4,1.37,1.37,0,0,0-.42,1,1.32,1.32,0,0,0,.4,1,1.45,1.45,0,0,0,1.05.39,1.53,1.53,0,0,0,1.25-.55l0.95,0.65a2.91,2.91,0,0,1-4.15.25,2.48,2.48,0,0,1,.6-3.95,2.9,2.9,0,0,1,1.39-.33,2.82,2.82,0,0,1,1.28.28A2.43,2.43,0,0,1,503.13,90.19Z" transform="translate(-50.7 -27)"/><path class="cls-4" d="M509,92h-3.85a1.29,1.29,0,0,0,.45.81,1.4,1.4,0,0,0,.92.3,1.6,1.6,0,0,0,1.16-.47l1,0.47a2.38,2.38,0,0,1-.91.79,2.84,2.84,0,0,1-1.25.26,2.47,2.47,0,0,1-1.83-.71,2.41,2.41,0,0,1-.71-1.78,2.5,2.5,0,0,1,.71-1.82,2.37,2.37,0,0,1,1.77-.72,2.46,2.46,0,0,1,1.84.72,2.61,2.61,0,0,1,.71,1.91V92ZM507.8,91a1.2,1.2,0,0,0-.47-0.65,1.36,1.36,0,0,0-.81-0.25,1.44,1.44,0,0,0-.88.28,1.57,1.57,0,0,0-.44.62h2.6Z" transform="translate(-50.7 -27)"/></g><g class="cls-9"><path class="cls-4" d="M469.77,157.75H471v2.3a3.19,3.19,0,0,0,.09.93,0.81,0.81,0,0,0,.3.41,0.85,0.85,0,0,0,.5.15,0.89,0.89,0,0,0,.51-0.14,0.84,0.84,0,0,0,.31-0.42,3.22,3.22,0,0,0,.08-0.88v-2.34H474v2a5,5,0,0,1-.2,1.71,1.87,1.87,0,0,1-.71.86,2.18,2.18,0,0,1-1.2.3,2.12,2.12,0,0,1-1.27-.35,1.85,1.85,0,0,1-.68-1,5.93,5.93,0,0,1-.14-1.58v-2Z" transform="translate(-50.7 -27)"/><path class="cls-4" d="M475.18,157.75h1.2v0.49a2.87,2.87,0,0,1,.74-0.48,1.78,1.78,0,0,1,.68-0.13,1.65,1.65,0,0,1,1.21.5,1.71,1.71,0,0,1,.42,1.25v3.16h-1.19v-2.09a5.25,5.25,0,0,0-.08-1.14,0.78,0.78,0,0,0-.27-0.43,0.74,0.74,0,0,0-.47-0.15,0.88,0.88,0,0,0-.62.24,1.3,1.3,0,0,0-.36.67,5.43,5.43,0,0,0-.05,1v1.92h-1.2v-4.78Z" transform="translate(-50.7 -27)"/><path class="cls-4" d="M481,155.78a0.73,0.73,0,0,1,.54.23,0.76,0.76,0,0,1,.23.55,0.75,0.75,0,0,1-.22.55,0.72,0.72,0,0,1-.53.23,0.74,0.74,0,0,1-.55-0.23,0.77,0.77,0,0,1-.23-0.56A0.77,0.77,0,0,1,481,155.78Zm-0.6,2h1.2v4.78h-1.2v-4.78Z" transform="translate(-50.7 -27)"/><path class="cls-4" d="M485,157.63a2.54,2.54,0,0,1,1.27.34,2.48,2.48,0,0,1,1.26,2.17,2.52,2.52,0,0,1-.34,1.27,2.42,2.42,0,0,1-.92.92,2.53,2.53,0,0,1-1.28.33,2.39,2.39,0,0,1-1.76-.73,2.54,2.54,0,0,1,.09-3.65A2.4,2.4,0,0,1,485,157.63Zm0,1.13a1.23,1.23,0,0,0-.93.39,1.38,1.38,0,0,0-.37,1,1.41,1.41,0,0,0,.37,1,1.23,1.23,0,0,0,.93.39,1.24,1.24,0,0,0,.94-0.39,1.54,1.54,0,0,0,0-2A1.24,1.24,0,0,0,485,158.76Z" transform="translate(-50.7 -27)"/><path class="cls-4" d="M488.5,157.75h1.2v0.49a2.89,2.89,0,0,1,.74-0.48,1.79,1.79,0,0,1,.68-0.13,1.64,1.64,0,0,1,1.21.5,1.71,1.71,0,0,1,.42,1.25v3.16h-1.19v-2.09a5.34,5.34,0,0,0-.08-1.14,0.78,0.78,0,0,0-.27-0.43,0.75,0.75,0,0,0-.47-0.15,0.88,0.88,0,0,0-.62.24,1.3,1.3,0,0,0-.36.67,5.43,5.43,0,0,0-.05,1v1.92h-1.2v-4.78Z" transform="translate(-50.7 -27)"/></g><g class="cls-9"><path class="cls-4" d="M462,223.8h1v0.6a1.29,1.29,0,0,1,.44-0.54,1.07,1.07,0,0,1,.61-0.18,1.12,1.12,0,0,1,.49.12l-0.37,1a0.83,0.83,0,0,0-.35-0.11,0.55,0.55,0,0,0-.47.34,3.13,3.13,0,0,0-.19,1.35v2.17H462V223.8Z" transform="translate(-50.7 -27)"/><path class="cls-4" d="M469.94,226.54h-3.85a1.29,1.29,0,0,0,.45.81,1.4,1.4,0,0,0,.92.3,1.6,1.6,0,0,0,1.16-.47l1,0.47a2.38,2.38,0,0,1-.91.79,2.84,2.84,0,0,1-1.25.26,2.47,2.47,0,0,1-1.83-.71,2.41,2.41,0,0,1-.71-1.78,2.5,2.5,0,0,1,.71-1.82,2.37,2.37,0,0,1,1.77-.72,2.46,2.46,0,0,1,1.84.72,2.61,2.61,0,0,1,.71,1.91v0.23Zm-1.2-.95a1.2,1.2,0,0,0-.47-0.65,1.36,1.36,0,0,0-.81-0.25,1.44,1.44,0,0,0-.88.28,1.57,1.57,0,0,0-.44.62h2.6Z" transform="translate(-50.7 -27)"/><path class="cls-4" d="M470.91,222h1.19v2.33a2.75,2.75,0,0,1,.71-0.46,1.83,1.83,0,0,1,.72-0.15,1.62,1.62,0,0,1,1.2.49,1.72,1.72,0,0,1,.42,1.25v3.16H474v-2.1a5.17,5.17,0,0,0-.08-1.12,0.78,0.78,0,0,0-.27-0.44,0.75,0.75,0,0,0-.47-0.15,0.9,0.9,0,0,0-.63.24,1.29,1.29,0,0,0-.36.66,5.46,5.46,0,0,0-.05,1v1.92h-1.19V222Z" transform="translate(-50.7 -27)"/><path class="cls-4" d="M481.1,226.54h-3.85a1.29,1.29,0,0,0,.45.81,1.4,1.4,0,0,0,.92.3,1.6,1.6,0,0,0,1.16-.47l1,0.47a2.38,2.38,0,0,1-.91.79,2.84,2.84,0,0,1-1.25.26,2.47,2.47,0,0,1-1.83-.71,2.41,2.41,0,0,1-.71-1.78,2.5,2.5,0,0,1,.71-1.82,2.37,2.37,0,0,1,1.77-.72,2.46,2.46,0,0,1,1.84.72,2.61,2.61,0,0,1,.71,1.91v0.23Zm-1.2-.95a1.2,1.2,0,0,0-.47-0.65,1.36,1.36,0,0,0-.81-0.25,1.44,1.44,0,0,0-.88.28,1.57,1.57,0,0,0-.44.62h2.6Z" transform="translate(-50.7 -27)"/><path class="cls-4" d="M485.6,223.8h1.2v4.78h-1.2v-0.51a2.32,2.32,0,0,1-.71.48,2,2,0,0,1-.77.15,2.13,2.13,0,0,1-1.6-.72,2.51,2.51,0,0,1-.68-1.79,2.57,2.57,0,0,1,.65-1.82,2.09,2.09,0,0,1,1.59-.71,2,2,0,0,1,.81.16,2.22,2.22,0,0,1,.7.49V223.8Zm-1.26,1a1.21,1.21,0,0,0-.92.39,1.42,1.42,0,0,0-.37,1,1.43,1.43,0,0,0,.38,1,1.21,1.21,0,0,0,.92.4,1.24,1.24,0,0,0,.94-0.39,1.44,1.44,0,0,0,.37-1,1.4,1.4,0,0,0-.37-1A1.25,1.25,0,0,0,484.34,224.79Z" transform="translate(-50.7 -27)"/><path class="cls-4" d="M487.73,223.8h1v0.6a1.29,1.29,0,0,1,.44-0.54,1.07,1.07,0,0,1,.61-0.18,1.12,1.12,0,0,1,.49.12l-0.37,1a0.83,0.83,0,0,0-.35-0.11,0.55,0.55,0,0,0-.47.34,3.13,3.13,0,0,0-.19,1.35v2.17h-1.19V223.8Z" transform="translate(-50.7 -27)"/><path class="cls-4" d="M493.82,224.47l-0.74.74a1.25,1.25,0,0,0-.82-0.45,0.52,0.52,0,0,0-.32.08,0.26,0.26,0,0,0-.11.21,0.26,0.26,0,0,0,.07.18,1.38,1.38,0,0,0,.36.22l0.44,0.22a2.58,2.58,0,0,1,1,.7,1.45,1.45,0,0,1-.21,1.9,1.79,1.79,0,0,1-1.25.43,2,2,0,0,1-1.67-.82l0.74-.8a1.72,1.72,0,0,0,.49.4,1.1,1.1,0,0,0,.5.15,0.6,0.6,0,0,0,.38-0.11,0.33,0.33,0,0,0,.14-0.26,0.75,0.75,0,0,0-.52-0.54l-0.4-.2a1.71,1.71,0,0,1-1.16-1.46,1.27,1.27,0,0,1,.44-1,1.58,1.58,0,0,1,1.12-.4A1.94,1.94,0,0,1,493.82,224.47Z" transform="translate(-50.7 -27)"/><path class="cls-4" d="M498.38,223.8h1.2v4.78h-1.2v-0.51a2.32,2.32,0,0,1-.71.48,2,2,0,0,1-.77.15,2.13,2.13,0,0,1-1.6-.72,2.51,2.51,0,0,1-.68-1.79,2.57,2.57,0,0,1,.65-1.82,2.09,2.09,0,0,1,1.59-.71,2,2,0,0,1,.81.16,2.22,2.22,0,0,1,.7.49V223.8Zm-1.26,1a1.21,1.21,0,0,0-.92.39,1.42,1.42,0,0,0-.37,1,1.43,1.43,0,0,0,.38,1,1.21,1.21,0,0,0,.92.4,1.24,1.24,0,0,0,.94-0.39,1.44,1.44,0,0,0,.37-1,1.4,1.4,0,0,0-.37-1A1.25,1.25,0,0,0,497.12,224.79Z" transform="translate(-50.7 -27)"/><path class="cls-4" d="M500.66,222h1.2v6.63h-1.2V222Z" transform="translate(-50.7 -27)"/></g><g class="cls-9"><path class="cls-4" d="M466,290h1.2v6.63H466v-0.51a2.31,2.31,0,0,1-.71.48,2,2,0,0,1-.77.15,2.13,2.13,0,0,1-1.6-.72,2.51,2.51,0,0,1-.68-1.79,2.57,2.57,0,0,1,.65-1.82,2.09,2.09,0,0,1,1.59-.71,2,2,0,0,1,.81.16,2.22,2.22,0,0,1,.7.49V290Zm-1.26,2.83a1.21,1.21,0,0,0-.92.39,1.42,1.42,0,0,0-.37,1,1.43,1.43,0,0,0,.38,1,1.21,1.21,0,0,0,.92.4,1.23,1.23,0,0,0,.94-0.39,1.44,1.44,0,0,0,.37-1,1.4,1.4,0,0,0-.37-1A1.25,1.25,0,0,0,464.71,292.87Z" transform="translate(-50.7 -27)"/><path class="cls-4" d="M473.17,294.62h-3.85a1.29,1.29,0,0,0,.45.81,1.4,1.4,0,0,0,.93.3,1.59,1.59,0,0,0,1.16-.47l1,0.47a2.38,2.38,0,0,1-.91.79,2.85,2.85,0,0,1-1.25.26,2.48,2.48,0,0,1-1.83-.71,2.42,2.42,0,0,1-.71-1.78,2.5,2.5,0,0,1,.71-1.82,2.37,2.37,0,0,1,1.77-.72,2.46,2.46,0,0,1,1.84.72,2.62,2.62,0,0,1,.71,1.91v0.23Zm-1.2-.95a1.21,1.21,0,0,0-.47-0.65,1.37,1.37,0,0,0-.81-0.25,1.43,1.43,0,0,0-.88.28,1.56,1.56,0,0,0-.44.62H472Z" transform="translate(-50.7 -27)"/><path class="cls-4" d="M474,290h1.2v6.63H474V290Z" transform="translate(-50.7 -27)"/><path class="cls-4" d="M476.77,289.92a0.73,0.73,0,0,1,.54.23,0.76,0.76,0,0,1,.23.55,0.75,0.75,0,0,1-.22.55,0.73,0.73,0,0,1-.54.23,0.74,0.74,0,0,1-.54-0.23,0.77,0.77,0,0,1-.23-0.56,0.74,0.74,0,0,1,.22-0.54A0.73,0.73,0,0,1,476.77,289.92Zm-0.6,2h1.2v4.78h-1.2v-4.78Z" transform="translate(-50.7 -27)"/><path class="cls-4" d="M477.95,291.88h1.22l1.21,2.82,1.21-2.82h1.22l-2,4.78H480Z" transform="translate(-50.7 -27)"/><path class="cls-4" d="M488.29,294.62h-3.85a1.29,1.29,0,0,0,.45.81,1.4,1.4,0,0,0,.93.3,1.59,1.59,0,0,0,1.16-.47l1,0.47a2.38,2.38,0,0,1-.91.79,2.85,2.85,0,0,1-1.25.26,2.48,2.48,0,0,1-1.83-.71,2.42,2.42,0,0,1-.71-1.78,2.5,2.5,0,0,1,.71-1.82,2.37,2.37,0,0,1,1.77-.72,2.46,2.46,0,0,1,1.84.72,2.62,2.62,0,0,1,.71,1.91v0.23Zm-1.2-.95a1.21,1.21,0,0,0-.47-0.65,1.37,1.37,0,0,0-.81-0.25,1.43,1.43,0,0,0-.88.28,1.56,1.56,0,0,0-.44.62h2.6Z" transform="translate(-50.7 -27)"/><path class="cls-4" d="M489,291.88h1v0.6a1.29,1.29,0,0,1,.44-0.54,1.07,1.07,0,0,1,.61-0.19,1.12,1.12,0,0,1,.49.12l-0.37,1a0.82,0.82,0,0,0-.35-0.11,0.55,0.55,0,0,0-.47.34,3.13,3.13,0,0,0-.19,1.35v2.17H489v-4.78Z" transform="translate(-50.7 -27)"/><path class="cls-4" d="M496.93,294.62h-3.85a1.29,1.29,0,0,0,.45.81,1.4,1.4,0,0,0,.93.3,1.59,1.59,0,0,0,1.16-.47l1,0.47a2.38,2.38,0,0,1-.91.79,2.85,2.85,0,0,1-1.25.26,2.48,2.48,0,0,1-1.83-.71,2.42,2.42,0,0,1-.71-1.78,2.5,2.5,0,0,1,.71-1.82,2.37,2.37,0,0,1,1.77-.72,2.46,2.46,0,0,1,1.84.72,2.62,2.62,0,0,1,.71,1.91v0.23Zm-1.2-.95a1.21,1.21,0,0,0-.47-0.65,1.37,1.37,0,0,0-.81-0.25,1.43,1.43,0,0,0-.88.28,1.56,1.56,0,0,0-.44.62h2.6Z" transform="translate(-50.7 -27)"/><path class="cls-4" d="M501.43,290h1.2v6.63h-1.2v-0.51a2.32,2.32,0,0,1-.7.48,2,2,0,0,1-.77.15,2.12,2.12,0,0,1-1.6-.72,2.5,2.5,0,0,1-.68-1.79,2.58,2.58,0,0,1,.65-1.82,2.09,2.09,0,0,1,1.59-.71,2,2,0,0,1,.81.16,2.23,2.23,0,0,1,.7.49V290Zm-1.26,2.83a1.21,1.21,0,0,0-.92.39,1.41,1.41,0,0,0-.37,1,1.43,1.43,0,0,0,.37,1,1.21,1.21,0,0,0,.92.4,1.23,1.23,0,0,0,.94-0.39,1.44,1.44,0,0,0,.37-1,1.4,1.4,0,0,0-.37-1A1.25,1.25,0,0,0,500.17,292.87Z" transform="translate(-50.7 -27)"/></g><line class="cls-1" x1="101.5" y1="77.6" x2="134.2" y2="77.6"/><line class="cls-2" x1="101.5" y1="77.6" x2="127.74" y2="77.6"/><polygon class="cls-1" points="126.43 82.09 134.2 77.6 126.43 73.11 126.43 82.09"/><g class="cls-9"><path class="cls-7" d="M201.1,51.29h1.66l3.31,8.62h-1.71l-0.67-1.78h-3.52l-0.7,1.78h-1.71Zm0.84,2.29-1.16,3h2.31Z" transform="translate(-50.7 -27)"/><path class="cls-7" d="M206.69,51.29h1.61l1.25,5.5,1.54-5.5h1.36l1.56,5.5,1.23-5.5h1.61l-1.94,8.62h-1.57l-1.59-5.57-1.56,5.57h-1.56Z" transform="translate(-50.7 -27)"/><path class="cls-7" d="M222.67,52.46l-1.21,1.07a1.72,1.72,0,0,0-1.3-.89,0.79,0.79,0,0,0-.53.17,0.5,0.5,0,0,0-.21.39,0.67,0.67,0,0,0,.15.41,11.08,11.08,0,0,0,1.2,1.11q0.94,0.79,1.14,1a3.43,3.43,0,0,1,.71,1,2.4,2.4,0,0,1,.21,1,2.3,2.3,0,0,1-.73,1.75,2.67,2.67,0,0,1-1.91.69,2.84,2.84,0,0,1-1.6-.45,3.57,3.57,0,0,1-1.17-1.42l1.38-.83a1.75,1.75,0,0,0,1.43,1.14,1.05,1.05,0,0,0,.71-0.25,0.73,0.73,0,0,0,.29-0.57,1,1,0,0,0-.22-0.59,6.24,6.24,0,0,0-1-.9,9.65,9.65,0,0,1-1.82-1.77,2.25,2.25,0,0,1-.41-1.25,2,2,0,0,1,.68-1.54,2.37,2.37,0,0,1,1.69-.64,2.66,2.66,0,0,1,1.23.3A4.48,4.48,0,0,1,222.67,52.46Z" transform="translate(-50.7 -27)"/><path class="cls-7" d="M231.81,51.08A4.28,4.28,0,0,1,235,52.4a4.41,4.41,0,0,1,1.32,3.23,4.36,4.36,0,0,1-1.3,3.19,4.5,4.5,0,0,1-6.38,0A4.53,4.53,0,0,1,231.81,51.08Zm0,1.61a2.7,2.7,0,0,0-2,.83,2.9,2.9,0,0,0-.82,2.12,2.76,2.76,0,0,0,1,2.26,2.81,2.81,0,0,0,1.83.65,2.67,2.67,0,0,0,2-.84,3,3,0,0,0,0-4.16A2.7,2.7,0,0,0,231.79,52.68Z" transform="translate(-50.7 -27)"/><path class="cls-7" d="M239.23,53.54v0.7a3,3,0,0,1,.94-0.65,2.7,2.7,0,0,1,1.08-.22,2.78,2.78,0,0,1,2.12.94,3.42,3.42,0,0,1,.87,2.42,3.34,3.34,0,0,1-.9,2.38,2.84,2.84,0,0,1-2.14,1,2.66,2.66,0,0,1-1-.2,3.13,3.13,0,0,1-.94-0.64v3h-1.59V53.54h1.59Zm1.68,1.31a1.67,1.67,0,0,0-1.25.52,1.86,1.86,0,0,0-.5,1.35,1.91,1.91,0,0,0,.5,1.37,1.66,1.66,0,0,0,1.25.52,1.63,1.63,0,0,0,1.23-.53,1.91,1.91,0,0,0,.5-1.36,1.89,1.89,0,0,0-.49-1.34A1.63,1.63,0,0,0,240.91,54.85Z" transform="translate(-50.7 -27)"/><path class="cls-7" d="M249.47,54.43l-1,1a1.67,1.67,0,0,0-1.1-.6,0.69,0.69,0,0,0-.42.11,0.34,0.34,0,0,0-.15.28,0.35,0.35,0,0,0,.1.24,1.8,1.8,0,0,0,.48.3L248,56a3.45,3.45,0,0,1,1.27.93,1.94,1.94,0,0,1-.28,2.53,2.39,2.39,0,0,1-1.67.57A2.66,2.66,0,0,1,245.06,59l1-1.07a2.27,2.27,0,0,0,.66.53,1.46,1.46,0,0,0,.67.2,0.8,0.8,0,0,0,.51-0.15,0.44,0.44,0,0,0,.19-0.35,1,1,0,0,0-.7-0.72l-0.54-.27a2.28,2.28,0,0,1-1.55-2,1.69,1.69,0,0,1,.58-1.29,2.12,2.12,0,0,1,1.49-.54A2.59,2.59,0,0,1,249.47,54.43Z" transform="translate(-50.7 -27)"/><path class="cls-7" d="M250.37,51.29H252l1.25,5.5,1.54-5.5h1.36l1.56,5.5,1.23-5.5h1.61l-1.94,8.62H257l-1.59-5.57-1.56,5.57h-1.56Z" transform="translate(-50.7 -27)"/><path class="cls-7" d="M264.64,53.37a3.38,3.38,0,0,1,1.7.45A3.31,3.31,0,0,1,268,56.72a3.35,3.35,0,0,1-.45,1.69,3.23,3.23,0,0,1-1.22,1.23,3.37,3.37,0,0,1-1.71.44,3.18,3.18,0,0,1-2.34-1,3.38,3.38,0,0,1,.13-4.86A3.2,3.2,0,0,1,264.64,53.37Zm0,1.51a1.65,1.65,0,0,0-1.24.52,1.84,1.84,0,0,0-.5,1.33,1.87,1.87,0,0,0,.49,1.35,1.64,1.64,0,0,0,1.24.52,1.66,1.66,0,0,0,1.25-.52,2.06,2.06,0,0,0,0-2.67A1.66,1.66,0,0,0,264.66,54.88Z" transform="translate(-50.7 -27)"/><path class="cls-7" d="M269,53.54h1.37v0.8a1.71,1.71,0,0,1,.59-0.72,1.43,1.43,0,0,1,.81-0.25,1.5,1.5,0,0,1,.65.16l-0.5,1.38a1.1,1.1,0,0,0-.46-0.14,0.73,0.73,0,0,0-.62.46,4.18,4.18,0,0,0-.25,1.79v2.89H269V53.54Z" transform="translate(-50.7 -27)"/><path class="cls-7" d="M273.17,51.08h1.6v5.09l2.36-2.63h2l-2.75,3.06,3.07,3.32h-2L274.77,57v2.94h-1.6V51.08Z" transform="translate(-50.7 -27)"/><path class="cls-7" d="M284,54.43l-1,1a1.67,1.67,0,0,0-1.1-.6,0.69,0.69,0,0,0-.42.11,0.34,0.34,0,0,0-.15.28,0.35,0.35,0,0,0,.1.24,1.8,1.8,0,0,0,.48.3L282.53,56a3.45,3.45,0,0,1,1.27.93,1.94,1.94,0,0,1-.28,2.53,2.39,2.39,0,0,1-1.67.57A2.66,2.66,0,0,1,279.62,59l1-1.07a2.27,2.27,0,0,0,.66.53,1.46,1.46,0,0,0,.67.2,0.8,0.8,0,0,0,.51-0.15,0.44,0.44,0,0,0,.19-0.35,1,1,0,0,0-.7-0.72l-0.54-.27a2.28,2.28,0,0,1-1.55-2,1.69,1.69,0,0,1,.58-1.29,2.12,2.12,0,0,1,1.49-.54A2.59,2.59,0,0,1,284,54.43Z" transform="translate(-50.7 -27)"/><path class="cls-7" d="M288,53.54h0.57q0-1.25,0-1.48a1.22,1.22,0,0,1,.44-0.83,1.65,1.65,0,0,1,1.07-.31,3.33,3.33,0,0,1,1.13.23v1.22a2.14,2.14,0,0,0-.57-0.1,0.6,0.6,0,0,0-.41.12,0.51,0.51,0,0,0-.09.36v0.8h1v1.35h-1v5h-1.6v-5H288V53.54Z" transform="translate(-50.7 -27)"/><path class="cls-7" d="M295.11,53.37a3.38,3.38,0,0,1,1.7.45,3.31,3.31,0,0,1,1.68,2.89,3.35,3.35,0,0,1-.45,1.69,3.23,3.23,0,0,1-1.22,1.23,3.37,3.37,0,0,1-1.71.44,3.18,3.18,0,0,1-2.34-1,3.38,3.38,0,0,1,.13-4.86A3.2,3.2,0,0,1,295.11,53.37Zm0,1.51a1.65,1.65,0,0,0-1.24.52,1.84,1.84,0,0,0-.5,1.33,1.87,1.87,0,0,0,.49,1.35,1.64,1.64,0,0,0,1.24.52,1.66,1.66,0,0,0,1.25-.52,2.06,2.06,0,0,0,0-2.67A1.66,1.66,0,0,0,295.14,54.88Z" transform="translate(-50.7 -27)"/><path class="cls-7" d="M299.42,53.54h1.37v0.8a1.71,1.71,0,0,1,.59-0.72,1.43,1.43,0,0,1,.81-0.25,1.5,1.5,0,0,1,.65.16l-0.5,1.38a1.1,1.1,0,0,0-.46-0.14,0.73,0.73,0,0,0-.62.46A4.18,4.18,0,0,0,301,57v2.89h-1.59V53.54Z" transform="translate(-50.7 -27)"/><path class="cls-7" d="M315.09,52.81l-1.15,1.09a3.55,3.55,0,0,0-2.63-1.24,2.89,2.89,0,0,0-2.93,2.93,3.08,3.08,0,0,0,.38,1.53,2.69,2.69,0,0,0,1.06,1,3.08,3.08,0,0,0,1.52.38,3.14,3.14,0,0,0,1.3-.27,4.67,4.67,0,0,0,1.3-1l1.11,1.16a6.09,6.09,0,0,1-1.8,1.29,4.93,4.93,0,0,1-1.94.36A4.46,4.46,0,0,1,308,58.85a4.41,4.41,0,0,1-1.28-3.27,4.47,4.47,0,0,1,.58-2.29A4.34,4.34,0,0,1,309,51.68a4.71,4.71,0,0,1,2.34-.61A5,5,0,0,1,315.09,52.81Z" transform="translate(-50.7 -27)"/><path class="cls-7" d="M316.36,51.08h1.59v3.11a3.64,3.64,0,0,1,.94-0.61,2.43,2.43,0,0,1,1-.2,2.16,2.16,0,0,1,1.6.66A2.29,2.29,0,0,1,322,55.7v4.21h-1.58V57.12a6.9,6.9,0,0,0-.11-1.5A1,1,0,0,0,320,55a1,1,0,0,0-.63-0.19,1.19,1.19,0,0,0-.83.32A1.71,1.71,0,0,0,318,56a7.28,7.28,0,0,0-.07,1.31v2.56h-1.59V51.08Z" transform="translate(-50.7 -27)"/><path class="cls-7" d="M329.94,57.19H324.8a1.71,1.71,0,0,0,.59,1.08,1.87,1.87,0,0,0,1.23.4,2.13,2.13,0,0,0,1.54-.63l1.35,0.63a3.18,3.18,0,0,1-1.21,1.06,3.77,3.77,0,0,1-1.67.34,3.3,3.3,0,0,1-2.44-.95,3.22,3.22,0,0,1-.94-2.37,3.33,3.33,0,0,1,.94-2.42,3.16,3.16,0,0,1,2.36-1,3.28,3.28,0,0,1,2.45,1,3.48,3.48,0,0,1,.94,2.55v0.3Zm-1.6-1.26a1.6,1.6,0,0,0-.62-0.87,1.81,1.81,0,0,0-1.08-.33,1.92,1.92,0,0,0-1.17.38,2.1,2.1,0,0,0-.59.83h3.47Z" transform="translate(-50.7 -27)"/><path class="cls-7" d="M330.47,53.54H331q0-1.25,0-1.48a1.22,1.22,0,0,1,.44-0.83,1.65,1.65,0,0,1,1.07-.31,3.33,3.33,0,0,1,1.13.23v1.22a2.14,2.14,0,0,0-.57-0.1,0.6,0.6,0,0,0-.41.12,0.51,0.51,0,0,0-.09.36v0.8h1v1.35h-1v5H331v-5h-0.57V53.54Z" transform="translate(-50.7 -27)"/><path class="cls-7" d="M340.76,51.29h1.66l3.31,8.62H344l-0.67-1.78h-3.52l-0.7,1.78h-1.71Zm0.84,2.29-1.16,3h2.31Z" transform="translate(-50.7 -27)"/><path class="cls-7" d="M346.82,53.54h1.62v3.07a4.22,4.22,0,0,0,.12,1.25,1.08,1.08,0,0,0,.4.54,1.13,1.13,0,0,0,.67.19,1.18,1.18,0,0,0,.68-0.19,1.12,1.12,0,0,0,.41-0.56,4.3,4.3,0,0,0,.1-1.18V53.54h1.6v2.7a6.63,6.63,0,0,1-.26,2.29,2.49,2.49,0,0,1-.95,1.15,2.91,2.91,0,0,1-1.59.4,2.83,2.83,0,0,1-1.7-.47A2.48,2.48,0,0,1,347,58.3a7.92,7.92,0,0,1-.19-2.11V53.54Z" transform="translate(-50.7 -27)"/><path class="cls-7" d="M354.22,51.19h1.6v2.35h0.95v1.38h-0.95v5h-1.6v-5H353.4V53.54h0.82V51.19Z" transform="translate(-50.7 -27)"/><path class="cls-7" d="M360.62,53.37a3.38,3.38,0,0,1,1.7.45A3.31,3.31,0,0,1,364,56.72a3.35,3.35,0,0,1-.45,1.69,3.23,3.23,0,0,1-1.22,1.23,3.37,3.37,0,0,1-1.71.44,3.18,3.18,0,0,1-2.34-1,3.38,3.38,0,0,1,.13-4.86A3.2,3.2,0,0,1,360.62,53.37Zm0,1.51a1.65,1.65,0,0,0-1.24.52,1.84,1.84,0,0,0-.5,1.33,1.87,1.87,0,0,0,.49,1.35,1.64,1.64,0,0,0,1.24.52,1.66,1.66,0,0,0,1.25-.52,2.06,2.06,0,0,0,0-2.67A1.66,1.66,0,0,0,360.65,54.88Z" transform="translate(-50.7 -27)"/><path class="cls-7" d="M365.3,53.54h1.6v0.73a2.73,2.73,0,0,1,.91-0.67,2.66,2.66,0,0,1,1.09-.22,2,2,0,0,1,1.08.29,2.11,2.11,0,0,1,.77.86,2.58,2.58,0,0,1,.94-0.86,2.55,2.55,0,0,1,1.21-.29,2.24,2.24,0,0,1,1.2.32,1.82,1.82,0,0,1,.74.83,4.42,4.42,0,0,1,.23,1.66v3.74h-1.61V56.68a2.77,2.77,0,0,0-.27-1.47,0.92,0.92,0,0,0-.81-0.38,1.23,1.23,0,0,0-.74.23,1.39,1.39,0,0,0-.48.65A4,4,0,0,0,371,57v2.88h-1.61V56.82a4.36,4.36,0,0,0-.13-1.24,1.12,1.12,0,0,0-.38-0.57,1,1,0,0,0-.61-0.19,1.2,1.2,0,0,0-.73.24,1.41,1.41,0,0,0-.49.67,4.09,4.09,0,0,0-.16,1.35v2.84h-1.6V53.54Z" transform="translate(-50.7 -27)"/><path class="cls-7" d="M381.29,53.54h1.6v6.38h-1.6V59.24a3.12,3.12,0,0,1-.94.64,2.62,2.62,0,0,1-1,.2,2.84,2.84,0,0,1-2.14-1,3.34,3.34,0,0,1-.9-2.38,3.43,3.43,0,0,1,.87-2.42,2.78,2.78,0,0,1,2.12-.94,2.69,2.69,0,0,1,1.08.22,2.94,2.94,0,0,1,.93.65v-0.7Zm-1.68,1.31a1.61,1.61,0,0,0-1.23.52,1.89,1.89,0,0,0-.49,1.34,1.91,1.91,0,0,0,.5,1.36,1.62,1.62,0,0,0,1.23.53,1.65,1.65,0,0,0,1.25-.52,1.92,1.92,0,0,0,.5-1.37,1.86,1.86,0,0,0-.5-1.35A1.67,1.67,0,0,0,379.61,54.85Z" transform="translate(-50.7 -27)"/><path class="cls-7" d="M384.7,51.19h1.6v2.35h0.95v1.38H386.3v5h-1.6v-5h-0.82V53.54h0.82V51.19Z" transform="translate(-50.7 -27)"/><path class="cls-7" d="M394.49,57.19h-5.14a1.71,1.71,0,0,0,.59,1.08,1.87,1.87,0,0,0,1.23.4,2.13,2.13,0,0,0,1.54-.63l1.35,0.63a3.18,3.18,0,0,1-1.21,1.06,3.77,3.77,0,0,1-1.67.34,3.3,3.3,0,0,1-2.44-.95,3.22,3.22,0,0,1-.94-2.37,3.33,3.33,0,0,1,.94-2.42,3.16,3.16,0,0,1,2.36-1,3.28,3.28,0,0,1,2.45,1,3.48,3.48,0,0,1,.94,2.55v0.3Zm-1.6-1.26a1.6,1.6,0,0,0-.62-0.87,1.81,1.81,0,0,0-1.08-.33,1.92,1.92,0,0,0-1.17.38,2.1,2.1,0,0,0-.59.83h3.47Z" transform="translate(-50.7 -27)"/></g><line class="cls-1" x1="288.3" y1="174.95" x2="288.3" y2="143.05"/><line class="cls-2" x1="288.3" y1="174.95" x2="288.3" y2="149.51"/><polygon class="cls-1" points="292.79 150.82 288.3 143.05 283.81 150.82 292.79 150.82"/><line class="cls-2" x1="386.3" y1="40.97" x2="386.59" y2="242.97"/><line class="cls-10" x1="357.9" y1="89.2" x2="384.8" y2="89.2"/><line class="cls-2" x1="357.9" y1="95.75" x2="384.8" y2="95.75"/></svg>