<svg xmlns="http://www.w3.org/2000/svg" viewBox="0 0 88.38 43.77"><defs><style>.cls-1{fill:#445464;}.cls-2{font-size:10.3px;fill:#f18b21;font-family:Raleway-Medium, Raleway;letter-spacing:0.1em;}.cls-3{letter-spacing:0.07em;}</style></defs><title>chef-supermarket</title><g id="Layer_2" data-name="Layer 2"><g id="Pop_up_boxes" data-name="Pop up boxes"><path class="cls-1" d="M1.52,11v-.06A10.73,10.73,0,0,1,12.53,0a10.89,10.89,0,0,1,8.33,3.26l-3,3.41a7.79,7.79,0,0,0-5.4-2.38c-3.56,0-6.12,3-6.12,6.58v.06c0,3.62,2.5,6.64,6.12,6.64,2.41,0,3.89-1,5.55-2.47l3,3a10.79,10.79,0,0,1-8.66,3.77A10.66,10.66,0,0,1,1.52,11"/><polygon class="cls-1" points="26.39 0.36 31.03 0.36 31.03 8.72 39.6 8.72 39.6 0.36 44.25 0.36 44.25 21.48 39.6 21.48 39.6 13 31.03 13 31.03 21.48 26.39 21.48 26.39 0.36"/><polygon class="cls-1" points="49.92 0.36 65.84 0.36 65.84 4.49 54.53 4.49 54.53 8.78 64.49 8.78 64.49 12.91 54.53 12.91 54.53 17.34 65.99 17.34 65.99 21.48 49.92 21.48 49.92 0.36"/><polygon class="cls-1" points="72.06 0.36 88.14 0.36 88.14 4.58 76.71 4.58 76.71 9.08 86.78 9.08 86.78 13.3 76.71 13.3 76.71 21.48 72.06 21.48 72.06 0.36"/><text class="cls-2" transform="translate(1.57 37.55)">SUPERMARKE<tspan class="cls-3" x="79.43" y="0">T</tspan></text></g></g></svg>