<svg xmlns="http://www.w3.org/2000/svg" viewBox="0 0 71.03 30.85"><defs><style>.cls-1{fill:#7d868c;}</style></defs><title>chef-log</title><g id="Layer_2" data-name="Layer 2"><g id="Pop_up_boxes" data-name="Pop up boxes"><path class="cls-1" d="M0,9V9A8.8,8.8,0,0,1,9,0a8.93,8.93,0,0,1,6.83,2.67L13.43,5.47A6.39,6.39,0,0,0,9,3.51,5.13,5.13,0,0,0,4,8.9V9A5.14,5.14,0,0,0,9,14.4a6.25,6.25,0,0,0,4.55-2L16,14.82a8.85,8.85,0,0,1-7.1,3.09A8.74,8.74,0,0,1,0,9"/><polygon class="cls-1" points="20.39 0.3 24.2 0.3 24.2 7.15 31.22 7.15 31.22 0.3 35.03 0.3 35.03 17.61 31.22 17.61 31.22 10.66 24.2 10.66 24.2 17.61 20.39 17.61 20.39 0.3"/><polygon class="cls-1" points="39.68 0.3 52.74 0.3 52.74 3.69 43.47 3.69 43.47 7.2 51.63 7.2 51.63 10.59 43.47 10.59 43.47 14.22 52.87 14.22 52.87 17.61 39.68 17.61 39.68 0.3"/><polygon class="cls-1" points="57.84 0.3 71.03 0.3 71.03 3.76 61.65 3.76 61.65 7.45 69.91 7.45 69.91 10.91 61.65 10.91 61.65 17.61 57.84 17.61 57.84 0.3"/><path class="cls-1" d="M4.26,26.06A1.27,1.27,0,0,0,4,25.83a2.41,2.41,0,0,0-.38-.2,2.73,2.73,0,0,0-.46-.14,2.38,2.38,0,0,0-.52-.05,1.63,1.63,0,0,0-1,.26.87.87,0,0,0-.32.72.81.81,0,0,0,.09.41.78.78,0,0,0,.29.27,2.23,2.23,0,0,0,.49.2l.7.18a7.18,7.18,0,0,1,.84.23,2.42,2.42,0,0,1,.64.33,1.29,1.29,0,0,1,.41.47,1.53,1.53,0,0,1,.14.68,1.56,1.56,0,0,1-.17.75,1.49,1.49,0,0,1-.46.52,2,2,0,0,1-.69.3,3.6,3.6,0,0,1-.86.1,4,4,0,0,1-1.31-.22A3.68,3.68,0,0,1,.28,30l.36-.64a2,2,0,0,0,.35.29,2.85,2.85,0,0,0,.49.26,3.55,3.55,0,0,0,.59.19,3,3,0,0,0,.66.07,1.83,1.83,0,0,0,1-.23A.84.84,0,0,0,4,28.83a1,1,0,0,0-.33-.3,2.6,2.6,0,0,0-.54-.22l-.74-.2a7.37,7.37,0,0,1-.8-.24,2.21,2.21,0,0,1-.58-.3,1.15,1.15,0,0,1-.35-.43,1.43,1.43,0,0,1-.12-.61,1.72,1.72,0,0,1,.16-.76,1.61,1.61,0,0,1,.45-.56,2,2,0,0,1,.68-.34,3.1,3.1,0,0,1,.86-.11,3,3,0,0,1,2,.68Z"/><path class="cls-1" d="M9.18,30.15a1.69,1.69,0,0,0,.87-.2,1.6,1.6,0,0,0,.55-.53,2.17,2.17,0,0,0,.29-.74,4.29,4.29,0,0,0,.08-.85v-3h.76v3A4.63,4.63,0,0,1,11.6,29a2.76,2.76,0,0,1-.44,1,2.12,2.12,0,0,1-.79.65,2.61,2.61,0,0,1-1.18.24A2.59,2.59,0,0,1,8,30.58a2.2,2.2,0,0,1-.79-.67,2.73,2.73,0,0,1-.43-1,4.81,4.81,0,0,1-.13-1.12v-3H7.4v3a4.15,4.15,0,0,0,.09.87,2.19,2.19,0,0,0,.29.74,1.59,1.59,0,0,0,.55.52A1.68,1.68,0,0,0,9.18,30.15Z"/><path class="cls-1" d="M13.93,30.79v-6h2.49a1.62,1.62,0,0,1,.73.16,1.82,1.82,0,0,1,.57.44,2.09,2.09,0,0,1,.37.62,1.89,1.89,0,0,1,.13.7,2.07,2.07,0,0,1-.13.72,2,2,0,0,1-.36.62,1.75,1.75,0,0,1-.56.43,1.6,1.6,0,0,1-.72.16H14.68v2.15ZM14.68,28h1.74a.92.92,0,0,0,.43-.1,1,1,0,0,0,.33-.27,1.31,1.31,0,0,0,.21-.4,1.49,1.49,0,0,0,.08-.48,1.34,1.34,0,0,0-.09-.49,1.31,1.31,0,0,0-.24-.4,1,1,0,0,0-.35-.26,1,1,0,0,0-.42-.09H14.68Z"/><path class="cls-1" d="M24.08,30.12v.68H20v-6h4v.68H20.78v1.94h2.8V28h-2.8v2.07Z"/><path class="cls-1" d="M26,30.79v-6h2.56a1.62,1.62,0,0,1,.73.16,1.82,1.82,0,0,1,.57.44,2.11,2.11,0,0,1,.38.62,1.89,1.89,0,0,1,.13.7,2.06,2.06,0,0,1-.09.6,1.84,1.84,0,0,1-.25.53,1.67,1.67,0,0,1-.4.41,1.53,1.53,0,0,1-.52.25l1.45,2.3h-.86L28.3,28.64H26.71v2.15ZM26.71,28h1.81a.88.88,0,0,0,.43-.1,1,1,0,0,0,.32-.27,1.33,1.33,0,0,0,.21-.4,1.49,1.49,0,0,0,.08-.47,1.29,1.29,0,0,0-.09-.48,1.4,1.4,0,0,0-.24-.4,1.07,1.07,0,0,0-.35-.27.94.94,0,0,0-.42-.1H26.71Z"/><path class="cls-1" d="M37.51,30.79V26.16l-2,3.56h-.43l-2-3.56v4.64h-.76v-6h.8l2.17,3.89,2.17-3.89h.79v6Z"/><path class="cls-1" d="M42.36,24.8H43l2.44,6h-.81L43.92,29H41.42l-.7,1.76h-.81Zm1.4,3.65-1.08-2.77-1.11,2.77Z"/><path class="cls-1" d="M47.08,30.79v-6h2.56a1.62,1.62,0,0,1,.73.16,1.82,1.82,0,0,1,.57.44,2.11,2.11,0,0,1,.38.62,1.89,1.89,0,0,1,.13.7,2.06,2.06,0,0,1-.09.6,1.84,1.84,0,0,1-.25.53,1.67,1.67,0,0,1-.4.41,1.53,1.53,0,0,1-.52.25l1.45,2.3h-.86l-1.36-2.15H47.84v2.15ZM47.84,28h1.81a.88.88,0,0,0,.43-.1,1,1,0,0,0,.32-.27,1.33,1.33,0,0,0,.21-.4,1.49,1.49,0,0,0,.08-.47,1.29,1.29,0,0,0-.09-.48,1.4,1.4,0,0,0-.24-.4,1.07,1.07,0,0,0-.35-.27.94.94,0,0,0-.42-.1H47.84Z"/><path class="cls-1" d="M53.46,30.79v-6h.76v3.31L57.3,24.8h.82l-2.4,2.64,2.54,3.35h-.82l-2.17-2.91-1,1.08v1.83Z"/><path class="cls-1" d="M63.86,30.12v.68H59.8v-6h4v.68H60.55v1.94h2.81V28H60.55v2.07Z"/><path class="cls-1" d="M70,25.47H68v5.32h-.76V25.47H65.16V24.8H70Z"/></g></g></svg>