<svg xmlns="http://www.w3.org/2000/svg" viewBox="0 0 30.79 31.36"><defs><style>.cls-1{fill:#7d868c;}</style></defs><title>ic-google</title><g id="Layer_2" data-name="Layer 2"><g id="Pop_up_boxes" data-name="Pop up boxes"><path class="cls-1" d="M30.56,18.8c-1.21,8-7.17,12.56-14.87,12.56A15.68,15.68,0,1,1,15.68,0,14.88,14.88,0,0,1,26.21,4.09l-4.5,4.5a8.28,8.28,0,0,0-6-2.35,9.42,9.42,0,0,0-9.23,9.44A9.31,9.31,0,0,0,15.68,25c4.27,0,7.51-2.07,8.44-6.2H15.68V12.5H30.52a18.32,18.32,0,0,1,.27,3.18A20.62,20.62,0,0,1,30.56,18.8Z"/></g></g></svg>