<svg xmlns="http://www.w3.org/2000/svg" viewBox="0 0 30.79 25.02"><defs><style>.cls-1{fill:#7d868c;}</style></defs><title>ic-twitter</title><g id="Layer_2" data-name="Layer 2"><g id="Pop_up_boxes" data-name="Pop up boxes"><path class="cls-1" d="M30.79,3a12.73,12.73,0,0,1-3.63,1A6.32,6.32,0,0,0,29.94.46a12.66,12.66,0,0,1-4,1.53A6.32,6.32,0,0,0,15,6.21a6.15,6.15,0,0,0,.16,1.54,17.92,17.92,0,0,1-13-6.6,6.32,6.32,0,0,0,2,8.43A6.32,6.32,0,0,1,1.24,8.8v.08a6.33,6.33,0,0,0,5.06,6.2,6.37,6.37,0,0,1-1.66.22,6.44,6.44,0,0,1-1.19-.11,6.32,6.32,0,0,0,5.89,4.38,12.68,12.68,0,0,1-7.84,2.7A13.44,13.44,0,0,1,0,22.18,17.87,17.87,0,0,0,9.68,25c11.62,0,18-9.62,18-18,0-.27,0-.55,0-.82A13,13,0,0,0,30.79,3Z"/></g></g></svg>