<svg xmlns="http://www.w3.org/2000/svg" viewBox="0 0 139.45 55.68"><defs><style>.cls-1{fill:#fff;}.cls-2{fill:#fdb713;}</style></defs><title>learn-chef-login</title><g id="Layer_2" data-name="Layer 2"><g id="Pop_up_boxes" data-name="Pop up boxes"><path class="cls-1" d="M0,.17H5.19V25h5.49v4.93H0Z"/><path class="cls-1" d="M12.76.17h11.4V5.11H18v7.4h5.49v4.93H18V25h6.34v4.93H12.76Z"/><path class="cls-1" d="M31,.09H36.5l5.66,29.86H37L36,24H31.26l-.94,5.91h-5Zm4.25,19.27L33.65,9.53,32,19.36Z"/><path class="cls-1" d="M43.73.17h5.36c5.32,0,9.19,2.81,9.19,9.49V10c0,3.87-1.53,6.34-3.49,7.83l4,12.08H53.26L49.9,19.57h-1V29.95H43.73Zm5.44,14.72c2.25,0,3.91-1.32,3.91-4.81V9.74C53.09,6,51.3,5,49,5h-.13v9.87Z"/><path class="cls-1" d="M60.66.17h4.85l5.23,15.06V.17H75.8V29.95H71.21L65.72,14.17V29.95H60.66Z"/><path class="cls-1" d="M81.9,15.59v-1C81.9,4.12,85.76,0,90.61,0A7.15,7.15,0,0,1,94,.68V6a5.46,5.46,0,0,0-2.89-1c-2.29,0-4,2-4,9.47v1.1c0,7.86,1.66,9.47,4,9.47a5.85,5.85,0,0,0,2.89-.93v5.1a7.17,7.17,0,0,1-3.82.89C85.51,30.16,81.9,26,81.9,15.59Z"/><path class="cls-1" d="M96.68.21h5.18V12.53h4.5V.21h5.18V29.95h-5.18V17.46h-4.5V29.95H96.68Z"/><path class="cls-1" d="M114.6.21H126V5.14h-6.2v7.39h5.48v4.93h-5.48V25h6.33v4.93H114.6Z"/><path class="cls-1" d="M128.62.21h10.83V5.14H133.8v7.48h4.93v4.93H133.8v12.4h-5.18Z"/><path class="cls-2" d="M61.22,39.3a16.34,16.34,0,0,1-4.07,1.91A7.36,7.36,0,0,1,58,42.3a8,8,0,0,1,.71,1.3h3.41l-1,3H56.79l-.06-.17-.06-.17a11.71,11.71,0,0,0-1.73-2.94A4.54,4.54,0,0,0,51.4,42l1-3,.86-.08.86-.11a16.86,16.86,0,0,0,4.4-1.33,7.68,7.68,0,0,0,3.38-3l.12-.2.12-.23a3.25,3.25,0,0,0,.17-.32,3.07,3.07,0,0,1,.17-.32,2.42,2.42,0,0,0,.14-.41,1.68,1.68,0,0,0,0-.38.91.91,0,0,0-.21-.51.89.89,0,0,0-.63-.24A4.86,4.86,0,0,0,60,32.2a12.24,12.24,0,0,0-2.44,1.14A20.62,20.62,0,0,0,52.23,38a70.87,70.87,0,0,0-4.3,5.83L47,45.19l-.89,1.39H42.78q1.42-2.32,2.77-4.81a48.49,48.49,0,0,0,2.38-5q.18-.42.35-.84t.32-.84q.33-.9.56-1.66a5.77,5.77,0,0,0,.26-1.33.36.36,0,0,0-.08-.26.53.53,0,0,0-.35-.08H45.85l1-3h1.75a6,6,0,0,1,2.77.6q1.18.6,1,2.89a3.78,3.78,0,0,1-.08.74c-.05.25-.12.53-.2.83L53,33q.51-.45,1.12-.9,1.05-.78,2.28-1.52a13.76,13.76,0,0,1,2.49-1.19A12.87,12.87,0,0,1,60.23,29a6.42,6.42,0,0,1,1.3-.14,5,5,0,0,1,1.51.23,3.56,3.56,0,0,1,1.33.77,3,3,0,0,1,.93,1.24,3.93,3.93,0,0,1,.27,1.45c0,.12,0,.24,0,.35s0,.22,0,.32a6.71,6.71,0,0,1-.42,1.52,7.74,7.74,0,0,1-.72,1.37A10.18,10.18,0,0,1,61.22,39.3Z"/><path class="cls-2" d="M73.07,46.61H70.15a2.41,2.41,0,0,1-.87-.15,3.11,3.11,0,0,1-.72-.39,5.17,5.17,0,0,1-1,.45,5,5,0,0,1-1,.24l-.36,0-.36,0A3.84,3.84,0,0,1,64,46.4,3,3,0,0,1,62.73,45a4.13,4.13,0,0,1-.27-.77,3.28,3.28,0,0,1-.09-.77,4,4,0,0,1,.3-1.52,6,6,0,0,1,.78-1.37,8.14,8.14,0,0,1,3.75-2.85,14.41,14.41,0,0,1,4.66-.89h.42v3a15.4,15.4,0,0,0-1.91.12,8,8,0,0,0-1.82.45,6.08,6.08,0,0,0-1.48.75,5.16,5.16,0,0,0-1.21,1.18l-.09.15a1.9,1.9,0,0,0-.12.21l-.11.18-.11.21c0,.06,0,.13-.06.21a.87.87,0,0,0,0,.21.34.34,0,0,0,.09.23.38.38,0,0,0,.3.11,2,2,0,0,0,1.75-.78,6.69,6.69,0,0,0,.9-1.72c0-.14.08-.27.12-.39l.12-.36,2.83.93-.66,2.08H74Z"/><path class="cls-2" d="M76.93,43.62h3l-1,3H76.27a2.37,2.37,0,0,1-1.81-.74,2.45,2.45,0,0,1-.69-1.73,1.59,1.59,0,0,1,0-.23,1.59,1.59,0,0,0,0-.23l.06-.2.06-.23,4.94-15.19H82Z"/><path class="cls-2" d="M83.17,43.62h3l-1,3H82.51a2.37,2.37,0,0,1-1.81-.74A2.45,2.45,0,0,1,80,44.14a1.59,1.59,0,0,1,0-.23,1.59,1.59,0,0,0,0-.23l.06-.2.06-.23L85.1,28.07h3.13Z"/><path class="cls-2" d="M96.4,37.46l-.3.62q-.3.69-.71,1.57t-.89,1.75a5.33,5.33,0,0,1-.27.53l-.3.5q0,.81,0,1.64t-.12,1.67a16.65,16.65,0,0,1-2,6.16,7.76,7.76,0,0,1-5.12,3.78l-.72-2.86a5.14,5.14,0,0,0,3.39-2.58,12.66,12.66,0,0,0,1.4-4.2,3.93,3.93,0,0,1-.92.41,3.49,3.49,0,0,1-1,.14,3,3,0,0,1-2.37-1,3.32,3.32,0,0,1-.89-2.31,3.27,3.27,0,0,1,.06-.62,6.08,6.08,0,0,1,.15-.62q.42-1.3.86-2.61t.83-2.61h3.13q-.48,1.54-1,3.07t-1,3.08a.14.14,0,0,1,0,.06.13.13,0,0,0,0,.06.49.49,0,0,1,0,.12.49.49,0,0,0,0,.12.24.24,0,0,0,.06.18.29.29,0,0,0,.21.06,1.25,1.25,0,0,0,.75-.3,5.19,5.19,0,0,0,.81-.81,13,13,0,0,0,.89-1.37q.44-.77.83-1.58l.69-1.4q.33-.68.57-1.25v0h3.29Q96.55,37.14,96.4,37.46Z"/></g></g></svg>