<svg id="Layer_1" data-name="Layer 1" xmlns="http://www.w3.org/2000/svg" viewBox="0 0 440.6 238.5"><defs><style>.cls-1,.cls-14{fill:#515151;}.cls-1,.cls-11,.cls-16,.cls-2,.cls-4,.cls-5,.cls-6,.cls-7{opacity:0.5;}.cls-10,.cls-2{isolation:isolate;}.cls-11,.cls-3{fill:#fff;}.cls-4,.cls-9{fill:#9c9c9c;}.cls-16,.cls-17,.cls-5,.cls-8{fill:none;stroke:#9c9c9c;stroke-miterlimit:10;}.cls-5,.cls-8{stroke-width:2.5px;}.cls-15,.cls-6{fill:#9b9b9b;}.cls-12{fill:#445464;}.cls-13{fill:#59b8b3;}.cls-16,.cls-17{stroke-width:2.5px;}</style></defs><title>delivery_full_workflow_build</title><rect class="cls-1" x="8.6" y="72.7" width="52.2" height="42.4"/><g class="cls-2"><path class="cls-3" d="M-1946.2,2930.5h0.8l2.2,5.3,2.2-5.3h0.7l-2.6,6.2h-0.6Z" transform="translate(1964.6 -2840.1)"/><path class="cls-3" d="M-1939.1,2930.5h4.4v0.6h-3.7v2.1h3.3v0.6h-3.3v2.1h3.8v0.6h-4.5v-6h0Z" transform="translate(1964.6 -2840.1)"/><path class="cls-3" d="M-1933.3,2930.5h2.6a2.06,2.06,0,0,1,1.7.6,1.66,1.66,0,0,1,.5,1.2h0a1.84,1.84,0,0,1-1.7,1.8l1.9,2.5h-0.8l-1.8-2.4h-1.8v2.4h-0.7v-6.1h0.1Zm2.6,3.1a1.41,1.41,0,0,0,1.6-1.3h0c0-.8-0.6-1.2-1.6-1.2h-1.9v2.5h1.9Z" transform="translate(1964.6 -2840.1)"/><path class="cls-3" d="M-1926.9,2930.5h0.7v6.1h-0.7v-6.1Z" transform="translate(1964.6 -2840.1)"/><path class="cls-3" d="M-1924.4,2930.5h4.4v0.6h-3.7v2.2h3.3v0.6h-3.3v2.7h-0.7v-6.1h0Z" transform="translate(1964.6 -2840.1)"/><path class="cls-3" d="M-1916.7,2934.2l-2.5-3.7h0.8l2.1,3.1,2.1-3.1h0.8l-2.5,3.7v2.4h-0.7v-2.4h-0.1Z" transform="translate(1964.6 -2840.1)"/></g><circle class="cls-4" cx="24.7" cy="24.7" r="24.7"/><line class="cls-5" x1="24.7" y1="39.4" x2="24.7" y2="65.8"/><polygon class="cls-4" points="21.6 64.9 24.7 70.3 27.8 64.9 21.6 64.9"/><g class="cls-2"><path class="cls-3" d="M-1954.9,2861.3l0.4-.5a2.88,2.88,0,0,0,2.1.9,1.2,1.2,0,0,0,1.4-1h0c0-.6-0.3-0.9-1.6-1.2s-2.1-.8-2.1-1.8h0a1.77,1.77,0,0,1,2-1.7,3.49,3.49,0,0,1,2.2.8l-0.4.5a2.57,2.57,0,0,0-1.8-.7,1.1,1.1,0,0,0-1.3,1h0c0,0.6.3,0.9,1.7,1.2s2,0.8,2,1.7h0c0,1.1-.9,1.7-2.1,1.7A2.91,2.91,0,0,1-1954.9,2861.3Z" transform="translate(1964.6 -2840.1)"/><path class="cls-3" d="M-1949.1,2860.5v-2.8h0.7v2.6a1.29,1.29,0,0,0,1.3,1.4,1.37,1.37,0,0,0,1.4-1.4v-2.6h0.7v4.5h-0.7v-0.8a1.72,1.72,0,0,1-1.5.9A1.66,1.66,0,0,1-1949.1,2860.5Z" transform="translate(1964.6 -2840.1)"/><path class="cls-3" d="M-1943,2861.4v0.9h-0.7v-6.4h0.7v2.8a2.16,2.16,0,0,1,1.7-1,2.24,2.24,0,0,1,2.2,2.3h0a2.27,2.27,0,0,1-2.2,2.4A2.46,2.46,0,0,1-1943,2861.4Zm3.2-1.4h0a1.64,1.64,0,0,0-1.6-1.8,1.67,1.67,0,0,0-1.6,1.7h0a1.7,1.7,0,0,0,1.6,1.8A1.55,1.55,0,0,0-1939.8,2860Z" transform="translate(1964.6 -2840.1)"/><path class="cls-3" d="M-1937.8,2857.7h0.7v0.8a1.8,1.8,0,0,1,1.5-.9,1.72,1.72,0,0,1,1.5.9,1.77,1.77,0,0,1,1.6-.9,1.66,1.66,0,0,1,1.7,1.8v2.8h-0.7v-2.6a1.17,1.17,0,0,0-1.2-1.4,1.22,1.22,0,0,0-1.2,1.4v2.6h-0.7v-2.7a1.13,1.13,0,0,0-1.2-1.3,1.35,1.35,0,0,0-1.3,1.4v2.6h-0.7v-4.5h0Z" transform="translate(1964.6 -2840.1)"/><path class="cls-3" d="M-1929.5,2856h0.8v0.7h-0.8V2856Zm0.1,1.7h0.7v4.5h-0.7v-4.5Z" transform="translate(1964.6 -2840.1)"/><path class="cls-3" d="M-1927,2861v-2.7h-0.6v-0.6h0.6v-1.4h0.7v1.4h1.4v0.6h-1.4v2.6a0.69,0.69,0,0,0,.8.8,1.08,1.08,0,0,0,.7-0.2v0.6a1.88,1.88,0,0,1-.8.2A1.24,1.24,0,0,1-1927,2861Z" transform="translate(1964.6 -2840.1)"/></g><g class="cls-2"><path class="cls-3" d="M-1956,2869.7h0a3.08,3.08,0,0,1,3.1-3.2,3.15,3.15,0,0,1,2.4,1l-0.5.5a2.56,2.56,0,0,0-1.9-.8,2.39,2.39,0,0,0-2.4,2.5h0a2.39,2.39,0,0,0,2.4,2.5,2.67,2.67,0,0,0,2-.9l0.5,0.4a3.27,3.27,0,0,1-2.5,1.1A3.05,3.05,0,0,1-1956,2869.7Z" transform="translate(1964.6 -2840.1)"/><path class="cls-3" d="M-1949.4,2866.3h0.7v2.7a1.77,1.77,0,0,1,1.6-.9,1.61,1.61,0,0,1,1.7,1.8v2.8h-0.7v-2.6a1.29,1.29,0,0,0-1.3-1.4,1.37,1.37,0,0,0-1.4,1.4v2.6h-0.7v-6.4h0.1Z" transform="translate(1964.6 -2840.1)"/><path class="cls-3" d="M-1944.3,2871.4h0c0-1,.8-1.5,1.9-1.5a5.22,5.22,0,0,1,1.4.2v-0.2a1.13,1.13,0,0,0-1.3-1.2,3.19,3.19,0,0,0-1.4.3l-0.2-.6a4.19,4.19,0,0,1,1.6-.4,2.46,2.46,0,0,1,1.5.5,1.73,1.73,0,0,1,.5,1.3v2.8h-0.6v-0.7a1.92,1.92,0,0,1-1.6.8A1.43,1.43,0,0,1-1944.3,2871.4Zm3.3-.3v-0.4a4.44,4.44,0,0,0-1.3-.2,1.1,1.1,0,0,0-1.3.9h0a1,1,0,0,0,1.1.9A1.37,1.37,0,0,0-1941,2871.1Z" transform="translate(1964.6 -2840.1)"/><path class="cls-3" d="M-1938.9,2868.2h0.7v0.8a1.77,1.77,0,0,1,1.6-.9,1.61,1.61,0,0,1,1.7,1.8v2.8h-0.7v-2.6a1.29,1.29,0,0,0-1.3-1.4,1.37,1.37,0,0,0-1.4,1.4v2.6h-0.7v-4.5h0.1Z" transform="translate(1964.6 -2840.1)"/><path class="cls-3" d="M-1933.6,2873.5l0.3-.5a2.72,2.72,0,0,0,1.7.6,1.47,1.47,0,0,0,1.6-1.6v-0.5a2.2,2.2,0,0,1-1.8,1,2,2,0,0,1-2.1-2.1h0a2.11,2.11,0,0,1,2.1-2.1,2.27,2.27,0,0,1,1.8.9v-0.8h0.7v3.7a2.11,2.11,0,0,1-.6,1.6,2.35,2.35,0,0,1-1.7.6A7,7,0,0,1-1933.6,2873.5Zm3.7-3.3h0a1.67,1.67,0,0,0-1.7-1.6,1.5,1.5,0,0,0-1.6,1.5h0a1.5,1.5,0,0,0,1.6,1.5A1.36,1.36,0,0,0-1929.9,2870.2Z" transform="translate(1964.6 -2840.1)"/><path class="cls-3" d="M-1928,2870.5h0a2.27,2.27,0,0,1,2.2-2.4,2.19,2.19,0,0,1,2.1,2.4v0.2h-3.6a1.55,1.55,0,0,0,1.6,1.5,2,2,0,0,0,1.4-.6l0.4,0.4a2.41,2.41,0,0,1-1.9.8A2.18,2.18,0,0,1-1928,2870.5Zm3.6-.3a1.45,1.45,0,0,0-1.4-1.5,1.61,1.61,0,0,0-1.5,1.5h2.9Z" transform="translate(1964.6 -2840.1)"/></g><rect class="cls-6" x="8.6" y="118.5" width="52.2" height="17.1"/><rect class="cls-6" x="8.6" y="139.1" width="52.2" height="17.1"/><rect class="cls-6" x="8.6" y="159.7" width="52.2" height="17.1"/><g class="cls-2"><path class="cls-3" d="M-1938,2962.8h0.8v6h3.7v0.7h-4.5v-6.7Z" transform="translate(1964.6 -2840.1)"/><path class="cls-3" d="M-1932.2,2962.7h0.8v0.8h-0.8v-0.8Zm0,1.8h0.7v4.9h-0.7v-4.9Z" transform="translate(1964.6 -2840.1)"/><path class="cls-3" d="M-1929.7,2964.5h0.7v0.9a1.89,1.89,0,0,1,1.7-1,1.81,1.81,0,0,1,1.9,2v3.1h-0.7v-2.9a1.34,1.34,0,0,0-1.4-1.5,1.47,1.47,0,0,0-1.5,1.5v2.8h-0.7v-4.9Z" transform="translate(1964.6 -2840.1)"/><path class="cls-3" d="M-1923.6,2968.2v-3h-0.7v-0.6h0.7v-1.5h0.7v1.5h1.6v0.6h-1.6v2.9a0.69,0.69,0,0,0,.8.8,1,1,0,0,0,.7-0.2v0.6a2.39,2.39,0,0,1-.9.2A1.16,1.16,0,0,1-1923.6,2968.2Z" transform="translate(1964.6 -2840.1)"/></g><g class="cls-2"><path class="cls-3" d="M-1945.6,2989.1l0.5-.6a3.34,3.34,0,0,0,2.3.9,1.31,1.31,0,0,0,1.5-1.1h0c0-.6-0.3-1-1.7-1.3s-2.2-.8-2.2-1.9h0a2,2,0,0,1,2.2-1.8,3.37,3.37,0,0,1,2.3.8l-0.4.6a2.81,2.81,0,0,0-1.9-.7,1.21,1.21,0,0,0-1.4,1.1h0c0,0.6.3,1,1.8,1.3s2.2,0.9,2.2,1.9h0a2.08,2.08,0,0,1-2.3,1.9A4.69,4.69,0,0,1-1945.6,2989.1Z" transform="translate(1964.6 -2840.1)"/><path class="cls-3" d="M-1935.6,2985.1h0.8l-2.1,5.1a1.73,1.73,0,0,1-1.6,1.4,3,3,0,0,1-1-.2l0.2-.6a1.88,1.88,0,0,0,.8.2,1.1,1.1,0,0,0,1-.9l-2.2-4.9h0.8l1.8,4.1Z" transform="translate(1964.6 -2840.1)"/><path class="cls-3" d="M-1933.7,2985.1h0.7v0.9a1.89,1.89,0,0,1,1.7-1,1.81,1.81,0,0,1,1.9,2v3.1h-0.7v-2.9a1.34,1.34,0,0,0-1.4-1.5,1.47,1.47,0,0,0-1.5,1.5v2.8h-0.7v-4.9Z" transform="translate(1964.6 -2840.1)"/><path class="cls-3" d="M-1927.6,2988.7v-3h-0.7v-0.6h0.7v-1.5h0.7v1.5h1.6v0.6h-1.6v2.9a0.69,0.69,0,0,0,.8.8,1,1,0,0,0,.7-0.2v0.6a2.39,2.39,0,0,1-.9.2A1.12,1.12,0,0,1-1927.6,2988.7Z" transform="translate(1964.6 -2840.1)"/><path class="cls-3" d="M-1924.4,2988.6h0c0-1.1.9-1.6,2.1-1.6a6.06,6.06,0,0,1,1.5.2V2987a1.23,1.23,0,0,0-1.5-1.3,3.71,3.71,0,0,0-1.5.4l-0.2-.6a4.78,4.78,0,0,1,1.8-.4,2.54,2.54,0,0,1,1.6.5,2,2,0,0,1,.5,1.4v3h-0.7v-0.7a2.2,2.2,0,0,1-1.8.8A1.61,1.61,0,0,1-1924.4,2988.6Zm3.6-.4v-0.5a5.21,5.21,0,0,0-1.4-.2c-0.9,0-1.4.4-1.4,1h0a1.12,1.12,0,0,0,1.2,1A1.35,1.35,0,0,0-1920.8,2988.2Z" transform="translate(1964.6 -2840.1)"/><path class="cls-3" d="M-1916.6,2987l1.5-1.9h0.8l-1.9,2.4,1.9,2.5h-0.8l-1.5-2-1.5,2h-0.8l1.9-2.5-1.8-2.4h0.8Z" transform="translate(1964.6 -2840.1)"/></g><g class="cls-2"><path class="cls-3" d="M-1938.8,3007.8v-3.9h0.8v3.8a2,2,0,0,0,2,2.2,1.9,1.9,0,0,0,2-2.2v-3.9h0.8v3.8a2.61,2.61,0,0,1-2.8,2.9C-1937.6,3010.7-1938.8,3009.7-1938.8,3007.8Z" transform="translate(1964.6 -2840.1)"/><path class="cls-3" d="M-1931.6,3005.7h0.7v0.9a1.89,1.89,0,0,1,1.7-1,1.81,1.81,0,0,1,1.9,2v3.1h-0.7v-2.9a1.34,1.34,0,0,0-1.4-1.5,1.47,1.47,0,0,0-1.5,1.5v2.8h-0.7v-4.9Z" transform="translate(1964.6 -2840.1)"/><path class="cls-3" d="M-1925.7,3003.8h0.8v0.8h-0.8v-0.8Zm0.1,1.9h0.7v4.9h-0.7v-4.9Z" transform="translate(1964.6 -2840.1)"/><path class="cls-3" d="M-1923,3009.3v-3h-0.7v-0.6h0.7v-1.5h0.7v1.5h1.6v0.6h-1.6v2.9a0.69,0.69,0,0,0,.8.8,1,1,0,0,0,.7-0.2v0.6a2.39,2.39,0,0,1-.9.2A1.12,1.12,0,0,1-1923,3009.3Z" transform="translate(1964.6 -2840.1)"/></g><circle class="cls-4" cx="82.6" cy="24.7" r="24.7"/><g class="cls-7"><line class="cls-8" x1="82.6" y1="39.4" x2="82.6" y2="65.8"/><polygon class="cls-9" points="79.5 64.9 82.6 70.3 85.7 64.9 79.5 64.9"/></g><g class="cls-10"><path class="cls-11" d="M-1897.9,2856h0.6l2.8,6.2h-0.7l-0.7-1.6h-3.3l-0.7,1.6h-0.7Zm1.7,4-1.4-3.1-1.4,3.1h2.8Z" transform="translate(1964.6 -2840.1)"/><path class="cls-11" d="M-1893.4,2857.7h0.7v0.9a2.16,2.16,0,0,1,1.7-1,2.24,2.24,0,0,1,2.2,2.3h0a2.27,2.27,0,0,1-2.2,2.4,2,2,0,0,1-1.7-1v2.3h-0.7v-5.9Zm3.9,2.3h0a1.64,1.64,0,0,0-1.6-1.8,1.67,1.67,0,0,0-1.6,1.7h0a1.7,1.7,0,0,0,1.6,1.8A1.55,1.55,0,0,0-1889.5,2860Z" transform="translate(1964.6 -2840.1)"/><path class="cls-11" d="M-1887.5,2857.7h0.7v0.9a2.16,2.16,0,0,1,1.7-1,2.24,2.24,0,0,1,2.2,2.3h0a2.27,2.27,0,0,1-2.2,2.4,2,2,0,0,1-1.7-1v2.3h-0.7v-5.9Zm3.8,2.3h0a1.64,1.64,0,0,0-1.6-1.8,1.67,1.67,0,0,0-1.6,1.7h0a1.7,1.7,0,0,0,1.6,1.8A1.55,1.55,0,0,0-1883.7,2860Z" transform="translate(1964.6 -2840.1)"/><path class="cls-11" d="M-1881.7,2857.7h0.7v1.2a1.92,1.92,0,0,1,1.8-1.3v0.7h-0.1a1.83,1.83,0,0,0-1.8,2.1v1.8h-0.7v-4.5h0.1Z" transform="translate(1964.6 -2840.1)"/><path class="cls-11" d="M-1878.7,2860h0a2.37,2.37,0,0,1,2.4-2.4,2.35,2.35,0,0,1,2.4,2.3h0a2.37,2.37,0,0,1-2.4,2.4A2.29,2.29,0,0,1-1878.7,2860Zm4.1,0h0a1.71,1.71,0,0,0-1.7-1.8,1.71,1.71,0,0,0-1.7,1.8h0a1.71,1.71,0,0,0,1.7,1.8A1.84,1.84,0,0,0-1874.6,2860Z" transform="translate(1964.6 -2840.1)"/><path class="cls-11" d="M-1873.4,2857.7h0.7l1.5,3.8,1.5-3.8h0.7l-2,4.6h-0.6Z" transform="translate(1964.6 -2840.1)"/><path class="cls-11" d="M-1868.4,2860h0a2.27,2.27,0,0,1,2.2-2.4,2.19,2.19,0,0,1,2.1,2.4v0.2h-3.6a1.55,1.55,0,0,0,1.6,1.5,2,2,0,0,0,1.4-.6l0.4,0.4a2.41,2.41,0,0,1-1.9.8A2.18,2.18,0,0,1-1868.4,2860Zm3.6-.3a1.45,1.45,0,0,0-1.4-1.5,1.61,1.61,0,0,0-1.5,1.5h2.9Z" transform="translate(1964.6 -2840.1)"/></g><g class="cls-2"><path class="cls-3" d="M-1898,2869.7h0a3.08,3.08,0,0,1,3.1-3.2,3.15,3.15,0,0,1,2.4,1l-0.5.5a2.56,2.56,0,0,0-1.9-.8,2.39,2.39,0,0,0-2.4,2.5h0a2.39,2.39,0,0,0,2.4,2.5,2.67,2.67,0,0,0,2-.9l0.5,0.4a3.27,3.27,0,0,1-2.5,1.1A3.05,3.05,0,0,1-1898,2869.7Z" transform="translate(1964.6 -2840.1)"/><path class="cls-3" d="M-1891.4,2866.3h0.7v2.7a1.77,1.77,0,0,1,1.6-.9,1.61,1.61,0,0,1,1.7,1.8v2.8h-0.7v-2.6a1.29,1.29,0,0,0-1.3-1.4,1.37,1.37,0,0,0-1.4,1.4v2.6h-0.7v-6.4h0.1Z" transform="translate(1964.6 -2840.1)"/><path class="cls-3" d="M-1886.4,2871.4h0c0-1,.8-1.5,1.9-1.5a5.22,5.22,0,0,1,1.4.2v-0.2a1.13,1.13,0,0,0-1.3-1.2,3.19,3.19,0,0,0-1.4.3l-0.2-.6a4.19,4.19,0,0,1,1.6-.4,2.46,2.46,0,0,1,1.5.5,1.73,1.73,0,0,1,.5,1.3v2.8h-0.6v-0.7a1.92,1.92,0,0,1-1.6.8A1.48,1.48,0,0,1-1886.4,2871.4Zm3.4-.3v-0.4a4.44,4.44,0,0,0-1.3-.2,1.1,1.1,0,0,0-1.3.9h0a1,1,0,0,0,1.1.9A1.37,1.37,0,0,0-1883,2871.1Z" transform="translate(1964.6 -2840.1)"/><path class="cls-3" d="M-1881,2868.2h0.7v0.8a1.77,1.77,0,0,1,1.6-.9,1.61,1.61,0,0,1,1.7,1.8v2.8h-0.7v-2.6a1.29,1.29,0,0,0-1.3-1.4,1.37,1.37,0,0,0-1.4,1.4v2.6h-0.7v-4.5h0.1Z" transform="translate(1964.6 -2840.1)"/><path class="cls-3" d="M-1875.6,2873.5l0.3-.5a2.72,2.72,0,0,0,1.7.6,1.47,1.47,0,0,0,1.6-1.6v-0.5a2.2,2.2,0,0,1-1.8,1,2,2,0,0,1-2.1-2.1h0a2.11,2.11,0,0,1,2.1-2.1,2.27,2.27,0,0,1,1.8.9v-0.8h0.7v3.7a2.11,2.11,0,0,1-.6,1.6,2.35,2.35,0,0,1-1.7.6A7,7,0,0,1-1875.6,2873.5Zm3.7-3.3h0a1.67,1.67,0,0,0-1.7-1.6,1.5,1.5,0,0,0-1.6,1.5h0a1.5,1.5,0,0,0,1.6,1.5A1.36,1.36,0,0,0-1871.9,2870.2Z" transform="translate(1964.6 -2840.1)"/><path class="cls-3" d="M-1870,2870.5h0a2.27,2.27,0,0,1,2.2-2.4,2.19,2.19,0,0,1,2.1,2.4v0.2h-3.6a1.55,1.55,0,0,0,1.6,1.5,2,2,0,0,0,1.4-.6l0.4,0.4a2.41,2.41,0,0,1-1.9.8A2.18,2.18,0,0,1-1870,2870.5Zm3.6-.3a1.45,1.45,0,0,0-1.4-1.5,1.61,1.61,0,0,0-1.5,1.5h2.9Z" transform="translate(1964.6 -2840.1)"/></g><rect class="cls-12" x="68.4" y="72.7" width="48.4" height="42.4"/><g class="cls-10"><path class="cls-3" d="M-1885,2930.5h2.6a2.35,2.35,0,0,1,1.6.5,1.28,1.28,0,0,1,.4,1h0a1.44,1.44,0,0,1-1,1.4,1.51,1.51,0,0,1,1.3,1.5h0c0,1.1-.9,1.7-2.2,1.7h-2.7v-6.1h0Zm3.9,1.6c0-.6-0.5-1-1.4-1h-1.9v2.1h1.8c0.9,0,1.5-.3,1.5-1.1h0Zm-1.3,1.7h-1.9v2.2h2.1a1.25,1.25,0,0,0,1.5-1.1h0C-1880.8,2934.2-1881.3,2933.8-1882.4,2933.8Z" transform="translate(1964.6 -2840.1)"/><path class="cls-3" d="M-1878.8,2934.1v-3.6h0.7v3.5a1.85,1.85,0,0,0,1.9,2.1,1.74,1.74,0,0,0,1.8-2v-3.6h0.7v3.5a2.4,2.4,0,0,1-2.6,2.7A2.34,2.34,0,0,1-1878.8,2934.1Z" transform="translate(1964.6 -2840.1)"/><path class="cls-3" d="M-1872,2930.5h0.7v6.1h-0.7v-6.1Z" transform="translate(1964.6 -2840.1)"/><path class="cls-3" d="M-1869.5,2930.5h0.7v5.5h3.5v0.6h-4.1v-6.1h-0.1Z" transform="translate(1964.6 -2840.1)"/><path class="cls-3" d="M-1864.1,2930.5h2.1a3.09,3.09,0,0,1,3.3,3h0a3.1,3.1,0,0,1-3.3,3.1h-2.1v-6.1Zm0.7,0.6v4.9h1.4a2.34,2.34,0,0,0,2.5-2.4h0a2.34,2.34,0,0,0-2.5-2.4h-1.4v-0.1Z" transform="translate(1964.6 -2840.1)"/></g><rect class="cls-13" x="68.4" y="118.5" width="48.4" height="17.1"/><rect class="cls-13" x="68.4" y="139.1" width="48.4" height="17.1"/><rect class="cls-13" x="68.4" y="159.7" width="48.4" height="17.1"/><g class="cls-10"><path class="cls-3" d="M-1880.1,2962.8h0.8v6h3.7v0.7h-4.5v-6.7Z" transform="translate(1964.6 -2840.1)"/><path class="cls-3" d="M-1874.3,2962.7h0.8v0.8h-0.8v-0.8Zm0,1.8h0.7v4.9h-0.7v-4.9Z" transform="translate(1964.6 -2840.1)"/><path class="cls-3" d="M-1871.8,2964.5h0.7v0.9a1.89,1.89,0,0,1,1.7-1,1.81,1.81,0,0,1,1.9,2v3.1h-0.7v-2.9a1.34,1.34,0,0,0-1.4-1.5,1.47,1.47,0,0,0-1.5,1.5v2.8h-0.7v-4.9Z" transform="translate(1964.6 -2840.1)"/><path class="cls-3" d="M-1865.7,2968.2v-3h-0.7v-0.6h0.7v-1.5h0.7v1.5h1.6v0.6h-1.6v2.9a0.69,0.69,0,0,0,.8.8,1,1,0,0,0,.7-0.2v0.6a2.39,2.39,0,0,1-.9.2A1.16,1.16,0,0,1-1865.7,2968.2Z" transform="translate(1964.6 -2840.1)"/></g><g class="cls-10"><path class="cls-3" d="M-1887.7,2989.1l0.5-.6a3.34,3.34,0,0,0,2.3.9,1.31,1.31,0,0,0,1.5-1.1h0c0-.6-0.3-1-1.7-1.3s-2.2-.8-2.2-1.9h0a2,2,0,0,1,2.2-1.8,3.37,3.37,0,0,1,2.3.8l-0.4.6a2.81,2.81,0,0,0-1.9-.7,1.21,1.21,0,0,0-1.4,1.1h0c0,0.6.3,1,1.8,1.3s2.2,0.9,2.2,1.9h0a2.08,2.08,0,0,1-2.3,1.9A4.69,4.69,0,0,1-1887.7,2989.1Z" transform="translate(1964.6 -2840.1)"/><path class="cls-3" d="M-1877.7,2985.1h0.8l-2.1,5.1a1.73,1.73,0,0,1-1.6,1.4,3,3,0,0,1-1-.2l0.2-.6a1.88,1.88,0,0,0,.8.2,1.1,1.1,0,0,0,1-.9l-2.2-4.9h0.8l1.8,4.1Z" transform="translate(1964.6 -2840.1)"/><path class="cls-3" d="M-1875.8,2985.1h0.7v0.9a1.89,1.89,0,0,1,1.7-1,1.81,1.81,0,0,1,1.9,2v3.1h-0.7v-2.9a1.34,1.34,0,0,0-1.4-1.5,1.47,1.47,0,0,0-1.5,1.5v2.8h-0.7v-4.9Z" transform="translate(1964.6 -2840.1)"/><path class="cls-3" d="M-1869.7,2988.7v-3h-0.7v-0.6h0.7v-1.5h0.7v1.5h1.6v0.6h-1.6v2.9a0.69,0.69,0,0,0,.8.8,1,1,0,0,0,.7-0.2v0.6a2.39,2.39,0,0,1-.9.2A1.12,1.12,0,0,1-1869.7,2988.7Z" transform="translate(1964.6 -2840.1)"/><path class="cls-3" d="M-1866.5,2988.6h0c0-1.1.9-1.6,2.1-1.6a6.06,6.06,0,0,1,1.5.2V2987a1.23,1.23,0,0,0-1.5-1.3,3.71,3.71,0,0,0-1.5.4l-0.2-.6a4.78,4.78,0,0,1,1.8-.4,2.54,2.54,0,0,1,1.6.5,2,2,0,0,1,.5,1.4v3h-0.7v-0.7a2.2,2.2,0,0,1-1.8.8A1.67,1.67,0,0,1-1866.5,2988.6Zm3.7-.4v-0.5a5.21,5.21,0,0,0-1.4-.2c-0.9,0-1.4.4-1.4,1h0a1.12,1.12,0,0,0,1.2,1A1.4,1.4,0,0,0-1862.8,2988.2Z" transform="translate(1964.6 -2840.1)"/><path class="cls-3" d="M-1858.7,2987l1.5-1.9h0.8l-1.9,2.4,1.9,2.5h-0.8l-1.5-2-1.5,2h-0.8l1.9-2.5-1.8-2.4h0.8Z" transform="translate(1964.6 -2840.1)"/></g><g class="cls-10"><path class="cls-3" d="M-1880.9,3007.8v-3.9h0.8v3.8a2,2,0,0,0,2,2.2,1.9,1.9,0,0,0,2-2.2v-3.9h0.8v3.8a2.61,2.61,0,0,1-2.8,2.9C-1879.7,3010.7-1880.9,3009.7-1880.9,3007.8Z" transform="translate(1964.6 -2840.1)"/><path class="cls-3" d="M-1873.7,3005.7h0.7v0.9a1.89,1.89,0,0,1,1.7-1,1.81,1.81,0,0,1,1.9,2v3.1h-0.7v-2.9a1.34,1.34,0,0,0-1.4-1.5,1.47,1.47,0,0,0-1.5,1.5v2.8h-0.7v-4.9Z" transform="translate(1964.6 -2840.1)"/><path class="cls-3" d="M-1867.8,3003.8h0.8v0.8h-0.8v-0.8Zm0.1,1.9h0.7v4.9h-0.7v-4.9Z" transform="translate(1964.6 -2840.1)"/><path class="cls-3" d="M-1865.1,3009.3v-3h-0.7v-0.6h0.7v-1.5h0.7v1.5h1.6v0.6h-1.6v2.9a0.69,0.69,0,0,0,.8.8,1,1,0,0,0,.7-0.2v0.6a2.39,2.39,0,0,1-.9.2A1.12,1.12,0,0,1-1865.1,3009.3Z" transform="translate(1964.6 -2840.1)"/></g><rect class="cls-13" x="68.4" y="180.2" width="48.4" height="17.1"/><rect class="cls-13" x="68.4" y="200.8" width="48.4" height="17.1"/><rect class="cls-13" x="68.4" y="221.4" width="48.4" height="17.1"/><g class="cls-10"><path class="cls-3" d="M-1890.9,3030.2l0.5-.6a3.34,3.34,0,0,0,2.3.9,1.31,1.31,0,0,0,1.5-1.1h0c0-.6-0.3-1-1.7-1.3s-2.2-.8-2.2-1.9h0a2,2,0,0,1,2.2-1.8,3.37,3.37,0,0,1,2.3.8l-0.4.6a2.81,2.81,0,0,0-1.9-.7,1.21,1.21,0,0,0-1.4,1.1h0c0,0.6.3,1,1.8,1.3s2.2,0.9,2.2,1.9h0a2.08,2.08,0,0,1-2.3,1.9A4.17,4.17,0,0,1-1890.9,3030.2Z" transform="translate(1964.6 -2840.1)"/><path class="cls-3" d="M-1884.8,3028.7h0a2.48,2.48,0,0,1,2.4-2.6,2.34,2.34,0,0,1,2.3,2.6v0.2h-3.9a1.74,1.74,0,0,0,1.7,1.7,1.81,1.81,0,0,0,1.5-.7l0.5,0.4a2.38,2.38,0,0,1-2,.9A2.31,2.31,0,0,1-1884.8,3028.7Zm3.9-.2a1.67,1.67,0,0,0-1.6-1.7,1.67,1.67,0,0,0-1.6,1.7h3.2Z" transform="translate(1964.6 -2840.1)"/><path class="cls-3" d="M-1879.2,3028.8h0a2.56,2.56,0,0,1,2.5-2.6,2.69,2.69,0,0,1,2,.9l-0.5.5a2,2,0,0,0-1.5-.7,1.82,1.82,0,0,0-1.8,1.9h0a1.82,1.82,0,0,0,1.8,1.9,2.13,2.13,0,0,0,1.5-.7l0.5,0.4a2.46,2.46,0,0,1-2,1A2.7,2.7,0,0,1-1879.2,3028.8Z" transform="translate(1964.6 -2840.1)"/><path class="cls-3" d="M-1873.5,3029.3v-3.1h0.7v2.9a1.34,1.34,0,0,0,1.4,1.5,1.47,1.47,0,0,0,1.5-1.5v-2.8h0.7v4.9h-0.7v-0.9a1.89,1.89,0,0,1-1.7,1A1.81,1.81,0,0,1-1873.5,3029.3Z" transform="translate(1964.6 -2840.1)"/><path class="cls-3" d="M-1867.6,3026.3h0.7v1.3a2.28,2.28,0,0,1,2-1.4v0.8h-0.1c-1.1,0-1.9.8-1.9,2.3v2h-0.7v-5Z" transform="translate(1964.6 -2840.1)"/><path class="cls-3" d="M-1863.7,3024.4h0.8v0.8h-0.8v-0.8Zm0,1.9h0.7v4.9h-0.7v-4.9Z" transform="translate(1964.6 -2840.1)"/><path class="cls-3" d="M-1861,3029.9v-3h-0.7v-0.6h0.7v-1.5h0.7v1.5h1.6v0.6h-1.6v2.9a0.69,0.69,0,0,0,.8.8,1,1,0,0,0,.7-0.2v0.6a2.39,2.39,0,0,1-.9.2A1.12,1.12,0,0,1-1861,3029.9Z" transform="translate(1964.6 -2840.1)"/><path class="cls-3" d="M-1853.7,3026.3h0.8l-2.1,5.1a1.73,1.73,0,0,1-1.6,1.4,3,3,0,0,1-1-.2l0.2-.6a1.88,1.88,0,0,0,.8.2,1.1,1.1,0,0,0,1-.9l-2.2-4.9h0.8l1.8,4.1Z" transform="translate(1964.6 -2840.1)"/></g><g class="cls-10"><path class="cls-3" d="M-1881.9,3052l-0.9-.8a3.77,3.77,0,0,1-2.1.7,3.37,3.37,0,0,1-3.4-3.4h0a3.37,3.37,0,0,1,3.4-3.4,3.37,3.37,0,0,1,3.4,3.4h0a3.49,3.49,0,0,1-.8,2.2l0.9,0.7Zm-1.4-1.3-1.2-1.1,0.5-.6,1.2,1.1a2.72,2.72,0,0,0,.6-1.7h0a2.61,2.61,0,0,0-2.6-2.7,2.61,2.61,0,0,0-2.6,2.7h0a2.61,2.61,0,0,0,2.6,2.7A2.15,2.15,0,0,0-1883.3,3050.7Z" transform="translate(1964.6 -2840.1)"/><path class="cls-3" d="M-1880.1,3049.9v-3.1h0.7v2.9a1.34,1.34,0,0,0,1.4,1.5,1.47,1.47,0,0,0,1.5-1.5v-2.8h0.7v4.9h-0.7v-0.9a1.89,1.89,0,0,1-1.7,1A1.81,1.81,0,0,1-1880.1,3049.9Z" transform="translate(1964.6 -2840.1)"/><path class="cls-3" d="M-1874.6,3050.3h0c0-1.1.9-1.6,2.1-1.6a6.06,6.06,0,0,1,1.5.2v-0.2a1.23,1.23,0,0,0-1.5-1.3,3.71,3.71,0,0,0-1.5.4l-0.2-.6a4.78,4.78,0,0,1,1.8-.4,2.54,2.54,0,0,1,1.6.5,2,2,0,0,1,.5,1.4v3h-0.7V3051a2.2,2.2,0,0,1-1.8.8A1.54,1.54,0,0,1-1874.6,3050.3Zm3.7-.3v-0.5a5.21,5.21,0,0,0-1.4-.2c-0.9,0-1.4.4-1.4,1h0a1.12,1.12,0,0,0,1.2,1A1.54,1.54,0,0,0-1870.9,3050Z" transform="translate(1964.6 -2840.1)"/><path class="cls-3" d="M-1868.6,3044.8h0.7v6.9h-0.7v-6.9Z" transform="translate(1964.6 -2840.1)"/><path class="cls-3" d="M-1866.2,3045h0.8v0.8h-0.8V3045Zm0.1,1.9h0.7v4.9h-0.7v-4.9Z" transform="translate(1964.6 -2840.1)"/><path class="cls-3" d="M-1863.4,3050.5v-3h-0.7v-0.6h0.7v-1.5h0.7v1.5h1.6v0.6h-1.6v2.9a0.69,0.69,0,0,0,.8.8,1,1,0,0,0,.7-0.2v0.6a2.39,2.39,0,0,1-.9.2A1.12,1.12,0,0,1-1863.4,3050.5Z" transform="translate(1964.6 -2840.1)"/><path class="cls-3" d="M-1856.2,3046.9h0.8l-2.1,5.1a1.73,1.73,0,0,1-1.6,1.4,3,3,0,0,1-1-.2l0.2-.6a1.88,1.88,0,0,0,.8.2,1.1,1.1,0,0,0,1-.9l-2.2-4.9h0.8l1.8,4.1Z" transform="translate(1964.6 -2840.1)"/></g><g class="cls-10"><path class="cls-3" d="M-1888.1,3065.7h2.5c1.5,0,2.5.8,2.5,2.1h0a2.33,2.33,0,0,1-2.6,2.2h-1.6v2.3h-0.8v-6.6Zm2.4,3.6a1.57,1.57,0,0,0,1.8-1.5h0c0-1-.7-1.4-1.8-1.4h-1.7v2.9h1.7Z" transform="translate(1964.6 -2840.1)"/><path class="cls-3" d="M-1881.9,3070.5v-3.1h0.7v2.9a1.34,1.34,0,0,0,1.4,1.5,1.47,1.47,0,0,0,1.5-1.5v-2.8h0.7v4.9h-0.7v-0.9a1.89,1.89,0,0,1-1.7,1A1.81,1.81,0,0,1-1881.9,3070.5Z" transform="translate(1964.6 -2840.1)"/><path class="cls-3" d="M-1875.3,3071.4v0.9h-0.7v-6.9h0.7v3a2.23,2.23,0,0,1,1.9-1.1,2.32,2.32,0,0,1,2.3,2.5h0a2.47,2.47,0,0,1-2.3,2.6A2.15,2.15,0,0,1-1875.3,3071.4Zm3.5-1.5h0a1.74,1.74,0,0,0-1.7-1.9,1.88,1.88,0,0,0-1.8,1.9h0a1.88,1.88,0,0,0,1.8,1.9A1.74,1.74,0,0,0-1871.8,3069.9Z" transform="translate(1964.6 -2840.1)"/><path class="cls-3" d="M-1869.6,3065.4h0.7v6.9h-0.7v-6.9Z" transform="translate(1964.6 -2840.1)"/><path class="cls-3" d="M-1867.2,3065.5h0.8v0.8h-0.8v-0.8Zm0.1,1.9h0.7v4.9h-0.7v-4.9Z" transform="translate(1964.6 -2840.1)"/><path class="cls-3" d="M-1865.1,3071.7l0.4-.5a2.72,2.72,0,0,0,1.7.6,0.85,0.85,0,0,0,1-.8h0c0-.5-0.6-0.7-1.2-0.9-0.8-.2-1.6-0.5-1.6-1.4h0a1.52,1.52,0,0,1,1.7-1.4,3.74,3.74,0,0,1,1.8.5l-0.3.6a3,3,0,0,0-1.5-.5,0.85,0.85,0,0,0-1,.7h0c0,0.5.6,0.6,1.3,0.8s1.6,0.5,1.6,1.4h0a1.59,1.59,0,0,1-1.7,1.5A2.65,2.65,0,0,1-1865.1,3071.7Z" transform="translate(1964.6 -2840.1)"/><path class="cls-3" d="M-1860,3065.4h0.7v2.9a1.89,1.89,0,0,1,1.7-1,1.81,1.81,0,0,1,1.9,2v3.1h-0.7v-2.9a1.34,1.34,0,0,0-1.4-1.5,1.47,1.47,0,0,0-1.5,1.5v2.8h-0.7v-6.9Z" transform="translate(1964.6 -2840.1)"/></g><g class="cls-7"><rect class="cls-14" x="124.4" y="72.7" width="87.2" height="42.4"/><g class="cls-10"><path class="cls-3" d="M-1825.1,2930.5h0.6l2.8,6.2h-0.7l-0.7-1.6h-3.3l-0.7,1.6h-0.7Zm1.7,3.9-1.4-3.1-1.4,3.1h2.8Z" transform="translate(1964.6 -2840.1)"/><path class="cls-3" d="M-1821.1,2933.6h0a3.08,3.08,0,0,1,3.1-3.2,3.15,3.15,0,0,1,2.4,1l-0.5.5a2.56,2.56,0,0,0-1.9-.8,2.39,2.39,0,0,0-2.4,2.5h0a2.39,2.39,0,0,0,2.4,2.5,2.67,2.67,0,0,0,2-.9l0.5,0.4a3.27,3.27,0,0,1-2.5,1.1A3.05,3.05,0,0,1-1821.1,2933.6Z" transform="translate(1964.6 -2840.1)"/><path class="cls-3" d="M-1814.8,2933.6h0a3.08,3.08,0,0,1,3.1-3.2,3.15,3.15,0,0,1,2.4,1l-0.5.5a2.56,2.56,0,0,0-1.9-.8,2.39,2.39,0,0,0-2.4,2.5h0a2.39,2.39,0,0,0,2.4,2.5,2.67,2.67,0,0,0,2-.9l0.5,0.4a3.27,3.27,0,0,1-2.5,1.1A3.05,3.05,0,0,1-1814.8,2933.6Z" transform="translate(1964.6 -2840.1)"/><path class="cls-3" d="M-1808.1,2930.5h4.4v0.6h-3.7v2.1h3.3v0.6h-3.3v2.1h3.8v0.6h-4.5v-6h0Z" transform="translate(1964.6 -2840.1)"/><path class="cls-3" d="M-1802.2,2930.5h2.3c1.4,0,2.3.7,2.3,1.9h0a2.12,2.12,0,0,1-2.4,2h-1.5v2.2h-0.7v-6.1h0Zm2.2,3.3a1.45,1.45,0,0,0,1.7-1.3h0a1.35,1.35,0,0,0-1.6-1.3h-1.5v2.7h1.4v-0.1Z" transform="translate(1964.6 -2840.1)"/><path class="cls-3" d="M-1794.8,2931.1h-2.1v-0.6h4.8v0.6h-2.1v5.5h-0.7v-5.5h0.1Z" transform="translate(1964.6 -2840.1)"/><path class="cls-3" d="M-1789.2,2930.5h0.6l2.8,6.2h-0.7l-0.7-1.6h-3.3l-0.7,1.6h-0.7Zm1.7,3.9-1.4-3.1-1.4,3.1h2.8Z" transform="translate(1964.6 -2840.1)"/><path class="cls-3" d="M-1784.6,2930.5h0.6l3.9,4.9v-4.9h0.7v6.1h-0.6l-4-5v5h-0.7v-6.1h0.1Z" transform="translate(1964.6 -2840.1)"/><path class="cls-3" d="M-1777.9,2933.6h0a3.08,3.08,0,0,1,3.1-3.2,3.15,3.15,0,0,1,2.4,1l-0.5.5a2.56,2.56,0,0,0-1.9-.8,2.39,2.39,0,0,0-2.4,2.5h0a2.39,2.39,0,0,0,2.4,2.5,2.67,2.67,0,0,0,2-.9l0.5,0.4a3.27,3.27,0,0,1-2.5,1.1A3.05,3.05,0,0,1-1777.9,2933.6Z" transform="translate(1964.6 -2840.1)"/><path class="cls-3" d="M-1771.2,2930.5h4.4v0.6h-3.7v2.1h3.3v0.6h-3.3v2.1h3.8v0.6h-4.5v-6h0Z" transform="translate(1964.6 -2840.1)"/></g><rect class="cls-15" x="124.4" y="118.5" width="87.2" height="17.1"/><rect class="cls-15" x="124.4" y="139.1" width="87.2" height="17.1"/><rect class="cls-15" x="124.4" y="159.7" width="87.2" height="17.1"/><rect class="cls-15" x="124.4" y="180.2" width="87.2" height="17.1"/><g class="cls-10"><path class="cls-3" d="M-1817.5,2962.8h2.5c1.5,0,2.5.8,2.5,2.1h0a2.33,2.33,0,0,1-2.6,2.2h-1.6v2.3h-0.8v-6.6Zm2.4,3.6a1.57,1.57,0,0,0,1.8-1.5h0c0-1-.7-1.4-1.8-1.4h-1.7v2.9h1.7Z" transform="translate(1964.6 -2840.1)"/><path class="cls-3" d="M-1811.2,2964.5h0.7v1.3a2.28,2.28,0,0,1,2-1.4v0.8h-0.1c-1.1,0-1.9.8-1.9,2.3v2h-0.7v-5Z" transform="translate(1964.6 -2840.1)"/><path class="cls-3" d="M-1807.9,2967h0a2.58,2.58,0,0,1,2.6-2.6,2.56,2.56,0,0,1,2.6,2.5h0a2.58,2.58,0,0,1-2.6,2.6A2.44,2.44,0,0,1-1807.9,2967Zm4.4,0h0a1.82,1.82,0,0,0-1.8-1.9,1.81,1.81,0,0,0-1.8,1.9h0a1.82,1.82,0,0,0,1.8,1.9A1.82,1.82,0,0,0-1803.5,2967Z" transform="translate(1964.6 -2840.1)"/><path class="cls-3" d="M-1802.2,2964.5h0.8l1.7,4.1,1.7-4.1h0.8l-2.1,5h-0.6Z" transform="translate(1964.6 -2840.1)"/><path class="cls-3" d="M-1796.1,2962.7h0.8v0.8h-0.8v-0.8Zm0,1.8h0.7v4.9h-0.7v-4.9Z" transform="translate(1964.6 -2840.1)"/><path class="cls-3" d="M-1794.1,2968.8l0.4-.5a2.72,2.72,0,0,0,1.7.6,0.85,0.85,0,0,0,1-.8h0c0-.5-0.6-0.7-1.2-0.9-0.8-.2-1.6-0.5-1.6-1.4h0a1.52,1.52,0,0,1,1.7-1.4,3.74,3.74,0,0,1,1.8.5l-0.3.6a3,3,0,0,0-1.5-.5,0.85,0.85,0,0,0-1,.7h0c0,0.5.6,0.6,1.3,0.8s1.6,0.5,1.6,1.4h0a1.59,1.59,0,0,1-1.7,1.5A2.52,2.52,0,0,1-1794.1,2968.8Z" transform="translate(1964.6 -2840.1)"/><path class="cls-3" d="M-1788.9,2962.7h0.8v0.8h-0.8v-0.8Zm0,1.8h0.7v4.9h-0.7v-4.9Z" transform="translate(1964.6 -2840.1)"/><path class="cls-3" d="M-1786.7,2967h0a2.58,2.58,0,0,1,2.6-2.6,2.56,2.56,0,0,1,2.6,2.5h0a2.58,2.58,0,0,1-2.6,2.6A2.39,2.39,0,0,1-1786.7,2967Zm4.3,0h0a1.82,1.82,0,0,0-1.8-1.9,1.81,1.81,0,0,0-1.8,1.9h0a1.82,1.82,0,0,0,1.8,1.9A1.76,1.76,0,0,0-1782.4,2967Z" transform="translate(1964.6 -2840.1)"/><path class="cls-3" d="M-1780.3,2964.5h0.7v0.9a1.89,1.89,0,0,1,1.7-1,1.81,1.81,0,0,1,1.9,2v3.1h-0.7v-2.9a1.34,1.34,0,0,0-1.4-1.5,1.47,1.47,0,0,0-1.5,1.5v2.8h-0.7v-4.9Z" transform="translate(1964.6 -2840.1)"/></g><g class="cls-10"><path class="cls-3" d="M-1812.4,2983.4h2.3a3.26,3.26,0,0,1,3.5,3.3h0a3.26,3.26,0,0,1-3.5,3.3h-2.3v-6.6Zm0.7,0.7v5.3h1.6a2.58,2.58,0,0,0,2.8-2.6h0a2.58,2.58,0,0,0-2.8-2.6h-1.6v-0.1Z" transform="translate(1964.6 -2840.1)"/><path class="cls-3" d="M-1805.4,2987.6h0a2.48,2.48,0,0,1,2.4-2.6,2.34,2.34,0,0,1,2.3,2.6v0.2h-3.9a1.74,1.74,0,0,0,1.7,1.7,1.81,1.81,0,0,0,1.5-.7l0.5,0.4a2.38,2.38,0,0,1-2,.9A2.36,2.36,0,0,1-1805.4,2987.6Zm3.9-.3a1.67,1.67,0,0,0-1.6-1.7,1.67,1.67,0,0,0-1.6,1.7h3.2Z" transform="translate(1964.6 -2840.1)"/><path class="cls-3" d="M-1799.5,2985.1h0.7v1a2.23,2.23,0,0,1,1.9-1.1,2.32,2.32,0,0,1,2.3,2.5h0a2.47,2.47,0,0,1-2.3,2.6,2.39,2.39,0,0,1-1.9-1v2.5h-0.7v-6.5Zm4.2,2.5h0a1.74,1.74,0,0,0-1.7-1.9,1.88,1.88,0,0,0-1.8,1.9h0a1.88,1.88,0,0,0,1.8,1.9A1.74,1.74,0,0,0-1795.3,2987.6Z" transform="translate(1964.6 -2840.1)"/><path class="cls-3" d="M-1793.1,2983.1h0.7v6.9h-0.7v-6.9Z" transform="translate(1964.6 -2840.1)"/><path class="cls-3" d="M-1791,2987.6h0a2.58,2.58,0,0,1,2.6-2.6,2.56,2.56,0,0,1,2.6,2.5h0a2.58,2.58,0,0,1-2.6,2.6A2.44,2.44,0,0,1-1791,2987.6Zm4.4,0h0a1.82,1.82,0,0,0-1.8-1.9,1.81,1.81,0,0,0-1.8,1.9h0a1.82,1.82,0,0,0,1.8,1.9A1.88,1.88,0,0,0-1786.6,2987.6Z" transform="translate(1964.6 -2840.1)"/><path class="cls-3" d="M-1781.2,2985.1h0.8l-2.1,5.1a1.73,1.73,0,0,1-1.6,1.4,3,3,0,0,1-1-.2l0.2-.6a1.88,1.88,0,0,0,.8.2,1.1,1.1,0,0,0,1-.9l-2.2-4.9h0.8l1.8,4.1Z" transform="translate(1964.6 -2840.1)"/></g><g class="cls-10"><path class="cls-3" d="M-1812.2,3009.6l0.5-.6a3.34,3.34,0,0,0,2.3.9,1.31,1.31,0,0,0,1.5-1.1h0c0-.6-0.3-1-1.7-1.3s-2.2-.8-2.2-1.9h0a2,2,0,0,1,2.2-1.8,3.37,3.37,0,0,1,2.3.8l-0.4.6a2.81,2.81,0,0,0-1.9-.7,1.21,1.21,0,0,0-1.4,1.1h0c0,0.6.3,1,1.8,1.3s2.2,0.9,2.2,1.9h0a2.08,2.08,0,0,1-2.3,1.9A3.63,3.63,0,0,1-1812.2,3009.6Z" transform="translate(1964.6 -2840.1)"/><path class="cls-3" d="M-1805.8,3005.7h0.7v0.8a1.77,1.77,0,0,1,1.6-.9,1.68,1.68,0,0,1,1.6,1,2.16,2.16,0,0,1,1.7-1,1.79,1.79,0,0,1,1.8,2v3h-0.7v-2.9a1.27,1.27,0,0,0-1.3-1.5,1.38,1.38,0,0,0-1.3,1.5v2.8h-0.7v-2.9a1.32,1.32,0,0,0-1.3-1.5,1.39,1.39,0,0,0-1.4,1.5v2.8h-0.7v-4.7h0Z" transform="translate(1964.6 -2840.1)"/><path class="cls-3" d="M-1797.1,3008.2h0a2.58,2.58,0,0,1,2.6-2.6,2.56,2.56,0,0,1,2.6,2.5h0a2.58,2.58,0,0,1-2.6,2.6A2.5,2.5,0,0,1-1797.1,3008.2Zm4.4,0h0a1.82,1.82,0,0,0-1.8-1.9,1.81,1.81,0,0,0-1.8,1.9h0a1.82,1.82,0,0,0,1.8,1.9A1.88,1.88,0,0,0-1792.7,3008.2Z" transform="translate(1964.6 -2840.1)"/><path class="cls-3" d="M-1790.6,3003.7h0.7v4.8l2.7-2.8h0.9l-2.1,2.1,2.1,2.8h-0.9l-1.8-2.3-1,1v1.3h-0.7v-6.9h0.1Z" transform="translate(1964.6 -2840.1)"/><path class="cls-3" d="M-1785.8,3008.2h0a2.48,2.48,0,0,1,2.4-2.6,2.34,2.34,0,0,1,2.3,2.6v0.2h-3.9a1.74,1.74,0,0,0,1.7,1.7,1.81,1.81,0,0,0,1.5-.7l0.5,0.4a2.38,2.38,0,0,1-2,.9A2.42,2.42,0,0,1-1785.8,3008.2Zm3.9-.3a1.67,1.67,0,0,0-1.6-1.7,1.67,1.67,0,0,0-1.6,1.7h3.2Z" transform="translate(1964.6 -2840.1)"/></g><g class="cls-10"><path class="cls-3" d="M-1820.5,3024.5h4.8v0.7h-4v2.4h3.6v0.7h-3.6v2.9h-0.8v-6.7Z" transform="translate(1964.6 -2840.1)"/><path class="cls-3" d="M-1814.4,3029.3v-3.1h0.7v2.9a1.34,1.34,0,0,0,1.4,1.5,1.47,1.47,0,0,0,1.5-1.5v-2.8h0.7v4.9h-0.7v-0.9a1.89,1.89,0,0,1-1.7,1A1.77,1.77,0,0,1-1814.4,3029.3Z" transform="translate(1964.6 -2840.1)"/><path class="cls-3" d="M-1808.5,3026.3h0.7v0.9a1.89,1.89,0,0,1,1.7-1,1.81,1.81,0,0,1,1.9,2v3.1h-0.7v-2.9a1.34,1.34,0,0,0-1.4-1.5,1.47,1.47,0,0,0-1.5,1.5v2.8h-0.7v-4.9Z" transform="translate(1964.6 -2840.1)"/><path class="cls-3" d="M-1803,3028.8h0a2.56,2.56,0,0,1,2.5-2.6,2.69,2.69,0,0,1,2,.9l-0.5.5a2,2,0,0,0-1.5-.7,1.82,1.82,0,0,0-1.8,1.9h0a1.82,1.82,0,0,0,1.8,1.9,2.13,2.13,0,0,0,1.5-.7l0.5,0.4a2.46,2.46,0,0,1-2,1A2.7,2.7,0,0,1-1803,3028.8Z" transform="translate(1964.6 -2840.1)"/><path class="cls-3" d="M-1797,3029.9v-3h-0.7v-0.6h0.7v-1.5h0.7v1.5h1.6v0.6h-1.6v2.9a0.69,0.69,0,0,0,.8.8,1,1,0,0,0,.7-0.2v0.6a2.39,2.39,0,0,1-.9.2A1.12,1.12,0,0,1-1797,3029.9Z" transform="translate(1964.6 -2840.1)"/><path class="cls-3" d="M-1793.4,3024.4h0.8v0.8h-0.8v-0.8Zm0.1,1.9h0.7v4.9h-0.7v-4.9Z" transform="translate(1964.6 -2840.1)"/><path class="cls-3" d="M-1791.2,3028.8h0a2.58,2.58,0,0,1,2.6-2.6,2.56,2.56,0,0,1,2.6,2.5h0a2.58,2.58,0,0,1-2.6,2.6A2.56,2.56,0,0,1-1791.2,3028.8Zm4.4,0h0a1.82,1.82,0,0,0-1.8-1.9,1.81,1.81,0,0,0-1.8,1.9h0a1.82,1.82,0,0,0,1.8,1.9A2,2,0,0,0-1786.8,3028.8Z" transform="translate(1964.6 -2840.1)"/><path class="cls-3" d="M-1784.8,3026.3h0.7v0.9a1.89,1.89,0,0,1,1.7-1,1.81,1.81,0,0,1,1.9,2v3.1h-0.7v-2.9a1.34,1.34,0,0,0-1.4-1.5,1.47,1.47,0,0,0-1.5,1.5v2.8h-0.7v-4.9Z" transform="translate(1964.6 -2840.1)"/><path class="cls-3" d="M-1779.3,3029.8h0c0-1.1.9-1.6,2.1-1.6a6.06,6.06,0,0,1,1.5.2v-0.2a1.23,1.23,0,0,0-1.5-1.3,3.71,3.71,0,0,0-1.5.4l-0.2-.6a4.78,4.78,0,0,1,1.8-.4,2.54,2.54,0,0,1,1.6.5,2,2,0,0,1,.5,1.4v3h-0.7v-0.7a2.2,2.2,0,0,1-1.8.8A1.61,1.61,0,0,1-1779.3,3029.8Zm3.6-.4v-0.5a5.21,5.21,0,0,0-1.4-.2c-0.9,0-1.4.4-1.4,1h0a1.12,1.12,0,0,0,1.2,1A1.41,1.41,0,0,0-1775.7,3029.4Z" transform="translate(1964.6 -2840.1)"/><path class="cls-3" d="M-1773.3,3024.3h0.7v6.9h-0.7v-6.9Z" transform="translate(1964.6 -2840.1)"/></g></g><circle class="cls-4" cx="235.5" cy="24.7" r="24.7"/><line class="cls-5" x1="235.5" y1="39.4" x2="235.5" y2="65.8"/><g class="cls-7"><polygon class="cls-9" points="232.4 64.9 235.5 70.3 238.6 64.9 232.4 64.9"/></g><g class="cls-2"><path class="cls-3" d="M-1743.5,2856.1h2.1a3.09,3.09,0,0,1,3.3,3h0a3.1,3.1,0,0,1-3.3,3.1h-2.1v-6.1Zm0.7,0.6v4.9h1.4a2.34,2.34,0,0,0,2.5-2.4h0a2.34,2.34,0,0,0-2.5-2.4h-1.4v-0.1Z" transform="translate(1964.6 -2840.1)"/><path class="cls-3" d="M-1737.1,2860h0a2.27,2.27,0,0,1,2.2-2.4,2.19,2.19,0,0,1,2.1,2.4v0.2h-3.6a1.55,1.55,0,0,0,1.6,1.5,2,2,0,0,0,1.4-.6l0.4,0.4a2.41,2.41,0,0,1-1.9.8A2.18,2.18,0,0,1-1737.1,2860Zm3.6-.3a1.45,1.45,0,0,0-1.4-1.5,1.61,1.61,0,0,0-1.5,1.5h2.9Z" transform="translate(1964.6 -2840.1)"/><path class="cls-3" d="M-1731.5,2855.8h0.7v6.4h-0.7v-6.4Z" transform="translate(1964.6 -2840.1)"/><path class="cls-3" d="M-1729.3,2856h0.8v0.7h-0.8V2856Zm0.1,1.7h0.7v4.5h-0.7v-4.5Z" transform="translate(1964.6 -2840.1)"/><path class="cls-3" d="M-1727.4,2857.7h0.7l1.5,3.8,1.5-3.8h0.7l-2,4.6h-0.6Z" transform="translate(1964.6 -2840.1)"/><path class="cls-3" d="M-1722.4,2860h0a2.27,2.27,0,0,1,2.2-2.4,2.19,2.19,0,0,1,2.1,2.4v0.2h-3.6a1.55,1.55,0,0,0,1.6,1.5,2,2,0,0,0,1.4-.6l0.4,0.4a2.41,2.41,0,0,1-1.9.8A2.18,2.18,0,0,1-1722.4,2860Zm3.6-.3a1.45,1.45,0,0,0-1.4-1.5,1.61,1.61,0,0,0-1.5,1.5h2.9Z" transform="translate(1964.6 -2840.1)"/><path class="cls-3" d="M-1716.9,2857.7h0.7v1.2a1.92,1.92,0,0,1,1.8-1.3v0.7h-0.1a1.83,1.83,0,0,0-1.8,2.1v1.8h-0.7v-4.5h0.1Z" transform="translate(1964.6 -2840.1)"/></g><g class="cls-2"><path class="cls-3" d="M-1745.2,2869.7h0a3.08,3.08,0,0,1,3.1-3.2,3.15,3.15,0,0,1,2.4,1l-0.5.5a2.56,2.56,0,0,0-1.9-.8,2.39,2.39,0,0,0-2.4,2.5h0a2.39,2.39,0,0,0,2.4,2.5,2.67,2.67,0,0,0,2-.9l0.5,0.4a3.27,3.27,0,0,1-2.5,1.1A3.05,3.05,0,0,1-1745.2,2869.7Z" transform="translate(1964.6 -2840.1)"/><path class="cls-3" d="M-1738.6,2866.3h0.7v2.7a1.77,1.77,0,0,1,1.6-.9,1.61,1.61,0,0,1,1.7,1.8v2.8h-0.7v-2.6a1.29,1.29,0,0,0-1.3-1.4,1.37,1.37,0,0,0-1.4,1.4v2.6h-0.7v-6.4h0.1Z" transform="translate(1964.6 -2840.1)"/><path class="cls-3" d="M-1733.5,2871.4h0c0-1,.8-1.5,1.9-1.5a5.22,5.22,0,0,1,1.4.2v-0.2a1.13,1.13,0,0,0-1.3-1.2,3.19,3.19,0,0,0-1.4.3l-0.2-.6a4.19,4.19,0,0,1,1.6-.4,2.46,2.46,0,0,1,1.5.5,1.73,1.73,0,0,1,.5,1.3v2.8h-0.6v-0.7a1.92,1.92,0,0,1-1.6.8A1.43,1.43,0,0,1-1733.5,2871.4Zm3.3-.3v-0.4a4.44,4.44,0,0,0-1.3-.2,1.1,1.1,0,0,0-1.3.9h0a1,1,0,0,0,1.1.9A1.37,1.37,0,0,0-1730.2,2871.1Z" transform="translate(1964.6 -2840.1)"/><path class="cls-3" d="M-1728.1,2868.2h0.7v0.8a1.72,1.72,0,0,1,1.5-.9,1.61,1.61,0,0,1,1.7,1.8v2.8h-0.7v-2.6a1.29,1.29,0,0,0-1.3-1.4,1.37,1.37,0,0,0-1.4,1.4v2.6h-0.7v-4.5h0.2Z" transform="translate(1964.6 -2840.1)"/><path class="cls-3" d="M-1722.8,2873.5l0.3-.5a2.72,2.72,0,0,0,1.7.6,1.47,1.47,0,0,0,1.6-1.6v-0.5a2.2,2.2,0,0,1-1.8,1,2,2,0,0,1-2.1-2.1h0a2.11,2.11,0,0,1,2.1-2.1,2.27,2.27,0,0,1,1.8.9v-0.8h0.7v3.7a2.11,2.11,0,0,1-.6,1.6,2.35,2.35,0,0,1-1.7.6A7,7,0,0,1-1722.8,2873.5Zm3.7-3.3h0a1.67,1.67,0,0,0-1.7-1.6,1.5,1.5,0,0,0-1.6,1.5h0a1.5,1.5,0,0,0,1.6,1.5A1.36,1.36,0,0,0-1719.1,2870.2Z" transform="translate(1964.6 -2840.1)"/><path class="cls-3" d="M-1717.2,2870.5h0a2.27,2.27,0,0,1,2.2-2.4,2.19,2.19,0,0,1,2.1,2.4v0.2h-3.6a1.55,1.55,0,0,0,1.6,1.5,2,2,0,0,0,1.4-.6l0.4,0.4a2.41,2.41,0,0,1-1.9.8A2.18,2.18,0,0,1-1717.2,2870.5Zm3.6-.3a1.45,1.45,0,0,0-1.4-1.5,1.61,1.61,0,0,0-1.5,1.5h2.9Z" transform="translate(1964.6 -2840.1)"/></g><g class="cls-7"><rect class="cls-14" x="218.8" y="72.7" width="53.4" height="42.4"/><g class="cls-10"><path class="cls-3" d="M-1733.6,2934.1v-3.6h0.7v3.5a1.85,1.85,0,0,0,1.9,2.1,1.74,1.74,0,0,0,1.8-2v-3.6h0.7v3.5a2.4,2.4,0,0,1-2.6,2.7A2.34,2.34,0,0,1-1733.6,2934.1Z" transform="translate(1964.6 -2840.1)"/><path class="cls-3" d="M-1726.9,2930.5h0.6l3.9,4.9v-4.9h0.7v6.1h-0.6l-4-5v5h-0.7v-6.1h0.1Z" transform="translate(1964.6 -2840.1)"/><path class="cls-3" d="M-1719.9,2930.5h0.7v6.1h-0.7v-6.1Z" transform="translate(1964.6 -2840.1)"/><path class="cls-3" d="M-1717.7,2933.6h0a3.14,3.14,0,0,1,3.1-3.2,3.14,3.14,0,0,1,3.1,3.2h0a3.14,3.14,0,0,1-3.1,3.2A3.14,3.14,0,0,1-1717.7,2933.6Zm5.6,0h0a2.39,2.39,0,0,0-2.4-2.5,2.39,2.39,0,0,0-2.4,2.5h0a2.39,2.39,0,0,0,2.4,2.5A2.39,2.39,0,0,0-1712.1,2933.6Z" transform="translate(1964.6 -2840.1)"/><path class="cls-3" d="M-1709.9,2930.5h0.6l3.9,4.9v-4.9h0.7v6.1h-0.6l-4-5v5h-0.7v-6.1h0.1Z" transform="translate(1964.6 -2840.1)"/></g><rect class="cls-15" x="218.8" y="118.5" width="53.4" height="17.1"/><rect class="cls-15" x="218.8" y="139.1" width="53.4" height="17.1"/><rect class="cls-15" x="218.8" y="159.7" width="53.4" height="17.1"/><rect class="cls-15" x="218.8" y="180.2" width="53.4" height="17.1"/><g class="cls-10"><path class="cls-3" d="M-1740,2962.8h2.5c1.5,0,2.5.8,2.5,2.1h0a2.33,2.33,0,0,1-2.6,2.2h-1.6v2.3h-0.8v-6.6Zm2.4,3.6a1.57,1.57,0,0,0,1.8-1.5h0c0-1-.7-1.4-1.8-1.4h-1.7v2.9h1.7Z" transform="translate(1964.6 -2840.1)"/><path class="cls-3" d="M-1733.8,2964.5h0.7v1.3a2.28,2.28,0,0,1,2-1.4v0.8h-0.1c-1.1,0-1.9.8-1.9,2.3v2h-0.7v-5Z" transform="translate(1964.6 -2840.1)"/><path class="cls-3" d="M-1730.4,2967h0a2.58,2.58,0,0,1,2.6-2.6,2.56,2.56,0,0,1,2.6,2.5h0a2.58,2.58,0,0,1-2.6,2.6A2.39,2.39,0,0,1-1730.4,2967Zm4.3,0h0a1.82,1.82,0,0,0-1.8-1.9,1.81,1.81,0,0,0-1.8,1.9h0a1.82,1.82,0,0,0,1.8,1.9A1.76,1.76,0,0,0-1726.1,2967Z" transform="translate(1964.6 -2840.1)"/><path class="cls-3" d="M-1724.8,2964.5h0.8l1.7,4.1,1.7-4.1h0.8l-2.1,5h-0.6Z" transform="translate(1964.6 -2840.1)"/><path class="cls-3" d="M-1718.7,2962.7h0.8v0.8h-0.8v-0.8Zm0.1,1.8h0.7v4.9h-0.7v-4.9Z" transform="translate(1964.6 -2840.1)"/><path class="cls-3" d="M-1716.6,2968.8l0.4-.5a2.72,2.72,0,0,0,1.7.6,0.85,0.85,0,0,0,1-.8h0c0-.5-0.6-0.7-1.2-0.9-0.8-.2-1.6-0.5-1.6-1.4h0a1.52,1.52,0,0,1,1.7-1.4,3.74,3.74,0,0,1,1.8.5l-0.3.6a3,3,0,0,0-1.5-.5,0.85,0.85,0,0,0-1,.7h0c0,0.5.6,0.6,1.3,0.8s1.6,0.5,1.6,1.4h0a1.62,1.62,0,0,1-1.8,1.5A2.25,2.25,0,0,1-1716.6,2968.8Z" transform="translate(1964.6 -2840.1)"/><path class="cls-3" d="M-1711.5,2962.7h0.8v0.8h-0.8v-0.8Zm0.1,1.8h0.7v4.9h-0.7v-4.9Z" transform="translate(1964.6 -2840.1)"/><path class="cls-3" d="M-1709.3,2967h0a2.58,2.58,0,0,1,2.6-2.6,2.56,2.56,0,0,1,2.6,2.5h0a2.58,2.58,0,0,1-2.6,2.6A2.44,2.44,0,0,1-1709.3,2967Zm4.4,0h0a1.82,1.82,0,0,0-1.8-1.9,1.81,1.81,0,0,0-1.8,1.9h0a1.82,1.82,0,0,0,1.8,1.9A1.82,1.82,0,0,0-1704.9,2967Z" transform="translate(1964.6 -2840.1)"/><path class="cls-3" d="M-1702.8,2964.5h0.7v0.9a1.89,1.89,0,0,1,1.7-1,1.81,1.81,0,0,1,1.9,2v3.1h-0.7v-2.9a1.34,1.34,0,0,0-1.4-1.5,1.47,1.47,0,0,0-1.5,1.5v2.8h-0.7v-4.9Z" transform="translate(1964.6 -2840.1)"/></g><g class="cls-10"><path class="cls-3" d="M-1735,2983.4h2.3a3.26,3.26,0,0,1,3.5,3.3h0a3.26,3.26,0,0,1-3.5,3.3h-2.3v-6.6Zm0.7,0.7v5.3h1.6a2.58,2.58,0,0,0,2.8-2.6h0a2.58,2.58,0,0,0-2.8-2.6h-1.6v-0.1Z" transform="translate(1964.6 -2840.1)"/><path class="cls-3" d="M-1728,2987.6h0a2.48,2.48,0,0,1,2.4-2.6,2.34,2.34,0,0,1,2.3,2.6v0.2h-3.9a1.74,1.74,0,0,0,1.7,1.7,1.81,1.81,0,0,0,1.5-.7l0.5,0.4a2.38,2.38,0,0,1-2,.9A2.36,2.36,0,0,1-1728,2987.6Zm3.9-.3a1.67,1.67,0,0,0-1.6-1.7,1.67,1.67,0,0,0-1.6,1.7h3.2Z" transform="translate(1964.6 -2840.1)"/><path class="cls-3" d="M-1722.1,2985.1h0.7v1a2.23,2.23,0,0,1,1.9-1.1,2.32,2.32,0,0,1,2.3,2.5h0a2.47,2.47,0,0,1-2.3,2.6,2.39,2.39,0,0,1-1.9-1v2.5h-0.7v-6.5Zm4.2,2.5h0a1.74,1.74,0,0,0-1.7-1.9,1.88,1.88,0,0,0-1.8,1.9h0a1.88,1.88,0,0,0,1.8,1.9A1.69,1.69,0,0,0-1717.9,2987.6Z" transform="translate(1964.6 -2840.1)"/><path class="cls-3" d="M-1715.7,2983.1h0.7v6.9h-0.7v-6.9Z" transform="translate(1964.6 -2840.1)"/><path class="cls-3" d="M-1713.6,2987.6h0a2.58,2.58,0,0,1,2.6-2.6,2.56,2.56,0,0,1,2.6,2.5h0a2.58,2.58,0,0,1-2.6,2.6A2.44,2.44,0,0,1-1713.6,2987.6Zm4.4,0h0a1.82,1.82,0,0,0-1.8-1.9,1.81,1.81,0,0,0-1.8,1.9h0a1.82,1.82,0,0,0,1.8,1.9A1.81,1.81,0,0,0-1709.2,2987.6Z" transform="translate(1964.6 -2840.1)"/><path class="cls-3" d="M-1703.7,2985.1h0.8l-2.1,5.1a1.73,1.73,0,0,1-1.6,1.4,3,3,0,0,1-1-.2l0.2-.6a1.88,1.88,0,0,0,.8.2,1.1,1.1,0,0,0,1-.9l-2.2-4.9h0.8l1.8,4.1Z" transform="translate(1964.6 -2840.1)"/></g><g class="cls-10"><path class="cls-3" d="M-1734.8,3009.6l0.5-.6a3.34,3.34,0,0,0,2.3.9,1.31,1.31,0,0,0,1.5-1.1h0c0-.6-0.3-1-1.7-1.3s-2.2-.8-2.2-1.9h0a2,2,0,0,1,2.2-1.8,3.37,3.37,0,0,1,2.3.8l-0.4.6a2.81,2.81,0,0,0-1.9-.7,1.21,1.21,0,0,0-1.4,1.1h0c0,0.6.3,1,1.8,1.3s2.2,0.9,2.2,1.9h0a2.08,2.08,0,0,1-2.3,1.9A3.77,3.77,0,0,1-1734.8,3009.6Z" transform="translate(1964.6 -2840.1)"/><path class="cls-3" d="M-1728.4,3005.7h0.7v0.8a1.77,1.77,0,0,1,1.6-.9,1.68,1.68,0,0,1,1.6,1,2.16,2.16,0,0,1,1.7-1,1.79,1.79,0,0,1,1.8,2v3h-0.7v-2.9a1.27,1.27,0,0,0-1.3-1.5,1.38,1.38,0,0,0-1.3,1.5v2.8h-0.7v-2.9a1.32,1.32,0,0,0-1.3-1.5,1.39,1.39,0,0,0-1.4,1.5v2.8h-0.7v-4.7h0Z" transform="translate(1964.6 -2840.1)"/><path class="cls-3" d="M-1719.6,3008.2h0a2.58,2.58,0,0,1,2.6-2.6,2.56,2.56,0,0,1,2.6,2.5h0a2.58,2.58,0,0,1-2.6,2.6A2.44,2.44,0,0,1-1719.6,3008.2Zm4.3,0h0a1.82,1.82,0,0,0-1.8-1.9,1.81,1.81,0,0,0-1.8,1.9h0a1.82,1.82,0,0,0,1.8,1.9A1.81,1.81,0,0,0-1715.3,3008.2Z" transform="translate(1964.6 -2840.1)"/><path class="cls-3" d="M-1713.2,3003.7h0.7v4.8l2.7-2.8h0.9l-2.1,2.1,2.1,2.8h-0.9l-1.8-2.3-1,1v1.3h-0.7v-6.9h0.1Z" transform="translate(1964.6 -2840.1)"/><path class="cls-3" d="M-1708.3,3008.2h0a2.48,2.48,0,0,1,2.4-2.6,2.34,2.34,0,0,1,2.3,2.6v0.2h-3.9a1.74,1.74,0,0,0,1.7,1.7,1.81,1.81,0,0,0,1.5-.7l0.5,0.4a2.38,2.38,0,0,1-2,.9A2.42,2.42,0,0,1-1708.3,3008.2Zm3.9-.3a1.67,1.67,0,0,0-1.6-1.7,1.67,1.67,0,0,0-1.6,1.7h3.2Z" transform="translate(1964.6 -2840.1)"/></g><g class="cls-10"><path class="cls-3" d="M-1743,3024.5h4.8v0.7h-4v2.4h3.6v0.7h-3.6v2.9h-0.8v-6.7Z" transform="translate(1964.6 -2840.1)"/><path class="cls-3" d="M-1737,3029.3v-3.1h0.7v2.9a1.34,1.34,0,0,0,1.4,1.5,1.47,1.47,0,0,0,1.5-1.5v-2.8h0.7v4.9h-0.7v-0.9a1.89,1.89,0,0,1-1.7,1A1.81,1.81,0,0,1-1737,3029.3Z" transform="translate(1964.6 -2840.1)"/><path class="cls-3" d="M-1731.1,3026.3h0.7v0.9a1.89,1.89,0,0,1,1.7-1,1.81,1.81,0,0,1,1.9,2v3.1h-0.7v-2.9a1.34,1.34,0,0,0-1.4-1.5,1.47,1.47,0,0,0-1.5,1.5v2.8h-0.7v-4.9Z" transform="translate(1964.6 -2840.1)"/><path class="cls-3" d="M-1725.5,3028.8h0a2.56,2.56,0,0,1,2.5-2.6,2.69,2.69,0,0,1,2,.9l-0.5.5a2,2,0,0,0-1.5-.7,1.82,1.82,0,0,0-1.8,1.9h0a1.82,1.82,0,0,0,1.8,1.9,2.13,2.13,0,0,0,1.5-.7l0.5,0.4a2.46,2.46,0,0,1-2,1A2.7,2.7,0,0,1-1725.5,3028.8Z" transform="translate(1964.6 -2840.1)"/><path class="cls-3" d="M-1719.5,3029.9v-3h-0.7v-0.6h0.7v-1.5h0.7v1.5h1.6v0.6h-1.6v2.9a0.69,0.69,0,0,0,.8.8,1,1,0,0,0,.7-0.2v0.6a2.39,2.39,0,0,1-.9.2A1.12,1.12,0,0,1-1719.5,3029.9Z" transform="translate(1964.6 -2840.1)"/><path class="cls-3" d="M-1715.9,3024.4h0.8v0.8h-0.8v-0.8Zm0,1.9h0.7v4.9h-0.7v-4.9Z" transform="translate(1964.6 -2840.1)"/><path class="cls-3" d="M-1713.8,3028.8h0a2.58,2.58,0,0,1,2.6-2.6,2.56,2.56,0,0,1,2.6,2.5h0a2.58,2.58,0,0,1-2.6,2.6A2.56,2.56,0,0,1-1713.8,3028.8Zm4.4,0h0a1.82,1.82,0,0,0-1.8-1.9,1.81,1.81,0,0,0-1.8,1.9h0a1.82,1.82,0,0,0,1.8,1.9A1.88,1.88,0,0,0-1709.4,3028.8Z" transform="translate(1964.6 -2840.1)"/><path class="cls-3" d="M-1707.3,3026.3h0.7v0.9a1.89,1.89,0,0,1,1.7-1,1.81,1.81,0,0,1,1.9,2v3.1h-0.7v-2.9a1.34,1.34,0,0,0-1.4-1.5,1.47,1.47,0,0,0-1.5,1.5v2.8h-0.7v-4.9Z" transform="translate(1964.6 -2840.1)"/><path class="cls-3" d="M-1701.8,3029.8h0c0-1.1.9-1.6,2.1-1.6a6.06,6.06,0,0,1,1.5.2v-0.2a1.23,1.23,0,0,0-1.5-1.3,3.71,3.71,0,0,0-1.5.4l-0.2-.6a4.78,4.78,0,0,1,1.8-.4,2.54,2.54,0,0,1,1.6.5,2,2,0,0,1,.5,1.4v3h-0.7v-0.7a2.2,2.2,0,0,1-1.8.8A1.61,1.61,0,0,1-1701.8,3029.8Zm3.6-.4v-0.5a5.21,5.21,0,0,0-1.4-.2c-0.9,0-1.4.4-1.4,1h0a1.12,1.12,0,0,0,1.2,1A1.47,1.47,0,0,0-1698.2,3029.4Z" transform="translate(1964.6 -2840.1)"/><path class="cls-3" d="M-1695.9,3024.3h0.7v6.9h-0.7v-6.9Z" transform="translate(1964.6 -2840.1)"/></g></g><g class="cls-7"><rect class="cls-14" x="279.3" y="72.7" width="77.1" height="42.4"/><g class="cls-10"><path class="cls-3" d="M-1673.8,2930.5h2.6a2.06,2.06,0,0,1,1.7.6,1.66,1.66,0,0,1,.5,1.2h0a1.84,1.84,0,0,1-1.7,1.8l1.9,2.5h-0.8l-1.8-2.4h-1.8v2.4h-0.7v-6.1h0.1Zm2.5,3.1a1.41,1.41,0,0,0,1.6-1.3h0c0-.8-0.6-1.2-1.6-1.2h-1.9v2.5h1.9Z" transform="translate(1964.6 -2840.1)"/><path class="cls-3" d="M-1667.5,2930.5h4.4v0.6h-3.7v2.1h3.3v0.6h-3.3v2.1h3.8v0.6h-4.5v-6h0Z" transform="translate(1964.6 -2840.1)"/><path class="cls-3" d="M-1661.7,2930.5h0.7v2.7h3.5v-2.7h0.7v6.1h-0.7v-2.8h-3.5v2.8h-0.7v-6.1Z" transform="translate(1964.6 -2840.1)"/><path class="cls-3" d="M-1655,2930.5h4.4v0.6h-3.7v2.1h3.3v0.6h-3.3v2.1h3.8v0.6h-4.5v-6h0Z" transform="translate(1964.6 -2840.1)"/><path class="cls-3" d="M-1646.9,2930.5h0.6l2.8,6.2h-0.7l-0.7-1.6h-3.3l-0.7,1.6h-0.7Zm1.7,3.9-1.4-3.1-1.4,3.1h2.8Z" transform="translate(1964.6 -2840.1)"/><path class="cls-3" d="M-1642.2,2930.5h2.6a2.06,2.06,0,0,1,1.7.6,1.66,1.66,0,0,1,.5,1.2h0a1.84,1.84,0,0,1-1.7,1.8l1.9,2.5h-0.8l-1.8-2.4h-1.8v2.4h-0.7v-6.1h0.1Zm2.6,3.1a1.41,1.41,0,0,0,1.6-1.3h0c0-.8-0.6-1.2-1.6-1.2h-1.9v2.5h1.9Z" transform="translate(1964.6 -2840.1)"/><path class="cls-3" d="M-1636.3,2935.7l0.4-.5a2.88,2.88,0,0,0,2.1.9,1.2,1.2,0,0,0,1.4-1h0c0-.6-0.3-0.9-1.6-1.2s-2.1-.8-2.1-1.8h0a1.77,1.77,0,0,1,2-1.7,3.49,3.49,0,0,1,2.2.8l-0.4.5a2.57,2.57,0,0,0-1.8-.7,1.1,1.1,0,0,0-1.3,1h0c0,0.6.3,0.9,1.7,1.2s2,0.8,2,1.7h0c0,1.1-.9,1.7-2.1,1.7A2.91,2.91,0,0,1-1636.3,2935.7Z" transform="translate(1964.6 -2840.1)"/><path class="cls-3" d="M-1628.1,2930.5h0.6l2.8,6.2h-0.7l-0.7-1.6h-3.3l-0.7,1.6h-0.7Zm1.7,3.9-1.4-3.1-1.4,3.1h2.8Z" transform="translate(1964.6 -2840.1)"/><path class="cls-3" d="M-1623.5,2930.5h0.7v5.5h3.5v0.6h-4.1v-6.1h-0.1Z" transform="translate(1964.6 -2840.1)"/></g><rect class="cls-15" x="279.3" y="118.5" width="77.1" height="17.1"/><rect class="cls-15" x="279.3" y="139.1" width="77.1" height="17.1"/><rect class="cls-15" x="279.3" y="159.7" width="77.1" height="17.1"/><rect class="cls-15" x="279.3" y="180.2" width="77.1" height="17.1"/><g class="cls-10"><path class="cls-3" d="M-1667.6,2962.8h2.5c1.5,0,2.5.8,2.5,2.1h0a2.33,2.33,0,0,1-2.6,2.2h-1.6v2.3h-0.8v-6.6Zm2.3,3.6a1.57,1.57,0,0,0,1.8-1.5h0c0-1-.7-1.4-1.8-1.4h-1.7v2.9h1.7Z" transform="translate(1964.6 -2840.1)"/><path class="cls-3" d="M-1661.4,2964.5h0.7v1.3a2.28,2.28,0,0,1,2-1.4v0.8h-0.1c-1.1,0-1.9.8-1.9,2.3v2h-0.7v-5Z" transform="translate(1964.6 -2840.1)"/><path class="cls-3" d="M-1658.1,2967h0a2.58,2.58,0,0,1,2.6-2.6,2.56,2.56,0,0,1,2.6,2.5h0a2.58,2.58,0,0,1-2.6,2.6A2.44,2.44,0,0,1-1658.1,2967Zm4.4,0h0a1.82,1.82,0,0,0-1.8-1.9,1.81,1.81,0,0,0-1.8,1.9h0a1.82,1.82,0,0,0,1.8,1.9A1.82,1.82,0,0,0-1653.7,2967Z" transform="translate(1964.6 -2840.1)"/><path class="cls-3" d="M-1652.4,2964.5h0.8l1.7,4.1,1.7-4.1h0.8l-2.1,5h-0.6Z" transform="translate(1964.6 -2840.1)"/><path class="cls-3" d="M-1646.3,2962.7h0.8v0.8h-0.8v-0.8Zm0,1.8h0.7v4.9h-0.7v-4.9Z" transform="translate(1964.6 -2840.1)"/><path class="cls-3" d="M-1644.3,2968.8l0.4-.5a2.72,2.72,0,0,0,1.7.6,0.85,0.85,0,0,0,1-.8h0c0-.5-0.6-0.7-1.2-0.9-0.8-.2-1.6-0.5-1.6-1.4h0a1.52,1.52,0,0,1,1.7-1.4,3.74,3.74,0,0,1,1.8.5l-0.3.6a3,3,0,0,0-1.5-.5,0.85,0.85,0,0,0-1,.7h0c0,0.5.6,0.6,1.3,0.8s1.6,0.5,1.6,1.4h0a1.59,1.59,0,0,1-1.7,1.5A2.52,2.52,0,0,1-1644.3,2968.8Z" transform="translate(1964.6 -2840.1)"/><path class="cls-3" d="M-1639.1,2962.7h0.8v0.8h-0.8v-0.8Zm0.1,1.8h0.7v4.9h-0.7v-4.9Z" transform="translate(1964.6 -2840.1)"/><path class="cls-3" d="M-1636.9,2967h0a2.58,2.58,0,0,1,2.6-2.6,2.56,2.56,0,0,1,2.6,2.5h0a2.58,2.58,0,0,1-2.6,2.6A2.44,2.44,0,0,1-1636.9,2967Zm4.4,0h0a1.82,1.82,0,0,0-1.8-1.9,1.81,1.81,0,0,0-1.8,1.9h0a1.82,1.82,0,0,0,1.8,1.9A1.82,1.82,0,0,0-1632.5,2967Z" transform="translate(1964.6 -2840.1)"/><path class="cls-3" d="M-1630.5,2964.5h0.7v0.9a1.89,1.89,0,0,1,1.7-1,1.81,1.81,0,0,1,1.9,2v3.1h-0.7v-2.9a1.34,1.34,0,0,0-1.4-1.5,1.47,1.47,0,0,0-1.5,1.5v2.8h-0.7v-4.9Z" transform="translate(1964.6 -2840.1)"/></g><g class="cls-10"><path class="cls-3" d="M-1662.6,2983.4h2.3a3.26,3.26,0,0,1,3.5,3.3h0a3.26,3.26,0,0,1-3.5,3.3h-2.3v-6.6Zm0.7,0.7v5.3h1.6a2.58,2.58,0,0,0,2.8-2.6h0a2.58,2.58,0,0,0-2.8-2.6h-1.6v-0.1Z" transform="translate(1964.6 -2840.1)"/><path class="cls-3" d="M-1655.6,2987.6h0a2.48,2.48,0,0,1,2.4-2.6,2.34,2.34,0,0,1,2.3,2.6v0.2h-3.9a1.74,1.74,0,0,0,1.7,1.7,1.81,1.81,0,0,0,1.5-.7l0.5,0.4a2.38,2.38,0,0,1-2,.9A2.36,2.36,0,0,1-1655.6,2987.6Zm3.9-.3a1.67,1.67,0,0,0-1.6-1.7,1.67,1.67,0,0,0-1.6,1.7h3.2Z" transform="translate(1964.6 -2840.1)"/><path class="cls-3" d="M-1649.7,2985.1h0.7v1a2.23,2.23,0,0,1,1.9-1.1,2.32,2.32,0,0,1,2.3,2.5h0a2.47,2.47,0,0,1-2.3,2.6,2.39,2.39,0,0,1-1.9-1v2.5h-0.7v-6.5Zm4.2,2.5h0a1.74,1.74,0,0,0-1.7-1.9,1.88,1.88,0,0,0-1.8,1.9h0a1.88,1.88,0,0,0,1.8,1.9A1.74,1.74,0,0,0-1645.5,2987.6Z" transform="translate(1964.6 -2840.1)"/><path class="cls-3" d="M-1643.3,2983.1h0.7v6.9h-0.7v-6.9Z" transform="translate(1964.6 -2840.1)"/><path class="cls-3" d="M-1641.2,2987.6h0a2.58,2.58,0,0,1,2.6-2.6,2.56,2.56,0,0,1,2.6,2.5h0a2.58,2.58,0,0,1-2.6,2.6A2.44,2.44,0,0,1-1641.2,2987.6Zm4.4,0h0a1.82,1.82,0,0,0-1.8-1.9,1.81,1.81,0,0,0-1.8,1.9h0a1.82,1.82,0,0,0,1.8,1.9A1.88,1.88,0,0,0-1636.8,2987.6Z" transform="translate(1964.6 -2840.1)"/><path class="cls-3" d="M-1631.4,2985.1h0.8l-2.1,5.1a1.73,1.73,0,0,1-1.6,1.4,3,3,0,0,1-1-.2l0.2-.6a1.88,1.88,0,0,0,.8.2,1.1,1.1,0,0,0,1-.9l-2.2-4.9h0.8l1.8,4.1Z" transform="translate(1964.6 -2840.1)"/></g><g class="cls-10"><path class="cls-3" d="M-1662.4,3009.6l0.5-.6a3.34,3.34,0,0,0,2.3.9,1.31,1.31,0,0,0,1.5-1.1h0c0-.6-0.3-1-1.7-1.3s-2.2-.8-2.2-1.9h0a2,2,0,0,1,2.2-1.8,3.37,3.37,0,0,1,2.3.8l-0.4.6a2.81,2.81,0,0,0-1.9-.7,1.21,1.21,0,0,0-1.4,1.1h0c0,0.6.3,1,1.8,1.3s2.2,0.9,2.2,1.9h0a2.08,2.08,0,0,1-2.3,1.9A3.77,3.77,0,0,1-1662.4,3009.6Z" transform="translate(1964.6 -2840.1)"/><path class="cls-3" d="M-1656,3005.7h0.7v0.8a1.77,1.77,0,0,1,1.6-.9,1.68,1.68,0,0,1,1.6,1,2.16,2.16,0,0,1,1.7-1,1.79,1.79,0,0,1,1.8,2v3h-0.7v-2.9a1.27,1.27,0,0,0-1.3-1.5,1.45,1.45,0,0,0-1.4,1.5v2.8h-0.7v-2.9a1.32,1.32,0,0,0-1.3-1.5,1.39,1.39,0,0,0-1.4,1.5v2.8h-0.7v-4.7h0.1Z" transform="translate(1964.6 -2840.1)"/><path class="cls-3" d="M-1647.3,3008.2h0a2.58,2.58,0,0,1,2.6-2.6,2.56,2.56,0,0,1,2.6,2.5h0a2.58,2.58,0,0,1-2.6,2.6A2.5,2.5,0,0,1-1647.3,3008.2Zm4.4,0h0a1.82,1.82,0,0,0-1.8-1.9,1.81,1.81,0,0,0-1.8,1.9h0a1.82,1.82,0,0,0,1.8,1.9A1.81,1.81,0,0,0-1642.9,3008.2Z" transform="translate(1964.6 -2840.1)"/><path class="cls-3" d="M-1640.8,3003.7h0.7v4.8l2.7-2.8h0.9l-2.1,2.1,2.1,2.8h-0.9l-1.8-2.3-1,1v1.3h-0.7v-6.9h0.1Z" transform="translate(1964.6 -2840.1)"/><path class="cls-3" d="M-1636,3008.2h0a2.48,2.48,0,0,1,2.4-2.6,2.34,2.34,0,0,1,2.3,2.6v0.2h-3.9a1.74,1.74,0,0,0,1.7,1.7,1.81,1.81,0,0,0,1.5-.7l0.5,0.4a2.38,2.38,0,0,1-2,.9A2.42,2.42,0,0,1-1636,3008.2Zm3.9-.3a1.67,1.67,0,0,0-1.6-1.7,1.67,1.67,0,0,0-1.6,1.7h3.2Z" transform="translate(1964.6 -2840.1)"/></g><g class="cls-10"><path class="cls-3" d="M-1670.7,3024.5h4.8v0.7h-4v2.4h3.6v0.7h-3.6v2.9h-0.8v-6.7Z" transform="translate(1964.6 -2840.1)"/><path class="cls-3" d="M-1664.6,3029.3v-3.1h0.7v2.9a1.34,1.34,0,0,0,1.4,1.5,1.47,1.47,0,0,0,1.5-1.5v-2.8h0.7v4.9h-0.7v-0.9a1.89,1.89,0,0,1-1.7,1A1.81,1.81,0,0,1-1664.6,3029.3Z" transform="translate(1964.6 -2840.1)"/><path class="cls-3" d="M-1658.7,3026.3h0.7v0.9a1.89,1.89,0,0,1,1.7-1,1.81,1.81,0,0,1,1.9,2v3.1h-0.7v-2.9a1.34,1.34,0,0,0-1.4-1.5,1.47,1.47,0,0,0-1.5,1.5v2.8h-0.7v-4.9Z" transform="translate(1964.6 -2840.1)"/><path class="cls-3" d="M-1653.2,3028.8h0a2.56,2.56,0,0,1,2.5-2.6,2.69,2.69,0,0,1,2,.9l-0.5.5a2,2,0,0,0-1.5-.7,1.82,1.82,0,0,0-1.8,1.9h0a1.82,1.82,0,0,0,1.8,1.9,2.13,2.13,0,0,0,1.5-.7l0.5,0.4a2.46,2.46,0,0,1-2,1A2.7,2.7,0,0,1-1653.2,3028.8Z" transform="translate(1964.6 -2840.1)"/><path class="cls-3" d="M-1647.2,3029.9v-3h-0.7v-0.6h0.7v-1.5h0.7v1.5h1.6v0.6h-1.6v2.9a0.69,0.69,0,0,0,.8.8,1,1,0,0,0,.7-0.2v0.6a2.39,2.39,0,0,1-.9.2A1.12,1.12,0,0,1-1647.2,3029.9Z" transform="translate(1964.6 -2840.1)"/><path class="cls-3" d="M-1643.6,3024.4h0.8v0.8h-0.8v-0.8Zm0.1,1.9h0.7v4.9h-0.7v-4.9Z" transform="translate(1964.6 -2840.1)"/><path class="cls-3" d="M-1641.4,3028.8h0a2.58,2.58,0,0,1,2.6-2.6,2.56,2.56,0,0,1,2.6,2.5h0a2.58,2.58,0,0,1-2.6,2.6A2.56,2.56,0,0,1-1641.4,3028.8Zm4.4,0h0a1.82,1.82,0,0,0-1.8-1.9,1.81,1.81,0,0,0-1.8,1.9h0a1.82,1.82,0,0,0,1.8,1.9A2,2,0,0,0-1637,3028.8Z" transform="translate(1964.6 -2840.1)"/><path class="cls-3" d="M-1635,3026.3h0.7v0.9a1.89,1.89,0,0,1,1.7-1,1.81,1.81,0,0,1,1.9,2v3.1h-0.7v-2.9a1.34,1.34,0,0,0-1.4-1.5,1.47,1.47,0,0,0-1.5,1.5v2.8h-0.7v-4.9Z" transform="translate(1964.6 -2840.1)"/><path class="cls-3" d="M-1629.5,3029.8h0c0-1.1.9-1.6,2.1-1.6a6.06,6.06,0,0,1,1.5.2v-0.2a1.23,1.23,0,0,0-1.5-1.3,3.71,3.71,0,0,0-1.5.4l-0.2-.6a4.78,4.78,0,0,1,1.8-.4,2.54,2.54,0,0,1,1.6.5,2,2,0,0,1,.5,1.4v3h-0.7v-0.7a2.2,2.2,0,0,1-1.8.8A1.67,1.67,0,0,1-1629.5,3029.8Zm3.7-.4v-0.5a5.21,5.21,0,0,0-1.4-.2c-0.9,0-1.4.4-1.4,1h0a1.12,1.12,0,0,0,1.2,1A1.47,1.47,0,0,0-1625.8,3029.4Z" transform="translate(1964.6 -2840.1)"/><path class="cls-3" d="M-1623.5,3024.3h0.7v6.9h-0.7v-6.9Z" transform="translate(1964.6 -2840.1)"/></g></g><g class="cls-7"><rect class="cls-14" x="363.5" y="72.7" width="77.1" height="42.4"/><g class="cls-10"><path class="cls-3" d="M-1587.8,2930.5h2.1a3.09,3.09,0,0,1,3.3,3h0a3.1,3.1,0,0,1-3.3,3.1h-2.1v-6.1Zm0.7,0.6v4.9h1.4a2.39,2.39,0,0,0,2.5-2.4h0a2.34,2.34,0,0,0-2.5-2.4h-1.4v-0.1Z" transform="translate(1964.6 -2840.1)"/><path class="cls-3" d="M-1580.9,2930.5h4.4v0.6h-3.7v2.1h3.3v0.6h-3.3v2.1h3.8v0.6h-4.5v-6h0Z" transform="translate(1964.6 -2840.1)"/><path class="cls-3" d="M-1575,2930.5h0.7v5.5h3.5v0.6h-4.1v-6.1h-0.1Z" transform="translate(1964.6 -2840.1)"/><path class="cls-3" d="M-1569.6,2930.5h0.7v6.1h-0.7v-6.1Z" transform="translate(1964.6 -2840.1)"/><path class="cls-3" d="M-1567.6,2930.5h0.8l2.2,5.3,2.2-5.3h0.7l-2.6,6.2h-0.6Z" transform="translate(1964.6 -2840.1)"/><path class="cls-3" d="M-1560.5,2930.5h4.4v0.6h-3.7v2.1h3.3v0.6h-3.3v2.1h3.8v0.6h-4.5v-6h0Z" transform="translate(1964.6 -2840.1)"/><path class="cls-3" d="M-1554.6,2930.5h2.6a2.06,2.06,0,0,1,1.7.6,1.66,1.66,0,0,1,.5,1.2h0a1.84,1.84,0,0,1-1.7,1.8l1.9,2.5h-0.8l-1.8-2.4h-1.8v2.4h-0.7v-6.1h0.1Zm2.5,3.1a1.41,1.41,0,0,0,1.6-1.3h0c0-.8-0.6-1.2-1.6-1.2h-1.9v2.5h1.9Z" transform="translate(1964.6 -2840.1)"/><path class="cls-3" d="M-1548.3,2930.5h4.4v0.6h-3.7v2.1h3.3v0.6h-3.3v2.1h3.8v0.6h-4.5v-6h0Z" transform="translate(1964.6 -2840.1)"/><path class="cls-3" d="M-1542.4,2930.5h2.1a3.09,3.09,0,0,1,3.3,3h0a3.1,3.1,0,0,1-3.3,3.1h-2.1v-6.1Zm0.6,0.6v4.9h1.4a2.39,2.39,0,0,0,2.5-2.4h0a2.34,2.34,0,0,0-2.5-2.4h-1.4v-0.1Z" transform="translate(1964.6 -2840.1)"/></g><rect class="cls-15" x="363.5" y="118.5" width="77.1" height="17.1"/><rect class="cls-15" x="363.5" y="139.1" width="77.1" height="17.1"/><rect class="cls-15" x="363.5" y="159.7" width="77.1" height="17.1"/><rect class="cls-15" x="363.5" y="180.2" width="77.1" height="17.1"/><g class="cls-10"><path class="cls-3" d="M-1583.4,2962.8h2.5c1.5,0,2.5.8,2.5,2.1h0a2.33,2.33,0,0,1-2.6,2.2h-1.6v2.3h-0.8v-6.6Zm2.4,3.6a1.57,1.57,0,0,0,1.8-1.5h0c0-1-.7-1.4-1.8-1.4h-1.7v2.9h1.7Z" transform="translate(1964.6 -2840.1)"/><path class="cls-3" d="M-1577.2,2964.5h0.7v1.3a2.28,2.28,0,0,1,2-1.4v0.8h-0.1c-1.1,0-1.9.8-1.9,2.3v2h-0.7v-5Z" transform="translate(1964.6 -2840.1)"/><path class="cls-3" d="M-1573.9,2967h0a2.58,2.58,0,0,1,2.6-2.6,2.56,2.56,0,0,1,2.6,2.5h0a2.58,2.58,0,0,1-2.6,2.6A2.44,2.44,0,0,1-1573.9,2967Zm4.4,0h0a1.82,1.82,0,0,0-1.8-1.9,1.81,1.81,0,0,0-1.8,1.9h0a1.82,1.82,0,0,0,1.8,1.9A1.76,1.76,0,0,0-1569.5,2967Z" transform="translate(1964.6 -2840.1)"/><path class="cls-3" d="M-1568.2,2964.5h0.8l1.7,4.1,1.7-4.1h0.8l-2.1,5h-0.6Z" transform="translate(1964.6 -2840.1)"/><path class="cls-3" d="M-1562.1,2962.7h0.8v0.8h-0.8v-0.8Zm0,1.8h0.7v4.9h-0.7v-4.9Z" transform="translate(1964.6 -2840.1)"/><path class="cls-3" d="M-1560,2968.8l0.4-.5a2.72,2.72,0,0,0,1.7.6,0.85,0.85,0,0,0,1-.8h0c0-.5-0.6-0.7-1.2-0.9-0.8-.2-1.6-0.5-1.6-1.4h0a1.52,1.52,0,0,1,1.7-1.4,3.74,3.74,0,0,1,1.8.5l-0.3.6a3,3,0,0,0-1.5-.5,0.85,0.85,0,0,0-1,.7h0c0,0.5.6,0.6,1.3,0.8s1.6,0.5,1.6,1.4h0a1.62,1.62,0,0,1-1.8,1.5A2.25,2.25,0,0,1-1560,2968.8Z" transform="translate(1964.6 -2840.1)"/><path class="cls-3" d="M-1554.9,2962.7h0.8v0.8h-0.8v-0.8Zm0.1,1.8h0.7v4.9h-0.7v-4.9Z" transform="translate(1964.6 -2840.1)"/><path class="cls-3" d="M-1552.7,2967h0a2.58,2.58,0,0,1,2.6-2.6,2.56,2.56,0,0,1,2.6,2.5h0a2.58,2.58,0,0,1-2.6,2.6A2.44,2.44,0,0,1-1552.7,2967Zm4.4,0h0a1.82,1.82,0,0,0-1.8-1.9,1.81,1.81,0,0,0-1.8,1.9h0a1.82,1.82,0,0,0,1.8,1.9A1.82,1.82,0,0,0-1548.3,2967Z" transform="translate(1964.6 -2840.1)"/><path class="cls-3" d="M-1546.2,2964.5h0.7v0.9a1.89,1.89,0,0,1,1.7-1,1.81,1.81,0,0,1,1.9,2v3.1h-0.7v-2.9a1.34,1.34,0,0,0-1.4-1.5,1.47,1.47,0,0,0-1.5,1.5v2.8h-0.7v-4.9Z" transform="translate(1964.6 -2840.1)"/></g><g class="cls-10"><path class="cls-3" d="M-1578.4,2983.4h2.3a3.26,3.26,0,0,1,3.5,3.3h0a3.26,3.26,0,0,1-3.5,3.3h-2.3v-6.6Zm0.7,0.7v5.3h1.6a2.58,2.58,0,0,0,2.8-2.6h0a2.58,2.58,0,0,0-2.8-2.6h-1.6v-0.1Z" transform="translate(1964.6 -2840.1)"/><path class="cls-3" d="M-1571.4,2987.6h0a2.48,2.48,0,0,1,2.4-2.6,2.34,2.34,0,0,1,2.3,2.6v0.2h-3.9a1.74,1.74,0,0,0,1.7,1.7,1.81,1.81,0,0,0,1.5-.7l0.5,0.4a2.38,2.38,0,0,1-2,.9A2.36,2.36,0,0,1-1571.4,2987.6Zm3.9-.3a1.67,1.67,0,0,0-1.6-1.7,1.67,1.67,0,0,0-1.6,1.7h3.2Z" transform="translate(1964.6 -2840.1)"/><path class="cls-3" d="M-1565.5,2985.1h0.7v1a2.23,2.23,0,0,1,1.9-1.1,2.32,2.32,0,0,1,2.3,2.5h0a2.47,2.47,0,0,1-2.3,2.6,2.39,2.39,0,0,1-1.9-1v2.5h-0.7v-6.5Zm4.2,2.5h0a1.74,1.74,0,0,0-1.7-1.9,1.88,1.88,0,0,0-1.8,1.9h0a1.88,1.88,0,0,0,1.8,1.9A1.69,1.69,0,0,0-1561.3,2987.6Z" transform="translate(1964.6 -2840.1)"/><path class="cls-3" d="M-1559.1,2983.1h0.7v6.9h-0.7v-6.9Z" transform="translate(1964.6 -2840.1)"/><path class="cls-3" d="M-1557,2987.6h0a2.58,2.58,0,0,1,2.6-2.6,2.56,2.56,0,0,1,2.6,2.5h0a2.58,2.58,0,0,1-2.6,2.6A2.44,2.44,0,0,1-1557,2987.6Zm4.4,0h0a1.82,1.82,0,0,0-1.8-1.9,1.81,1.81,0,0,0-1.8,1.9h0a1.82,1.82,0,0,0,1.8,1.9A1.81,1.81,0,0,0-1552.6,2987.6Z" transform="translate(1964.6 -2840.1)"/><path class="cls-3" d="M-1547.1,2985.1h0.8l-2.1,5.1a1.73,1.73,0,0,1-1.6,1.4,3,3,0,0,1-1-.2l0.2-.6a1.88,1.88,0,0,0,.8.2,1.1,1.1,0,0,0,1-.9l-2.2-4.9h0.8l1.8,4.1Z" transform="translate(1964.6 -2840.1)"/></g><g class="cls-10"><path class="cls-3" d="M-1578.2,3009.6l0.5-.6a3.34,3.34,0,0,0,2.3.9,1.31,1.31,0,0,0,1.5-1.1h0c0-.6-0.3-1-1.7-1.3s-2.2-.8-2.2-1.9h0a2,2,0,0,1,2.2-1.8,3.37,3.37,0,0,1,2.3.8l-0.4.6a2.81,2.81,0,0,0-1.9-.7,1.21,1.21,0,0,0-1.4,1.1h0c0,0.6.3,1,1.8,1.3s2.2,0.9,2.2,1.9h0a2.08,2.08,0,0,1-2.3,1.9A3.77,3.77,0,0,1-1578.2,3009.6Z" transform="translate(1964.6 -2840.1)"/><path class="cls-3" d="M-1571.8,3005.7h0.7v0.8a1.77,1.77,0,0,1,1.6-.9,1.68,1.68,0,0,1,1.6,1,2.16,2.16,0,0,1,1.7-1,1.79,1.79,0,0,1,1.8,2v3h-0.7v-2.9a1.27,1.27,0,0,0-1.3-1.5,1.38,1.38,0,0,0-1.3,1.5v2.8h-0.7v-2.9a1.32,1.32,0,0,0-1.3-1.5,1.39,1.39,0,0,0-1.4,1.5v2.8h-0.7v-4.7h0Z" transform="translate(1964.6 -2840.1)"/><path class="cls-3" d="M-1563.1,3008.2h0a2.58,2.58,0,0,1,2.6-2.6,2.56,2.56,0,0,1,2.6,2.5h0a2.58,2.58,0,0,1-2.6,2.6A2.5,2.5,0,0,1-1563.1,3008.2Zm4.4,0h0a1.82,1.82,0,0,0-1.8-1.9,1.81,1.81,0,0,0-1.8,1.9h0a1.82,1.82,0,0,0,1.8,1.9A1.81,1.81,0,0,0-1558.7,3008.2Z" transform="translate(1964.6 -2840.1)"/><path class="cls-3" d="M-1556.6,3003.7h0.7v4.8l2.7-2.8h0.9l-2.1,2.1,2.1,2.8h-0.9l-1.8-2.3-1,1v1.3h-0.7v-6.9h0.1Z" transform="translate(1964.6 -2840.1)"/><path class="cls-3" d="M-1551.7,3008.2h0a2.48,2.48,0,0,1,2.4-2.6,2.34,2.34,0,0,1,2.3,2.6v0.2h-3.9a1.74,1.74,0,0,0,1.7,1.7,1.81,1.81,0,0,0,1.5-.7l0.5,0.4a2.38,2.38,0,0,1-2,.9A2.42,2.42,0,0,1-1551.7,3008.2Zm3.9-.3a1.67,1.67,0,0,0-1.6-1.7,1.67,1.67,0,0,0-1.6,1.7h3.2Z" transform="translate(1964.6 -2840.1)"/></g><g class="cls-10"><path class="cls-3" d="M-1586.5,3024.5h4.8v0.7h-4v2.4h3.6v0.7h-3.6v2.9h-0.8v-6.7Z" transform="translate(1964.6 -2840.1)"/><path class="cls-3" d="M-1580.4,3029.3v-3.1h0.7v2.9a1.34,1.34,0,0,0,1.4,1.5,1.47,1.47,0,0,0,1.5-1.5v-2.8h0.7v4.9h-0.7v-0.9a1.89,1.89,0,0,1-1.7,1A1.81,1.81,0,0,1-1580.4,3029.3Z" transform="translate(1964.6 -2840.1)"/><path class="cls-3" d="M-1574.5,3026.3h0.7v0.9a1.89,1.89,0,0,1,1.7-1,1.81,1.81,0,0,1,1.9,2v3.1h-0.7v-2.9a1.34,1.34,0,0,0-1.4-1.5,1.47,1.47,0,0,0-1.5,1.5v2.8h-0.7v-4.9Z" transform="translate(1964.6 -2840.1)"/><path class="cls-3" d="M-1568.9,3028.8h0a2.56,2.56,0,0,1,2.5-2.6,2.69,2.69,0,0,1,2,.9l-0.5.5a2,2,0,0,0-1.5-.7,1.82,1.82,0,0,0-1.8,1.9h0a1.82,1.82,0,0,0,1.8,1.9,2.13,2.13,0,0,0,1.5-.7l0.5,0.4a2.46,2.46,0,0,1-2,1A2.62,2.62,0,0,1-1568.9,3028.8Z" transform="translate(1964.6 -2840.1)"/><path class="cls-3" d="M-1562.9,3029.9v-3h-0.7v-0.6h0.7v-1.5h0.7v1.5h1.6v0.6h-1.6v2.9a0.69,0.69,0,0,0,.8.8,1,1,0,0,0,.7-0.2v0.6a2.39,2.39,0,0,1-.9.2A1.12,1.12,0,0,1-1562.9,3029.9Z" transform="translate(1964.6 -2840.1)"/><path class="cls-3" d="M-1559.3,3024.4h0.8v0.8h-0.8v-0.8Zm0,1.9h0.7v4.9h-0.7v-4.9Z" transform="translate(1964.6 -2840.1)"/><path class="cls-3" d="M-1557.2,3028.8h0a2.58,2.58,0,0,1,2.6-2.6,2.56,2.56,0,0,1,2.6,2.5h0a2.58,2.58,0,0,1-2.6,2.6A2.56,2.56,0,0,1-1557.2,3028.8Zm4.4,0h0a1.82,1.82,0,0,0-1.8-1.9,1.81,1.81,0,0,0-1.8,1.9h0a1.82,1.82,0,0,0,1.8,1.9A1.88,1.88,0,0,0-1552.8,3028.8Z" transform="translate(1964.6 -2840.1)"/><path class="cls-3" d="M-1550.7,3026.3h0.7v0.9a1.89,1.89,0,0,1,1.7-1,1.81,1.81,0,0,1,1.9,2v3.1h-0.7v-2.9a1.34,1.34,0,0,0-1.4-1.5,1.47,1.47,0,0,0-1.5,1.5v2.8h-0.7v-4.9Z" transform="translate(1964.6 -2840.1)"/><path class="cls-3" d="M-1545.2,3029.8h0c0-1.1.9-1.6,2.1-1.6a6.06,6.06,0,0,1,1.5.2v-0.2a1.23,1.23,0,0,0-1.5-1.3,3.71,3.71,0,0,0-1.5.4l-0.2-.6a4.78,4.78,0,0,1,1.8-.4,2.54,2.54,0,0,1,1.6.5,2,2,0,0,1,.5,1.4v3h-0.7v-0.7a2.2,2.2,0,0,1-1.8.8A1.61,1.61,0,0,1-1545.2,3029.8Zm3.6-.4v-0.5a5.21,5.21,0,0,0-1.4-.2c-0.9,0-1.4.4-1.4,1h0a1.12,1.12,0,0,0,1.2,1A1.47,1.47,0,0,0-1541.6,3029.4Z" transform="translate(1964.6 -2840.1)"/><path class="cls-3" d="M-1539.3,3024.3h0.7v6.9h-0.7v-6.9Z" transform="translate(1964.6 -2840.1)"/></g></g><polyline class="cls-16" points="106.2 70.3 106.2 60.7 133.1 60.7 133.1 65.8"/><g class="cls-7"><polygon class="cls-9" points="130 64.9 133.1 70.3 136.2 64.9 130 64.9"/></g><g class="cls-7"><polyline class="cls-17" points="261.4 70.3 261.4 60.7 288.3 60.7 288.3 65.8"/><polygon class="cls-9" points="285.1 64.9 288.3 70.3 291.4 64.9 285.1 64.9"/></g><g class="cls-7"><polyline class="cls-17" points="345.6 70.3 345.6 60.7 372.5 60.7 372.5 65.8"/><polygon class="cls-9" points="369.3 64.9 372.5 70.3 375.6 64.9 369.3 64.9"/></g></svg>