<?xml version="1.0" encoding="utf-8"?>
<!-- Generator: Adobe Illustrator 19.2.1, SVG Export Plug-In . SVG Version: 6.00 Build 0)  -->
<svg version="1.1" id="Layer_1" xmlns="http://www.w3.org/2000/svg" xmlns:xlink="http://www.w3.org/1999/xlink" x="0px" y="0px"
	 viewBox="0 0 629 359.1" style="enable-background:new 0 0 629 359.1;" xml:space="preserve">
<style type="text/css">
	.st0{fill:#445464;}
	.st1{fill:#FFFFFF;}
	.st2{fill:#6CB2E2;}
	.st3{fill:#F08921;}
	.st4{fill:#C1C1C1;}
	.st5{fill:#59B8B3;}
</style>
<g>
	<g>
		<rect x="370" y="222.1" class="st0" width="78" height="79"/>
	</g>
	<g>
		<g>
			<g>
				<path class="st1" d="M432.2,282.4h-46c-0.9,0-1.7-0.8-1.7-1.7v-13.1c0-0.9,0.8-1.7,1.7-1.7h46c0.9,0,1.7,0.8,1.7,1.7v13.1
					C433.9,281.7,433.1,282.4,432.2,282.4L432.2,282.4z M387.9,279.1h42.6v-9.8h-42.6V279.1L387.9,279.1z"/>
			</g>
			<path class="st1" d="M392.5,272.2c-1.1,0-2,0.9-2,2s0.9,2,2,2s2-0.9,2-2S393.6,272.2,392.5,272.2L392.5,272.2z"/>
			<path class="st1" d="M398.9,272.2c-1.1,0-2,0.9-2,2s0.9,2,2,2s2-0.9,2-2S400,272.2,398.9,272.2L398.9,272.2z"/>
			<path class="st1" d="M405.4,272.2c-1.1,0-2,0.9-2,2s0.9,2,2,2s2-0.9,2-2S406.5,272.2,405.4,272.2L405.4,272.2z"/>
		</g>
		<g>
			<g>
				<path class="st1" d="M432.2,264.6h-46c-0.9,0-1.7-0.8-1.7-1.7v-13.1c0-0.9,0.8-1.7,1.7-1.7h46c0.9,0,1.7,0.8,1.7,1.7v13.1
					C433.9,263.8,433.1,264.6,432.2,264.6L432.2,264.6z M387.9,261.2h42.6v-9.8h-42.6V261.2L387.9,261.2z"/>
			</g>
			<path class="st1" d="M392.5,254.3c-1.1,0-2,0.9-2,2c0,1.1,0.9,2,2,2s2-0.9,2-2C394.5,255.2,393.6,254.3,392.5,254.3L392.5,254.3z
				"/>
			<path class="st1" d="M398.9,254.3c-1.1,0-2,0.9-2,2c0,1.1,0.9,2,2,2s2-0.9,2-2C400.9,255.2,400,254.3,398.9,254.3L398.9,254.3z"
				/>
			<path class="st1" d="M405.4,254.3c-1.1,0-2,0.9-2,2c0,1.1,0.9,2,2,2s2-0.9,2-2C407.4,255.2,406.5,254.3,405.4,254.3L405.4,254.3z
				"/>
		</g>
		<g>
			<g>
				<path class="st1" d="M432.2,246.7h-46c-0.9,0-1.7-0.8-1.7-1.7v-13.1c0-0.9,0.8-1.7,1.7-1.7h46c0.9,0,1.7,0.8,1.7,1.7V245
					C433.9,245.9,433.1,246.7,432.2,246.7L432.2,246.7z M387.9,243.3h42.6v-9.8h-42.6V243.3L387.9,243.3z"/>
			</g>
			<path class="st1" d="M392.5,236.4c-1.1,0-2,0.9-2,2s0.9,2,2,2s2-0.9,2-2C394.5,237.3,393.6,236.4,392.5,236.4L392.5,236.4z"/>
			<path class="st1" d="M398.9,236.4c-1.1,0-2,0.9-2,2s0.9,2,2,2s2-0.9,2-2C400.9,237.3,400,236.4,398.9,236.4L398.9,236.4z"/>
			<path class="st1" d="M405.4,236.4c-1.1,0-2,0.9-2,2s0.9,2,2,2s2-0.9,2-2C407.4,237.3,406.5,236.4,405.4,236.4L405.4,236.4z"/>
		</g>
	</g>
	<g>
		<path class="st1" d="M388.2,293.9v0.6h-1.3v-6.1h1.3v2.3c0.3-0.4,0.7-0.7,1.4-0.7c1,0,2,0.8,2,2.3l0,0c0,1.5-1,2.3-2,2.3
			C388.9,294.6,388.5,294.3,388.2,293.9z M390.3,292.3L390.3,292.3c0-0.8-0.5-1.3-1.1-1.3c-0.6,0-1.1,0.5-1.1,1.2l0,0
			c0,0.7,0.5,1.2,1.1,1.2C389.8,293.4,390.3,293,390.3,292.3z"/>
		<path class="st1" d="M392.5,292.9V290h1.3v2.5c0,0.6,0.3,0.9,0.8,0.9s0.8-0.3,0.8-0.9V290h1.3v4.5h-1.3v-0.6
			c-0.3,0.4-0.7,0.7-1.3,0.7C393.1,294.6,392.5,293.9,392.5,292.9z"/>
		<path class="st1" d="M397.8,288.4h1.3v1.1h-1.3V288.4z M397.8,290h1.3v4.5h-1.3V290z"/>
		<path class="st1" d="M400.3,288.4h1.3v6.1h-1.3V288.4z"/>
		<path class="st1" d="M402.6,292.3L402.6,292.3c0-1.5,1-2.3,2-2.3c0.7,0,1.1,0.3,1.4,0.7v-2.2h1.3v6.1H406V294
			c-0.3,0.4-0.7,0.7-1.4,0.7C403.6,294.6,402.6,293.8,402.6,292.3z M406.1,292.3L406.1,292.3c0-0.8-0.5-1.3-1.1-1.3
			c-0.6,0-1.1,0.5-1.1,1.2l0,0c0,0.7,0.5,1.2,1.1,1.2C405.6,293.4,406.1,293,406.1,292.3z"/>
		<path class="st1" d="M410.9,290h1.3v0.6c0.3-0.4,0.7-0.7,1.3-0.7c1,0,1.5,0.6,1.5,1.7v2.9h-1.3V292c0-0.6-0.3-0.9-0.8-0.9
			s-0.8,0.3-0.8,0.9v2.5h-1.3L410.9,290L410.9,290z"/>
		<path class="st1" d="M415.9,292.3L415.9,292.3c0-1.3,1-2.3,2.4-2.3c1.4,0,2.4,1,2.4,2.3l0,0c0,1.3-1,2.3-2.4,2.3
			C417,294.6,415.9,293.6,415.9,292.3z M419.5,292.3L419.5,292.3c0-0.7-0.5-1.3-1.2-1.3s-1.2,0.6-1.2,1.2l0,0c0,0.7,0.5,1.2,1.2,1.2
			C419.1,293.5,419.5,292.9,419.5,292.3z"/>
		<path class="st1" d="M421.5,292.3L421.5,292.3c0-1.5,1-2.3,2-2.3c0.7,0,1.1,0.3,1.4,0.7v-2.2h1.3v6.1h-1.3V294
			c-0.3,0.4-0.7,0.7-1.4,0.7C422.5,294.6,421.5,293.8,421.5,292.3z M425,292.3L425,292.3c0-0.8-0.5-1.3-1.1-1.3
			c-0.6,0-1.1,0.5-1.1,1.2l0,0c0,0.7,0.5,1.2,1.1,1.2C424.5,293.4,425,293,425,292.3z"/>
		<path class="st1" d="M427.1,292.3L427.1,292.3c0-1.3,0.9-2.3,2.2-2.3c1.5,0,2.2,1.2,2.2,2.4c0,0.1,0,0.2,0,0.3h-3.1
			c0.1,0.6,0.5,0.9,1.1,0.9c0.4,0,0.7-0.1,1.1-0.5l0.7,0.6c-0.4,0.5-1,0.8-1.8,0.8C428.1,294.6,427.1,293.7,427.1,292.3z
			 M430.3,291.9c-0.1-0.6-0.4-1-0.9-1s-0.9,0.4-1,1H430.3z"/>
	</g>
</g>
<g>
	<g>
		<rect x="284.6" y="222.1" class="st0" width="78" height="79"/>
	</g>
	<g>
		<g>
			<g>
				<path class="st1" d="M346.8,282.4h-46c-0.9,0-1.7-0.8-1.7-1.7v-13.1c0-0.9,0.8-1.7,1.7-1.7h46c0.9,0,1.7,0.8,1.7,1.7v13.1
					C348.5,281.7,347.7,282.4,346.8,282.4L346.8,282.4z M302.5,279.1h42.6v-9.8h-42.6V279.1L302.5,279.1z"/>
			</g>
			<path class="st1" d="M307.1,272.2c-1.1,0-2,0.9-2,2s0.9,2,2,2s2-0.9,2-2S308.2,272.2,307.1,272.2L307.1,272.2z"/>
			<path class="st1" d="M313.5,272.2c-1.1,0-2,0.9-2,2s0.9,2,2,2s2-0.9,2-2S314.6,272.2,313.5,272.2L313.5,272.2z"/>
			<path class="st1" d="M320,272.2c-1.1,0-2,0.9-2,2s0.9,2,2,2s2-0.9,2-2S321.1,272.2,320,272.2L320,272.2z"/>
		</g>
		<g>
			<g>
				<path class="st1" d="M346.8,264.6h-46c-0.9,0-1.7-0.8-1.7-1.7v-13.1c0-0.9,0.8-1.7,1.7-1.7h46c0.9,0,1.7,0.8,1.7,1.7v13.1
					C348.5,263.8,347.7,264.6,346.8,264.6L346.8,264.6z M302.5,261.2h42.6v-9.8h-42.6V261.2L302.5,261.2z"/>
			</g>
			<path class="st1" d="M307.1,254.3c-1.1,0-2,0.9-2,2c0,1.1,0.9,2,2,2s2-0.9,2-2C309.1,255.2,308.2,254.3,307.1,254.3L307.1,254.3z
				"/>
			<path class="st1" d="M313.5,254.3c-1.1,0-2,0.9-2,2c0,1.1,0.9,2,2,2s2-0.9,2-2C315.5,255.2,314.6,254.3,313.5,254.3L313.5,254.3z
				"/>
			<path class="st1" d="M320,254.3c-1.1,0-2,0.9-2,2c0,1.1,0.9,2,2,2s2-0.9,2-2C322,255.2,321.1,254.3,320,254.3L320,254.3z"/>
		</g>
		<g>
			<g>
				<path class="st1" d="M346.8,246.7h-46c-0.9,0-1.7-0.8-1.7-1.7v-13.1c0-0.9,0.8-1.7,1.7-1.7h46c0.9,0,1.7,0.8,1.7,1.7V245
					C348.5,245.9,347.7,246.7,346.8,246.7L346.8,246.7z M302.5,243.3h42.6v-9.8h-42.6V243.3L302.5,243.3z"/>
			</g>
			<path class="st1" d="M307.1,236.4c-1.1,0-2,0.9-2,2s0.9,2,2,2s2-0.9,2-2C309.1,237.3,308.2,236.4,307.1,236.4L307.1,236.4z"/>
			<path class="st1" d="M313.5,236.4c-1.1,0-2,0.9-2,2s0.9,2,2,2s2-0.9,2-2C315.5,237.3,314.6,236.4,313.5,236.4L313.5,236.4z"/>
			<path class="st1" d="M320,236.4c-1.1,0-2,0.9-2,2s0.9,2,2,2s2-0.9,2-2C322,237.3,321.1,236.4,320,236.4L320,236.4z"/>
		</g>
	</g>
	<g>
		<path class="st1" d="M302.8,293.9v0.6h-1.3v-6.1h1.3v2.3c0.3-0.4,0.7-0.7,1.4-0.7c1,0,2,0.8,2,2.3l0,0c0,1.5-1,2.3-2,2.3
			C303.5,294.6,303.1,294.3,302.8,293.9z M304.9,292.3L304.9,292.3c0-0.8-0.5-1.3-1.1-1.3c-0.6,0-1.1,0.5-1.1,1.2l0,0
			c0,0.7,0.5,1.2,1.1,1.2C304.4,293.4,304.9,293,304.9,292.3z"/>
		<path class="st1" d="M307.1,292.9V290h1.3v2.5c0,0.6,0.3,0.9,0.8,0.9s0.8-0.3,0.8-0.9V290h1.3v4.5H310v-0.6
			c-0.3,0.4-0.7,0.7-1.3,0.7C307.7,294.6,307.1,293.9,307.1,292.9z"/>
		<path class="st1" d="M312.4,288.4h1.3v1.1h-1.3V288.4z M312.4,290h1.3v4.5h-1.3V290z"/>
		<path class="st1" d="M314.9,288.4h1.3v6.1h-1.3V288.4z"/>
		<path class="st1" d="M317.2,292.3L317.2,292.3c0-1.5,1-2.3,2-2.3c0.7,0,1.1,0.3,1.4,0.7v-2.2h1.3v6.1h-1.3V294
			c-0.3,0.4-0.7,0.7-1.4,0.7C318.2,294.6,317.2,293.8,317.2,292.3z M320.7,292.3L320.7,292.3c0-0.8-0.5-1.3-1.1-1.3
			c-0.6,0-1.1,0.5-1.1,1.2l0,0c0,0.7,0.5,1.2,1.1,1.2C320.2,293.4,320.7,293,320.7,292.3z"/>
		<path class="st1" d="M325.5,290h1.3v0.6c0.3-0.4,0.7-0.7,1.3-0.7c1,0,1.5,0.6,1.5,1.7v2.9h-1.3V292c0-0.6-0.3-0.9-0.8-0.9
			s-0.8,0.3-0.8,0.9v2.5h-1.3L325.5,290L325.5,290z"/>
		<path class="st1" d="M330.5,292.3L330.5,292.3c0-1.3,1-2.3,2.4-2.3c1.4,0,2.4,1,2.4,2.3l0,0c0,1.3-1,2.3-2.4,2.3
			C331.6,294.6,330.5,293.6,330.5,292.3z M334.1,292.3L334.1,292.3c0-0.7-0.5-1.3-1.2-1.3s-1.2,0.6-1.2,1.2l0,0
			c0,0.7,0.5,1.2,1.2,1.2C333.7,293.5,334.1,292.9,334.1,292.3z"/>
		<path class="st1" d="M336.1,292.3L336.1,292.3c0-1.5,1-2.3,2-2.3c0.7,0,1.1,0.3,1.4,0.7v-2.2h1.3v6.1h-1.3V294
			c-0.3,0.4-0.7,0.7-1.4,0.7C337.1,294.6,336.1,293.8,336.1,292.3z M339.6,292.3L339.6,292.3c0-0.8-0.5-1.3-1.1-1.3
			c-0.6,0-1.1,0.5-1.1,1.2l0,0c0,0.7,0.5,1.2,1.1,1.2C339.1,293.4,339.6,293,339.6,292.3z"/>
		<path class="st1" d="M341.7,292.3L341.7,292.3c0-1.3,0.9-2.3,2.2-2.3c1.5,0,2.2,1.2,2.2,2.4c0,0.1,0,0.2,0,0.3H343
			c0.1,0.6,0.5,0.9,1.1,0.9c0.4,0,0.7-0.1,1.1-0.5l0.7,0.6c-0.4,0.5-1,0.8-1.8,0.8C342.7,294.6,341.7,293.7,341.7,292.3z
			 M344.9,291.9c-0.1-0.6-0.4-1-0.9-1s-0.9,0.4-1,1H344.9z"/>
	</g>
</g>
<g>
	<g>
		<rect x="370" y="88.3" class="st2" width="126.6" height="126.6"/>
		<g>
			<path class="st1" d="M418.1,186.2L418.1,186.2c0-2.7,2-4.9,4.9-4.9c1.8,0,2.8,0.6,3.7,1.5l-1.3,1.5c-0.7-0.7-1.5-1.1-2.4-1.1
				c-1.6,0-2.7,1.3-2.7,2.9l0,0c0,1.6,1.1,3,2.7,3c1.1,0,1.7-0.4,2.5-1.1l1.3,1.3c-1,1-2,1.7-3.9,1.7
				C420.2,191.1,418.1,188.9,418.1,186.2z"/>
			<path class="st1" d="M428.3,181.1h2v3.6c0.5-0.6,1.1-1.2,2.1-1.2c1.5,0,2.5,1,2.5,2.7v4.7h-2v-4c0-1-0.5-1.5-1.2-1.5
				s-1.3,0.5-1.3,1.5v4h-2v-9.8H428.3z"/>
			<path class="st1" d="M436.3,187.3L436.3,187.3c0-2.1,1.5-3.8,3.6-3.8c2.4,0,3.5,1.9,3.5,3.9c0,0.2,0,0.4,0,0.5h-5
				c0.2,0.9,0.8,1.4,1.8,1.4c0.7,0,1.2-0.2,1.8-0.7l1.2,1c-0.7,0.8-1.6,1.3-3,1.3C437.9,191.1,436.3,189.6,436.3,187.3z
				 M441.4,186.7c-0.1-0.9-0.7-1.5-1.5-1.5s-1.4,0.6-1.6,1.5H441.4z"/>
			<path class="st1" d="M445.3,185.4h-0.8v-1.7h0.8v-0.5c0-0.8,0.2-1.4,0.6-1.8s0.9-0.6,1.7-0.6c0.6,0,1.1,0.1,1.5,0.2v1.7
				c-0.3-0.1-0.6-0.2-0.9-0.2c-0.5,0-0.7,0.2-0.7,0.8v0.3h1.7v1.7h-1.6v5.5h-2v-5.4H445.3z"/>
			<path class="st1" d="M412.5,206.1l0.9-1.3c0.8,0.6,1.6,0.9,2.3,0.9c0.6,0,0.9-0.2,0.9-0.5l0,0c0-0.4-0.7-0.6-1.5-0.8
				c-1-0.3-2.2-0.8-2.2-2.2l0,0c0-1.5,1.2-2.3,2.6-2.3c0.9,0,1.9,0.3,2.7,0.8l-0.8,1.4c-0.7-0.4-1.4-0.7-2-0.7
				c-0.5,0-0.8,0.2-0.8,0.5l0,0c0,0.4,0.7,0.6,1.5,0.9c1,0.3,2.2,0.8,2.2,2.1l0,0c0,1.6-1.2,2.3-2.8,2.3
				C414.6,207.2,413.5,206.9,412.5,206.1z"/>
			<path class="st1" d="M419.5,203.5L419.5,203.5c0-2.1,1.5-3.8,3.6-3.8c2.4,0,3.5,1.9,3.5,3.9c0,0.2,0,0.4,0,0.5h-5
				c0.2,0.9,0.8,1.4,1.8,1.4c0.7,0,1.2-0.2,1.8-0.7l1.2,1c-0.7,0.8-1.6,1.3-3,1.3C421.1,207.2,419.5,205.7,419.5,203.5z
				 M424.6,202.9c-0.1-0.9-0.7-1.5-1.5-1.5s-1.4,0.6-1.6,1.5H424.6z"/>
			<path class="st1" d="M428.1,199.9h2v1.5c0.4-1,1.1-1.6,2.3-1.6v2.1h-0.1c-1.4,0-2.2,0.8-2.2,2.5v2.7h-2L428.1,199.9L428.1,199.9z
				"/>
			<path class="st1" d="M433.1,199.9h2.2l1.6,4.8l1.6-4.8h2.1l-2.8,7.3h-1.9L433.1,199.9z"/>
			<path class="st1" d="M441.1,203.5L441.1,203.5c0-2.1,1.5-3.8,3.6-3.8c2.4,0,3.5,1.9,3.5,3.9c0,0.2,0,0.4,0,0.5h-5
				c0.2,0.9,0.8,1.4,1.8,1.4c0.7,0,1.2-0.2,1.8-0.7l1.2,1c-0.7,0.8-1.6,1.3-3,1.3C442.7,207.2,441.1,205.7,441.1,203.5z
				 M446.1,202.9c-0.1-0.9-0.7-1.5-1.5-1.5s-1.4,0.6-1.6,1.5H446.1z"/>
			<path class="st1" d="M449.7,199.9h2v1.5c0.4-1,1.1-1.6,2.3-1.6v2.1h-0.1c-1.4,0-2.2,0.8-2.2,2.5v2.7h-2L449.7,199.9L449.7,199.9z
				"/>
		</g>
		<g>
			<g>
				<g>
					<g>
						<g>
							<path class="st1" d="M466.1,174.6h-69.8c-1.4,0-2.6-1.1-2.6-2.6v-19.9c0-1.4,1.1-2.6,2.6-2.6h69.8c1.4,0,2.6,1.1,2.6,2.6V172
								C468.7,173.4,467.5,174.6,466.1,174.6L466.1,174.6z M398.9,169.5h64.6v-14.8h-64.6V169.5L398.9,169.5z"/>
						</g>
						<path class="st1" d="M405.8,159c-1.7,0-3,1.4-3,3s1.3,3,3,3s3-1.4,3-3S407.5,159,405.8,159L405.8,159z"/>
						<path class="st1" d="M415.6,159c-1.7,0-3,1.4-3,3s1.3,3,3,3s3-1.4,3-3S417.3,159,415.6,159L415.6,159z"/>
						<path class="st1" d="M425.4,159c-1.7,0-3,1.4-3,3s1.3,3,3,3s3-1.4,3-3S427.1,159,425.4,159L425.4,159z"/>
					</g>
					<g>
						<g>
							<path class="st1" d="M466.1,147.4h-69.8c-1.4,0-2.6-1.1-2.6-2.6v-19.9c0-1.4,1.1-2.6,2.6-2.6h69.8c1.4,0,2.6,1.1,2.6,2.6
								v19.9C468.7,146.3,467.5,147.4,466.1,147.4L466.1,147.4z M398.9,142.3h64.6v-14.8h-64.6V142.3L398.9,142.3z"/>
						</g>
						<path class="st1" d="M405.8,131.9c-1.7,0-3,1.4-3,3s1.3,3,3,3s3-1.4,3-3S407.5,131.9,405.8,131.9L405.8,131.9z"/>
						<path class="st1" d="M415.6,131.9c-1.7,0-3,1.4-3,3s1.3,3,3,3s3-1.4,3-3S417.3,131.9,415.6,131.9L415.6,131.9z"/>
						<path class="st1" d="M425.4,131.9c-1.7,0-3,1.4-3,3s1.3,3,3,3s3-1.4,3-3S427.1,131.9,425.4,131.9L425.4,131.9z"/>
					</g>
					<g>
						<g>
							<path class="st1" d="M466.1,120.3h-69.8c-1.4,0-2.6-1.1-2.6-2.6V97.8c0-1.4,1.1-2.6,2.6-2.6h69.8c1.4,0,2.6,1.1,2.6,2.6v19.9
								C468.7,119.1,467.5,120.3,466.1,120.3L466.1,120.3z M398.9,115.2h64.6v-14.8h-64.6V115.2L398.9,115.2z"/>
						</g>
						<path class="st1" d="M405.8,104.7c-1.7,0-3,1.4-3,3c0,1.7,1.3,3,3,3s3-1.4,3-3S407.5,104.7,405.8,104.7L405.8,104.7z"/>
						<path class="st1" d="M415.6,104.7c-1.7,0-3,1.4-3,3c0,1.7,1.3,3,3,3s3-1.4,3-3S417.3,104.7,415.6,104.7L415.6,104.7z"/>
						<path class="st1" d="M425.4,104.7c-1.7,0-3,1.4-3,3c0,1.7,1.3,3,3,3s3-1.4,3-3C428.5,106.1,427.1,104.7,425.4,104.7
							L425.4,104.7z"/>
					</g>
				</g>
				<g>
					<g>
						<path class="st2" d="M466.8,159.9c-6.5,0-11.8-5.3-11.8-11.8s5.3-11.8,11.8-11.8s11.8,5.3,11.8,11.8S473.3,159.9,466.8,159.9z
							"/>
						<path class="st1" d="M466.8,139.3c4.9,0,8.8,3.9,8.8,8.8s-3.9,8.8-8.8,8.8s-8.8-3.9-8.8-8.8S462,139.3,466.8,139.3
							 M466.8,133.3c-8.2,0-14.8,6.6-14.8,14.8s6.6,14.8,14.8,14.8c8.2,0,14.8-6.6,14.8-14.8C481.6,139.9,475,133.3,466.8,133.3
							L466.8,133.3z"/>
					</g>
				</g>
			</g>
			<g>
				<path class="st1" d="M460.9,148.1L460.9,148.1c0-3.7,2.7-6.6,6.7-6.6c2.4,0,3.9,0.8,5,2l-1.8,2.1c-1-0.9-2-1.4-3.3-1.4
					c-2.2,0-3.7,1.8-3.7,4l0,0c0,2.2,1.5,4,3.7,4c1.5,0,2.4-0.6,3.4-1.5l1.8,1.8c-1.3,1.4-2.8,2.3-5.2,2.3
					C463.7,154.7,460.9,151.8,460.9,148.1z"/>
			</g>
		</g>
	</g>
	<g>
		<rect x="236" y="88.3" class="st2" width="126.6" height="126.6"/>
		<g>
			<path class="st1" d="M253.8,186.2L253.8,186.2c0-2.7,2-4.9,4.9-4.9c1.8,0,2.8,0.6,3.7,1.5l-1.3,1.5c-0.7-0.7-1.5-1.1-2.4-1.1
				c-1.6,0-2.7,1.3-2.7,2.9l0,0c0,1.6,1.1,3,2.7,3c1.1,0,1.7-0.4,2.5-1.1l1.3,1.3c-1,1-2,1.7-3.9,1.7
				C255.9,191.1,253.8,188.9,253.8,186.2z"/>
			<path class="st1" d="M264,181.1h2v3.6c0.5-0.6,1.1-1.2,2.1-1.2c1.5,0,2.5,1,2.5,2.7v4.7h-2v-4c0-1-0.5-1.5-1.2-1.5
				s-1.3,0.5-1.3,1.5v4h-2v-9.8H264z"/>
			<path class="st1" d="M272,187.3L272,187.3c0-2.1,1.5-3.8,3.6-3.8c2.4,0,3.5,1.9,3.5,3.9c0,0.2,0,0.4,0,0.5h-5
				c0.2,0.9,0.8,1.4,1.8,1.4c0.7,0,1.2-0.2,1.8-0.7l1.2,1c-0.7,0.8-1.6,1.3-3,1.3C273.6,191.1,272,189.6,272,187.3z M277.1,186.7
				c-0.1-0.9-0.7-1.5-1.5-1.5s-1.4,0.6-1.6,1.5H277.1z"/>
			<path class="st1" d="M281,185.4h-0.8v-1.7h0.8v-0.5c0-0.8,0.2-1.4,0.6-1.8s0.9-0.6,1.7-0.6c0.6,0,1.1,0.1,1.5,0.2v1.7
				c-0.3-0.1-0.6-0.2-0.9-0.2c-0.5,0-0.7,0.2-0.7,0.8v0.3h1.7v1.7H283v5.5h-2V185.4z"/>
			<path class="st1" d="M290,181.5h3.7c3,0,5,2,5,4.7l0,0c0,2.7-2,4.7-5,4.7H290V181.5z M292.1,183.4v5.7h1.6c1.7,0,2.8-1.1,2.8-2.8
				l0,0c0-1.7-1.1-2.8-2.8-2.8L292.1,183.4L292.1,183.4z"/>
			<path class="st1" d="M300,187.3L300,187.3c0-2.1,1.5-3.8,3.6-3.8c2.4,0,3.5,1.9,3.5,3.9c0,0.2,0,0.4,0,0.5h-5
				c0.2,0.9,0.8,1.4,1.8,1.4c0.7,0,1.2-0.2,1.8-0.7l1.2,1c-0.7,0.8-1.6,1.3-3,1.3C301.6,191.1,300,189.6,300,187.3z M305.1,186.7
				c-0.1-0.9-0.7-1.5-1.5-1.5s-1.4,0.6-1.6,1.5H305.1z"/>
			<path class="st1" d="M308.7,181.1h2v9.8h-2V181.1z"/>
			<path class="st1" d="M312.7,181.1h2.2v1.8h-2.2V181.1z M312.7,183.7h2v7.2h-2V183.7z"/>
			<path class="st1" d="M316.1,183.7h2.2l1.6,4.8l1.6-4.8h2.1l-2.8,7.3h-1.9L316.1,183.7z"/>
			<path class="st1" d="M324,187.3L324,187.3c0-2.1,1.5-3.8,3.6-3.8c2.4,0,3.5,1.9,3.5,3.9c0,0.2,0,0.4,0,0.5h-5
				c0.2,0.9,0.8,1.4,1.8,1.4c0.7,0,1.2-0.2,1.8-0.7l1.2,1c-0.7,0.8-1.6,1.3-3,1.3C325.6,191.1,324,189.6,324,187.3z M329.1,186.7
				c-0.1-0.9-0.7-1.5-1.5-1.5s-1.4,0.6-1.6,1.5H329.1z"/>
			<path class="st1" d="M332.6,183.7h2v1.5c0.4-1,1.1-1.6,2.3-1.6v2.1h-0.1c-1.4,0-2.2,0.8-2.2,2.5v2.7h-2L332.6,183.7L332.6,183.7z
				"/>
			<path class="st1" d="M343,183.7h2.1l-2.8,7.4c-0.6,1.5-1.1,2-2.4,2c-0.7,0-1.3-0.2-1.8-0.5l0.7-1.5c0.3,0.2,0.6,0.3,0.9,0.3
				c0.4,0,0.5-0.1,0.7-0.5l-2.8-7.2h2.2l1.6,4.9L343,183.7z"/>
			<path class="st1" d="M278.5,206.1l0.9-1.3c0.8,0.6,1.6,0.9,2.3,0.9c0.6,0,0.9-0.2,0.9-0.5l0,0c0-0.4-0.7-0.6-1.5-0.8
				c-1-0.3-2.2-0.8-2.2-2.2l0,0c0-1.5,1.2-2.3,2.6-2.3c0.9,0,1.9,0.3,2.7,0.8l-0.8,1.4c-0.7-0.4-1.4-0.7-2-0.7
				c-0.5,0-0.8,0.2-0.8,0.5l0,0c0,0.4,0.7,0.6,1.5,0.9c1,0.3,2.2,0.8,2.2,2.1l0,0c0,1.6-1.2,2.3-2.8,2.3
				C280.6,207.2,279.5,206.9,278.5,206.1z"/>
			<path class="st1" d="M285.5,203.5L285.5,203.5c0-2.1,1.5-3.8,3.6-3.8c2.4,0,3.5,1.9,3.5,3.9c0,0.2,0,0.4,0,0.5h-5
				c0.2,0.9,0.8,1.4,1.8,1.4c0.7,0,1.2-0.2,1.8-0.7l1.2,1c-0.7,0.8-1.6,1.3-3,1.3C287.1,207.2,285.5,205.7,285.5,203.5z
				 M290.6,202.9c-0.1-0.9-0.7-1.5-1.5-1.5s-1.4,0.6-1.6,1.5H290.6z"/>
			<path class="st1" d="M294.1,199.9h2v1.5c0.4-1,1.1-1.6,2.3-1.6v2.1h-0.1c-1.4,0-2.2,0.8-2.2,2.5v2.7h-2L294.1,199.9L294.1,199.9z
				"/>
			<path class="st1" d="M299.1,199.9h2.2l1.6,4.8l1.6-4.8h2.1l-2.8,7.3h-1.9L299.1,199.9z"/>
			<path class="st1" d="M307.1,203.5L307.1,203.5c0-2.1,1.5-3.8,3.6-3.8c2.4,0,3.5,1.9,3.5,3.9c0,0.2,0,0.4,0,0.5h-5
				c0.2,0.9,0.8,1.4,1.8,1.4c0.7,0,1.2-0.2,1.8-0.7l1.2,1c-0.7,0.8-1.6,1.3-3,1.3C308.7,207.2,307.1,205.7,307.1,203.5z
				 M312.1,202.9c-0.1-0.9-0.7-1.5-1.5-1.5s-1.4,0.6-1.6,1.5H312.1z"/>
			<path class="st1" d="M315.7,199.9h2v1.5c0.4-1,1.1-1.6,2.3-1.6v2.1h-0.1c-1.4,0-2.2,0.8-2.2,2.5v2.7h-2L315.7,199.9L315.7,199.9z
				"/>
		</g>
		<g>
			<path class="st1" d="M261.5,113h39.2v31h-39.2V113 M253.9,105.5v46.1h54.3v-46.1L253.9,105.5L253.9,105.5z"/>
			<g>
				<path class="st1" d="M284.7,163.6h20.6c2.1,0,3.8-1.7,3.8-3.8s-1.7-3.8-3.8-3.8h-20.6c-2.1,0-3.8,1.7-3.8,3.8
					C280.9,161.9,282.6,163.6,284.7,163.6L284.7,163.6z"/>
			</g>
			<path class="st1" d="M268.6,161.8c1.7,0,3.1,1.4,3.1,3.1s-1.4,3.1-3.1,3.1s-3.1-1.4-3.1-3.1C265.4,163.2,266.8,161.8,268.6,161.8
				 M268.6,155.4c-5.3,0-9.6,4.3-9.6,9.6s4.3,9.6,9.6,9.6c5.3,0,9.5-4.3,9.5-9.6S273.9,155.4,268.6,155.4L268.6,155.4z"/>
			<path class="st1" d="M320.7,127.8h8.6l7.9,15.4v8.7c-3.8-4.9-9.8-7.9-16.4-8L320.7,127.8 M313.1,120.3v33.4
				c2.1-1.4,4.7-2.3,7.5-2.3c7,0,12.7,5.3,13.4,12.1h10.6v-22.1l-10.8-21.1L313.1,120.3L313.1,120.3z"/>
			<path class="st1" d="M320.6,161.8c1.7,0,3.1,1.4,3.1,3.1s-1.4,3.1-3.1,3.1s-3.1-1.4-3.1-3.1S318.9,161.8,320.6,161.8
				 M320.6,155.4c-5.3,0-9.6,4.3-9.6,9.6s4.3,9.6,9.6,9.6c5.3,0,9.5-4.3,9.5-9.6C330.2,159.7,325.9,155.4,320.6,155.4L320.6,155.4z"
				/>
		</g>
	</g>
</g>
<g>
	<polyline class="st3" points="182,52.1 297,52.1 297,71.1 292,71.1 292,57.1 187,57.1 	"/>
	<g>
		<polygon class="st3" points="289.5,70.1 294.5,78.7 299.5,70.1 		"/>
	</g>
</g>
<rect x="144.5" y="52.1" class="st3" width="47" height="5"/>
<g>
	<polygon class="st3" points="435,71.1 430,71.1 430,57.1 294,57.1 294,52.1 435,52.1 	"/>
	<g>
		<polygon class="st3" points="427.5,70.1 432.5,78.7 437.5,70.1 		"/>
	</g>
</g>
<path class="st0" d="M108,3.1v5h516v346H5V8.1h51v-5H0v356h629V3.1H108z"/>
<g>
	<path class="st2" d="M213.5,312.3h3.8c3.1,0,5.2,2.1,5.2,4.9l0,0c0,2.8-2.1,4.9-5.2,4.9h-3.8V312.3z M215.6,314.2v5.9h1.7
		c1.8,0,3-1.2,3-2.9l0,0c0-1.7-1.2-3-3-3H215.6z"/>
	<path class="st2" d="M223.8,318.4L223.8,318.4c0-2.2,1.5-3.9,3.7-3.9c2.5,0,3.7,1.9,3.7,4.1c0,0.2,0,0.4,0,0.6H226
		c0.2,1,0.9,1.5,1.8,1.5c0.7,0,1.2-0.2,1.8-0.8l1.2,1.1c-0.7,0.9-1.7,1.4-3.1,1.4C225.5,322.2,223.8,320.7,223.8,318.4z
		 M229.1,317.7c-0.1-1-0.7-1.6-1.6-1.6c-0.9,0-1.5,0.6-1.6,1.6H229.1z"/>
	<path class="st2" d="M232.9,311.8h2.1V322h-2.1V311.8z"/>
	<path class="st2" d="M237.1,311.8h2.2v1.9h-2.2V311.8z M237.1,314.6h2.1v7.5h-2.1V314.6z"/>
	<path class="st2" d="M240.6,314.6h2.3l1.7,5l1.7-5h2.2l-3,7.6h-1.9L240.6,314.6z"/>
	<path class="st2" d="M248.9,318.4L248.9,318.4c0-2.2,1.5-3.9,3.7-3.9c2.5,0,3.7,1.9,3.7,4.1c0,0.2,0,0.4,0,0.6H251
		c0.2,1,0.9,1.5,1.8,1.5c0.7,0,1.2-0.2,1.8-0.8l1.2,1.1c-0.7,0.9-1.7,1.4-3.1,1.4C250.5,322.2,248.9,320.7,248.9,318.4z
		 M254.2,317.7c-0.1-1-0.7-1.6-1.6-1.6c-0.9,0-1.5,0.6-1.6,1.6H254.2z"/>
	<path class="st2" d="M257.8,314.6h2.1v1.5c0.4-1,1.1-1.7,2.4-1.7v2.2h-0.1c-1.4,0-2.3,0.9-2.3,2.6v2.8h-2.1V314.6z"/>
	<path class="st2" d="M268.6,314.6h2.2l-2.9,7.7c-0.6,1.5-1.2,2.1-2.5,2.1c-0.8,0-1.3-0.2-1.9-0.5l0.7-1.5c0.3,0.2,0.6,0.3,0.9,0.3
		c0.4,0,0.6-0.1,0.7-0.5l-2.9-7.5h2.3l1.7,5.1L268.6,314.6z"/>
	<path class="st2" d="M275.9,318.4L275.9,318.4c0-2.2,1.6-3.9,3.9-3.9c1.4,0,2.3,0.5,3,1.3l-1.3,1.4c-0.5-0.5-1-0.8-1.7-0.8
		c-1.1,0-1.8,0.9-1.8,2l0,0c0,1.1,0.7,2.1,1.9,2.1c0.7,0,1.2-0.3,1.7-0.8l1.2,1.3c-0.7,0.8-1.6,1.4-3.1,1.4
		C277.5,322.2,275.9,320.5,275.9,318.4z"/>
	<path class="st2" d="M284.3,311.8h2.1V322h-2.1V311.8z"/>
	<path class="st2" d="M288.4,319.4v-4.9h2.1v4.2c0,1,0.5,1.5,1.3,1.5s1.3-0.5,1.3-1.5v-4.2h2.1v7.5h-2.1v-1
		c-0.5,0.6-1.1,1.2-2.2,1.2C289.4,322.2,288.4,321.1,288.4,319.4z"/>
	<path class="st2" d="M296.6,321.1l0.9-1.4c0.8,0.6,1.7,0.9,2.4,0.9c0.6,0,0.9-0.2,0.9-0.6l0,0c0-0.5-0.7-0.6-1.6-0.9
		c-1.1-0.3-2.2-0.8-2.2-2.3l0,0c0-1.5,1.2-2.4,2.7-2.4c1,0,2,0.3,2.8,0.9l-0.8,1.5c-0.7-0.4-1.5-0.7-2-0.7s-0.8,0.2-0.8,0.5l0,0
		c0,0.4,0.7,0.6,1.5,0.9c1.1,0.3,2.3,0.9,2.3,2.2l0,0c0,1.7-1.2,2.4-2.9,2.4C298.8,322.2,297.6,321.9,296.6,321.1z"/>
	<path class="st2" d="M304.4,319.9v-3.6h-0.9v-1.8h0.9v-1.9h2.1v1.9h1.8v1.8h-1.8v3.2c0,0.5,0.2,0.7,0.7,0.7c0.4,0,0.7-0.1,1.1-0.3
		v1.7c-0.4,0.3-1,0.4-1.7,0.4C305.3,322.2,304.4,321.7,304.4,319.9z"/>
	<path class="st2" d="M309.3,318.4L309.3,318.4c0-2.2,1.5-3.9,3.7-3.9c2.5,0,3.7,1.9,3.7,4.1c0,0.2,0,0.4,0,0.6h-5.2
		c0.2,1,0.9,1.5,1.8,1.5c0.7,0,1.2-0.2,1.8-0.8l1.2,1.1c-0.7,0.9-1.7,1.4-3.1,1.4C311,322.2,309.3,320.7,309.3,318.4z M314.6,317.7
		c-0.1-1-0.7-1.6-1.6-1.6s-1.5,0.6-1.6,1.6H314.6z"/>
	<path class="st2" d="M318.3,314.6h2.1v1.5c0.4-1,1.1-1.7,2.4-1.7v2.2h-0.1c-1.4,0-2.3,0.9-2.3,2.6v2.8h-2.1V314.6z"/>
</g>
<g>
	<rect x="548.3" y="252.2" class="st4" width="63.7" height="63.7"/>
	<g>
		<g>
			<g>
				<path class="st1" d="M596.3,296h-32.4c-0.7,0-1.2-0.5-1.2-1.2v-9.2c0-0.7,0.5-1.2,1.2-1.2h32.4c0.7,0,1.2,0.5,1.2,1.2v9.2
					C597.5,295.5,597,296,596.3,296L596.3,296z M565.2,293.6h30v-6.9h-30V293.6L565.2,293.6z"/>
			</g>
			<path class="st1" d="M568.4,288.8c-0.8,0-1.4,0.6-1.4,1.4s0.6,1.4,1.4,1.4c0.8,0,1.4-0.6,1.4-1.4S569.1,288.8,568.4,288.8
				L568.4,288.8z"/>
			<path class="st1" d="M572.9,288.8c-0.8,0-1.4,0.6-1.4,1.4s0.6,1.4,1.4,1.4c0.8,0,1.4-0.6,1.4-1.4S573.7,288.8,572.9,288.8
				L572.9,288.8z"/>
			<path class="st1" d="M577.5,288.8c-0.8,0-1.4,0.6-1.4,1.4s0.6,1.4,1.4,1.4c0.8,0,1.4-0.6,1.4-1.4
				C578.9,289.4,578.2,288.8,577.5,288.8L577.5,288.8z"/>
		</g>
		<g>
			<g>
				<path class="st1" d="M596.3,283.4h-32.4c-0.7,0-1.2-0.5-1.2-1.2V273c0-0.7,0.5-1.2,1.2-1.2h32.4c0.7,0,1.2,0.5,1.2,1.2v9.2
					C597.5,282.9,597,283.4,596.3,283.4L596.3,283.4z M565.2,281h30v-6.9h-30V281L565.2,281z"/>
			</g>
			<path class="st1" d="M568.4,276.2c-0.8,0-1.4,0.6-1.4,1.4s0.6,1.4,1.4,1.4c0.8,0,1.4-0.6,1.4-1.4
				C569.8,276.8,569.1,276.2,568.4,276.2L568.4,276.2z"/>
			<path class="st1" d="M572.9,276.2c-0.8,0-1.4,0.6-1.4,1.4s0.6,1.4,1.4,1.4c0.8,0,1.4-0.6,1.4-1.4
				C574.3,276.8,573.7,276.2,572.9,276.2L572.9,276.2z"/>
			<path class="st1" d="M577.5,276.2c-0.8,0-1.4,0.6-1.4,1.4s0.6,1.4,1.4,1.4c0.8,0,1.4-0.6,1.4-1.4
				C578.9,276.8,578.2,276.2,577.5,276.2L577.5,276.2z"/>
		</g>
		<g>
			<g>
				<path class="st1" d="M596.3,270.8h-32.4c-0.7,0-1.2-0.5-1.2-1.2v-9.2c0-0.7,0.5-1.2,1.2-1.2h32.4c0.7,0,1.2,0.5,1.2,1.2v9.2
					C597.5,270.3,597,270.8,596.3,270.8L596.3,270.8z M565.2,268.4h30v-6.9h-30V268.4L565.2,268.4z"/>
			</g>
			<path class="st1" d="M568.4,263.6c-0.8,0-1.4,0.6-1.4,1.4s0.6,1.4,1.4,1.4c0.8,0,1.4-0.6,1.4-1.4S569.1,263.6,568.4,263.6
				L568.4,263.6z"/>
			<path class="st1" d="M572.9,263.6c-0.8,0-1.4,0.6-1.4,1.4s0.6,1.4,1.4,1.4c0.8,0,1.4-0.6,1.4-1.4S573.7,263.6,572.9,263.6
				L572.9,263.6z"/>
			<path class="st1" d="M577.5,263.6c-0.8,0-1.4,0.6-1.4,1.4s0.6,1.4,1.4,1.4c0.8,0,1.4-0.6,1.4-1.4S578.2,263.6,577.5,263.6
				L577.5,263.6z"/>
		</g>
	</g>
	<g>
		<path class="st1" d="M560.3,301.6h2.3c1.9,0,3.1,1.3,3.1,2.9l0,0c0,1.7-1.3,3-3.1,3h-2.3V301.6z M561.6,302.8v3.6h1
			c1.1,0,1.8-0.7,1.8-1.8l0,0c0-1-0.7-1.8-1.8-1.8L561.6,302.8L561.6,302.8z"/>
		<path class="st1" d="M566.5,305.3L566.5,305.3c0-1.3,0.9-2.4,2.2-2.4c1.5,0,2.2,1.2,2.2,2.5c0,0.1,0,0.2,0,0.3h-3.2
			c0.1,0.6,0.5,0.9,1.1,0.9c0.4,0,0.7-0.1,1.1-0.5l0.7,0.7c-0.4,0.5-1,0.8-1.9,0.8C567.5,307.6,566.5,306.7,566.5,305.3z
			 M569.7,304.9c-0.1-0.6-0.4-1-1-1c-0.5,0-0.9,0.4-1,1H569.7z"/>
		<path class="st1" d="M572,301.4h1.3v6.2H572V301.4z"/>
		<path class="st1" d="M574.5,301.4h1.4v1.1h-1.4V301.4z M574.5,303h1.3v4.5h-1.3V303z"/>
		<path class="st1" d="M576.6,303h1.4l1,3l1-3h1.3l-1.8,4.6h-1.2L576.6,303z"/>
		<path class="st1" d="M581.6,305.3L581.6,305.3c0-1.3,0.9-2.4,2.2-2.4c1.5,0,2.2,1.2,2.2,2.5c0,0.1,0,0.2,0,0.3h-3.2
			c0.1,0.6,0.5,0.9,1.1,0.9c0.4,0,0.7-0.1,1.1-0.5l0.7,0.7c-0.4,0.5-1,0.8-1.9,0.8C582.6,307.6,581.6,306.7,581.6,305.3z
			 M584.8,304.9c-0.1-0.6-0.4-1-1-1c-0.5,0-0.9,0.4-1,1H584.8z"/>
		<path class="st1" d="M587,303h1.3v0.9c0.3-0.6,0.7-1,1.4-1v1.3h-0.1c-0.9,0-1.4,0.5-1.4,1.6v1.7h-1.3L587,303L587,303z"/>
		<path class="st1" d="M590.2,305.3L590.2,305.3c0-1.3,0.9-2.4,2.2-2.4c1.5,0,2.2,1.2,2.2,2.5c0,0.1,0,0.2,0,0.3h-3.2
			c0.1,0.6,0.5,0.9,1.1,0.9c0.4,0,0.7-0.1,1.1-0.5l0.7,0.7c-0.4,0.5-1,0.8-1.9,0.8C591.2,307.6,590.2,306.7,590.2,305.3z
			 M593.4,304.9c-0.1-0.6-0.4-1-1-1c-0.5,0-0.9,0.4-1,1H593.4z"/>
		<path class="st1" d="M595.4,305.3L595.4,305.3c0-1.5,1-2.4,2.1-2.4c0.7,0,1.1,0.3,1.4,0.7v-2.2h1.3v6.2h-1.3v-0.7
			c-0.3,0.4-0.7,0.7-1.4,0.7C596.4,307.6,595.4,306.8,595.4,305.3z M598.9,305.3L598.9,305.3c0-0.8-0.5-1.3-1.1-1.3
			s-1.1,0.5-1.1,1.3l0,0c0,0.8,0.5,1.3,1.1,1.3C598.4,306.5,598.9,306,598.9,305.3z"/>
	</g>
	<rect x="548.3" y="184.2" class="st4" width="63.7" height="63.7"/>
	<g>
		<g>
			<g>
				<path class="st1" d="M596.3,228h-32.4c-0.7,0-1.2-0.5-1.2-1.2v-9.2c0-0.7,0.5-1.2,1.2-1.2h32.4c0.7,0,1.2,0.5,1.2,1.2v9.2
					C597.5,227.4,597,228,596.3,228L596.3,228z M565.2,225.6h30v-6.9h-30V225.6L565.2,225.6z"/>
			</g>
			<path class="st1" d="M568.4,220.7c-0.8,0-1.4,0.6-1.4,1.4s0.6,1.4,1.4,1.4c0.8,0,1.4-0.6,1.4-1.4S569.1,220.7,568.4,220.7
				L568.4,220.7z"/>
			<path class="st1" d="M572.9,220.7c-0.8,0-1.4,0.6-1.4,1.4s0.6,1.4,1.4,1.4c0.8,0,1.4-0.6,1.4-1.4S573.7,220.7,572.9,220.7
				L572.9,220.7z"/>
			<path class="st1" d="M577.5,220.7c-0.8,0-1.4,0.6-1.4,1.4s0.6,1.4,1.4,1.4c0.8,0,1.4-0.6,1.4-1.4S578.2,220.7,577.5,220.7
				L577.5,220.7z"/>
		</g>
		<g>
			<g>
				<path class="st1" d="M596.3,215.4h-32.4c-0.7,0-1.2-0.5-1.2-1.2V205c0-0.7,0.5-1.2,1.2-1.2h32.4c0.7,0,1.2,0.5,1.2,1.2v9.2
					C597.5,214.8,597,215.4,596.3,215.4L596.3,215.4z M565.2,213h30v-6.9h-30V213L565.2,213z"/>
			</g>
			<path class="st1" d="M568.4,208.1c-0.8,0-1.4,0.6-1.4,1.4s0.6,1.4,1.4,1.4c0.8,0,1.4-0.6,1.4-1.4S569.1,208.1,568.4,208.1
				L568.4,208.1z"/>
			<path class="st1" d="M572.9,208.1c-0.8,0-1.4,0.6-1.4,1.4s0.6,1.4,1.4,1.4c0.8,0,1.4-0.6,1.4-1.4S573.7,208.1,572.9,208.1
				L572.9,208.1z"/>
			<path class="st1" d="M577.5,208.1c-0.8,0-1.4,0.6-1.4,1.4s0.6,1.4,1.4,1.4c0.8,0,1.4-0.6,1.4-1.4S578.2,208.1,577.5,208.1
				L577.5,208.1z"/>
		</g>
		<g>
			<g>
				<path class="st1" d="M596.3,202.8h-32.4c-0.7,0-1.2-0.5-1.2-1.2v-9.2c0-0.7,0.5-1.2,1.2-1.2h32.4c0.7,0,1.2,0.5,1.2,1.2v9.2
					C597.5,202.2,597,202.8,596.3,202.8L596.3,202.8z M565.2,200.4h30v-6.9h-30V200.4L565.2,200.4z"/>
			</g>
			<path class="st1" d="M568.4,195.6c-0.8,0-1.4,0.6-1.4,1.4s0.6,1.4,1.4,1.4c0.8,0,1.4-0.6,1.4-1.4S569.1,195.6,568.4,195.6
				L568.4,195.6z"/>
			<path class="st1" d="M572.9,195.6c-0.8,0-1.4,0.6-1.4,1.4s0.6,1.4,1.4,1.4c0.8,0,1.4-0.6,1.4-1.4S573.7,195.6,572.9,195.6
				L572.9,195.6z"/>
			<path class="st1" d="M577.5,195.6c-0.8,0-1.4,0.6-1.4,1.4s0.6,1.4,1.4,1.4c0.8,0,1.4-0.6,1.4-1.4S578.2,195.6,577.5,195.6
				L577.5,195.6z"/>
		</g>
	</g>
	<g>
		<path class="st1" d="M559.9,233.6h2.7c0.8,0,1.3,0.2,1.7,0.6c0.3,0.3,0.5,0.8,0.5,1.4l0,0c0,1-0.5,1.6-1.3,1.8l1.4,2.1h-1.5
			l-1.3-1.9h-1v1.9h-1.3L559.9,233.6L559.9,233.6z M562.5,236.5c0.6,0,1-0.3,1-0.8l0,0c0-0.6-0.4-0.8-1-0.8h-1.3v1.7L562.5,236.5
			L562.5,236.5z"/>
		<path class="st1" d="M565.5,237.3L565.5,237.3c0-1.3,0.9-2.4,2.2-2.4c1.5,0,2.2,1.2,2.2,2.5c0,0.1,0,0.2,0,0.3h-3.2
			c0.1,0.6,0.5,0.9,1.1,0.9c0.4,0,0.7-0.1,1.1-0.5l0.7,0.7c-0.4,0.5-1,0.8-1.9,0.8C566.6,239.6,565.5,238.7,565.5,237.3z
			 M568.7,236.9c-0.1-0.6-0.4-1-1-1c-0.5,0-0.9,0.4-1,1H568.7z"/>
		<path class="st1" d="M570.9,233.3h1.3v2.3c0.3-0.4,0.7-0.7,1.3-0.7c1,0,1.5,0.6,1.5,1.7v2.9h-1.3V237c0-0.6-0.3-0.9-0.8-0.9
			s-0.8,0.3-0.8,0.9v2.5h-1.3L570.9,233.3L570.9,233.3z"/>
		<path class="st1" d="M576,237.3L576,237.3c0-1.3,0.9-2.4,2.2-2.4c1.5,0,2.2,1.2,2.2,2.5c0,0.1,0,0.2,0,0.3h-3.2
			c0.1,0.6,0.5,0.9,1.1,0.9c0.4,0,0.7-0.1,1.1-0.5l0.7,0.7c-0.4,0.5-1,0.8-1.9,0.8C577,239.6,576,238.7,576,237.3z M579.2,236.9
			c-0.1-0.6-0.4-1-1-1c-0.5,0-0.9,0.4-1,1H579.2z"/>
		<path class="st1" d="M581.1,238.2L581.1,238.2c0-1,0.8-1.5,1.8-1.5c0.5,0,0.8,0.1,1.1,0.2v-0.1c0-0.5-0.3-0.8-1-0.8
			c-0.5,0-0.8,0.1-1.3,0.2l-0.3-1c0.5-0.2,1-0.4,1.8-0.4c0.7,0,1.2,0.2,1.5,0.5s0.5,0.8,0.5,1.4v2.6H584V239
			c-0.3,0.3-0.7,0.6-1.4,0.6C581.8,239.6,581.1,239.1,581.1,238.2z M584.1,237.9v-0.2c-0.2-0.1-0.5-0.2-0.8-0.2
			c-0.5,0-0.9,0.2-0.9,0.6l0,0c0,0.3,0.3,0.5,0.7,0.5C583.7,238.7,584.1,238.4,584.1,237.9z"/>
		<path class="st1" d="M586.4,235h1.3v0.9c0.3-0.6,0.7-1,1.4-1v1.3l0,0c-0.9,0-1.4,0.5-1.4,1.6v1.7h-1.3V235z"/>
		<path class="st1" d="M589.6,238.9l0.5-0.8c0.5,0.4,1,0.5,1.4,0.5s0.5-0.1,0.5-0.3l0,0c0-0.3-0.4-0.4-0.9-0.5
			c-0.6-0.2-1.4-0.5-1.4-1.4l0,0c0-0.9,0.7-1.4,1.7-1.4c0.6,0,1.2,0.2,1.7,0.5l-0.5,0.9c-0.4-0.3-0.9-0.4-1.2-0.4s-0.5,0.1-0.5,0.3
			l0,0c0,0.3,0.4,0.4,0.9,0.5c0.6,0.2,1.4,0.5,1.4,1.3l0,0c0,1-0.8,1.5-1.7,1.5C590.9,239.6,590.2,239.4,589.6,238.9z"/>
		<path class="st1" d="M593.9,238.2L593.9,238.2c0-1,0.8-1.5,1.8-1.5c0.5,0,0.8,0.1,1.1,0.2v-0.1c0-0.5-0.3-0.8-1-0.8
			c-0.5,0-0.8,0.1-1.3,0.2l-0.3-1c0.5-0.2,1-0.4,1.8-0.4c0.7,0,1.2,0.2,1.5,0.5s0.5,0.8,0.5,1.4v2.6h-1.2V239
			c-0.3,0.3-0.7,0.6-1.4,0.6C594.6,239.6,593.9,239.1,593.9,238.2z M596.9,237.9v-0.2c-0.2-0.1-0.5-0.2-0.8-0.2
			c-0.5,0-0.9,0.2-0.9,0.6l0,0c0,0.3,0.3,0.5,0.7,0.5C596.4,238.7,596.9,238.4,596.9,237.9z"/>
		<path class="st1" d="M599.2,233.3h1.3v6.2h-1.3V233.3z"/>
	</g>
	<rect x="548.3" y="116.2" class="st4" width="63.7" height="63.7"/>
	<g>
		<g>
			<g>
				<path class="st1" d="M596.3,159.9h-32.4c-0.7,0-1.2-0.5-1.2-1.2v-9.2c0-0.7,0.5-1.2,1.2-1.2h32.4c0.7,0,1.2,0.5,1.2,1.2v9.2
					C597.5,159.4,597,159.9,596.3,159.9L596.3,159.9z M565.2,157.6h30v-6.9h-30V157.6L565.2,157.6z"/>
			</g>
			<path class="st1" d="M568.4,152.7c-0.8,0-1.4,0.6-1.4,1.4c0,0.8,0.6,1.4,1.4,1.4c0.8,0,1.4-0.6,1.4-1.4S569.1,152.7,568.4,152.7
				L568.4,152.7z"/>
			<path class="st1" d="M572.9,152.7c-0.8,0-1.4,0.6-1.4,1.4c0,0.8,0.6,1.4,1.4,1.4c0.8,0,1.4-0.6,1.4-1.4S573.7,152.7,572.9,152.7
				L572.9,152.7z"/>
			<path class="st1" d="M577.5,152.7c-0.8,0-1.4,0.6-1.4,1.4c0,0.8,0.6,1.4,1.4,1.4c0.8,0,1.4-0.6,1.4-1.4
				C578.9,153.3,578.2,152.7,577.5,152.7L577.5,152.7z"/>
		</g>
		<g>
			<g>
				<path class="st1" d="M596.3,147.3h-32.4c-0.7,0-1.2-0.5-1.2-1.2v-9.2c0-0.7,0.5-1.2,1.2-1.2h32.4c0.7,0,1.2,0.5,1.2,1.2v9.2
					C597.5,146.8,597,147.3,596.3,147.3L596.3,147.3z M565.2,145h30v-6.9h-30V145L565.2,145z"/>
			</g>
			<path class="st1" d="M568.4,140.1c-0.8,0-1.4,0.6-1.4,1.4c0,0.8,0.6,1.4,1.4,1.4c0.8,0,1.4-0.6,1.4-1.4
				C569.8,140.7,569.1,140.1,568.4,140.1L568.4,140.1z"/>
			<path class="st1" d="M572.9,140.1c-0.8,0-1.4,0.6-1.4,1.4c0,0.8,0.6,1.4,1.4,1.4c0.8,0,1.4-0.6,1.4-1.4
				C574.3,140.7,573.7,140.1,572.9,140.1L572.9,140.1z"/>
			<path class="st1" d="M577.5,140.1c-0.8,0-1.4,0.6-1.4,1.4c0,0.8,0.6,1.4,1.4,1.4c0.8,0,1.4-0.6,1.4-1.4
				C578.9,140.7,578.2,140.1,577.5,140.1L577.5,140.1z"/>
		</g>
		<g>
			<g>
				<path class="st1" d="M596.3,134.7h-32.4c-0.7,0-1.2-0.5-1.2-1.2v-9.2c0-0.7,0.5-1.2,1.2-1.2h32.4c0.7,0,1.2,0.5,1.2,1.2v9.2
					C597.5,134.2,597,134.7,596.3,134.7L596.3,134.7z M565.2,132.4h30v-6.9h-30V132.4L565.2,132.4z"/>
			</g>
			<path class="st1" d="M568.4,127.5c-0.8,0-1.4,0.6-1.4,1.4c0,0.8,0.6,1.4,1.4,1.4c0.8,0,1.4-0.6,1.4-1.4
				C569.8,128.2,569.1,127.5,568.4,127.5L568.4,127.5z"/>
			<path class="st1" d="M572.9,127.5c-0.8,0-1.4,0.6-1.4,1.4c0,0.8,0.6,1.4,1.4,1.4c0.8,0,1.4-0.6,1.4-1.4
				C574.3,128.2,573.7,127.5,572.9,127.5L572.9,127.5z"/>
			<path class="st1" d="M577.5,127.5c-0.8,0-1.4,0.6-1.4,1.4c0,0.8,0.6,1.4,1.4,1.4c0.8,0,1.4-0.6,1.4-1.4
				C578.9,128.2,578.2,127.5,577.5,127.5L577.5,127.5z"/>
		</g>
	</g>
	<g>
		<path class="st1" d="M568.2,169v-3.4h1.3v3.3c0,1,0.5,1.5,1.3,1.5s1.3-0.5,1.3-1.4v-3.4h1.3v3.3c0,1.8-1,2.7-2.6,2.7
			C569.2,171.6,568.2,170.7,568.2,169z"/>
		<path class="st1" d="M574.6,167h1.3v0.6c0.3-0.4,0.7-0.7,1.3-0.7c1,0,1.5,0.6,1.5,1.7v2.9h-1.3V169c0-0.6-0.3-0.9-0.8-0.9
			s-0.8,0.3-0.8,0.9v2.5h-1.3L574.6,167L574.6,167z"/>
		<path class="st1" d="M579.9,165.3h1.4v1.1h-1.4V165.3z M579.9,167h1.3v4.5h-1.3V167z"/>
		<path class="st1" d="M582.2,169.2L582.2,169.2c0-1.3,1-2.4,2.5-2.4c1.4,0,2.4,1,2.4,2.3l0,0c0,1.3-1,2.4-2.5,2.4
			C583.2,171.6,582.2,170.6,582.2,169.2z M585.8,169.2L585.8,169.2c0-0.7-0.5-1.3-1.2-1.3s-1.2,0.6-1.2,1.2l0,0
			c0,0.7,0.5,1.3,1.2,1.3C585.4,170.5,585.8,169.9,585.8,169.2z"/>
		<path class="st1" d="M588,167h1.3v0.6c0.3-0.4,0.7-0.7,1.3-0.7c1,0,1.5,0.6,1.5,1.7v2.9h-1.3V169c0-0.6-0.3-0.9-0.8-0.9
			s-0.8,0.3-0.8,0.9v2.5h-1.3L588,167L588,167z"/>
	</g>
	<g>
		<rect x="548.3" y="48.2" class="st5" width="63.7" height="63.7"/>
		<g>
			<g>
				<g>
					<path class="st1" d="M596.3,91.9h-32.4c-0.7,0-1.2-0.5-1.2-1.2v-9.2c0-0.7,0.5-1.2,1.2-1.2h32.4c0.7,0,1.2,0.5,1.2,1.2v9.2
						C597.5,91.4,597,91.9,596.3,91.9L596.3,91.9z M565.2,89.5h30v-6.9h-30V89.5L565.2,89.5z"/>
				</g>
				<path class="st1" d="M568.4,84.7c-0.8,0-1.4,0.6-1.4,1.4s0.6,1.4,1.4,1.4c0.8,0,1.4-0.6,1.4-1.4
					C569.8,85.3,569.1,84.7,568.4,84.7L568.4,84.7z"/>
				<path class="st1" d="M572.9,84.7c-0.8,0-1.4,0.6-1.4,1.4s0.6,1.4,1.4,1.4c0.8,0,1.4-0.6,1.4-1.4
					C574.3,85.3,573.7,84.7,572.9,84.7L572.9,84.7z"/>
				<path class="st1" d="M577.5,84.7c-0.8,0-1.4,0.6-1.4,1.4s0.6,1.4,1.4,1.4c0.8,0,1.4-0.6,1.4-1.4
					C578.9,85.3,578.2,84.7,577.5,84.7L577.5,84.7z"/>
			</g>
			<g>
				<g>
					<path class="st1" d="M596.3,79.3h-32.4c-0.7,0-1.2-0.5-1.2-1.2v-9.2c0-0.7,0.5-1.2,1.2-1.2h32.4c0.7,0,1.2,0.5,1.2,1.2v9.2
						C597.5,78.8,597,79.3,596.3,79.3L596.3,79.3z M565.2,76.9h30V70h-30V76.9L565.2,76.9z"/>
				</g>
				<path class="st1" d="M568.4,72.1c-0.8,0-1.4,0.6-1.4,1.4s0.6,1.4,1.4,1.4c0.8,0,1.4-0.6,1.4-1.4S569.1,72.1,568.4,72.1
					L568.4,72.1z"/>
				<path class="st1" d="M572.9,72.1c-0.8,0-1.4,0.6-1.4,1.4s0.6,1.4,1.4,1.4c0.8,0,1.4-0.6,1.4-1.4S573.7,72.1,572.9,72.1
					L572.9,72.1z"/>
				<path class="st1" d="M577.5,72.1c-0.8,0-1.4,0.6-1.4,1.4s0.6,1.4,1.4,1.4c0.8,0,1.4-0.6,1.4-1.4
					C578.9,72.7,578.2,72.1,577.5,72.1L577.5,72.1z"/>
			</g>
			<g>
				<g>
					<path class="st1" d="M596.3,66.7h-32.4c-0.7,0-1.2-0.5-1.2-1.2v-9.2c0-0.7,0.5-1.2,1.2-1.2h32.4c0.7,0,1.2,0.5,1.2,1.2v9.2
						C597.5,66.2,597,66.7,596.3,66.7L596.3,66.7z M565.2,64.3h30v-6.9h-30V64.3L565.2,64.3z"/>
				</g>
				<path class="st1" d="M568.4,59.5c-0.8,0-1.4,0.6-1.4,1.4s0.6,1.4,1.4,1.4c0.8,0,1.4-0.6,1.4-1.4S569.1,59.5,568.4,59.5
					L568.4,59.5z"/>
				<path class="st1" d="M572.9,59.5c-0.8,0-1.4,0.6-1.4,1.4s0.6,1.4,1.4,1.4c0.8,0,1.4-0.6,1.4-1.4S573.7,59.5,572.9,59.5
					L572.9,59.5z"/>
				<path class="st1" d="M577.5,59.5c-0.8,0-1.4,0.6-1.4,1.4s0.6,1.4,1.4,1.4c0.8,0,1.4-0.6,1.4-1.4S578.2,59.5,577.5,59.5
					L577.5,59.5z"/>
			</g>
		</g>
		<g>
			<path class="st1" d="M557.7,97.5h1.2l2.5,6h-1.3l-0.5-1.3h-2.5l-0.5,1.3h-1.3L557.7,97.5z M559.1,101l-0.8-1.9l-0.8,1.9H559.1z"
				/>
			<path class="st1" d="M561.8,101.2L561.8,101.2c0-1.3,1-2.4,2.4-2.4c0.9,0,1.4,0.3,1.8,0.8l-0.8,0.8c-0.3-0.3-0.6-0.5-1-0.5
				c-0.6,0-1.1,0.6-1.1,1.2l0,0c0,0.7,0.4,1.3,1.1,1.3c0.4,0,0.7-0.2,1-0.5l0.8,0.8c-0.4,0.5-0.9,0.8-1.9,0.8
				C562.8,103.6,561.8,102.5,561.8,101.2z"/>
			<path class="st1" d="M566.5,101.2L566.5,101.2c0-1.3,1-2.4,2.4-2.4c0.9,0,1.4,0.3,1.8,0.8l-0.8,0.8c-0.3-0.3-0.6-0.5-1-0.5
				c-0.6,0-1.1,0.6-1.1,1.2l0,0c0,0.7,0.4,1.3,1.1,1.3c0.4,0,0.7-0.2,1-0.5l0.8,0.8c-0.4,0.5-0.9,0.8-1.9,0.8
				C567.5,103.6,566.5,102.5,566.5,101.2z"/>
			<path class="st1" d="M571.2,101.2L571.2,101.2c0-1.3,0.9-2.4,2.2-2.4c1.5,0,2.2,1.2,2.2,2.5c0,0.1,0,0.2,0,0.3h-3.2
				c0.1,0.6,0.5,0.9,1.1,0.9c0.4,0,0.7-0.1,1.1-0.5l0.7,0.7c-0.4,0.5-1,0.8-1.9,0.8C572.2,103.6,571.2,102.6,571.2,101.2z
				 M574.4,100.8c-0.1-0.6-0.4-1-1-1c-0.5,0-0.9,0.4-1,1H574.4z"/>
			<path class="st1" d="M576.6,98.9h1.3v0.7c0.3-0.4,0.7-0.7,1.4-0.7c1.1,0,2.1,0.8,2.1,2.3l0,0c0,1.5-1,2.3-2.1,2.3
				c-0.7,0-1.1-0.3-1.4-0.7v1.9h-1.3V98.9z M580.1,101.2L580.1,101.2c0-0.8-0.5-1.3-1.1-1.3s-1.1,0.5-1.1,1.3l0,0
				c0,0.8,0.5,1.3,1.1,1.3C579.5,102.5,580.1,102,580.1,101.2z"/>
			<path class="st1" d="M582.5,102.2V100H582v-1.1h0.5v-1.2h1.3v1.2h1.1v1.1h-1.1v1.9c0,0.3,0.1,0.4,0.4,0.4c0.2,0,0.4-0.1,0.6-0.2
				v1c-0.3,0.2-0.6,0.3-1,0.3C583,103.5,582.5,103.2,582.5,102.2z"/>
			<path class="st1" d="M585.5,102.2L585.5,102.2c0-1,0.8-1.5,1.8-1.5c0.5,0,0.8,0.1,1.1,0.2v-0.1c0-0.5-0.3-0.8-1-0.8
				c-0.5,0-0.8,0.1-1.3,0.2l-0.3-1c0.5-0.2,1-0.4,1.8-0.4c0.7,0,1.2,0.2,1.5,0.5s0.5,0.8,0.5,1.4v2.6h-1.2V103
				c-0.3,0.3-0.7,0.6-1.4,0.6C586.2,103.5,585.5,103.1,585.5,102.2z M588.5,101.9v-0.2c-0.2-0.1-0.5-0.2-0.8-0.2
				c-0.5,0-0.9,0.2-0.9,0.6l0,0c0,0.3,0.3,0.5,0.7,0.5C588.1,102.7,588.5,102.3,588.5,101.9z"/>
			<path class="st1" d="M590.8,98.9h1.3v0.6c0.3-0.4,0.7-0.7,1.3-0.7c1,0,1.5,0.6,1.5,1.7v2.9h-1.3v-2.5c0-0.6-0.3-0.9-0.8-0.9
				s-0.8,0.3-0.8,0.9v2.5h-1.3L590.8,98.9L590.8,98.9z"/>
			<path class="st1" d="M595.8,101.2L595.8,101.2c0-1.3,1-2.4,2.4-2.4c0.9,0,1.4,0.3,1.8,0.8l-0.8,0.8c-0.3-0.3-0.6-0.5-1-0.5
				c-0.6,0-1.1,0.6-1.1,1.2l0,0c0,0.7,0.4,1.3,1.1,1.3c0.4,0,0.7-0.2,1-0.5l0.8,0.8c-0.4,0.5-0.9,0.8-1.9,0.8
				C596.8,103.6,595.8,102.5,595.8,101.2z"/>
			<path class="st1" d="M600.5,101.2L600.5,101.2c0-1.3,0.9-2.4,2.2-2.4c1.5,0,2.2,1.2,2.2,2.5c0,0.1,0,0.2,0,0.3h-3.2
				c0.1,0.6,0.5,0.9,1.1,0.9c0.4,0,0.7-0.1,1.1-0.5l0.7,0.7c-0.4,0.5-1,0.8-1.9,0.8C601.5,103.6,600.5,102.6,600.5,101.2z
				 M603.7,100.8c-0.1-0.6-0.4-1-1-1c-0.5,0-0.9,0.4-1,1H603.7z"/>
		</g>
	</g>
</g>
<g>
	<rect x="25.2" y="28.1" class="st3" width="126.6" height="126.6"/>
	<g>
		<path class="st1" d="M36.7,129.7v-3.4h-0.9v-1.8h0.9v-1.8h2v1.8h1.7v1.8h-1.7v3.1c0,0.5,0.2,0.7,0.7,0.7c0.4,0,0.7-0.1,1-0.3v1.6
			c-0.4,0.3-0.9,0.4-1.6,0.4C37.5,131.9,36.7,131.4,36.7,129.7z"/>
		<path class="st1" d="M41.4,128.2L41.4,128.2c0-2.1,1.5-3.8,3.6-3.8c2.4,0,3.5,1.9,3.5,3.9c0,0.2,0,0.4,0,0.5h-5
			c0.2,0.9,0.8,1.4,1.8,1.4c0.7,0,1.2-0.2,1.8-0.7l1.2,1c-0.7,0.8-1.6,1.3-3,1.3C43,131.9,41.4,130.4,41.4,128.2z M46.5,127.6
			c-0.1-0.9-0.7-1.5-1.5-1.5s-1.4,0.6-1.6,1.5H46.5z"/>
		<path class="st1" d="M49.5,129.7L49.5,129.7c0-1.6,1.2-2.3,2.9-2.3c0.7,0,1.3,0.1,1.8,0.3v-0.1c0-0.8-0.5-1.3-1.5-1.3
			c-0.8,0-1.3,0.1-2,0.4l-0.5-1.6c0.8-0.3,1.6-0.6,2.8-0.6c1.1,0,1.9,0.3,2.4,0.8s0.8,1.3,0.8,2.3v4.2h-2V131
			c-0.5,0.6-1.2,0.9-2.2,0.9C50.7,131.9,49.5,131.1,49.5,129.7z M54.2,129.2v-0.4c-0.4-0.2-0.8-0.3-1.3-0.3c-0.9,0-1.4,0.4-1.4,1
			l0,0c0,0.6,0.5,0.9,1.1,0.9C53.6,130.5,54.2,130,54.2,129.2z"/>
		<path class="st1" d="M57.9,124.5h2v1c0.5-0.6,1.1-1.2,2.1-1.2c0.9,0,1.7,0.4,2,1.1c0.6-0.7,1.4-1.1,2.4-1.1c1.5,0,2.4,0.9,2.4,2.7
			v4.7h-2v-4c0-1-0.4-1.5-1.2-1.5s-1.2,0.5-1.2,1.5v4h-2v-4c0-1-0.4-1.5-1.2-1.5s-1.2,0.6-1.2,1.5v4h-2L57.9,124.5L57.9,124.5z"/>
		<path class="st1" d="M74.8,124.5h2v1c0.5-0.6,1.1-1.2,2.1-1.2c0.9,0,1.7,0.4,2,1.1c0.6-0.7,1.4-1.1,2.4-1.1c1.5,0,2.4,0.9,2.4,2.7
			v4.7h-2v-4c0-1-0.4-1.5-1.2-1.5s-1.2,0.5-1.2,1.5v4h-2v-4c0-1-0.4-1.5-1.2-1.5s-1.2,0.5-1.2,1.5v4h-2v-7.2H74.8z"/>
		<path class="st1" d="M87.2,128.2L87.2,128.2c0-2.1,1.5-3.8,3.6-3.8c2.4,0,3.5,1.9,3.5,3.9c0,0.2,0,0.4,0,0.5h-5
			c0.2,0.9,0.8,1.4,1.8,1.4c0.7,0,1.2-0.2,1.8-0.7l1.2,1c-0.7,0.8-1.6,1.3-3,1.3C88.8,131.9,87.2,130.4,87.2,128.2z M92.3,127.6
			c-0.1-0.9-0.7-1.5-1.5-1.5s-1.4,0.6-1.6,1.5H92.3z"/>
		<path class="st1" d="M95.8,124.5h2v1c0.5-0.6,1.1-1.2,2.1-1.2c0.9,0,1.7,0.4,2,1.1c0.6-0.7,1.4-1.1,2.4-1.1c1.5,0,2.4,0.9,2.4,2.7
			v4.7h-2v-4c0-1-0.4-1.5-1.2-1.5s-1.2,0.5-1.2,1.5v4h-2v-4c0-1-0.4-1.5-1.2-1.5c-0.8,0-1.2,0.5-1.2,1.5v4h-2v-7.2H95.8z"/>
		<path class="st1" d="M110.7,130.8v0.9h-2v-9.8h2v3.7c0.5-0.7,1.2-1.2,2.2-1.2c1.7,0,3.3,1.3,3.3,3.7l0,0c0,2.4-1.6,3.7-3.3,3.7
			C111.8,131.9,111.2,131.4,110.7,130.8z M114.2,128.2L114.2,128.2c0-1.2-0.8-2-1.8-2s-1.8,0.8-1.8,2l0,0c0,1.2,0.8,2,1.8,2
			C113.4,130.2,114.2,129.4,114.2,128.2z"/>
		<path class="st1" d="M117.4,128.2L117.4,128.2c0-2.1,1.5-3.8,3.6-3.8c2.4,0,3.5,1.9,3.5,3.9c0,0.2,0,0.4,0,0.5h-5
			c0.2,0.9,0.8,1.4,1.8,1.4c0.7,0,1.2-0.2,1.8-0.7l1.2,1c-0.7,0.8-1.6,1.3-3,1.3C119,131.9,117.4,130.4,117.4,128.2z M122.5,127.6
			c-0.1-0.9-0.7-1.5-1.5-1.5s-1.4,0.6-1.6,1.5H122.5z"/>
		<path class="st1" d="M126,124.5h2v1.5c0.4-1,1.1-1.6,2.3-1.6v2.1h-0.1c-1.4,0-2.2,0.8-2.2,2.5v2.7h-2V124.5z"/>
		<path class="st1" d="M131.6,125.8c0.9-0.1,1.4-0.6,1.3-1.3h-0.8v-2.2h2.2v1.8c0,1.8-0.9,2.5-2.5,2.5L131.6,125.8z"/>
		<path class="st1" d="M135.2,130.8l0.9-1.3c0.8,0.6,1.6,0.9,2.3,0.9c0.6,0,0.9-0.2,0.9-0.5l0,0c0-0.4-0.7-0.6-1.5-0.8
			c-1-0.3-2.2-0.8-2.2-2.2l0,0c0-1.5,1.2-2.3,2.6-2.3c0.9,0,1.9,0.3,2.7,0.8l-0.8,1.4c-0.7-0.4-1.4-0.7-2-0.7
			c-0.5,0-0.8,0.2-0.8,0.5l0,0c0,0.4,0.7,0.6,1.5,0.9c1,0.3,2.2,0.8,2.2,2.1l0,0c0,1.6-1.2,2.3-2.8,2.3
			C137.2,131.9,136.1,131.6,135.2,130.8z"/>
		<path class="st1" d="M48.4,140.7h2.1l1.2,4.4l1.4-4.4h1.8l1.4,4.4l1.2-4.4h2l-2.2,7.3h-1.8l-1.4-4.4l-1.4,4.4h-1.8L48.4,140.7z"/>
		<path class="st1" d="M59.9,144.4L59.9,144.4c0-2.1,1.7-3.8,3.9-3.8c2.2,0,3.9,1.7,3.9,3.7l0,0c0,2.1-1.7,3.8-3.9,3.8
			C61.5,148.1,59.9,146.4,59.9,144.4z M65.6,144.4L65.6,144.4c0-1.1-0.8-2-1.9-2c-1.2,0-1.9,0.9-1.9,2l0,0c0,1.1,0.8,2,1.9,2
			C64.9,146.3,65.6,145.4,65.6,144.4z"/>
		<path class="st1" d="M69.1,140.7h2v1.5c0.4-1,1.1-1.6,2.3-1.6v2.1h-0.1c-1.4,0-2.2,0.8-2.2,2.5v2.7h-2
			C69.1,147.9,69.1,140.7,69.1,140.7z"/>
		<path class="st1" d="M74.8,138.1h2v5.2l2.4-2.6h2.5l-2.7,2.8l2.8,4.4h-2.4l-1.8-3l-0.7,0.8v2.2h-2v-9.8H74.8z"/>
		<path class="st1" d="M82.2,147l0.9-1.3c0.8,0.6,1.6,0.9,2.3,0.9c0.6,0,0.9-0.2,0.9-0.5l0,0c0-0.4-0.7-0.6-1.5-0.8
			c-1-0.3-2.2-0.8-2.2-2.2l0,0c0-1.5,1.2-2.3,2.6-2.3c0.9,0,1.9,0.3,2.7,0.8l-0.8,1.4c-0.7-0.4-1.4-0.7-2-0.7
			c-0.5,0-0.8,0.2-0.8,0.5l0,0c0,0.4,0.7,0.6,1.5,0.9c1,0.3,2.2,0.8,2.2,2.1l0,0c0,1.6-1.2,2.3-2.8,2.3
			C84.3,148.1,83.1,147.7,82.2,147z"/>
		<path class="st1" d="M89.7,145.9v-3.4h-0.9v-1.8h0.9v-1.8h2v1.8h1.7v1.8h-1.7v3.1c0,0.5,0.2,0.7,0.7,0.7c0.4,0,0.7-0.1,1-0.3v1.6
			c-0.4,0.3-0.9,0.4-1.6,0.4C90.6,148,89.7,147.5,89.7,145.9z"/>
		<path class="st1" d="M94.5,145.8L94.5,145.8c0-1.6,1.2-2.3,2.9-2.3c0.7,0,1.3,0.1,1.8,0.3v-0.1c0-0.8-0.5-1.3-1.5-1.3
			c-0.8,0-1.3,0.1-2,0.4l-0.5-1.6c0.8-0.3,1.6-0.6,2.8-0.6c1.1,0,1.9,0.3,2.4,0.8s0.8,1.3,0.8,2.3v4.2h-2v-0.8
			c-0.5,0.6-1.2,0.9-2.2,0.9C95.7,148.1,94.5,147.3,94.5,145.8z M99.2,145.4V145c-0.4-0.2-0.8-0.3-1.3-0.3c-0.9,0-1.4,0.4-1.4,1l0,0
			c0,0.6,0.5,0.9,1.1,0.9C98.6,146.6,99.2,146.1,99.2,145.4z"/>
		<path class="st1" d="M103.2,145.9v-3.4h-0.9v-1.8h0.9v-1.8h2v1.8h1.7v1.8h-1.7v3.1c0,0.5,0.2,0.7,0.7,0.7c0.4,0,0.7-0.1,1-0.3v1.6
			c-0.4,0.3-0.9,0.4-1.6,0.4C104.1,148,103.2,147.5,103.2,145.9z"/>
		<path class="st1" d="M108.5,138.1h2.2v1.8h-2.2V138.1z M108.6,140.7h2v7.2h-2V140.7z"/>
		<path class="st1" d="M112.2,144.4L112.2,144.4c0-2.1,1.7-3.8,3.9-3.8c2.2,0,3.9,1.7,3.9,3.7l0,0c0,2.1-1.7,3.8-3.9,3.8
			C113.8,148.1,112.2,146.4,112.2,144.4z M118,144.4L118,144.4c0-1.1-0.8-2-1.9-2c-1.2,0-1.9,0.9-1.9,2l0,0c0,1.1,0.8,2,1.9,2
			C117.3,146.3,118,145.4,118,144.4z"/>
		<path class="st1" d="M121.5,140.7h2v1c0.5-0.6,1.1-1.2,2.1-1.2c1.5,0,2.5,1,2.5,2.7v4.7h-2v-4c0-1-0.5-1.5-1.2-1.5
			s-1.3,0.5-1.3,1.5v4h-2v-7.2H121.5z"/>
	</g>
	<g>
		<g>
			<path class="st1" d="M129.1,100.9H46.7c-2.1,0-3.7-1.7-3.7-3.7V44.8c0-2.1,1.7-3.7,3.7-3.7h82.4c2.1,0,3.7,1.7,3.7,3.7v52.4
				C132.8,99.2,131.1,100.9,129.1,100.9L129.1,100.9z M50.4,93.4h74.9V48.5H50.4V93.4L50.4,93.4z"/>
		</g>
		<g>
			<path class="st1" d="M121.6,91.6H54.2c-1,0-1.9-0.8-1.9-1.9V52.2c0-1,0.8-1.9,1.9-1.9h67.4c1,0,1.9,0.8,1.9,1.9v37.5
				C123.4,90.7,122.6,91.6,121.6,91.6L121.6,91.6z M56,87.8h63.7V54.1H56V87.8L56,87.8z"/>
		</g>
		<g>
			<path class="st1" d="M140.6,111.8H36.4c-2.1,0-3.7-1.7-3.7-3.7c0-2.1,1.7-3.7,3.7-3.7h104.2c2.1,0,3.7,1.7,3.7,3.7
				C144.4,110.2,142.7,111.8,140.6,111.8L140.6,111.8z"/>
		</g>
	</g>
</g>
<g>
	<path class="st0" d="M62.2,0.1h3.1L68.6,9l3.2-8.9h3l-5.1,12.7h-2.4L62.2,0.1z"/>
	<path class="st0" d="M76.8,0.1h5.1c3,0,4.8,1.8,4.8,4.4l0,0c0,2.9-2.3,4.4-5.1,4.4h-2.1v3.8h-2.7V0.1z M81.7,6.4
		c1.4,0,2.2-0.8,2.2-1.9l0,0c0-1.2-0.9-1.9-2.3-1.9h-2.1v3.9h2.2V6.4z"/>
	<path class="st0" d="M88.2,6.4L88.2,6.4c0-3.6,2.7-6.6,6.6-6.6c2.4,0,3.8,0.8,5,1.9l-1.8,2c-1-0.9-2-1.4-3.2-1.4
		c-2.1,0-3.7,1.8-3.7,3.9l0,0c0,2.2,1.5,4,3.7,4c1.4,0,2.3-0.6,3.3-1.5l1.8,1.8c-1.3,1.4-2.7,2.3-5.2,2.3C91,12.9,88.2,10,88.2,6.4z
		"/>
</g>
<rect x="507" y="333.6" class="st2" width="12.2" height="5"/>
<g>
	<g>
		<polygon class="st2" points="207.7,338.6 199.2,338.6 199.2,330.1 204.2,330.1 204.2,333.6 207.7,333.6 		"/>
	</g>
	<g>
		<path class="st2" d="M204.2,324.1h-5V312h5V324.1z M204.2,305.9h-5v-12.1h5V305.9z M204.2,287.8h-5v-12.1h5V287.8z M204.2,269.7
			h-5v-12.1h5V269.7z M204.2,251.6h-5v-12.1h5V251.6z M204.2,233.4h-5v-12.1h5V233.4z M204.2,215.3h-5v-12.1h5V215.3z M204.2,197.2
			h-5v-12.1h5V197.2z M204.2,179.1h-5V167h5V179.1z M204.2,161h-5v-12.1h5V161z M204.2,142.8h-5v-12.1h5V142.8z M204.2,124.7h-5
			v-12.1h5V124.7z M204.2,106.6h-5V94.5h5V106.6z M204.2,88.5h-5V76.4h5V88.5z M204.2,70.3h-5V58.3h5V70.3z M204.2,52.2h-5V40.1h5
			V52.2z"/>
	</g>
	<g>
		<polygon class="st2" points="204.2,34.1 199.2,34.1 199.2,25.6 207.7,25.6 207.7,30.6 204.2,30.6 		"/>
	</g>
	<rect x="378.5" y="333.6" class="st2" width="12.2" height="5"/>
	<rect x="451.7" y="333.6" class="st2" width="12.2" height="5"/>
	<rect x="360.2" y="333.6" class="st2" width="12.2" height="5"/>
	<rect x="341.9" y="333.6" class="st2" width="12.2" height="5"/>
	<rect x="470" y="333.6" class="st2" width="12.2" height="5"/>
	<rect x="433.4" y="333.6" class="st2" width="12.2" height="5"/>
	<rect x="488.3" y="333.6" class="st2" width="12.2" height="5"/>
	<rect x="415.1" y="333.6" class="st2" width="12.2" height="5"/>
	<rect x="396.8" y="333.6" class="st2" width="12.2" height="5"/>
	<rect x="250.4" y="333.6" class="st2" width="12.2" height="5"/>
	<rect x="305.3" y="333.6" class="st2" width="12.2" height="5"/>
	<rect x="287" y="333.6" class="st2" width="12.2" height="5"/>
	<rect x="268.7" y="333.6" class="st2" width="12.2" height="5"/>
	<rect x="232.1" y="333.6" class="st2" width="12.2" height="5"/>
	<rect x="213.8" y="333.6" class="st2" width="12.2" height="5"/>
	<rect x="323.6" y="333.6" class="st2" width="12.2" height="5"/>
	<rect x="250.4" y="25.6" class="st2" width="12.2" height="5"/>
	<rect x="213.8" y="25.6" class="st2" width="12.2" height="5"/>
	<rect x="396.8" y="25.6" class="st2" width="12.2" height="5"/>
	<rect x="232.1" y="25.6" class="st2" width="12.2" height="5"/>
	<rect x="378.5" y="25.6" class="st2" width="12.2" height="5"/>
	<rect x="360.2" y="25.6" class="st2" width="12.2" height="5"/>
	<rect x="323.6" y="25.6" class="st2" width="12.2" height="5"/>
	<rect x="305.3" y="25.6" class="st2" width="12.2" height="5"/>
	<rect x="268.7" y="25.6" class="st2" width="12.2" height="5"/>
	<rect x="433.4" y="25.6" class="st2" width="12.2" height="5"/>
	<rect x="287" y="25.6" class="st2" width="12.2" height="5"/>
	<rect x="341.9" y="25.6" class="st2" width="12.2" height="5"/>
	<rect x="415.1" y="25.6" class="st2" width="12.2" height="5"/>
	<rect x="451.7" y="25.6" class="st2" width="12.2" height="5"/>
	<rect x="488.3" y="25.6" class="st2" width="12.2" height="5"/>
	<rect x="470" y="25.6" class="st2" width="12.2" height="5"/>
	<rect x="506.6" y="25.6" class="st2" width="12.2" height="5"/>
	<g>
		<polygon class="st2" points="528.4,333.6 524.9,333.6 524.9,338.6 533.4,338.6 533.4,330.1 528.4,330.1 		"/>
		<rect x="506.6" y="333.6" class="st2" width="12.2" height="5"/>
		<rect x="506.6" y="25.6" class="st2" width="12.2" height="5"/>
		<polygon class="st2" points="524.9,25.6 524.9,30.6 528.4,30.6 528.4,34.1 533.4,34.1 533.4,25.6 		"/>
		<rect x="528.4" y="112.6" class="st2" width="5" height="12.1"/>
		<rect x="528.4" y="148.9" class="st2" width="5" height="12.1"/>
		<rect x="528.4" y="94.5" class="st2" width="5" height="12.1"/>
		<rect x="528.4" y="130.8" class="st2" width="5" height="12.1"/>
		<rect x="528.4" y="40.1" class="st2" width="5" height="12.1"/>
		<rect x="528.4" y="76.4" class="st2" width="5" height="12.1"/>
		<rect x="528.4" y="58.3" class="st2" width="5" height="12.1"/>
		<rect x="528.4" y="312" class="st2" width="5" height="12.1"/>
		<rect x="528.4" y="257.6" class="st2" width="5" height="12.1"/>
		<rect x="528.4" y="275.7" class="st2" width="5" height="12.1"/>
		<rect x="528.4" y="239.5" class="st2" width="5" height="12.1"/>
		<rect x="528.4" y="293.9" class="st2" width="5" height="12.1"/>
		<rect x="528.4" y="167" class="st2" width="5" height="12.1"/>
		<rect x="528.4" y="185.1" class="st2" width="5" height="12.1"/>
		<rect x="528.4" y="221.4" class="st2" width="5" height="12.1"/>
		<rect x="528.4" y="203.2" class="st2" width="5" height="12.1"/>
	</g>
</g>
</svg>
