<?xml version="1.0" encoding="utf-8"?>
<!-- Generator: Adobe Illustrator 19.2.1, SVG Export Plug-In . SVG Version: 6.00 Build 0)  -->
<svg version="1.1" id="Layer_1" xmlns="http://www.w3.org/2000/svg" xmlns:xlink="http://www.w3.org/1999/xlink" x="0px" y="0px"
	 viewBox="0 0 440.6 238.5" style="enable-background:new 0 0 440.6 238.5;" xml:space="preserve">
<style type="text/css">
	.st0{opacity:0.5;fill:#515151;enable-background:new    ;}
	.st1{opacity:0.5;}
	.st2{fill:#FFFFFF;}
	.st3{opacity:0.5;fill:#9C9C9C;enable-background:new    ;}
	.st4{fill:none;stroke:#9C9C9C;stroke-width:2.5;stroke-miterlimit:10;}
	.st5{fill:#9C9C9C;}
	.st6{opacity:0.5;fill:#9B9B9B;enable-background:new    ;}
	.st7{fill:#59B8B3;}
	.st8{opacity:0.5;fill:none;stroke:#9C9C9C;stroke-width:2.5;stroke-miterlimit:10;enable-background:new    ;}
</style>
<title>delivery_full_workflow_skipped</title>
<rect x="8.6" y="72.7" class="st0" width="52.2" height="42.4"/>
<g class="st1">
	<path class="st2" d="M18.4,90.4h0.8l2.2,5.3l2.2-5.3h0.7l-2.6,6.2h-0.6L18.4,90.4z"/>
	<path class="st2" d="M25.5,90.4h4.4V91h-3.7v2.1h3.3v0.6h-3.3v2.1H30v0.6h-4.5L25.5,90.4L25.5,90.4L25.5,90.4z"/>
	<path class="st2" d="M31.3,90.4h2.6c0.6-0.1,1.3,0.1,1.7,0.6c0.3,0.3,0.5,0.7,0.5,1.2l0,0c0,0.9-0.8,1.7-1.7,1.8l1.9,2.5h-0.8
		l-1.8-2.4h-1.8v2.4h-0.7v-6.1H31.3L31.3,90.4z M33.9,93.5c0.8,0.1,1.5-0.4,1.6-1.2c0,0,0-0.1,0-0.1l0,0c0-0.8-0.6-1.2-1.6-1.2H32
		v2.5H33.9z"/>
	<path class="st2" d="M37.7,90.4h0.7v6.1h-0.7V90.4z"/>
	<path class="st2" d="M40.2,90.4h4.4V91h-3.7v2.2h3.3v0.6h-3.3v2.7h-0.7L40.2,90.4L40.2,90.4L40.2,90.4z"/>
	<path class="st2" d="M47.9,94.1l-2.5-3.7h0.8l2.1,3.1l2.1-3.1h0.8l-2.5,3.7v2.4H48v-2.4H47.9L47.9,94.1z"/>
</g>
<circle class="st3" cx="24.7" cy="24.7" r="24.7"/>
<g class="st1">
	<line class="st4" x1="24.7" y1="49.4" x2="24.7" y2="65.8"/>
	<polygon class="st5" points="21.6,64.9 24.7,70.3 27.8,64.9 	"/>
</g>
<g class="st1">
	<path class="st2" d="M9.7,21.2l0.4-0.5c0.5,0.6,1.3,0.9,2.1,0.9c0.7,0.1,1.3-0.3,1.4-1c0,0,0,0,0,0l0,0c0-0.6-0.3-0.9-1.6-1.2
		s-2.1-0.8-2.1-1.8l0,0c0-1,0.8-1.7,1.8-1.7c0.1,0,0.1,0,0.2,0c0.8,0,1.6,0.3,2.2,0.8l-0.4,0.5c-0.5-0.5-1.1-0.7-1.8-0.7
		c-0.6-0.1-1.2,0.3-1.3,0.9c0,0,0,0.1,0,0.1l0,0c0,0.6,0.3,0.9,1.7,1.2s2,0.8,2,1.7l0,0c0,1.1-0.9,1.7-2.1,1.7
		C11.3,22.2,10.3,21.9,9.7,21.2z"/>
	<path class="st2" d="M15.5,20.4v-2.8h0.7v2.6c-0.1,0.7,0.5,1.3,1.2,1.4c0,0,0.1,0,0.1,0c0.8,0,1.4-0.6,1.4-1.3c0,0,0,0,0-0.1v-2.6
		h0.7v4.5h-0.7v-0.8c-0.3,0.6-0.9,0.9-1.5,0.9c-0.9,0.1-1.8-0.5-1.9-1.4C15.5,20.7,15.5,20.5,15.5,20.4z"/>
	<path class="st2" d="M21.6,21.3v0.9h-0.7v-6.4h0.7v2.8c0.4-0.6,1-1,1.7-1c1.2,0,2.2,1,2.2,2.3c0,0,0,0,0,0l0,0
		c0.1,1.3-0.9,2.3-2.1,2.4c0,0,0,0-0.1,0C22.6,22.2,22,21.9,21.6,21.3z M24.8,19.9L24.8,19.9c0.1-0.9-0.6-1.7-1.5-1.8
		c0,0-0.1,0-0.1,0c-0.9,0-1.6,0.8-1.6,1.7l0,0c-0.1,0.9,0.7,1.7,1.6,1.8c0,0,0,0,0,0c0.9,0,1.6-0.6,1.6-1.5
		C24.8,20,24.8,20,24.8,19.9z"/>
	<path class="st2" d="M26.8,17.6h0.7v0.8c0.3-0.5,0.9-0.9,1.5-0.9c0.6,0,1.2,0.3,1.5,0.9c0.3-0.6,0.9-0.9,1.6-0.9
		c0.9,0,1.7,0.7,1.7,1.6c0,0.1,0,0.1,0,0.2v2.8h-0.7v-2.6c0.1-0.6-0.3-1.3-0.9-1.4c-0.1,0-0.2,0-0.3,0c-0.7,0-1.2,0.6-1.2,1.2
		c0,0.1,0,0.1,0,0.2v2.6H30v-2.7c0.1-0.6-0.3-1.2-0.9-1.3c-0.1,0-0.2,0-0.3,0c-0.7,0-1.3,0.7-1.3,1.4c0,0,0,0,0,0v2.6h-0.7
		L26.8,17.6L26.8,17.6L26.8,17.6z"/>
	<path class="st2" d="M35.1,15.9h0.8v0.7h-0.8V15.9z M35.2,17.6h0.7v4.5h-0.7V17.6z"/>
	<path class="st2" d="M37.6,20.9v-2.7H37v-0.6h0.6v-1.4h0.7v1.4h1.4v0.6h-1.4v2.6c-0.1,0.4,0.2,0.7,0.6,0.8c0.1,0,0.2,0,0.2,0
		c0.2,0,0.5-0.1,0.7-0.2V22c-0.2,0.1-0.5,0.2-0.8,0.2c-0.7,0.1-1.3-0.4-1.4-1.1C37.6,21.1,37.6,21,37.6,20.9z"/>
</g>
<g class="st1">
	<path class="st2" d="M8.6,29.6L8.6,29.6c-0.1-1.7,1.3-3.1,3-3.2c0,0,0.1,0,0.1,0c0.9,0,1.8,0.3,2.4,1l-0.5,0.5
		c-0.5-0.5-1.2-0.8-1.9-0.8c-1.3,0-2.4,1.1-2.4,2.4c0,0,0,0.1,0,0.1l0,0c-0.1,1.3,1,2.4,2.3,2.5c0,0,0.1,0,0.1,0
		c0.8,0,1.5-0.3,2-0.9l0.5,0.4c-0.6,0.7-1.5,1.1-2.5,1.1c-1.7,0-3.1-1.3-3.1-3C8.6,29.7,8.6,29.6,8.6,29.6z"/>
	<path class="st2" d="M15.2,26.2h0.7v2.7c0.3-0.6,0.9-0.9,1.6-0.9c0.9-0.1,1.7,0.6,1.7,1.5c0,0.1,0,0.2,0,0.3v2.8h-0.7V30
		c0.1-0.7-0.5-1.3-1.2-1.4c0,0-0.1,0-0.1,0c-0.8,0-1.4,0.6-1.4,1.3c0,0,0,0,0,0.1v2.6h-0.7v-6.4L15.2,26.2L15.2,26.2z"/>
	<path class="st2" d="M20.3,31.3L20.3,31.3c0-1,0.8-1.5,1.9-1.5c0.5,0,0.9,0.1,1.4,0.2v-0.2c0-0.6-0.4-1.2-1-1.2c-0.1,0-0.2,0-0.3,0
		c-0.5,0-1,0.1-1.4,0.3l-0.2-0.6c0.5-0.2,1-0.4,1.6-0.4c0.5,0,1.1,0.2,1.5,0.5c0.3,0.3,0.5,0.8,0.5,1.3v2.8h-0.6v-0.7
		c-0.4,0.5-1,0.8-1.6,0.8c-0.8,0.2-1.5-0.2-1.8-1C20.3,31.5,20.3,31.4,20.3,31.3z M23.6,31v-0.4c-0.4-0.1-0.9-0.2-1.3-0.2
		c-0.6-0.1-1.2,0.3-1.3,0.9c0,0,0,0,0,0l0,0c0.1,0.5,0.5,1,1.1,0.9c0,0,0,0,0,0C22.8,32.3,23.5,31.7,23.6,31L23.6,31z"/>
	<path class="st2" d="M25.7,28.1h0.7v0.8c0.3-0.6,0.9-0.9,1.6-0.9c0.9-0.1,1.7,0.6,1.7,1.5c0,0.1,0,0.2,0,0.3v2.8H29V30
		c0.1-0.7-0.5-1.3-1.2-1.4c0,0-0.1,0-0.1,0c-0.8,0-1.4,0.6-1.4,1.3c0,0,0,0,0,0.1v2.6h-0.7v-4.5L25.7,28.1L25.7,28.1z"/>
	<path class="st2" d="M31,33.4l0.3-0.5c0.5,0.4,1.1,0.6,1.7,0.6c0.8,0.1,1.5-0.5,1.6-1.3c0-0.1,0-0.2,0-0.3v-0.5
		c-0.4,0.6-1.1,1-1.8,1c-1.1,0.1-2-0.8-2.1-1.9c0-0.1,0-0.1,0-0.2l0,0c0-1.2,0.9-2.1,2.1-2.1c0.7,0,1.4,0.3,1.8,0.9v-0.8h0.7V32
		c0,0.6-0.2,1.2-0.6,1.6c-0.5,0.4-1.1,0.6-1.7,0.6C32.3,34,31.6,33.8,31,33.4z M34.7,30.1L34.7,30.1c0-0.9-0.8-1.6-1.7-1.6
		c-0.8-0.1-1.5,0.6-1.6,1.4c0,0,0,0.1,0,0.1l0,0c0,0.8,0.7,1.5,1.5,1.5c0,0,0.1,0,0.1,0c0.7,0.2,1.5-0.2,1.7-1
		C34.7,30.4,34.7,30.2,34.7,30.1z"/>
	<path class="st2" d="M36.6,30.4L36.6,30.4c-0.1-1.3,0.9-2.3,2.1-2.4c0,0,0,0,0.1,0c1.2,0,2.2,1.1,2.1,2.3c0,0,0,0.1,0,0.1v0.2h-3.6
		c0,0.9,0.7,1.5,1.6,1.5c0,0,0,0,0,0c0.5,0,1-0.2,1.4-0.6l0.4,0.4c-0.5,0.5-1.2,0.8-1.9,0.8c-1.2,0-2.2-1-2.2-2.2
		C36.6,30.5,36.6,30.4,36.6,30.4z M40.2,30.1c0-0.8-0.6-1.5-1.4-1.5c0,0,0,0,0,0c-0.8,0.1-1.4,0.7-1.5,1.5H40.2z"/>
</g>
<rect x="8.6" y="118.5" class="st6" width="52.2" height="17.1"/>
<rect x="8.6" y="139.1" class="st6" width="52.2" height="17.1"/>
<rect x="8.6" y="159.7" class="st6" width="52.2" height="17.1"/>
<g class="st1">
	<path class="st2" d="M26.6,122.7h0.8v6h3.7v0.7h-4.5V122.7z"/>
	<path class="st2" d="M32.4,122.6h0.8v0.8h-0.8V122.6z M32.4,124.4h0.7v4.9h-0.7V124.4z"/>
	<path class="st2" d="M34.9,124.4h0.7v0.9c0.3-0.6,1-1,1.7-1c1-0.1,1.9,0.7,1.9,1.7c0,0.1,0,0.2,0,0.3v3.1h-0.7v-2.9
		c0.1-0.7-0.4-1.4-1.2-1.5c-0.1,0-0.2,0-0.2,0c-0.8,0-1.5,0.6-1.5,1.4c0,0,0,0,0,0.1v2.8h-0.7V124.4L34.9,124.4z"/>
	<path class="st2" d="M41,128.1v-3h-0.7v-0.6H41V123h0.7v1.5h1.6v0.6h-1.6v2.9c-0.1,0.4,0.2,0.7,0.6,0.8c0.1,0,0.2,0,0.2,0
		c0.3,0,0.5,0,0.7-0.2v0.6c-0.3,0.1-0.6,0.2-0.9,0.2c-0.6,0.1-1.2-0.4-1.3-1C41,128.3,41,128.2,41,128.1z"/>
</g>
<g class="st1">
	<path class="st2" d="M19,149l0.5-0.6c0.6,0.6,1.4,0.9,2.3,0.9c0.7,0.1,1.4-0.4,1.5-1.1c0,0,0,0,0,0l0,0c0-0.6-0.3-1-1.7-1.3
		s-2.2-0.8-2.2-1.9l0,0c0.1-1.1,1.1-1.9,2.2-1.8c0,0,0,0,0,0c0.8,0,1.7,0.3,2.3,0.8l-0.4,0.6c-0.5-0.5-1.2-0.7-1.9-0.7
		c-0.7-0.1-1.3,0.3-1.4,1c0,0,0,0.1,0,0.1l0,0c0,0.6,0.3,1,1.8,1.3s2.2,0.9,2.2,1.9l0,0c-0.1,1.1-1.1,2-2.2,1.9c0,0,0,0-0.1,0
		C20.8,150.1,19.8,149.7,19,149z"/>
	<path class="st2" d="M29,145h0.8l-2.1,5.1c-0.1,0.8-0.8,1.4-1.6,1.4c-0.3,0-0.7-0.1-1-0.2l0.2-0.6c0.2,0.1,0.5,0.2,0.8,0.2
		c0.5,0,0.9-0.4,1-0.9l-2.2-4.9h0.8l1.8,4.1L29,145z"/>
	<path class="st2" d="M30.9,145h0.7v0.9c0.3-0.6,1-1,1.7-1c1-0.1,1.9,0.7,1.9,1.7c0,0.1,0,0.2,0,0.3v3.1h-0.7v-2.9
		c0.1-0.7-0.4-1.4-1.2-1.5c-0.1,0-0.2,0-0.2,0c-0.8,0-1.5,0.6-1.5,1.4c0,0,0,0,0,0.1v2.8h-0.7V145L30.9,145z"/>
	<path class="st2" d="M37,148.6v-3h-0.7V145H37v-1.5h0.7v1.5h1.6v0.6h-1.6v2.9c-0.1,0.4,0.2,0.7,0.6,0.8c0.1,0,0.2,0,0.2,0
		c0.3,0,0.5,0,0.7-0.2v0.6c-0.3,0.1-0.6,0.2-0.9,0.2c-0.6,0.1-1.2-0.3-1.3-0.9C37,148.9,37,148.7,37,148.6z"/>
	<path class="st2" d="M40.2,148.5L40.2,148.5c0-1.1,0.9-1.6,2.1-1.6c0.5,0,1,0.1,1.5,0.2v-0.2c0.1-0.7-0.4-1.3-1.1-1.3
		c-0.1,0-0.3,0-0.4,0c-0.5,0-1,0.2-1.5,0.4l-0.2-0.6c0.6-0.2,1.2-0.4,1.8-0.4c0.6,0,1.1,0.2,1.6,0.5c0.3,0.4,0.5,0.9,0.5,1.4v3h-0.7
		v-0.7c-0.4,0.5-1.1,0.8-1.8,0.8C41.1,150.1,40.3,149.5,40.2,148.5C40.2,148.6,40.2,148.5,40.2,148.5z M43.8,148.1v-0.5
		c-0.5-0.1-0.9-0.2-1.4-0.2c-0.9,0-1.4,0.4-1.4,1l0,0c0.1,0.6,0.6,1,1.2,1c0.7,0.1,1.4-0.3,1.6-1.1
		C43.8,148.2,43.8,148.2,43.8,148.1L43.8,148.1z"/>
	<path class="st2" d="M48,146.9l1.5-1.9h0.8l-1.9,2.4l1.9,2.5h-0.8l-1.5-2l-1.5,2h-0.8l1.9-2.5l-1.8-2.4h0.8L48,146.9z"/>
</g>
<g class="st1">
	<path class="st2" d="M25.8,167.7v-3.9h0.8v3.8c-0.1,1.1,0.7,2.1,1.8,2.2c0.1,0,0.1,0,0.2,0c1,0.1,2-0.7,2-1.8c0-0.1,0-0.3,0-0.4
		v-3.9h0.8v3.8c0.2,1.4-0.9,2.7-2.3,2.9c-0.2,0-0.3,0-0.5,0C27,170.6,25.8,169.6,25.8,167.7z"/>
	<path class="st2" d="M33,165.6h0.7v0.9c0.3-0.6,1-1,1.7-1c1-0.1,1.9,0.7,1.9,1.7c0,0.1,0,0.2,0,0.3v3.1h-0.7v-2.9
		c0.1-0.7-0.4-1.4-1.2-1.5c-0.1,0-0.2,0-0.2,0c-0.8,0-1.5,0.6-1.5,1.4c0,0,0,0,0,0.1v2.8H33V165.6L33,165.6z"/>
	<path class="st2" d="M38.9,163.7h0.8v0.8h-0.8V163.7z M39,165.6h0.7v4.9H39V165.6z"/>
	<path class="st2" d="M41.6,169.2v-3h-0.7v-0.6h0.7v-1.5h0.7v1.5h1.6v0.6h-1.6v2.9c-0.1,0.4,0.2,0.7,0.6,0.8c0.1,0,0.2,0,0.2,0
		c0.3,0,0.5,0,0.7-0.2v0.6c-0.3,0.1-0.6,0.2-0.9,0.2c-0.6,0.1-1.2-0.3-1.3-0.9C41.6,169.5,41.6,169.3,41.6,169.2z"/>
</g>
<circle class="st3" cx="82.6" cy="24.7" r="24.7"/>
<g class="st1">
	<line class="st4" x1="82.6" y1="49.4" x2="82.6" y2="65.8"/>
	<polygon class="st5" points="79.5,64.9 82.6,70.3 85.7,64.9 	"/>
</g>
<g class="st1">
	<path class="st2" d="M66.7,15.9h0.6l2.8,6.2h-0.7l-0.7-1.6h-3.3l-0.7,1.6H64L66.7,15.9z M68.4,19.9L67,16.8l-1.4,3.1H68.4z"/>
	<path class="st2" d="M71.2,17.6h0.7v0.9c0.4-0.6,1-1,1.7-1c1.2,0,2.2,1,2.2,2.3c0,0,0,0,0,0l0,0c0.1,1.3-0.9,2.3-2.1,2.4
		c0,0,0,0-0.1,0c-0.7,0-1.3-0.4-1.7-1v2.3h-0.7V17.6z M75.1,19.9L75.1,19.9c0.1-0.9-0.6-1.7-1.5-1.8c0,0-0.1,0-0.1,0
		c-0.9,0-1.6,0.8-1.6,1.7l0,0c-0.1,0.9,0.7,1.7,1.6,1.8c0,0,0,0,0,0c0.9,0,1.6-0.6,1.6-1.5C75.1,20,75.1,20,75.1,19.9z"/>
	<path class="st2" d="M77.1,17.6h0.7v0.9c0.4-0.6,1-1,1.7-1c1.2,0,2.2,1,2.2,2.3c0,0,0,0,0,0l0,0c0.1,1.3-0.9,2.3-2.1,2.4
		c0,0,0,0-0.1,0c-0.7,0-1.3-0.4-1.7-1v2.3h-0.7V17.6z M80.9,19.9L80.9,19.9c0.1-0.9-0.6-1.7-1.5-1.8c0,0-0.1,0-0.1,0
		c-0.9,0-1.6,0.8-1.6,1.7l0,0c-0.1,0.9,0.7,1.7,1.6,1.8c0,0,0,0,0,0c0.9,0,1.6-0.6,1.6-1.5C80.9,20,80.9,20,80.9,19.9z"/>
	<path class="st2" d="M82.9,17.6h0.7v1.2c0.3-0.8,1-1.3,1.8-1.3v0.7h-0.1c-1,0-1.8,0.8-1.8,1.8c0,0.1,0,0.2,0,0.3v1.8h-0.7
		L82.9,17.6L82.9,17.6z"/>
	<path class="st2" d="M85.9,19.9L85.9,19.9c0-1.3,1-2.4,2.3-2.4c0,0,0,0,0.1,0c1.3,0,2.4,1,2.4,2.3c0,0,0,0,0,0l0,0
		c0,1.3-1,2.4-2.3,2.4c0,0,0,0-0.1,0C87,22.3,86,21.3,85.9,20C85.9,20,85.9,19.9,85.9,19.9z M90,19.9L90,19.9c0-0.9-0.7-1.7-1.6-1.8
		c0,0-0.1,0-0.1,0c-0.9,0-1.7,0.8-1.7,1.7c0,0,0,0.1,0,0.1l0,0c0,0.9,0.7,1.7,1.6,1.8c0,0,0.1,0,0.1,0C89.2,21.6,90,20.8,90,19.9z"
		/>
	<path class="st2" d="M91.2,17.6h0.7l1.5,3.8l1.5-3.8h0.7l-2,4.6H93L91.2,17.6z"/>
	<path class="st2" d="M96.2,19.9L96.2,19.9c-0.1-1.3,0.9-2.3,2.1-2.4c0,0,0,0,0.1,0c1.2,0,2.2,1.1,2.1,2.3c0,0,0,0.1,0,0.1v0.2h-3.6
		c0,0.9,0.7,1.5,1.6,1.5c0,0,0,0,0,0c0.5,0,1-0.2,1.4-0.6l0.4,0.4c-0.5,0.5-1.2,0.8-1.9,0.8c-1.2,0-2.2-1-2.2-2.2
		C96.2,20,96.2,19.9,96.2,19.9z M99.8,19.6c0-0.8-0.6-1.5-1.4-1.5c0,0,0,0,0,0c-0.8,0.1-1.4,0.7-1.5,1.5H99.8z"/>
</g>
<g class="st1">
	<path class="st2" d="M66.6,29.6L66.6,29.6c-0.1-1.7,1.3-3.1,3-3.2c0,0,0.1,0,0.1,0c0.9,0,1.8,0.3,2.4,1l-0.5,0.5
		c-0.5-0.5-1.2-0.8-1.9-0.8c-1.3,0-2.4,1.1-2.4,2.4c0,0,0,0.1,0,0.1l0,0c-0.1,1.3,1,2.4,2.3,2.5c0,0,0.1,0,0.1,0
		c0.8,0,1.5-0.3,2-0.9l0.5,0.4c-0.6,0.7-1.5,1.1-2.5,1.1c-1.7,0-3.1-1.3-3.1-3C66.6,29.7,66.6,29.6,66.6,29.6z"/>
	<path class="st2" d="M73.2,26.2h0.7v2.7c0.3-0.6,0.9-0.9,1.6-0.9c0.9-0.1,1.7,0.6,1.7,1.5c0,0.1,0,0.2,0,0.3v2.8h-0.7V30
		c0.1-0.7-0.5-1.3-1.2-1.4c0,0-0.1,0-0.1,0c-0.8,0-1.4,0.6-1.4,1.3c0,0,0,0,0,0.1v2.6h-0.7v-6.4L73.2,26.2L73.2,26.2z"/>
	<path class="st2" d="M78.2,31.3L78.2,31.3c0-1,0.8-1.5,1.9-1.5c0.5,0,0.9,0.1,1.4,0.2v-0.2c0-0.6-0.4-1.2-1-1.2c-0.1,0-0.2,0-0.3,0
		c-0.5,0-1,0.1-1.4,0.3l-0.2-0.6c0.5-0.2,1-0.4,1.6-0.4c0.5,0,1.1,0.2,1.5,0.5c0.3,0.3,0.5,0.8,0.5,1.3v2.8h-0.6v-0.7
		c-0.4,0.5-1,0.8-1.6,0.8c-0.8,0.2-1.6-0.3-1.8-1.1C78.2,31.4,78.2,31.4,78.2,31.3z M81.6,31v-0.4c-0.4-0.1-0.9-0.2-1.3-0.2
		c-0.6-0.1-1.2,0.3-1.3,0.9c0,0,0,0,0,0l0,0c0.1,0.5,0.5,1,1.1,0.9c0,0,0,0,0,0C80.8,32.3,81.5,31.7,81.6,31L81.6,31z"/>
	<path class="st2" d="M83.6,28.1h0.7v0.8c0.3-0.6,0.9-0.9,1.6-0.9c0.9-0.1,1.7,0.6,1.7,1.5c0,0.1,0,0.2,0,0.3v2.8h-0.7V30
		c0.1-0.7-0.5-1.3-1.2-1.4c0,0-0.1,0-0.1,0c-0.8,0-1.4,0.6-1.4,1.3c0,0,0,0,0,0.1v2.6h-0.7v-4.5L83.6,28.1L83.6,28.1z"/>
	<path class="st2" d="M89,33.4l0.3-0.5c0.5,0.4,1.1,0.6,1.7,0.6c0.8,0.1,1.5-0.5,1.6-1.3c0-0.1,0-0.2,0-0.3v-0.5
		c-0.4,0.6-1.1,1-1.8,1c-1.1,0.1-2-0.8-2.1-1.9c0-0.1,0-0.1,0-0.2l0,0c0-1.2,0.9-2.1,2.1-2.1c0.7,0,1.4,0.3,1.8,0.9v-0.8h0.7V32
		c0,0.6-0.2,1.2-0.6,1.6c-0.5,0.4-1.1,0.6-1.7,0.6C90.3,34,89.6,33.8,89,33.4z M92.7,30.1L92.7,30.1c0-0.9-0.8-1.6-1.7-1.6
		c-0.8-0.1-1.5,0.6-1.6,1.4c0,0,0,0.1,0,0.1l0,0c0,0.8,0.7,1.5,1.5,1.5c0,0,0.1,0,0.1,0c0.7,0.2,1.5-0.2,1.7-1
		C92.7,30.4,92.7,30.2,92.7,30.1z"/>
	<path class="st2" d="M94.6,30.4L94.6,30.4c-0.1-1.3,0.9-2.3,2.1-2.4c0,0,0,0,0.1,0c1.2,0,2.2,1.1,2.1,2.3c0,0,0,0.1,0,0.1v0.2h-3.6
		c0,0.9,0.7,1.5,1.6,1.5c0,0,0,0,0,0c0.5,0,1-0.2,1.4-0.6l0.4,0.4c-0.5,0.5-1.2,0.8-1.9,0.8c-1.2,0-2.2-1-2.2-2.2
		C94.6,30.5,94.6,30.4,94.6,30.4z M98.2,30.1c0-0.8-0.6-1.5-1.4-1.5c0,0,0,0,0,0c-0.8,0.1-1.4,0.7-1.5,1.5H98.2z"/>
</g>
<rect x="68.4" y="72.7" class="st0" width="48.4" height="42.4"/>
<g class="st1">
	<path class="st2" d="M79.6,90.4h2.6c0.6,0,1.1,0.1,1.6,0.5c0.3,0.3,0.4,0.6,0.4,1l0,0c0,0.6-0.4,1.2-1,1.4c0.7,0.1,1.3,0.7,1.3,1.5
		l0,0c0,1.1-0.9,1.7-2.2,1.7h-2.7L79.6,90.4L79.6,90.4L79.6,90.4z M83.5,92c0-0.6-0.5-1-1.4-1h-1.9v2.1H82
		C82.9,93.1,83.5,92.8,83.5,92L83.5,92z M82.2,93.7h-1.9v2.2h2.1c0.7,0.1,1.3-0.3,1.5-1c0,0,0-0.1,0-0.1l0,0
		C83.8,94.1,83.3,93.7,82.2,93.7z"/>
	<path class="st2" d="M85.8,94v-3.6h0.7v3.5c-0.1,1,0.6,1.9,1.6,2.1c0.1,0,0.2,0,0.3,0c1,0,1.8-0.7,1.8-1.7c0-0.1,0-0.2,0-0.3v-3.6
		h0.7v3.5c0.2,1.3-0.8,2.5-2.1,2.7c-0.2,0-0.4,0-0.5,0c-1.3,0.1-2.4-0.9-2.5-2.2C85.8,94.3,85.8,94.1,85.8,94z"/>
	<path class="st2" d="M92.6,90.4h0.7v6.1h-0.7V90.4z"/>
	<path class="st2" d="M95.1,90.4h0.7v5.5h3.5v0.6h-4.1L95.1,90.4L95.1,90.4z"/>
	<path class="st2" d="M100.5,90.4h2.1c1.7-0.1,3.2,1.2,3.3,2.9c0,0,0,0.1,0,0.1l0,0c0,1.7-1.4,3.1-3.1,3.1c-0.1,0-0.1,0-0.2,0h-2.1
		V90.4z M101.2,91v4.9h1.4c1.3,0.1,2.4-0.9,2.5-2.2c0-0.1,0-0.2,0-0.2l0,0c0-1.3-1-2.4-2.3-2.4c-0.1,0-0.2,0-0.2,0h-1.4V91z"/>
</g>
<rect x="68.4" y="118.5" class="st6" width="48.4" height="17.1"/>
<rect x="68.4" y="139.1" class="st6" width="48.4" height="17.1"/>
<rect x="68.4" y="159.7" class="st6" width="48.4" height="17.1"/>
<g class="st1">
	<path class="st2" d="M84.5,122.7h0.8v6H89v0.7h-4.5V122.7z"/>
	<path class="st2" d="M90.3,122.6h0.8v0.8h-0.8V122.6z M90.3,124.4H91v4.9h-0.7V124.4z"/>
	<path class="st2" d="M92.8,124.4h0.7v0.9c0.3-0.6,1-1,1.7-1c1-0.1,1.9,0.7,1.9,1.7c0,0.1,0,0.2,0,0.3v3.1h-0.7v-2.9
		c0.1-0.7-0.4-1.4-1.2-1.5c-0.1,0-0.2,0-0.2,0c-0.8,0-1.5,0.6-1.5,1.4c0,0,0,0,0,0.1v2.8h-0.7V124.4L92.8,124.4z"/>
	<path class="st2" d="M98.9,128.1v-3h-0.7v-0.6h0.7V123h0.7v1.5h1.6v0.6h-1.6v2.9c-0.1,0.4,0.2,0.7,0.6,0.8c0.1,0,0.2,0,0.2,0
		c0.3,0,0.5,0,0.7-0.2v0.6c-0.3,0.1-0.6,0.2-0.9,0.2c-0.6,0.1-1.2-0.4-1.3-1C98.9,128.3,98.9,128.2,98.9,128.1z"/>
</g>
<g class="st1">
	<path class="st2" d="M76.9,149l0.5-0.6c0.6,0.6,1.4,0.9,2.3,0.9c0.7,0.1,1.4-0.4,1.5-1.1c0,0,0,0,0,0l0,0c0-0.6-0.3-1-1.7-1.3
		s-2.2-0.8-2.2-1.9l0,0c0.1-1.1,1.1-1.9,2.2-1.8c0,0,0,0,0,0c0.8,0,1.7,0.3,2.3,0.8l-0.4,0.6c-0.5-0.5-1.2-0.7-1.9-0.7
		c-0.7-0.1-1.3,0.3-1.4,1c0,0,0,0.1,0,0.1l0,0c0,0.6,0.3,1,1.8,1.3s2.2,0.9,2.2,1.9l0,0c-0.1,1.1-1.1,2-2.2,1.9c0,0,0,0-0.1,0
		C78.7,150.1,77.7,149.7,76.9,149z"/>
	<path class="st2" d="M86.9,145h0.8l-2.1,5.1c-0.1,0.8-0.8,1.4-1.6,1.4c-0.3,0-0.7-0.1-1-0.2l0.2-0.6c0.2,0.1,0.5,0.2,0.8,0.2
		c0.5,0,0.9-0.4,1-0.9l-2.2-4.9h0.8l1.8,4.1L86.9,145z"/>
	<path class="st2" d="M88.8,145h0.7v0.9c0.3-0.6,1-1,1.7-1c1-0.1,1.9,0.7,1.9,1.7c0,0.1,0,0.2,0,0.3v3.1h-0.7v-2.9
		c0.1-0.7-0.4-1.4-1.2-1.5c-0.1,0-0.2,0-0.2,0c-0.8,0-1.5,0.6-1.5,1.4c0,0,0,0,0,0.1v2.8h-0.7V145L88.8,145z"/>
	<path class="st2" d="M94.9,148.6v-3h-0.7V145h0.7v-1.5h0.7v1.5h1.6v0.6h-1.6v2.9c-0.1,0.4,0.2,0.7,0.6,0.8c0.1,0,0.2,0,0.2,0
		c0.3,0,0.5,0,0.7-0.2v0.6c-0.3,0.1-0.6,0.2-0.9,0.2c-0.6,0.1-1.2-0.3-1.3-0.9C94.9,148.9,94.9,148.7,94.9,148.6z"/>
	<path class="st2" d="M98.1,148.5L98.1,148.5c0-1.1,0.9-1.6,2.1-1.6c0.5,0,1,0.1,1.5,0.2v-0.2c0.1-0.7-0.4-1.3-1.1-1.3
		c-0.1,0-0.3,0-0.4,0c-0.5,0-1,0.2-1.5,0.4l-0.2-0.6c0.6-0.2,1.2-0.4,1.8-0.4c0.6,0,1.1,0.2,1.6,0.5c0.3,0.4,0.5,0.9,0.5,1.4v3h-0.7
		v-0.7c-0.4,0.5-1.1,0.8-1.8,0.8C99,150.1,98.2,149.4,98.1,148.5z M101.8,148.1v-0.5c-0.5-0.1-0.9-0.2-1.4-0.2c-0.9,0-1.4,0.4-1.4,1
		l0,0c0.1,0.6,0.6,1,1.2,1c0.8,0.1,1.5-0.4,1.6-1.2C101.8,148.2,101.8,148.1,101.8,148.1L101.8,148.1z"/>
	<path class="st2" d="M105.9,146.9l1.5-1.9h0.8l-1.9,2.4l1.9,2.5h-0.8l-1.5-2l-1.5,2h-0.8l1.9-2.5l-1.8-2.4h0.8L105.9,146.9z"/>
</g>
<g class="st1">
	<path class="st2" d="M83.7,167.7v-3.9h0.8v3.8c-0.1,1.1,0.7,2.1,1.8,2.2c0.1,0,0.1,0,0.2,0c1,0.1,2-0.7,2-1.8c0-0.1,0-0.3,0-0.4
		v-3.9h0.8v3.8c0.2,1.4-0.9,2.7-2.3,2.9c-0.2,0-0.3,0-0.5,0C84.9,170.6,83.7,169.6,83.7,167.7z"/>
	<path class="st2" d="M90.9,165.6h0.7v0.9c0.3-0.6,1-1,1.7-1c1-0.1,1.9,0.7,1.9,1.7c0,0.1,0,0.2,0,0.3v3.1h-0.7v-2.9
		c0.1-0.7-0.4-1.4-1.2-1.5c-0.1,0-0.2,0-0.2,0c-0.8,0-1.5,0.6-1.5,1.4c0,0,0,0,0,0.1v2.8h-0.7V165.6L90.9,165.6z"/>
	<path class="st2" d="M96.8,163.7h0.8v0.8h-0.8V163.7z M96.9,165.6h0.7v4.9h-0.7V165.6z"/>
	<path class="st2" d="M99.5,169.2v-3h-0.7v-0.6h0.7v-1.5h0.7v1.5h1.6v0.6h-1.6v2.9c-0.1,0.4,0.2,0.7,0.6,0.8c0.1,0,0.2,0,0.2,0
		c0.3,0,0.5,0,0.7-0.2v0.6c-0.3,0.1-0.6,0.2-0.9,0.2c-0.6,0.1-1.2-0.3-1.3-0.9C99.5,169.5,99.5,169.3,99.5,169.2z"/>
</g>
<rect x="68.4" y="180.2" class="st7" width="48.4" height="17.1"/>
<rect x="68.4" y="200.8" class="st7" width="48.4" height="17.1"/>
<rect x="68.4" y="221.4" class="st6" width="48.4" height="17.1"/>
<g>
	<path class="st2" d="M73.7,190.1l0.5-0.6c0.6,0.6,1.4,0.9,2.3,0.9c0.7,0.1,1.4-0.4,1.5-1.1c0,0,0,0,0,0l0,0c0-0.6-0.3-1-1.7-1.3
		s-2.2-0.8-2.2-1.9l0,0c0.1-1.1,1.1-1.9,2.2-1.8c0,0,0,0,0,0c0.8,0,1.7,0.3,2.3,0.8l-0.4,0.6c-0.5-0.5-1.2-0.7-1.9-0.7
		c-0.7-0.1-1.3,0.3-1.4,1c0,0,0,0.1,0,0.1l0,0c0,0.6,0.3,1,1.8,1.3s2.2,0.9,2.2,1.9l0,0c-0.1,1.1-1.1,2-2.2,1.9c0,0,0,0-0.1,0
		C75.5,191.2,74.5,190.8,73.7,190.1z"/>
	<path class="st2" d="M79.8,188.6L79.8,188.6c-0.1-1.4,1-2.5,2.4-2.6c0,0,0,0,0,0c1.3,0,2.3,1.1,2.3,2.4c0,0.1,0,0.2,0,0.2v0.2h-3.9
		c0,0.9,0.8,1.7,1.7,1.7c0.6,0,1.1-0.2,1.5-0.7l0.5,0.4c-0.5,0.6-1.2,0.9-2,0.9c-1.3,0.1-2.4-0.8-2.5-2.1
		C79.8,188.9,79.8,188.7,79.8,188.6z M83.7,188.4c0-0.9-0.7-1.7-1.6-1.7c-0.9,0-1.6,0.8-1.6,1.7H83.7z"/>
	<path class="st2" d="M85.4,188.7L85.4,188.7c0-1.4,1.1-2.6,2.5-2.6c0.8,0,1.5,0.3,2,0.9l-0.5,0.5c-0.4-0.4-0.9-0.7-1.5-0.7
		c-1,0-1.8,0.8-1.8,1.8c0,0,0,0,0,0.1l0,0c0,1,0.7,1.9,1.7,1.9c0,0,0,0,0.1,0c0.6,0,1.1-0.3,1.5-0.7l0.5,0.4c-0.5,0.6-1.2,1-2,1
		C86.5,191.2,85.4,190.1,85.4,188.7z"/>
	<path class="st2" d="M91.1,189.2v-3.1h0.7v2.9c-0.1,0.7,0.4,1.4,1.2,1.5c0.1,0,0.2,0,0.2,0c0.8,0,1.5-0.6,1.5-1.4c0,0,0,0,0-0.1
		v-2.8h0.7v4.9h-0.7v-0.9c-0.3,0.6-1,1-1.7,1c-1,0.1-1.9-0.7-1.9-1.7C91.1,189.4,91.1,189.3,91.1,189.2z"/>
	<path class="st2" d="M97,186.2h0.7v1.3c0.3-0.8,1.1-1.4,2-1.4v0.8h-0.1c-1.1,0-1.9,0.8-1.9,2.3v2H97V186.2L97,186.2z"/>
	<path class="st2" d="M100.9,184.3h0.8v0.8h-0.8V184.3z M100.9,186.2h0.7v4.9h-0.7V186.2z"/>
	<path class="st2" d="M103.6,189.8v-3h-0.7v-0.6h0.7v-1.5h0.7v1.5h1.6v0.6h-1.6v2.9c-0.1,0.4,0.2,0.7,0.6,0.8c0.1,0,0.2,0,0.2,0
		c0.3,0,0.5,0,0.7-0.2v0.6c-0.3,0.1-0.6,0.2-0.9,0.2c-0.6,0.1-1.2-0.3-1.3-0.9C103.6,190.1,103.6,189.9,103.6,189.8z"/>
	<path class="st2" d="M110.9,186.2h0.8l-2.1,5.1c-0.1,0.8-0.8,1.4-1.6,1.4c-0.3,0-0.7-0.1-1-0.2l0.2-0.6c0.2,0.1,0.5,0.2,0.8,0.2
		c0.5,0,0.9-0.4,1-0.9l-2.2-4.9h0.8l1.8,4.1L110.9,186.2z"/>
</g>
<g>
	<path class="st2" d="M82.7,211.9l-0.9-0.8c-0.6,0.4-1.3,0.7-2.1,0.7c-1.9,0-3.4-1.5-3.4-3.3c0,0,0,0,0-0.1l0,0
		c0-1.9,1.5-3.4,3.3-3.4c0,0,0,0,0.1,0c1.9,0,3.4,1.5,3.4,3.3c0,0,0,0,0,0.1l0,0c0,0.8-0.3,1.6-0.8,2.2l0.9,0.7L82.7,211.9z
		 M81.3,210.6l-1.2-1.1l0.5-0.6l1.2,1.1c0.4-0.5,0.6-1.1,0.6-1.7l0,0c0-1.4-1.1-2.6-2.5-2.7c0,0-0.1,0-0.1,0c-1.4,0-2.6,1.2-2.6,2.6
		c0,0,0,0.1,0,0.1l0,0c0,1.4,1.1,2.6,2.5,2.7c0,0,0.1,0,0.1,0C80.3,211.1,80.9,210.9,81.3,210.6z"/>
	<path class="st2" d="M84.5,209.8v-3.1h0.7v2.9c-0.1,0.7,0.4,1.4,1.2,1.5c0.1,0,0.2,0,0.2,0c0.8,0,1.5-0.6,1.5-1.4c0,0,0,0,0-0.1
		v-2.8h0.7v4.9h-0.7v-0.9c-0.3,0.6-1,1-1.7,1c-1,0.1-1.9-0.7-1.9-1.7C84.5,210,84.5,209.9,84.5,209.8z"/>
	<path class="st2" d="M90,210.2L90,210.2c0-1.1,0.9-1.6,2.1-1.6c0.5,0,1,0.1,1.5,0.2v-0.2c0.1-0.7-0.4-1.3-1.1-1.3
		c-0.1,0-0.3,0-0.4,0c-0.5,0-1,0.2-1.5,0.4l-0.2-0.6c0.6-0.2,1.2-0.4,1.8-0.4c0.6,0,1.1,0.2,1.6,0.5c0.3,0.4,0.5,0.9,0.5,1.4v3h-0.7
		v-0.7c-0.4,0.5-1.1,0.8-1.8,0.8c-0.8,0.1-1.6-0.4-1.8-1.3C90,210.4,90,210.3,90,210.2z M93.7,209.9v-0.5c-0.5-0.1-0.9-0.2-1.4-0.2
		c-0.9,0-1.4,0.4-1.4,1l0,0c0.1,0.6,0.6,1,1.2,1C92.9,211.2,93.6,210.7,93.7,209.9z"/>
	<path class="st2" d="M96,204.7h0.7v6.9H96V204.7z"/>
	<path class="st2" d="M98.4,204.9h0.8v0.8h-0.8V204.9z M98.5,206.8h0.7v4.9h-0.7V206.8z"/>
	<path class="st2" d="M101.2,210.4v-3h-0.7v-0.6h0.7v-1.5h0.7v1.5h1.6v0.6h-1.6v2.9c-0.1,0.4,0.2,0.7,0.6,0.8c0.1,0,0.2,0,0.2,0
		c0.3,0,0.5,0,0.7-0.2v0.6c-0.3,0.1-0.6,0.2-0.9,0.2c-0.6,0.1-1.2-0.3-1.3-0.9C101.2,210.7,101.2,210.5,101.2,210.4z"/>
	<path class="st2" d="M108.4,206.8h0.8l-2.1,5.1c-0.1,0.8-0.8,1.4-1.6,1.4c-0.3,0-0.7-0.1-1-0.2l0.2-0.6c0.2,0.1,0.5,0.2,0.8,0.2
		c0.5,0,0.9-0.4,1-0.9l-2.2-4.9h0.8l1.8,4.1L108.4,206.8z"/>
</g>
<g class="st1">
	<path class="st2" d="M76.5,225.6H79c1.5,0,2.5,0.8,2.5,2.1l0,0c-0.1,1.3-1.2,2.3-2.4,2.2c-0.1,0-0.1,0-0.2,0h-1.6v2.3h-0.8V225.6z
		 M78.9,229.2c0.9,0.1,1.7-0.5,1.8-1.3c0-0.1,0-0.1,0-0.2l0,0c0-1-0.7-1.4-1.8-1.4h-1.7v2.9H78.9z"/>
	<path class="st2" d="M82.7,230.4v-3.1h0.7v2.9c-0.1,0.7,0.4,1.4,1.2,1.5c0.1,0,0.2,0,0.2,0c0.8,0,1.5-0.6,1.5-1.4c0,0,0,0,0-0.1
		v-2.8H87v4.9h-0.7v-0.9c-0.3,0.6-1,1-1.7,1c-1,0.1-1.9-0.7-1.9-1.7C82.7,230.6,82.7,230.5,82.7,230.4z"/>
	<path class="st2" d="M89.3,231.3v0.9h-0.7v-6.9h0.7v3c0.4-0.7,1.1-1.1,1.9-1.1c1.3,0,2.3,1.1,2.3,2.3c0,0.1,0,0.1,0,0.2l0,0
		c0.1,1.4-1,2.5-2.3,2.6C90.4,232.3,89.7,231.9,89.3,231.3z M92.8,229.8L92.8,229.8c0.1-1-0.6-1.8-1.6-1.9c0,0-0.1,0-0.1,0
		c-1,0-1.8,0.9-1.8,1.9l0,0c0,1,0.8,1.9,1.8,1.9c1,0,1.7-0.8,1.7-1.8C92.8,229.9,92.8,229.8,92.8,229.8z"/>
	<path class="st2" d="M95,225.3h0.7v6.9H95V225.3z"/>
	<path class="st2" d="M97.4,225.4h0.8v0.8h-0.8V225.4z M97.5,227.3h0.7v4.9h-0.7V227.3z"/>
	<path class="st2" d="M99.5,231.6l0.4-0.5c0.5,0.4,1.1,0.6,1.7,0.6c0.5,0.1,0.9-0.2,1-0.7c0,0,0-0.1,0-0.1l0,0
		c0-0.5-0.6-0.7-1.2-0.9c-0.8-0.2-1.6-0.5-1.6-1.4l0,0c0.1-0.8,0.8-1.5,1.6-1.4c0,0,0.1,0,0.1,0c0.6,0,1.3,0.2,1.8,0.5l-0.3,0.6
		c-0.4-0.3-1-0.5-1.5-0.5c-0.5-0.1-0.9,0.2-1,0.7c0,0,0,0,0,0l0,0c0,0.5,0.6,0.6,1.3,0.8s1.6,0.5,1.6,1.4l0,0c0,0.9-0.8,1.5-1.7,1.5
		c0,0,0,0,0,0C100.9,232.3,100.1,232.1,99.5,231.6z"/>
	<path class="st2" d="M104.6,225.3h0.7v2.9c0.3-0.6,1-1,1.7-1c1-0.1,1.9,0.7,1.9,1.7c0,0.1,0,0.2,0,0.3v3.1h-0.7v-2.9
		c0.1-0.7-0.4-1.4-1.2-1.5c-0.1,0-0.2,0-0.2,0c-0.8,0-1.5,0.6-1.5,1.4c0,0,0,0,0,0.1v2.8h-0.7V225.3L104.6,225.3z"/>
</g>
<rect x="124.4" y="72.7" class="st0" width="87.2" height="42.4"/>
<g class="st1">
	<path class="st2" d="M139.5,90.4h0.6l2.8,6.2h-0.7l-0.7-1.6h-3.3l-0.7,1.6h-0.7L139.5,90.4z M141.2,94.3l-1.4-3.1l-1.4,3.1H141.2z"
		/>
	<path class="st2" d="M143.5,93.5L143.5,93.5c-0.1-1.7,1.3-3.1,3-3.2c0,0,0.1,0,0.1,0c0.9,0,1.8,0.3,2.4,1l-0.5,0.5
		c-0.5-0.5-1.2-0.8-1.9-0.8c-1.3,0-2.4,1.1-2.4,2.4c0,0,0,0.1,0,0.1l0,0c-0.1,1.3,1,2.4,2.3,2.5c0,0,0.1,0,0.1,0
		c0.8,0,1.5-0.3,2-0.9l0.5,0.4c-0.6,0.7-1.5,1.1-2.5,1.1c-1.7,0-3.1-1.3-3.1-3C143.5,93.6,143.5,93.5,143.5,93.5z"/>
	<path class="st2" d="M149.8,93.5L149.8,93.5c-0.1-1.7,1.3-3.1,3-3.2c0,0,0.1,0,0.1,0c0.9,0,1.8,0.3,2.4,1l-0.5,0.5
		c-0.5-0.5-1.2-0.8-1.9-0.8c-1.3,0-2.4,1.1-2.4,2.4c0,0,0,0.1,0,0.1l0,0c-0.1,1.3,1,2.4,2.3,2.5c0,0,0.1,0,0.1,0
		c0.8,0,1.5-0.3,2-0.9l0.5,0.4c-0.6,0.7-1.5,1.1-2.5,1.1c-1.7,0-3.1-1.3-3.1-3C149.8,93.6,149.8,93.5,149.8,93.5z"/>
	<path class="st2" d="M156.5,90.4h4.4V91h-3.7v2.1h3.3v0.6h-3.3v2.1h3.8v0.6h-4.5L156.5,90.4L156.5,90.4L156.5,90.4z"/>
	<path class="st2" d="M162.4,90.4h2.3c1.4,0,2.3,0.7,2.3,1.9l0,0c-0.1,1.2-1,2.1-2.2,2c-0.1,0-0.1,0-0.2,0h-1.5v2.2h-0.7L162.4,90.4
		L162.4,90.4L162.4,90.4z M164.6,93.7c0.8,0.1,1.5-0.4,1.7-1.2c0,0,0-0.1,0-0.1l0,0c0-0.7-0.6-1.3-1.4-1.3c-0.1,0-0.1,0-0.2,0h-1.5
		v2.7L164.6,93.7L164.6,93.7L164.6,93.7z"/>
	<path class="st2" d="M169.8,91h-2.1v-0.6h4.8V91h-2.1v5.5h-0.7L169.8,91L169.8,91L169.8,91z"/>
	<path class="st2" d="M175.4,90.4h0.6l2.8,6.2h-0.7l-0.7-1.6h-3.3l-0.7,1.6h-0.7L175.4,90.4z M177.1,94.3l-1.4-3.1l-1.4,3.1H177.1z"
		/>
	<path class="st2" d="M180,90.4h0.6l3.9,4.9v-4.9h0.7v6.1h-0.6l-4-5v5h-0.7L180,90.4L180,90.4z"/>
	<path class="st2" d="M186.7,93.5L186.7,93.5c-0.1-1.7,1.3-3.1,3-3.2c0,0,0.1,0,0.1,0c0.9,0,1.8,0.3,2.4,1l-0.5,0.5
		c-0.5-0.5-1.2-0.8-1.9-0.8c-1.3,0-2.4,1.1-2.4,2.4c0,0,0,0.1,0,0.1l0,0c-0.1,1.3,1,2.4,2.3,2.5c0,0,0.1,0,0.1,0
		c0.8,0,1.5-0.3,2-0.9l0.5,0.4c-0.6,0.7-1.5,1.1-2.5,1.1c-1.7,0-3.1-1.3-3.1-3C186.7,93.6,186.7,93.5,186.7,93.5z"/>
	<path class="st2" d="M193.4,90.4h4.4V91h-3.7v2.1h3.3v0.6h-3.3v2.1h3.8v0.6h-4.5L193.4,90.4L193.4,90.4L193.4,90.4z"/>
</g>
<rect x="124.4" y="118.5" class="st6" width="87.2" height="17.1"/>
<rect x="124.4" y="139.1" class="st6" width="87.2" height="17.1"/>
<rect x="124.4" y="159.7" class="st6" width="87.2" height="17.1"/>
<rect x="124.4" y="180.2" class="st7" width="87.2" height="17.1"/>
<g class="st1">
	<path class="st2" d="M147.1,122.7h2.5c1.5,0,2.5,0.8,2.5,2.1l0,0c-0.1,1.3-1.2,2.3-2.4,2.2c-0.1,0-0.1,0-0.2,0h-1.6v2.3h-0.8V122.7
		z M149.5,126.3c0.9,0.1,1.7-0.5,1.8-1.3c0-0.1,0-0.1,0-0.2l0,0c0-1-0.7-1.4-1.8-1.4h-1.7v2.9H149.5z"/>
	<path class="st2" d="M153.4,124.4h0.7v1.3c0.3-0.8,1.1-1.4,2-1.4v0.8H156c-1.1,0-1.9,0.8-1.9,2.3v2h-0.7V124.4L153.4,124.4z"/>
	<path class="st2" d="M156.7,126.9L156.7,126.9c0-1.4,1.1-2.6,2.6-2.6c0,0,0,0,0,0c1.4,0,2.6,1.1,2.6,2.5l0,0c0,1.4-1.1,2.6-2.6,2.6
		c0,0,0,0,0,0c-1.3,0.1-2.5-0.9-2.6-2.3C156.7,127.1,156.7,127,156.7,126.9z M161.1,126.9L161.1,126.9c0-1-0.7-1.9-1.7-1.9
		c0,0,0,0-0.1,0c-1,0-1.8,0.8-1.8,1.8c0,0,0,0.1,0,0.1l0,0c0,1,0.7,1.9,1.7,1.9c0,0,0,0,0.1,0C160.3,128.8,161.1,128,161.1,126.9
		C161.1,126.9,161.1,126.9,161.1,126.9z"/>
	<path class="st2" d="M162.4,124.4h0.8l1.7,4.1l1.7-4.1h0.8l-2.1,5h-0.6L162.4,124.4z"/>
	<path class="st2" d="M168.5,122.6h0.8v0.8h-0.8V122.6z M168.5,124.4h0.7v4.9h-0.7V124.4z"/>
	<path class="st2" d="M170.5,128.7l0.4-0.5c0.5,0.4,1.1,0.6,1.7,0.6c0.5,0.1,0.9-0.2,1-0.7c0,0,0-0.1,0-0.1l0,0
		c0-0.5-0.6-0.7-1.2-0.9c-0.8-0.2-1.6-0.5-1.6-1.4l0,0c0.1-0.8,0.8-1.5,1.6-1.4c0,0,0.1,0,0.1,0c0.6,0,1.3,0.2,1.8,0.5l-0.3,0.6
		c-0.4-0.3-1-0.5-1.5-0.5c-0.5-0.1-0.9,0.2-1,0.7c0,0,0,0,0,0l0,0c0,0.5,0.6,0.6,1.3,0.8s1.6,0.5,1.6,1.4l0,0c0,0.9-0.8,1.5-1.7,1.5
		c0,0,0,0,0,0C171.9,129.5,171.1,129.2,170.5,128.7z"/>
	<path class="st2" d="M175.7,122.6h0.8v0.8h-0.8V122.6z M175.7,124.4h0.7v4.9h-0.7V124.4z"/>
	<path class="st2" d="M177.9,126.9L177.9,126.9c0-1.4,1.1-2.6,2.6-2.6c0,0,0,0,0,0c1.4,0,2.6,1.1,2.6,2.5l0,0c0,1.4-1.1,2.6-2.6,2.6
		c0,0,0,0,0,0c-1.3,0.1-2.5-0.9-2.6-2.2C177.9,127.1,177.9,127,177.9,126.9z M182.2,126.9L182.2,126.9c0-1-0.7-1.9-1.7-1.9
		c0,0,0,0-0.1,0c-1,0-1.8,0.8-1.8,1.8c0,0,0,0.1,0,0.1l0,0c0,1,0.7,1.9,1.7,1.9c0,0,0,0,0.1,0c1,0,1.8-0.7,1.8-1.7
		C182.2,127,182.2,127,182.2,126.9L182.2,126.9z"/>
	<path class="st2" d="M184.3,124.4h0.7v0.9c0.3-0.6,1-1,1.7-1c1-0.1,1.9,0.7,1.9,1.7c0,0.1,0,0.2,0,0.3v3.1h-0.7v-2.9
		c0.1-0.7-0.4-1.4-1.2-1.5c-0.1,0-0.2,0-0.2,0c-0.8,0-1.5,0.6-1.5,1.4c0,0,0,0,0,0.1v2.8h-0.7V124.4L184.3,124.4z"/>
</g>
<g class="st1">
	<path class="st2" d="M152.2,143.3h2.3c1.8-0.1,3.4,1.2,3.5,3c0,0.1,0,0.2,0,0.3l0,0c0,1.8-1.4,3.3-3.2,3.3c-0.1,0-0.2,0-0.3,0h-2.3
		V143.3z M152.9,144v5.3h1.6c1.4,0.1,2.7-0.9,2.8-2.4c0-0.1,0-0.2,0-0.2l0,0c0-1.4-1.1-2.6-2.6-2.6c-0.1,0-0.2,0-0.2,0L152.9,144
		L152.9,144L152.9,144z"/>
	<path class="st2" d="M159.2,147.5L159.2,147.5c-0.1-1.4,1-2.5,2.4-2.6c0,0,0,0,0,0c1.3,0,2.3,1.1,2.3,2.4c0,0.1,0,0.2,0,0.2v0.2
		H160c0,0.9,0.8,1.7,1.7,1.7c0.6,0,1.1-0.2,1.5-0.7l0.5,0.4c-0.5,0.6-1.2,0.9-2,0.9c-1.3,0.1-2.4-0.9-2.5-2.2
		C159.2,147.7,159.2,147.6,159.2,147.5z M163.1,147.2c0-0.9-0.7-1.7-1.6-1.7c-0.9,0-1.6,0.8-1.6,1.7H163.1z"/>
	<path class="st2" d="M165.1,145h0.7v1c0.4-0.7,1.1-1.1,1.9-1.1c1.3,0,2.3,1.1,2.3,2.3c0,0.1,0,0.1,0,0.2l0,0c0.1,1.4-1,2.5-2.3,2.6
		c-0.8,0-1.5-0.4-1.9-1v2.5h-0.7V145z M169.3,147.5L169.3,147.5c0.1-1-0.6-1.8-1.6-1.9c0,0-0.1,0-0.1,0c-1,0-1.8,0.9-1.8,1.9l0,0
		c0,1,0.8,1.9,1.8,1.9c1,0,1.7-0.8,1.7-1.8C169.3,147.6,169.3,147.5,169.3,147.5z"/>
	<path class="st2" d="M171.5,143h0.7v6.9h-0.7V143z"/>
	<path class="st2" d="M173.6,147.5L173.6,147.5c0-1.4,1.1-2.6,2.6-2.6c0,0,0,0,0,0c1.4,0,2.6,1.1,2.6,2.5l0,0c0,1.4-1.1,2.6-2.6,2.6
		c0,0,0,0,0,0c-1.3,0.1-2.5-0.9-2.6-2.3C173.6,147.7,173.6,147.6,173.6,147.5z M178,147.5L178,147.5c0-1-0.7-1.9-1.7-1.9
		c0,0,0,0-0.1,0c-1,0-1.8,0.8-1.8,1.8c0,0,0,0.1,0,0.1l0,0c0,1,0.7,1.9,1.7,1.9c0,0,0,0,0.1,0C177.2,149.4,178,148.5,178,147.5z"/>
	<path class="st2" d="M183.4,145h0.8l-2.1,5.1c-0.1,0.8-0.8,1.4-1.6,1.4c-0.3,0-0.7-0.1-1-0.2l0.2-0.6c0.2,0.1,0.5,0.2,0.8,0.2
		c0.5,0,0.9-0.4,1-0.9l-2.2-4.9h0.8l1.8,4.1L183.4,145z"/>
</g>
<g class="st1">
	<path class="st2" d="M152.4,169.5l0.5-0.6c0.6,0.6,1.4,0.9,2.3,0.9c0.7,0.1,1.4-0.4,1.5-1.1c0,0,0,0,0,0l0,0c0-0.6-0.3-1-1.7-1.3
		s-2.2-0.8-2.2-1.9l0,0c0.1-1.1,1.1-1.9,2.2-1.8c0,0,0,0,0,0c0.8,0,1.7,0.3,2.3,0.8l-0.4,0.6c-0.5-0.5-1.2-0.7-1.9-0.7
		c-0.7-0.1-1.3,0.3-1.4,1c0,0,0,0.1,0,0.1l0,0c0,0.6,0.3,1,1.8,1.3s2.2,0.9,2.2,1.9l0,0c-0.1,1.1-1.1,2-2.2,1.9c0,0,0,0-0.1,0
		C154.2,170.7,153.2,170.3,152.4,169.5z"/>
	<path class="st2" d="M158.8,165.6h0.7v0.8c0.3-0.6,0.9-0.9,1.6-0.9c0.7,0,1.3,0.4,1.6,1c0.4-0.6,1-1,1.7-1c1,0,1.8,0.8,1.8,1.8
		c0,0.1,0,0.2,0,0.2v3h-0.7v-2.9c0.1-0.7-0.3-1.4-1-1.5c-0.1,0-0.2,0-0.3,0c-0.8,0-1.3,0.7-1.3,1.5c0,0,0,0,0,0v2.8h-0.7v-2.9
		c0.1-0.7-0.4-1.4-1.1-1.5c-0.1,0-0.1,0-0.2,0c-0.8,0-1.4,0.6-1.4,1.4c0,0,0,0.1,0,0.1v2.8h-0.7L158.8,165.6L158.8,165.6
		L158.8,165.6z"/>
	<path class="st2" d="M167.5,168.1L167.5,168.1c0-1.4,1.1-2.6,2.6-2.6c0,0,0,0,0,0c1.4,0,2.6,1.1,2.6,2.5l0,0c0,1.4-1.1,2.6-2.6,2.6
		c0,0,0,0,0,0c-1.4,0.1-2.5-1-2.6-2.4C167.5,168.2,167.5,168.1,167.5,168.1z M171.9,168.1L171.9,168.1c0-1-0.7-1.9-1.7-1.9
		c0,0,0,0-0.1,0c-1,0-1.8,0.8-1.8,1.8c0,0,0,0.1,0,0.1l0,0c0,1,0.7,1.9,1.7,1.9c0,0,0,0,0.1,0C171.1,170,171.9,169.1,171.9,168.1z"
		/>
	<path class="st2" d="M174,163.6h0.7v4.8l2.7-2.8h0.9l-2.1,2.1l2.1,2.8h-0.9l-1.8-2.3l-1,1v1.3h-0.7v-6.9L174,163.6L174,163.6z"/>
	<path class="st2" d="M178.8,168.1L178.8,168.1c-0.1-1.4,1-2.5,2.4-2.6c0,0,0,0,0,0c1.3,0,2.3,1.1,2.3,2.4c0,0.1,0,0.2,0,0.2v0.2
		h-3.9c0,0.9,0.8,1.7,1.7,1.7c0.6,0,1.1-0.2,1.5-0.7l0.5,0.4c-0.5,0.6-1.2,0.9-2,0.9c-1.3,0-2.5-1-2.5-2.3
		C178.8,168.2,178.8,168.2,178.8,168.1z M182.7,167.8c0-0.9-0.7-1.7-1.6-1.7c-0.9,0-1.6,0.8-1.6,1.7H182.7z"/>
</g>
<g>
	<path class="st2" d="M144.1,184.4h4.8v0.7h-4v2.4h3.6v0.7h-3.6v2.9h-0.8V184.4L144.1,184.4z"/>
	<path class="st2" d="M150.2,189.2v-3.1h0.7v2.9c-0.1,0.7,0.4,1.4,1.2,1.5c0.1,0,0.2,0,0.2,0c0.8,0,1.5-0.6,1.5-1.4c0,0,0,0,0-0.1
		v-2.8h0.7v4.9h-0.7v-0.9c-0.3,0.6-1,1-1.7,1c-1,0.1-1.8-0.6-1.9-1.6C150.2,189.5,150.2,189.3,150.2,189.2z"/>
	<path class="st2" d="M156.1,186.2h0.7v0.9c0.3-0.6,1-1,1.7-1c1-0.1,1.9,0.7,1.9,1.7c0,0.1,0,0.2,0,0.3v3.1h-0.7v-2.9
		c0.1-0.7-0.4-1.4-1.2-1.5c-0.1,0-0.2,0-0.2,0c-0.8,0-1.5,0.6-1.5,1.4c0,0,0,0,0,0.1v2.8h-0.7V186.2L156.1,186.2z"/>
	<path class="st2" d="M161.6,188.7L161.6,188.7c0-1.4,1.1-2.6,2.5-2.6c0.8,0,1.5,0.3,2,0.9l-0.5,0.5c-0.4-0.4-0.9-0.7-1.5-0.7
		c-1,0-1.8,0.8-1.8,1.8c0,0,0,0,0,0.1l0,0c0,1,0.7,1.9,1.7,1.9c0,0,0,0,0.1,0c0.6,0,1.1-0.3,1.5-0.7l0.5,0.4c-0.5,0.6-1.2,1-2,1
		C162.7,191.2,161.6,190.1,161.6,188.7z"/>
	<path class="st2" d="M167.6,189.8v-3h-0.7v-0.6h0.7v-1.5h0.7v1.5h1.6v0.6h-1.6v2.9c-0.1,0.4,0.2,0.7,0.6,0.8c0.1,0,0.2,0,0.2,0
		c0.3,0,0.5,0,0.7-0.2v0.6c-0.3,0.1-0.6,0.2-0.9,0.2c-0.6,0.1-1.2-0.3-1.3-0.9C167.6,190.1,167.6,189.9,167.6,189.8z"/>
	<path class="st2" d="M171.2,184.3h0.8v0.8h-0.8V184.3z M171.3,186.2h0.7v4.9h-0.7V186.2z"/>
	<path class="st2" d="M173.4,188.7L173.4,188.7c0-1.4,1.1-2.6,2.6-2.6c0,0,0,0,0,0c1.4,0,2.6,1.1,2.6,2.5l0,0c0,1.4-1.1,2.6-2.6,2.6
		c0,0,0,0,0,0C174.6,191.2,173.4,190.1,173.4,188.7z M177.8,188.7L177.8,188.7c0-1-0.7-1.9-1.7-1.9c0,0,0,0-0.1,0
		c-1,0-1.8,0.8-1.8,1.8c0,0,0,0.1,0,0.1l0,0c0,1,0.7,1.9,1.7,1.9c0,0,0,0,0.1,0C177,190.5,177.8,189.7,177.8,188.7L177.8,188.7z"/>
	<path class="st2" d="M179.8,186.2h0.7v0.9c0.3-0.6,1-1,1.7-1c1-0.1,1.9,0.7,1.9,1.7c0,0.1,0,0.2,0,0.3v3.1h-0.7v-2.9
		c0.1-0.7-0.4-1.4-1.2-1.5c-0.1,0-0.2,0-0.2,0c-0.8,0-1.5,0.6-1.5,1.4c0,0,0,0,0,0.1v2.8h-0.7V186.2L179.8,186.2z"/>
	<path class="st2" d="M185.3,189.7L185.3,189.7c0-1.1,0.9-1.6,2.1-1.6c0.5,0,1,0.1,1.5,0.2v-0.2c0.1-0.7-0.4-1.3-1.1-1.3
		c-0.1,0-0.3,0-0.4,0c-0.5,0-1,0.2-1.5,0.4l-0.2-0.6c0.6-0.2,1.2-0.4,1.8-0.4c0.6,0,1.1,0.2,1.6,0.5c0.3,0.4,0.5,0.9,0.5,1.4v3h-0.7
		v-0.7c-0.4,0.5-1.1,0.8-1.8,0.8C186.2,191.3,185.4,190.7,185.3,189.7C185.3,189.8,185.3,189.7,185.3,189.7z M188.9,189.3v-0.5
		c-0.5-0.1-0.9-0.2-1.4-0.2c-0.9,0-1.4,0.4-1.4,1l0,0c0.1,0.6,0.6,1,1.2,1C188.1,190.7,188.8,190.2,188.9,189.3
		C188.9,189.4,188.9,189.3,188.9,189.3L188.9,189.3z"/>
	<path class="st2" d="M191.3,184.2h0.7v6.9h-0.7V184.2z"/>
</g>
<circle class="st3" cx="235.5" cy="24.7" r="24.7"/>
<line class="st8" x1="235.5" y1="49.4" x2="235.5" y2="65.8"/>
<g class="st1">
	<polygon class="st5" points="232.4,64.9 235.5,70.3 238.6,64.9 	"/>
</g>
<g class="st1">
	<path class="st2" d="M221.1,16h2.1c1.7-0.1,3.2,1.2,3.3,2.9c0,0,0,0.1,0,0.1l0,0c0,1.7-1.4,3.1-3.1,3.1c-0.1,0-0.1,0-0.2,0h-2.1V16
		z M221.8,16.6v4.9h1.4c1.3,0.1,2.4-0.9,2.5-2.2c0-0.1,0-0.2,0-0.2l0,0c0-1.3-1-2.4-2.3-2.4c-0.1,0-0.2,0-0.2,0h-1.4V16.6z"/>
	<path class="st2" d="M227.5,19.9L227.5,19.9c-0.1-1.3,0.9-2.3,2.1-2.4c0,0,0,0,0.1,0c1.2,0,2.2,1.1,2.1,2.3c0,0,0,0.1,0,0.1v0.2
		h-3.6c0,0.9,0.7,1.5,1.6,1.5c0,0,0,0,0,0c0.5,0,1-0.2,1.4-0.6l0.4,0.4c-0.5,0.5-1.2,0.8-1.9,0.8c-1.2,0-2.2-1-2.2-2.2
		C227.5,20,227.5,19.9,227.5,19.9z M231.1,19.6c0-0.8-0.6-1.5-1.4-1.5c0,0,0,0,0,0c-0.8,0.1-1.4,0.7-1.5,1.5H231.1z"/>
	<path class="st2" d="M233.1,15.7h0.7v6.4h-0.7V15.7z"/>
	<path class="st2" d="M235.3,15.9h0.8v0.7h-0.8V15.9z M235.4,17.6h0.7v4.5h-0.7V17.6z"/>
	<path class="st2" d="M237.2,17.6h0.7l1.5,3.8l1.5-3.8h0.7l-2,4.6H239L237.2,17.6z"/>
	<path class="st2" d="M242.2,19.9L242.2,19.9c-0.1-1.3,0.9-2.3,2.1-2.4c0,0,0,0,0.1,0c1.2,0,2.2,1.1,2.1,2.3c0,0,0,0.1,0,0.1v0.2
		h-3.6c0,0.9,0.7,1.5,1.6,1.5c0,0,0,0,0,0c0.5,0,1-0.2,1.4-0.6l0.4,0.4c-0.5,0.5-1.2,0.8-1.9,0.8c-1.2,0-2.2-1-2.2-2.2
		C242.2,20,242.2,19.9,242.2,19.9z M245.8,19.6c0-0.8-0.6-1.5-1.4-1.5c0,0,0,0,0,0c-0.8,0.1-1.4,0.7-1.5,1.5H245.8z"/>
	<path class="st2" d="M247.7,17.6h0.7v1.2c0.3-0.8,1-1.3,1.8-1.3v0.7h-0.1c-1,0-1.8,0.8-1.8,1.8c0,0.1,0,0.2,0,0.3v1.8h-0.7
		L247.7,17.6L247.7,17.6z"/>
</g>
<g class="st1">
	<path class="st2" d="M219.4,29.6L219.4,29.6c-0.1-1.7,1.3-3.1,3-3.2c0,0,0.1,0,0.1,0c0.9,0,1.8,0.3,2.4,1l-0.5,0.5
		c-0.5-0.5-1.2-0.8-1.9-0.8c-1.3,0-2.4,1.1-2.4,2.4c0,0,0,0.1,0,0.1l0,0c-0.1,1.3,1,2.4,2.3,2.5c0,0,0.1,0,0.1,0
		c0.8,0,1.5-0.3,2-0.9l0.5,0.4c-0.6,0.7-1.5,1.1-2.5,1.1c-1.7,0-3.1-1.3-3.1-3C219.4,29.7,219.4,29.6,219.4,29.6z"/>
	<path class="st2" d="M226,26.2h0.7v2.7c0.3-0.6,0.9-0.9,1.6-0.9c0.9-0.1,1.7,0.6,1.7,1.5c0,0.1,0,0.2,0,0.3v2.8h-0.7V30
		c0.1-0.7-0.5-1.3-1.2-1.4c0,0-0.1,0-0.1,0c-0.8,0-1.4,0.6-1.4,1.3c0,0,0,0,0,0.1v2.6h-0.7v-6.4L226,26.2L226,26.2z"/>
	<path class="st2" d="M231.1,31.3L231.1,31.3c0-1,0.8-1.5,1.9-1.5c0.5,0,0.9,0.1,1.4,0.2v-0.2c0-0.6-0.4-1.2-1-1.2
		c-0.1,0-0.2,0-0.3,0c-0.5,0-1,0.1-1.4,0.3l-0.2-0.6c0.5-0.2,1-0.4,1.6-0.4c0.5,0,1.1,0.2,1.5,0.5c0.3,0.3,0.5,0.8,0.5,1.3v2.8h-0.6
		v-0.7c-0.4,0.5-1,0.8-1.6,0.8c-0.8,0.2-1.5-0.2-1.8-1C231.1,31.5,231.1,31.4,231.1,31.3z M234.4,31v-0.4c-0.4-0.1-0.9-0.2-1.3-0.2
		c-0.6-0.1-1.2,0.3-1.3,0.9c0,0,0,0,0,0l0,0c0.1,0.5,0.5,1,1.1,0.9c0,0,0,0,0,0C233.6,32.3,234.3,31.7,234.4,31L234.4,31z"/>
	<path class="st2" d="M236.5,28.1h0.7v0.8c0.3-0.6,0.9-0.9,1.5-0.9c0.9-0.1,1.7,0.6,1.7,1.5c0,0.1,0,0.2,0,0.3v2.8h-0.7V30
		c0.1-0.7-0.5-1.3-1.2-1.4c0,0-0.1,0-0.1,0c-0.8,0-1.4,0.6-1.4,1.3c0,0,0,0,0,0.1v2.6h-0.7v-4.5L236.5,28.1L236.5,28.1z"/>
	<path class="st2" d="M241.8,33.4l0.3-0.5c0.5,0.4,1.1,0.6,1.7,0.6c0.8,0.1,1.5-0.5,1.6-1.3c0-0.1,0-0.2,0-0.3v-0.5
		c-0.4,0.6-1.1,1-1.8,1c-1.1,0.1-2-0.8-2.1-1.9c0-0.1,0-0.1,0-0.2l0,0c0-1.2,0.9-2.1,2.1-2.1c0.7,0,1.4,0.3,1.8,0.9v-0.8h0.7V32
		c0,0.6-0.2,1.2-0.6,1.6c-0.5,0.4-1.1,0.6-1.7,0.6C243.1,34,242.4,33.8,241.8,33.4z M245.5,30.1L245.5,30.1c0-0.9-0.8-1.6-1.7-1.6
		c-0.8-0.1-1.5,0.6-1.6,1.4c0,0,0,0.1,0,0.1l0,0c0,0.8,0.7,1.5,1.5,1.5c0,0,0.1,0,0.1,0c0.7,0.2,1.5-0.2,1.7-1
		C245.5,30.4,245.5,30.2,245.5,30.1L245.5,30.1z"/>
	<path class="st2" d="M247.4,30.4L247.4,30.4c-0.1-1.3,0.9-2.3,2.1-2.4c0,0,0,0,0.1,0c1.2,0,2.2,1.1,2.1,2.3c0,0,0,0.1,0,0.1v0.2
		h-3.6c0,0.9,0.7,1.5,1.6,1.5c0,0,0,0,0,0c0.5,0,1-0.2,1.4-0.6l0.4,0.4c-0.5,0.5-1.2,0.8-1.9,0.8c-1.2,0-2.2-1-2.2-2.2
		C247.4,30.5,247.4,30.4,247.4,30.4z M251,30.1c0-0.8-0.6-1.5-1.4-1.5c0,0,0,0,0,0c-0.8,0.1-1.4,0.7-1.5,1.5H251z"/>
</g>
<rect x="218.8" y="72.7" class="st0" width="53.4" height="42.4"/>
<g class="st1">
	<path class="st2" d="M231,94v-3.6h0.7v3.5c-0.1,1,0.6,1.9,1.6,2.1c0.1,0,0.2,0,0.3,0c1,0,1.8-0.7,1.8-1.7c0-0.1,0-0.2,0-0.3v-3.6
		h0.7v3.5c0.2,1.3-0.8,2.5-2.1,2.7c-0.2,0-0.4,0-0.5,0c-1.3,0.1-2.4-0.9-2.5-2.2C231,94.3,231,94.1,231,94z"/>
	<path class="st2" d="M237.7,90.4h0.6l3.9,4.9v-4.9h0.7v6.1h-0.6l-4-5v5h-0.7L237.7,90.4L237.7,90.4z"/>
	<path class="st2" d="M244.7,90.4h0.7v6.1h-0.7V90.4z"/>
	<path class="st2" d="M246.9,93.5L246.9,93.5c0-1.7,1.3-3.2,3.1-3.2c0,0,0,0,0,0c1.7,0,3.1,1.4,3.1,3.2c0,0,0,0,0,0l0,0
		c0,1.7-1.3,3.2-3.1,3.2c0,0,0,0,0,0C248.3,96.7,246.9,95.3,246.9,93.5C246.9,93.5,246.9,93.5,246.9,93.5z M252.5,93.5L252.5,93.5
		c0.1-1.3-1-2.4-2.3-2.5c0,0-0.1,0-0.1,0c-1.3,0-2.4,1.1-2.4,2.4c0,0,0,0.1,0,0.1l0,0c-0.1,1.3,1,2.4,2.3,2.5c0,0,0.1,0,0.1,0
		c1.3,0,2.4-1.1,2.4-2.4C252.5,93.6,252.5,93.5,252.5,93.5z"/>
	<path class="st2" d="M254.7,90.4h0.6l3.9,4.9v-4.9h0.7v6.1h-0.6l-4-5v5h-0.7L254.7,90.4L254.7,90.4z"/>
</g>
<rect x="218.8" y="118.5" class="st6" width="53.4" height="17.1"/>
<rect x="218.8" y="139.1" class="st6" width="53.4" height="17.1"/>
<rect x="218.8" y="159.7" class="st6" width="53.4" height="17.1"/>
<rect x="218.8" y="180.2" class="st7" width="53.4" height="17.1"/>
<g class="st1">
	<path class="st2" d="M224.6,122.7h2.5c1.5,0,2.5,0.8,2.5,2.1l0,0c-0.1,1.3-1.2,2.3-2.4,2.2c-0.1,0-0.1,0-0.2,0h-1.6v2.3h-0.8V122.7
		z M227,126.3c0.9,0.1,1.7-0.5,1.8-1.3c0-0.1,0-0.1,0-0.2l0,0c0-1-0.7-1.4-1.8-1.4h-1.7v2.9H227z"/>
	<path class="st2" d="M230.8,124.4h0.7v1.3c0.3-0.8,1.1-1.4,2-1.4v0.8h-0.1c-1.1,0-1.9,0.8-1.9,2.3v2h-0.7V124.4L230.8,124.4z"/>
	<path class="st2" d="M234.2,126.9L234.2,126.9c0-1.4,1.1-2.6,2.6-2.6c0,0,0,0,0,0c1.4,0,2.6,1.1,2.6,2.5l0,0c0,1.4-1.1,2.6-2.6,2.6
		c0,0,0,0,0,0c-1.3,0.1-2.5-0.9-2.6-2.2C234.2,127.1,234.2,127,234.2,126.9z M238.5,126.9L238.5,126.9c0-1-0.7-1.9-1.7-1.9
		c0,0,0,0-0.1,0c-1,0-1.8,0.8-1.8,1.8c0,0,0,0.1,0,0.1l0,0c0,1,0.7,1.9,1.7,1.9c0,0,0,0,0.1,0c1,0,1.8-0.7,1.8-1.7
		C238.5,127,238.5,127,238.5,126.9z"/>
	<path class="st2" d="M239.8,124.4h0.8l1.7,4.1l1.7-4.1h0.8l-2.1,5h-0.6L239.8,124.4z"/>
	<path class="st2" d="M245.9,122.6h0.8v0.8h-0.8V122.6z M246,124.4h0.7v4.9H246V124.4z"/>
	<path class="st2" d="M248,128.7l0.4-0.5c0.5,0.4,1.1,0.6,1.7,0.6c0.5,0.1,0.9-0.2,1-0.7c0,0,0-0.1,0-0.1l0,0c0-0.5-0.6-0.7-1.2-0.9
		c-0.8-0.2-1.6-0.5-1.6-1.4l0,0c0.1-0.8,0.8-1.5,1.6-1.4c0,0,0.1,0,0.1,0c0.6,0,1.3,0.2,1.8,0.5l-0.3,0.6c-0.4-0.3-1-0.5-1.5-0.5
		c-0.5-0.1-0.9,0.2-1,0.7c0,0,0,0,0,0l0,0c0,0.5,0.6,0.6,1.3,0.8s1.6,0.5,1.6,1.4l0,0c-0.1,0.9-0.8,1.6-1.7,1.5c0,0,0,0-0.1,0
		C249.3,129.5,248.5,129.2,248,128.7z"/>
	<path class="st2" d="M253.1,122.6h0.8v0.8h-0.8V122.6z M253.2,124.4h0.7v4.9h-0.7V124.4z"/>
	<path class="st2" d="M255.3,126.9L255.3,126.9c0-1.4,1.1-2.6,2.6-2.6c0,0,0,0,0,0c1.4,0,2.6,1.1,2.6,2.5l0,0c0,1.4-1.1,2.6-2.6,2.6
		c0,0,0,0,0,0c-1.3,0.1-2.5-0.9-2.6-2.3C255.3,127.1,255.3,127,255.3,126.9z M259.7,126.9L259.7,126.9c0-1-0.7-1.9-1.7-1.9
		c0,0,0,0-0.1,0c-1,0-1.8,0.8-1.8,1.8c0,0,0,0.1,0,0.1l0,0c0,1,0.7,1.9,1.7,1.9c0,0,0,0,0.1,0C258.9,128.8,259.7,128,259.7,126.9
		C259.7,126.9,259.7,126.9,259.7,126.9z"/>
	<path class="st2" d="M261.8,124.4h0.7v0.9c0.3-0.6,1-1,1.7-1c1-0.1,1.9,0.7,1.9,1.7c0,0.1,0,0.2,0,0.3v3.1h-0.7v-2.9
		c0.1-0.7-0.4-1.4-1.2-1.5c-0.1,0-0.2,0-0.2,0c-0.8,0-1.5,0.6-1.5,1.4c0,0,0,0,0,0.1v2.8h-0.7V124.4L261.8,124.4z"/>
</g>
<g class="st1">
	<path class="st2" d="M229.6,143.3h2.3c1.8-0.1,3.4,1.2,3.5,3c0,0.1,0,0.2,0,0.3l0,0c0,1.8-1.4,3.3-3.2,3.3c-0.1,0-0.2,0-0.3,0h-2.3
		V143.3z M230.3,144v5.3h1.6c1.4,0.1,2.7-0.9,2.8-2.4c0-0.1,0-0.2,0-0.2l0,0c0-1.4-1.1-2.6-2.6-2.6c-0.1,0-0.2,0-0.2,0L230.3,144
		L230.3,144L230.3,144z"/>
	<path class="st2" d="M236.6,147.5L236.6,147.5c-0.1-1.4,1-2.5,2.4-2.6c0,0,0,0,0,0c1.3,0,2.3,1.1,2.3,2.4c0,0.1,0,0.2,0,0.2v0.2
		h-3.9c0,0.9,0.8,1.7,1.7,1.7c0.6,0,1.1-0.2,1.5-0.7l0.5,0.4c-0.5,0.6-1.2,0.9-2,0.9c-1.3,0.1-2.4-0.9-2.5-2.2
		C236.6,147.7,236.6,147.6,236.6,147.5z M240.5,147.2c0-0.9-0.7-1.7-1.6-1.7c-0.9,0-1.6,0.8-1.6,1.7H240.5z"/>
	<path class="st2" d="M242.5,145h0.7v1c0.4-0.7,1.1-1.1,1.9-1.1c1.3,0,2.3,1.1,2.3,2.3c0,0.1,0,0.1,0,0.2l0,0c0.1,1.4-1,2.5-2.3,2.6
		c-0.8,0-1.5-0.4-1.9-1v2.5h-0.7V145z M246.7,147.5L246.7,147.5c0.1-1-0.6-1.8-1.6-1.9c0,0-0.1,0-0.1,0c-1,0-1.8,0.9-1.8,1.9l0,0
		c0,1,0.8,1.9,1.8,1.9c0.9,0,1.7-0.7,1.7-1.7C246.7,147.7,246.7,147.6,246.7,147.5z"/>
	<path class="st2" d="M248.9,143h0.7v6.9h-0.7V143z"/>
	<path class="st2" d="M251,147.5L251,147.5c0-1.4,1.1-2.6,2.6-2.6c0,0,0,0,0,0c1.4,0,2.6,1.1,2.6,2.5l0,0c0,1.4-1.1,2.6-2.6,2.6
		c0,0,0,0,0,0c-1.3,0.1-2.5-0.9-2.6-2.3C251,147.7,251,147.6,251,147.5z M255.4,147.5L255.4,147.5c0-1-0.7-1.9-1.7-1.9
		c0,0,0,0-0.1,0c-1,0-1.8,0.8-1.8,1.8c0,0,0,0.1,0,0.1l0,0c0,1,0.7,1.9,1.7,1.9c0,0,0,0,0.1,0C254.6,149.4,255.4,148.6,255.4,147.5
		C255.4,147.6,255.4,147.5,255.4,147.5z"/>
	<path class="st2" d="M260.9,145h0.8l-2.1,5.1c-0.1,0.8-0.8,1.4-1.6,1.4c-0.3,0-0.7-0.1-1-0.2l0.2-0.6c0.2,0.1,0.5,0.2,0.8,0.2
		c0.5,0,0.9-0.4,1-0.9l-2.2-4.9h0.8l1.8,4.1L260.9,145z"/>
</g>
<g class="st1">
	<path class="st2" d="M229.8,169.5l0.5-0.6c0.6,0.6,1.4,0.9,2.3,0.9c0.7,0.1,1.4-0.4,1.5-1.1c0,0,0,0,0,0l0,0c0-0.6-0.3-1-1.7-1.3
		s-2.2-0.8-2.2-1.9l0,0c0.1-1.1,1.1-1.9,2.2-1.8c0,0,0,0,0,0c0.8,0,1.7,0.3,2.3,0.8l-0.4,0.6c-0.5-0.5-1.2-0.7-1.9-0.7
		c-0.7-0.1-1.3,0.3-1.4,1c0,0,0,0.1,0,0.1l0,0c0,0.6,0.3,1,1.8,1.3s2.2,0.9,2.2,1.9l0,0c-0.1,1.1-1.1,2-2.2,1.9c0,0,0,0-0.1,0
		C231.6,170.7,230.6,170.3,229.8,169.5z"/>
	<path class="st2" d="M236.2,165.6h0.7v0.8c0.3-0.6,0.9-0.9,1.6-0.9c0.7,0,1.3,0.4,1.6,1c0.4-0.6,1-1,1.7-1c1,0,1.8,0.8,1.8,1.8
		c0,0.1,0,0.2,0,0.2v3h-0.7v-2.9c0.1-0.7-0.3-1.4-1-1.5c-0.1,0-0.2,0-0.3,0c-0.8,0-1.3,0.7-1.3,1.5c0,0,0,0,0,0v2.8h-0.7v-2.9
		c0.1-0.7-0.4-1.4-1.1-1.5c-0.1,0-0.1,0-0.2,0c-0.8,0-1.4,0.6-1.4,1.4c0,0,0,0.1,0,0.1v2.8h-0.7L236.2,165.6L236.2,165.6
		L236.2,165.6z"/>
	<path class="st2" d="M245,168.1L245,168.1c0-1.4,1.1-2.6,2.6-2.6c0,0,0,0,0,0c1.4,0,2.6,1.1,2.6,2.5l0,0c0,1.4-1.1,2.6-2.6,2.6
		c0,0,0,0,0,0c-1.3,0.1-2.5-0.9-2.6-2.3C245,168.3,245,168.2,245,168.1z M249.3,168.1L249.3,168.1c0-1-0.7-1.9-1.7-1.9
		c0,0,0,0-0.1,0c-1,0-1.8,0.8-1.8,1.8c0,0,0,0.1,0,0.1l0,0c0,1,0.7,1.9,1.7,1.9c0,0,0,0,0.1,0C248.5,170,249.3,169.2,249.3,168.1
		C249.3,168.2,249.3,168.1,249.3,168.1L249.3,168.1z"/>
	<path class="st2" d="M251.4,163.6h0.7v4.8l2.7-2.8h0.9l-2.1,2.1l2.1,2.8h-0.9l-1.8-2.3l-1,1v1.3h-0.7v-6.9L251.4,163.6L251.4,163.6
		z"/>
	<path class="st2" d="M256.3,168.1L256.3,168.1c-0.1-1.4,1-2.5,2.4-2.6c0,0,0,0,0,0c1.3,0,2.3,1.1,2.3,2.4c0,0.1,0,0.2,0,0.2v0.2
		h-3.9c0,0.9,0.8,1.7,1.7,1.7c0.6,0,1.1-0.2,1.5-0.7l0.5,0.4c-0.5,0.6-1.2,0.9-2,0.9c-1.3,0-2.5-1-2.5-2.3
		C256.3,168.2,256.3,168.2,256.3,168.1z M260.2,167.8c0-0.9-0.7-1.7-1.6-1.7c-0.9,0-1.6,0.8-1.6,1.7H260.2z"/>
</g>
<g>
	<path class="st2" d="M221.6,184.4h4.8v0.7h-4v2.4h3.6v0.7h-3.6v2.9h-0.8V184.4L221.6,184.4z"/>
	<path class="st2" d="M227.6,189.2v-3.1h0.7v2.9c-0.1,0.7,0.4,1.4,1.2,1.5c0.1,0,0.2,0,0.2,0c0.8,0,1.5-0.6,1.5-1.4c0,0,0,0,0-0.1
		v-2.8h0.7v4.9h-0.7v-0.9c-0.3,0.6-1,1-1.7,1c-1,0.1-1.9-0.7-1.9-1.7C227.6,189.4,227.6,189.3,227.6,189.2z"/>
	<path class="st2" d="M233.5,186.2h0.7v0.9c0.3-0.6,1-1,1.7-1c1-0.1,1.9,0.7,1.9,1.7c0,0.1,0,0.2,0,0.3v3.1h-0.7v-2.9
		c0.1-0.7-0.4-1.4-1.2-1.5c-0.1,0-0.2,0-0.2,0c-0.8,0-1.5,0.6-1.5,1.4c0,0,0,0,0,0.1v2.8h-0.7V186.2L233.5,186.2z"/>
	<path class="st2" d="M239.1,188.7L239.1,188.7c0-1.4,1.1-2.6,2.5-2.6c0.8,0,1.5,0.3,2,0.9l-0.5,0.5c-0.4-0.4-0.9-0.7-1.5-0.7
		c-1,0-1.8,0.8-1.8,1.8c0,0,0,0,0,0.1l0,0c0,1,0.7,1.9,1.7,1.9c0,0,0,0,0.1,0c0.6,0,1.1-0.3,1.5-0.7l0.5,0.4c-0.5,0.6-1.2,1-2,1
		C240.2,191.2,239.1,190.1,239.1,188.7z"/>
	<path class="st2" d="M245.1,189.8v-3h-0.7v-0.6h0.7v-1.5h0.7v1.5h1.6v0.6h-1.6v2.9c-0.1,0.4,0.2,0.7,0.6,0.8c0.1,0,0.2,0,0.2,0
		c0.3,0,0.5,0,0.7-0.2v0.6c-0.3,0.1-0.6,0.2-0.9,0.2c-0.6,0.1-1.2-0.3-1.3-0.9C245.1,190.1,245.1,189.9,245.1,189.8z"/>
	<path class="st2" d="M248.7,184.3h0.8v0.8h-0.8V184.3z M248.7,186.2h0.7v4.9h-0.7V186.2z"/>
	<path class="st2" d="M250.8,188.7L250.8,188.7c0-1.4,1.1-2.6,2.6-2.6c0,0,0,0,0,0c1.4,0,2.6,1.1,2.6,2.5l0,0c0,1.4-1.1,2.6-2.6,2.6
		c0,0,0,0,0,0C252,191.2,250.8,190.1,250.8,188.7z M255.2,188.7L255.2,188.7c0-1-0.7-1.9-1.7-1.9c0,0,0,0-0.1,0
		c-1,0-1.8,0.8-1.8,1.8c0,0,0,0.1,0,0.1l0,0c0,1,0.7,1.9,1.7,1.9c0,0,0,0,0.1,0C254.4,190.6,255.2,189.7,255.2,188.7z"/>
	<path class="st2" d="M257.3,186.2h0.7v0.9c0.3-0.6,1-1,1.7-1c1-0.1,1.9,0.7,1.9,1.7c0,0.1,0,0.2,0,0.3v3.1h-0.7v-2.9
		c0.1-0.7-0.4-1.4-1.2-1.5c-0.1,0-0.2,0-0.2,0c-0.8,0-1.5,0.6-1.5,1.4c0,0,0,0,0,0.1v2.8h-0.7V186.2L257.3,186.2z"/>
	<path class="st2" d="M262.8,189.7L262.8,189.7c0-1.1,0.9-1.6,2.1-1.6c0.5,0,1,0.1,1.5,0.2v-0.2c0.1-0.7-0.4-1.3-1.1-1.3
		c-0.1,0-0.3,0-0.4,0c-0.5,0-1,0.2-1.5,0.4l-0.2-0.6c0.6-0.2,1.2-0.4,1.8-0.4c0.6,0,1.1,0.2,1.6,0.5c0.3,0.4,0.5,0.9,0.5,1.4v3h-0.7
		v-0.7c-0.4,0.5-1.1,0.8-1.8,0.8C263.7,191.3,262.9,190.7,262.8,189.7C262.8,189.8,262.8,189.7,262.8,189.7z M266.4,189.3v-0.5
		c-0.5-0.1-0.9-0.2-1.4-0.2c-0.9,0-1.4,0.4-1.4,1l0,0c0.1,0.6,0.6,1,1.2,1C265.6,190.7,266.3,190.1,266.4,189.3L266.4,189.3z"/>
	<path class="st2" d="M268.7,184.2h0.7v6.9h-0.7V184.2z"/>
</g>
<rect x="279.3" y="72.7" class="st0" width="77.1" height="42.4"/>
<g class="st1">
	<path class="st2" d="M290.8,90.4h2.6c0.6-0.1,1.3,0.1,1.7,0.6c0.3,0.3,0.5,0.7,0.5,1.2l0,0c0,0.9-0.8,1.7-1.7,1.8l1.9,2.5H295
		l-1.8-2.4h-1.8v2.4h-0.7v-6.1H290.8L290.8,90.4z M293.3,93.5c0.8,0.1,1.5-0.4,1.6-1.2c0,0,0-0.1,0-0.1l0,0c0-0.8-0.6-1.2-1.6-1.2
		h-1.9v2.5H293.3z"/>
	<path class="st2" d="M297.1,90.4h4.4V91h-3.7v2.1h3.3v0.6h-3.3v2.1h3.8v0.6h-4.5L297.1,90.4L297.1,90.4L297.1,90.4z"/>
	<path class="st2" d="M302.9,90.4h0.7v2.7h3.5v-2.7h0.7v6.1h-0.7v-2.8h-3.5v2.8h-0.7V90.4z"/>
	<path class="st2" d="M309.6,90.4h4.4V91h-3.7v2.1h3.3v0.6h-3.3v2.1h3.8v0.6h-4.5L309.6,90.4L309.6,90.4L309.6,90.4z"/>
	<path class="st2" d="M317.7,90.4h0.6l2.8,6.2h-0.7l-0.7-1.6h-3.3l-0.7,1.6H315L317.7,90.4z M319.4,94.3l-1.4-3.1l-1.4,3.1H319.4z"
		/>
	<path class="st2" d="M322.4,90.4h2.6c0.6-0.1,1.3,0.1,1.7,0.6c0.3,0.3,0.5,0.7,0.5,1.2l0,0c0,0.9-0.8,1.7-1.7,1.8l1.9,2.5h-0.8
		l-1.8-2.4H323v2.4h-0.7v-6.1H322.4L322.4,90.4z M325,93.5c0.8,0.1,1.5-0.4,1.6-1.2c0,0,0-0.1,0-0.1l0,0c0-0.8-0.6-1.2-1.6-1.2h-1.9
		v2.5H325z"/>
	<path class="st2" d="M328.3,95.6l0.4-0.5c0.5,0.6,1.3,0.9,2.1,0.9c0.7,0.1,1.3-0.3,1.4-1c0,0,0,0,0,0l0,0c0-0.6-0.3-0.9-1.6-1.2
		s-2.1-0.8-2.1-1.8l0,0c0-1,0.8-1.7,1.8-1.7c0.1,0,0.1,0,0.2,0c0.8,0,1.6,0.3,2.2,0.8l-0.4,0.5c-0.5-0.5-1.1-0.7-1.8-0.7
		c-0.6-0.1-1.2,0.3-1.3,0.9c0,0,0,0.1,0,0.1l0,0c0,0.6,0.3,0.9,1.7,1.2s2,0.8,2,1.7l0,0c0,1.1-0.9,1.7-2.1,1.7
		C329.9,96.6,328.9,96.3,328.3,95.6z"/>
	<path class="st2" d="M336.5,90.4h0.6l2.8,6.2h-0.7l-0.7-1.6h-3.3l-0.7,1.6h-0.7L336.5,90.4z M338.2,94.3l-1.4-3.1l-1.4,3.1H338.2z"
		/>
	<path class="st2" d="M341.1,90.4h0.7v5.5h3.5v0.6h-4.1L341.1,90.4L341.1,90.4z"/>
</g>
<rect x="279.3" y="118.5" class="st6" width="77.1" height="17.1"/>
<rect x="279.3" y="139.1" class="st6" width="77.1" height="17.1"/>
<rect x="279.3" y="159.7" class="st6" width="77.1" height="17.1"/>
<rect x="279.3" y="180.2" class="st7" width="77.1" height="17.1"/>
<g class="st1">
	<path class="st2" d="M297,122.7h2.5c1.5,0,2.5,0.8,2.5,2.1l0,0c-0.1,1.3-1.2,2.3-2.4,2.2c-0.1,0-0.1,0-0.2,0h-1.6v2.3H297V122.7z
		 M299.3,126.3c0.9,0.1,1.7-0.5,1.8-1.3c0-0.1,0-0.1,0-0.2l0,0c0-1-0.7-1.4-1.8-1.4h-1.7v2.9H299.3z"/>
	<path class="st2" d="M303.2,124.4h0.7v1.3c0.3-0.8,1.1-1.4,2-1.4v0.8h-0.1c-1.1,0-1.9,0.8-1.9,2.3v2h-0.7V124.4L303.2,124.4z"/>
	<path class="st2" d="M306.5,126.9L306.5,126.9c0-1.4,1.1-2.6,2.6-2.6c0,0,0,0,0,0c1.4,0,2.6,1.1,2.6,2.5l0,0c0,1.4-1.1,2.6-2.6,2.6
		c0,0,0,0,0,0c-1.3,0.1-2.5-0.9-2.6-2.3C306.5,127.1,306.5,127,306.5,126.9z M310.9,126.9L310.9,126.9c0-1-0.7-1.9-1.7-1.9
		c0,0,0,0-0.1,0c-1,0-1.8,0.8-1.8,1.8c0,0,0,0.1,0,0.1l0,0c0,1,0.7,1.9,1.7,1.9c0,0,0,0,0.1,0C310.1,128.8,310.9,128,310.9,126.9
		C310.9,126.9,310.9,126.9,310.9,126.9z"/>
	<path class="st2" d="M312.2,124.4h0.8l1.7,4.1l1.7-4.1h0.8l-2.1,5h-0.6L312.2,124.4z"/>
	<path class="st2" d="M318.3,122.6h0.8v0.8h-0.8V122.6z M318.3,124.4h0.7v4.9h-0.7V124.4z"/>
	<path class="st2" d="M320.3,128.7l0.4-0.5c0.5,0.4,1.1,0.6,1.7,0.6c0.5,0.1,0.9-0.2,1-0.7c0,0,0-0.1,0-0.1l0,0
		c0-0.5-0.6-0.7-1.2-0.9c-0.8-0.2-1.6-0.5-1.6-1.4l0,0c0.1-0.8,0.8-1.5,1.6-1.4c0,0,0.1,0,0.1,0c0.6,0,1.3,0.2,1.8,0.5l-0.3,0.6
		c-0.4-0.3-1-0.5-1.5-0.5c-0.5-0.1-0.9,0.2-1,0.7c0,0,0,0,0,0l0,0c0,0.5,0.6,0.6,1.3,0.8s1.6,0.5,1.6,1.4l0,0c0,0.9-0.8,1.5-1.7,1.5
		c0,0,0,0,0,0C321.7,129.5,320.9,129.2,320.3,128.7z"/>
	<path class="st2" d="M325.5,122.6h0.8v0.8h-0.8V122.6z M325.6,124.4h0.7v4.9h-0.7V124.4z"/>
	<path class="st2" d="M327.7,126.9L327.7,126.9c0-1.4,1.1-2.6,2.6-2.6c0,0,0,0,0,0c1.4,0,2.6,1.1,2.6,2.5l0,0c0,1.4-1.1,2.6-2.6,2.6
		c0,0,0,0,0,0c-1.3,0.1-2.5-0.9-2.6-2.3C327.7,127.1,327.7,127,327.7,126.9z M332.1,126.9L332.1,126.9c0-1-0.7-1.9-1.7-1.9
		c0,0,0,0-0.1,0c-1,0-1.8,0.8-1.8,1.8c0,0,0,0.1,0,0.1l0,0c0,1,0.7,1.9,1.7,1.9c0,0,0,0,0.1,0C331.3,128.8,332.1,128,332.1,126.9
		C332.1,126.9,332.1,126.9,332.1,126.9z"/>
	<path class="st2" d="M334.1,124.4h0.7v0.9c0.3-0.6,1-1,1.7-1c1-0.1,1.9,0.7,1.9,1.7c0,0.1,0,0.2,0,0.3v3.1h-0.7v-2.9
		c0.1-0.7-0.4-1.4-1.2-1.5c-0.1,0-0.2,0-0.2,0c-0.8,0-1.5,0.6-1.5,1.4c0,0,0,0,0,0.1v2.8h-0.7V124.4L334.1,124.4z"/>
</g>
<g class="st1">
	<path class="st2" d="M302,143.3h2.3c1.8-0.1,3.4,1.2,3.5,3c0,0.1,0,0.2,0,0.3l0,0c0,1.8-1.4,3.3-3.2,3.3c-0.1,0-0.2,0-0.3,0H302
		V143.3z M302.7,144v5.3h1.6c1.4,0.1,2.7-0.9,2.8-2.4c0-0.1,0-0.2,0-0.2l0,0c0-1.4-1.1-2.6-2.6-2.6c-0.1,0-0.2,0-0.2,0L302.7,144
		L302.7,144L302.7,144z"/>
	<path class="st2" d="M309,147.5L309,147.5c-0.1-1.4,1-2.5,2.4-2.6c0,0,0,0,0,0c1.3,0,2.3,1.1,2.3,2.4c0,0.1,0,0.2,0,0.2v0.2h-3.9
		c0,0.9,0.8,1.7,1.7,1.7c0.6,0,1.1-0.2,1.5-0.7l0.5,0.4c-0.5,0.6-1.2,0.9-2,0.9c-1.3,0.1-2.4-0.9-2.5-2.2
		C309,147.7,309,147.6,309,147.5z M312.9,147.2c0-0.9-0.7-1.7-1.6-1.7c-0.9,0-1.6,0.8-1.6,1.7H312.9z"/>
	<path class="st2" d="M314.9,145h0.7v1c0.4-0.7,1.1-1.1,1.9-1.1c1.3,0,2.3,1.1,2.3,2.3c0,0.1,0,0.1,0,0.2l0,0c0.1,1.4-1,2.5-2.3,2.6
		c-0.8,0-1.5-0.4-1.9-1v2.5h-0.7V145z M319.1,147.5L319.1,147.5c0.1-1-0.6-1.8-1.6-1.9c0,0-0.1,0-0.1,0c-1,0-1.8,0.9-1.8,1.9l0,0
		c0,1,0.8,1.9,1.8,1.9c1,0,1.7-0.8,1.7-1.8C319.1,147.6,319.1,147.5,319.1,147.5z"/>
	<path class="st2" d="M321.3,143h0.7v6.9h-0.7V143z"/>
	<path class="st2" d="M323.4,147.5L323.4,147.5c0-1.4,1.1-2.6,2.6-2.6c0,0,0,0,0,0c1.4,0,2.6,1.1,2.6,2.5l0,0c0,1.4-1.1,2.6-2.6,2.6
		c0,0,0,0,0,0c-1.3,0.1-2.5-0.9-2.6-2.3C323.4,147.7,323.4,147.6,323.4,147.5z M327.8,147.5L327.8,147.5c0-1-0.7-1.9-1.7-1.9
		c0,0,0,0-0.1,0c-1,0-1.8,0.8-1.8,1.8c0,0,0,0.1,0,0.1l0,0c0,1,0.7,1.9,1.7,1.9c0,0,0,0,0.1,0C327,149.4,327.8,148.5,327.8,147.5
		L327.8,147.5z"/>
	<path class="st2" d="M333.2,145h0.8l-2.1,5.1c-0.1,0.8-0.8,1.4-1.6,1.4c-0.3,0-0.7-0.1-1-0.2l0.2-0.6c0.2,0.1,0.5,0.2,0.8,0.2
		c0.5,0,0.9-0.4,1-0.9l-2.2-4.9h0.8l1.8,4.1L333.2,145z"/>
</g>
<g class="st1">
	<path class="st2" d="M302.2,169.5l0.5-0.6c0.6,0.6,1.4,0.9,2.3,0.9c0.7,0.1,1.4-0.4,1.5-1.1c0,0,0,0,0,0l0,0c0-0.6-0.3-1-1.7-1.3
		s-2.2-0.8-2.2-1.9l0,0c0.1-1.1,1.1-1.9,2.2-1.8c0,0,0,0,0,0c0.8,0,1.7,0.3,2.3,0.8l-0.4,0.6c-0.5-0.5-1.2-0.7-1.9-0.7
		c-0.7-0.1-1.3,0.3-1.4,1c0,0,0,0.1,0,0.1l0,0c0,0.6,0.3,1,1.8,1.3s2.2,0.9,2.2,1.9l0,0c-0.1,1.1-1.1,2-2.2,1.9c0,0,0,0-0.1,0
		C304,170.7,303,170.3,302.2,169.5z"/>
	<path class="st2" d="M308.6,165.6h0.7v0.8c0.3-0.6,0.9-0.9,1.6-0.9c0.7,0,1.3,0.4,1.6,1c0.4-0.6,1-1,1.7-1c1,0,1.8,0.8,1.8,1.8
		c0,0.1,0,0.2,0,0.2v3h-0.7v-2.9c0.1-0.7-0.3-1.4-1-1.5c-0.1,0-0.2,0-0.3,0c-0.8,0-1.4,0.7-1.4,1.5c0,0,0,0,0,0v2.8h-0.7v-2.9
		c0.1-0.7-0.4-1.4-1.1-1.5c-0.1,0-0.1,0-0.2,0c-0.8,0-1.4,0.6-1.4,1.4c0,0,0,0.1,0,0.1v2.8h-0.7v-4.7L308.6,165.6L308.6,165.6z"/>
	<path class="st2" d="M317.3,168.1L317.3,168.1c0-1.4,1.1-2.6,2.6-2.6c0,0,0,0,0,0c1.4,0,2.6,1.1,2.6,2.5l0,0c0,1.4-1.1,2.6-2.6,2.6
		c0,0,0,0,0,0c-1.4,0.1-2.5-1-2.6-2.4C317.3,168.2,317.3,168.1,317.3,168.1z M321.7,168.1L321.7,168.1c0-1-0.7-1.9-1.7-1.9
		c0,0,0,0-0.1,0c-1,0-1.8,0.8-1.8,1.8c0,0,0,0.1,0,0.1l0,0c0,1,0.7,1.9,1.7,1.9c0,0,0,0,0.1,0C320.9,170,321.7,169.2,321.7,168.1
		C321.7,168.2,321.7,168.1,321.7,168.1z"/>
	<path class="st2" d="M323.8,163.6h0.7v4.8l2.7-2.8h0.9l-2.1,2.1l2.1,2.8h-0.9l-1.8-2.3l-1,1v1.3h-0.7v-6.9L323.8,163.6L323.8,163.6
		z"/>
	<path class="st2" d="M328.6,168.1L328.6,168.1c-0.1-1.4,1-2.5,2.4-2.6c0,0,0,0,0,0c1.3,0,2.3,1.1,2.3,2.4c0,0.1,0,0.2,0,0.2v0.2
		h-3.9c0,0.9,0.8,1.7,1.7,1.7c0.6,0,1.1-0.2,1.5-0.7l0.5,0.4c-0.5,0.6-1.2,0.9-2,0.9c-1.3,0-2.5-1-2.5-2.3
		C328.6,168.2,328.6,168.2,328.6,168.1z M332.5,167.8c0-0.9-0.7-1.7-1.6-1.7c-0.9,0-1.6,0.8-1.6,1.7H332.5z"/>
</g>
<g>
	<path class="st2" d="M293.9,184.4h4.8v0.7h-4v2.4h3.6v0.7h-3.6v2.9h-0.8V184.4L293.9,184.4z"/>
	<path class="st2" d="M300,189.2v-3.1h0.7v2.9c-0.1,0.7,0.4,1.4,1.2,1.5c0.1,0,0.2,0,0.2,0c0.8,0,1.5-0.6,1.5-1.4c0,0,0,0,0-0.1
		v-2.8h0.7v4.9h-0.7v-0.9c-0.3,0.6-1,1-1.7,1c-1,0.1-1.9-0.7-1.9-1.7C300,189.4,300,189.3,300,189.2z"/>
	<path class="st2" d="M305.9,186.2h0.7v0.9c0.3-0.6,1-1,1.7-1c1-0.1,1.9,0.7,1.9,1.7c0,0.1,0,0.2,0,0.3v3.1h-0.7v-2.9
		c0.1-0.7-0.4-1.4-1.2-1.5c-0.1,0-0.2,0-0.2,0c-0.8,0-1.5,0.6-1.5,1.4c0,0,0,0,0,0.1v2.8h-0.7V186.2L305.9,186.2z"/>
	<path class="st2" d="M311.4,188.7L311.4,188.7c0-1.4,1.1-2.6,2.5-2.6c0.8,0,1.5,0.3,2,0.9l-0.5,0.5c-0.4-0.4-0.9-0.7-1.5-0.7
		c-1,0-1.8,0.8-1.8,1.8c0,0,0,0,0,0.1l0,0c0,1,0.7,1.9,1.7,1.9c0,0,0,0,0.1,0c0.6,0,1.1-0.3,1.5-0.7l0.5,0.4c-0.5,0.6-1.2,1-2,1
		C312.5,191.2,311.4,190.1,311.4,188.7z"/>
	<path class="st2" d="M317.4,189.8v-3h-0.7v-0.6h0.7v-1.5h0.7v1.5h1.6v0.6h-1.6v2.9c-0.1,0.4,0.2,0.7,0.6,0.8c0.1,0,0.2,0,0.2,0
		c0.3,0,0.5,0,0.7-0.2v0.6c-0.3,0.1-0.6,0.2-0.9,0.2c-0.6,0.1-1.2-0.3-1.3-0.9C317.4,190.1,317.4,189.9,317.4,189.8z"/>
	<path class="st2" d="M321,184.3h0.8v0.8H321V184.3z M321.1,186.2h0.7v4.9h-0.7V186.2z"/>
	<path class="st2" d="M323.2,188.7L323.2,188.7c0-1.4,1.1-2.6,2.6-2.6c0,0,0,0,0,0c1.4,0,2.6,1.1,2.6,2.5l0,0c0,1.4-1.1,2.6-2.6,2.6
		c0,0,0,0,0,0C324.4,191.2,323.2,190.1,323.2,188.7z M327.6,188.7L327.6,188.7c0-1-0.7-1.9-1.7-1.9c0,0,0,0-0.1,0
		c-1,0-1.8,0.8-1.8,1.8c0,0,0,0.1,0,0.1l0,0c0,1,0.7,1.9,1.7,1.9c0,0,0,0,0.1,0C326.8,190.5,327.6,189.7,327.6,188.7z"/>
	<path class="st2" d="M329.6,186.2h0.7v0.9c0.3-0.6,1-1,1.7-1c1-0.1,1.9,0.7,1.9,1.7c0,0.1,0,0.2,0,0.3v3.1h-0.7v-2.9
		c0.1-0.7-0.4-1.4-1.2-1.5c-0.1,0-0.2,0-0.2,0c-0.8,0-1.5,0.6-1.5,1.4c0,0,0,0,0,0.1v2.8h-0.7V186.2L329.6,186.2z"/>
	<path class="st2" d="M335.1,189.7L335.1,189.7c0-1.1,0.9-1.6,2.1-1.6c0.5,0,1,0.1,1.5,0.2v-0.2c0.1-0.7-0.4-1.3-1.1-1.3
		c-0.1,0-0.3,0-0.4,0c-0.5,0-1,0.2-1.5,0.4l-0.2-0.6c0.6-0.2,1.2-0.4,1.8-0.4c0.6,0,1.1,0.2,1.6,0.5c0.3,0.4,0.5,0.9,0.5,1.4v3h-0.7
		v-0.7c-0.4,0.5-1.1,0.8-1.8,0.8C336,191.3,335.2,190.6,335.1,189.7z M338.8,189.3v-0.5c-0.5-0.1-0.9-0.2-1.4-0.2
		c-0.9,0-1.4,0.4-1.4,1l0,0c0.1,0.6,0.6,1,1.2,1C338,190.7,338.7,190.1,338.8,189.3L338.8,189.3z"/>
	<path class="st2" d="M341.1,184.2h0.7v6.9h-0.7V184.2z"/>
</g>
<rect x="363.5" y="72.7" class="st0" width="77.1" height="42.4"/>
<g class="st1">
	<path class="st2" d="M376.8,90.4h2.1c1.7-0.1,3.2,1.2,3.3,2.9c0,0,0,0.1,0,0.1l0,0c0,1.7-1.4,3.1-3.1,3.1c-0.1,0-0.1,0-0.2,0h-2.1
		V90.4z M377.5,91v4.9h1.4c1.3,0.1,2.4-1,2.5-2.3c0,0,0-0.1,0-0.1l0,0c0-1.3-1-2.4-2.3-2.4c-0.1,0-0.2,0-0.2,0h-1.4V91z"/>
	<path class="st2" d="M383.7,90.4h4.4V91h-3.7v2.1h3.3v0.6h-3.3v2.1h3.8v0.6h-4.5L383.7,90.4L383.7,90.4L383.7,90.4z"/>
	<path class="st2" d="M389.6,90.4h0.7v5.5h3.5v0.6h-4.1L389.6,90.4L389.6,90.4z"/>
	<path class="st2" d="M395,90.4h0.7v6.1H395V90.4z"/>
	<path class="st2" d="M397,90.4h0.8l2.2,5.3l2.2-5.3h0.7l-2.6,6.2h-0.6L397,90.4z"/>
	<path class="st2" d="M404.1,90.4h4.4V91h-3.7v2.1h3.3v0.6h-3.3v2.1h3.8v0.6h-4.5L404.1,90.4L404.1,90.4L404.1,90.4z"/>
	<path class="st2" d="M410,90.4h2.6c0.6-0.1,1.3,0.1,1.7,0.6c0.3,0.3,0.5,0.7,0.5,1.2l0,0c0,0.9-0.8,1.7-1.7,1.8l1.9,2.5h-0.8
		l-1.8-2.4h-1.8v2.4h-0.7v-6.1H410L410,90.4z M412.5,93.5c0.8,0.1,1.5-0.4,1.6-1.2c0,0,0-0.1,0-0.1l0,0c0-0.8-0.6-1.2-1.6-1.2h-1.9
		v2.5H412.5z"/>
	<path class="st2" d="M416.3,90.4h4.4V91H417v2.1h3.3v0.6H417v2.1h3.8v0.6h-4.5L416.3,90.4L416.3,90.4L416.3,90.4z"/>
	<path class="st2" d="M422.2,90.4h2.1c1.7-0.1,3.2,1.2,3.3,2.9c0,0,0,0.1,0,0.1l0,0c0,1.7-1.4,3.1-3.1,3.1c-0.1,0-0.1,0-0.2,0h-2.1
		V90.4z M422.8,91v4.9h1.4c1.3,0.1,2.4-1,2.5-2.3c0,0,0-0.1,0-0.1l0,0c0-1.3-1-2.4-2.3-2.4c-0.1,0-0.2,0-0.2,0h-1.4V91z"/>
</g>
<rect x="363.5" y="118.5" class="st6" width="77.1" height="17.1"/>
<rect x="363.5" y="139.1" class="st6" width="77.1" height="17.1"/>
<rect x="363.5" y="159.7" class="st6" width="77.1" height="17.1"/>
<rect x="363.5" y="180.2" class="st7" width="77.1" height="17.1"/>
<g class="st1">
	<path class="st2" d="M381.2,122.7h2.5c1.5,0,2.5,0.8,2.5,2.1l0,0c-0.1,1.3-1.2,2.3-2.4,2.2c-0.1,0-0.1,0-0.2,0H382v2.3h-0.8V122.7z
		 M383.6,126.3c0.9,0.1,1.7-0.5,1.8-1.3c0-0.1,0-0.1,0-0.2l0,0c0-1-0.7-1.4-1.8-1.4h-1.7v2.9H383.6z"/>
	<path class="st2" d="M387.4,124.4h0.7v1.3c0.3-0.8,1.1-1.4,2-1.4v0.8H390c-1.1,0-1.9,0.8-1.9,2.3v2h-0.7V124.4L387.4,124.4z"/>
	<path class="st2" d="M390.7,126.9L390.7,126.9c0-1.4,1.1-2.6,2.6-2.6c0,0,0,0,0,0c1.4,0,2.6,1.1,2.6,2.5l0,0c0,1.4-1.1,2.6-2.6,2.6
		c0,0,0,0,0,0c-1.3,0.1-2.5-0.9-2.6-2.3C390.7,127.1,390.7,127,390.7,126.9z M395.1,126.9L395.1,126.9c0-1-0.7-1.9-1.7-1.9
		c0,0,0,0-0.1,0c-1,0-1.8,0.8-1.8,1.8c0,0,0,0.1,0,0.1l0,0c0,1,0.7,1.9,1.7,1.9c0,0,0,0,0.1,0c1,0,1.8-0.7,1.8-1.7
		C395.1,127,395.1,127,395.1,126.9z"/>
	<path class="st2" d="M396.4,124.4h0.8l1.7,4.1l1.7-4.1h0.8l-2.1,5h-0.6L396.4,124.4z"/>
	<path class="st2" d="M402.5,122.6h0.8v0.8h-0.8V122.6z M402.5,124.4h0.7v4.9h-0.7V124.4z"/>
	<path class="st2" d="M404.6,128.7l0.4-0.5c0.5,0.4,1.1,0.6,1.7,0.6c0.5,0.1,0.9-0.2,1-0.7c0,0,0-0.1,0-0.1l0,0
		c0-0.5-0.6-0.7-1.2-0.9c-0.8-0.2-1.6-0.5-1.6-1.4l0,0c0.1-0.8,0.8-1.5,1.6-1.4c0,0,0.1,0,0.1,0c0.6,0,1.3,0.2,1.8,0.5l-0.3,0.6
		c-0.4-0.3-1-0.5-1.5-0.5c-0.5-0.1-0.9,0.2-1,0.7c0,0,0,0,0,0l0,0c0,0.5,0.6,0.6,1.3,0.8s1.6,0.5,1.6,1.4l0,0
		c-0.1,0.9-0.8,1.6-1.7,1.5c0,0,0,0-0.1,0C405.9,129.5,405.1,129.2,404.6,128.7z"/>
	<path class="st2" d="M409.7,122.6h0.8v0.8h-0.8V122.6z M409.8,124.4h0.7v4.9h-0.7V124.4z"/>
	<path class="st2" d="M411.9,126.9L411.9,126.9c0-1.4,1.1-2.6,2.6-2.6c0,0,0,0,0,0c1.4,0,2.6,1.1,2.6,2.5l0,0c0,1.4-1.1,2.6-2.6,2.6
		c0,0,0,0,0,0c-1.3,0.1-2.5-0.9-2.6-2.3C411.9,127.1,411.9,127,411.9,126.9z M416.3,126.9L416.3,126.9c0-1-0.7-1.9-1.7-1.9
		c0,0,0,0-0.1,0c-1,0-1.8,0.8-1.8,1.8c0,0,0,0.1,0,0.1l0,0c0,1,0.7,1.9,1.7,1.9c0,0,0,0,0.1,0C415.5,128.8,416.3,128,416.3,126.9
		C416.3,126.9,416.3,126.9,416.3,126.9L416.3,126.9z"/>
	<path class="st2" d="M418.4,124.4h0.7v0.9c0.3-0.6,1-1,1.7-1c1-0.1,1.9,0.7,1.9,1.7c0,0.1,0,0.2,0,0.3v3.1H422v-2.9
		c0.1-0.7-0.4-1.4-1.2-1.5c-0.1,0-0.2,0-0.2,0c-0.8,0-1.5,0.6-1.5,1.4c0,0,0,0,0,0.1v2.8h-0.7V124.4L418.4,124.4z"/>
</g>
<g class="st1">
	<path class="st2" d="M386.2,143.3h2.3c1.8-0.1,3.4,1.2,3.5,3c0,0.1,0,0.2,0,0.3l0,0c0,1.8-1.4,3.3-3.2,3.3c-0.1,0-0.2,0-0.3,0h-2.3
		V143.3z M386.9,144v5.3h1.6c1.4,0.1,2.7-0.9,2.8-2.4c0-0.1,0-0.2,0-0.2l0,0c0-1.4-1.1-2.6-2.6-2.6c-0.1,0-0.2,0-0.2,0L386.9,144
		L386.9,144L386.9,144z"/>
	<path class="st2" d="M393.2,147.5L393.2,147.5c-0.1-1.4,1-2.5,2.4-2.6c0,0,0,0,0,0c1.3,0,2.3,1.1,2.3,2.4c0,0.1,0,0.2,0,0.2v0.2
		H394c0,0.9,0.8,1.7,1.7,1.7c0.6,0,1.1-0.2,1.5-0.7l0.5,0.4c-0.5,0.6-1.2,0.9-2,0.9c-1.3,0.1-2.4-0.9-2.5-2.2
		C393.2,147.7,393.2,147.6,393.2,147.5z M397.1,147.2c0-0.9-0.7-1.7-1.6-1.7c-0.9,0-1.6,0.8-1.6,1.7H397.1z"/>
	<path class="st2" d="M399.1,145h0.7v1c0.4-0.7,1.1-1.1,1.9-1.1c1.3,0,2.3,1.1,2.3,2.3c0,0.1,0,0.1,0,0.2l0,0c0.1,1.4-1,2.5-2.3,2.6
		c-0.8,0-1.5-0.4-1.9-1v2.5h-0.7V145z M403.3,147.5L403.3,147.5c0.1-1-0.6-1.8-1.6-1.9c0,0-0.1,0-0.1,0c-1,0-1.8,0.9-1.8,1.9l0,0
		c0,1,0.8,1.9,1.8,1.9c0.9,0,1.7-0.7,1.7-1.7C403.3,147.7,403.3,147.6,403.3,147.5z"/>
	<path class="st2" d="M405.5,143h0.7v6.9h-0.7V143z"/>
	<path class="st2" d="M407.6,147.5L407.6,147.5c0-1.4,1.1-2.6,2.6-2.6c0,0,0,0,0,0c1.4,0,2.6,1.1,2.6,2.5l0,0c0,1.4-1.1,2.6-2.6,2.6
		c0,0,0,0,0,0c-1.3,0.1-2.5-0.9-2.6-2.3C407.6,147.7,407.6,147.6,407.6,147.5z M412,147.5L412,147.5c0-1-0.7-1.9-1.7-1.9
		c0,0,0,0-0.1,0c-1,0-1.8,0.8-1.8,1.8c0,0,0,0.1,0,0.1l0,0c0,1,0.7,1.9,1.7,1.9c0,0,0,0,0.1,0C411.2,149.4,412,148.6,412,147.5
		C412,147.6,412,147.5,412,147.5z"/>
	<path class="st2" d="M417.5,145h0.8l-2.1,5.1c-0.1,0.8-0.8,1.4-1.6,1.4c-0.3,0-0.7-0.1-1-0.2l0.2-0.6c0.2,0.1,0.5,0.2,0.8,0.2
		c0.5,0,0.9-0.4,1-0.9l-2.2-4.9h0.8l1.8,4.1L417.5,145z"/>
</g>
<g class="st1">
	<path class="st2" d="M386.4,169.5l0.5-0.6c0.6,0.6,1.4,0.9,2.3,0.9c0.7,0.1,1.4-0.4,1.5-1.1c0,0,0,0,0,0l0,0c0-0.6-0.3-1-1.7-1.3
		s-2.2-0.8-2.2-1.9l0,0c0.1-1.1,1.1-1.9,2.2-1.8c0,0,0,0,0,0c0.8,0,1.7,0.3,2.3,0.8l-0.4,0.6c-0.5-0.5-1.2-0.7-1.9-0.7
		c-0.7-0.1-1.3,0.3-1.4,1c0,0,0,0.1,0,0.1l0,0c0,0.6,0.3,1,1.8,1.3s2.2,0.9,2.2,1.9l0,0c-0.1,1.1-1.1,2-2.2,1.9c0,0,0,0-0.1,0
		C388.2,170.7,387.2,170.3,386.4,169.5z"/>
	<path class="st2" d="M392.8,165.6h0.7v0.8c0.3-0.6,0.9-0.9,1.6-0.9c0.7,0,1.3,0.4,1.6,1c0.4-0.6,1-1,1.7-1c1,0,1.8,0.8,1.8,1.8
		c0,0.1,0,0.2,0,0.2v3h-0.7v-2.9c0.1-0.7-0.3-1.4-1-1.5c-0.1,0-0.2,0-0.3,0c-0.8,0-1.3,0.7-1.3,1.5c0,0,0,0,0,0v2.8h-0.7v-2.9
		c0.1-0.7-0.4-1.4-1.1-1.5c-0.1,0-0.1,0-0.2,0c-0.8,0-1.4,0.6-1.4,1.4c0,0,0,0.1,0,0.1v2.8h-0.7L392.8,165.6L392.8,165.6
		L392.8,165.6z"/>
	<path class="st2" d="M401.5,168.1L401.5,168.1c0-1.4,1.1-2.6,2.6-2.6c0,0,0,0,0,0c1.4,0,2.6,1.1,2.6,2.5l0,0c0,1.4-1.1,2.6-2.6,2.6
		c0,0,0,0,0,0c-1.4,0.1-2.5-1-2.6-2.4C401.5,168.2,401.5,168.1,401.5,168.1z M405.9,168.1L405.9,168.1c0-1-0.7-1.9-1.7-1.9
		c0,0,0,0-0.1,0c-1,0-1.8,0.8-1.8,1.8c0,0,0,0.1,0,0.1l0,0c0,1,0.7,1.9,1.7,1.9c0,0,0,0,0.1,0C405.1,170,405.9,169.2,405.9,168.1
		C405.9,168.2,405.9,168.1,405.9,168.1z"/>
	<path class="st2" d="M408,163.6h0.7v4.8l2.7-2.8h0.9l-2.1,2.1l2.1,2.8h-0.9l-1.8-2.3l-1,1v1.3h-0.7v-6.9L408,163.6L408,163.6z"/>
	<path class="st2" d="M412.9,168.1L412.9,168.1c-0.1-1.4,1-2.5,2.4-2.6c0,0,0,0,0,0c1.3,0,2.3,1.1,2.3,2.4c0,0.1,0,0.2,0,0.2v0.2
		h-3.9c0,0.9,0.8,1.7,1.7,1.7c0.6,0,1.1-0.2,1.5-0.7l0.5,0.4c-0.5,0.6-1.2,0.9-2,0.9c-1.3,0-2.5-1-2.5-2.3
		C412.9,168.2,412.9,168.2,412.9,168.1z M416.8,167.8c0-0.9-0.7-1.7-1.6-1.7c-0.9,0-1.6,0.8-1.6,1.7H416.8z"/>
</g>
<g>
	<path class="st2" d="M378.1,184.4h4.8v0.7h-4v2.4h3.6v0.7h-3.6v2.9h-0.8V184.4L378.1,184.4z"/>
	<path class="st2" d="M384.2,189.2v-3.1h0.7v2.9c-0.1,0.7,0.4,1.4,1.2,1.5c0.1,0,0.2,0,0.2,0c0.8,0,1.5-0.6,1.5-1.4c0,0,0,0,0-0.1
		v-2.8h0.7v4.9h-0.7v-0.9c-0.3,0.6-1,1-1.7,1c-1,0.1-1.9-0.7-1.9-1.7C384.2,189.4,384.2,189.3,384.2,189.2z"/>
	<path class="st2" d="M390.1,186.2h0.7v0.9c0.3-0.6,1-1,1.7-1c1-0.1,1.9,0.7,1.9,1.7c0,0.1,0,0.2,0,0.3v3.1h-0.7v-2.9
		c0.1-0.7-0.4-1.4-1.2-1.5c-0.1,0-0.2,0-0.2,0c-0.8,0-1.5,0.6-1.5,1.4c0,0,0,0,0,0.1v2.8h-0.7V186.2L390.1,186.2z"/>
	<path class="st2" d="M395.7,188.7L395.7,188.7c0-1.4,1.1-2.6,2.5-2.6c0.8,0,1.5,0.3,2,0.9l-0.5,0.5c-0.4-0.4-0.9-0.7-1.5-0.7
		c-1,0-1.8,0.8-1.8,1.8c0,0,0,0,0,0.1l0,0c0,1,0.7,1.9,1.7,1.9c0,0,0,0,0.1,0c0.6,0,1.1-0.3,1.5-0.7l0.5,0.4c-0.5,0.6-1.2,1-2,1
		C396.8,191.2,395.7,190.1,395.7,188.7z"/>
	<path class="st2" d="M401.7,189.8v-3H401v-0.6h0.7v-1.5h0.7v1.5h1.6v0.6h-1.6v2.9c-0.1,0.4,0.2,0.7,0.6,0.8c0.1,0,0.2,0,0.2,0
		c0.3,0,0.5,0,0.7-0.2v0.6c-0.3,0.1-0.6,0.2-0.9,0.2c-0.6,0.1-1.2-0.3-1.3-0.9C401.7,190.1,401.7,189.9,401.7,189.8z"/>
	<path class="st2" d="M405.3,184.3h0.8v0.8h-0.8V184.3z M405.3,186.2h0.7v4.9h-0.7V186.2z"/>
	<path class="st2" d="M407.4,188.7L407.4,188.7c0-1.4,1.1-2.6,2.6-2.6c0,0,0,0,0,0c1.4,0,2.6,1.1,2.6,2.5l0,0c0,1.4-1.1,2.6-2.6,2.6
		c0,0,0,0,0,0C408.6,191.2,407.4,190.1,407.4,188.7z M411.8,188.7L411.8,188.7c0-1-0.7-1.9-1.7-1.9c0,0,0,0-0.1,0
		c-1,0-1.8,0.8-1.8,1.8c0,0,0,0.1,0,0.1l0,0c0,1,0.7,1.9,1.7,1.9c0,0,0,0,0.1,0C411,190.6,411.8,189.7,411.8,188.7L411.8,188.7z"/>
	<path class="st2" d="M413.9,186.2h0.7v0.9c0.3-0.6,1-1,1.7-1c1-0.1,1.9,0.7,1.9,1.7c0,0.1,0,0.2,0,0.3v3.1h-0.7v-2.9
		c0.1-0.7-0.4-1.4-1.2-1.5c-0.1,0-0.2,0-0.2,0c-0.8,0-1.5,0.6-1.5,1.4c0,0,0,0,0,0.1v2.8h-0.7V186.2L413.9,186.2z"/>
	<path class="st2" d="M419.4,189.7L419.4,189.7c0-1.1,0.9-1.6,2.1-1.6c0.5,0,1,0.1,1.5,0.2v-0.2c0.1-0.7-0.4-1.3-1.1-1.3
		c-0.1,0-0.3,0-0.4,0c-0.5,0-1,0.2-1.5,0.4l-0.2-0.6c0.6-0.2,1.2-0.4,1.8-0.4c0.6,0,1.1,0.2,1.6,0.5c0.3,0.4,0.5,0.9,0.5,1.4v3H423
		v-0.7c-0.4,0.5-1.1,0.8-1.8,0.8C420.3,191.3,419.5,190.7,419.4,189.7C419.4,189.8,419.4,189.7,419.4,189.7z M423,189.3v-0.5
		c-0.5-0.1-0.9-0.2-1.4-0.2c-0.9,0-1.4,0.4-1.4,1l0,0c0.1,0.6,0.6,1,1.2,1C422.2,190.7,422.9,190.1,423,189.3L423,189.3z"/>
	<path class="st2" d="M425.3,184.2h0.7v6.9h-0.7V184.2z"/>
</g>
<g class="st1">
	<polyline class="st4" points="106.2,70.3 106.2,60.7 133.1,60.7 133.1,65.8 	"/>
	<polygon class="st5" points="130,64.9 133.1,70.3 136.2,64.9 	"/>
</g>
<g class="st1">
	<polyline class="st4" points="261.4,70.3 261.4,60.7 288.3,60.7 288.3,65.8 	"/>
	<polygon class="st5" points="285.1,64.9 288.3,70.3 291.4,64.9 	"/>
</g>
<g class="st1">
	<polyline class="st4" points="345.6,70.3 345.6,60.7 372.5,60.7 372.5,65.8 	"/>
	<polygon class="st5" points="369.3,64.9 372.5,70.3 375.6,64.9 	"/>
</g>
</svg>
