<?xml version="1.0" encoding="utf-8"?>
<!-- Generator: Adobe Illustrator 19.2.1, SVG Export Plug-In . SVG Version: 6.00 Build 0)  -->
<svg version="1.1" id="Layer_1" xmlns="http://www.w3.org/2000/svg" xmlns:xlink="http://www.w3.org/1999/xlink" x="0px" y="0px"
	 viewBox="0 0 78 77.5" style="enable-background:new 0 0 78 77.5;" xml:space="preserve">
<style type="text/css">
	.st0{fill:#CC342D;}
</style>
<g>
	<g>
		<path class="st0" d="M76.9,76.4c-0.8,0.8-1.9,1.1-3,1.1L3.1,67.9c-1.9-0.3-3.3-2-3.1-3.9l2.7-27.7c0.1-0.8,0.4-1.6,1-2.2L34.1,3.7
			c0.6-0.6,1.4-0.9,2.2-1L64,0c1.9-0.2,3.6,1.1,3.9,3l10,70.4C78.1,74.5,77.5,75.6,76.9,76.4L76.9,76.4z M61.3,7.4l-23,2.2L9.7,38.2
			l-2.3,23l62.7,8.5L61.3,7.4L61.3,7.4z"/>
	</g>
	<g>
		<path class="st0" d="M4.9,65.5c-0.6,0.6-1.4,0.7-2.1,0.4c-0.7-0.3-1.1-1.1-1-1.8l2.7-27.7c0-0.4,0.2-0.8,0.5-1.1L35.4,4.9
			c0.3-0.3,0.7-0.5,1.1-0.5l27.7-2.7C65,1.6,65.7,2,66,2.7c0.4,0.7,0.2,1.5-0.3,2L4.9,65.5L4.9,65.5z M59.6,5.8l-22,2.1L8.1,37.4
			L5.9,59.5L59.6,5.8L59.6,5.8z"/>
	</g>
	<g>
		<path class="st0" d="M75.7,75.7c-0.5,0.5-1.4,0.6-2.1,0.3l-67-37.5C5.7,38,5.4,37,5.9,36.1s1.5-1.2,2.4-0.7l61.5,34.4L35.4,8.3
			c-0.5-0.8-0.2-1.9,0.7-2.4c0.8-0.5,1.9-0.2,2.4,0.7l37.5,67C76.4,74.3,76.3,75.1,75.7,75.7L75.7,75.7z"/>
	</g>
	<g>
		<path class="st0" d="M35.2,35.1c-0.3,0.2-0.7,0.4-1.1,0.5L7.7,38.7c-1,0.1-1.9-0.6-2-1.6s0.6-1.9,1.6-2l25-2.9l2.9-25
			c0.1-1,1-1.7,2-1.6s1.7,1,1.6,2L35.7,34C35.7,34.5,35.5,34.8,35.2,35.1L35.2,35.1z"/>
	</g>
	<g>
		<path class="st0" d="M6.5,63.5C6,64,5.2,64.1,4.6,63.8c-0.8-0.4-1.1-1.4-0.7-2.2l19-38.2c0.1-0.3,0.4-0.5,0.7-0.7l38.1-19
			c0.8-0.4,1.8-0.1,2.2,0.7c0.4,0.8,0.1,1.8-0.7,2.2L25.6,25.4L6.8,63.1C6.7,63.2,6.6,63.4,6.5,63.5L6.5,63.5z"/>
	</g>
</g>
<g>
</g>
<g>
</g>
<g>
</g>
<g>
</g>
<g>
</g>
<g>
</g>
<g>
</g>
<g>
</g>
<g>
</g>
<g>
</g>
<g>
</g>
<g>
</g>
<g>
</g>
<g>
</g>
<g>
</g>
</svg>
