<svg xmlns="http://www.w3.org/2000/svg" viewBox="0 0 89.58 88.43"><defs><style>.cls-1{fill:#fff;}.cls-2{fill:#f38b00;}</style></defs><title>chef-footer-logo</title><g id="Layer_2" data-name="Layer 2"><g id="footer"><g id="Layer_2-2" data-name="Layer 2"><g id="Layer_1-2" data-name="Layer 1-2"><path class="cls-1" d="M88.32,70.1h0l-1.1-1.19v2.24h0V68.79h.36l.85,1.3.84-1.3h.31v2.36H88.4V68.9Zm-3.45,1.05H86V67.61H84.86v1.18h2.36V67.61H84.86Z"/><path class="cls-1" d="M0,78.22V78A10.24,10.24,0,0,1,10.07,67.6h.43a10.39,10.39,0,0,1,7.94,3.11L15.62,74a7.43,7.43,0,0,0-5.15-2.24A6,6,0,0,0,4.64,78h0c0,3.45,2.39,6.33,5.84,6.33A7.16,7.16,0,0,0,15.76,82l2.82,2.85a10.29,10.29,0,0,1-8.26,3.59A10.17,10.17,0,0,1,0,78.4q0-.16,0-.33"/><polygon class="cls-1" points="23.57 67.61 28.29 67.61 28.29 75.86 35.36 75.86 35.36 67.61 40.08 67.61 40.08 87.65 36.54 87.65 36.54 79.4 28.29 79.4 28.29 87.65 23.57 87.65 23.57 67.61"/><polygon class="cls-1" points="45.97 67.61 61.29 67.61 61.29 71.15 50.68 71.15 50.68 75.86 60.11 75.86 60.11 79.4 50.68 79.4 50.68 84.11 61.29 84.11 61.29 87.65 45.97 87.65 45.97 67.61"/><polygon class="cls-1" points="67.19 67.61 82.51 67.61 82.51 71.15 71.9 71.15 71.9 77.04 81.33 77.04 81.33 80.58 71.9 80.58 71.9 87.65 67.19 87.65 67.19 67.61"/><path class="cls-1" d="M41.57,40.26A12.76,12.76,0,0,1,29.16,24.48a12.55,12.55,0,0,1,8.45-9.1A12.77,12.77,0,0,1,53.81,24h4.93a17.53,17.53,0,1,0,0,7.07H53.81a12.76,12.76,0,0,1-12.24,9.19"/><path class="cls-1" d="M32.73,36.62a12,12,0,0,0,8.53,3.54v-5a7,7,0,0,1-5-2.05Z"/><path class="cls-2" d="M29.19,28.09a12,12,0,0,0,1,4.86l4.62-2a7,7,0,0,1,6.43-9.86V16A12.08,12.08,0,0,0,29.19,28.09"/><path class="cls-1" d="M45.94,16.27,44.14,21a7,7,0,0,1,3.53,3H53.1a12.12,12.12,0,0,0-7.17-7.74"/><path class="cls-2" d="M44.11,34.11l1.79,4.71a12.12,12.12,0,0,0,7.17-7.74H47.64a7,7,0,0,1-3.53,3"/><path class="cls-2" d="M41.56,50.89A23.25,23.25,0,0,1,25.07,44L21.7,47.42A28.09,28.09,0,0,0,69.43,31.08H64.62A23.37,23.37,0,0,1,41.56,50.89"/><path class="cls-2" d="M41.56,4.76A23.2,23.2,0,0,1,55.5,9.4l2.85-3.83a28.09,28.09,0,0,0-43,12.36l4.48,1.73A23.37,23.37,0,0,1,41.56,4.76"/><path class="cls-1" d="M64.83,24h4.6a27.92,27.92,0,0,0-4-11.36l-4.05,2.53A23.18,23.18,0,0,1,64.61,24"/><path class="cls-2" d="M58.93,24H64A22.81,22.81,0,0,0,49.8,6.33l-1.72,4.43A18,18,0,0,1,59.21,24"/><path class="cls-1" d="M41.25,10.1h0V5.38h0A22.77,22.77,0,0,0,20.07,19.84l4.43,1.72A18,18,0,0,1,41.26,10.09"/><path class="cls-2" d="M23.57,27.54H18.81a22.77,22.77,0,0,0,14.3,21.11l1.79-4.41a18,18,0,0,1-11.34-16.7"/><path class="cls-1" d="M41.25,45.22V50.3A22.77,22.77,0,0,0,63.72,31.08H58.9A18,18,0,0,1,41.25,45.55"/><path class="cls-1" d="M15.84,38.85a28,28,0,0,1-2.37-11.31h4.77a23.39,23.39,0,0,0,2,9.39Z"/></g></g></g></g></svg>