<?xml version="1.0" encoding="utf-8"?>
<!-- Generator: Adobe Illustrator 17.1.0, SVG Export Plug-In . SVG Version: 6.00 Build 0)  -->
<!DOCTYPE svg PUBLIC "-//W3C//DTD SVG 1.1//EN" "http://www.w3.org/Graphics/SVG/1.1/DTD/svg11.dtd">
<svg version="1.1" id="Layer_1" xmlns="http://www.w3.org/2000/svg" xmlns:xlink="http://www.w3.org/1999/xlink" x="0px" y="0px"
	 viewBox="1.5 0.5 641 189" enable-background="new 1.5 0.5 641 189" xml:space="preserve">
<rect fill="#43718A" width="190" height="190"/>
<g enable-background="new    ">
	<path fill="#FFFFFF" d="M46.1,106.4h-2.1L41.4,99l-2.5,7.3h-2.1l-3.8-11.3h2.6l2.3,7.6l2.5-7.6h2.1l2.5,7.6l2.3-7.6h2.6L46.1,106.4
		z"/>
	<path fill="#FFFFFF" d="M56.5,106.5c-3.5,0-5.9-2.6-5.9-5.8v0c0-3.2,2.5-5.8,6-5.8s5.9,2.6,5.9,5.8v0
		C62.5,103.9,60,106.5,56.5,106.5z M59.9,100.7c0-1.9-1.4-3.5-3.4-3.5s-3.4,1.6-3.4,3.5v0c0,1.9,1.4,3.5,3.4,3.5
		S59.9,102.6,59.9,100.7L59.9,100.7z"/>
	<path fill="#FFFFFF" d="M71.5,106.3l-2.4-3.6h-1.9v3.6h-2.5V95.1h5.1c2.6,0,4.2,1.4,4.2,3.7v0c0,1.8-1,2.9-2.4,3.5l2.7,4H71.5z
		 M71.5,98.9c0-1.1-0.7-1.6-1.9-1.6h-2.4v3.2h2.5C70.8,100.5,71.5,99.9,71.5,98.9C71.5,98.9,71.5,98.9,71.5,98.9z"/>
	<path fill="#FFFFFF" d="M83.5,106.3l-3.5-4.8l-1.3,1.3v3.4h-2.5V95.1h2.5v4.9l4.5-4.9h3l-4.6,4.8l4.8,6.4H83.5z"/>
	<path fill="#FFFFFF" d="M91.7,106.4c-1.7,0-3.4-0.6-4.8-1.8l1.5-1.7c1,0.8,2.1,1.4,3.3,1.4c1,0,1.6-0.4,1.6-1.1v0
		c0-0.6-0.4-0.9-2.3-1.4c-2.3-0.6-3.7-1.2-3.7-3.4v0c0-2,1.6-3.4,3.9-3.4c1.6,0,3,0.5,4.2,1.4l-1.3,1.9c-1-0.7-2-1.1-2.9-1.1
		s-1.4,0.4-1.4,1v0c0,0.7,0.5,1,2.4,1.5c2.3,0.6,3.6,1.4,3.6,3.4v0C95.8,105.2,94.2,106.4,91.7,106.4z"/>
	<path fill="#FFFFFF" d="M102.8,97.3v8.9h-2.5v-8.9H97v-2.3h9.3v2.3H102.8z"/>
	<path fill="#FFFFFF" d="M115,106.3l-1-2.5h-4.7l-1,2.5h-2.5l4.8-11.3h2.3l4.8,11.3C117.6,106.3,115,106.3,115,106.3z M111.6,98
		l-1.5,3.6h3L111.6,98z"/>
	<path fill="#FFFFFF" d="M122.9,97.3v8.9h-2.5v-8.9h-3.4v-2.3h9.3v2.3H122.9z"/>
	<path fill="#FFFFFF" d="M128.4,106.3V95.1h2.5v11.2C130.8,106.3,128.4,106.3,128.4,106.3z"/>
	<path fill="#FFFFFF" d="M139.1,106.5c-3.5,0-5.9-2.6-5.9-5.8v0c0-3.2,2.5-5.8,6-5.8s5.9,2.6,5.9,5.8v0
		C145,103.9,142.5,106.5,139.1,106.5z M142.5,100.7c0-1.9-1.4-3.5-3.4-3.5s-3.4,1.6-3.4,3.5v0c0,1.9,1.4,3.5,3.4,3.5
		S142.5,102.6,142.5,100.7L142.5,100.7L142.5,100.7z"/>
	<path fill="#FFFFFF" d="M155.1,106.3l-5.4-7.1v7.1h-2.4V95.1h2.3l5.2,6.9v-6.9h2.4v11.2C157.2,106.3,155.1,106.3,155.1,106.3z"/>
</g>
<g>
	<polygon fill="#556878" points="199.2,94.1 211.8,101.3 199.2,108.6 	"/>
	<rect x="190.6" y="100.1" fill="#556878" width="9.3" height="2.6"/>
</g>
<rect x="217" fill="#F18521" width="190" height="190"/>
<rect x="454.7" y="1.7" fill="none" stroke="#437089" stroke-width="2" stroke-miterlimit="10" width="186.7" height="186.7"/>
<rect x="463.6" y="17.2" fill="none" stroke="#437089" stroke-width="2" stroke-miterlimit="10" width="46.2" height="46.2"/>
<rect x="524.9" y="17.2" fill="none" stroke="#437089" stroke-width="2" stroke-miterlimit="10" width="46.2" height="46.2"/>
<rect x="585.5" y="17.2" fill="none" stroke="#437089" stroke-width="2" stroke-miterlimit="10" width="46.2" height="46.2"/>
<rect x="467" y="66.8" display="none" fill="none" stroke="#437089" stroke-width="2" stroke-miterlimit="10" width="46.2" height="46.2"/>
<rect x="518.3" y="66.8" display="none" fill="none" stroke="#437089" stroke-width="2" stroke-miterlimit="10" width="46.2" height="46.2"/>
<rect x="568.9" y="66.8" display="none" fill="none" stroke="#437089" stroke-width="2" stroke-miterlimit="10" width="46.2" height="46.2"/>
<rect x="464.4" y="131.3" fill="none" stroke="#437089" stroke-width="2" stroke-miterlimit="10" width="46.2" height="46.2"/>
<rect x="525.7" y="131.3" fill="none" stroke="#437089" stroke-width="2" stroke-miterlimit="10" width="46.2" height="46.2"/>
<rect x="586.3" y="131.3" fill="none" stroke="#437089" stroke-width="2" stroke-miterlimit="10" width="46.2" height="46.2"/>
<g enable-background="new    ">
	<path fill="#FFFFFF" d="M263,106.5c-3.3,0-5.7-2.5-5.7-5.8v0c0-3.2,2.4-5.8,5.8-5.8c2.1,0,3.4,0.7,4.4,1.7l-1.6,1.8
		c-0.9-0.8-1.7-1.3-2.9-1.3c-1.9,0-3.2,1.6-3.2,3.5v0c0,1.9,1.3,3.5,3.2,3.5c1.3,0,2.1-0.5,2.9-1.3l1.6,1.6
		C266.4,105.7,265.2,106.5,263,106.5z"/>
	<path fill="#FFFFFF" d="M276.6,106.3v-4.5H272v4.5h-2.5V95.1h2.5v4.4h4.5v-4.4h2.5v11.2C279,106.3,276.6,106.3,276.6,106.3z"/>
	<path fill="#FFFFFF" d="M281.7,106.3V95.1h8.5v2.2h-6v2.3h5.3v2.2h-5.3v2.4h6.1v2.2L281.7,106.3L281.7,106.3z"/>
	<path fill="#FFFFFF" d="M294.9,97.3v2.4h5.3v2.2h-5.3v4.3h-2.5V95.1h8.5v2.2H294.9z"/>
	<path fill="#FFFFFF" d="M311.7,106.4c-1.7,0-3.4-0.6-4.8-1.8l1.5-1.7c1,0.8,2.1,1.4,3.3,1.4c1,0,1.6-0.4,1.6-1.1v0
		c0-0.6-0.4-0.9-2.3-1.4c-2.3-0.6-3.7-1.2-3.7-3.4v0c0-2,1.6-3.4,3.9-3.4c1.6,0,3,0.5,4.2,1.4l-1.3,1.9c-1-0.7-2-1.1-2.9-1.1
		s-1.4,0.4-1.4,1v0c0,0.7,0.5,1,2.4,1.5c2.3,0.6,3.6,1.4,3.6,3.4v0C315.8,105.2,314.1,106.4,311.7,106.4z"/>
	<path fill="#FFFFFF" d="M318,106.3V95.1h8.5v2.2h-6v2.3h5.3v2.2h-5.3v2.4h6.1v2.2L318,106.3L318,106.3z"/>
	<path fill="#FFFFFF" d="M335.5,106.3l-2.4-3.6h-1.9v3.6h-2.5V95.1h5.1c2.6,0,4.2,1.4,4.2,3.7v0c0,1.8-1,2.9-2.4,3.5l2.7,4H335.5z
		 M335.5,98.9c0-1.1-0.7-1.6-1.9-1.6h-2.4v3.2h2.5C334.9,100.5,335.5,99.9,335.5,98.9L335.5,98.9z"/>
	<path fill="#FFFFFF" d="M345.7,106.4h-2.2L339,95.1h2.7l2.9,7.9l2.9-7.9h2.7L345.7,106.4z"/>
	<path fill="#FFFFFF" d="M351.9,106.3V95.1h8.5v2.2h-6v2.3h5.3v2.2h-5.3v2.4h6.1v2.2L351.9,106.3L351.9,106.3z"/>
	<path fill="#FFFFFF" d="M369.5,106.3l-2.4-3.6h-1.9v3.6h-2.5V95.1h5.1c2.6,0,4.2,1.4,4.2,3.7v0c0,1.8-1,2.9-2.4,3.5l2.7,4H369.5z
		 M369.5,98.9c0-1.1-0.7-1.6-1.9-1.6h-2.4v3.2h2.5C368.8,100.5,369.5,99.9,369.5,98.9L369.5,98.9z"/>
</g>
<g enable-background="new    ">
	<path fill="#F08521" d="M505,107.2c-3.3,0-5.7-2.5-5.7-5.8v0c0-3.2,2.4-5.8,5.8-5.8c2.1,0,3.4,0.7,4.4,1.7l-1.6,1.8
		c-0.9-0.8-1.7-1.3-2.9-1.3c-1.9,0-3.2,1.6-3.2,3.5v0c0,1.9,1.3,3.5,3.2,3.5c1.3,0,2.1-0.5,2.9-1.3l1.6,1.6
		C508.4,106.4,507.2,107.2,505,107.2z"/>
	<path fill="#F08521" d="M518.6,107v-4.5H514v4.5h-2.5V95.8h2.5v4.4h4.5v-4.4h2.5V107H518.6z"/>
	<path fill="#F08521" d="M523.7,107V95.8h8.5V98h-6v2.3h5.3v2.2h-5.3v2.4h6.1v2.2L523.7,107L523.7,107z"/>
	<path fill="#F08521" d="M536.9,98v2.4h5.3v2.2h-5.3v4.3h-2.5V95.8h8.5V98C543,98,536.9,98,536.9,98z"/>
	<path fill="#F08521" d="M557.6,107l-5.4-7.1v7.1h-2.4V95.8h2.3l5.2,6.9v-6.9h2.4V107H557.6z"/>
	<path fill="#F08521" d="M567.8,107.2c-3.5,0-5.9-2.6-5.9-5.8v0c0-3.2,2.5-5.8,6-5.8s5.9,2.6,5.9,5.8v0
		C573.8,104.6,571.3,107.2,567.8,107.2z M571.2,101.4c0-1.9-1.4-3.5-3.4-3.5s-3.4,1.6-3.4,3.5v0c0,1.9,1.4,3.5,3.4,3.5
		S571.2,103.3,571.2,101.4L571.2,101.4z"/>
	<path fill="#F08521" d="M580.3,107H576V95.8h4.4c3.5,0,6,2.4,6,5.6v0C586.3,104.6,583.9,107,580.3,107z M583.7,101.4
		c0-2-1.4-3.4-3.4-3.4h-1.9v6.8h1.9C582.4,104.8,583.7,103.4,583.7,101.4L583.7,101.4z"/>
	<path fill="#F08521" d="M588.5,107V95.8h8.5V98h-6v2.3h5.3v2.2h-5.3v2.4h6.1v2.2L588.5,107L588.5,107z"/>
	<path fill="#F08521" d="M603.2,107.2c-1.7,0-3.4-0.6-4.8-1.8l1.5-1.7c1,0.8,2.1,1.4,3.3,1.4c1,0,1.6-0.4,1.6-1.1v0
		c0-0.6-0.4-0.9-2.3-1.4c-2.3-0.6-3.7-1.2-3.7-3.4v0c0-2,1.6-3.4,3.9-3.4c1.6,0,3,0.5,4.2,1.4l-1.3,1.9c-1-0.7-2-1.1-2.9-1.1
		c-0.9,0-1.4,0.4-1.4,1v0c0,0.7,0.5,1,2.4,1.5c2.3,0.6,3.6,1.4,3.6,3.4v0C607.3,105.9,605.6,107.2,603.2,107.2z"/>
</g>
<polygon fill="#F08A21" points="434.8,94.4 447.4,101.7 434.8,108.9 "/>
<polygon fill="#F08A21" points="425.8,108.9 413.2,101.7 425.8,94.4 "/>
<rect x="425.8" y="100.6" fill="#F08A21" width="9.3" height="2.6"/>
<g enable-background="new    ">
	<path fill="#43718A" d="M476.9,42.7l-3.4-4.4v4.4H472v-7h1.4l3.3,4.3v-4.3h1.5v7H476.9z"/>
	<path fill="#43718A" d="M483.2,42.8c-2.2,0-3.7-1.6-3.7-3.6v0c0-2,1.6-3.6,3.7-3.6s3.7,1.6,3.7,3.6v0
		C487,41.2,485.4,42.8,483.2,42.8z M485.4,39.2c0-1.2-0.9-2.2-2.1-2.2c-1.2,0-2.1,1-2.1,2.2v0c0,1.2,0.9,2.2,2.1,2.2
		S485.4,40.4,485.4,39.2L485.4,39.2z"/>
	<path fill="#43718A" d="M491.1,42.7h-2.7v-7h2.7c2.2,0,3.7,1.5,3.7,3.5v0C494.8,41.2,493.3,42.7,491.1,42.7z M493.2,39.2
		c0-1.2-0.9-2.1-2.1-2.1h-1.2v4.2h1.2C492.3,41.3,493.2,40.5,493.2,39.2L493.2,39.2z"/>
	<path fill="#43718A" d="M496.2,42.7v-7h5.3v1.4h-3.7v1.4h3.3v1.4h-3.3v1.5h3.8v1.4H496.2z"/>
</g>
<g enable-background="new    ">
	<path fill="#43718A" d="M539.9,42.7l-3.4-4.4v4.4h-1.5v-7h1.4l3.3,4.3v-4.3h1.5v7H539.9z"/>
	<path fill="#43718A" d="M546.2,42.8c-2.2,0-3.7-1.6-3.7-3.6v0c0-2,1.6-3.6,3.7-3.6s3.7,1.6,3.7,3.6v0
		C550,41.2,548.4,42.8,546.2,42.8z M548.4,39.2c0-1.2-0.9-2.2-2.1-2.2c-1.2,0-2.1,1-2.1,2.2v0c0,1.2,0.9,2.2,2.1,2.2
		S548.4,40.4,548.4,39.2L548.4,39.2z"/>
	<path fill="#43718A" d="M554.1,42.7h-2.7v-7h2.7c2.2,0,3.7,1.5,3.7,3.5v0C557.8,41.2,556.3,42.7,554.1,42.7z M556.2,39.2
		c0-1.2-0.8-2.1-2.1-2.1h-1.2v4.2h1.2C555.3,41.3,556.2,40.5,556.2,39.2L556.2,39.2z"/>
	<path fill="#43718A" d="M559.2,42.7v-7h5.3v1.4h-3.7v1.4h3.3v1.4h-3.3v1.5h3.8v1.4H559.2z"/>
</g>
<g enable-background="new    ">
	<path fill="#43718A" d="M598.4,42.7l-3.4-4.4v4.4h-1.5v-7h1.4l3.3,4.3v-4.3h1.5v7H598.4z"/>
	<path fill="#43718A" d="M604.7,42.8c-2.2,0-3.7-1.6-3.7-3.6v0c0-2,1.6-3.6,3.7-3.6s3.7,1.6,3.7,3.6v0
		C608.5,41.2,606.9,42.8,604.7,42.8z M606.9,39.2c0-1.2-0.9-2.2-2.1-2.2c-1.2,0-2.1,1-2.1,2.2v0c0,1.2,0.9,2.2,2.1,2.2
		S606.9,40.4,606.9,39.2L606.9,39.2z"/>
	<path fill="#43718A" d="M612.6,42.7h-2.7v-7h2.7c2.2,0,3.7,1.5,3.7,3.5v0C616.3,41.2,614.8,42.7,612.6,42.7z M614.7,39.2
		c0-1.2-0.8-2.1-2.1-2.1h-1.2v4.2h1.2C613.8,41.3,614.7,40.5,614.7,39.2L614.7,39.2z"/>
	<path fill="#43718A" d="M617.7,42.7v-7h5.3v1.4h-3.7v1.4h3.3v1.4h-3.3v1.5h3.8v1.4H617.7z"/>
</g>
<g enable-background="new    ">
	<path fill="#43718A" d="M477.1,157.7l-3.4-4.4v4.4h-1.5v-7h1.4l3.3,4.3v-4.3h1.5v7H477.1z"/>
	<path fill="#43718A" d="M483.5,157.8c-2.2,0-3.7-1.6-3.7-3.6v0c0-2,1.6-3.6,3.7-3.6s3.7,1.6,3.7,3.6v0
		C487.2,156.2,485.7,157.8,483.5,157.8z M485.6,154.2c0-1.2-0.9-2.2-2.1-2.2c-1.2,0-2.1,1-2.1,2.2v0c0,1.2,0.9,2.2,2.1,2.2
		S485.6,155.4,485.6,154.2L485.6,154.2z"/>
	<path fill="#43718A" d="M491.3,157.7h-2.7v-7h2.7c2.2,0,3.7,1.5,3.7,3.5v0C495,156.2,493.5,157.7,491.3,157.7z M493.4,154.2
		c0-1.2-0.9-2.1-2.1-2.1h-1.2v4.2h1.2C492.6,156.3,493.4,155.5,493.4,154.2L493.4,154.2z"/>
	<path fill="#43718A" d="M496.4,157.7v-7h5.3v1.4h-3.7v1.4h3.3v1.4h-3.3v1.5h3.8v1.4L496.4,157.7L496.4,157.7z"/>
</g>
<g enable-background="new    ">
	<path fill="#43718A" d="M540.1,157.7l-3.4-4.4v4.4h-1.5v-7h1.4l3.3,4.3v-4.3h1.5v7H540.1z"/>
	<path fill="#43718A" d="M546.5,157.8c-2.2,0-3.7-1.6-3.7-3.6v0c0-2,1.6-3.6,3.7-3.6s3.7,1.6,3.7,3.6v0
		C550.2,156.2,548.7,157.8,546.5,157.8z M548.6,154.2c0-1.2-0.9-2.2-2.1-2.2c-1.2,0-2.1,1-2.1,2.2v0c0,1.2,0.9,2.2,2.1,2.2
		S548.6,155.4,548.6,154.2L548.6,154.2z"/>
	<path fill="#43718A" d="M554.3,157.7h-2.7v-7h2.7c2.2,0,3.7,1.5,3.7,3.5v0C558,156.2,556.5,157.7,554.3,157.7z M556.4,154.2
		c0-1.2-0.8-2.1-2.1-2.1h-1.2v4.2h1.2C555.6,156.3,556.4,155.5,556.4,154.2L556.4,154.2z"/>
	<path fill="#43718A" d="M559.4,157.7v-7h5.3v1.4h-3.7v1.4h3.3v1.4h-3.3v1.5h3.8v1.4L559.4,157.7L559.4,157.7z"/>
</g>
<g enable-background="new    ">
	<path fill="#43718A" d="M598.6,157.7l-3.4-4.4v4.4h-1.5v-7h1.4l3.3,4.3v-4.3h1.5v7H598.6z"/>
	<path fill="#43718A" d="M605,157.8c-2.2,0-3.7-1.6-3.7-3.6v0c0-2,1.6-3.6,3.7-3.6s3.7,1.6,3.7,3.6v0
		C608.7,156.2,607.2,157.8,605,157.8z M607.1,154.2c0-1.2-0.9-2.2-2.1-2.2c-1.2,0-2.1,1-2.1,2.2v0c0,1.2,0.9,2.2,2.1,2.2
		S607.1,155.4,607.1,154.2L607.1,154.2z"/>
	<path fill="#43718A" d="M612.8,157.7h-2.7v-7h2.7c2.2,0,3.7,1.5,3.7,3.5v0C616.5,156.2,615,157.7,612.8,157.7z M614.9,154.2
		c0-1.2-0.8-2.1-2.1-2.1h-1.2v4.2h1.2C614.1,156.3,614.9,155.5,614.9,154.2L614.9,154.2z"/>
	<path fill="#43718A" d="M617.9,157.7v-7h5.3v1.4h-3.7v1.4h3.3v1.4h-3.3v1.5h3.8v1.4L617.9,157.7L617.9,157.7z"/>
</g>
</svg>
