<?xml version="1.0" encoding="utf-8"?>
<!-- Generator: Adobe Illustrator 16.0.0, SVG Export Plug-In . SVG Version: 6.00 Build 0)  -->
<!DOCTYPE svg PUBLIC "-//W3C//DTD SVG 1.1//EN" "http://www.w3.org/Graphics/SVG/1.1/DTD/svg11.dtd">
<svg version="1.1" xmlns="http://www.w3.org/2000/svg" xmlns:xlink="http://www.w3.org/1999/xlink" x="0px" y="0px"
	 width="183.446px" height="50px" viewBox="0 0 183.446 50" enable-background="new 0 0 183.446 50" xml:space="preserve">
<g id="Layer_2" display="none">
	
		<rect x="-313.994" y="-121.864" display="inline" fill="#231313" stroke="#000000" stroke-miterlimit="10" width="893" height="324"/>
</g>
<g id="Layer_1">
	<g>
		<g>
			<path fill="#FFFFFF" d="M56.474,18.857V18.77c0-8.791,6.625-15.99,16.123-15.99c5.831,0,9.32,1.944,12.192,4.771l-4.33,4.992
				c-2.385-2.165-4.814-3.49-7.906-3.49c-5.212,0-8.967,4.329-8.967,9.629v0.089c0,5.3,3.666,9.718,8.967,9.718
				c3.534,0,5.698-1.414,8.127-3.622l4.329,4.373c-3.18,3.401-6.714,5.521-12.677,5.521C63.232,34.759,56.474,27.736,56.474,18.857z
				"/>
			<path fill="#FFFFFF" d="M90.442,3.309h6.802v12.236h12.545V3.309h6.802V34.23h-6.802V21.817H97.245V34.23h-6.802V3.309z"/>
			<path fill="#FFFFFF" d="M124.897,3.309h23.323v6.052h-16.564v6.272h14.577v6.051h-14.577v6.493h16.785v6.052h-23.544V3.309z"/>
			<path fill="#FFFFFF" d="M155.376,3.309h23.544v6.184h-16.741v6.582h14.754v6.184h-14.754V34.23h-6.803V3.309z"/>
		</g>
	</g>
	<path fill="#FFFFFF" d="M24.77,35.926c-6.151,0-11.156-5.004-11.156-11.156c0-6.151,5.005-11.156,11.156-11.156
		c5.078,0,9.37,3.41,10.716,8.06h4.317C38.367,14.69,32.172,9.422,24.77,9.422c-8.462,0-15.347,6.885-15.347,15.347
		s6.884,15.347,15.347,15.347c7.402,0,13.597-5.268,15.033-12.251h-4.317C34.14,32.515,29.848,35.926,24.77,35.926z"/>
	<path fill="#FFFFFF" d="M17.25,32.29c1.927,1.927,4.587,3.12,7.521,3.12v-4.448c-1.71,0-3.258-0.693-4.379-1.813L17.25,32.29z"/>
	<path fill="#F38B00" d="M14.129,24.77c0,1.523,0.324,2.971,0.903,4.282l4.069-1.79c-0.336-0.763-0.524-1.606-0.524-2.493
		c0-3.42,2.772-6.192,6.192-6.192v-4.448C18.903,14.129,14.129,18.902,14.129,24.77z"/>
	<path fill="#FFFFFF" d="M28.628,14.854L27.015,19c1.317,0.514,2.417,1.462,3.117,2.673h4.818
		C33.998,18.55,31.646,16.033,28.628,14.854z"/>
	<path fill="#F38B00" d="M27.015,30.539l1.613,4.147c3.018-1.179,5.37-3.697,6.321-6.82h-4.818
		C29.432,29.076,28.332,30.025,27.015,30.539z"/>
	<path fill="#FFFFFF" d="M5.085,30.722c-0.071-0.233-0.138-0.468-0.2-0.704c-0.004-0.014-0.007-0.029-0.011-0.043
		c-0.058-0.218-0.111-0.438-0.162-0.659c-0.01-0.044-0.019-0.09-0.029-0.135c-0.042-0.19-0.082-0.38-0.118-0.571
		c-0.016-0.085-0.03-0.17-0.045-0.256c-0.027-0.152-0.054-0.305-0.078-0.459c-0.02-0.13-0.037-0.262-0.055-0.394
		c-0.121-0.897-0.186-1.808-0.185-2.732H0c-0.001,1.007,0.062,2.002,0.181,2.982h0c0.002,0.021,0.006,0.042,0.009,0.064
		c0.033,0.267,0.069,0.533,0.111,0.798c0.011,0.073,0.025,0.146,0.037,0.218c0.036,0.218,0.073,0.435,0.115,0.651
		c0.022,0.115,0.047,0.229,0.071,0.343c0.036,0.172,0.072,0.344,0.111,0.515c0.035,0.151,0.072,0.3,0.11,0.449
		c0.034,0.134,0.066,0.268,0.102,0.401c0.048,0.177,0.099,0.352,0.15,0.527c0.021,0.073,0.04,0.147,0.062,0.22l0.002,0
		c0.291,0.959,0.634,1.896,1.033,2.803l3.851-1.693C5.612,32.296,5.326,31.518,5.085,30.722L5.085,30.722z"/>
	<path fill="#F38B00" d="M24.77,45.338c-5.671,0-10.811-2.309-14.536-6.034l-2.976,2.977c4.482,4.482,10.672,7.258,17.512,7.258
		c12.631,0,23.054-9.455,24.577-21.673h-4.241C43.608,37.744,35.06,45.338,24.77,45.338z"/>
	<path fill="#F38B00" d="M24.77,4.201c4.607,0,8.864,1.523,12.295,4.092l2.518-3.375C35.452,1.83,30.325,0,24.77,0
		C14.259,0,5.279,6.547,1.682,15.786l3.92,1.525C8.595,9.646,16.058,4.201,24.77,4.201z"/>
	<path fill="#FFFFFF" d="M45.106,21.673h4.241c-0.455-3.645-1.702-7.044-3.562-10.02l-3.571,2.229
		C43.672,16.21,44.678,18.848,45.106,21.673z"/>
	<path fill="#F38B00" d="M40.329,21.673h4.255c-1.111-7.135-5.997-13.033-12.543-15.59l-1.52,3.908
		C35.5,11.935,39.266,16.322,40.329,21.673z"/>
	<path fill="#FFFFFF" d="M24.77,8.907L24.77,8.907l0-4.19c0,0,0,0,0,0c-8.494,0-15.77,5.309-18.687,12.782l3.904,1.52
		C12.296,13.106,18.051,8.907,24.77,8.907z"/>
	<path fill="#F38B00" d="M8.907,24.77L8.907,24.77l-4.19,0v0c0,8.427,5.226,15.652,12.606,18.615l1.556-3.89
		C13.041,37.151,8.907,31.436,8.907,24.77z"/>
	<path fill="#FFFFFF" d="M24.77,40.632v4.19c10.005,0,18.321-7.364,19.814-16.957h-4.255C38.884,35.135,32.458,40.632,24.77,40.632z
		"/>
	<g>
		<path fill="#F18A21" d="M61.253,39.825h1.757v8.403h5.259v1.6h-7.017V39.825z"/>
		<path fill="#F18A21" d="M80.643,41.397h-5.659v2.601H80v1.572h-5.016v2.686h5.73v1.572h-7.488V39.825h7.417V41.397z"/>
		<path fill="#F18A21" d="M95.503,49.828h-1.857l-1.015-2.415h-4.73l-1.029,2.415h-1.801l4.401-10.074h1.629L95.503,49.828z
			 M90.259,41.854l-1.715,4.001h3.444L90.259,41.854z"/>
		<path fill="#F18A21" d="M106.762,49.828l-2.458-3.486h-2.201v3.486h-1.758V39.825h4.459c2.3,0,3.715,1.215,3.715,3.172
			c0,1.658-0.986,2.658-2.387,3.044l2.701,3.787H106.762z M104.661,41.426h-2.558v3.358h2.572c1.258,0,2.058-0.658,2.058-1.687
			C106.733,41.997,105.961,41.426,104.661,41.426z"/>
		<path fill="#F18A21" d="M120.792,39.825h1.729v10.003h-1.472l-5.516-7.116v7.116h-1.729V39.825h1.629l5.359,6.917V39.825z"/>
		<path fill="#F18A21" d="M140.281,50c-2.916,0-5.087-2.272-5.087-5.159c0-2.858,2.129-5.188,5.159-5.188
			c1.843,0,2.958,0.643,3.915,1.558l-1.129,1.3c-0.8-0.743-1.657-1.243-2.801-1.243c-1.915,0-3.301,1.572-3.301,3.544
			c0,1.972,1.386,3.573,3.301,3.573c1.229,0,2.015-0.5,2.873-1.301l1.129,1.144C143.296,49.313,142.153,50,140.281,50z"/>
		<path fill="#F18A21" d="M151.068,45.613v4.215h-1.758V39.825h1.758v4.158h4.772v-4.158h1.758v10.003h-1.758v-4.215H151.068z"/>
		<path fill="#F18A21" d="M170.714,41.397h-5.658v2.601h5.016v1.572h-5.016v2.686h5.729v1.572h-7.487V39.825h7.416V41.397z"/>
		<path fill="#F18A21" d="M183.446,41.426h-5.688v2.729h5.044v1.601h-5.044v4.072H176V39.825h7.445V41.426z"/>
	</g>
</g>
</svg>
