<svg xmlns="http://www.w3.org/2000/svg" viewBox="0 0 178.19 46.76"><defs><style>.cls-1{fill:#435363;}.cls-2{fill:#f38b00;}.cls-3{fill:#7d868c;}</style></defs><title>Asset 4</title><g id="Layer_2" data-name="Layer 2"><g id="UI"><path class="cls-1" d="M23.4,33.92A10.53,10.53,0,1,1,33.52,20.46H37.6a14.48,14.48,0,1,0,0,5.85H33.5A10.54,10.54,0,0,1,23.4,33.92"/><path class="cls-1" d="M16.3,30.48a10,10,0,0,0,7.1,2.94V29.23a5.81,5.81,0,0,1-4.13-1.72Z"/><path class="cls-2" d="M13.34,23.38a10,10,0,0,0,.86,4L18,25.74a5.93,5.93,0,0,1-.5-2.36,5.85,5.85,0,0,1,5.85-5.85V13.34a10.06,10.06,0,0,0-10.06,10"/><path class="cls-1" d="M27,14l-1.52,3.91a5.87,5.87,0,0,1,2.94,2.53H33A10.16,10.16,0,0,0,27,14"/><path class="cls-2" d="M25.51,28.83,27,32.74a10,10,0,0,0,6-6.44H28.45a5.87,5.87,0,0,1-2.94,2.53"/><path class="cls-2" d="M23.4,42.8A19.36,19.36,0,0,1,9.68,37.1L6.87,39.91A23.38,23.38,0,0,0,46.6,26.3h-4A19.43,19.43,0,0,1,23.4,42.8"/><path class="cls-2" d="M23.4,4A19.3,19.3,0,0,1,35,7.83l2.38-3.19A23.39,23.39,0,0,0,1.6,14.91l3.7,1.44A19.44,19.44,0,0,1,23.4,4"/><path class="cls-1" d="M42.58,20.46h4A23.14,23.14,0,0,0,43.23,11l-3.37,2.1a19.44,19.44,0,0,1,2.72,7.36"/><path class="cls-2" d="M38.08,20.46h4A19,19,0,0,0,30.25,5.75L28.81,9.43a15,15,0,0,1,9.26,11"/><path class="cls-1" d="M23.4,8.4h0v-4h0A18.94,18.94,0,0,0,5.76,16.51l3.68,1.44a15,15,0,0,1,14-9.54"/><path class="cls-2" d="M8.42,23.38h-4A18.94,18.94,0,0,0,16.36,40.95l1.47-3.67a15,15,0,0,1-9.41-13.9"/><path class="cls-1" d="M23.4,38.36v4a19,19,0,0,0,18.71-16h-4A15,15,0,0,1,23.4,38.36"/><path class="cls-1" d="M2,32.79a23.32,23.32,0,0,1-2-9.41H4a19.43,19.43,0,0,0,1.63,7.81Z"/><path d="M57.55,23.61V12.19H59V22.32h6.37v1.29Z"/><path d="M74.69,22.32v1.29H66.94V12.19h7.61v1.29H68.39v3.7h5.35v1.21H68.39v3.94Z"/><path d="M80.14,12.19h1.22L86,23.61H84.48l-1.35-3.34H78.34L77,23.61H75.46Zm2.67,6.95-2.06-5.27-2.12,5.27Z"/><path d="M87.55,23.61V12.19h4.89a3.1,3.1,0,0,1,1.39.31,3.5,3.5,0,0,1,1.09.84,4,4,0,0,1,.72,1.17,3.59,3.59,0,0,1,.26,1.33A3.93,3.93,0,0,1,95.73,17a3.56,3.56,0,0,1-.48,1,3.22,3.22,0,0,1-.76.77,2.94,2.94,0,0,1-1,.47l2.77,4.37H94.63L92,19.51H89v4.1ZM89,18.22h3.46a1.7,1.7,0,0,0,.81-.19,1.93,1.93,0,0,0,.62-.52,2.53,2.53,0,0,0,.4-.76,2.84,2.84,0,0,0,.14-.9,2.44,2.44,0,0,0-.17-.91,2.67,2.67,0,0,0-.45-.76,2,2,0,0,0-.66-.51,1.79,1.79,0,0,0-.8-.19H89Z"/><path d="M99.56,14.9v8.71H98.11V12.19h1.13l7.07,8.89V12.21h1.45v11.4h-1.22Z"/><path d="M113.82,17.82a6.1,6.1,0,0,1,.36-2,5.7,5.7,0,0,1,1.06-1.83A5.34,5.34,0,0,1,117,12.63a5.14,5.14,0,0,1,2.3-.5,4.8,4.8,0,0,1,2.62.69,4.3,4.3,0,0,1,1.62,1.8l-1.14.74a3.31,3.31,0,0,0-.62-.92,3.18,3.18,0,0,0-.79-.59,3.39,3.39,0,0,0-.88-.32,4.2,4.2,0,0,0-.88-.1,3.49,3.49,0,0,0-1.68.39,3.88,3.88,0,0,0-1.23,1,4.44,4.44,0,0,0-.75,1.43,5.33,5.33,0,0,0-.25,1.6,4.94,4.94,0,0,0,.3,1.71,4.72,4.72,0,0,0,.83,1.44,4,4,0,0,0,1.25,1,3.41,3.41,0,0,0,1.58.37,4,4,0,0,0,.92-.11,3.41,3.41,0,0,0,.91-.36,3.88,3.88,0,0,0,.81-.63,3.07,3.07,0,0,0,.62-.91l1.21.66a3.56,3.56,0,0,1-.76,1.13,4.83,4.83,0,0,1-1.11.83,5.65,5.65,0,0,1-1.31.51,5.43,5.43,0,0,1-1.35.18,4.56,4.56,0,0,1-2.15-.51,5.75,5.75,0,0,1-1.7-1.34A6.14,6.14,0,0,1,114.22,20,6.08,6.08,0,0,1,113.82,17.82Z"/><path d="M134.71,12.19V23.61h-1.45V18.42H127v5.19h-1.45V12.19H127v4.94h6.29V12.19Z"/><path d="M145.19,22.32v1.29h-7.75V12.19H145v1.29h-6.16v3.7h5.35v1.21h-5.35v3.94Z"/><path d="M147.17,23.61V12.19h7.54v1.29h-6.09v3.81h5.13V18.5h-5.13v5.11Z"/><path class="cls-3" d="M61.58,33.34a1.18,1.18,0,0,0-.26-.22,2.3,2.3,0,0,0-.36-.19,2.54,2.54,0,0,0-.44-.14,2.28,2.28,0,0,0-.49-.05,1.55,1.55,0,0,0-1,.25.83.83,0,0,0-.31.68.76.76,0,0,0,.09.38.73.73,0,0,0,.28.26,2.11,2.11,0,0,0,.47.19l.66.17a6.94,6.94,0,0,1,.8.22,2.33,2.33,0,0,1,.61.31,1.23,1.23,0,0,1,.38.45,1.43,1.43,0,0,1,.13.65A1.49,1.49,0,0,1,62,37a1.42,1.42,0,0,1-.44.5,1.88,1.88,0,0,1-.65.29,3.43,3.43,0,0,1-.82.09,3.78,3.78,0,0,1-1.24-.2,3.47,3.47,0,0,1-1.07-.6l.34-.61a1.88,1.88,0,0,0,.33.27,2.68,2.68,0,0,0,.46.24,3.43,3.43,0,0,0,.56.18,2.83,2.83,0,0,0,.63.07,1.74,1.74,0,0,0,.94-.22A.8.8,0,0,0,61.29,36a.92.92,0,0,0-.32-.28,2.44,2.44,0,0,0-.52-.21l-.7-.19a6.91,6.91,0,0,1-.76-.22,2.08,2.08,0,0,1-.55-.29,1.09,1.09,0,0,1-.33-.41,1.36,1.36,0,0,1-.11-.58,1.63,1.63,0,0,1,.15-.72,1.51,1.51,0,0,1,.42-.53,1.83,1.83,0,0,1,.65-.32,3.14,3.14,0,0,1,1.86.07,2.91,2.91,0,0,1,.82.47Z"/><path class="cls-3" d="M63.11,37.82V32.15h.72v3.14l2.93-3.14h.78l-2.28,2.5,2.41,3.18h-.78l-2.06-2.76-1,1v1.74Z"/><path class="cls-3" d="M68.33,37.82V32.14H69v5.68Z"/><path class="cls-3" d="M70.41,37.82V32.14h.72v5H74.3v.64Z"/><path class="cls-3" d="M75.08,37.82V32.14h.72v5H79v.64Z"/><path class="cls-3" d="M83.09,33.34a1.18,1.18,0,0,0-.26-.22,2.3,2.3,0,0,0-.36-.19A2.54,2.54,0,0,0,82,32.8a2.28,2.28,0,0,0-.49-.05,1.55,1.55,0,0,0-1,.25.83.83,0,0,0-.31.68.76.76,0,0,0,.09.38.73.73,0,0,0,.28.26,2.11,2.11,0,0,0,.47.19l.66.17a6.94,6.94,0,0,1,.8.22,2.33,2.33,0,0,1,.61.31,1.23,1.23,0,0,1,.38.45,1.43,1.43,0,0,1,.13.65,1.49,1.49,0,0,1-.16.71,1.42,1.42,0,0,1-.44.5,1.88,1.88,0,0,1-.65.29,3.43,3.43,0,0,1-.82.09,3.78,3.78,0,0,1-1.24-.2,3.47,3.47,0,0,1-1.07-.6l.34-.61a1.88,1.88,0,0,0,.33.27,2.68,2.68,0,0,0,.46.24,3.43,3.43,0,0,0,.56.18,2.83,2.83,0,0,0,.63.07,1.74,1.74,0,0,0,.94-.22A.8.8,0,0,0,82.8,36a.92.92,0,0,0-.32-.28,2.44,2.44,0,0,0-.52-.21l-.7-.19a6.91,6.91,0,0,1-.76-.22,2.08,2.08,0,0,1-.55-.29,1.09,1.09,0,0,1-.33-.41,1.36,1.36,0,0,1-.11-.58,1.63,1.63,0,0,1,.15-.72,1.51,1.51,0,0,1,.42-.53,1.83,1.83,0,0,1,.65-.32,3.14,3.14,0,0,1,1.86.07,2.91,2.91,0,0,1,.82.47Z"/><path class="cls-3" d="M86.65,37.82V32.14h2a3,3,0,0,1,1.2.22,2.44,2.44,0,0,1,.86.61,2.53,2.53,0,0,1,.52.9,3.44,3.44,0,0,1,.17,1.1,3.39,3.39,0,0,1-.19,1.17,2.52,2.52,0,0,1-.55.9,2.49,2.49,0,0,1-.87.58,3,3,0,0,1-1.13.2Zm4-2.85a2.84,2.84,0,0,0-.13-.88,1.89,1.89,0,0,0-.39-.69,1.82,1.82,0,0,0-.64-.45,2.12,2.12,0,0,0-.86-.16H87.37v4.4h1.25a2.12,2.12,0,0,0,.87-.17,1.74,1.74,0,0,0,.63-.46,2,2,0,0,0,.38-.7A2.81,2.81,0,0,0,90.63,35Z"/><path class="cls-3" d="M96.23,37.18v.64H92.37V32.14h3.78v.64H93.1v1.84h2.66v.6H93.1v2Z"/><path class="cls-3" d="M97.37,32.14l1.88,4.78,1.87-4.78h.76l-2.32,5.68h-.62l-2.33-5.68Z"/><path class="cls-3" d="M106.51,37.18v.64h-3.86V32.14h3.78v.64h-3.06v1.84H106v.6h-2.66v2Z"/><path class="cls-3" d="M107.49,37.82V32.14h.72v5h3.17v.64Z"/><path class="cls-3" d="M114.3,37.86a2.42,2.42,0,0,1-1.09-.24,2.7,2.7,0,0,1-.84-.65,3,3,0,0,1-.54-.92,3.05,3.05,0,0,1-.19-1.06,3,3,0,0,1,.2-1.09,3,3,0,0,1,.56-.92,2.71,2.71,0,0,1,.85-.64,2.44,2.44,0,0,1,1.07-.24,2.33,2.33,0,0,1,1.09.25,2.78,2.78,0,0,1,.84.66,3.07,3.07,0,0,1,.74,2,3,3,0,0,1-.76,2,2.69,2.69,0,0,1-.85.63A2.44,2.44,0,0,1,114.3,37.86ZM112.35,35a2.55,2.55,0,0,0,.14.84,2.32,2.32,0,0,0,.4.72,1.92,1.92,0,0,0,.62.5,1.73,1.73,0,0,0,.8.18,1.67,1.67,0,0,0,.82-.2,2,2,0,0,0,.61-.51,2.28,2.28,0,0,0,.38-.72,2.56,2.56,0,0,0,.13-.81,2.52,2.52,0,0,0-.14-.84,2.24,2.24,0,0,0-.4-.71,2,2,0,0,0-.62-.49,1.69,1.69,0,0,0-.79-.18,1.71,1.71,0,0,0-.82.19,2,2,0,0,0-.61.5,2.3,2.3,0,0,0-.39.71A2.51,2.51,0,0,0,112.35,35Z"/><path class="cls-3" d="M118,37.82V32.14h2.37a1.54,1.54,0,0,1,.69.16,1.75,1.75,0,0,1,.54.42,2,2,0,0,1,.36.58,1.77,1.77,0,0,1,.13.66,2,2,0,0,1-.12.68,1.86,1.86,0,0,1-.34.58,1.65,1.65,0,0,1-.53.41,1.53,1.53,0,0,1-.68.15h-1.7v2Zm.72-2.68h1.66a.87.87,0,0,0,.4-.09.91.91,0,0,0,.31-.26,1.24,1.24,0,0,0,.2-.38,1.43,1.43,0,0,0,.07-.46,1.28,1.28,0,0,0-.08-.46,1.26,1.26,0,0,0-.22-.38,1,1,0,0,0-.33-.25.93.93,0,0,0-.4-.09H118.7Z"/><path class="cls-3" d="M127.87,37.82V33.43L126,36.8h-.41l-1.9-3.37v4.39H123V32.14h.76l2.06,3.69,2.06-3.69h.75v5.68Z"/><path class="cls-3" d="M133.81,37.18v.64H130V32.14h3.78v.64h-3.06v1.84h2.66v.6h-2.66v2Z"/><path class="cls-3" d="M135.51,33.49v4.34h-.72V32.14h.56l3.52,4.42V32.15h.72v5.67H139Z"/><path class="cls-3" d="M145,32.78h-2v5h-.72v-5h-2v-.64H145Z"/><path class="cls-3" d="M147.28,34.94a3,3,0,0,1,.18-1A2.85,2.85,0,0,1,148,33a2.67,2.67,0,0,1,.85-.65,2.55,2.55,0,0,1,1.14-.25,2.4,2.4,0,0,1,1.3.34,2.14,2.14,0,0,1,.81.9l-.57.37a1.65,1.65,0,0,0-.31-.46,1.6,1.6,0,0,0-.39-.3,1.7,1.7,0,0,0-.44-.16,2.11,2.11,0,0,0-.44,0,1.74,1.74,0,0,0-.84.2,1.93,1.93,0,0,0-.61.51,2.23,2.23,0,0,0-.37.71,2.64,2.64,0,0,0-.12.8,2.43,2.43,0,0,0,.15.85,2.35,2.35,0,0,0,.41.72,2,2,0,0,0,.62.5,1.7,1.7,0,0,0,.78.18,2,2,0,0,0,.46-.06,1.7,1.7,0,0,0,.45-.18,1.92,1.92,0,0,0,.4-.31,1.53,1.53,0,0,0,.31-.45l.6.33a1.76,1.76,0,0,1-.38.56,2.41,2.41,0,0,1-.55.41,2.82,2.82,0,0,1-.65.26,2.72,2.72,0,0,1-.67.09,2.27,2.27,0,0,1-1.07-.26,2.86,2.86,0,0,1-.84-.67,3.05,3.05,0,0,1-.55-.94A3,3,0,0,1,147.28,34.94Z"/><path class="cls-3" d="M157,37.18v.64H153.1V32.14h3.78v.64h-3.06v1.84h2.66v.6h-2.66v2Z"/><path class="cls-3" d="M158.66,33.49v4.34h-.72V32.14h.56L162,36.57V32.15h.72v5.67h-.61Z"/><path class="cls-3" d="M168.2,32.78h-2v5h-.72v-5h-2v-.64h4.64Z"/><path class="cls-3" d="M172.87,37.18v.64H169V32.14h3.78v.64h-3.06v1.84h2.66v.6h-2.66v2Z"/><path class="cls-3" d="M173.86,37.82V32.14h2.43a1.54,1.54,0,0,1,.69.16,1.73,1.73,0,0,1,.54.42,2,2,0,0,1,.36.58A1.79,1.79,0,0,1,178,34a2,2,0,0,1-.08.57,1.75,1.75,0,0,1-.24.5,1.59,1.59,0,0,1-.38.38,1.47,1.47,0,0,1-.49.23l1.38,2.18h-.82l-1.3-2h-1.5v2Zm.72-2.68h1.72a.85.85,0,0,0,.4-.1,1,1,0,0,0,.31-.26,1.26,1.26,0,0,0,.2-.38,1.41,1.41,0,0,0,.07-.45,1.2,1.2,0,0,0-.08-.45,1.31,1.31,0,0,0-.22-.38,1,1,0,0,0-.33-.26.89.89,0,0,0-.4-.09h-1.67Z"/></g></g></svg>