<svg id="Layer_1" data-name="Layer 1" xmlns="http://www.w3.org/2000/svg" viewBox="0 0 356.42 542.36"><defs><style>.cls-1{fill:#777;}.cls-2{fill:#fff;}.cls-3{fill:#414548;}</style></defs><title>lamp-stack-m</title><rect class="cls-1" x="1.1" y="373.16" width="355.32" height="169.2"/><path class="cls-2" d="M927.46,795h-86.3a4,4,0,0,1-4-4v-84.7a4,4,0,0,1,4-4h86.3a4,4,0,0,1,4,4V791a4,4,0,0,1-4,4Zm-82.3-7.9h78.3v-76.8h-78.3v76.8Z" transform="translate(-705.2 -302.11)"/><path class="cls-2" d="M914.56,767.27h-60.5a2,2,0,0,1-2-2v-46.2a2,2,0,0,1,2-2h60.5a2,2,0,0,1,2,2v46.2a2,2,0,0,1-2,2Zm-58.5-3.9h56.6v-42.2h-56.6v42.2Z" transform="translate(-705.2 -302.11)"/><path class="cls-2" d="M864.26,779.17a1.69,1.69,0,0,1,1.7-1.7h8.3a1.7,1.7,0,0,1,0,3.4H866a1.69,1.69,0,0,1-1.7-1.7Z" transform="translate(-705.2 -302.11)"/><path class="cls-2" d="M878.56,779.17a1.69,1.69,0,0,1,1.7-1.7h8.3a1.7,1.7,0,0,1,0,3.4h-8.3a1.69,1.69,0,0,1-1.7-1.7Z" transform="translate(-705.2 -302.11)"/><path class="cls-2" d="M892.76,779.17a1.69,1.69,0,0,1,1.7-1.7h8.3a1.7,1.7,0,0,1,0,3.4h-8.3a1.75,1.75,0,0,1-1.7-1.7Z" transform="translate(-705.2 -302.11)"/><rect class="cls-1" width="355.32" height="169.2"/><path class="cls-2" d="M862.26,453.21h0" transform="translate(-705.2 -302.11)"/><path class="cls-2" d="M884.16,447.21v-2.4" transform="translate(-705.2 -302.11)"/><path class="cls-2" d="M920.06,418.81v-93.5a2,2,0,0,0-2-2h-70.3a2,2,0,0,0-2,2v93.5a2,2,0,0,0,2,2h70.3A2,2,0,0,0,920.06,418.81Zm-28.1-85h9.9a2,2,0,0,1,0,4H892a2,2,0,0,1,0-4Zm8.8,10.6a2,2,0,0,1-2,2h-35.3a2,2,0,0,1,0-4h35.3A2,2,0,0,1,900.76,344.41ZM875,333.81h9.8a2,2,0,0,1,0,4H875a2,2,0,0,1,0-4Zm-17,0h9.9a2,2,0,0,1,0,4H858a2,2,0,0,1,0-4Zm33.9,29.1h-28.4a2,2,0,0,1,0-4h28.4a2,2,0,0,1,2,2A2.07,2.07,0,0,1,891.86,362.91Zm1.9,6.2a2,2,0,0,1-2,2h-28.3a2,2,0,0,1,0-4h28.4A2,2,0,0,1,893.76,369.11Zm-25.9,19.1H858a2,2,0,0,1,0-4h9.9a2,2,0,0,1,2,2A2.07,2.07,0,0,1,867.86,388.21Zm39.3-8.6h-43.7a2,2,0,0,1,0-4h43.7a2,2,0,0,1,0,4Zm0-24.7h-43.7a2,2,0,0,1,0-4h43.7a2,2,0,0,1,2,2A2.07,2.07,0,0,1,907.16,354.91Z" transform="translate(-705.2 -302.11)"/><rect class="cls-1" x="1.01" y="186.88" width="169.2" height="169.2"/><path class="cls-2" d="M818.61,593.39h-59a18.7,18.7,0,1,1,0-37.4h0v-.7a27.91,27.91,0,0,1,54.9-7.1,20.9,20.9,0,0,1,2.5-.1,22.75,22.75,0,0,1,22.7,22.7,22.52,22.52,0,0,1-7.5,16.8,18.94,18.94,0,0,1-13.6,5.8Zm-59-29.5a10.8,10.8,0,1,0,0,21.6h59a10.86,10.86,0,0,0,8-3.6,14.82,14.82,0,0,0-9.7-26,14.08,14.08,0,0,0-4.5.7,3.78,3.78,0,0,1-3.4-.5,4,4,0,0,1-1.8-2.9,19.9,19.9,0,0,0-39.7,2,17.22,17.22,0,0,0,.4,3.9,4,4,0,0,1-3.9,4.8h-4.4Z" transform="translate(-705.2 -302.11)"/><rect class="cls-3" x="185.28" y="186.58" width="169.2" height="169.2"/><path class="cls-2" d="M985.78,639.79m2.4-2.7" transform="translate(-705.2 -302.11)"/><path class="cls-2" d="M975.18,588.29c11.6,0,21.5-3.1,24.9-7.4v-6.8c-.1-.2-.3-.3-.4-.5-3.4,4.4-13.3,7.5-25,7.5-11.2,0-20.7-2.9-24.5-6.9l-.1.1v6.5C953.38,585.09,963.38,588.29,975.18,588.29Z" transform="translate(-705.2 -302.11)"/><path class="cls-2" d="M956.08,570.09c4.8,2.1,11.6,3.4,19.1,3.4s14.3-1.3,19.1-3.4a17.93,17.93,0,0,0,5.2-3.3c.2-.2.4-.5.6-.7v-6.8c-.1-.2-.3-.3-.4-.5a15.63,15.63,0,0,1-5.9,4.1c-4.8,2.1-11.6,3.4-19.1,3.4s-14.3-1.3-19.1-3.4a16.27,16.27,0,0,1-5.4-3.5l-.1.1V566l.3.3A15.26,15.26,0,0,0,956.08,570.09Z" transform="translate(-705.2 -302.11)"/><path class="cls-2" d="M956.28,555.09c4.5,2.2,11.3,3.5,18.8,3.5s14.3-1.4,18.9-3.6a12.13,12.13,0,0,0,5-3.9,4.9,4.9,0,0,0,.9-2.8c0-5.6-11.1-10.2-24.8-10.2s-24.8,4.6-24.8,10.2a4.64,4.64,0,0,0,.6,2.3C951.78,552.39,953.68,553.89,956.28,555.09Z" transform="translate(-705.2 -302.11)"/><path class="cls-2" d="M1018,517.29h-85.3a3.84,3.84,0,0,0-3.9,3.9v85.3a3.9,3.9,0,0,0,3.9,3.9H1018a3.9,3.9,0,0,0,3.9-3.9v-85.3A3.84,3.84,0,0,0,1018,517.29Zm-3.9,85.3h-77.5v-77.5h77.5Z" transform="translate(-705.2 -302.11)"/><path class="cls-2" d="M854.28,809.16H858v13.46h8.38V826H854.28Z" transform="translate(-705.2 -302.11)"/><path class="cls-2" d="M868.82,808.44h3.84v3.24h-3.84Zm.1,4.66h3.65V826h-3.65Z" transform="translate(-705.2 -302.11)"/><path class="cls-2" d="M876,813.09h3.65v1.84a7.94,7.94,0,0,1,.68-.79,4.8,4.8,0,0,1,.83-.67,4.12,4.12,0,0,1,1-.46,4.24,4.24,0,0,1,1.25-.17,4.11,4.11,0,0,1,3.23,1.27,5.06,5.06,0,0,1,1.14,3.5V826h-3.65V818.8a2.88,2.88,0,0,0-.58-2,2.05,2.05,0,0,0-1.63-.66,2.17,2.17,0,0,0-1.67.66,2.77,2.77,0,0,0-.61,2V826H876Z" transform="translate(-705.2 -302.11)"/><path class="cls-2" d="M895.22,826.2a4.11,4.11,0,0,1-3.23-1.27,5.06,5.06,0,0,1-1.14-3.5v-8.33h3.65v7.16a2.89,2.89,0,0,0,.58,2,2.06,2.06,0,0,0,1.63.66,2.17,2.17,0,0,0,1.67-.66,2.78,2.78,0,0,0,.61-2v-7.16h3.65V826H899v-1.84a7.72,7.72,0,0,1-.68.79,4.77,4.77,0,0,1-.83.67,4.14,4.14,0,0,1-1,.46A4.27,4.27,0,0,1,895.22,826.2Z" transform="translate(-705.2 -302.11)"/><path class="cls-2" d="M909.33,819.43,905,813.09h3.91l2.4,3.74,2.42-3.74h3.82l-4.34,6.26,4.54,6.6h-3.91l-2.59-4-2.59,4h-3.82Z" transform="translate(-705.2 -302.11)"/><path class="cls-2" d="M756.24,622.87h3.41l7.2,16.92H763L761.45,636h-7.1l-1.54,3.77H749Zm3.89,9.89-2.23-5.45-2.23,5.45Z" transform="translate(-705.2 -302.11)"/><path class="cls-2" d="M769.05,626.93h3.65v1.85a5.77,5.77,0,0,1,1.62-1.5,4.45,4.45,0,0,1,2.39-.59,5.72,5.72,0,0,1,2.18.43,5.41,5.41,0,0,1,1.87,1.28,6.4,6.4,0,0,1,1.31,2.09,7.65,7.65,0,0,1,.49,2.84v0a7.64,7.64,0,0,1-.49,2.84,6.51,6.51,0,0,1-1.3,2.09,5.3,5.3,0,0,1-1.86,1.28,5.78,5.78,0,0,1-2.21.43,4.58,4.58,0,0,1-2.41-.58,6.44,6.44,0,0,1-1.6-1.34v5.52h-3.65Zm6.72,10a2.94,2.94,0,0,0,1.21-.25,3,3,0,0,0,1-.72,3.48,3.48,0,0,0,.68-1.12,4,4,0,0,0,.25-1.46v0a4,4,0,0,0-.25-1.45,3.47,3.47,0,0,0-.68-1.13,3,3,0,0,0-1-.72,3,3,0,0,0-2.42,0,2.9,2.9,0,0,0-1,.72,3.59,3.59,0,0,0-.67,1.13,4,4,0,0,0-.25,1.45v0a4,4,0,0,0,.25,1.45,3.57,3.57,0,0,0,.67,1.13,2.89,2.89,0,0,0,1,.72A2.93,2.93,0,0,0,775.77,636.93Z" transform="translate(-705.2 -302.11)"/><path class="cls-2" d="M788.9,640a5.71,5.71,0,0,1-1.72-.25,4,4,0,0,1-1.4-.76,3.62,3.62,0,0,1-.95-1.24,3.9,3.9,0,0,1-.35-1.69v0a4,4,0,0,1,.38-1.82,3.5,3.5,0,0,1,1.07-1.27,4.8,4.8,0,0,1,1.63-.76,8.17,8.17,0,0,1,2.1-.25,9,9,0,0,1,1.72.14,10.82,10.82,0,0,1,1.43.38v-.22a2.19,2.19,0,0,0-.7-1.75,3.09,3.09,0,0,0-2.06-.6,8.57,8.57,0,0,0-1.86.18,12.6,12.6,0,0,0-1.69.52l-.91-2.78a14.31,14.31,0,0,1,2.21-.74,11.61,11.61,0,0,1,2.78-.29,7.89,7.89,0,0,1,2.58.37,4.58,4.58,0,0,1,1.76,1.07A4.33,4.33,0,0,1,796,630a7.61,7.61,0,0,1,.34,2.34v7.46h-3.53V638.4a5.07,5.07,0,0,1-1.61,1.19A5.29,5.29,0,0,1,788.9,640Zm1.1-2.52a3.22,3.22,0,0,0,2.08-.62,2,2,0,0,0,.78-1.63v-.65a5.54,5.54,0,0,0-1.07-.35,5.75,5.75,0,0,0-1.26-.13,3.26,3.26,0,0,0-1.85.46,1.5,1.5,0,0,0-.67,1.32v0a1.35,1.35,0,0,0,.55,1.15A2.36,2.36,0,0,0,790,637.51Z" transform="translate(-705.2 -302.11)"/><path class="cls-2" d="M805.53,640.08a6.75,6.75,0,0,1-2.68-.53,6.46,6.46,0,0,1-3.52-3.54,6.64,6.64,0,0,1-.5-2.58v0a6.73,6.73,0,0,1,.5-2.59,6.67,6.67,0,0,1,1.39-2.14,6.48,6.48,0,0,1,2.12-1.44,6.87,6.87,0,0,1,2.72-.53,7,7,0,0,1,3,.58,6.81,6.81,0,0,1,2.11,1.58l-2.23,2.4a6,6,0,0,0-1.28-1,3.23,3.23,0,0,0-1.64-.38,2.82,2.82,0,0,0-1.26.28,3.1,3.1,0,0,0-1,.76,3.44,3.44,0,0,0-.65,1.12,4,4,0,0,0-.23,1.36v0a4.16,4.16,0,0,0,.23,1.39,3.31,3.31,0,0,0,.66,1.13,3.12,3.12,0,0,0,1,.76,3.19,3.19,0,0,0,1.34.28,3.29,3.29,0,0,0,1.6-.37,6.76,6.76,0,0,0,1.36-1l2.14,2.16a8.19,8.19,0,0,1-2.14,1.69A6.45,6.45,0,0,1,805.53,640.08Z" transform="translate(-705.2 -302.11)"/><path class="cls-2" d="M813.17,622.27h3.65v6.49a7.94,7.94,0,0,1,.68-.79,4.8,4.8,0,0,1,.83-.67,4.12,4.12,0,0,1,1-.46,4.24,4.24,0,0,1,1.25-.17,4.11,4.11,0,0,1,3.23,1.27,5.06,5.06,0,0,1,1.14,3.5v8.33H821.3v-7.16a2.88,2.88,0,0,0-.58-2,2.05,2.05,0,0,0-1.63-.66,2.17,2.17,0,0,0-1.67.66,2.77,2.77,0,0,0-.61,2v7.16h-3.65Z" transform="translate(-705.2 -302.11)"/><path class="cls-2" d="M834.21,640.08a7.32,7.32,0,0,1-2.68-.48,6.18,6.18,0,0,1-2.14-1.37,6.32,6.32,0,0,1-1.4-2.1,7,7,0,0,1-.5-2.7v0a7.2,7.2,0,0,1,.47-2.59,6.58,6.58,0,0,1,1.31-2.14,6.09,6.09,0,0,1,4.58-2,6.27,6.27,0,0,1,2.78.58,5.68,5.68,0,0,1,2,1.55,6.45,6.45,0,0,1,1.15,2.23,9.23,9.23,0,0,1,.37,2.63c0,.14,0,.3,0,.46s0,.33,0,.5h-9a3.07,3.07,0,0,0,1.09,1.88,3.26,3.26,0,0,0,2.05.64,4.07,4.07,0,0,0,1.63-.31,5.56,5.56,0,0,0,1.49-1l2.09,1.85a6.46,6.46,0,0,1-2.21,1.76A6.85,6.85,0,0,1,834.21,640.08Zm2.35-7.73a3.56,3.56,0,0,0-.86-2,2.39,2.39,0,0,0-1.85-.76,2.45,2.45,0,0,0-1.86.74,3.73,3.73,0,0,0-.92,2Z" transform="translate(-705.2 -302.11)"/><path class="cls-2" d="M935.28,623.17h4l4.42,7.1,4.42-7.1h4V640h-3.65V629l-4.73,7.18h-.1l-4.68-7.1V640h-3.65Z" transform="translate(-705.2 -302.11)"/><path class="cls-2" d="M958.8,643.88a6,6,0,0,1-1.78-.24,7.07,7.07,0,0,1-1.46-.65l1.22-2.64a4,4,0,0,0,.78.36,2.42,2.42,0,0,0,.78.14,1.37,1.37,0,0,0,.76-.18,1.64,1.64,0,0,0,.52-.66l-5-12.91h3.86l2.93,8.76,2.81-8.76H968L963,640.28a9.93,9.93,0,0,1-.77,1.67,4.64,4.64,0,0,1-.9,1.12,3,3,0,0,1-1.12.62A4.9,4.9,0,0,1,958.8,643.88Z" transform="translate(-705.2 -302.11)"/><path class="cls-2" d="M976.51,640.21a11.13,11.13,0,0,1-3.77-.66,10,10,0,0,1-3.36-2l2.18-2.62a11,11,0,0,0,2.36,1.49,6.32,6.32,0,0,0,2.65.55,3.23,3.23,0,0,0,1.79-.42,1.32,1.32,0,0,0,.64-1.16v0a1.46,1.46,0,0,0-.13-.64,1.34,1.34,0,0,0-.51-.52,5.29,5.29,0,0,0-1-.48q-.66-.24-1.72-.5a20.86,20.86,0,0,1-2.31-.7,6.5,6.5,0,0,1-1.76-.95,3.83,3.83,0,0,1-1.12-1.4A4.86,4.86,0,0,1,970,628v0a4.87,4.87,0,0,1,.43-2.08,4.73,4.73,0,0,1,1.2-1.6,5.4,5.4,0,0,1,1.85-1,7.43,7.43,0,0,1,2.37-.36,10.07,10.07,0,0,1,3.4.55,9.86,9.86,0,0,1,2.84,1.58l-1.92,2.78a12.19,12.19,0,0,0-2.21-1.21,5.64,5.64,0,0,0-2.16-.44,2.62,2.62,0,0,0-1.62.42,1.28,1.28,0,0,0-.54,1v0a1.51,1.51,0,0,0,.16.71,1.41,1.41,0,0,0,.57.54,5.35,5.35,0,0,0,1.12.46q.71.22,1.79.5a17.08,17.08,0,0,1,2.27.76,6.37,6.37,0,0,1,1.68,1,3.84,3.84,0,0,1,1,1.38,4.69,4.69,0,0,1,.35,1.9v0a5.2,5.2,0,0,1-.45,2.22,4.56,4.56,0,0,1-1.26,1.63,5.68,5.68,0,0,1-1.94,1A8.39,8.39,0,0,1,976.51,640.21Z" transform="translate(-705.2 -302.11)"/><path class="cls-2" d="M999,638.82a9,9,0,0,1-2.33,1.07,9.28,9.28,0,0,1-2.66.37,9.16,9.16,0,0,1-3.58-.68,8.87,8.87,0,0,1-2.82-1.85,8.26,8.26,0,0,1-1.85-2.74,8.62,8.62,0,0,1-.66-3.37v0a8.49,8.49,0,0,1,.67-3.37,8.59,8.59,0,0,1,4.69-4.63,9.73,9.73,0,0,1,7.16,0,8.89,8.89,0,0,1,2.82,1.85,8.28,8.28,0,0,1,1.85,2.74,8.62,8.62,0,0,1,.66,3.37v0a8.45,8.45,0,0,1-.38,2.54,8.57,8.57,0,0,1-1.1,2.28l1.73,1.46-2.35,2.62Zm-4.94-2a5.39,5.39,0,0,0,2.21-.46l-2.74-2.33,2.35-2.64,2.76,2.5a5.54,5.54,0,0,0,.46-2.3v0a5.6,5.6,0,0,0-.37-2,5,5,0,0,0-2.68-2.82,4.92,4.92,0,0,0-2-.42,5,5,0,0,0-2.05.41,4.69,4.69,0,0,0-1.58,1.13,5.31,5.31,0,0,0-1,1.67,5.5,5.5,0,0,0-.37,2v0a5.59,5.59,0,0,0,.37,2,5.07,5.07,0,0,0,2.66,2.82A4.9,4.9,0,0,0,994.08,636.85Z" transform="translate(-705.2 -302.11)"/><path class="cls-2" d="M1006.27,623.17h3.7v13.46h8.38V640h-12.07Z" transform="translate(-705.2 -302.11)"/><path class="cls-2" d="M860,435.68h6.86a8.08,8.08,0,0,1,2.7.42,5.73,5.73,0,0,1,2,1.19,5.2,5.2,0,0,1,1.27,1.84,6.1,6.1,0,0,1,.44,2.36v0a5.89,5.89,0,0,1-.53,2.57,5.25,5.25,0,0,1-1.45,1.85,6.29,6.29,0,0,1-2.16,1.12,9.14,9.14,0,0,1-2.65.37h-2.81v5H860Zm6.62,8.47a3,3,0,0,0,2.16-.73,2.4,2.4,0,0,0,.77-1.81v0a2.29,2.29,0,0,0-.8-1.9,3.41,3.41,0,0,0-2.2-.65h-2.86v5.14Z" transform="translate(-705.2 -302.11)"/><path class="cls-2" d="M876,435.68h3.7v6.65h6.82v-6.65h3.7v16.8h-3.7v-6.74H879.7v6.74H876Z" transform="translate(-705.2 -302.11)"/><path class="cls-2" d="M894.25,435.68h6.86a8.08,8.08,0,0,1,2.7.42,5.73,5.73,0,0,1,2,1.19,5.2,5.2,0,0,1,1.27,1.84,6.1,6.1,0,0,1,.44,2.36v0a5.89,5.89,0,0,1-.53,2.57,5.25,5.25,0,0,1-1.45,1.85,6.29,6.29,0,0,1-2.16,1.12,9.14,9.14,0,0,1-2.65.37h-2.81v5h-3.7Zm6.62,8.47a3,3,0,0,0,2.16-.73,2.4,2.4,0,0,0,.77-1.81v0a2.29,2.29,0,0,0-.8-1.9,3.41,3.41,0,0,0-2.2-.65h-2.86v5.14Z" transform="translate(-705.2 -302.11)"/></svg>