<?xml version="1.0" encoding="utf-8"?>
<!-- Generator: Adobe Illustrator 19.1.0, SVG Export Plug-In . SVG Version: 6.00 Build 0)  -->
<svg version="1.1" id="Layer_1" xmlns="http://www.w3.org/2000/svg" xmlns:xlink="http://www.w3.org/1999/xlink" x="0px" y="0px"
	 viewBox="0 0 198 198" enable-background="new 0 0 198 198" xml:space="preserve">
<g>
	<path fill="#010101" d="M42,109.5h118.1l-15.5-56.8H57.5L42,109.5L42,109.5z M164.5,112.9H37.6l17.3-63.6h92.2L164.5,112.9
		L164.5,112.9z"/>
	<path fill="#010101" d="M42,109.5h118.1l-15.5-56.8H57.5L42,109.5L42,109.5z M164.5,112.9H37.6l17.3-63.6h92.2L164.5,112.9
		L164.5,112.9z"/>
	<path fill="#010101" d="M101,150c-20.9,0-37.3-8.9-37.3-20.2c0-0.4,0-0.9,3.7-19c0.2-0.9,1.1-1.5,2-1.3s1.5,1.1,1.3,2
		c-3,14.7-3.6,17.8-3.7,18.4c0.1,9.1,15.6,16.8,33.9,16.8s33.8-7.7,33.9-16.8c-0.1-0.5-0.5-3.2-3.7-18.4c-0.2-0.9,0.4-1.8,1.3-2
		c0.9-0.2,1.8,0.4,2,1.3c3.7,18.1,3.7,18.7,3.7,19C138.3,141.2,121.9,150,101,150L101,150z"/>
	<path fill="#010101" d="M102.6,77.7H49.9c-0.9,0-1.7-0.8-1.7-1.7c0-0.9,0.8-1.7,1.7-1.7h52.7c0.9,0,1.7,0.8,1.7,1.7
		C104.3,77,103.6,77.7,102.6,77.7L102.6,77.7z"/>
	<path fill="#010101" d="M50.9,137.8c-0.9,0-1.7-0.8-1.7-1.7v-24.7c0-0.9,0.8-1.7,1.7-1.7s1.7,0.8,1.7,1.7v24.7
		C52.5,137.1,51.8,137.8,50.9,137.8L50.9,137.8z"/>
	<path fill="#010101" d="M50.9,137.8c-2.3,0-4.2,1.9-4.2,4.2c0,1.7,2.2,8.3,4.2,13.9c2-5.6,4.2-12.3,4.2-13.9
		C55,139.7,53.1,137.8,50.9,137.8L50.9,137.8z M50.9,165.6l-1.6-4.2c-1-2.7-5.9-16.1-5.9-19.4c0-4.1,3.4-7.5,7.5-7.5
		s7.5,3.4,7.5,7.5c0,3.4-5,16.8-5.9,19.4L50.9,165.6L50.9,165.6z"/>
	<path fill="#010101" d="M133.1,119.5h-32c-0.9,0-1.7-0.8-1.7-1.7c0-0.9,0.8-1.7,1.7-1.7h32c0.9,0,1.7,0.8,1.7,1.7
		S134,119.5,133.1,119.5L133.1,119.5z"/>
	<path fill="#010101" d="M135,127.5h-34c-0.9,0-1.6-0.8-1.6-1.7s0.7-1.7,1.6-1.7h34c0.9,0,1.6,0.8,1.6,1.7S135.9,127.5,135,127.5
		L135,127.5z"/>
	<path fill="#010101" d="M135.7,135.5h-34.6c-0.9,0-1.7-0.8-1.7-1.7c0-0.9,0.8-1.7,1.7-1.7h34.6c0.9,0,1.7,0.8,1.7,1.7
		C137.4,134.7,136.6,135.5,135.7,135.5L135.7,135.5z"/>
	<path fill="#010101" d="M128.5,143.5h-27.4c-0.9,0-1.7-0.8-1.7-1.7c0-0.9,0.8-1.7,1.7-1.7h27.4c0.9,0,1.7,0.8,1.7,1.7
		C130.1,142.7,129.4,143.5,128.5,143.5L128.5,143.5z"/>
</g>
<path fill="#010101" d="M99,198c-54.6,0-99-44.4-99-99S44.4,0,99,0s99,44.4,99,99S153.6,198,99,198z M99,3C46.1,3,3,46.1,3,99
	s43.1,96,96,96s96-43.1,96-96S151.9,3,99,3z"/>
</svg>
