<?xml version="1.0" encoding="utf-8"?>
<!-- Generator: Adobe Illustrator 19.1.0, SVG Export Plug-In . SVG Version: 6.00 Build 0)  -->
<svg version="1.1" id="Layer_1" xmlns="http://www.w3.org/2000/svg" xmlns:xlink="http://www.w3.org/1999/xlink" x="0px" y="0px"
	 viewBox="0 0 63.7 63.7" style="enable-background:new 0 0 63.7 63.7;" xml:space="preserve">
<style type="text/css">
	.st0{fill:#59B8B3;}
	.st1{fill:#FFFFFF;}
</style>
<g>
	<rect class="st0" width="63.7" height="63.7"/>
	<g>
		<g>
			<g>
				<path class="st1" d="M48.1,43.7H15.7c-0.7,0-1.2-0.5-1.2-1.2v-9.2c0-0.7,0.5-1.2,1.2-1.2h32.4c0.7,0,1.2,0.5,1.2,1.2v9.2
					C49.2,43.2,48.7,43.7,48.1,43.7L48.1,43.7z M16.9,41.4h30v-6.9h-30V41.4L16.9,41.4z"/>
			</g>
			<path class="st1" d="M20.1,36.5c-0.8,0-1.4,0.6-1.4,1.4s0.6,1.4,1.4,1.4c0.8,0,1.4-0.6,1.4-1.4S20.9,36.5,20.1,36.5L20.1,36.5z"
				/>
			<path class="st1" d="M24.6,36.5c-0.8,0-1.4,0.6-1.4,1.4s0.6,1.4,1.4,1.4c0.8,0,1.4-0.6,1.4-1.4S25.4,36.5,24.6,36.5L24.6,36.5z"
				/>
			<path class="st1" d="M29.2,36.5c-0.8,0-1.4,0.6-1.4,1.4s0.6,1.4,1.4,1.4c0.8,0,1.4-0.6,1.4-1.4S30,36.5,29.2,36.5L29.2,36.5z"/>
		</g>
		<g>
			<g>
				<path class="st1" d="M48.1,31.1H15.7c-0.7,0-1.2-0.5-1.2-1.2v-9.2c0-0.7,0.5-1.2,1.2-1.2h32.4c0.7,0,1.2,0.5,1.2,1.2V30
					C49.2,30.6,48.7,31.1,48.1,31.1L48.1,31.1z M16.9,28.8h30v-6.9h-30V28.8L16.9,28.8z"/>
			</g>
			<path class="st1" d="M20.1,23.9c-0.8,0-1.4,0.6-1.4,1.4c0,0.8,0.6,1.4,1.4,1.4c0.8,0,1.4-0.6,1.4-1.4
				C21.5,24.6,20.9,23.9,20.1,23.9L20.1,23.9z"/>
			<path class="st1" d="M24.6,23.9c-0.8,0-1.4,0.6-1.4,1.4c0,0.8,0.6,1.4,1.4,1.4c0.8,0,1.4-0.6,1.4-1.4
				C26,24.6,25.4,23.9,24.6,23.9L24.6,23.9z"/>
			<path class="st1" d="M29.2,23.9c-0.8,0-1.4,0.6-1.4,1.4c0,0.8,0.6,1.4,1.4,1.4c0.8,0,1.4-0.6,1.4-1.4
				C30.6,24.6,30,23.9,29.2,23.9L29.2,23.9z"/>
		</g>
		<g>
			<g>
				<path class="st1" d="M48.1,18.5H15.7c-0.7,0-1.2-0.5-1.2-1.2V8.1c0-0.7,0.5-1.2,1.2-1.2h32.4c0.7,0,1.2,0.5,1.2,1.2v9.2
					C49.2,18,48.7,18.5,48.1,18.5L48.1,18.5z M16.9,16.2h30V9.3h-30V16.2L16.9,16.2z"/>
			</g>
			<path class="st1" d="M20.1,11.3c-0.8,0-1.4,0.6-1.4,1.4c0,0.8,0.6,1.4,1.4,1.4c0.8,0,1.4-0.6,1.4-1.4
				C21.5,12,20.9,11.3,20.1,11.3L20.1,11.3z"/>
			<path class="st1" d="M24.6,11.3c-0.8,0-1.4,0.6-1.4,1.4c0,0.8,0.6,1.4,1.4,1.4c0.8,0,1.4-0.6,1.4-1.4C26,12,25.4,11.3,24.6,11.3
				L24.6,11.3z"/>
			<path class="st1" d="M29.2,11.3c-0.8,0-1.4,0.6-1.4,1.4c0,0.8,0.6,1.4,1.4,1.4c0.8,0,1.4-0.6,1.4-1.4C30.6,12,30,11.3,29.2,11.3
				L29.2,11.3z"/>
		</g>
	</g>
	<g>
		<path class="st1" d="M9.4,49.3h1.2l2.5,6h-1.4L11.2,54H8.7l-0.5,1.3H6.9L9.4,49.3z M10.8,52.8L10,50.9l-0.8,1.9H10.8z"/>
		<path class="st1" d="M13.5,53.1L13.5,53.1c0-1.3,1-2.4,2.4-2.4c0.9,0,1.4,0.3,1.8,0.8l-0.8,0.8c-0.3-0.3-0.6-0.5-1-0.5
			c-0.6,0-1.1,0.6-1.1,1.2v0c0,0.7,0.4,1.3,1.1,1.3c0.4,0,0.7-0.2,1-0.5l0.8,0.8c-0.4,0.5-0.9,0.8-1.9,0.8
			C14.5,55.4,13.5,54.4,13.5,53.1z"/>
		<path class="st1" d="M18.2,53.1L18.2,53.1c0-1.3,1-2.4,2.4-2.4c0.9,0,1.4,0.3,1.8,0.8l-0.8,0.8c-0.3-0.3-0.6-0.5-1-0.5
			c-0.6,0-1.1,0.6-1.1,1.2v0c0,0.7,0.4,1.3,1.1,1.3c0.4,0,0.7-0.2,1-0.5l0.8,0.8c-0.4,0.5-0.9,0.8-1.9,0.8
			C19.2,55.4,18.2,54.4,18.2,53.1z"/>
		<path class="st1" d="M22.9,53.1L22.9,53.1c0-1.3,0.9-2.4,2.2-2.4c1.5,0,2.2,1.2,2.2,2.5c0,0.1,0,0.2,0,0.3h-3.2
			c0.1,0.6,0.5,0.9,1.1,0.9c0.4,0,0.7-0.1,1.1-0.5l0.7,0.7c-0.4,0.5-1,0.8-1.9,0.8C23.9,55.4,22.9,54.4,22.9,53.1z M26.1,52.7
			c-0.1-0.6-0.4-1-1-1c-0.5,0-0.9,0.4-1,1H26.1z"/>
		<path class="st1" d="M28.3,50.8h1.3v0.7c0.3-0.4,0.7-0.7,1.4-0.7c1.1,0,2.1,0.8,2.1,2.3v0c0,1.5-1,2.3-2.1,2.3
			c-0.7,0-1.1-0.3-1.4-0.7v1.9h-1.3V50.8z M31.8,53L31.8,53c0-0.8-0.5-1.3-1.1-1.3c-0.6,0-1.1,0.5-1.1,1.3v0c0,0.8,0.5,1.3,1.1,1.3
			C31.3,54.3,31.8,53.8,31.8,53z"/>
		<path class="st1" d="M34.2,54v-2.1h-0.5v-1.1h0.5v-1.2h1.3v1.2h1.1v1.1h-1.1v1.9c0,0.3,0.1,0.4,0.4,0.4c0.2,0,0.4-0.1,0.6-0.2v1
			c-0.3,0.2-0.6,0.3-1,0.3C34.7,55.4,34.2,55.1,34.2,54z"/>
		<path class="st1" d="M37.2,54L37.2,54c0-1,0.8-1.5,1.8-1.5c0.5,0,0.8,0.1,1.1,0.2v-0.1c0-0.5-0.3-0.8-1-0.8
			c-0.5,0-0.8,0.1-1.3,0.2l-0.3-1c0.5-0.2,1-0.4,1.8-0.4c0.7,0,1.2,0.2,1.5,0.5c0.3,0.3,0.5,0.8,0.5,1.4v2.6h-1.2v-0.5
			c-0.3,0.3-0.7,0.6-1.4,0.6C37.9,55.4,37.2,54.9,37.2,54z M40.2,53.7v-0.2c-0.2-0.1-0.5-0.2-0.8-0.2c-0.5,0-0.9,0.2-0.9,0.6v0
			c0,0.3,0.3,0.5,0.7,0.5C39.8,54.5,40.2,54.2,40.2,53.7z"/>
		<path class="st1" d="M42.5,50.8h1.3v0.6c0.3-0.4,0.7-0.7,1.3-0.7c1,0,1.5,0.6,1.5,1.7v2.9h-1.3v-2.5c0-0.6-0.3-0.9-0.8-0.9
			s-0.8,0.3-0.8,0.9v2.5h-1.3V50.8z"/>
		<path class="st1" d="M47.6,53.1L47.6,53.1c0-1.3,1-2.4,2.4-2.4c0.9,0,1.4,0.3,1.8,0.8l-0.8,0.8c-0.3-0.3-0.6-0.5-1-0.5
			c-0.6,0-1.1,0.6-1.1,1.2v0c0,0.7,0.4,1.3,1.1,1.3c0.4,0,0.7-0.2,1-0.5l0.8,0.8c-0.4,0.5-0.9,0.8-1.9,0.8
			C48.5,55.4,47.6,54.4,47.6,53.1z"/>
		<path class="st1" d="M52.2,53.1L52.2,53.1c0-1.3,0.9-2.4,2.2-2.4c1.5,0,2.2,1.2,2.2,2.5c0,0.1,0,0.2,0,0.3h-3.2
			c0.1,0.6,0.5,0.9,1.1,0.9c0.4,0,0.7-0.1,1.1-0.5l0.7,0.7c-0.4,0.5-1,0.8-1.9,0.8C53.3,55.4,52.2,54.4,52.2,53.1z M55.4,52.7
			c-0.1-0.6-0.4-1-1-1c-0.5,0-0.9,0.4-1,1H55.4z"/>
	</g>
</g>
<g>
</g>
<g>
</g>
<g>
</g>
<g>
</g>
<g>
</g>
<g>
</g>
<g>
</g>
<g>
</g>
<g>
</g>
<g>
</g>
<g>
</g>
<g>
</g>
<g>
</g>
<g>
</g>
<g>
</g>
</svg>
