<?xml version="1.0" encoding="utf-8"?>
<!-- Generator: Adobe Illustrator 19.1.0, SVG Export Plug-In . SVG Version: 6.00 Build 0)  -->
<svg version="1.1" id="Layer_1" xmlns="http://www.w3.org/2000/svg" xmlns:xlink="http://www.w3.org/1999/xlink" x="0px" y="0px"
	 viewBox="0 0 126.6 126.6" style="enable-background:new 0 0 126.6 126.6;" xml:space="preserve">
<style type="text/css">
	.st0{fill:#F08921;}
	.st1{fill:#FFFFFF;}
</style>
<g>
	<rect class="st0" width="126.6" height="126.6"/>
	<g>
		<path class="st1" d="M12.5,101.6L12.5,101.6c0-1.6,1.2-2.3,2.9-2.3c0.7,0,1.3,0.1,1.8,0.3v-0.1c0-0.8-0.5-1.3-1.5-1.3
			c-0.8,0-1.3,0.1-2,0.4l-0.5-1.6c0.8-0.3,1.6-0.6,2.8-0.6c1.1,0,1.9,0.3,2.4,0.8c0.5,0.5,0.8,1.3,0.8,2.3v4.2h-2v-0.8
			c-0.5,0.6-1.2,0.9-2.2,0.9C13.6,103.8,12.5,103,12.5,101.6z M17.2,101.1v-0.4c-0.4-0.2-0.8-0.3-1.3-0.3c-0.9,0-1.4,0.4-1.4,1v0
			c0,0.6,0.5,0.9,1.1,0.9C16.5,102.4,17.2,101.8,17.2,101.1z"/>
		<path class="st1" d="M20.6,100L20.6,100c0-2.4,1.6-3.8,3.3-3.8c1.1,0,1.8,0.5,2.2,1.1v-3.6h2v9.8h-2v-1c-0.5,0.7-1.2,1.2-2.2,1.2
			C22.2,103.8,20.6,102.4,20.6,100z M26.1,100L26.1,100c0-1.2-0.8-2-1.8-2s-1.8,0.8-1.8,2v0c0,1.2,0.8,2,1.8,2S26.1,101.2,26.1,100z
			"/>
		<path class="st1" d="M30,96.4h2v1c0.5-0.6,1.1-1.2,2.1-1.2c0.9,0,1.7,0.4,2,1.1c0.6-0.7,1.4-1.1,2.4-1.1c1.5,0,2.4,0.9,2.4,2.7
			v4.7h-2v-4c0-1-0.4-1.5-1.2-1.5s-1.2,0.5-1.2,1.5v4h-2v-4c0-1-0.4-1.5-1.2-1.5S32,98.6,32,99.6v4h-2V96.4z"/>
		<path class="st1" d="M42.8,93.8H45v1.8h-2.2V93.8z M42.9,96.4h2v7.2h-2V96.4z"/>
		<path class="st1" d="M46.8,96.4h2v1c0.5-0.6,1.1-1.2,2.1-1.2c1.5,0,2.5,1,2.5,2.7v4.7h-2v-4c0-1-0.5-1.5-1.2-1.5s-1.3,0.5-1.3,1.5
			v4h-2V96.4z"/>
		<path class="st1" d="M55.3,93.8h2.2v1.8h-2.2V93.8z M55.3,96.4h2v7.2h-2V96.4z"/>
		<path class="st1" d="M58.7,102.7l0.9-1.3c0.8,0.6,1.6,0.9,2.3,0.9c0.6,0,0.9-0.2,0.9-0.5v0c0-0.4-0.7-0.6-1.5-0.8
			c-1-0.3-2.2-0.8-2.2-2.2v0c0-1.5,1.2-2.3,2.6-2.3c0.9,0,1.9,0.3,2.7,0.8l-0.8,1.4c-0.7-0.4-1.4-0.7-2-0.7c-0.5,0-0.8,0.2-0.8,0.5
			v0c0,0.4,0.7,0.6,1.5,0.9c1,0.3,2.2,0.8,2.2,2.1v0c0,1.6-1.2,2.3-2.8,2.3C60.8,103.8,59.7,103.4,58.7,102.7z"/>
		<path class="st1" d="M66.3,101.6v-3.4h-0.9v-1.8h0.9v-1.8h2v1.8H70v1.8h-1.7v3.1c0,0.5,0.2,0.7,0.7,0.7c0.4,0,0.7-0.1,1-0.3v1.6
			c-0.4,0.3-0.9,0.4-1.6,0.4C67.1,103.8,66.3,103.3,66.3,101.6z"/>
		<path class="st1" d="M71.5,96.4h2v1.5c0.4-1,1.1-1.6,2.3-1.6v2.1h-0.1c-1.4,0-2.2,0.8-2.2,2.5v2.7h-2V96.4z"/>
		<path class="st1" d="M76.4,101.6L76.4,101.6c0-1.6,1.2-2.3,2.9-2.3c0.7,0,1.3,0.1,1.8,0.3v-0.1c0-0.8-0.5-1.3-1.5-1.3
			c-0.8,0-1.3,0.1-2,0.4L77,96.9c0.8-0.3,1.6-0.6,2.8-0.6c1.1,0,1.9,0.3,2.4,0.8c0.5,0.5,0.8,1.3,0.8,2.3v4.2h-2v-0.8
			c-0.5,0.6-1.2,0.9-2.2,0.9C77.5,103.8,76.4,103,76.4,101.6z M81.1,101.1v-0.4c-0.4-0.2-0.8-0.3-1.3-0.3c-0.9,0-1.4,0.4-1.4,1v0
			c0,0.6,0.5,0.9,1.1,0.9C80.4,102.4,81.1,101.8,81.1,101.1z"/>
		<path class="st1" d="M85,101.6v-3.4h-0.9v-1.8H85v-1.8h2v1.8h1.7v1.8h-1.7v3.1c0,0.5,0.2,0.7,0.7,0.7c0.4,0,0.7-0.1,1-0.3v1.6
			c-0.4,0.3-0.9,0.4-1.6,0.4C85.9,103.8,85,103.3,85,101.6z"/>
		<path class="st1" d="M89.7,100.1L89.7,100.1c0-2.1,1.7-3.8,3.9-3.8c2.2,0,3.9,1.7,3.9,3.7v0c0,2.1-1.7,3.8-3.9,3.8
			C91.4,103.8,89.7,102.1,89.7,100.1z M95.5,100.1L95.5,100.1c0-1.1-0.8-2-1.9-2c-1.2,0-1.9,0.9-1.9,2v0c0,1.1,0.8,2,1.9,2
			C94.8,102,95.5,101.1,95.5,100.1z"/>
		<path class="st1" d="M99,96.4h2v1.5c0.4-1,1.1-1.6,2.3-1.6v2.1h-0.1c-1.4,0-2.2,0.8-2.2,2.5v2.7h-2V96.4z"/>
		<path class="st1" d="M104.6,97.7c0.9-0.1,1.4-0.6,1.3-1.3h-0.8v-2.2h2.2V96c0,1.8-0.9,2.5-2.5,2.5L104.6,97.7z"/>
		<path class="st1" d="M108.2,102.7l0.9-1.3c0.8,0.6,1.6,0.9,2.3,0.9c0.6,0,0.9-0.2,0.9-0.5v0c0-0.4-0.7-0.6-1.5-0.8
			c-1-0.3-2.2-0.8-2.2-2.2v0c0-1.5,1.2-2.3,2.6-2.3c0.9,0,1.9,0.3,2.7,0.8l-0.8,1.4c-0.7-0.4-1.4-0.7-2-0.7c-0.5,0-0.8,0.2-0.8,0.5
			v0c0,0.4,0.7,0.6,1.5,0.9c1,0.3,2.2,0.8,2.2,2.1v0c0,1.6-1.2,2.3-2.8,2.3C110.3,103.8,109.2,103.4,108.2,102.7z"/>
		<path class="st1" d="M23.2,112.6h2.1l1.2,4.4l1.4-4.4h1.8l1.4,4.4l1.2-4.4h2l-2.2,7.3H30l-1.4-4.4l-1.4,4.4h-1.8L23.2,112.6z"/>
		<path class="st1" d="M34.7,116.2L34.7,116.2c0-2.1,1.7-3.8,3.9-3.8c2.2,0,3.9,1.7,3.9,3.7v0c0,2.1-1.7,3.8-3.9,3.8
			C36.3,120,34.7,118.3,34.7,116.2z M40.5,116.2L40.5,116.2c0-1.1-0.8-2-1.9-2c-1.2,0-1.9,0.9-1.9,2v0c0,1.1,0.8,2,1.9,2
			C39.8,118.2,40.5,117.3,40.5,116.2z"/>
		<path class="st1" d="M44,112.6h2v1.5c0.4-1,1.1-1.6,2.3-1.6v2.1h-0.1c-1.4,0-2.2,0.8-2.2,2.5v2.7h-2V112.6z"/>
		<path class="st1" d="M49.6,110h2v5.2l2.4-2.6h2.5l-2.7,2.8l2.8,4.4h-2.4l-1.8-3l-0.7,0.8v2.2h-2V110z"/>
		<path class="st1" d="M57,118.8l0.9-1.3c0.8,0.6,1.6,0.9,2.3,0.9c0.6,0,0.9-0.2,0.9-0.5v0c0-0.4-0.7-0.6-1.5-0.8
			c-1-0.3-2.2-0.8-2.2-2.2v0c0-1.5,1.2-2.3,2.6-2.3c0.9,0,1.9,0.3,2.7,0.8l-0.8,1.4c-0.7-0.4-1.4-0.7-2-0.7c-0.5,0-0.8,0.2-0.8,0.5
			v0c0,0.4,0.7,0.6,1.5,0.9c1,0.3,2.2,0.8,2.2,2.1v0c0,1.6-1.2,2.3-2.8,2.3C59.1,119.9,58,119.6,57,118.8z"/>
		<path class="st1" d="M64.5,117.7v-3.4h-0.9v-1.8h0.9v-1.8h2v1.8h1.7v1.8h-1.7v3.1c0,0.5,0.2,0.7,0.7,0.7c0.4,0,0.7-0.1,1-0.3v1.6
			c-0.4,0.3-0.9,0.4-1.6,0.4C65.4,119.9,64.5,119.4,64.5,117.7z"/>
		<path class="st1" d="M69.4,117.7L69.4,117.7c0-1.6,1.2-2.3,2.9-2.3c0.7,0,1.3,0.1,1.8,0.3v-0.1c0-0.8-0.5-1.3-1.5-1.3
			c-0.8,0-1.3,0.1-2,0.4l-0.5-1.6c0.8-0.3,1.6-0.6,2.8-0.6c1.1,0,1.9,0.3,2.4,0.8c0.5,0.5,0.8,1.3,0.8,2.3v4.2h-2V119
			c-0.5,0.6-1.2,0.9-2.2,0.9C70.5,119.9,69.4,119.1,69.4,117.7z M74.1,117.2v-0.4c-0.4-0.2-0.8-0.3-1.3-0.3c-0.9,0-1.4,0.4-1.4,1v0
			c0,0.6,0.5,0.9,1.1,0.9C73.4,118.5,74.1,118,74.1,117.2z"/>
		<path class="st1" d="M78,117.7v-3.4h-0.9v-1.8H78v-1.8h2v1.8h1.7v1.8h-1.7v3.1c0,0.5,0.2,0.7,0.7,0.7c0.4,0,0.7-0.1,1-0.3v1.6
			c-0.4,0.3-0.9,0.4-1.6,0.4C78.9,119.9,78,119.4,78,117.7z"/>
		<path class="st1" d="M83.3,110h2.2v1.8h-2.2V110z M83.4,112.6h2v7.2h-2V112.6z"/>
		<path class="st1" d="M87,116.2L87,116.2c0-2.1,1.7-3.8,3.9-3.8c2.2,0,3.9,1.7,3.9,3.7v0c0,2.1-1.7,3.8-3.9,3.8
			C88.7,120,87,118.3,87,116.2z M92.8,116.2L92.8,116.2c0-1.1-0.8-2-1.9-2c-1.2,0-1.9,0.9-1.9,2v0c0,1.1,0.8,2,1.9,2
			C92.1,118.2,92.8,117.3,92.8,116.2z"/>
		<path class="st1" d="M96.3,112.6h2v1c0.5-0.6,1.1-1.2,2.1-1.2c1.5,0,2.5,1,2.5,2.7v4.7h-2v-4c0-1-0.5-1.5-1.2-1.5
			s-1.3,0.5-1.3,1.5v4h-2V112.6z"/>
	</g>
	<g>
		<g>
			<path class="st1" d="M103.9,72.8H21.5c-2.1,0-3.7-1.7-3.7-3.7V16.6c0-2.1,1.7-3.7,3.7-3.7h82.4c2.1,0,3.7,1.7,3.7,3.7V69
				C107.6,71.1,106,72.8,103.9,72.8L103.9,72.8z M25.2,65.3h74.9V20.4H25.2V65.3L25.2,65.3z"/>
		</g>
		<g>
			<path class="st1" d="M96.4,63.4H29c-1,0-1.9-0.8-1.9-1.9V24.1c0-1,0.8-1.9,1.9-1.9h67.4c1,0,1.9,0.8,1.9,1.9v37.5
				C98.3,62.6,97.4,63.4,96.4,63.4L96.4,63.4z M30.9,59.7h63.7V26H30.9V59.7L30.9,59.7z"/>
		</g>
		<g>
			<path class="st1" d="M115.4,83.7H11.2c-2.1,0-3.7-1.7-3.7-3.7c0-2.1,1.7-3.7,3.7-3.7h104.2c2.1,0,3.7,1.7,3.7,3.7
				C119.2,82,117.5,83.7,115.4,83.7L115.4,83.7z"/>
		</g>
	</g>
</g>
<g>
</g>
<g>
</g>
<g>
</g>
<g>
</g>
<g>
</g>
<g>
</g>
<g>
</g>
<g>
</g>
<g>
</g>
<g>
</g>
<g>
</g>
<g>
</g>
<g>
</g>
<g>
</g>
<g>
</g>
</svg>
