<?xml version="1.0" encoding="utf-8"?>
<!-- Generator: Adobe Illustrator 19.1.0, SVG Export Plug-In . SVG Version: 6.00 Build 0)  -->
<svg version="1.1" id="Layer_1" xmlns="http://www.w3.org/2000/svg" xmlns:xlink="http://www.w3.org/1999/xlink" x="0px" y="0px"
	 viewBox="0 0 92.1 92" style="enable-background:new 0 0 92.1 92;" xml:space="preserve">
<style type="text/css">
	.st0{fill:#6B7882;}
	.st1{fill:#5E6C78;}
	.st2{fill:#51606E;}
	.st3{fill:#445464;}
	.st4{fill:#FFFFFF;}
</style>
<g>
	<g>
		<rect x="13.1" y="13" class="st0" width="79" height="79"/>
		<rect x="9.1" y="9" class="st1" width="78" height="79"/>
		<rect x="4.1" y="5" class="st2" width="79" height="78"/>
		<rect x="0.1" class="st3" width="78" height="79"/>
	</g>
	<g>
		<g>
			<g>
				<path class="st4" d="M62.3,60.4h-46c-0.9,0-1.7-0.8-1.7-1.7V45.6c0-0.9,0.8-1.7,1.7-1.7h46c0.9,0,1.7,0.8,1.7,1.7v13.1
					C63.9,59.7,63.2,60.4,62.3,60.4L62.3,60.4z M18,57.1h42.6v-9.8H18V57.1L18,57.1z"/>
			</g>
			<path class="st4" d="M22.5,50.2c-1.1,0-2,0.9-2,2c0,1.1,0.9,2,2,2c1.1,0,2-0.9,2-2C24.5,51.1,23.6,50.2,22.5,50.2L22.5,50.2z"/>
			<path class="st4" d="M29,50.2c-1.1,0-2,0.9-2,2c0,1.1,0.9,2,2,2c1.1,0,2-0.9,2-2C31,51.1,30.1,50.2,29,50.2L29,50.2z"/>
			<path class="st4" d="M35.5,50.2c-1.1,0-2,0.9-2,2c0,1.1,0.9,2,2,2c1.1,0,2-0.9,2-2C37.4,51.1,36.5,50.2,35.5,50.2L35.5,50.2z"/>
		</g>
		<g>
			<g>
				<path class="st4" d="M62.3,42.6h-46c-0.9,0-1.7-0.8-1.7-1.7V27.7c0-0.9,0.8-1.7,1.7-1.7h46c0.9,0,1.7,0.8,1.7,1.7v13.1
					C63.9,41.8,63.2,42.6,62.3,42.6L62.3,42.6z M18,39.2h42.6v-9.8H18V39.2L18,39.2z"/>
			</g>
			<path class="st4" d="M22.5,32.3c-1.1,0-2,0.9-2,2c0,1.1,0.9,2,2,2c1.1,0,2-0.9,2-2C24.5,33.2,23.6,32.3,22.5,32.3L22.5,32.3z"/>
			<path class="st4" d="M29,32.3c-1.1,0-2,0.9-2,2c0,1.1,0.9,2,2,2c1.1,0,2-0.9,2-2C31,33.2,30.1,32.3,29,32.3L29,32.3z"/>
			<path class="st4" d="M35.5,32.3c-1.1,0-2,0.9-2,2c0,1.1,0.9,2,2,2c1.1,0,2-0.9,2-2C37.4,33.2,36.5,32.3,35.5,32.3L35.5,32.3z"/>
		</g>
		<g>
			<g>
				<path class="st4" d="M62.3,24.7h-46c-0.9,0-1.7-0.8-1.7-1.7V9.9c0-0.9,0.8-1.7,1.7-1.7h46c0.9,0,1.7,0.8,1.7,1.7V23
					C63.9,23.9,63.2,24.7,62.3,24.7L62.3,24.7z M18,21.3h42.6v-9.8H18V21.3L18,21.3z"/>
			</g>
			<path class="st4" d="M22.5,14.4c-1.1,0-2,0.9-2,2c0,1.1,0.9,2,2,2c1.1,0,2-0.9,2-2C24.5,15.3,23.6,14.4,22.5,14.4L22.5,14.4z"/>
			<path class="st4" d="M29,14.4c-1.1,0-2,0.9-2,2c0,1.1,0.9,2,2,2c1.1,0,2-0.9,2-2C31,15.3,30.1,14.4,29,14.4L29,14.4z"/>
			<path class="st4" d="M35.5,14.4c-1.1,0-2,0.9-2,2c0,1.1,0.9,2,2,2c1.1,0,2-0.9,2-2C37.4,15.3,36.5,14.4,35.5,14.4L35.5,14.4z"/>
		</g>
	</g>
	<g>
		<path class="st4" d="M16.2,71.9v0.6H15v-6.1h1.3v2.3c0.3-0.4,0.7-0.7,1.4-0.7c1,0,2,0.8,2,2.3v0c0,1.5-1,2.3-2,2.3
			C17,72.6,16.5,72.3,16.2,71.9z M18.4,70.3L18.4,70.3c0-0.8-0.5-1.3-1.1-1.3s-1.1,0.5-1.1,1.2v0c0,0.7,0.5,1.2,1.1,1.2
			S18.4,71,18.4,70.3z"/>
		<path class="st4" d="M20.6,70.9V68h1.3v2.5c0,0.6,0.3,0.9,0.8,0.9c0.5,0,0.8-0.3,0.8-0.9V68h1.3v4.5h-1.3v-0.6
			c-0.3,0.4-0.7,0.7-1.3,0.7C21.1,72.6,20.6,71.9,20.6,70.9z"/>
		<path class="st4" d="M25.8,66.4h1.3v1.1h-1.3V66.4z M25.9,68h1.3v4.5h-1.3V68z"/>
		<path class="st4" d="M28.4,66.4h1.3v6.1h-1.3V66.4z"/>
		<path class="st4" d="M30.7,70.3L30.7,70.3c0-1.5,1-2.3,2-2.3c0.7,0,1.1,0.3,1.4,0.7v-2.2h1.3v6.1h-1.3v-0.6
			c-0.3,0.4-0.7,0.7-1.4,0.7C31.7,72.6,30.7,71.8,30.7,70.3z M34.1,70.3L34.1,70.3c0-0.8-0.5-1.3-1.1-1.3s-1.1,0.5-1.1,1.2v0
			c0,0.7,0.5,1.2,1.1,1.2S34.1,71,34.1,70.3z"/>
		<path class="st4" d="M39,68h1.3v0.6c0.3-0.4,0.7-0.7,1.3-0.7c1,0,1.5,0.6,1.5,1.7v2.9h-1.3V70c0-0.6-0.3-0.9-0.8-0.9
			c-0.5,0-0.8,0.3-0.8,0.9v2.5H39V68z"/>
		<path class="st4" d="M44,70.3L44,70.3c0-1.3,1-2.3,2.4-2.3c1.4,0,2.4,1,2.4,2.3v0c0,1.3-1,2.3-2.4,2.3C45,72.6,44,71.6,44,70.3z
			 M47.6,70.3L47.6,70.3c0-0.7-0.5-1.3-1.2-1.3c-0.7,0-1.2,0.6-1.2,1.2v0c0,0.7,0.5,1.2,1.2,1.2C47.2,71.5,47.6,70.9,47.6,70.3z"/>
		<path class="st4" d="M49.6,70.3L49.6,70.3c0-1.5,1-2.3,2-2.3c0.7,0,1.1,0.3,1.4,0.7v-2.2h1.3v6.1H53v-0.6
			c-0.3,0.4-0.7,0.7-1.4,0.7C50.6,72.6,49.6,71.8,49.6,70.3z M53,70.3L53,70.3c0-0.8-0.5-1.3-1.1-1.3s-1.1,0.5-1.1,1.2v0
			c0,0.7,0.5,1.2,1.1,1.2S53,71,53,70.3z"/>
		<path class="st4" d="M55.2,70.3L55.2,70.3c0-1.3,0.9-2.3,2.2-2.3c1.5,0,2.2,1.2,2.2,2.4c0,0.1,0,0.2,0,0.3h-3.1
			c0.1,0.6,0.5,0.9,1.1,0.9c0.4,0,0.7-0.1,1.1-0.5l0.7,0.6c-0.4,0.5-1,0.8-1.8,0.8C56.2,72.6,55.2,71.7,55.2,70.3z M58.3,69.9
			c-0.1-0.6-0.4-1-0.9-1c-0.5,0-0.9,0.4-1,1H58.3z"/>
		<path class="st4" d="M60.2,71.9l0.5-0.8c0.5,0.4,1,0.5,1.4,0.5c0.4,0,0.5-0.1,0.5-0.3v0c0-0.3-0.4-0.4-0.9-0.5
			c-0.6-0.2-1.3-0.5-1.3-1.3v0c0-0.9,0.7-1.4,1.6-1.4c0.6,0,1.2,0.2,1.7,0.5l-0.5,0.9c-0.4-0.3-0.9-0.4-1.2-0.4
			c-0.3,0-0.5,0.1-0.5,0.3v0c0,0.3,0.4,0.4,0.9,0.5c0.6,0.2,1.4,0.5,1.4,1.3v0c0,1-0.7,1.4-1.7,1.4C61.5,72.6,60.8,72.4,60.2,71.9z"
			/>
	</g>
</g>
<g>
</g>
<g>
</g>
<g>
</g>
<g>
</g>
<g>
</g>
<g>
</g>
<g>
</g>
<g>
</g>
<g>
</g>
<g>
</g>
<g>
</g>
<g>
</g>
<g>
</g>
<g>
</g>
<g>
</g>
</svg>
