<?xml version="1.0" encoding="utf-8"?>
<!-- Generator: Adobe Illustrator 19.1.0, SVG Export Plug-In . SVG Version: 6.00 Build 0)  -->
<svg version="1.1" id="Layer_1" xmlns="http://www.w3.org/2000/svg" xmlns:xlink="http://www.w3.org/1999/xlink" x="0px" y="0px"
	 viewBox="0 0 126.6 126.6" style="enable-background:new 0 0 126.6 126.6;" xml:space="preserve">
<style type="text/css">
	.st0{fill:#6CB2E2;}
	.st1{fill:#FFFFFF;}
</style>
<g>
	<rect class="st0" width="126.6" height="126.6"/>
	<g>
		<path class="st1" d="M48.2,97.9L48.2,97.9c0-2.7,2-4.9,4.9-4.9c1.8,0,2.8,0.6,3.7,1.5L55.5,96C54.7,95.4,54,95,53.1,95
			c-1.6,0-2.7,1.3-2.7,2.9v0c0,1.6,1.1,3,2.7,3c1.1,0,1.7-0.4,2.5-1.1l1.3,1.3c-1,1-2,1.7-3.9,1.7C50.2,102.8,48.2,100.7,48.2,97.9z
			"/>
		<path class="st1" d="M58.3,92.8h2v3.6c0.5-0.6,1.1-1.2,2.1-1.2c1.5,0,2.5,1,2.5,2.7v4.7h-2v-4c0-1-0.5-1.5-1.2-1.5
			s-1.3,0.5-1.3,1.5v4h-2V92.8z"/>
		<path class="st1" d="M66.3,99.1L66.3,99.1c0-2.1,1.5-3.8,3.6-3.8c2.4,0,3.5,1.9,3.5,3.9c0,0.2,0,0.4,0,0.5h-5
			c0.2,0.9,0.8,1.4,1.8,1.4c0.7,0,1.2-0.2,1.8-0.7l1.2,1c-0.7,0.8-1.6,1.3-3,1.3C67.9,102.8,66.3,101.3,66.3,99.1z M71.4,98.5
			c-0.1-0.9-0.7-1.5-1.5-1.5c-0.8,0-1.4,0.6-1.6,1.5H71.4z"/>
		<path class="st1" d="M75.3,97.2h-0.8v-1.7h0.8V95c0-0.8,0.2-1.4,0.6-1.8s0.9-0.6,1.7-0.6c0.6,0,1.1,0.1,1.5,0.2v1.7
			c-0.3-0.1-0.6-0.2-0.9-0.2c-0.5,0-0.7,0.2-0.7,0.8v0.3H79v1.7h-1.6v5.5h-2V97.2z"/>
		<path class="st1" d="M42.6,117.8l0.9-1.3c0.8,0.6,1.6,0.9,2.3,0.9c0.6,0,0.9-0.2,0.9-0.5v0c0-0.4-0.7-0.6-1.5-0.8
			c-1-0.3-2.2-0.8-2.2-2.2v0c0-1.5,1.2-2.3,2.6-2.3c0.9,0,1.9,0.3,2.7,0.8l-0.8,1.4c-0.7-0.4-1.4-0.7-2-0.7c-0.5,0-0.8,0.2-0.8,0.5
			v0c0,0.4,0.7,0.6,1.5,0.9c1,0.3,2.2,0.8,2.2,2.1v0c0,1.6-1.2,2.3-2.8,2.3C44.6,118.9,43.5,118.6,42.6,117.8z"/>
		<path class="st1" d="M49.5,115.2L49.5,115.2c0-2.1,1.5-3.8,3.6-3.8c2.4,0,3.5,1.9,3.5,3.9c0,0.2,0,0.4,0,0.5h-5
			c0.2,0.9,0.8,1.4,1.8,1.4c0.7,0,1.2-0.2,1.8-0.7l1.2,1c-0.7,0.8-1.6,1.3-3,1.3C51.1,119,49.5,117.4,49.5,115.2z M54.6,114.6
			c-0.1-0.9-0.7-1.5-1.5-1.5c-0.8,0-1.4,0.6-1.6,1.5H54.6z"/>
		<path class="st1" d="M58.1,111.6h2v1.5c0.4-1,1.1-1.6,2.3-1.6v2.1h-0.1c-1.4,0-2.2,0.8-2.2,2.5v2.7h-2V111.6z"/>
		<path class="st1" d="M63.1,111.6h2.2l1.6,4.8l1.6-4.8h2.1l-2.8,7.3H66L63.1,111.6z"/>
		<path class="st1" d="M71.1,115.2L71.1,115.2c0-2.1,1.5-3.8,3.6-3.8c2.4,0,3.5,1.9,3.5,3.9c0,0.2,0,0.4,0,0.5h-5
			c0.2,0.9,0.8,1.4,1.8,1.4c0.7,0,1.2-0.2,1.8-0.7l1.2,1c-0.7,0.8-1.6,1.3-3,1.3C72.7,119,71.1,117.4,71.1,115.2z M76.2,114.6
			c-0.1-0.9-0.7-1.5-1.5-1.5c-0.8,0-1.4,0.6-1.6,1.5H76.2z"/>
		<path class="st1" d="M79.7,111.6h2v1.5c0.4-1,1.1-1.6,2.3-1.6v2.1h-0.1c-1.4,0-2.2,0.8-2.2,2.5v2.7h-2V111.6z"/>
	</g>
	<g>
		<g>
			<g>
				<g>
					<g>
						<path class="st1" d="M96.2,86.3H26.4c-1.4,0-2.6-1.1-2.6-2.6V63.8c0-1.4,1.1-2.6,2.6-2.6h69.8c1.4,0,2.6,1.1,2.6,2.6v19.9
							C98.7,85.2,97.6,86.3,96.2,86.3L96.2,86.3z M29,81.2h64.6V66.4H29V81.2L29,81.2z"/>
					</g>
					<path class="st1" d="M35.9,70.8c-1.7,0-3,1.4-3,3s1.3,3,3,3c1.7,0,3-1.4,3-3S37.5,70.8,35.9,70.8L35.9,70.8z"/>
					<path class="st1" d="M45.7,70.8c-1.7,0-3,1.4-3,3s1.3,3,3,3c1.7,0,3-1.4,3-3S47.3,70.8,45.7,70.8L45.7,70.8z"/>
					<path class="st1" d="M55.5,70.8c-1.7,0-3,1.4-3,3s1.3,3,3,3c1.7,0,3-1.4,3-3S57.1,70.8,55.5,70.8L55.5,70.8z"/>
				</g>
				<g>
					<g>
						<path class="st1" d="M96.2,59.2H26.4c-1.4,0-2.6-1.1-2.6-2.6V36.7c0-1.4,1.1-2.6,2.6-2.6h69.8c1.4,0,2.6,1.1,2.6,2.6v19.9
							C98.7,58,97.6,59.2,96.2,59.2L96.2,59.2z M29,54h64.6V39.2H29V54L29,54z"/>
					</g>
					<path class="st1" d="M35.9,43.6c-1.7,0-3,1.4-3,3c0,1.7,1.3,3,3,3c1.7,0,3-1.4,3-3C38.9,45,37.5,43.6,35.9,43.6L35.9,43.6z"/>
					<path class="st1" d="M45.7,43.6c-1.7,0-3,1.4-3,3c0,1.7,1.3,3,3,3c1.7,0,3-1.4,3-3C48.7,45,47.3,43.6,45.7,43.6L45.7,43.6z"/>
					<path class="st1" d="M55.5,43.6c-1.7,0-3,1.4-3,3c0,1.7,1.3,3,3,3c1.7,0,3-1.4,3-3C58.5,45,57.1,43.6,55.5,43.6L55.5,43.6z"/>
				</g>
				<g>
					<g>
						<path class="st1" d="M96.2,32H26.4c-1.4,0-2.6-1.1-2.6-2.6V9.5C23.8,8.1,25,7,26.4,7h69.8c1.4,0,2.6,1.1,2.6,2.6v19.9
							C98.7,30.9,97.6,32,96.2,32L96.2,32z M29,26.9h64.6V12.1H29V26.9L29,26.9z"/>
					</g>
					<path class="st1" d="M35.9,16.5c-1.7,0-3,1.4-3,3c0,1.7,1.3,3,3,3c1.7,0,3-1.4,3-3C38.9,17.8,37.5,16.5,35.9,16.5L35.9,16.5z"
						/>
					<path class="st1" d="M45.7,16.5c-1.7,0-3,1.4-3,3c0,1.7,1.3,3,3,3c1.7,0,3-1.4,3-3C48.7,17.8,47.3,16.5,45.7,16.5L45.7,16.5z"
						/>
					<path class="st1" d="M55.5,16.5c-1.7,0-3,1.4-3,3c0,1.7,1.3,3,3,3c1.7,0,3-1.4,3-3C58.5,17.8,57.1,16.5,55.5,16.5L55.5,16.5z"
						/>
				</g>
			</g>
			<g>
				<g>
					<path class="st0" d="M96.9,71.6c-6.5,0-11.8-5.3-11.8-11.8S90.4,48,96.9,48s11.8,5.3,11.8,11.8S103.4,71.6,96.9,71.6z"/>
					<path class="st1" d="M96.9,51c4.9,0,8.8,3.9,8.8,8.8c0,4.9-3.9,8.8-8.8,8.8s-8.8-3.9-8.8-8.8C88.1,55,92,51,96.9,51 M96.9,45
						c-8.2,0-14.8,6.6-14.8,14.8c0,8.2,6.6,14.8,14.8,14.8c8.2,0,14.8-6.6,14.8-14.8C111.7,51.6,105,45,96.9,45L96.9,45z"/>
				</g>
			</g>
		</g>
		<g>
			<path class="st1" d="M91,59.9L91,59.9c0-3.7,2.7-6.6,6.7-6.6c2.4,0,3.9,0.8,5,2l-1.8,2.1c-1-0.9-2-1.4-3.3-1.4
				c-2.2,0-3.7,1.8-3.7,4v0c0,2.2,1.5,4,3.7,4c1.5,0,2.4-0.6,3.4-1.5l1.8,1.8c-1.3,1.4-2.8,2.3-5.2,2.3C93.8,66.4,91,63.5,91,59.9z"
				/>
		</g>
	</g>
</g>
<g>
</g>
<g>
</g>
<g>
</g>
<g>
</g>
<g>
</g>
<g>
</g>
<g>
</g>
<g>
</g>
<g>
</g>
<g>
</g>
<g>
</g>
<g>
</g>
<g>
</g>
<g>
</g>
<g>
</g>
</svg>
