<svg id="Layer_1" data-name="Layer 1" xmlns="http://www.w3.org/2000/svg" viewBox="0 0 512.95 169.23"><title>Untitled-1</title><rect x="343.72" width="169.23" height="169.23" style="fill:#465565"/><path d="M477.84,129.93h-99a3.63,3.63,0,0,1-3.63-3.63V98a3.63,3.63,0,0,1,3.63-3.63h99A3.63,3.63,0,0,1,481.47,98V126.3a3.63,3.63,0,0,1-3.63,3.63h0Zm-95.37-7.26h91.74v-21H382.47v21h0Z" style="fill:#fff"/><path d="M392.26,107.87a4.28,4.28,0,1,0,4.28,4.28,4.28,4.28,0,0,0-4.28-4.28h0Z" style="fill:#fff"/><path d="M406.18,107.87a4.28,4.28,0,1,0,4.28,4.28,4.28,4.28,0,0,0-4.28-4.28h0Z" style="fill:#fff"/><path d="M420.1,107.87a4.28,4.28,0,1,0,4.28,4.28,4.28,4.28,0,0,0-4.28-4.28h0Z" style="fill:#fff"/><path d="M477.84,91.4h-99a3.63,3.63,0,0,1-3.63-3.63V59.48a3.63,3.63,0,0,1,3.63-3.63h99a3.63,3.63,0,0,1,3.63,3.63V87.77a3.63,3.63,0,0,1-3.63,3.63h0Zm-95.37-7.26h91.74v-21H382.47v21h0Z" style="fill:#fff"/><path d="M392.26,69.34a4.28,4.28,0,1,0,4.28,4.28,4.28,4.28,0,0,0-4.28-4.28h0Z" style="fill:#fff"/><path d="M406.18,69.34a4.28,4.28,0,1,0,4.28,4.28,4.28,4.28,0,0,0-4.28-4.28h0Z" style="fill:#fff"/><path d="M420.1,69.34a4.28,4.28,0,1,0,4.28,4.28,4.28,4.28,0,0,0-4.28-4.28h0Z" style="fill:#fff"/><path d="M477.84,52.87h-99a3.63,3.63,0,0,1-3.63-3.63V21a3.63,3.63,0,0,1,3.63-3.63h99A3.63,3.63,0,0,1,481.47,21V49.24a3.63,3.63,0,0,1-3.63,3.63h0Zm-95.37-7.26h91.74v-21H382.47v21h0Z" style="fill:#fff"/><path d="M392.26,30.82a4.28,4.28,0,1,0,4.28,4.28,4.28,4.28,0,0,0-4.28-4.28h0Z" style="fill:#fff"/><path d="M406.18,30.82a4.28,4.28,0,1,0,4.28,4.28,4.28,4.28,0,0,0-4.28-4.28h0Z" style="fill:#fff"/><path d="M420.1,30.82a4.28,4.28,0,1,0,4.28,4.28,4.28,4.28,0,0,0-4.28-4.28h0Z" style="fill:#fff"/><path d="M406.39,146.24h2.74v1.37a3.42,3.42,0,0,1,2.83-1.55c2.07,0,3.28,1.37,3.28,3.58v6.25h-2.74v-5.38c0-1.3-.61-2-1.66-2a1.68,1.68,0,0,0-1.71,2v5.38h-2.74v-9.65Z" style="fill:#fff"/><path d="M417.13,151.12v0a5.23,5.23,0,0,1,10.44,0v0A5.23,5.23,0,0,1,417.13,151.12Zm7.74,0v0a2.56,2.56,0,0,0-2.54-2.66,2.47,2.47,0,0,0-2.5,2.63v0a2.56,2.56,0,0,0,2.54,2.67A2.47,2.47,0,0,0,424.88,151.12Z" style="fill:#fff"/><path d="M429.12,151.09v0c0-3.22,2.11-5,4.39-5a3.71,3.71,0,0,1,3,1.44v-4.75h2.74v13.14h-2.74v-1.39a3.55,3.55,0,0,1-3,1.57C431.26,156.07,429.12,154.31,429.12,151.09Zm7.44,0v0a2.37,2.37,0,1,0-4.7,0v0A2.37,2.37,0,1,0,436.56,151.09Z" style="fill:#fff"/><path d="M441.24,151.12v0a4.8,4.8,0,0,1,4.77-5c3.22,0,4.7,2.5,4.7,5.24,0,0.22,0,.47,0,0.72H444a2.24,2.24,0,0,0,2.36,1.89,3.16,3.16,0,0,0,2.34-1l1.57,1.39A5.1,5.1,0,0,1,441.24,151.12Zm6.81-.81a2.07,2.07,0,0,0-2-2.05,2.15,2.15,0,0,0-2.09,2.05H448Z" style="fill:#fff"/><rect width="169.23" height="169.23" style="fill:#59b7b2"/><path d="M11.9,150v0a6,6,0,0,1,6.21-6.15,6.14,6.14,0,0,1,4.69,1.84l-1.67,1.92a4.39,4.39,0,0,0-3-1.34,3.52,3.52,0,0,0-3.45,3.71v0a3.53,3.53,0,0,0,3.45,3.74,4.29,4.29,0,0,0,3.13-1.39L22.88,154A6.08,6.08,0,0,1,18,156.1,6,6,0,0,1,11.9,150Z" style="fill:#fff"/><path d="M24.7,143.49h2.58v4.59A3.22,3.22,0,0,1,30,146.61c2,0,3.09,1.29,3.09,3.38v5.9H30.46v-5.08c0-1.22-.58-1.85-1.56-1.85a1.59,1.59,0,0,0-1.62,1.85v5.08H24.7V143.49Z" style="fill:#fff"/><path d="M34.85,151.39v0a4.54,4.54,0,0,1,4.5-4.74c3,0,4.44,2.36,4.44,4.95,0,0.2,0,.44,0,0.68H37.42A2.11,2.11,0,0,0,39.64,154a3,3,0,0,0,2.21-.94l1.48,1.31A4.81,4.81,0,0,1,34.85,151.39Zm6.42-.77a2,2,0,0,0-1.92-1.94,2,2,0,0,0-2,1.94h3.89Z" style="fill:#fff"/><path d="M46.15,149H45.08v-2.12h1.07v-0.58a3,3,0,0,1,.73-2.21,2.84,2.84,0,0,1,2.09-.71,5.71,5.71,0,0,1,1.84.25v2.14a3.28,3.28,0,0,0-1.17-.22,0.85,0.85,0,0,0-.93,1v0.36h2.09V149H48.74v6.9H46.15V149Z" style="fill:#fff"/><path d="M57.05,150v0a6,6,0,0,1,6.2-6.15,6.14,6.14,0,0,1,4.69,1.84l-1.67,1.92a4.39,4.39,0,0,0-3-1.34,3.53,3.53,0,0,0-3.45,3.71v0a3.53,3.53,0,0,0,3.45,3.74,4.29,4.29,0,0,0,3.13-1.39L68,154a6.08,6.08,0,0,1-4.88,2.13A6,6,0,0,1,57.05,150Z" style="fill:#fff"/><path d="M69.24,151.39v0a4.93,4.93,0,0,1,9.86,0v0A4.93,4.93,0,0,1,69.24,151.39Zm7.31,0v0a2.42,2.42,0,0,0-2.4-2.52,2.33,2.33,0,0,0-2.36,2.48v0a2.42,2.42,0,0,0,2.4,2.52A2.33,2.33,0,0,0,76.55,151.39Z" style="fill:#fff"/><path d="M81,146.78h2.58v1.29a3.26,3.26,0,0,1,2.69-1.46,2.73,2.73,0,0,1,2.57,1.45,3.75,3.75,0,0,1,3-1.45c1.92,0,3.08,1.16,3.08,3.35v5.93H92.29v-5.08c0-1.22-.54-1.85-1.51-1.85s-1.56.63-1.56,1.85v5.08H86.63v-5.08c0-1.22-.54-1.85-1.51-1.85s-1.56.63-1.56,1.85v5.08H81v-9.11Z" style="fill:#fff"/><path d="M97.12,146.78H99.7v1.31a3.35,3.35,0,0,1,2.84-1.48c2.13,0,4.15,1.67,4.15,4.71v0c0,3-2,4.71-4.15,4.71a3.5,3.5,0,0,1-2.84-1.36v3.91H97.12V146.78Zm7,4.57v0a2.24,2.24,0,1,0-4.44,0v0A2.24,2.24,0,1,0,104.1,151.36Z" style="fill:#fff"/><path d="M108.71,143.49h2.58v12.41h-2.58V143.49Z" style="fill:#fff"/><path d="M113.78,143.49h2.72v2.29h-2.72v-2.29Zm0.07,3.3h2.58v9.11h-2.58v-9.11Z" style="fill:#fff"/><path d="M118.32,153.28v0c0-2,1.51-2.91,3.67-2.91a6.48,6.48,0,0,1,2.23.37v-0.15c0-1.07-.66-1.67-2-1.67a6.68,6.68,0,0,0-2.52.49l-0.65-2a8,8,0,0,1,3.54-.73,4.21,4.21,0,0,1,3.08,1,4,4,0,0,1,1,2.91v5.29h-2.5v-1a3.51,3.51,0,0,1-2.75,1.16C119.73,156.06,118.32,155.08,118.32,153.28Zm5.93-.6v-0.46a4,4,0,0,0-1.65-.34c-1.11,0-1.79.44-1.79,1.26v0a1.2,1.2,0,0,0,1.41,1.11A1.76,1.76,0,0,0,124.25,152.68Z" style="fill:#fff"/><path d="M128.93,146.78h2.58v1.29a3.22,3.22,0,0,1,2.67-1.46c2,0,3.09,1.29,3.09,3.38v5.9h-2.58v-5.08c0-1.22-.58-1.85-1.56-1.85a1.59,1.59,0,0,0-1.61,1.85v5.08h-2.58v-9.11Z" style="fill:#fff"/><path d="M139.07,151.39v0a4.68,4.68,0,0,1,4.78-4.74,4.48,4.48,0,0,1,3.64,1.53l-1.58,1.7a2.66,2.66,0,0,0-2.07-1,2.33,2.33,0,0,0-2.21,2.48v0a2.33,2.33,0,0,0,2.31,2.52,2.89,2.89,0,0,0,2.09-1l1.51,1.53a4.59,4.59,0,0,1-3.72,1.67A4.65,4.65,0,0,1,139.07,151.39Z" style="fill:#fff"/><path d="M148.53,151.39v0a4.54,4.54,0,0,1,4.5-4.74c3,0,4.44,2.36,4.44,4.95,0,0.2,0,.44,0,0.68h-6.34a2.11,2.11,0,0,0,2.23,1.79,3,3,0,0,0,2.21-.94L157,154.4A4.81,4.81,0,0,1,148.53,151.39Zm6.43-.77a2,2,0,0,0-1.92-1.94,2,2,0,0,0-2,1.94H155Z" style="fill:#fff"/><path d="M128.12,129.93h-99a3.63,3.63,0,0,1-3.63-3.63V98a3.63,3.63,0,0,1,3.63-3.63h99A3.63,3.63,0,0,1,131.75,98V126.3a3.63,3.63,0,0,1-3.63,3.63h0Zm-95.37-7.26h91.74v-21H32.75v21h0Z" style="fill:#fff"/><path d="M42.54,107.87a4.28,4.28,0,1,0,4.28,4.28,4.28,4.28,0,0,0-4.28-4.28h0Z" style="fill:#fff"/><path d="M56.46,107.87a4.28,4.28,0,1,0,4.28,4.28,4.28,4.28,0,0,0-4.28-4.28h0Z" style="fill:#fff"/><path d="M70.38,107.87a4.28,4.28,0,1,0,4.28,4.28,4.28,4.28,0,0,0-4.28-4.28h0Z" style="fill:#fff"/><path d="M128.12,91.4h-99a3.63,3.63,0,0,1-3.63-3.63V59.48a3.63,3.63,0,0,1,3.63-3.63h99a3.63,3.63,0,0,1,3.63,3.63V87.77a3.63,3.63,0,0,1-3.63,3.63h0ZM32.75,84.14h91.74v-21H32.75v21h0Z" style="fill:#fff"/><path d="M42.54,69.34a4.28,4.28,0,1,0,4.28,4.28,4.28,4.28,0,0,0-4.28-4.28h0Z" style="fill:#fff"/><path d="M56.46,69.34a4.28,4.28,0,1,0,4.28,4.28,4.28,4.28,0,0,0-4.28-4.28h0Z" style="fill:#fff"/><path d="M70.38,69.34a4.28,4.28,0,1,0,4.28,4.28,4.28,4.28,0,0,0-4.28-4.28h0Z" style="fill:#fff"/><path d="M128.12,52.87h-99a3.63,3.63,0,0,1-3.63-3.63V21a3.63,3.63,0,0,1,3.63-3.63h99A3.63,3.63,0,0,1,131.75,21V49.24a3.63,3.63,0,0,1-3.63,3.63h0ZM32.75,45.61h91.74v-21H32.75v21h0Z" style="fill:#fff"/><path d="M42.54,30.82a4.28,4.28,0,1,0,4.28,4.28,4.28,4.28,0,0,0-4.28-4.28h0Z" style="fill:#fff"/><path d="M56.46,30.82a4.28,4.28,0,1,0,4.28,4.28,4.28,4.28,0,0,0-4.28-4.28h0Z" style="fill:#fff"/><path d="M70.38,30.82a4.28,4.28,0,1,0,4.28,4.28,4.28,4.28,0,0,0-4.28-4.28h0Z" style="fill:#fff"/><path d="M129.12,110.33a18,18,0,1,1,18-18A18,18,0,0,1,129.12,110.33Z" style="fill:#59b7b2"/><path d="M129.12,77.33a15,15,0,1,1-15,15,15,15,0,0,1,15-15m0-6a21,21,0,1,0,21,21,21,21,0,0,0-21-21h0Z" style="fill:#fff"/><g style="opacity:0"><path d="M129.12,71.33a21,21,0,1,1-21,21,21,21,0,0,1,21-21m0-2a23,23,0,1,0,23,23,23,23,0,0,0-23-23h0Z" style="fill:#fff"/></g><polyline points="121.68 93.73 127.68 98.4 137.01 86.4" style="fill:none;stroke:#fff;stroke-miterlimit:10;stroke-width:4px"/><line x1="279.79" y1="83.73" x2="309.79" y2="83.73" style="fill:none;stroke:#414548;stroke-linecap:square;stroke-miterlimit:10;stroke-width:8px"/><polygon points="307.79 91.59 321.6 83.61 307.79 75.64 307.79 91.59" style="fill:#414548"/><line x1="195.79" y1="82.73" x2="225.79" y2="82.73" style="fill:none;stroke:#414548;stroke-linecap:square;stroke-miterlimit:10;stroke-width:8px"/><path d="M236.43,87.58L238,85.73a5.46,5.46,0,0,0,3.55,1.45c1.07,0,1.72-.42,1.72-1.12v0c0-.66-0.41-1-2.4-1.51-2.4-.61-3.94-1.27-3.94-3.64v0c0-2.16,1.73-3.59,4.17-3.59a6.89,6.89,0,0,1,4.42,1.51l-1.36,2A5.58,5.58,0,0,0,241,79.56c-1,0-1.53.46-1.53,1v0c0,0.78.51,1,2.57,1.56,2.41,0.63,3.77,1.5,3.77,3.57v0c0,2.36-1.8,3.69-4.37,3.69A7.57,7.57,0,0,1,236.43,87.58Z" style="fill:#414548"/><path d="M247.14,87.58l1.55-1.85a5.46,5.46,0,0,0,3.55,1.45c1.07,0,1.72-.42,1.72-1.12v0c0-.66-0.41-1-2.4-1.51-2.4-.61-3.94-1.27-3.94-3.64v0c0-2.16,1.73-3.59,4.17-3.59a6.89,6.89,0,0,1,4.42,1.51l-1.36,2a5.58,5.58,0,0,0-3.09-1.17c-1,0-1.53.46-1.53,1v0c0,0.78.51,1,2.57,1.56,2.41,0.63,3.77,1.5,3.77,3.57v0c0,2.36-1.8,3.69-4.37,3.69A7.57,7.57,0,0,1,247.14,87.58Z" style="fill:#414548"/><path d="M258.83,77.42h2.62v4.71h4.83V77.42h2.62v11.9h-2.62V84.54h-4.83v4.78h-2.62V77.42Z" style="fill:#414548"/></svg>