<?xml version="1.0" encoding="utf-8"?>
<!-- Generator: Adobe Illustrator 19.2.1, SVG Export Plug-In . SVG Version: 6.00 Build 0)  -->
<svg version="1.1" id="Layer_1" xmlns="http://www.w3.org/2000/svg" xmlns:xlink="http://www.w3.org/1999/xlink" x="0px" y="0px"
	 viewBox="0 0 513 169.2" style="enable-background:new 0 0 513 169.2;" xml:space="preserve">
<style type="text/css">
	.st0{fill:#465565;}
	.st1{fill:#FFFFFF;}
	.st2{fill:#59B7B2;}
	.st3{opacity:0;}
	.st4{fill:none;stroke:#FFFFFF;stroke-width:4;stroke-miterlimit:10;}
	.st5{fill:none;stroke:#414548;stroke-width:8;stroke-linecap:square;stroke-miterlimit:10;}
	.st6{fill:#414548;}
</style>
<title>Untitled-1</title>
<rect x="307.7" class="st0" width="169.2" height="169.2"/>
<path class="st1" d="M441.8,129.9h-99c-2,0-3.6-1.6-3.6-3.6l0,0V98c0-2,1.6-3.6,3.6-3.6l0,0h99c2,0,3.6,1.6,3.6,3.6l0,0v28.3
	C445.5,128.3,443.8,129.9,441.8,129.9L441.8,129.9L441.8,129.9L441.8,129.9z M346.5,122.7h91.7v-21h-91.7V122.7L346.5,122.7z"/>
<path class="st1" d="M356.3,107.9c-2.4,0-4.3,1.9-4.3,4.3s1.9,4.3,4.3,4.3s4.3-1.9,4.3-4.3l0,0C360.5,109.8,358.6,107.9,356.3,107.9
	L356.3,107.9z"/>
<path class="st1" d="M370.2,107.9c-2.4,0-4.3,1.9-4.3,4.3s1.9,4.3,4.3,4.3s4.3-1.9,4.3-4.3l0,0C374.5,109.8,372.5,107.9,370.2,107.9
	L370.2,107.9z"/>
<path class="st1" d="M384.1,107.9c-2.4,0-4.3,1.9-4.3,4.3s1.9,4.3,4.3,4.3s4.3-1.9,4.3-4.3l0,0C388.4,109.8,386.5,107.9,384.1,107.9
	L384.1,107.9z"/>
<path class="st1" d="M441.8,91.4h-99c-2,0-3.6-1.6-3.6-3.6l0,0V59.5c0-2,1.6-3.6,3.6-3.6l0,0h99c2,0,3.6,1.6,3.6,3.6v0v28.3
	C445.5,89.8,443.8,91.4,441.8,91.4L441.8,91.4C441.8,91.4,441.8,91.4,441.8,91.4z M346.5,84.1h91.7v-21h-91.7V84.1L346.5,84.1z"/>
<path class="st1" d="M356.3,69.3c-2.4,0-4.3,1.9-4.3,4.3s1.9,4.3,4.3,4.3s4.3-1.9,4.3-4.3l0,0C360.5,71.3,358.6,69.3,356.3,69.3
	L356.3,69.3z"/>
<path class="st1" d="M370.2,69.3c-2.4,0-4.3,1.9-4.3,4.3s1.9,4.3,4.3,4.3s4.3-1.9,4.3-4.3l0,0C374.5,71.3,372.5,69.3,370.2,69.3
	L370.2,69.3z"/>
<path class="st1" d="M384.1,69.3c-2.4,0-4.3,1.9-4.3,4.3s1.9,4.3,4.3,4.3s4.3-1.9,4.3-4.3l0,0C388.4,71.3,386.5,69.3,384.1,69.3
	L384.1,69.3z"/>
<path class="st1" d="M441.8,52.9h-99c-2,0-3.6-1.6-3.6-3.6v0V21c0-2,1.6-3.6,3.6-3.6l0,0h99c2,0,3.6,1.6,3.6,3.6c0,0,0,0,0,0v28.2
	C445.5,51.2,443.8,52.9,441.8,52.9L441.8,52.9C441.8,52.9,441.8,52.9,441.8,52.9z M346.5,45.6h91.7v-21h-91.7V45.6L346.5,45.6z"/>
<path class="st1" d="M356.3,30.8c-2.4,0-4.3,1.9-4.3,4.3s1.9,4.3,4.3,4.3s4.3-1.9,4.3-4.3c0,0,0,0,0,0
	C360.5,32.7,358.6,30.8,356.3,30.8C356.3,30.8,356.3,30.8,356.3,30.8z"/>
<path class="st1" d="M370.2,30.8c-2.4,0-4.3,1.9-4.3,4.3s1.9,4.3,4.3,4.3s4.3-1.9,4.3-4.3c0,0,0,0,0,0
	C374.5,32.7,372.5,30.8,370.2,30.8C370.2,30.8,370.2,30.8,370.2,30.8z"/>
<path class="st1" d="M384.1,30.8c-2.4,0-4.3,1.9-4.3,4.3s1.9,4.3,4.3,4.3s4.3-1.9,4.3-4.3c0,0,0,0,0,0
	C388.4,32.7,386.5,30.8,384.1,30.8C384.1,30.8,384.1,30.8,384.1,30.8z"/>
<path class="st1" d="M370.4,146.2h2.7v1.4c0.6-1,1.7-1.5,2.8-1.6c2.1,0,3.3,1.4,3.3,3.6v6.2h-2.7v-5.4c0-1.3-0.6-2-1.7-2
	c-0.9,0-1.7,0.7-1.7,1.6c0,0.1,0,0.3,0,0.4v5.4h-2.7V146.2z"/>
<path class="st1" d="M381.1,151.1L381.1,151.1c0.2-2.9,2.7-5.1,5.5-4.9c2.6,0.2,4.7,2.3,4.9,4.9l0,0c-0.2,2.9-2.7,5.1-5.5,4.9
	C383.4,155.9,381.3,153.8,381.1,151.1z M388.9,151.1L388.9,151.1c0.1-1.4-1-2.6-2.5-2.7c0,0-0.1,0-0.1,0c-1.4,0-2.5,1.1-2.5,2.4
	c0,0.1,0,0.1,0,0.2l0,0c-0.1,1.4,1,2.6,2.4,2.7c0,0,0.1,0,0.1,0c1.4,0,2.5-1.1,2.5-2.4C388.9,151.3,388.9,151.2,388.9,151.1
	L388.9,151.1z"/>
<path class="st1" d="M393.1,151.1L393.1,151.1c0-3.2,2.1-5,4.4-5c1.2,0,2.3,0.5,3,1.4v-4.8h2.7v13.1h-2.7v-1.4c-0.7,1-1.8,1.6-3,1.6
	C395.3,156.1,393.1,154.3,393.1,151.1z M400.6,151.1L400.6,151.1c0.2-1.3-0.7-2.5-2-2.7c-1.3-0.2-2.5,0.7-2.7,2c0,0.2,0,0.4,0,0.6
	l0,0c-0.2,1.3,0.7,2.5,2,2.7c1.3,0.2,2.5-0.7,2.7-2C400.6,151.5,400.6,151.3,400.6,151.1z"/>
<path class="st1" d="M405.2,151.1L405.2,151.1c-0.1-2.6,1.9-4.9,4.6-5c0.1,0,0.1,0,0.2,0c3.2,0,4.7,2.5,4.7,5.2c0,0.2,0,0.5,0,0.7
	H408c0.2,1.1,1.2,2,2.4,1.9c0.9,0,1.7-0.4,2.3-1l1.6,1.4c-1.8,2.2-5,2.5-7.2,0.7C405.9,154.1,405.2,152.6,405.2,151.1z M412,150.3
	c0-1.1-0.9-2-2-2.1c-1.1,0-2,0.9-2.1,2.1H412L412,150.3z"/>
<rect class="st2" width="169.2" height="169.2"/>
<path class="st1" d="M11.9,150L11.9,150c-0.1-3.3,2.5-6.1,5.8-6.2c0.1,0,0.2,0,0.4,0c1.8-0.1,3.5,0.6,4.7,1.8l-1.7,1.9
	c-0.8-0.8-1.9-1.3-3-1.3c-1.9,0-3.5,1.6-3.5,3.6c0,0,0,0.1,0,0.1l0,0c-0.1,1.9,1.4,3.6,3.3,3.7c0,0,0.1,0,0.1,0
	c1.2,0,2.3-0.5,3.1-1.4l1.6,1.7c-1.2,1.4-3,2.2-4.9,2.1c-3.3,0.1-6-2.6-6.1-5.9C11.9,150.1,11.9,150.1,11.9,150z"/>
<path class="st1" d="M24.7,143.5h2.6v4.6c0.6-0.9,1.6-1.5,2.7-1.5c2,0,3.1,1.3,3.1,3.4v5.9h-2.6v-5.1c0-1.2-0.6-1.9-1.6-1.9
	c-0.9,0-1.6,0.7-1.6,1.5c0,0.1,0,0.2,0,0.3v5.1h-2.6V143.5z"/>
<path class="st1" d="M34.8,151.4L34.8,151.4c-0.1-2.5,1.8-4.6,4.3-4.7c0.1,0,0.1,0,0.2,0c3,0,4.4,2.4,4.4,4.9c0,0.2,0,0.4,0,0.7
	h-6.4c0.2,1.1,1.2,1.8,2.2,1.7c0.8,0,1.6-0.3,2.2-0.9l1.5,1.3c-1.7,2-4.8,2.3-6.8,0.6C35.5,154,34.9,152.8,34.8,151.4z M41.3,150.6
	c0-1.1-0.9-1.9-1.9-1.9c-1.1,0-2,0.9-2,1.9H41.3L41.3,150.6z"/>
<path class="st1" d="M46.2,149h-1.1v-2.1h1.1v-0.6c-0.1-0.8,0.2-1.6,0.7-2.2c0.6-0.5,1.3-0.8,2.1-0.7c0.6,0,1.2,0.1,1.8,0.2v2.1
	c-0.4-0.1-0.8-0.2-1.2-0.2c-0.5-0.1-0.9,0.3-0.9,0.8c0,0.1,0,0.2,0,0.2v0.4h2.1v2.1h-2.1v6.9h-2.6V149z"/>
<path class="st1" d="M57,150L57,150c-0.1-3.3,2.5-6.1,5.8-6.2c0.1,0,0.2,0,0.4,0c1.8-0.1,3.5,0.6,4.7,1.8l-1.7,1.9
	c-0.8-0.8-1.9-1.3-3-1.3c-1.9,0-3.5,1.7-3.5,3.6c0,0,0,0.1,0,0.1l0,0c-0.1,1.9,1.4,3.6,3.3,3.7c0,0,0.1,0,0.1,0
	c1.2,0,2.3-0.5,3.1-1.4L68,154c-1.2,1.4-3,2.2-4.9,2.1c-3.3,0-6-2.6-6.1-5.9C57,150.1,57,150.1,57,150z"/>
<path class="st1" d="M69.2,151.4L69.2,151.4c0-2.7,2.2-4.9,4.9-4.9s4.9,2.2,4.9,4.9l0,0c0,2.7-2.2,4.9-4.9,4.9
	S69.2,154.1,69.2,151.4z M76.5,151.4L76.5,151.4c0.1-1.3-1-2.5-2.3-2.5c0,0-0.1,0-0.1,0c-1.3,0-2.3,1-2.4,2.3c0,0.1,0,0.1,0,0.2l0,0
	c-0.1,1.3,1,2.5,2.3,2.5c0,0,0.1,0,0.1,0c1.3,0,2.3-1,2.4-2.3C76.6,151.5,76.6,151.5,76.5,151.4z"/>
<path class="st1" d="M81,146.8h2.6v1.3c0.6-0.9,1.6-1.5,2.7-1.5c1.1-0.1,2.1,0.5,2.6,1.4c0.7-0.9,1.8-1.5,3-1.4
	c1.9,0,3.1,1.2,3.1,3.4v5.9h-2.6v-5.1c0-1.2-0.5-1.9-1.5-1.9s-1.6,0.6-1.6,1.9v5.1h-2.6v-5.1c0-1.2-0.5-1.9-1.5-1.9
	s-1.6,0.6-1.6,1.9v5.1H81V146.8L81,146.8z"/>
<path class="st1" d="M97.1,146.8h2.6v1.3c0.6-0.9,1.7-1.5,2.8-1.5c2.1,0,4.2,1.7,4.2,4.7l0,0c0,3-2,4.7-4.2,4.7
	c-1.1,0-2.2-0.5-2.8-1.4v3.9h-2.6V146.8z M104.1,151.4L104.1,151.4c0.2-1.2-0.7-2.4-1.9-2.5c-1.2-0.2-2.4,0.7-2.5,1.9
	c0,0.2,0,0.4,0,0.6l0,0c-0.2,1.2,0.6,2.4,1.8,2.6c1.2,0.2,2.4-0.6,2.6-1.8C104.1,151.8,104.1,151.6,104.1,151.4L104.1,151.4z"/>
<path class="st1" d="M108.7,143.5h2.6v12.4h-2.6V143.5z"/>
<path class="st1" d="M113.8,143.5h2.7v2.3h-2.7V143.5z M113.8,146.8h2.6v9.1h-2.6V146.8z"/>
<path class="st1" d="M118.3,153.3L118.3,153.3c0-2,1.5-2.9,3.7-2.9c0.8,0,1.5,0.1,2.2,0.4v-0.1c0-1.1-0.7-1.7-2-1.7
	c-0.9,0-1.7,0.2-2.5,0.5l-0.7-2c1.1-0.5,2.3-0.8,3.5-0.7c1.1-0.1,2.2,0.3,3.1,1c0.7,0.8,1.1,1.8,1,2.9v5.3h-2.5v-1
	c-0.7,0.8-1.7,1.2-2.8,1.2C119.7,156.1,118.3,155.1,118.3,153.3z M124.2,152.7v-0.5c-0.5-0.2-1.1-0.3-1.7-0.3
	c-1.1,0-1.8,0.4-1.8,1.3l0,0c0,0.7,0.6,1.2,1.3,1.1c0,0,0.1,0,0.1,0c1,0.2,1.9-0.5,2-1.5C124.2,152.8,124.2,152.7,124.2,152.7z"/>
<path class="st1" d="M128.9,146.8h2.6v1.3c0.6-0.9,1.6-1.5,2.7-1.5c2,0,3.1,1.3,3.1,3.4v5.9h-2.6v-5.1c0-1.2-0.6-1.9-1.6-1.9
	c-0.9,0-1.6,0.7-1.6,1.5c0,0.1,0,0.2,0,0.3v5.1h-2.6L128.9,146.8L128.9,146.8z"/>
<path class="st1" d="M139.1,151.4L139.1,151.4c0-2.6,2-4.7,4.6-4.7c0.1,0,0.1,0,0.2,0c1.4-0.1,2.7,0.5,3.6,1.5l-1.6,1.7
	c-0.5-0.6-1.3-1-2.1-1c-1.3,0.1-2.3,1.2-2.2,2.4c0,0,0,0,0,0l0,0c-0.1,1.3,0.8,2.4,2.1,2.5c0.1,0,0.1,0,0.2,0c0.8,0,1.6-0.4,2.1-1
	l1.5,1.5c-0.9,1.1-2.3,1.7-3.7,1.7c-2.6,0.1-4.7-2-4.7-4.5C139.1,151.5,139.1,151.4,139.1,151.4z"/>
<path class="st1" d="M148.5,151.4L148.5,151.4c-0.1-2.5,1.8-4.6,4.3-4.7c0.1,0,0.1,0,0.2,0c3,0,4.4,2.4,4.4,4.9c0,0.2,0,0.4,0,0.7
	h-6.3c0.2,1.1,1.1,1.9,2.2,1.8c0.8,0,1.6-0.3,2.2-0.9l1.4,1.3c-1.7,2-4.8,2.3-6.8,0.5C149.2,154.1,148.6,152.8,148.5,151.4z
	 M155,150.6c0-1.1-0.9-1.9-1.9-1.9c-1.1,0-2,0.9-2,1.9H155L155,150.6z"/>
<path class="st1" d="M128.1,129.9h-99c-2,0-3.6-1.6-3.6-3.6V98c0-2,1.6-3.6,3.6-3.6h99c2,0,3.6,1.6,3.6,3.6l0,0v28.3
	C131.8,128.3,130.1,129.9,128.1,129.9C128.1,129.9,128.1,129.9,128.1,129.9L128.1,129.9L128.1,129.9z M32.7,122.7h91.7v-21H32.8
	L32.7,122.7C32.8,122.7,32.8,122.7,32.7,122.7z"/>
<path class="st1" d="M42.5,107.9c-2.4,0-4.3,1.9-4.3,4.3s1.9,4.3,4.3,4.3c2.4,0,4.3-1.9,4.3-4.3l0,0
	C46.8,109.8,44.9,107.9,42.5,107.9L42.5,107.9z"/>
<path class="st1" d="M56.5,107.9c-2.4,0-4.3,1.9-4.3,4.3s1.9,4.3,4.3,4.3c2.4,0,4.3-1.9,4.3-4.3l0,0
	C60.7,109.8,58.8,107.9,56.5,107.9L56.5,107.9z"/>
<path class="st1" d="M70.4,107.9c-2.4,0-4.3,1.9-4.3,4.3s1.9,4.3,4.3,4.3c2.4,0,4.3-1.9,4.3-4.3l0,0
	C74.7,109.8,72.7,107.9,70.4,107.9L70.4,107.9z"/>
<path class="st1" d="M128.1,91.4h-99c-2,0-3.6-1.6-3.6-3.6V59.5c0-2,1.6-3.6,3.6-3.6h0h99c2,0,3.6,1.6,3.6,3.6v0v28.3
	C131.8,89.8,130.1,91.4,128.1,91.4L128.1,91.4C128.1,91.4,128.1,91.4,128.1,91.4z M32.8,84.1h91.7v-21H32.8V84.1L32.8,84.1z"/>
<path class="st1" d="M42.5,69.3c-2.4,0-4.3,1.9-4.3,4.3s1.9,4.3,4.3,4.3c2.4,0,4.3-1.9,4.3-4.3l0,0C46.8,71.3,44.9,69.3,42.5,69.3
	L42.5,69.3z"/>
<path class="st1" d="M56.5,69.3c-2.4,0-4.3,1.9-4.3,4.3s1.9,4.3,4.3,4.3c2.4,0,4.3-1.9,4.3-4.3l0,0C60.7,71.3,58.8,69.3,56.5,69.3
	L56.5,69.3z"/>
<path class="st1" d="M70.4,69.3c-2.4,0-4.3,1.9-4.3,4.3s1.9,4.3,4.3,4.3c2.4,0,4.3-1.9,4.3-4.3l0,0C74.7,71.3,72.7,69.3,70.4,69.3
	L70.4,69.3z"/>
<path class="st1" d="M128.1,52.9h-99c-2,0-3.6-1.6-3.6-3.6l0,0V21c0-2,1.6-3.6,3.6-3.6h0h99c2,0,3.6,1.6,3.6,3.6c0,0,0,0,0,0v28.2
	C131.8,51.2,130.1,52.9,128.1,52.9L128.1,52.9C128.1,52.9,128.1,52.9,128.1,52.9z M32.8,45.6h91.7v-21H32.8V45.6L32.8,45.6z"/>
<path class="st1" d="M42.5,30.8c-2.4,0-4.3,1.9-4.3,4.3s1.9,4.3,4.3,4.3c2.4,0,4.3-1.9,4.3-4.3c0,0,0,0,0,0
	C46.8,32.7,44.9,30.8,42.5,30.8C42.5,30.8,42.5,30.8,42.5,30.8z"/>
<path class="st1" d="M56.5,30.8c-2.4,0-4.3,1.9-4.3,4.3s1.9,4.3,4.3,4.3c2.4,0,4.3-1.9,4.3-4.3c0,0,0,0,0,0
	C60.7,32.7,58.8,30.8,56.5,30.8C56.5,30.8,56.5,30.8,56.5,30.8z"/>
<path class="st1" d="M70.4,30.8c-2.4,0-4.3,1.9-4.3,4.3s1.9,4.3,4.3,4.3c2.4,0,4.3-1.9,4.3-4.3c0,0,0,0,0,0
	C74.7,32.7,72.7,30.8,70.4,30.8C70.4,30.8,70.4,30.8,70.4,30.8z"/>
<path class="st2" d="M129.1,110.3c-9.9,0-18-8.1-18-18s8.1-18,18-18s18,8.1,18,18S139.1,110.3,129.1,110.3z"/>
<path class="st1" d="M129.1,77.3c8.3,0,15,6.7,15,15s-6.7,15-15,15s-15-6.7-15-15l0,0C114.1,84,120.8,77.3,129.1,77.3 M129.1,71.3
	c-11.6,0-21,9.4-21,21s9.4,21,21,21s21-9.4,21-21l0,0C150.1,80.7,140.7,71.3,129.1,71.3L129.1,71.3z"/>
<g class="st3">
	<path class="st1" d="M129.1,71.3c11.6,0,21,9.4,21,21s-9.4,21-21,21s-21-9.4-21-21l0,0C108.1,80.7,117.5,71.3,129.1,71.3
		 M129.1,69.3c-12.7,0-23,10.3-23,23s10.3,23,23,23s23-10.3,23-23l0,0C152.1,79.6,141.8,69.3,129.1,69.3L129.1,69.3z"/>
</g>
<polyline class="st4" points="121.7,93.7 127.7,98.4 137,86.4 "/>
<line class="st5" x1="260.8" y1="83.7" x2="290.8" y2="83.7"/>
<polygon class="st6" points="288.8,91.6 302.6,83.6 288.8,75.6 "/>
<line class="st5" x1="176.8" y1="82.7" x2="206.8" y2="82.7"/>
<path class="st6" d="M217.4,87.6l1.6-1.8c1,0.9,2.2,1.4,3.6,1.4c1.1,0,1.7-0.4,1.7-1.1l0,0c0-0.7-0.4-1-2.4-1.5
	c-2.4-0.6-3.9-1.3-3.9-3.6l0,0c0-2.2,1.7-3.6,4.2-3.6c1.6,0,3.2,0.5,4.4,1.5l-1.4,2c-0.9-0.7-2-1.2-3.2-1.3c-1,0-1.5,0.5-1.5,1l0,0
	c0,0.8,0.5,1,2.6,1.6c2.4,0.6,3.8,1.5,3.8,3.6l0,0c0,2.4-1.8,3.7-4.4,3.7C220.6,89.4,218.8,88.8,217.4,87.6z"/>
<path class="st6" d="M228.1,87.6l1.6-1.8c1,0.9,2.2,1.4,3.6,1.4c1.1,0,1.7-0.4,1.7-1.1l0,0c0-0.7-0.4-1-2.4-1.5
	c-2.4-0.6-3.9-1.3-3.9-3.6l0,0c0-2.2,1.7-3.6,4.2-3.6c1.6,0,3.2,0.5,4.4,1.5l-1.4,2c-0.9-0.7-2-1.1-3.1-1.2c-1,0-1.5,0.5-1.5,1l0,0
	c0,0.8,0.5,1,2.6,1.6c2.4,0.6,3.8,1.5,3.8,3.6l0,0c0,2.4-1.8,3.7-4.4,3.7C231.3,89.5,229.5,88.8,228.1,87.6z"/>
<path class="st6" d="M239.8,77.4h2.6v4.7h4.8v-4.7h2.6v11.9h-2.6v-4.8h-4.8v4.8h-2.6V77.4z"/>
</svg>
