<?xml version="1.0" encoding="utf-8"?>
<!-- Generator: Adobe Illustrator 19.2.1, SVG Export Plug-In . SVG Version: 6.00 Build 0)  -->
<svg version="1.1" id="Layer_1" xmlns="http://www.w3.org/2000/svg" xmlns:xlink="http://www.w3.org/1999/xlink" x="0px" y="0px"
	 viewBox="0 0 769.2 170.3" style="enable-background:new 0 0 769.2 170.3;" xml:space="preserve">
<style type="text/css">
	.st0{fill:#59B7B2;}
	.st1{fill:#465565;}
	.st2{fill:none;stroke:#414548;stroke-width:8;stroke-linecap:square;stroke-miterlimit:10;}
	.st3{fill:#414548;}
	.st4{fill:#F08921;}
	.st5{fill:#6CB2E2;}
	.st6{fill:#FFFFFF;}
	.st7{fill:none;stroke:#FFFFFF;stroke-width:4;stroke-miterlimit:10;}
</style>
<rect x="600" class="st0" width="169.2" height="169.2"/>
<rect x="400" class="st1" width="169.2" height="169.2"/>
<line class="st2" x1="174.7" y1="84.6" x2="189" y2="84.6"/>
<polygon class="st3" points="187,92.5 200.8,84.5 187,76.5 "/>
<rect class="st4" width="170.3" height="170.3"/>
<g>
	<rect x="200" class="st5" width="168.9" height="168.9"/>
</g>
<line class="st2" x1="574.2" y1="82.6" x2="588.5" y2="82.6"/>
<polygon class="st3" points="586.5,90.5 600.3,82.5 586.5,74.5 "/>
<g>
	<path class="st6" d="M42.2,130.5h2.7v1.9c0.3-0.7,0.7-1.2,1.1-1.6c0.5-0.4,1.1-0.6,1.9-0.5v2.9h-0.1c-0.9,0-1.6,0.3-2.2,0.8
		c-0.5,0.6-0.8,1.4-0.8,2.6v3.6h-2.7L42.2,130.5L42.2,130.5z"/>
	<path class="st6" d="M54.3,140.4c-0.7,0-1.4-0.1-2-0.4c-0.6-0.2-1.2-0.6-1.6-1s-0.8-1-1.1-1.6s-0.4-1.3-0.4-2l0,0
		c0-0.7,0.1-1.3,0.4-1.9s0.6-1.1,1-1.6s0.9-0.8,1.5-1.1s1.2-0.4,1.9-0.4c0.8,0,1.5,0.1,2.1,0.4s1.1,0.7,1.5,1.2s0.7,1,0.9,1.7
		s0.3,1.3,0.3,2c0,0.1,0,0.2,0,0.3s0,0.2,0,0.4h-6.7c0.1,0.6,0.4,1.1,0.8,1.4c0.4,0.3,0.9,0.5,1.5,0.5c0.5,0,0.9-0.1,1.2-0.2
		c0.4-0.2,0.7-0.4,1.1-0.8l1.6,1.4c-0.5,0.6-1,1-1.7,1.3C55.9,140.2,55.1,140.4,54.3,140.4z M56,134.6c-0.1-0.6-0.3-1.1-0.6-1.5
		s-0.8-0.6-1.4-0.6c-0.6,0-1,0.2-1.4,0.6c-0.4,0.4-0.6,0.9-0.7,1.5H56z"/>
	<path class="st6" d="M60.7,130.5h2.7v1.4c0.2-0.2,0.3-0.4,0.5-0.6c0.2-0.2,0.4-0.4,0.6-0.5s0.5-0.3,0.8-0.3
		c0.3-0.1,0.6-0.1,0.9-0.1c0.6,0,1.2,0.1,1.6,0.4c0.5,0.3,0.8,0.6,1.1,1.1c0.4-0.5,0.9-0.9,1.4-1.2s1.1-0.4,1.8-0.4
		c1,0,1.8,0.3,2.4,0.9c0.6,0.6,0.9,1.5,0.9,2.6v6.3h-2.7v-5.4c0-0.6-0.1-1.1-0.4-1.5s-0.7-0.5-1.2-0.5s-0.9,0.2-1.2,0.5
		c-0.3,0.3-0.4,0.8-0.4,1.5v5.4h-2.7v-5.4c0-0.6-0.1-1.1-0.4-1.5c-0.3-0.3-0.7-0.5-1.2-0.5s-0.9,0.2-1.2,0.5s-0.4,0.8-0.4,1.5v5.4
		h-2.7v-9.6H60.7z"/>
	<path class="st6" d="M82.4,140.4c-0.7,0-1.4-0.1-2-0.4c-0.6-0.2-1.2-0.6-1.6-1s-0.8-1-1.1-1.6c-0.3-0.6-0.4-1.3-0.4-2l0,0
		c0-0.7,0.1-1.3,0.4-1.9s0.6-1.1,1-1.6s0.9-0.8,1.5-1.1s1.2-0.4,1.9-0.4c0.8,0,1.5,0.1,2.1,0.4s1.1,0.7,1.5,1.2s0.7,1,0.9,1.7
		s0.3,1.3,0.3,2c0,0.1,0,0.2,0,0.3s0,0.2,0,0.4h-6.7c0.1,0.6,0.4,1.1,0.8,1.4c0.4,0.3,0.9,0.5,1.5,0.5c0.5,0,0.9-0.1,1.2-0.2
		c0.4-0.2,0.7-0.4,1.1-0.8l1.6,1.4c-0.5,0.6-1,1-1.7,1.3C84,140.2,83.3,140.4,82.4,140.4z M84.2,134.6c-0.1-0.6-0.3-1.1-0.6-1.5
		c-0.3-0.4-0.8-0.6-1.4-0.6s-1,0.2-1.4,0.6c-0.4,0.4-0.6,0.9-0.7,1.5H84.2z"/>
	<path class="st6" d="M92.8,140.4c-0.6,0-1.1-0.1-1.6-0.3s-1-0.5-1.4-1c-0.4-0.4-0.7-0.9-1-1.6c-0.2-0.6-0.4-1.3-0.4-2.1l0,0
		c0-0.8,0.1-1.5,0.4-2.1c0.2-0.6,0.6-1.1,1-1.6c0.4-0.4,0.9-0.7,1.4-1c0.5-0.2,1.1-0.3,1.7-0.3c0.7,0,1.3,0.1,1.8,0.4
		c0.5,0.3,0.9,0.6,1.2,1V127h2.7v13.1h-2.7v-1.4c-0.3,0.5-0.7,0.8-1.2,1.1C94.1,140.2,93.5,140.4,92.8,140.4z M93.5,138
		c0.3,0,0.6-0.1,0.9-0.2c0.3-0.1,0.5-0.3,0.7-0.5s0.4-0.5,0.5-0.8s0.2-0.7,0.2-1.1l0,0c0-0.4-0.1-0.8-0.2-1.1s-0.3-0.6-0.5-0.8
		s-0.5-0.4-0.7-0.5c-0.3-0.1-0.6-0.2-0.9-0.2s-0.6,0.1-0.9,0.2c-0.3,0.1-0.5,0.3-0.7,0.5s-0.4,0.5-0.5,0.8s-0.2,0.7-0.2,1.1l0,0
		c0,0.4,0.1,0.8,0.2,1.1s0.3,0.6,0.5,0.8s0.5,0.4,0.7,0.5C92.9,138,93.2,138,93.5,138z"/>
	<path class="st6" d="M101.1,127h2.9v2.4h-2.9V127z M101.1,130.5h2.7v9.6h-2.7V130.5z"/>
	<path class="st6" d="M109.2,140.4c-0.5,0-0.9-0.1-1.3-0.2s-0.8-0.3-1.1-0.6c-0.3-0.3-0.5-0.6-0.7-0.9c-0.2-0.4-0.3-0.8-0.3-1.3l0,0
		c0-0.5,0.1-1,0.3-1.4c0.2-0.4,0.5-0.7,0.8-1s0.8-0.4,1.2-0.6c0.5-0.1,1-0.2,1.6-0.2c0.5,0,0.9,0,1.3,0.1s0.7,0.2,1.1,0.3v-0.2
		c0-0.6-0.2-1-0.5-1.3s-0.9-0.5-1.5-0.5c-0.5,0-1,0-1.4,0.1s-0.8,0.2-1.3,0.4l-0.7-2.1c0.5-0.2,1.1-0.4,1.7-0.6
		c0.6-0.1,1.3-0.2,2.1-0.2c0.8,0,1.4,0.1,1.9,0.3s1,0.5,1.3,0.8c0.4,0.4,0.6,0.8,0.8,1.3s0.3,1.1,0.3,1.8v5.6h-2.6v-1
		c-0.3,0.4-0.7,0.7-1.2,0.9C110.4,140.3,109.8,140.4,109.2,140.4z M110,138.5c0.6,0,1.2-0.2,1.6-0.5s0.6-0.7,0.6-1.2v-0.5
		c-0.2-0.1-0.5-0.2-0.8-0.3s-0.6-0.1-0.9-0.1c-0.6,0-1.1,0.1-1.4,0.3s-0.5,0.6-0.5,1l0,0c0,0.4,0.1,0.7,0.4,0.9
		C109.2,138.4,109.6,138.5,110,138.5z"/>
	<path class="st6" d="M120.3,140.3c-0.4,0-0.8,0-1.1-0.1c-0.3-0.1-0.6-0.2-0.9-0.5c-0.2-0.2-0.4-0.5-0.6-0.9s-0.2-0.8-0.2-1.4v-4.6
		h-1.2v-2.3h1.2V128h2.7v2.5h2.3v2.3h-2.3v4.1c0,0.6,0.3,0.9,0.9,0.9c0.5,0,0.9-0.1,1.4-0.4v2.2c-0.3,0.2-0.6,0.3-1,0.4
		C121.2,140.3,120.8,140.3,120.3,140.3z"/>
	<path class="st6" d="M129.1,140.4c-0.7,0-1.4-0.1-2-0.4c-0.6-0.2-1.2-0.6-1.6-1s-0.8-1-1.1-1.6c-0.3-0.6-0.4-1.3-0.4-2l0,0
		c0-0.7,0.1-1.3,0.4-1.9s0.6-1.1,1-1.6s0.9-0.8,1.5-1.1s1.2-0.4,1.9-0.4c0.8,0,1.5,0.1,2.1,0.4s1.1,0.7,1.5,1.2s0.7,1,0.9,1.7
		s0.3,1.3,0.3,2c0,0.1,0,0.2,0,0.3s0,0.2,0,0.4h-6.7c0.1,0.6,0.4,1.1,0.8,1.4c0.4,0.3,0.9,0.5,1.5,0.5c0.5,0,0.9-0.1,1.2-0.2
		c0.4-0.2,0.7-0.4,1.1-0.8l1.6,1.4c-0.5,0.6-1,1-1.7,1.3C130.8,140.2,130,140.4,129.1,140.4z M130.9,134.6c-0.1-0.6-0.3-1.1-0.6-1.5
		s-0.8-0.6-1.4-0.6c-0.6,0-1,0.2-1.4,0.6c-0.4,0.4-0.6,0.9-0.7,1.5H130.9z"/>
	<path class="st6" d="M59,148.6h2.7v13.1H59V148.6z"/>
	<path class="st6" d="M69,162c-0.7,0-1.4-0.1-2.1-0.4c-0.6-0.3-1.2-0.6-1.6-1.1c-0.5-0.5-0.8-1-1.1-1.6s-0.4-1.3-0.4-2l0,0
		c0-0.7,0.1-1.3,0.4-2s0.6-1.1,1.1-1.6s1-0.8,1.7-1.1c0.6-0.3,1.3-0.4,2.1-0.4c0.7,0,1.4,0.1,2.1,0.4c0.6,0.3,1.2,0.6,1.6,1.1
		c0.5,0.4,0.8,1,1.1,1.6c0.3,0.6,0.4,1.3,0.4,2l0,0c0,0.7-0.1,1.3-0.4,2c-0.3,0.6-0.6,1.1-1.1,1.6s-1,0.8-1.7,1.1
		C70.5,161.9,69.8,162,69,162z M69.1,159.6c0.4,0,0.7-0.1,1.1-0.2c0.3-0.1,0.6-0.3,0.8-0.6c0.2-0.2,0.4-0.5,0.5-0.8s0.2-0.7,0.2-1
		l0,0c0-0.4-0.1-0.7-0.2-1s-0.3-0.6-0.5-0.8s-0.5-0.4-0.8-0.6s-0.7-0.2-1-0.2c-0.4,0-0.7,0.1-1.1,0.2c-0.3,0.1-0.6,0.3-0.8,0.6
		c-0.2,0.2-0.4,0.5-0.5,0.8s-0.2,0.7-0.2,1l0,0c0,0.4,0.1,0.7,0.2,1s0.3,0.6,0.5,0.8s0.5,0.4,0.8,0.6S68.7,159.6,69.1,159.6z"/>
	<path class="st6" d="M80.8,162c-0.7,0-1.4-0.1-2-0.4c-0.6-0.3-1.1-0.6-1.6-1.1c-0.4-0.5-0.8-1-1-1.6c-0.3-0.6-0.4-1.3-0.4-1.9l0,0
		c0-0.7,0.1-1.3,0.4-1.9c0.3-0.6,0.6-1.1,1-1.6s1-0.8,1.6-1.1s1.3-0.4,2-0.4c0.9,0,1.7,0.1,2.3,0.4s1.1,0.7,1.6,1.2l-1.7,1.8
		c-0.3-0.3-0.6-0.6-1-0.8c-0.3-0.2-0.7-0.3-1.2-0.3c-0.3,0-0.7,0.1-0.9,0.2c-0.3,0.1-0.5,0.3-0.7,0.6c-0.2,0.2-0.4,0.5-0.5,0.8
		s-0.2,0.7-0.2,1l0,0c0,0.4,0.1,0.7,0.2,1s0.3,0.6,0.5,0.8s0.5,0.4,0.8,0.6c0.3,0.1,0.6,0.2,1,0.2c0.5,0,0.9-0.1,1.2-0.3
		c0.3-0.2,0.7-0.4,1-0.7l1.6,1.6c-0.5,0.5-1,0.9-1.6,1.3C82.6,161.8,81.8,162,80.8,162z"/>
	<path class="st6" d="M89.3,162c-0.5,0-0.9-0.1-1.3-0.2s-0.8-0.3-1.1-0.6c-0.3-0.3-0.5-0.6-0.7-0.9c-0.2-0.4-0.3-0.8-0.3-1.3l0,0
		c0-0.5,0.1-1,0.3-1.4c0.2-0.4,0.5-0.7,0.8-1s0.8-0.4,1.2-0.6c0.5-0.1,1-0.2,1.6-0.2c0.5,0,0.9,0,1.3,0.1s0.7,0.2,1.1,0.3V156
		c0-0.6-0.2-1-0.5-1.3s-0.9-0.5-1.5-0.5c-0.5,0-1,0-1.4,0.1s-0.8,0.2-1.3,0.4l-0.7-2.1c0.5-0.2,1.1-0.4,1.7-0.6
		c0.6-0.1,1.3-0.2,2.1-0.2c0.8,0,1.4,0.1,1.9,0.3s1,0.5,1.3,0.8c0.4,0.4,0.6,0.8,0.8,1.3s0.3,1.1,0.3,1.8v5.6h-2.6v-1
		c-0.3,0.4-0.7,0.7-1.2,0.9C90.5,161.9,90,162,89.3,162z M90.1,160.1c0.6,0,1.2-0.2,1.6-0.5s0.6-0.7,0.6-1.2v-0.5
		c-0.2-0.1-0.5-0.2-0.8-0.3s-0.6-0.1-0.9-0.1c-0.6,0-1.1,0.1-1.4,0.3s-0.5,0.6-0.5,1l0,0c0,0.4,0.1,0.7,0.4,0.9
		C89.3,160,89.7,160.1,90.1,160.1z"/>
	<path class="st6" d="M97.3,148.6h2.7v13.1h-2.7V148.6z"/>
	<path class="st6" d="M102.8,148.6h2.7v13.1h-2.7V148.6z"/>
	<path class="st6" d="M110.4,164.7c-0.5,0-0.9-0.1-1.3-0.2c-0.4-0.1-0.8-0.3-1.1-0.5l0.9-2c0.2,0.1,0.4,0.2,0.6,0.3s0.4,0.1,0.6,0.1
		s0.4,0,0.6-0.1c0.1-0.1,0.3-0.3,0.4-0.5l-3.8-9.7h2.9l2.2,6.6l2.1-6.6h2.8l-3.7,9.9c-0.2,0.5-0.4,0.9-0.6,1.3
		c-0.2,0.3-0.4,0.6-0.7,0.8c-0.2,0.2-0.5,0.4-0.8,0.5C111.1,164.7,110.8,164.7,110.4,164.7z"/>
</g>
<line class="st2" x1="373.9" y1="83.6" x2="388.2" y2="83.6"/>
<polygon class="st3" points="386.2,91.5 400,83.5 386.2,75.5 "/>
<g>
	<path class="st6" d="M257.1,140.4c-1,0-1.9-0.3-2.4-1c-0.6-0.6-0.9-1.5-0.9-2.6v-6.2h2.7v5.4c0,0.6,0.1,1.1,0.4,1.5
		s0.7,0.5,1.2,0.5s0.9-0.2,1.3-0.5c0.3-0.3,0.5-0.8,0.5-1.5v-5.4h2.7v9.6h-2.7v-1.4c-0.2,0.2-0.3,0.4-0.5,0.6
		c-0.2,0.2-0.4,0.4-0.6,0.5s-0.5,0.3-0.8,0.3C257.8,140.3,257.5,140.4,257.1,140.4z"/>
	<path class="st6" d="M265.1,130.5h2.7v1.4c0.3-0.5,0.7-0.8,1.2-1.1s1.1-0.4,1.8-0.4c0.6,0,1.1,0.1,1.6,0.3s1,0.5,1.4,1
		c0.4,0.4,0.7,0.9,1,1.6c0.2,0.6,0.4,1.3,0.4,2.1l0,0c0,0.8-0.1,1.5-0.4,2.1s-0.6,1.1-1,1.6c-0.4,0.4-0.9,0.7-1.4,1
		s-1.1,0.3-1.7,0.3c-0.7,0-1.3-0.1-1.8-0.4c-0.5-0.3-0.9-0.6-1.2-1v4.1H265v-12.6H265.1z M270.2,138c0.3,0,0.6-0.1,0.9-0.2
		c0.3-0.1,0.5-0.3,0.7-0.5s0.4-0.5,0.5-0.8s0.2-0.7,0.2-1.1l0,0c0-0.4-0.1-0.8-0.2-1.1s-0.3-0.6-0.5-0.8s-0.5-0.4-0.7-0.5
		c-0.3-0.1-0.6-0.2-0.9-0.2s-0.6,0.1-0.9,0.2c-0.3,0.1-0.5,0.3-0.7,0.5s-0.4,0.5-0.5,0.8s-0.2,0.7-0.2,1.1l0,0
		c0,0.4,0.1,0.8,0.2,1.1s0.3,0.6,0.5,0.8s0.5,0.4,0.7,0.5C269.5,138,269.8,138,270.2,138z"/>
	<path class="st6" d="M277.4,127h2.7v13.1h-2.7V127z"/>
	<path class="st6" d="M287.4,140.4c-0.7,0-1.4-0.1-2.1-0.4c-0.6-0.3-1.2-0.6-1.6-1.1c-0.5-0.5-0.8-1-1.1-1.6c-0.3-0.6-0.4-1.3-0.4-2
		l0,0c0-0.7,0.1-1.3,0.4-2c0.3-0.6,0.6-1.1,1.1-1.6s1-0.8,1.7-1.1c0.6-0.3,1.3-0.4,2.1-0.4c0.7,0,1.4,0.1,2.1,0.4
		c0.6,0.3,1.2,0.6,1.6,1.1c0.5,0.4,0.8,1,1.1,1.6s0.4,1.3,0.4,2l0,0c0,0.7-0.1,1.3-0.4,2s-0.6,1.1-1.1,1.6s-1,0.8-1.7,1.1
		C288.9,140.3,288.2,140.4,287.4,140.4z M287.5,138c0.4,0,0.7-0.1,1.1-0.2c0.3-0.1,0.6-0.3,0.8-0.6c0.2-0.2,0.4-0.5,0.5-0.8
		s0.2-0.7,0.2-1l0,0c0-0.4-0.1-0.7-0.2-1s-0.3-0.6-0.5-0.8s-0.5-0.4-0.8-0.6s-0.7-0.2-1-0.2c-0.4,0-0.7,0.1-1.1,0.2
		c-0.3,0.1-0.6,0.3-0.8,0.6c-0.2,0.2-0.4,0.5-0.5,0.8s-0.2,0.7-0.2,1l0,0c0,0.4,0.1,0.7,0.2,1s0.3,0.6,0.5,0.8s0.5,0.4,0.8,0.6
		C286.7,138,287.1,138,287.5,138z"/>
	<path class="st6" d="M297.4,140.4c-0.5,0-0.9-0.1-1.3-0.2s-0.8-0.3-1.1-0.6s-0.5-0.6-0.7-0.9s-0.3-0.8-0.3-1.3l0,0
		c0-0.5,0.1-1,0.3-1.4c0.2-0.4,0.5-0.7,0.8-1s0.7-0.4,1.2-0.6c0.5-0.1,1-0.2,1.6-0.2c0.5,0,0.9,0,1.3,0.1s0.7,0.2,1.1,0.3v-0.2
		c0-0.6-0.2-1-0.5-1.3s-0.9-0.5-1.5-0.5c-0.5,0-1,0-1.4,0.1s-0.8,0.2-1.3,0.4l-0.7-2.1c0.5-0.2,1.1-0.4,1.7-0.6s1.3-0.2,2.1-0.2
		c0.8,0,1.4,0.1,1.9,0.3s1,0.5,1.3,0.8c0.4,0.4,0.6,0.8,0.8,1.3s0.3,1.1,0.3,1.8v5.6h-2.6v-1c-0.3,0.4-0.7,0.7-1.2,0.9
		C298.6,140.3,298.1,140.4,297.4,140.4z M298.2,138.5c0.6,0,1.2-0.2,1.6-0.5s0.6-0.7,0.6-1.2v-0.5c-0.2-0.1-0.5-0.2-0.8-0.3
		s-0.6-0.1-0.9-0.1c-0.6,0-1,0.1-1.4,0.3s-0.5,0.6-0.5,1l0,0c0,0.4,0.1,0.7,0.4,0.9C297.4,138.4,297.8,138.5,298.2,138.5z"/>
	<path class="st6" d="M309.3,140.4c-0.6,0-1.1-0.1-1.6-0.3s-1-0.5-1.4-1c-0.4-0.4-0.7-0.9-1-1.6s-0.4-1.3-0.4-2.1l0,0
		c0-0.8,0.1-1.5,0.4-2.1c0.2-0.6,0.6-1.1,1-1.6c0.4-0.4,0.9-0.7,1.4-1c0.5-0.2,1.1-0.3,1.7-0.3c0.7,0,1.3,0.1,1.8,0.4
		c0.5,0.3,0.9,0.6,1.2,1V127h2.7v13.1h-2.7v-1.4c-0.3,0.5-0.7,0.8-1.2,1.1C310.6,140.2,310,140.4,309.3,140.4z M310,138
		c0.3,0,0.6-0.1,0.9-0.2s0.5-0.3,0.7-0.5s0.4-0.5,0.5-0.8s0.2-0.7,0.2-1.1l0,0c0-0.4-0.1-0.8-0.2-1.1s-0.3-0.6-0.5-0.8
		s-0.5-0.4-0.7-0.5s-0.6-0.2-0.9-0.2s-0.6,0.1-0.9,0.2c-0.3,0.1-0.5,0.3-0.7,0.5s-0.4,0.5-0.5,0.8s-0.2,0.7-0.2,1.1l0,0
		c0,0.4,0.1,0.8,0.2,1.1s0.3,0.6,0.5,0.8s0.5,0.4,0.7,0.5C309.3,138,309.7,138,310,138z"/>
	<path class="st6" d="M239.9,162c-0.7,0-1.4-0.1-2-0.4c-0.6-0.3-1.1-0.6-1.6-1.1c-0.4-0.5-0.8-1-1-1.6s-0.4-1.3-0.4-1.9l0,0
		c0-0.7,0.1-1.3,0.4-1.9s0.6-1.1,1-1.6s1-0.8,1.6-1.1s1.3-0.4,2-0.4c0.9,0,1.7,0.1,2.3,0.4c0.6,0.3,1.1,0.7,1.6,1.2l-1.7,1.8
		c-0.3-0.3-0.6-0.6-1-0.8c-0.3-0.2-0.7-0.3-1.2-0.3c-0.3,0-0.7,0.1-0.9,0.2c-0.3,0.1-0.5,0.3-0.7,0.6c-0.2,0.2-0.4,0.5-0.5,0.8
		s-0.2,0.7-0.2,1l0,0c0,0.4,0.1,0.7,0.2,1c0.1,0.3,0.3,0.6,0.5,0.8s0.5,0.4,0.8,0.6c0.3,0.1,0.6,0.2,1,0.2c0.5,0,0.9-0.1,1.2-0.3
		s0.7-0.4,1-0.7l1.6,1.6c-0.5,0.5-1,0.9-1.6,1.3C241.7,161.8,240.9,162,239.9,162z"/>
	<path class="st6" d="M250.4,162c-0.7,0-1.4-0.1-2.1-0.4c-0.6-0.3-1.2-0.6-1.6-1.1c-0.5-0.5-0.8-1-1.1-1.6s-0.4-1.3-0.4-2l0,0
		c0-0.7,0.1-1.3,0.4-2c0.3-0.6,0.6-1.1,1.1-1.6s1-0.8,1.7-1.1c0.6-0.3,1.3-0.4,2.1-0.4c0.7,0,1.4,0.1,2.1,0.4
		c0.6,0.3,1.2,0.6,1.6,1.1c0.5,0.4,0.8,1,1.1,1.6s0.4,1.3,0.4,2l0,0c0,0.7-0.1,1.3-0.4,2c-0.3,0.6-0.6,1.1-1.1,1.6s-1,0.8-1.7,1.1
		C251.9,161.9,251.2,162,250.4,162z M250.4,159.6c0.4,0,0.7-0.1,1.1-0.2c0.3-0.1,0.6-0.3,0.8-0.6c0.2-0.2,0.4-0.5,0.5-0.8
		s0.2-0.7,0.2-1l0,0c0-0.4-0.1-0.7-0.2-1c-0.1-0.3-0.3-0.6-0.5-0.8s-0.5-0.4-0.8-0.6c-0.3-0.1-0.7-0.2-1-0.2c-0.4,0-0.7,0.1-1.1,0.2
		c-0.3,0.1-0.6,0.3-0.8,0.6c-0.2,0.2-0.4,0.5-0.5,0.8s-0.2,0.7-0.2,1l0,0c0,0.4,0.1,0.7,0.2,1c0.1,0.3,0.3,0.6,0.5,0.8
		s0.5,0.4,0.8,0.6C249.7,159.6,250.1,159.6,250.4,159.6z"/>
	<path class="st6" d="M262.4,162c-0.7,0-1.4-0.1-2.1-0.4c-0.6-0.3-1.2-0.6-1.6-1.1c-0.5-0.5-0.8-1-1.1-1.6c-0.3-0.6-0.4-1.3-0.4-2
		l0,0c0-0.7,0.1-1.3,0.4-2c0.3-0.6,0.6-1.1,1.1-1.6s1-0.8,1.7-1.1c0.6-0.3,1.3-0.4,2.1-0.4c0.7,0,1.4,0.1,2.1,0.4
		c0.6,0.3,1.2,0.6,1.6,1.1c0.5,0.4,0.8,1,1.1,1.6c0.3,0.6,0.4,1.3,0.4,2l0,0c0,0.7-0.1,1.3-0.4,2c-0.3,0.6-0.6,1.1-1.1,1.6
		s-1,0.8-1.7,1.1C263.8,161.9,263.1,162,262.4,162z M262.4,159.6c0.4,0,0.7-0.1,1.1-0.2c0.3-0.1,0.6-0.3,0.8-0.6
		c0.2-0.2,0.4-0.5,0.5-0.8s0.2-0.7,0.2-1l0,0c0-0.4-0.1-0.7-0.2-1s-0.3-0.6-0.5-0.8s-0.5-0.4-0.8-0.6c-0.3-0.1-0.7-0.2-1-0.2
		c-0.4,0-0.7,0.1-1.1,0.2c-0.3,0.1-0.6,0.3-0.8,0.6c-0.2,0.2-0.4,0.5-0.5,0.8s-0.2,0.7-0.2,1l0,0c0,0.4,0.1,0.7,0.2,1
		s0.3,0.6,0.5,0.8s0.5,0.4,0.8,0.6C261.7,159.6,262,159.6,262.4,159.6z"/>
	<path class="st6" d="M269.6,148.6h2.7v7l3.2-3.5h3.3l-3.7,3.8l3.8,5.9h-3.1l-2.5-3.9l-1,1v2.9h-2.7L269.6,148.6L269.6,148.6z"/>
	<path class="st6" d="M286,162c-0.7,0-1.3-0.1-1.8-0.4c-0.5-0.3-0.9-0.6-1.2-1v1.3h-2.7v-13.1h2.7v4.9c0.3-0.5,0.7-0.8,1.2-1.1
		s1.1-0.4,1.8-0.4c0.6,0,1.1,0.1,1.6,0.3s1,0.5,1.4,1c0.4,0.4,0.7,0.9,1,1.6c0.2,0.6,0.4,1.3,0.4,2.1l0,0c0,0.8-0.1,1.5-0.4,2.1
		c-0.2,0.6-0.6,1.1-1,1.6c-0.4,0.4-0.9,0.7-1.4,1S286.5,162,286,162z M285.3,159.6c0.3,0,0.6-0.1,0.9-0.2s0.5-0.3,0.7-0.5
		s0.4-0.5,0.5-0.8s0.2-0.7,0.2-1.1l0,0c0-0.4-0.1-0.8-0.2-1.1s-0.3-0.6-0.5-0.8s-0.5-0.4-0.7-0.5s-0.6-0.2-0.9-0.2s-0.6,0.1-0.9,0.2
		c-0.3,0.1-0.5,0.3-0.7,0.5s-0.4,0.5-0.5,0.8s-0.2,0.7-0.2,1.1l0,0c0,0.4,0.1,0.8,0.2,1.1s0.3,0.6,0.5,0.8s0.5,0.4,0.7,0.5
		C284.6,159.6,284.9,159.6,285.3,159.6z"/>
	<path class="st6" d="M297.1,162c-0.7,0-1.4-0.1-2.1-0.4s-1.2-0.6-1.6-1.1c-0.5-0.5-0.8-1-1.1-1.6c-0.3-0.6-0.4-1.3-0.4-2l0,0
		c0-0.7,0.1-1.3,0.4-2c0.3-0.6,0.6-1.1,1.1-1.6s1-0.8,1.7-1.1c0.6-0.3,1.3-0.4,2.1-0.4c0.7,0,1.4,0.1,2.1,0.4
		c0.6,0.3,1.2,0.6,1.6,1.1c0.5,0.4,0.8,1,1.1,1.6s0.4,1.3,0.4,2l0,0c0,0.7-0.1,1.3-0.4,2s-0.6,1.1-1.1,1.6s-1,0.8-1.7,1.1
		C298.6,161.9,297.9,162,297.1,162z M297.2,159.6c0.4,0,0.7-0.1,1.1-0.2c0.3-0.1,0.6-0.3,0.8-0.6c0.2-0.2,0.4-0.5,0.5-0.8
		s0.2-0.7,0.2-1l0,0c0-0.4-0.1-0.7-0.2-1s-0.3-0.6-0.5-0.8s-0.5-0.4-0.8-0.6c-0.3-0.1-0.7-0.2-1-0.2c-0.4,0-0.7,0.1-1.1,0.2
		c-0.3,0.1-0.6,0.3-0.8,0.6c-0.2,0.2-0.4,0.5-0.5,0.8s-0.2,0.7-0.2,1l0,0c0,0.4,0.1,0.7,0.2,1s0.3,0.6,0.5,0.8s0.5,0.4,0.8,0.6
		S296.8,159.6,297.2,159.6z"/>
	<path class="st6" d="M309.1,162c-0.7,0-1.4-0.1-2.1-0.4s-1.2-0.6-1.6-1.1c-0.5-0.5-0.8-1-1.1-1.6c-0.3-0.6-0.4-1.3-0.4-2l0,0
		c0-0.7,0.1-1.3,0.4-2c0.3-0.6,0.6-1.1,1.1-1.6s1-0.8,1.7-1.1c0.6-0.3,1.3-0.4,2.1-0.4c0.7,0,1.4,0.1,2.1,0.4
		c0.6,0.3,1.2,0.6,1.6,1.1c0.5,0.4,0.8,1,1.1,1.6s0.4,1.3,0.4,2l0,0c0,0.7-0.1,1.3-0.4,2s-0.6,1.1-1.1,1.6s-1,0.8-1.7,1.1
		C310.5,161.9,309.8,162,309.1,162z M309.1,159.6c0.4,0,0.7-0.1,1.1-0.2c0.3-0.1,0.6-0.3,0.8-0.6c0.2-0.2,0.4-0.5,0.5-0.8
		s0.2-0.7,0.2-1l0,0c0-0.4-0.1-0.7-0.2-1s-0.3-0.6-0.5-0.8s-0.5-0.4-0.8-0.6c-0.3-0.1-0.7-0.2-1-0.2c-0.4,0-0.7,0.1-1.1,0.2
		c-0.3,0.1-0.6,0.3-0.8,0.6c-0.2,0.2-0.4,0.5-0.5,0.8s-0.2,0.7-0.2,1l0,0c0,0.4,0.1,0.7,0.2,1s0.3,0.6,0.5,0.8s0.5,0.4,0.8,0.6
		S308.7,159.6,309.1,159.6z"/>
	<path class="st6" d="M316.3,148.6h2.7v7l3.2-3.5h3.3l-3.7,3.8l3.8,5.9h-3.1l-2.5-3.9l-1,1v2.9h-2.7L316.3,148.6L316.3,148.6z"/>
	<path class="st6" d="M330.3,162c-0.7,0-1.4-0.1-2.1-0.4s-1.4-0.6-2-1.1l1.2-1.8c0.5,0.4,1.1,0.7,1.6,0.9s1,0.3,1.5,0.3
		c0.4,0,0.7-0.1,0.9-0.2c0.2-0.1,0.3-0.3,0.3-0.5l0,0c0-0.1-0.1-0.3-0.2-0.4s-0.3-0.2-0.4-0.3c-0.2-0.1-0.4-0.2-0.6-0.2
		c-0.2-0.1-0.5-0.1-0.8-0.2c-0.3-0.1-0.7-0.2-1-0.4c-0.3-0.1-0.7-0.3-0.9-0.5c-0.3-0.2-0.5-0.5-0.7-0.8s-0.3-0.7-0.3-1.2l0,0
		c0-0.5,0.1-0.9,0.3-1.3c0.2-0.4,0.4-0.7,0.8-1c0.3-0.3,0.7-0.5,1.1-0.6s0.9-0.2,1.4-0.2c0.6,0,1.2,0.1,1.9,0.3
		c0.6,0.2,1.2,0.5,1.7,0.8l-1,1.9c-0.5-0.3-0.9-0.5-1.4-0.7s-0.9-0.2-1.2-0.2c-0.3,0-0.6,0.1-0.8,0.2s-0.3,0.3-0.3,0.5l0,0
		c0,0.1,0.1,0.2,0.2,0.4s0.3,0.2,0.4,0.3c0.2,0.1,0.4,0.2,0.6,0.3s0.5,0.2,0.7,0.3c0.3,0.1,0.7,0.2,1,0.4c0.3,0.1,0.7,0.3,0.9,0.5
		s0.5,0.5,0.7,0.8s0.3,0.7,0.3,1.1l0,0c0,0.5-0.1,1-0.3,1.4c-0.2,0.4-0.4,0.7-0.8,1s-0.7,0.4-1.2,0.6
		C331.3,161.9,330.8,162,330.3,162z"/>
</g>
<g>
	<path class="st6" d="M419.3,143h2.7v1.9c0.3-0.7,0.7-1.2,1.1-1.6c0.5-0.4,1.1-0.6,1.9-0.5v2.9l0,0c-0.9,0-1.6,0.3-2.2,0.8
		c-0.5,0.6-0.8,1.4-0.8,2.6v3.6h-2.7V143z"/>
	<path class="st6" d="M430.1,152.8c-1,0-1.9-0.3-2.4-1c-0.6-0.6-0.9-1.5-0.9-2.6V143h2.7v5.4c0,0.6,0.1,1.1,0.4,1.5s0.7,0.5,1.2,0.5
		s0.9-0.2,1.3-0.5s0.5-0.8,0.5-1.5V143h2.7v9.6h-2.7v-1.4c-0.2,0.2-0.3,0.4-0.5,0.6c-0.2,0.2-0.4,0.4-0.6,0.5s-0.5,0.3-0.8,0.3
		C430.7,152.8,430.4,152.8,430.1,152.8z"/>
	<path class="st6" d="M438.1,143h2.7v1.4c0.2-0.2,0.3-0.4,0.5-0.6c0.2-0.2,0.4-0.4,0.6-0.5s0.5-0.3,0.8-0.3c0.3-0.1,0.6-0.1,0.9-0.1
		c1,0,1.9,0.3,2.4,1c0.6,0.6,0.9,1.5,0.9,2.6v6.2h-2.7v-5.4c0-0.6-0.1-1.1-0.4-1.5c-0.3-0.3-0.7-0.5-1.2-0.5s-0.9,0.2-1.3,0.5
		s-0.5,0.8-0.5,1.5v5.4h-2.7L438.1,143L438.1,143z"/>
	<path class="st6" d="M459.2,152.9c-0.7,0-1.4-0.1-2-0.4c-0.6-0.3-1.1-0.6-1.6-1.1c-0.4-0.5-0.8-1-1-1.6s-0.4-1.3-0.4-1.9l0,0
		c0-0.7,0.1-1.3,0.4-1.9s0.6-1.1,1-1.6s1-0.8,1.6-1.1s1.3-0.4,2-0.4c0.9,0,1.7,0.1,2.3,0.4c0.6,0.3,1.1,0.7,1.6,1.2l-1.7,1.8
		c-0.3-0.3-0.6-0.6-1-0.8c-0.3-0.2-0.7-0.3-1.2-0.3c-0.3,0-0.7,0.1-0.9,0.2c-0.3,0.1-0.5,0.3-0.7,0.6c-0.2,0.2-0.4,0.5-0.5,0.8
		s-0.2,0.7-0.2,1l0,0c0,0.4,0.1,0.7,0.2,1s0.3,0.6,0.5,0.8s0.5,0.4,0.8,0.6c0.3,0.1,0.6,0.2,1,0.2c0.5,0,0.9-0.1,1.2-0.3
		c0.3-0.2,0.7-0.4,1-0.7l1.6,1.6c-0.5,0.5-1,0.9-1.6,1.3C461,152.7,460.2,152.9,459.2,152.9z"/>
	<path class="st6" d="M465,139.5h2.7v4.9c0.2-0.2,0.3-0.4,0.5-0.6c0.2-0.2,0.4-0.4,0.6-0.5s0.5-0.3,0.8-0.3c0.3-0.1,0.6-0.1,0.9-0.1
		c1,0,1.9,0.3,2.4,1c0.6,0.6,0.9,1.5,0.9,2.6v6.2h-2.7v-5.4c0-0.6-0.1-1.1-0.4-1.5c-0.3-0.3-0.7-0.5-1.2-0.5s-0.9,0.2-1.3,0.5
		s-0.5,0.8-0.5,1.5v5.4H465V139.5z"/>
	<path class="st6" d="M480.8,152.9c-0.7,0-1.4-0.1-2-0.4s-1.2-0.6-1.6-1s-0.8-1-1.1-1.6c-0.3-0.6-0.4-1.3-0.4-2l0,0
		c0-0.7,0.1-1.3,0.4-1.9c0.2-0.6,0.6-1.1,1-1.6s0.9-0.8,1.5-1.1s1.2-0.4,1.9-0.4c0.8,0,1.5,0.1,2.1,0.4s1.1,0.7,1.5,1.2
		s0.7,1,0.9,1.7c0.2,0.6,0.3,1.3,0.3,2c0,0.1,0,0.2,0,0.3s0,0.2,0,0.4h-6.7c0.1,0.6,0.4,1.1,0.8,1.4c0.4,0.3,0.9,0.5,1.5,0.5
		c0.5,0,0.9-0.1,1.2-0.2c0.4-0.2,0.7-0.4,1.1-0.8l1.6,1.4c-0.5,0.6-1,1-1.7,1.3C482.4,152.7,481.6,152.9,480.8,152.9z M482.5,147.1
		c-0.1-0.6-0.3-1.1-0.6-1.5c-0.3-0.4-0.8-0.6-1.4-0.6s-1,0.2-1.4,0.6c-0.4,0.4-0.6,0.9-0.7,1.5H482.5z"/>
	<path class="st6" d="M487.7,145.4h-1.1v-2.2h1.1v-0.6c0-1,0.3-1.8,0.8-2.3s1.2-0.8,2.2-0.8c0.4,0,0.8,0,1.1,0.1s0.6,0.1,0.8,0.2
		v2.3c-0.2-0.1-0.4-0.1-0.6-0.2c-0.2,0-0.4-0.1-0.6-0.1c-0.7,0-1,0.3-1,1v0.4h2.2v2.2h-2.2v7.3h-2.7L487.7,145.4L487.7,145.4z"/>
	<path class="st6" d="M493.8,145.8h5.5v2.6h-5.5V145.8z"/>
	<path class="st6" d="M506,152.9c-0.7,0-1.4-0.1-2-0.4c-0.6-0.3-1.1-0.6-1.6-1.1c-0.4-0.5-0.8-1-1-1.6s-0.4-1.3-0.4-1.9l0,0
		c0-0.7,0.1-1.3,0.4-1.9s0.6-1.1,1-1.6s1-0.8,1.6-1.1s1.3-0.4,2-0.4c0.9,0,1.7,0.1,2.3,0.4c0.6,0.3,1.1,0.7,1.6,1.2l-1.7,1.8
		c-0.3-0.3-0.6-0.6-1-0.8c-0.3-0.2-0.7-0.3-1.2-0.3c-0.3,0-0.7,0.1-0.9,0.2c-0.3,0.1-0.5,0.3-0.7,0.6c-0.2,0.2-0.4,0.5-0.5,0.8
		s-0.2,0.7-0.2,1l0,0c0,0.4,0.1,0.7,0.2,1s0.3,0.6,0.5,0.8s0.5,0.4,0.8,0.6c0.3,0.1,0.6,0.2,1,0.2c0.5,0,0.9-0.1,1.2-0.3
		c0.3-0.2,0.7-0.4,1-0.7l1.6,1.6c-0.5,0.5-1,0.9-1.6,1.3C507.7,152.7,507,152.9,506,152.9z"/>
	<path class="st6" d="M511.8,139.5h2.7v13.1h-2.7V139.5z"/>
	<path class="st6" d="M517.2,139.5h2.9v2.4h-2.9V139.5z M517.3,143h2.7v9.6h-2.7V143z"/>
	<path class="st6" d="M527.2,152.9c-0.7,0-1.4-0.1-2-0.4s-1.2-0.6-1.6-1c-0.4-0.4-0.8-1-1.1-1.6s-0.4-1.3-0.4-2l0,0
		c0-0.7,0.1-1.3,0.4-1.9c0.2-0.6,0.6-1.1,1-1.6s0.9-0.8,1.5-1.1s1.2-0.4,1.9-0.4c0.8,0,1.5,0.1,2.1,0.4s1.1,0.7,1.5,1.2
		s0.7,1,0.9,1.7c0.2,0.6,0.3,1.3,0.3,2c0,0.1,0,0.2,0,0.3s0,0.2,0,0.4H525c0.1,0.6,0.4,1.1,0.8,1.4c0.4,0.3,0.9,0.5,1.5,0.5
		c0.5,0,0.9-0.1,1.2-0.2c0.4-0.2,0.7-0.4,1.1-0.8l1.6,1.4c-0.5,0.6-1,1-1.7,1.3C528.8,152.7,528,152.9,527.2,152.9z M528.9,147.1
		c-0.1-0.6-0.3-1.1-0.6-1.5s-0.8-0.6-1.4-0.6c-0.6,0-1,0.2-1.4,0.6c-0.4,0.4-0.6,0.9-0.7,1.5H528.9z"/>
	<path class="st6" d="M533.6,143h2.7v1.4c0.2-0.2,0.3-0.4,0.5-0.6c0.2-0.2,0.4-0.4,0.6-0.5c0.2-0.1,0.5-0.3,0.8-0.3
		c0.3-0.1,0.6-0.1,0.9-0.1c1,0,1.9,0.3,2.4,1c0.6,0.6,0.9,1.5,0.9,2.6v6.2h-2.7v-5.4c0-0.6-0.1-1.1-0.4-1.5
		c-0.3-0.3-0.7-0.5-1.2-0.5s-0.9,0.2-1.3,0.5s-0.5,0.8-0.5,1.5v5.4h-2.7V143z"/>
	<path class="st6" d="M548.1,152.8c-0.4,0-0.8,0-1.1-0.1s-0.6-0.2-0.9-0.5c-0.2-0.2-0.4-0.5-0.6-0.9s-0.2-0.8-0.2-1.4v-4.6h-1.2V143
		h1.2v-2.5h2.7v2.5h2.3v2.3H548v4.1c0,0.6,0.3,0.9,0.9,0.9c0.5,0,0.9-0.1,1.3-0.4v2.2c-0.3,0.2-0.6,0.3-1,0.4
		C549,152.8,548.5,152.8,548.1,152.8z"/>
</g>
<g>
	<path class="st6" d="M630.7,152.8c-0.7,0-1.4-0.1-2.1-0.4s-1.4-0.6-2-1.1l1.2-1.8c0.5,0.4,1.1,0.7,1.6,0.9s1,0.3,1.5,0.3
		c0.4,0,0.7-0.1,0.9-0.2c0.2-0.1,0.3-0.3,0.3-0.5l0,0c0-0.1-0.1-0.3-0.2-0.4s-0.3-0.2-0.4-0.3c-0.2-0.1-0.4-0.2-0.6-0.2
		c-0.2-0.1-0.5-0.1-0.8-0.2c-0.3-0.1-0.7-0.2-1-0.4c-0.3-0.1-0.7-0.3-0.9-0.5c-0.3-0.2-0.5-0.5-0.7-0.8s-0.3-0.7-0.3-1.2l0,0
		c0-0.5,0.1-0.9,0.3-1.3c0.2-0.4,0.4-0.7,0.8-1c0.3-0.3,0.7-0.5,1.1-0.6c0.4-0.1,0.9-0.2,1.4-0.2c0.6,0,1.2,0.1,1.9,0.3
		c0.6,0.2,1.2,0.5,1.7,0.8l-1,1.9c-0.5-0.3-0.9-0.5-1.4-0.7s-0.9-0.2-1.2-0.2s-0.6,0.1-0.8,0.2s-0.3,0.3-0.3,0.5l0,0
		c0,0.1,0.1,0.2,0.2,0.4s0.3,0.2,0.4,0.3c0.2,0.1,0.4,0.2,0.6,0.3c0.2,0.1,0.5,0.2,0.7,0.3c0.3,0.1,0.7,0.2,1,0.4
		c0.3,0.1,0.7,0.3,0.9,0.5s0.5,0.5,0.7,0.8s0.3,0.7,0.3,1.1l0,0c0,0.5-0.1,1-0.3,1.4s-0.4,0.7-0.8,1s-0.7,0.4-1.2,0.6
		C631.7,152.8,631.2,152.8,630.7,152.8z"/>
	<path class="st6" d="M640.9,152.9c-0.7,0-1.4-0.1-2-0.4c-0.6-0.3-1.1-0.6-1.6-1.1c-0.4-0.5-0.8-1-1-1.6s-0.4-1.3-0.4-1.9l0,0
		c0-0.7,0.1-1.3,0.4-1.9s0.6-1.1,1-1.6s1-0.8,1.6-1.1s1.3-0.4,2-0.4c0.9,0,1.7,0.1,2.3,0.4c0.6,0.3,1.1,0.7,1.6,1.2l-1.7,1.8
		c-0.3-0.3-0.6-0.6-1-0.8c-0.3-0.2-0.7-0.3-1.2-0.3c-0.3,0-0.7,0.1-0.9,0.2c-0.3,0.1-0.5,0.3-0.7,0.6c-0.2,0.2-0.4,0.5-0.5,0.8
		s-0.2,0.7-0.2,1l0,0c0,0.4,0.1,0.7,0.2,1c0.1,0.3,0.3,0.6,0.5,0.8s0.5,0.4,0.8,0.6c0.3,0.1,0.6,0.2,1,0.2c0.5,0,0.9-0.1,1.2-0.3
		s0.7-0.4,1-0.7l1.6,1.6c-0.5,0.5-1,0.9-1.6,1.3C642.7,152.7,641.9,152.9,640.9,152.9z"/>
	<path class="st6" d="M649.4,152.8c-0.5,0-0.9-0.1-1.3-0.2s-0.8-0.3-1.1-0.6s-0.5-0.6-0.7-0.9s-0.3-0.8-0.3-1.3l0,0
		c0-0.5,0.1-1,0.3-1.4s0.5-0.7,0.8-1s0.7-0.4,1.2-0.6c0.5-0.1,1-0.2,1.6-0.2c0.5,0,0.9,0,1.3,0.1c0.4,0.1,0.7,0.2,1.1,0.3v0
		c0-0.6-0.2-1-0.5-1.3s-0.9-0.5-1.5-0.5c-0.5,0-1,0-1.4,0.1s-0.8,0.2-1.3,0.4l-0.7-2.1c0.5-0.2,1.1-0.4,1.7-0.6s1.3-0.2,2.1-0.2
		s1.4,0.1,1.9,0.3s1,0.5,1.3,0.8c0.4,0.4,0.6,0.8,0.8,1.3s0.3,1.1,0.3,1.8v5.6h-2.6v-1c-0.3,0.4-0.7,0.7-1.2,0.9
		C650.6,152.7,650.1,152.8,649.4,152.8z M650.2,151c0.6,0,1.2-0.2,1.6-0.5c0.4-0.3,0.6-0.7,0.6-1.2v-0.5c-0.2-0.1-0.5-0.2-0.8-0.3
		s-0.6-0.1-0.9-0.1c-0.6,0-1,0.1-1.4,0.3s-0.5,0.6-0.5,1l0,0c0,0.4,0.1,0.7,0.4,0.9C649.4,150.8,649.8,151,650.2,151z"/>
	<path class="st6" d="M657.3,143h2.7v1.4c0.2-0.2,0.3-0.4,0.5-0.6c0.2-0.2,0.4-0.4,0.6-0.5c0.2-0.1,0.5-0.3,0.8-0.3
		c0.3-0.1,0.6-0.1,0.9-0.1c1,0,1.9,0.3,2.4,1c0.6,0.6,0.9,1.5,0.9,2.6v6.2h-2.7v-5.4c0-0.6-0.1-1.1-0.4-1.5
		c-0.3-0.3-0.7-0.5-1.2-0.5s-0.9,0.2-1.3,0.5s-0.5,0.8-0.5,1.5v5.4h-2.7V143z"/>
	<path class="st6" d="M681.2,151.4c-0.5,0.4-1.1,0.8-1.7,1c-0.6,0.3-1.3,0.4-2,0.4c-0.6,0-1.2-0.1-1.7-0.3s-1-0.4-1.3-0.7
		s-0.7-0.7-0.9-1.1c-0.2-0.4-0.3-0.9-0.3-1.5l0,0c0-0.8,0.2-1.5,0.6-2.1c0.4-0.6,1-1,1.8-1.4c-0.3-0.4-0.5-0.9-0.7-1.3
		c-0.1-0.4-0.2-0.8-0.2-1.3l0,0c0-0.4,0.1-0.8,0.3-1.2s0.4-0.7,0.7-1.1c0.3-0.3,0.7-0.6,1.2-0.7c0.5-0.2,1-0.3,1.6-0.3
		c0.5,0,1,0.1,1.5,0.2c0.4,0.2,0.8,0.4,1.1,0.7s0.6,0.6,0.7,1c0.2,0.4,0.3,0.8,0.3,1.2l0,0c0,0.4-0.1,0.8-0.2,1.1
		c-0.1,0.3-0.3,0.6-0.5,0.9c-0.2,0.3-0.5,0.5-0.8,0.7s-0.7,0.4-1.1,0.5l1.7,1.7c0.2-0.3,0.4-0.7,0.6-1c0.2-0.4,0.4-0.7,0.6-1.1
		l2,1.1c-0.2,0.4-0.5,0.9-0.8,1.4s-0.6,0.9-0.9,1.3l1.9,1.9l-2,1.4L681.2,151.4z M677.9,150.6c0.3,0,0.6-0.1,0.9-0.2
		c0.3-0.1,0.6-0.3,0.9-0.5l-2.4-2.4c-0.4,0.2-0.7,0.5-0.9,0.8s-0.3,0.6-0.3,0.9l0,0c0,0.4,0.2,0.8,0.5,1.1
		C676.9,150.4,677.3,150.6,677.9,150.6z M678.1,144.9c0.6-0.2,1-0.4,1.3-0.7s0.4-0.6,0.4-1l0,0c0-0.4-0.1-0.6-0.3-0.9
		s-0.5-0.3-0.9-0.3s-0.7,0.1-0.9,0.4c-0.2,0.2-0.3,0.5-0.3,0.9l0,0c0,0.3,0.1,0.5,0.2,0.8C677.7,144.3,677.9,144.6,678.1,144.9z"/>
	<path class="st6" d="M691,143h2.9l2.2,6.5l2.2-6.5h2.8l-3.8,9.7h-2.5L691,143z"/>
	<path class="st6" d="M707.2,152.9c-0.7,0-1.4-0.1-2-0.4s-1.2-0.6-1.6-1c-0.4-0.4-0.8-1-1.1-1.6s-0.4-1.3-0.4-2l0,0
		c0-0.7,0.1-1.3,0.4-1.9c0.2-0.6,0.6-1.1,1-1.6s0.9-0.8,1.5-1.1s1.2-0.4,1.9-0.4c0.8,0,1.5,0.1,2.1,0.4s1.1,0.7,1.5,1.2
		s0.7,1,0.9,1.7c0.2,0.6,0.3,1.3,0.3,2c0,0.1,0,0.2,0,0.3s0,0.2,0,0.4H705c0.1,0.6,0.4,1.1,0.8,1.4c0.4,0.3,0.9,0.5,1.5,0.5
		c0.5,0,0.9-0.1,1.2-0.2c0.4-0.2,0.7-0.4,1.1-0.8l1.6,1.4c-0.5,0.6-1,1-1.7,1.3C708.9,152.7,708.1,152.9,707.2,152.9z M709,147.1
		c-0.1-0.6-0.3-1.1-0.6-1.5s-0.8-0.6-1.4-0.6c-0.6,0-1,0.2-1.4,0.6c-0.4,0.4-0.6,0.9-0.7,1.5H709z"/>
	<path class="st6" d="M713.7,143h2.7v1.9c0.3-0.7,0.7-1.2,1.1-1.6c0.5-0.4,1.1-0.6,1.9-0.5v2.9h-0.1c-0.9,0-1.6,0.3-2.2,0.8
		c-0.5,0.6-0.8,1.4-0.8,2.6v3.6h-2.7L713.7,143L713.7,143z"/>
	<path class="st6" d="M721.3,139.5h2.9v2.4h-2.9V139.5z M721.3,143h2.7v9.6h-2.7V143z"/>
	<path class="st6" d="M727.1,145.4H726v-2.2h1.1v-0.6c0-1,0.3-1.8,0.8-2.3s1.2-0.8,2.2-0.8c0.4,0,0.8,0,1.1,0.1s0.6,0.1,0.8,0.2v2.3
		c-0.2-0.1-0.4-0.1-0.6-0.2c-0.2,0-0.4-0.1-0.6-0.1c-0.7,0-1,0.3-1,1v0.4h2.2v2.2h-2.2v7.3h-2.7V145.4z"/>
	<path class="st6" d="M735.8,155.6c-0.5,0-0.9-0.1-1.3-0.2c-0.4-0.1-0.8-0.3-1.1-0.5l0.9-2c0.2,0.1,0.4,0.2,0.6,0.3
		c0.2,0.1,0.4,0.1,0.6,0.1c0.2,0,0.4,0,0.6-0.1c0.1-0.1,0.3-0.3,0.4-0.5l-3.8-9.7h2.9l2.2,6.6l2.1-6.6h2.8l-3.7,9.9
		c-0.2,0.5-0.4,0.9-0.6,1.3c-0.2,0.3-0.4,0.6-0.7,0.8c-0.2,0.2-0.5,0.4-0.8,0.5C736.6,155.5,736.2,155.6,735.8,155.6z"/>
</g>
<g>
	<g>
		<path class="st6" d="M485.4,88.8c-9.7,0-17.6-7.9-17.6-17.6s7.9-17.6,17.6-17.6c8,0,14.8,5.4,16.9,12.7h6.8
			c-2.3-11-12-19.3-23.7-19.3c-13.3,0-24.2,10.9-24.2,24.2s10.9,24.2,24.2,24.2c11.7,0,21.4-8.3,23.7-19.3h-6.8
			C500.2,83.4,493.4,88.8,485.4,88.8"/>
		<path class="st6" d="M473.5,83.1c3,3,7.2,4.9,11.9,4.9v-7c-2.7,0-5.1-1.1-6.9-2.9L473.5,83.1z"/>
		<path class="st6" d="M468.6,71.2c0,2.4,0.5,4.7,1.4,6.8l6.4-2.8c-0.5-1.2-0.8-2.5-0.8-3.9c0-5.4,4.4-9.8,9.8-9.8v-7
			C476.1,54.4,468.6,62,468.6,71.2"/>
		<path class="st6" d="M491.5,55.6l-2.5,6.5c2.1,0.8,3.8,2.3,4.9,4.2h7.6C499.9,61.4,496.2,57.4,491.5,55.6"/>
		<path class="st6" d="M488.9,80.3l2.5,6.5c4.8-1.9,8.5-5.8,10-10.8h-7.6C492.7,78,491,79.5,488.9,80.3"/>
		<path class="st6" d="M454.3,80.6c-0.1-0.4-0.2-0.7-0.3-1.1c0,0,0,0,0-0.1c-0.1-0.3-0.2-0.7-0.3-1c0-0.1,0-0.1,0-0.2
			c-0.1-0.3-0.1-0.6-0.2-0.9c0-0.1,0-0.3-0.1-0.4c0-0.2-0.1-0.5-0.1-0.7s-0.1-0.4-0.1-0.6c-0.2-1.4-0.3-2.9-0.3-4.3h-6.6
			c0,1.6,0.1,3.2,0.3,4.7l0,0v0.1c0.1,0.4,0.1,0.8,0.2,1.3c0,0.1,0,0.2,0.1,0.3c0.1,0.3,0.1,0.7,0.2,1c0,0.2,0.1,0.4,0.1,0.5
			c0.1,0.3,0.1,0.5,0.2,0.8c0.1,0.2,0.1,0.5,0.2,0.7s0.1,0.4,0.2,0.6c0.1,0.3,0.2,0.6,0.2,0.8c0,0.1,0.1,0.2,0.1,0.3l0,0
			c0.5,1.5,1,3,1.6,4.4l6.1-2.7C455.2,83.1,454.7,81.8,454.3,80.6z"/>
		<path class="st6" d="M485.4,103.6c-8.9,0-17.1-3.6-22.9-9.5l-4.7,4.7c7.1,7.1,16.8,11.4,27.6,11.4c19.9,0,36.4-14.9,38.8-34.2
			h-6.7C515.1,91.7,501.6,103.6,485.4,103.6"/>
		<path class="st6" d="M485.4,38.8c7.3,0,14,2.4,19.4,6.5l4-5.3c-6.5-4.9-14.6-7.8-23.4-7.8c-16.6,0-30.7,10.3-36.4,24.9l6.2,2.4
			C459.9,47.4,471.6,38.8,485.4,38.8"/>
		<path class="st6" d="M517.5,66.3h6.7c-0.7-5.7-2.7-11.1-5.6-15.8L513,54C515.2,57.7,516.8,61.9,517.5,66.3"/>
		<path class="st6" d="M509.9,66.3h6.7c-1.8-11.3-9.5-20.6-19.8-24.6l-2.4,6.2C502.3,51,508.2,57.9,509.9,66.3"/>
		<path class="st6" d="M485.4,46.2L485.4,46.2v-6.6l0,0c-13.4,0-24.9,8.4-29.5,20.2l6.2,2.4C465.7,52.8,474.8,46.2,485.4,46.2"/>
		<path class="st6" d="M460.4,71.2L460.4,71.2h-6.6l0,0c0,13.3,8.2,24.7,19.9,29.4l2.5-6.1C466.9,90.7,460.4,81.7,460.4,71.2"/>
		<path class="st6" d="M485.4,96.2v6.6c15.8,0,28.9-11.6,31.2-26.7h-6.7C507.6,87.6,497.5,96.2,485.4,96.2"/>
	</g>
	<rect x="432" y="19" class="st7" width="105.2" height="104.7"/>
</g>
<g>
	<g>
		<g>
			<path class="st6" d="M315.4,47.7c0,0.8-0.3,1.7-0.8,2.4c-1.3,1.8-3.9,2.2-5.7,0.9l-24.5-17.8L259.9,51c-1.8,1.3-4.4,0.9-5.7-0.9
				s-0.9-4.4,0.9-5.7L282,24.8c1.4-1,3.4-1,4.8,0l26.9,19.6C314.9,45.2,315.4,46.4,315.4,47.7L315.4,47.7z"/>
		</g>
		<g>
			<path class="st6" d="M288.6,28.1v50.6c0,2.3-1.8,4.1-4.1,4.1c-2.3,0-4.1-1.8-4.1-4.1V28.1c0-2.3,1.8-4.1,4.1-4.1
				C286.7,24,288.6,25.9,288.6,28.1L288.6,28.1z"/>
		</g>
	</g>
	<g>
		<path class="st6" d="M331.9,112.8c0,2.3-1.8,4.1-4.1,4.1h-86.7c-2.3,0-4.1-1.8-4.1-4.1c0-2.3,1.8-4.1,4.1-4.1h86.8
			C330.1,108.7,331.9,110.6,331.9,112.8L331.9,112.8z"/>
	</g>
	<g>
		<g>
			<path class="st6" d="M331.9,58.3v54.5c0,2.3-1.8,4.1-4.1,4.1c-2.3,0-4.1-1.8-4.1-4.1V58.3c0-2.3,1.8-4.1,4.1-4.1
				S331.9,56,331.9,58.3L331.9,58.3z"/>
		</g>
		<g>
			<path class="st6" d="M245.2,58.3v54.5c0,2.3-1.8,4.1-4.1,4.1s-4.1-1.8-4.1-4.1V58.3c0-2.3,1.8-4.1,4.1-4.1
				C243.3,54.2,245.2,56,245.2,58.3L245.2,58.3z"/>
		</g>
	</g>
</g>
<g>
	<g>
		<path class="st6" d="M735.9,129.8H633.5c-2.3,0-4.7-2.3-4.7-4.7V23.8c0-2.3,2.3-4.7,4.7-4.7h102.5c2.3,0,4.7,2.3,4.7,4.7v100.7
			C740.6,127.5,738.9,129.8,735.9,129.8L735.9,129.8z M638.1,120.5h93.1V28.5h-93.1V120.5L638.1,120.5z"/>
	</g>
	<g>
		<g>
			<path class="st6" d="M680.9,96.5c-14.6,0-26.4-11.7-26.4-26.4s11.7-26.4,26.4-26.4c14.6,0,26.4,11.7,26.4,26.4
				S695.5,96.5,680.9,96.5L680.9,96.5z M680.9,49c-11.7,0-21.1,9.4-21.1,21.1s9.4,21.1,21.1,21.1c11.7,0,21.1-9.4,21.1-21.1
				C702,58.4,692.6,49,680.9,49L680.9,49z"/>
		</g>
		<g>
			<path class="st6" d="M665.7,70.1h-2.9c0-9.4,7.6-17.6,17.6-17.6v2.9C672.7,55.5,665.7,61.9,665.7,70.1L665.7,70.1z"/>
		</g>
		<g>
			<path class="st6" d="M712.5,105.2c-0.6,0-1.2,0-1.8-0.6L696.1,90c-1.2-1.2-1.2-2.9,0-3.5c1.2-1.2,2.9-1.2,3.5,0l14.6,14.6
				c1.2,1.2,1.2,2.9,0,3.5C713.7,105.2,713.1,105.2,712.5,105.2L712.5,105.2z"/>
		</g>
	</g>
</g>
<g>
	<g>
		<g>
			<path class="st6" d="M26.5,117.8c-1.5,0-2.6-1.1-2.6-2.6V27.8c0-1.5,1.3-2.6,2.6-2.6c1.5,0,2.6,1.1,2.6,2.6v87.3
				C29.1,116.5,28,117.8,26.5,117.8L26.5,117.8z"/>
		</g>
		<g>
			<path class="st6" d="M38.4,111.9c-1.5,0-2.6-1.1-2.6-2.6V33.6c0-1.5,1.3-2.6,2.6-2.6c1.5,0,2.6,1.1,2.6,2.6v75.6
				C41.2,110.8,39.9,111.9,38.4,111.9L38.4,111.9z"/>
		</g>
		<g>
			<path class="st6" d="M147.1,117.8c-1.5,0-2.6-1.1-2.6-2.6V27.8c0-1.5,1.3-2.6,2.6-2.6c1.5,0,2.6,1.1,2.6,2.6v87.3
				C149.8,116.5,148.5,117.8,147.1,117.8L147.1,117.8z"/>
		</g>
		<g>
			<path class="st6" d="M135,111.9c-1.5,0-2.6-1.1-2.6-2.6V33.6c0-1.5,1.3-2.6,2.6-2.6c1.5,0,2.6,1.1,2.6,2.6v75.6
				C137.8,110.8,136.6,111.9,135,111.9L135,111.9z"/>
		</g>
	</g>
</g>
<g>
	<path class="st6" d="M116.4,34.2H56.9c-5,0-9,4.1-9,9v57.4c0,5,4.1,9,9,9h59.4c5,0,9-4.1,9-9V43.2
		C125.4,38.2,121.3,34.2,116.4,34.2z M82,82.2c0,6.9-5.5,12.5-12.2,12.5c-6.3,0-11.6-5-12.1-11.4h-0.2l0.1-23.7h0.1
		c0.2-6.8,5.6-12.3,12.2-12.3c6.6,0,12,5.6,12.1,12.3l0,0l-0.1,21.3l0,0C81.9,81.3,82,81.7,82,82.2z M113.8,84.4v18.1H96.7v-0.1
		c-1,0-2-0.2-2.9-0.4c-1.1-0.3-2-0.8-2.9-1.3c-3.3-2-5.5-5.6-5.5-9.8c0-0.2,0-0.5,0-0.7l0,0V72.2h17.1l0,0
		c6.2,0.2,11.2,5.2,11.2,11.4C113.8,83.9,113.8,84.1,113.8,84.4L113.8,84.4z M115.5,58.2L115.5,58.2c-0.2,6.4-5.3,11.5-11.6,11.5
		c-0.2,0-0.5,0-0.7,0l0,0l-18.1-0.1l0.1-17.2v-0.3l0,0c0.2-6.4,5.3-11.5,11.5-11.5c0.2,0,0.5,0,0.8,0l0,0l18.1,0.1L115.5,58.2z"/>
	<g>
		<path class="st6" d="M76.5,59.1c0,0.2,0,0.3,0,0.5c-0.2,3.3-3.2,5.9-6.8,5.9c-3.6,0-6.5-2.6-6.8-5.9c0-0.2,0-0.3,0-0.5
			c0-3.5,3.1-6.3,6.8-6.2C73.5,52.8,76.6,55.6,76.5,59.1z"/>
	</g>
</g>
</svg>
