<?xml version="1.0" encoding="utf-8"?>
<!-- Generator: Adobe Illustrator 19.2.1, SVG Export Plug-In . SVG Version: 6.00 Build 0)  -->
<svg version="1.1" id="Layer_1" xmlns="http://www.w3.org/2000/svg" xmlns:xlink="http://www.w3.org/1999/xlink" x="0px" y="0px"
	 viewBox="0 0 769.2 170.3" style="enable-background:new 0 0 769.2 170.3;" xml:space="preserve">
<style type="text/css">
	.st0{fill:#59B7B2;}
	.st1{fill:#465565;}
	.st2{fill:none;stroke:#414548;stroke-width:8;stroke-linecap:square;stroke-miterlimit:10;}
	.st3{fill:#414548;}
	.st4{fill:#F08921;}
	.st5{fill:#FFFFFF;}
	.st6{opacity:0.19;}
	.st7{opacity:0.46;}
	.st8{opacity:0.73;}
	.st9{enable-background:new    ;}
	.st10{fill:none;stroke:#FFFFFF;stroke-width:3;stroke-linecap:round;stroke-miterlimit:10;}
	.st11{fill:#6CB2E2;}
	.st12{fill:none;stroke:#FFFFFF;stroke-width:4;stroke-miterlimit:10;}
</style>
<rect x="600" class="st0" width="169.2" height="169.2"/>
<rect x="400" class="st1" width="169.2" height="169.2"/>
<line class="st2" x1="174.7" y1="84.6" x2="189" y2="84.6"/>
<polygon class="st3" points="187,92.5 200.8,84.5 187,76.5 "/>
<rect class="st4" width="170.3" height="170.3"/>
<g>
	<g>
		<path class="st5" d="M151.4,106H20.3c-3.3,0-5.9-2.5-5.9-5.4V24.7c0-3,2.6-5.4,5.9-5.4h131.1c3.3,0,5.9,2.5,5.9,5.4v75.8
			C157.4,103.5,154.7,106,151.4,106L151.4,106z M26.3,95.1h119.2v-65H26.3V95.1L26.3,95.1z"/>
	</g>
	<g>
		<path class="st5" d="M162.2,121.7H11.4c-3,0-5.4-2.5-5.4-5.4c0-3,2.5-5.4,5.4-5.4h150.7c3,0,5.4,2.5,5.4,5.4
			C167.5,119.3,165.1,121.7,162.2,121.7L162.2,121.7z"/>
	</g>
</g>
<g>
	<g class="st6">
		<g>
			<path class="st5" d="M118.6,60.4h20.7v-4.5h-20.7V60.4L118.6,60.4z M140.1,62.4h-22.3c-0.5,0-1-0.5-1-1V55c0-0.5,0.6-1.1,1-1.1
				h22.3c0.5,0,1.1,0.6,1.1,1.1v6.4C141.2,61.9,140.5,62.4,140.1,62.4L140.1,62.4z"/>
		</g>
		<path class="st5" d="M120.8,57.3c-0.5,0-1,0.5-1,1s0.5,1,1,1s1-0.5,1-1S121.3,57.3,120.8,57.3L120.8,57.3z"/>
		<path class="st5" d="M123.9,57.3c-0.5,0-1,0.5-1,1s0.5,1,1,1c0.5,0,1-0.5,1-1S124.4,57.3,123.9,57.3L123.9,57.3z"/>
		<path class="st5" d="M127.1,57.3c-0.5,0-1,0.5-1,1s0.5,1,1,1c0.5,0,1-0.5,1-1S127.6,57.3,127.1,57.3L127.1,57.3z"/>
		<g>
			<path class="st5" d="M118.6,52.1h20.7v-5.2h-20.7V52.1L118.6,52.1z M140.1,53.3h-22.3c-0.5,0-1-0.1-1-0.6v-6.4
				c0-0.5,0.6-0.8,1-0.8h22.3c0.5,0,1.1,0.3,1.1,0.8v6.4C141.2,53.2,140.5,53.3,140.1,53.3L140.1,53.3z"/>
		</g>
		<path class="st5" d="M120.8,48.6c-0.5,0-1,0.5-1,1s0.5,1,1,1s1-0.5,1-1S121.3,48.6,120.8,48.6L120.8,48.6z"/>
		<path class="st5" d="M123.9,48.6c-0.5,0-1,0.5-1,1s0.5,1,1,1c0.5,0,1-0.5,1-1S124.4,48.6,123.9,48.6L123.9,48.6z"/>
		<path class="st5" d="M127.1,48.6c-0.5,0-1,0.5-1,1s0.5,1,1,1c0.5,0,1-0.5,1-1S127.6,48.6,127.1,48.6L127.1,48.6z"/>
		<g>
			<path class="st5" d="M118.6,43h20.7v-4.5h-20.7V43L118.6,43z M140.1,45h-22.3c-0.5,0-1-0.5-1-0.9v-6.4c0-0.5,0.6-1.1,1-1.1h22.3
				c0.5,0,1.1,0.6,1.1,1.1v6.4C141.2,44.5,140.5,45,140.1,45L140.1,45z"/>
		</g>
		<path class="st5" d="M120.8,39.9c-0.5,0-1,0.5-1,1c0,0.5,0.5,1,1,1s1-0.5,1-1C121.7,40.3,121.3,39.9,120.8,39.9L120.8,39.9z"/>
		<path class="st5" d="M123.9,39.9c-0.5,0-1,0.5-1,1c0,0.5,0.5,1,1,1c0.5,0,1-0.5,1-1C124.9,40.3,124.4,39.9,123.9,39.9L123.9,39.9z
			"/>
		<path class="st5" d="M127.1,39.9c-0.5,0-1,0.5-1,1c0,0.5,0.5,1,1,1c0.5,0,1-0.5,1-1C128.1,40.3,127.6,39.9,127.1,39.9L127.1,39.9z
			"/>
	</g>
	<g class="st7">
		<g>
			<path class="st5" d="M110.9,65h20.7v-5.2h-20.7V65L110.9,65z M132.7,66.3h-22.3c-0.5,0-0.8-0.2-0.8-0.6v-6.4
				c0-0.5,0.3-0.7,0.8-0.7h22.3c0.5,0,0.8,0.3,0.8,0.7v6.4C133.5,66.1,133.2,66.3,132.7,66.3L132.7,66.3z"/>
		</g>
		<path class="st5" d="M113.3,61.4c-0.5,0-1,0.5-1,1c0,0.5,0.5,1,1,1s1-0.5,1-1C114.3,61.9,113.9,61.4,113.3,61.4L113.3,61.4z"/>
		<path class="st5" d="M116.5,61.4c-0.5,0-1,0.5-1,1c0,0.5,0.5,1,1,1c0.5,0,1-0.5,1-1C117.5,61.9,117,61.4,116.5,61.4L116.5,61.4z"
			/>
		<path class="st5" d="M119.7,61.4c-0.5,0-1,0.5-1,1c0,0.5,0.5,1,1,1c0.5,0,1-0.5,1-1C120.6,61.9,120.2,61.4,119.7,61.4L119.7,61.4z
			"/>
		<g>
			<path class="st5" d="M110.9,55.9h20.7v-4.5h-20.7V55.9L110.9,55.9z M132.7,57.9h-22.3c-0.5,0-0.8-0.5-0.8-1v-6.4
				c0-0.5,0.3-1.1,0.8-1.1h22.3c0.5,0,0.8,0.6,0.8,1.1v6.4C133.5,57.3,133.2,57.9,132.7,57.9L132.7,57.9z"/>
		</g>
		<path class="st5" d="M113.3,52.8c-0.5,0-1,0.5-1,1c0,0.5,0.5,1,1,1s1-0.5,1-1C114.3,53.2,113.9,52.8,113.3,52.8L113.3,52.8z"/>
		<path class="st5" d="M116.5,52.8c-0.5,0-1,0.5-1,1c0,0.5,0.5,1,1,1c0.5,0,1-0.5,1-1C117.5,53.2,117,52.8,116.5,52.8L116.5,52.8z"
			/>
		<path class="st5" d="M119.7,52.8c-0.5,0-1,0.5-1,1c0,0.5,0.5,1,1,1c0.5,0,1-0.5,1-1C120.6,53.2,120.2,52.8,119.7,52.8L119.7,52.8z
			"/>
		<g>
			<path class="st5" d="M110.9,47.5h20.7v-5.2h-20.7V47.5L110.9,47.5z M132.7,48.8h-22.3c-0.5,0-0.8-0.1-0.8-0.6v-6.4
				c0-0.5,0.3-0.8,0.8-0.8h22.3c0.5,0,0.8,0.3,0.8,0.8v6.4C133.5,48.6,133.2,48.8,132.7,48.8L132.7,48.8z"/>
		</g>
		<path class="st5" d="M113.3,44.1c-0.5,0-1,0.5-1,1s0.5,1,1,1s1-0.5,1-1S113.9,44.1,113.3,44.1L113.3,44.1z"/>
		<path class="st5" d="M116.5,44.1c-0.5,0-1,0.5-1,1s0.5,1,1,1c0.5,0,1-0.5,1-1S117,44.1,116.5,44.1L116.5,44.1z"/>
		<path class="st5" d="M119.7,44.1c-0.5,0-1,0.5-1,1s0.5,1,1,1c0.5,0,1-0.5,1-1S120.2,44.1,119.7,44.1L119.7,44.1z"/>
	</g>
	<g class="st8">
		<g>
			<path class="st5" d="M103.8,68.8h20.7v-4.5h-20.7V68.8L103.8,68.8z M125.3,70.8H103c-0.5,0-1.1-0.5-1.1-1v-6.4c0-0.5,0.6-1,1.1-1
				h22.3c0.5,0,1.1,0.6,1.1,1v6.4C126.4,70.2,125.7,70.8,125.3,70.8L125.3,70.8z"/>
		</g>
		<path class="st5" d="M106,65.6c-0.5,0-1,0.5-1,1c0,0.5,0.5,1,1,1c0.5,0,1-0.5,1-1C107,66.1,106.5,65.6,106,65.6L106,65.6z"/>
		<path class="st5" d="M109.1,65.6c-0.5,0-1,0.5-1,1c0,0.5,0.5,1,1,1c0.5,0,1-0.5,1-1C110.1,66.1,109.7,65.6,109.1,65.6L109.1,65.6z
			"/>
		<path class="st5" d="M112.2,65.6c-0.5,0-1,0.5-1,1c0,0.5,0.5,1,1,1c0.5,0,1-0.5,1-1C113.2,66.1,112.8,65.6,112.2,65.6L112.2,65.6z
			"/>
		<g>
			<path class="st5" d="M103.8,60.4h20.7v-5.2h-20.7V60.4L103.8,60.4z M125.3,61.7H103c-0.5,0-1.1-0.2-1.1-0.6v-6.4
				c0-0.5,0.6-0.7,1.1-0.7h22.3c0.5,0,1.1,0.3,1.1,0.7v6.4C126.4,61.5,125.7,61.7,125.3,61.7L125.3,61.7z"/>
		</g>
		<path class="st5" d="M106,56.9c-0.5,0-1,0.5-1,1c0,0.5,0.5,1,1,1c0.5,0,1-0.5,1-1C107,57.3,106.5,56.9,106,56.9L106,56.9z"/>
		<path class="st5" d="M109.1,56.9c-0.5,0-1,0.5-1,1c0,0.5,0.5,1,1,1c0.5,0,1-0.5,1-1C110.1,57.3,109.7,56.9,109.1,56.9L109.1,56.9z
			"/>
		<path class="st5" d="M112.2,56.9c-0.5,0-1,0.5-1,1c0,0.5,0.5,1,1,1c0.5,0,1-0.5,1-1C113.2,57.3,112.8,56.9,112.2,56.9L112.2,56.9z
			"/>
		<g>
			<path class="st5" d="M103.8,51.4h20.7v-4.5h-20.7V51.4L103.8,51.4z M125.3,53.3H103c-0.5,0-1.1-0.5-1.1-1V46
				c0-0.5,0.6-1.1,1.1-1.1h22.3c0.5,0,1.1,0.6,1.1,1.1v6.4C126.4,52.8,125.7,53.3,125.3,53.3L125.3,53.3z"/>
		</g>
		<path class="st5" d="M106,48.2c-0.5,0-1,0.5-1,1c0,0.5,0.5,1,1,1c0.5,0,1-0.5,1-1C107,48.7,106.5,48.2,106,48.2L106,48.2z"/>
		<path class="st5" d="M109.1,48.2c-0.5,0-1,0.5-1,1c0,0.5,0.5,1,1,1c0.5,0,1-0.5,1-1C110.1,48.7,109.7,48.2,109.1,48.2L109.1,48.2z
			"/>
		<path class="st5" d="M112.2,48.2c-0.5,0-1,0.5-1,1c0,0.5,0.5,1,1,1c0.5,0,1-0.5,1-1C113.2,48.7,112.8,48.2,112.2,48.2L112.2,48.2z
			"/>
	</g>
	<g>
		<g>
			<path class="st5" d="M96,73.4h21.3v-5.2H96V73.4L96,73.4z M117.9,74.6H95.5c-0.5,0-0.8-0.2-0.8-0.6v-6.4c0-0.5,0.3-0.7,0.8-0.7
				h22.3c0.5,0,0.8,0.3,0.8,0.7V74C118.6,74.4,118.3,74.6,117.9,74.6L117.9,74.6z"/>
		</g>
		<path class="st5" d="M98.6,69.8c-0.5,0-1,0.5-1,1s0.5,1,1,1c0.5,0,1-0.5,1-1S99.1,69.8,98.6,69.8L98.6,69.8z"/>
		<path class="st5" d="M101.7,69.8c-0.5,0-1,0.5-1,1s0.5,1,1,1s1-0.5,1-1S102.2,69.8,101.7,69.8L101.7,69.8z"/>
		<path class="st5" d="M104.8,69.8c-0.5,0-1,0.5-1,1s0.5,1,1,1c0.5,0,1-0.5,1-1S105.3,69.8,104.8,69.8L104.8,69.8z"/>
		<g>
			<path class="st5" d="M96,64.3h21.3v-4.5H96V64.3L96,64.3z M117.9,66.3H95.5c-0.5,0-0.8-0.5-0.8-1v-6.4c0-0.5,0.3-1,0.8-1h22.3
				c0.5,0,0.8,0.6,0.8,1v6.4C118.6,65.7,118.3,66.3,117.9,66.3L117.9,66.3z"/>
		</g>
		<path class="st5" d="M98.6,61.1c-0.5,0-1,0.5-1,1c0,0.5,0.5,1,1,1c0.5,0,1-0.5,1-1C99.5,61.5,99.1,61.1,98.6,61.1L98.6,61.1z"/>
		<path class="st5" d="M101.7,61.1c-0.5,0-1,0.5-1,1c0,0.5,0.5,1,1,1s1-0.5,1-1C102.6,61.5,102.2,61.1,101.7,61.1L101.7,61.1z"/>
		<path class="st5" d="M104.8,61.1c-0.5,0-1,0.5-1,1c0,0.5,0.5,1,1,1c0.5,0,1-0.5,1-1C105.8,61.5,105.3,61.1,104.8,61.1L104.8,61.1z
			"/>
		<g>
			<path class="st5" d="M96,55.9h21.3v-5.2H96V55.9L96,55.9z M117.9,57.2H95.5c-0.5,0-0.8-0.2-0.8-0.6v-6.4c0-0.5,0.3-0.7,0.8-0.7
				h22.3c0.5,0,0.8,0.3,0.8,0.7v6.4C118.6,57,118.3,57.2,117.9,57.2L117.9,57.2z"/>
		</g>
		<path class="st5" d="M98.6,52.4c-0.5,0-1,0.5-1,1c0,0.5,0.5,1,1,1c0.5,0,1-0.5,1-1C99.5,52.8,99.1,52.4,98.6,52.4L98.6,52.4z"/>
		<path class="st5" d="M101.7,52.4c-0.5,0-1,0.5-1,1c0,0.5,0.5,1,1,1s1-0.5,1-1C102.6,52.8,102.2,52.4,101.7,52.4L101.7,52.4z"/>
		<path class="st5" d="M104.8,52.4c-0.5,0-1,0.5-1,1c0,0.5,0.5,1,1,1c0.5,0,1-0.5,1-1C105.8,52.8,105.3,52.4,104.8,52.4L104.8,52.4z
			"/>
	</g>
</g>
<g>
	<path class="st5" d="M65.3,37.9H36c-2.5,0-4.5,2-4.5,4.5v28.3c0,2.5,2,4.5,4.5,4.5h29.3c2.5,0,4.5-2,4.5-4.5V42.4
		C69.8,39.9,67.8,37.9,65.3,37.9z M48.3,61.5c0,3.4-2.7,6.1-6,6.1c-3.1,0-5.7-2.5-6-5.6h-0.1l0.1-11.7h0.1c0.1-3.4,2.8-6.1,6-6.1
		c3.2,0,5.9,2.8,6,6.1l0,0L48.3,61l0,0C48.3,61.2,48.3,61.4,48.3,61.5z M64.1,62.7v8.9h-8.4v-0.1c-0.5,0-1-0.1-1.4-0.2
		c-0.5-0.1-1-0.4-1.4-0.6c-1.6-1-2.7-2.8-2.7-4.8c0-0.1,0-0.2,0-0.3l0,0v-8.9h8.4l0,0c3.1,0.1,5.6,2.6,5.6,5.6
		C64.1,62.4,64.1,62.6,64.1,62.7L64.1,62.7z M64.9,49.8L64.9,49.8c-0.1,3.2-2.6,5.7-5.7,5.7c-0.1,0-0.2,0-0.3,0l0,0L50,55.4l0.1-8.5
		v-0.1l0,0c0.1-3.2,2.6-5.7,5.7-5.7c0.1,0,0.3,0,0.4,0l0,0l8.9,0.1L64.9,49.8z"/>
	<g>
		<path class="st5" d="M45.7,50.2c0,0.1,0,0.1,0,0.2c-0.1,1.6-1.6,2.9-3.4,2.9c-1.8,0-3.2-1.3-3.4-2.9c0-0.1,0-0.1,0-0.2
			c0-1.7,1.5-3.1,3.4-3.1C44.2,47.1,45.7,48.4,45.7,50.2z"/>
	</g>
</g>
<g class="st9">
	<path class="st5" d="M45.1,82.4v-1.6h-0.4v-0.8h0.4v-0.8h1v0.8h0.8v0.8h-0.8v1.4c0,0.2,0.1,0.3,0.3,0.3c0.2,0,0.3-0.1,0.5-0.1v0.8
		c-0.2,0.1-0.5,0.2-0.8,0.2C45.5,83.4,45.1,83.2,45.1,82.4z"/>
	<path class="st5" d="M47.3,81.7L47.3,81.7c0-1,0.7-1.8,1.7-1.8c1.2,0,1.7,0.9,1.7,1.9c0,0.1,0,0.2,0,0.3h-2.4
		c0.1,0.5,0.4,0.6,0.8,0.6c0.3,0,0.6-0.1,0.8-0.3l0.6,0.5c-0.3,0.4-0.8,0.6-1.4,0.6C48.1,83.4,47.3,82.7,47.3,81.7z M49.7,81.4
		c-0.1-0.5-0.3-0.7-0.7-0.7c-0.4,0-0.6,0.3-0.7,0.7H49.7z"/>
	<path class="st5" d="M51.1,82.9l0.4-0.6c0.4,0.3,0.8,0.4,1.1,0.4c0.3,0,0.4-0.1,0.4-0.3l0,0c0-0.2-0.3-0.3-0.7-0.4
		c-0.5-0.1-1-0.4-1-1l0,0c0-0.7,0.6-1.1,1.2-1.1c0.5,0,0.9,0.1,1.3,0.4l-0.4,0.6c-0.3-0.2-0.6-0.3-0.9-0.3c-0.3,0-0.3,0.1-0.3,0.3
		l0,0c0,0.2,0.3,0.3,0.7,0.4c0.5,0.1,1,0.4,1,1l0,0c0,0.8-0.6,1.1-1.3,1.1C52.1,83.4,51.5,83.3,51.1,82.9z"/>
	<path class="st5" d="M54.6,82.4v-1.6h-0.4v-0.8h0.4v-0.8h1v0.8h0.8v0.8h-0.8v1.4c0,0.2,0.1,0.3,0.3,0.3c0.2,0,0.3-0.1,0.5-0.1v0.8
		c-0.2,0.1-0.5,0.2-0.8,0.2C55,83.4,54.6,83.2,54.6,82.4z"/>
</g>
<g class="st9">
	<path class="st5" d="M39.2,84.8h1v2.5l1.1-1.2h1.2l-1.3,1.4l1.4,2.1h-1.1L40.6,88l-0.3,0.4v1h-1L39.2,84.8L39.2,84.8z"/>
	<path class="st5" d="M43,84.8h1v0.8h-1V84.8z M43,86h1v3.4h-1V86z"/>
	<path class="st5" d="M45,88.4v-1.6h-0.4v-0.8H45v-0.8h1v0.8h0.8v0.8H46v1.4c0,0.2,0.1,0.3,0.3,0.3c0.2,0,0.3-0.1,0.5-0.1v0.8
		c-0.2,0.1-0.5,0.2-0.8,0.2C45.5,89.4,45,89.2,45,88.4z"/>
	<path class="st5" d="M47.3,87.7L47.3,87.7c0-1,0.7-1.8,1.8-1.8c0.6,0,1,0.2,1.4,0.6l-0.6,0.6c-0.2-0.3-0.5-0.4-0.8-0.4
		c-0.5,0-0.8,0.5-0.8,0.9l0,0c0,0.5,0.3,0.9,0.8,0.9c0.3,0,0.5-0.1,0.8-0.4l0.6,0.6c-0.3,0.4-0.7,0.6-1.4,0.6
		C48,89.4,47.3,88.7,47.3,87.7z"/>
	<path class="st5" d="M51,84.8h1v1.7c0.2-0.3,0.5-0.5,1-0.5c0.7,0,1.2,0.5,1.2,1.2v2.2h-1v-1.9c0-0.5-0.2-0.7-0.6-0.7
		c-0.4,0-0.6,0.3-0.6,0.7v1.9h-1V84.8z"/>
	<path class="st5" d="M54.9,87.7L54.9,87.7c0-1,0.7-1.8,1.7-1.8c1.2,0,1.7,0.9,1.7,1.9c0,0.1,0,0.2,0,0.3h-2.4
		c0.1,0.5,0.4,0.6,0.8,0.6c0.3,0,0.6-0.1,0.8-0.3l0.6,0.5c-0.3,0.4-0.8,0.6-1.4,0.6C55.6,89.4,54.9,88.7,54.9,87.7z M57.2,87.4
		c-0.1-0.5-0.3-0.7-0.7-0.7s-0.6,0.3-0.7,0.7H57.2z"/>
	<path class="st5" d="M58.9,86h1v0.5c0.2-0.3,0.5-0.5,1-0.5c0.7,0,1.2,0.5,1.2,1.2v2.2h-1v-1.9c0-0.5-0.2-0.7-0.6-0.7
		s-0.6,0.3-0.6,0.7v1.9h-1V86z"/>
</g>
<g>
	<g class="st9">
		<path class="st5" d="M93.8,78.5h1v0.8h-1V78.5z M93.9,79.7h1v3.4h-1V79.7z"/>
		<path class="st5" d="M95.7,79.7h1v0.5c0.2-0.3,0.5-0.5,1-0.5c0.7,0,1.2,0.5,1.2,1.2v2.2h-1v-1.9c0-0.5-0.2-0.7-0.6-0.7
			c-0.4,0-0.6,0.3-0.6,0.7v1.9h-1L95.7,79.7L95.7,79.7z"/>
		<path class="st5" d="M99.4,82.7l0.4-0.6c0.4,0.3,0.8,0.4,1.1,0.4c0.3,0,0.4-0.1,0.4-0.3l0,0c0-0.2-0.3-0.3-0.7-0.4
			c-0.5-0.1-1-0.4-1-1l0,0c0-0.7,0.6-1.1,1.2-1.1c0.5,0,0.9,0.1,1.3,0.4l-0.4,0.6c-0.3-0.2-0.6-0.3-0.9-0.3c-0.3,0-0.3,0.1-0.3,0.3
			l0,0c0,0.2,0.3,0.3,0.7,0.4c0.5,0.1,1,0.4,1,1l0,0c0,0.8-0.6,1.1-1.3,1.1C100.4,83.2,99.9,83,99.4,82.7z"/>
		<path class="st5" d="M102.9,82.2v-1.6h-0.4v-0.8h0.4v-0.8h1v0.8h0.8v0.8h-0.8V82c0,0.2,0.1,0.3,0.3,0.3c0.2,0,0.3-0.1,0.5-0.1V83
			c-0.2,0.1-0.5,0.2-0.8,0.2C103.3,83.2,102.9,83,102.9,82.2z"/>
		<path class="st5" d="M105.1,82.2L105.1,82.2c0-0.8,0.6-1.1,1.4-1.1c0.3,0,0.6,0.1,0.8,0.1v-0.1c0-0.4-0.3-0.6-0.7-0.6
			c-0.4,0-0.6,0.1-1,0.2l-0.3-0.7c0.4-0.2,0.7-0.3,1.3-0.3c0.5,0,0.9,0.1,1.2,0.4c0.3,0.3,0.4,0.6,0.4,1.1v1.9h-0.9v-0.4
			c-0.3,0.3-0.6,0.5-1,0.5C105.7,83.2,105.1,82.8,105.1,82.2z M107.4,81.9v-0.2c-0.2-0.1-0.4-0.1-0.6-0.1c-0.4,0-0.6,0.2-0.6,0.5
			l0,0c0,0.3,0.2,0.4,0.5,0.4C107.1,82.6,107.4,82.3,107.4,81.9z"/>
		<path class="st5" d="M109.2,79.7h1v0.5c0.2-0.3,0.5-0.5,1-0.5c0.7,0,1.2,0.5,1.2,1.2v2.2h-1v-1.9c0-0.5-0.2-0.7-0.6-0.7
			c-0.4,0-0.6,0.3-0.6,0.7v1.9h-1L109.2,79.7L109.2,79.7z"/>
		<path class="st5" d="M112.9,81.5L112.9,81.5c0-1,0.7-1.8,1.8-1.8c0.6,0,1,0.2,1.4,0.6l-0.6,0.6c-0.2-0.3-0.5-0.4-0.8-0.4
			c-0.5,0-0.8,0.5-0.8,0.9l0,0c0,0.5,0.3,0.9,0.8,0.9c0.3,0,0.5-0.1,0.8-0.4l0.6,0.6c-0.3,0.4-0.7,0.6-1.4,0.6
			C113.7,83.2,112.9,82.5,112.9,81.5z"/>
		<path class="st5" d="M116.4,81.5L116.4,81.5c0-1,0.7-1.8,1.7-1.8c1.2,0,1.7,0.9,1.7,1.9c0,0.1,0,0.2,0,0.3h-2.4
			c0.1,0.5,0.4,0.6,0.8,0.6c0.3,0,0.6-0.1,0.8-0.3l0.6,0.5c-0.3,0.4-0.8,0.6-1.4,0.6C117.2,83.2,116.4,82.5,116.4,81.5z M118.8,81.2
			c-0.1-0.5-0.3-0.7-0.7-0.7s-0.6,0.3-0.7,0.7H118.8z"/>
		<path class="st5" d="M120.2,82.7l0.4-0.6c0.4,0.3,0.8,0.4,1.1,0.4c0.3,0,0.4-0.1,0.4-0.3l0,0c0-0.2-0.3-0.3-0.7-0.4
			c-0.5-0.1-1-0.4-1-1l0,0c0-0.7,0.6-1.1,1.2-1.1c0.5,0,0.9,0.1,1.3,0.4l-0.4,0.6c-0.3-0.2-0.6-0.3-0.9-0.3s-0.3,0.1-0.3,0.3l0,0
			c0,0.2,0.3,0.3,0.7,0.4c0.5,0.1,1,0.4,1,1l0,0c0,0.8-0.6,1.1-1.3,1.1C121.2,83.2,120.6,83,120.2,82.7z"/>
		<path class="st5" d="M125.5,81.4c0-1.2,0.6-2.1,1.7-2.7l0.5,0.6c-0.8,0.6-1.2,1.2-1.2,2.1s0.4,1.5,1.2,2.1l-0.5,0.6
			C126.1,83.4,125.5,82.6,125.5,81.4z"/>
		<path class="st5" d="M128,79.7h1l0.8,2.3l0.8-2.3h1l-1.4,3.4h-0.9L128,79.7z"/>
		<path class="st5" d="M132.1,79.7h1v0.5c0.2-0.3,0.5-0.5,1-0.5s0.8,0.2,1,0.5c0.3-0.3,0.6-0.5,1.1-0.5c0.7,0,1.2,0.5,1.2,1.2v2.2
			h-1v-1.9c0-0.5-0.2-0.7-0.6-0.7c-0.4,0-0.6,0.3-0.6,0.7v1.9h-1v-1.9c0-0.5-0.2-0.7-0.6-0.7c-0.4,0-0.6,0.3-0.6,0.7v1.9h-1
			L132.1,79.7L132.1,79.7z"/>
		<path class="st5" d="M137.9,83.8c0.5-0.1,0.6-0.3,0.6-0.6h-0.4v-1h1V83c0,0.8-0.4,1.2-1.2,1.2L137.9,83.8z"/>
	</g>
	<g class="st9">
		<path class="st5" d="M92.4,87.5L92.4,87.5c0-1,0.7-1.8,1.8-1.8c0.6,0,1,0.2,1.4,0.6l-0.6,0.6c-0.2-0.3-0.5-0.4-0.8-0.4
			c-0.5,0-0.8,0.5-0.8,0.9l0,0c0,0.5,0.3,0.9,0.8,0.9c0.3,0,0.5-0.1,0.8-0.4l0.6,0.6c-0.3,0.4-0.7,0.6-1.4,0.6
			C93.1,89.2,92.4,88.5,92.4,87.5z"/>
		<path class="st5" d="M95.9,87.5L95.9,87.5c0-1,0.8-1.8,1.9-1.8c1,0,1.8,0.8,1.8,1.7l0,0c0,1-0.8,1.7-1.9,1.7
			C96.6,89.2,95.9,88.5,95.9,87.5z M98.6,87.5L98.6,87.5c0-0.5-0.4-1-0.9-1c-0.6,0-0.9,0.5-0.9,0.9l0,0c0,0.5,0.4,0.9,0.9,0.9
			C98.2,88.4,98.6,88,98.6,87.5z"/>
		<path class="st5" d="M100.2,85.8h1v0.5c0.2-0.3,0.5-0.5,1-0.5c0.7,0,1.2,0.5,1.2,1.2v2.2h-1v-1.9c0-0.5-0.2-0.7-0.6-0.7
			c-0.4,0-0.6,0.3-0.6,0.7v1.9h-1L100.2,85.8L100.2,85.8z"/>
		<path class="st5" d="M104.3,88.2v-1.6h-0.4v-0.8h0.4v-0.8h1v0.8h0.8v0.8h-0.8V88c0,0.2,0.1,0.3,0.3,0.3c0.2,0,0.3-0.1,0.5-0.1V89
			c-0.2,0.1-0.5,0.2-0.8,0.2C104.7,89.2,104.3,89,104.3,88.2z"/>
		<path class="st5" d="M106.6,88.2L106.6,88.2c0-0.8,0.6-1.1,1.4-1.1c0.3,0,0.6,0.1,0.8,0.1v-0.1c0-0.4-0.3-0.6-0.7-0.6
			c-0.4,0-0.6,0.1-1,0.2l-0.3-0.7c0.4-0.2,0.7-0.3,1.3-0.3c0.5,0,0.9,0.1,1.2,0.4c0.3,0.3,0.4,0.6,0.4,1.1v1.9h-0.9v-0.4
			c-0.3,0.3-0.6,0.5-1,0.5C107.1,89.2,106.6,88.9,106.6,88.2z M108.8,87.9v-0.2c-0.2-0.1-0.4-0.1-0.6-0.1c-0.4,0-0.6,0.2-0.6,0.5
			l0,0c0,0.3,0.2,0.4,0.5,0.4C108.5,88.6,108.8,88.3,108.8,87.9z"/>
		<path class="st5" d="M110.6,84.5h1v0.8h-1V84.5z M110.6,85.8h1v3.4h-1V85.8z"/>
		<path class="st5" d="M112.4,85.8h1v0.5c0.2-0.3,0.5-0.5,1-0.5c0.7,0,1.2,0.5,1.2,1.2v2.2h-1v-1.9c0-0.5-0.2-0.7-0.6-0.7
			s-0.6,0.3-0.6,0.7v1.9h-1L112.4,85.8L112.4,85.8z"/>
		<path class="st5" d="M116.2,87.5L116.2,87.5c0-1,0.7-1.8,1.7-1.8c1.2,0,1.7,0.9,1.7,1.9c0,0.1,0,0.2,0,0.3h-2.4
			c0.1,0.5,0.4,0.6,0.8,0.6c0.3,0,0.6-0.1,0.8-0.3l0.6,0.5c-0.3,0.4-0.8,0.6-1.4,0.6C117,89.2,116.2,88.5,116.2,87.5z M118.6,87.2
			c-0.1-0.5-0.3-0.7-0.7-0.7s-0.6,0.3-0.7,0.7H118.6z"/>
		<path class="st5" d="M120.3,85.8h1v0.7c0.2-0.5,0.5-0.8,1.1-0.8v1h-0.1c-0.6,0-1,0.4-1,1.2v1.2h-1L120.3,85.8L120.3,85.8z"/>
		<path class="st5" d="M122.1,89.8c0.5-0.1,0.6-0.3,0.6-0.6h-0.4v-1h1V89c0,0.8-0.4,1.2-1.2,1.2L122.1,89.8z"/>
		<path class="st5" d="M125.9,87.5L125.9,87.5c0-1,0.7-1.8,1.7-1.8c1.2,0,1.7,0.9,1.7,1.9c0,0.1,0,0.2,0,0.3h-2.4
			c0.1,0.5,0.4,0.6,0.8,0.6c0.3,0,0.6-0.1,0.8-0.3l0.6,0.5c-0.3,0.4-0.8,0.6-1.4,0.6C126.6,89.2,125.9,88.5,125.9,87.5z M128.3,87.2
			c-0.1-0.5-0.3-0.7-0.7-0.7s-0.6,0.3-0.7,0.7H128.3z"/>
		<path class="st5" d="M130.1,88.2v-1.6h-0.4v-0.8h0.4v-0.8h1v0.8h0.8v0.8H131V88c0,0.2,0.1,0.3,0.3,0.3c0.2,0,0.3-0.1,0.5-0.1V89
			c-0.2,0.1-0.5,0.2-0.8,0.2C130.5,89.2,130.1,89,130.1,88.2z"/>
		<path class="st5" d="M132.3,87.5L132.3,87.5c0-1,0.7-1.8,1.8-1.8c0.6,0,1,0.2,1.4,0.6l-0.6,0.6c-0.2-0.3-0.5-0.4-0.8-0.4
			c-0.5,0-0.8,0.5-0.8,0.9l0,0c0,0.5,0.3,0.9,0.8,0.9c0.3,0,0.5-0.1,0.8-0.4l0.6,0.6c-0.3,0.4-0.7,0.6-1.4,0.6
			C133,89.2,132.3,88.5,132.3,87.5z"/>
		<path class="st5" d="M136,88.1h1v1h-1V88.1z"/>
		<path class="st5" d="M137.7,89.4c0.8-0.6,1.2-1.2,1.2-2.1s-0.4-1.5-1.2-2.1l0.5-0.6c1.2,0.6,1.7,1.5,1.7,2.7s-0.6,2.1-1.7,2.7
			L137.7,89.4z"/>
	</g>
</g>
<g>
	<g>
		<line class="st10" x1="77.3" y1="60.1" x2="84.4" y2="60.1"/>
		<g>
			<polygon class="st5" points="83.8,62.6 87.7,60.3 83.8,58.1 			"/>
		</g>
	</g>
</g>
<g>
	<rect x="200" class="st11" width="168.9" height="168.9"/>
</g>
<line class="st2" x1="574.2" y1="82.6" x2="588.5" y2="82.6"/>
<polygon class="st3" points="586.5,90.5 600.3,82.5 586.5,74.5 "/>
<g>
	<path class="st5" d="M42.2,130.5h2.7v1.9c0.3-0.7,0.7-1.2,1.1-1.6c0.5-0.4,1.1-0.6,1.9-0.5v2.9h-0.1c-0.9,0-1.6,0.3-2.2,0.8
		c-0.5,0.6-0.8,1.4-0.8,2.6v3.6h-2.7V130.5z"/>
	<path class="st5" d="M54.3,140.4c-0.7,0-1.4-0.1-2-0.4c-0.6-0.2-1.2-0.6-1.6-1s-0.8-1-1.1-1.6c-0.3-0.6-0.4-1.3-0.4-2v0
		c0-0.7,0.1-1.3,0.4-1.9s0.6-1.1,1-1.6s0.9-0.8,1.5-1.1c0.6-0.3,1.2-0.4,1.9-0.4c0.8,0,1.5,0.1,2.1,0.4s1.1,0.7,1.5,1.2
		c0.4,0.5,0.7,1,0.9,1.7s0.3,1.3,0.3,2c0,0.1,0,0.2,0,0.3c0,0.1,0,0.2,0,0.4h-6.7c0.1,0.6,0.4,1.1,0.8,1.4c0.4,0.3,0.9,0.5,1.5,0.5
		c0.5,0,0.9-0.1,1.2-0.2c0.4-0.2,0.7-0.4,1.1-0.8l1.6,1.4c-0.5,0.6-1,1-1.7,1.3C55.9,140.2,55.1,140.4,54.3,140.4z M56,134.6
		c-0.1-0.6-0.3-1.1-0.6-1.5c-0.3-0.4-0.8-0.6-1.4-0.6c-0.6,0-1,0.2-1.4,0.6c-0.4,0.4-0.6,0.9-0.7,1.5H56z"/>
	<path class="st5" d="M60.7,130.5h2.7v1.4c0.2-0.2,0.3-0.4,0.5-0.6c0.2-0.2,0.4-0.4,0.6-0.5c0.2-0.1,0.5-0.3,0.8-0.3
		c0.3-0.1,0.6-0.1,0.9-0.1c0.6,0,1.2,0.1,1.6,0.4c0.5,0.3,0.8,0.6,1.1,1.1c0.4-0.5,0.9-0.9,1.4-1.2c0.5-0.3,1.1-0.4,1.8-0.4
		c1,0,1.8,0.3,2.4,0.9c0.6,0.6,0.9,1.5,0.9,2.6v6.3h-2.7v-5.4c0-0.6-0.1-1.1-0.4-1.5s-0.7-0.5-1.2-0.5s-0.9,0.2-1.2,0.5
		c-0.3,0.3-0.4,0.8-0.4,1.5v5.4h-2.7v-5.4c0-0.6-0.1-1.1-0.4-1.5c-0.3-0.3-0.7-0.5-1.2-0.5c-0.5,0-0.9,0.2-1.2,0.5s-0.4,0.8-0.4,1.5
		v5.4h-2.7V130.5z"/>
	<path class="st5" d="M82.4,140.4c-0.7,0-1.4-0.1-2-0.4c-0.6-0.2-1.2-0.6-1.6-1s-0.8-1-1.1-1.6c-0.3-0.6-0.4-1.3-0.4-2v0
		c0-0.7,0.1-1.3,0.4-1.9s0.6-1.1,1-1.6s0.9-0.8,1.5-1.1c0.6-0.3,1.2-0.4,1.9-0.4c0.8,0,1.5,0.1,2.1,0.4s1.1,0.7,1.5,1.2
		c0.4,0.5,0.7,1,0.9,1.7s0.3,1.3,0.3,2c0,0.1,0,0.2,0,0.3c0,0.1,0,0.2,0,0.4h-6.7c0.1,0.6,0.4,1.1,0.8,1.4c0.4,0.3,0.9,0.5,1.5,0.5
		c0.5,0,0.9-0.1,1.2-0.2c0.4-0.2,0.7-0.4,1.1-0.8l1.6,1.4c-0.5,0.6-1,1-1.7,1.3C84,140.2,83.3,140.4,82.4,140.4z M84.2,134.6
		c-0.1-0.6-0.3-1.1-0.6-1.5c-0.3-0.4-0.8-0.6-1.4-0.6c-0.6,0-1,0.2-1.4,0.6c-0.4,0.4-0.6,0.9-0.7,1.5H84.2z"/>
	<path class="st5" d="M92.8,140.4c-0.6,0-1.1-0.1-1.6-0.3c-0.5-0.2-1-0.5-1.4-1c-0.4-0.4-0.7-0.9-1-1.6c-0.2-0.6-0.4-1.3-0.4-2.1v0
		c0-0.8,0.1-1.5,0.4-2.1c0.2-0.6,0.6-1.1,1-1.6c0.4-0.4,0.9-0.7,1.4-1c0.5-0.2,1.1-0.3,1.7-0.3c0.7,0,1.3,0.1,1.8,0.4
		c0.5,0.3,0.9,0.6,1.2,1V127h2.7v13.1h-2.7v-1.4c-0.3,0.5-0.7,0.8-1.2,1.1C94.1,140.2,93.5,140.4,92.8,140.4z M93.5,138
		c0.3,0,0.6-0.1,0.9-0.2c0.3-0.1,0.5-0.3,0.7-0.5c0.2-0.2,0.4-0.5,0.5-0.8s0.2-0.7,0.2-1.1v0c0-0.4-0.1-0.8-0.2-1.1
		c-0.1-0.3-0.3-0.6-0.5-0.8c-0.2-0.2-0.5-0.4-0.7-0.5c-0.3-0.1-0.6-0.2-0.9-0.2c-0.3,0-0.6,0.1-0.9,0.2c-0.3,0.1-0.5,0.3-0.7,0.5
		c-0.2,0.2-0.4,0.5-0.5,0.8c-0.1,0.3-0.2,0.7-0.2,1.1v0c0,0.4,0.1,0.8,0.2,1.1s0.3,0.6,0.5,0.8s0.5,0.4,0.7,0.5
		C92.9,138,93.2,138,93.5,138z"/>
	<path class="st5" d="M101.1,127h2.9v2.4h-2.9V127z M101.1,130.5h2.7v9.6h-2.7V130.5z"/>
	<path class="st5" d="M109.2,140.4c-0.5,0-0.9-0.1-1.3-0.2s-0.8-0.3-1.1-0.6c-0.3-0.3-0.5-0.6-0.7-0.9c-0.2-0.4-0.3-0.8-0.3-1.3v0
		c0-0.5,0.1-1,0.3-1.4c0.2-0.4,0.5-0.7,0.8-1c0.3-0.3,0.8-0.4,1.2-0.6c0.5-0.1,1-0.2,1.6-0.2c0.5,0,0.9,0,1.3,0.1
		c0.4,0.1,0.7,0.2,1.1,0.3v-0.2c0-0.6-0.2-1-0.5-1.3c-0.3-0.3-0.9-0.5-1.5-0.5c-0.5,0-1,0-1.4,0.1c-0.4,0.1-0.8,0.2-1.3,0.4
		l-0.7-2.1c0.5-0.2,1.1-0.4,1.7-0.6c0.6-0.1,1.3-0.2,2.1-0.2c0.8,0,1.4,0.1,1.9,0.3c0.5,0.2,1,0.5,1.3,0.8c0.4,0.4,0.6,0.8,0.8,1.3
		s0.3,1.1,0.3,1.8v5.6h-2.6v-1c-0.3,0.4-0.7,0.7-1.2,0.9C110.4,140.3,109.8,140.4,109.2,140.4z M110,138.5c0.6,0,1.2-0.2,1.6-0.5
		c0.4-0.3,0.6-0.7,0.6-1.2v-0.5c-0.2-0.1-0.5-0.2-0.8-0.3s-0.6-0.1-0.9-0.1c-0.6,0-1.1,0.1-1.4,0.3s-0.5,0.6-0.5,1v0
		c0,0.4,0.1,0.7,0.4,0.9C109.2,138.4,109.6,138.5,110,138.5z"/>
	<path class="st5" d="M120.3,140.3c-0.4,0-0.8,0-1.1-0.1c-0.3-0.1-0.6-0.2-0.9-0.5c-0.2-0.2-0.4-0.5-0.6-0.9s-0.2-0.8-0.2-1.4v-4.6
		h-1.2v-2.3h1.2v-2.5h2.7v2.5h2.3v2.3h-2.3v4.1c0,0.6,0.3,0.9,0.9,0.9c0.5,0,0.9-0.1,1.4-0.4v2.2c-0.3,0.2-0.6,0.3-1,0.4
		C121.2,140.3,120.8,140.3,120.3,140.3z"/>
	<path class="st5" d="M129.1,140.4c-0.7,0-1.4-0.1-2-0.4c-0.6-0.2-1.2-0.6-1.6-1s-0.8-1-1.1-1.6c-0.3-0.6-0.4-1.3-0.4-2v0
		c0-0.7,0.1-1.3,0.4-1.9s0.6-1.1,1-1.6s0.9-0.8,1.5-1.1c0.6-0.3,1.2-0.4,1.9-0.4c0.8,0,1.5,0.1,2.1,0.4s1.1,0.7,1.5,1.2
		c0.4,0.5,0.7,1,0.9,1.7s0.3,1.3,0.3,2c0,0.1,0,0.2,0,0.3c0,0.1,0,0.2,0,0.4h-6.7c0.1,0.6,0.4,1.1,0.8,1.4c0.4,0.3,0.9,0.5,1.5,0.5
		c0.5,0,0.9-0.1,1.2-0.2c0.4-0.2,0.7-0.4,1.1-0.8l1.6,1.4c-0.5,0.6-1,1-1.7,1.3C130.8,140.2,130,140.4,129.1,140.4z M130.9,134.6
		c-0.1-0.6-0.3-1.1-0.6-1.5c-0.3-0.4-0.8-0.6-1.4-0.6c-0.6,0-1,0.2-1.4,0.6c-0.4,0.4-0.6,0.9-0.7,1.5H130.9z"/>
	<path class="st5" d="M59,148.6h2.7v13.1H59V148.6z"/>
	<path class="st5" d="M69,162c-0.7,0-1.4-0.1-2.1-0.4c-0.6-0.3-1.2-0.6-1.6-1.1c-0.5-0.5-0.8-1-1.1-1.6s-0.4-1.3-0.4-2v0
		c0-0.7,0.1-1.3,0.4-2s0.6-1.1,1.1-1.6s1-0.8,1.7-1.1c0.6-0.3,1.3-0.4,2.1-0.4c0.7,0,1.4,0.1,2.1,0.4c0.6,0.3,1.2,0.6,1.6,1.1
		c0.5,0.4,0.8,1,1.1,1.6c0.3,0.6,0.4,1.3,0.4,2v0c0,0.7-0.1,1.3-0.4,2c-0.3,0.6-0.6,1.1-1.1,1.6c-0.5,0.5-1,0.8-1.7,1.1
		C70.5,161.9,69.8,162,69,162z M69.1,159.6c0.4,0,0.7-0.1,1.1-0.2c0.3-0.1,0.6-0.3,0.8-0.6c0.2-0.2,0.4-0.5,0.5-0.8
		c0.1-0.3,0.2-0.7,0.2-1v0c0-0.4-0.1-0.7-0.2-1c-0.1-0.3-0.3-0.6-0.5-0.8s-0.5-0.4-0.8-0.6s-0.7-0.2-1-0.2c-0.4,0-0.7,0.1-1.1,0.2
		c-0.3,0.1-0.6,0.3-0.8,0.6c-0.2,0.2-0.4,0.5-0.5,0.8c-0.1,0.3-0.2,0.7-0.2,1v0c0,0.4,0.1,0.7,0.2,1c0.1,0.3,0.3,0.6,0.5,0.8
		c0.2,0.2,0.5,0.4,0.8,0.6S68.7,159.6,69.1,159.6z"/>
	<path class="st5" d="M80.8,162c-0.7,0-1.4-0.1-2-0.4c-0.6-0.3-1.1-0.6-1.6-1.1c-0.4-0.5-0.8-1-1-1.6c-0.3-0.6-0.4-1.3-0.4-1.9v0
		c0-0.7,0.1-1.3,0.4-1.9c0.3-0.6,0.6-1.1,1-1.6c0.4-0.5,1-0.8,1.6-1.1c0.6-0.3,1.3-0.4,2-0.4c0.9,0,1.7,0.1,2.3,0.4s1.1,0.7,1.6,1.2
		l-1.7,1.8c-0.3-0.3-0.6-0.6-1-0.8c-0.3-0.2-0.7-0.3-1.2-0.3c-0.3,0-0.7,0.1-0.9,0.2c-0.3,0.1-0.5,0.3-0.7,0.6
		c-0.2,0.2-0.4,0.5-0.5,0.8c-0.1,0.3-0.2,0.7-0.2,1v0c0,0.4,0.1,0.7,0.2,1c0.1,0.3,0.3,0.6,0.5,0.8c0.2,0.2,0.5,0.4,0.8,0.6
		c0.3,0.1,0.6,0.2,1,0.2c0.5,0,0.9-0.1,1.2-0.3c0.3-0.2,0.7-0.4,1-0.7l1.6,1.6c-0.5,0.5-1,0.9-1.6,1.3C82.6,161.8,81.8,162,80.8,162
		z"/>
	<path class="st5" d="M89.3,162c-0.5,0-0.9-0.1-1.3-0.2s-0.8-0.3-1.1-0.6c-0.3-0.3-0.5-0.6-0.7-0.9c-0.2-0.4-0.3-0.8-0.3-1.3v0
		c0-0.5,0.1-1,0.3-1.4c0.2-0.4,0.5-0.7,0.8-1c0.3-0.3,0.8-0.4,1.2-0.6c0.5-0.1,1-0.2,1.6-0.2c0.5,0,0.9,0,1.3,0.1
		c0.4,0.1,0.7,0.2,1.1,0.3v-0.2c0-0.6-0.2-1-0.5-1.3c-0.3-0.3-0.9-0.5-1.5-0.5c-0.5,0-1,0-1.4,0.1c-0.4,0.1-0.8,0.2-1.3,0.4
		l-0.7-2.1c0.5-0.2,1.1-0.4,1.7-0.6c0.6-0.1,1.3-0.2,2.1-0.2c0.8,0,1.4,0.1,1.9,0.3c0.5,0.2,1,0.5,1.3,0.8c0.4,0.4,0.6,0.8,0.8,1.3
		s0.3,1.1,0.3,1.8v5.6h-2.6v-1c-0.3,0.4-0.7,0.7-1.2,0.9C90.5,161.9,90,162,89.3,162z M90.1,160.1c0.6,0,1.2-0.2,1.6-0.5
		c0.4-0.3,0.6-0.7,0.6-1.2v-0.5c-0.2-0.1-0.5-0.2-0.8-0.3s-0.6-0.1-0.9-0.1c-0.6,0-1.1,0.1-1.4,0.3s-0.5,0.6-0.5,1v0
		c0,0.4,0.1,0.7,0.4,0.9C89.3,160,89.7,160.1,90.1,160.1z"/>
	<path class="st5" d="M97.3,148.6h2.7v13.1h-2.7V148.6z"/>
	<path class="st5" d="M102.8,148.6h2.7v13.1h-2.7V148.6z"/>
	<path class="st5" d="M110.4,164.7c-0.5,0-0.9-0.1-1.3-0.2c-0.4-0.1-0.8-0.3-1.1-0.5l0.9-2c0.2,0.1,0.4,0.2,0.6,0.3
		c0.2,0.1,0.4,0.1,0.6,0.1c0.2,0,0.4,0,0.6-0.1c0.1-0.1,0.3-0.3,0.4-0.5l-3.8-9.7h2.9l2.2,6.6l2.1-6.6h2.8l-3.7,9.9
		c-0.2,0.5-0.4,0.9-0.6,1.3c-0.2,0.3-0.4,0.6-0.7,0.8c-0.2,0.2-0.5,0.4-0.8,0.5C111.1,164.7,110.8,164.7,110.4,164.7z"/>
</g>
<line class="st2" x1="373.9" y1="83.6" x2="388.2" y2="83.6"/>
<polygon class="st3" points="386.2,91.5 400,83.5 386.2,75.5 "/>
<g>
	<path class="st5" d="M257.1,140.4c-1,0-1.9-0.3-2.4-1c-0.6-0.6-0.9-1.5-0.9-2.6v-6.2h2.7v5.4c0,0.6,0.1,1.1,0.4,1.5
		s0.7,0.5,1.2,0.5s0.9-0.2,1.3-0.5c0.3-0.3,0.5-0.8,0.5-1.5v-5.4h2.7v9.6h-2.7v-1.4c-0.2,0.2-0.3,0.4-0.5,0.6
		c-0.2,0.2-0.4,0.4-0.6,0.5s-0.5,0.3-0.8,0.3C257.8,140.3,257.5,140.4,257.1,140.4z"/>
	<path class="st5" d="M265.1,130.5h2.7v1.4c0.3-0.5,0.7-0.8,1.2-1.1c0.5-0.3,1.1-0.4,1.8-0.4c0.6,0,1.1,0.1,1.6,0.3
		c0.5,0.2,1,0.5,1.4,1c0.4,0.4,0.7,0.9,1,1.6c0.2,0.6,0.4,1.3,0.4,2.1v0c0,0.8-0.1,1.5-0.4,2.1s-0.6,1.1-1,1.6
		c-0.4,0.4-0.9,0.7-1.4,1s-1.1,0.3-1.7,0.3c-0.7,0-1.3-0.1-1.8-0.4c-0.5-0.3-0.9-0.6-1.2-1v4.1h-2.7V130.5z M270.2,138
		c0.3,0,0.6-0.1,0.9-0.2c0.3-0.1,0.5-0.3,0.7-0.5c0.2-0.2,0.4-0.5,0.5-0.8s0.2-0.7,0.2-1.1v0c0-0.4-0.1-0.8-0.2-1.1
		c-0.1-0.3-0.3-0.6-0.5-0.8c-0.2-0.2-0.5-0.4-0.7-0.5c-0.3-0.1-0.6-0.2-0.9-0.2c-0.3,0-0.6,0.1-0.9,0.2c-0.3,0.1-0.5,0.3-0.7,0.5
		c-0.2,0.2-0.4,0.5-0.5,0.8c-0.1,0.3-0.2,0.7-0.2,1.1v0c0,0.4,0.1,0.8,0.2,1.1s0.3,0.6,0.5,0.8s0.5,0.4,0.7,0.5
		C269.5,138,269.8,138,270.2,138z"/>
	<path class="st5" d="M277.4,127h2.7v13.1h-2.7V127z"/>
	<path class="st5" d="M287.4,140.4c-0.7,0-1.4-0.1-2.1-0.4c-0.6-0.3-1.2-0.6-1.6-1.1c-0.5-0.5-0.8-1-1.1-1.6c-0.3-0.6-0.4-1.3-0.4-2
		v0c0-0.7,0.1-1.3,0.4-2c0.3-0.6,0.6-1.1,1.1-1.6s1-0.8,1.7-1.1c0.6-0.3,1.3-0.4,2.1-0.4c0.7,0,1.4,0.1,2.1,0.4
		c0.6,0.3,1.2,0.6,1.6,1.1c0.5,0.4,0.8,1,1.1,1.6s0.4,1.3,0.4,2v0c0,0.7-0.1,1.3-0.4,2s-0.6,1.1-1.1,1.6c-0.5,0.5-1,0.8-1.7,1.1
		C288.9,140.3,288.2,140.4,287.4,140.4z M287.5,138c0.4,0,0.7-0.1,1.1-0.2c0.3-0.1,0.6-0.3,0.8-0.6c0.2-0.2,0.4-0.5,0.5-0.8
		c0.1-0.3,0.2-0.7,0.2-1v0c0-0.4-0.1-0.7-0.2-1c-0.1-0.3-0.3-0.6-0.5-0.8c-0.2-0.2-0.5-0.4-0.8-0.6s-0.7-0.2-1-0.2
		c-0.4,0-0.7,0.1-1.1,0.2c-0.3,0.1-0.6,0.3-0.8,0.6c-0.2,0.2-0.4,0.5-0.5,0.8c-0.1,0.3-0.2,0.7-0.2,1v0c0,0.4,0.1,0.7,0.2,1
		c0.1,0.3,0.3,0.6,0.5,0.8s0.5,0.4,0.8,0.6C286.7,138,287.1,138,287.5,138z"/>
	<path class="st5" d="M297.4,140.4c-0.5,0-0.9-0.1-1.3-0.2s-0.8-0.3-1.1-0.6s-0.5-0.6-0.7-0.9s-0.3-0.8-0.3-1.3v0
		c0-0.5,0.1-1,0.3-1.4c0.2-0.4,0.5-0.7,0.8-1c0.3-0.3,0.7-0.4,1.2-0.6c0.5-0.1,1-0.2,1.6-0.2c0.5,0,0.9,0,1.3,0.1
		c0.4,0.1,0.7,0.2,1.1,0.3v-0.2c0-0.6-0.2-1-0.5-1.3c-0.3-0.3-0.9-0.5-1.5-0.5c-0.5,0-1,0-1.4,0.1c-0.4,0.1-0.8,0.2-1.3,0.4
		l-0.7-2.1c0.5-0.2,1.1-0.4,1.7-0.6s1.3-0.2,2.1-0.2c0.8,0,1.4,0.1,1.9,0.3c0.5,0.2,1,0.5,1.3,0.8c0.4,0.4,0.6,0.8,0.8,1.3
		s0.3,1.1,0.3,1.8v5.6h-2.6v-1c-0.3,0.4-0.7,0.7-1.2,0.9C298.6,140.3,298.1,140.4,297.4,140.4z M298.2,138.5c0.6,0,1.2-0.2,1.6-0.5
		c0.4-0.3,0.6-0.7,0.6-1.2v-0.5c-0.2-0.1-0.5-0.2-0.8-0.3s-0.6-0.1-0.9-0.1c-0.6,0-1,0.1-1.4,0.3s-0.5,0.6-0.5,1v0
		c0,0.4,0.1,0.7,0.4,0.9C297.4,138.4,297.8,138.5,298.2,138.5z"/>
	<path class="st5" d="M309.3,140.4c-0.6,0-1.1-0.1-1.6-0.3s-1-0.5-1.4-1c-0.4-0.4-0.7-0.9-1-1.6s-0.4-1.3-0.4-2.1v0
		c0-0.8,0.1-1.5,0.4-2.1c0.2-0.6,0.6-1.1,1-1.6c0.4-0.4,0.9-0.7,1.4-1c0.5-0.2,1.1-0.3,1.7-0.3c0.7,0,1.3,0.1,1.8,0.4
		c0.5,0.3,0.9,0.6,1.2,1V127h2.7v13.1h-2.7v-1.4c-0.3,0.5-0.7,0.8-1.2,1.1C310.6,140.2,310,140.4,309.3,140.4z M310,138
		c0.3,0,0.6-0.1,0.9-0.2s0.5-0.3,0.7-0.5s0.4-0.5,0.5-0.8s0.2-0.7,0.2-1.1v0c0-0.4-0.1-0.8-0.2-1.1c-0.1-0.3-0.3-0.6-0.5-0.8
		c-0.2-0.2-0.5-0.4-0.7-0.5s-0.6-0.2-0.9-0.2s-0.6,0.1-0.9,0.2c-0.3,0.1-0.5,0.3-0.7,0.5c-0.2,0.2-0.4,0.5-0.5,0.8
		c-0.1,0.3-0.2,0.7-0.2,1.1v0c0,0.4,0.1,0.8,0.2,1.1s0.3,0.6,0.5,0.8c0.2,0.2,0.5,0.4,0.7,0.5C309.3,138,309.7,138,310,138z"/>
	<path class="st5" d="M239.9,162c-0.7,0-1.4-0.1-2-0.4c-0.6-0.3-1.1-0.6-1.6-1.1c-0.4-0.5-0.8-1-1-1.6s-0.4-1.3-0.4-1.9v0
		c0-0.7,0.1-1.3,0.4-1.9s0.6-1.1,1-1.6c0.4-0.5,1-0.8,1.6-1.1c0.6-0.3,1.3-0.4,2-0.4c0.9,0,1.7,0.1,2.3,0.4c0.6,0.3,1.1,0.7,1.6,1.2
		l-1.7,1.8c-0.3-0.3-0.6-0.6-1-0.8c-0.3-0.2-0.7-0.3-1.2-0.3c-0.3,0-0.7,0.1-0.9,0.2c-0.3,0.1-0.5,0.3-0.7,0.6
		c-0.2,0.2-0.4,0.5-0.5,0.8c-0.1,0.3-0.2,0.7-0.2,1v0c0,0.4,0.1,0.7,0.2,1c0.1,0.3,0.3,0.6,0.5,0.8c0.2,0.2,0.5,0.4,0.8,0.6
		c0.3,0.1,0.6,0.2,1,0.2c0.5,0,0.9-0.1,1.2-0.3s0.7-0.4,1-0.7l1.6,1.6c-0.5,0.5-1,0.9-1.6,1.3C241.7,161.8,240.9,162,239.9,162z"/>
	<path class="st5" d="M250.4,162c-0.7,0-1.4-0.1-2.1-0.4c-0.6-0.3-1.2-0.6-1.6-1.1c-0.5-0.5-0.8-1-1.1-1.6c-0.3-0.6-0.4-1.3-0.4-2v0
		c0-0.7,0.1-1.3,0.4-2c0.3-0.6,0.6-1.1,1.1-1.6s1-0.8,1.7-1.1c0.6-0.3,1.3-0.4,2.1-0.4c0.7,0,1.4,0.1,2.1,0.4
		c0.6,0.3,1.2,0.6,1.6,1.1c0.5,0.4,0.8,1,1.1,1.6c0.3,0.6,0.4,1.3,0.4,2v0c0,0.7-0.1,1.3-0.4,2c-0.3,0.6-0.6,1.1-1.1,1.6
		s-1,0.8-1.7,1.1C251.9,161.9,251.2,162,250.4,162z M250.4,159.6c0.4,0,0.7-0.1,1.1-0.2c0.3-0.1,0.6-0.3,0.8-0.6
		c0.2-0.2,0.4-0.5,0.5-0.8s0.2-0.7,0.2-1v0c0-0.4-0.1-0.7-0.2-1c-0.1-0.3-0.3-0.6-0.5-0.8c-0.2-0.2-0.5-0.4-0.8-0.6
		c-0.3-0.1-0.7-0.2-1-0.2c-0.4,0-0.7,0.1-1.1,0.2c-0.3,0.1-0.6,0.3-0.8,0.6c-0.2,0.2-0.4,0.5-0.5,0.8s-0.2,0.7-0.2,1v0
		c0,0.4,0.1,0.7,0.2,1c0.1,0.3,0.3,0.6,0.5,0.8c0.2,0.2,0.5,0.4,0.8,0.6C249.7,159.6,250.1,159.6,250.4,159.6z"/>
	<path class="st5" d="M262.4,162c-0.7,0-1.4-0.1-2.1-0.4c-0.6-0.3-1.2-0.6-1.6-1.1c-0.5-0.5-0.8-1-1.1-1.6c-0.3-0.6-0.4-1.3-0.4-2v0
		c0-0.7,0.1-1.3,0.4-2c0.3-0.6,0.6-1.1,1.1-1.6s1-0.8,1.7-1.1c0.6-0.3,1.3-0.4,2.1-0.4c0.7,0,1.4,0.1,2.1,0.4
		c0.6,0.3,1.2,0.6,1.6,1.1c0.5,0.4,0.8,1,1.1,1.6c0.3,0.6,0.4,1.3,0.4,2v0c0,0.7-0.1,1.3-0.4,2c-0.3,0.6-0.6,1.1-1.1,1.6
		s-1,0.8-1.7,1.1C263.8,161.9,263.1,162,262.4,162z M262.4,159.6c0.4,0,0.7-0.1,1.1-0.2c0.3-0.1,0.6-0.3,0.8-0.6
		c0.2-0.2,0.4-0.5,0.5-0.8s0.2-0.7,0.2-1v0c0-0.4-0.1-0.7-0.2-1c-0.1-0.3-0.3-0.6-0.5-0.8c-0.2-0.2-0.5-0.4-0.8-0.6
		c-0.3-0.1-0.7-0.2-1-0.2c-0.4,0-0.7,0.1-1.1,0.2c-0.3,0.1-0.6,0.3-0.8,0.6c-0.2,0.2-0.4,0.5-0.5,0.8s-0.2,0.7-0.2,1v0
		c0,0.4,0.1,0.7,0.2,1c0.1,0.3,0.3,0.6,0.5,0.8c0.2,0.2,0.5,0.4,0.8,0.6C261.7,159.6,262,159.6,262.4,159.6z"/>
	<path class="st5" d="M269.6,148.6h2.7v7l3.2-3.5h3.3l-3.7,3.8l3.8,5.9h-3.1l-2.5-3.9l-1,1v2.9h-2.7V148.6z"/>
	<path class="st5" d="M286,162c-0.7,0-1.3-0.1-1.8-0.4c-0.5-0.3-0.9-0.6-1.2-1v1.3h-2.7v-13.1h2.7v4.9c0.3-0.5,0.7-0.8,1.2-1.1
		c0.5-0.3,1.1-0.4,1.8-0.4c0.6,0,1.1,0.1,1.6,0.3c0.5,0.2,1,0.5,1.4,1c0.4,0.4,0.7,0.9,1,1.6c0.2,0.6,0.4,1.3,0.4,2.1v0
		c0,0.8-0.1,1.5-0.4,2.1c-0.2,0.6-0.6,1.1-1,1.6c-0.4,0.4-0.9,0.7-1.4,1S286.5,162,286,162z M285.3,159.6c0.3,0,0.6-0.1,0.9-0.2
		s0.5-0.3,0.7-0.5s0.4-0.5,0.5-0.8s0.2-0.7,0.2-1.1v0c0-0.4-0.1-0.8-0.2-1.1c-0.1-0.3-0.3-0.6-0.5-0.8c-0.2-0.2-0.5-0.4-0.7-0.5
		s-0.6-0.2-0.9-0.2s-0.6,0.1-0.9,0.2c-0.3,0.1-0.5,0.3-0.7,0.5c-0.2,0.2-0.4,0.5-0.5,0.8c-0.1,0.3-0.2,0.7-0.2,1.1v0
		c0,0.4,0.1,0.8,0.2,1.1s0.3,0.6,0.5,0.8s0.5,0.4,0.7,0.5C284.6,159.6,284.9,159.6,285.3,159.6z"/>
	<path class="st5" d="M297.1,162c-0.7,0-1.4-0.1-2.1-0.4s-1.2-0.6-1.6-1.1c-0.5-0.5-0.8-1-1.1-1.6c-0.3-0.6-0.4-1.3-0.4-2v0
		c0-0.7,0.1-1.3,0.4-2c0.3-0.6,0.6-1.1,1.1-1.6s1-0.8,1.7-1.1c0.6-0.3,1.3-0.4,2.1-0.4c0.7,0,1.4,0.1,2.1,0.4
		c0.6,0.3,1.2,0.6,1.6,1.1c0.5,0.4,0.8,1,1.1,1.6s0.4,1.3,0.4,2v0c0,0.7-0.1,1.3-0.4,2s-0.6,1.1-1.1,1.6s-1,0.8-1.7,1.1
		C298.6,161.9,297.9,162,297.1,162z M297.2,159.6c0.4,0,0.7-0.1,1.1-0.2c0.3-0.1,0.6-0.3,0.8-0.6c0.2-0.2,0.4-0.5,0.5-0.8
		c0.1-0.3,0.2-0.7,0.2-1v0c0-0.4-0.1-0.7-0.2-1c-0.1-0.3-0.3-0.6-0.5-0.8c-0.2-0.2-0.5-0.4-0.8-0.6c-0.3-0.1-0.7-0.2-1-0.2
		c-0.4,0-0.7,0.1-1.1,0.2c-0.3,0.1-0.6,0.3-0.8,0.6c-0.2,0.2-0.4,0.5-0.5,0.8s-0.2,0.7-0.2,1v0c0,0.4,0.1,0.7,0.2,1
		c0.1,0.3,0.3,0.6,0.5,0.8c0.2,0.2,0.5,0.4,0.8,0.6S296.8,159.6,297.2,159.6z"/>
	<path class="st5" d="M309.1,162c-0.7,0-1.4-0.1-2.1-0.4s-1.2-0.6-1.6-1.1c-0.5-0.5-0.8-1-1.1-1.6c-0.3-0.6-0.4-1.3-0.4-2v0
		c0-0.7,0.1-1.3,0.4-2c0.3-0.6,0.6-1.1,1.1-1.6s1-0.8,1.7-1.1c0.6-0.3,1.3-0.4,2.1-0.4c0.7,0,1.4,0.1,2.1,0.4
		c0.6,0.3,1.2,0.6,1.6,1.1c0.5,0.4,0.8,1,1.1,1.6s0.4,1.3,0.4,2v0c0,0.7-0.1,1.3-0.4,2s-0.6,1.1-1.1,1.6s-1,0.8-1.7,1.1
		C310.5,161.9,309.8,162,309.1,162z M309.1,159.6c0.4,0,0.7-0.1,1.1-0.2c0.3-0.1,0.6-0.3,0.8-0.6c0.2-0.2,0.4-0.5,0.5-0.8
		c0.1-0.3,0.2-0.7,0.2-1v0c0-0.4-0.1-0.7-0.2-1c-0.1-0.3-0.3-0.6-0.5-0.8c-0.2-0.2-0.5-0.4-0.8-0.6c-0.3-0.1-0.7-0.2-1-0.2
		c-0.4,0-0.7,0.1-1.1,0.2c-0.3,0.1-0.6,0.3-0.8,0.6c-0.2,0.2-0.4,0.5-0.5,0.8s-0.2,0.7-0.2,1v0c0,0.4,0.1,0.7,0.2,1
		c0.1,0.3,0.3,0.6,0.5,0.8c0.2,0.2,0.5,0.4,0.8,0.6S308.7,159.6,309.1,159.6z"/>
	<path class="st5" d="M316.3,148.6h2.7v7l3.2-3.5h3.3l-3.7,3.8l3.8,5.9h-3.1l-2.5-3.9l-1,1v2.9h-2.7V148.6z"/>
	<path class="st5" d="M330.3,162c-0.7,0-1.4-0.1-2.1-0.4s-1.4-0.6-2-1.1l1.2-1.8c0.5,0.4,1.1,0.7,1.6,0.9c0.5,0.2,1,0.3,1.5,0.3
		c0.4,0,0.7-0.1,0.9-0.2c0.2-0.1,0.3-0.3,0.3-0.5v0c0-0.1-0.1-0.3-0.2-0.4s-0.3-0.2-0.4-0.3c-0.2-0.1-0.4-0.2-0.6-0.2
		c-0.2-0.1-0.5-0.1-0.8-0.2c-0.3-0.1-0.7-0.2-1-0.4c-0.3-0.1-0.7-0.3-0.9-0.5c-0.3-0.2-0.5-0.5-0.7-0.8c-0.2-0.3-0.3-0.7-0.3-1.2v0
		c0-0.5,0.1-0.9,0.3-1.3c0.2-0.4,0.4-0.7,0.8-1c0.3-0.3,0.7-0.5,1.1-0.6c0.4-0.1,0.9-0.2,1.4-0.2c0.6,0,1.2,0.1,1.9,0.3
		c0.6,0.2,1.2,0.5,1.7,0.8l-1,1.9c-0.5-0.3-0.9-0.5-1.4-0.7s-0.9-0.2-1.2-0.2c-0.3,0-0.6,0.1-0.8,0.2s-0.3,0.3-0.3,0.5v0
		c0,0.1,0.1,0.2,0.2,0.4s0.3,0.2,0.4,0.3c0.2,0.1,0.4,0.2,0.6,0.3c0.2,0.1,0.5,0.2,0.7,0.3c0.3,0.1,0.7,0.2,1,0.4
		c0.3,0.1,0.7,0.3,0.9,0.5s0.5,0.5,0.7,0.8c0.2,0.3,0.3,0.7,0.3,1.1v0c0,0.5-0.1,1-0.3,1.4c-0.2,0.4-0.4,0.7-0.8,1s-0.7,0.4-1.2,0.6
		C331.3,161.9,330.8,162,330.3,162z"/>
</g>
<g>
	<path class="st5" d="M419.3,143h2.7v1.9c0.3-0.7,0.7-1.2,1.1-1.6c0.5-0.4,1.1-0.6,1.9-0.5v2.9H425c-0.9,0-1.6,0.3-2.2,0.8
		c-0.5,0.6-0.8,1.4-0.8,2.6v3.6h-2.7V143z"/>
	<path class="st5" d="M430.1,152.8c-1,0-1.9-0.3-2.4-1c-0.6-0.6-0.9-1.5-0.9-2.6V143h2.7v5.4c0,0.6,0.1,1.1,0.4,1.5s0.7,0.5,1.2,0.5
		s0.9-0.2,1.3-0.5s0.5-0.8,0.5-1.5V143h2.7v9.6h-2.7v-1.4c-0.2,0.2-0.3,0.4-0.5,0.6c-0.2,0.2-0.4,0.4-0.6,0.5
		c-0.2,0.1-0.5,0.3-0.8,0.3C430.7,152.8,430.4,152.8,430.1,152.8z"/>
	<path class="st5" d="M438.1,143h2.7v1.4c0.2-0.2,0.3-0.4,0.5-0.6c0.2-0.2,0.4-0.4,0.6-0.5c0.2-0.1,0.5-0.3,0.8-0.3
		c0.3-0.1,0.6-0.1,0.9-0.1c1,0,1.9,0.3,2.4,1c0.6,0.6,0.9,1.5,0.9,2.6v6.2h-2.7v-5.4c0-0.6-0.1-1.1-0.4-1.5
		c-0.3-0.3-0.7-0.5-1.2-0.5s-0.9,0.2-1.3,0.5s-0.5,0.8-0.5,1.5v5.4h-2.7V143z"/>
	<path class="st5" d="M459.2,152.9c-0.7,0-1.4-0.1-2-0.4c-0.6-0.3-1.1-0.6-1.6-1.1c-0.4-0.5-0.8-1-1-1.6s-0.4-1.3-0.4-1.9v0
		c0-0.7,0.1-1.3,0.4-1.9s0.6-1.1,1-1.6c0.4-0.5,1-0.8,1.6-1.1c0.6-0.3,1.3-0.4,2-0.4c0.9,0,1.7,0.1,2.3,0.4c0.6,0.3,1.1,0.7,1.6,1.2
		l-1.7,1.8c-0.3-0.3-0.6-0.6-1-0.8c-0.3-0.2-0.7-0.3-1.2-0.3c-0.3,0-0.7,0.1-0.9,0.2c-0.3,0.1-0.5,0.3-0.7,0.6
		c-0.2,0.2-0.4,0.5-0.5,0.8s-0.2,0.7-0.2,1v0c0,0.4,0.1,0.7,0.2,1c0.1,0.3,0.3,0.6,0.5,0.8c0.2,0.2,0.5,0.4,0.8,0.6
		c0.3,0.1,0.6,0.2,1,0.2c0.5,0,0.9-0.1,1.2-0.3c0.3-0.2,0.7-0.4,1-0.7l1.6,1.6c-0.5,0.5-1,0.9-1.6,1.3
		C461,152.7,460.2,152.9,459.2,152.9z"/>
	<path class="st5" d="M465,139.5h2.7v4.9c0.2-0.2,0.3-0.4,0.5-0.6c0.2-0.2,0.4-0.4,0.6-0.5c0.2-0.1,0.5-0.3,0.8-0.3
		c0.3-0.1,0.6-0.1,0.9-0.1c1,0,1.9,0.3,2.4,1c0.6,0.6,0.9,1.5,0.9,2.6v6.2h-2.7v-5.4c0-0.6-0.1-1.1-0.4-1.5
		c-0.3-0.3-0.7-0.5-1.2-0.5s-0.9,0.2-1.3,0.5s-0.5,0.8-0.5,1.5v5.4H465V139.5z"/>
	<path class="st5" d="M480.8,152.9c-0.7,0-1.4-0.1-2-0.4s-1.2-0.6-1.6-1c-0.4-0.4-0.8-1-1.1-1.6c-0.3-0.6-0.4-1.3-0.4-2v0
		c0-0.7,0.1-1.3,0.4-1.9c0.2-0.6,0.6-1.1,1-1.6s0.9-0.8,1.5-1.1c0.6-0.3,1.2-0.4,1.9-0.4c0.8,0,1.5,0.1,2.1,0.4s1.1,0.7,1.5,1.2
		c0.4,0.5,0.7,1,0.9,1.7c0.2,0.6,0.3,1.3,0.3,2c0,0.1,0,0.2,0,0.3c0,0.1,0,0.2,0,0.4h-6.7c0.1,0.6,0.4,1.1,0.8,1.4
		c0.4,0.3,0.9,0.5,1.5,0.5c0.5,0,0.9-0.1,1.2-0.2c0.4-0.2,0.7-0.4,1.1-0.8l1.6,1.4c-0.5,0.6-1,1-1.7,1.3
		C482.4,152.7,481.6,152.9,480.8,152.9z M482.5,147.1c-0.1-0.6-0.3-1.1-0.6-1.5c-0.3-0.4-0.8-0.6-1.4-0.6c-0.6,0-1,0.2-1.4,0.6
		c-0.4,0.4-0.6,0.9-0.7,1.5H482.5z"/>
	<path class="st5" d="M487.7,145.4h-1.1v-2.2h1.1v-0.6c0-1,0.3-1.8,0.8-2.3c0.5-0.5,1.2-0.8,2.2-0.8c0.4,0,0.8,0,1.1,0.1
		s0.6,0.1,0.8,0.2v2.3c-0.2-0.1-0.4-0.1-0.6-0.2c-0.2,0-0.4-0.1-0.6-0.1c-0.7,0-1,0.3-1,1v0.4h2.2v2.2h-2.2v7.3h-2.7V145.4z"/>
	<path class="st5" d="M493.8,145.8h5.5v2.6h-5.5V145.8z"/>
	<path class="st5" d="M506,152.9c-0.7,0-1.4-0.1-2-0.4c-0.6-0.3-1.1-0.6-1.6-1.1c-0.4-0.5-0.8-1-1-1.6s-0.4-1.3-0.4-1.9v0
		c0-0.7,0.1-1.3,0.4-1.9s0.6-1.1,1-1.6c0.4-0.5,1-0.8,1.6-1.1c0.6-0.3,1.3-0.4,2-0.4c0.9,0,1.7,0.1,2.3,0.4c0.6,0.3,1.1,0.7,1.6,1.2
		l-1.7,1.8c-0.3-0.3-0.6-0.6-1-0.8c-0.3-0.2-0.7-0.3-1.2-0.3c-0.3,0-0.7,0.1-0.9,0.2c-0.3,0.1-0.5,0.3-0.7,0.6
		c-0.2,0.2-0.4,0.5-0.5,0.8s-0.2,0.7-0.2,1v0c0,0.4,0.1,0.7,0.2,1c0.1,0.3,0.3,0.6,0.5,0.8c0.2,0.2,0.5,0.4,0.8,0.6
		c0.3,0.1,0.6,0.2,1,0.2c0.5,0,0.9-0.1,1.2-0.3c0.3-0.2,0.7-0.4,1-0.7l1.6,1.6c-0.5,0.5-1,0.9-1.6,1.3
		C507.7,152.7,507,152.9,506,152.9z"/>
	<path class="st5" d="M511.8,139.5h2.7v13.1h-2.7V139.5z"/>
	<path class="st5" d="M517.2,139.5h2.9v2.4h-2.9V139.5z M517.3,143h2.7v9.6h-2.7V143z"/>
	<path class="st5" d="M527.2,152.9c-0.7,0-1.4-0.1-2-0.4s-1.2-0.6-1.6-1c-0.4-0.4-0.8-1-1.1-1.6c-0.3-0.6-0.4-1.3-0.4-2v0
		c0-0.7,0.1-1.3,0.4-1.9c0.2-0.6,0.6-1.1,1-1.6s0.9-0.8,1.5-1.1c0.6-0.3,1.2-0.4,1.9-0.4c0.8,0,1.5,0.1,2.1,0.4s1.1,0.7,1.5,1.2
		c0.4,0.5,0.7,1,0.9,1.7c0.2,0.6,0.3,1.3,0.3,2c0,0.1,0,0.2,0,0.3c0,0.1,0,0.2,0,0.4h-6.7c0.1,0.6,0.4,1.1,0.8,1.4
		c0.4,0.3,0.9,0.5,1.5,0.5c0.5,0,0.9-0.1,1.2-0.2c0.4-0.2,0.7-0.4,1.1-0.8l1.6,1.4c-0.5,0.6-1,1-1.7,1.3
		C528.8,152.7,528,152.9,527.2,152.9z M528.9,147.1c-0.1-0.6-0.3-1.1-0.6-1.5c-0.3-0.4-0.8-0.6-1.4-0.6c-0.6,0-1,0.2-1.4,0.6
		c-0.4,0.4-0.6,0.9-0.7,1.5H528.9z"/>
	<path class="st5" d="M533.6,143h2.7v1.4c0.2-0.2,0.3-0.4,0.5-0.6c0.2-0.2,0.4-0.4,0.6-0.5c0.2-0.1,0.5-0.3,0.8-0.3
		c0.3-0.1,0.6-0.1,0.9-0.1c1,0,1.9,0.3,2.4,1c0.6,0.6,0.9,1.5,0.9,2.6v6.2h-2.7v-5.4c0-0.6-0.1-1.1-0.4-1.5
		c-0.3-0.3-0.7-0.5-1.2-0.5s-0.9,0.2-1.3,0.5s-0.5,0.8-0.5,1.5v5.4h-2.7V143z"/>
	<path class="st5" d="M548.1,152.8c-0.4,0-0.8,0-1.1-0.1c-0.3-0.1-0.6-0.2-0.9-0.5c-0.2-0.2-0.4-0.5-0.6-0.9s-0.2-0.8-0.2-1.4v-4.6
		h-1.2V143h1.2v-2.5h2.7v2.5h2.3v2.3H548v4.1c0,0.6,0.3,0.9,0.9,0.9c0.5,0,0.9-0.1,1.3-0.4v2.2c-0.3,0.2-0.6,0.3-1,0.4
		C549,152.8,548.5,152.8,548.1,152.8z"/>
</g>
<g>
	<path class="st5" d="M630.7,152.8c-0.7,0-1.4-0.1-2.1-0.4s-1.4-0.6-2-1.1l1.2-1.8c0.5,0.4,1.1,0.7,1.6,0.9c0.5,0.2,1,0.3,1.5,0.3
		c0.4,0,0.7-0.1,0.9-0.2c0.2-0.1,0.3-0.3,0.3-0.5v0c0-0.1-0.1-0.3-0.2-0.4s-0.3-0.2-0.4-0.3c-0.2-0.1-0.4-0.2-0.6-0.2
		c-0.2-0.1-0.5-0.1-0.8-0.2c-0.3-0.1-0.7-0.2-1-0.4c-0.3-0.1-0.7-0.3-0.9-0.5c-0.3-0.2-0.5-0.5-0.7-0.8c-0.2-0.3-0.3-0.7-0.3-1.2v0
		c0-0.5,0.1-0.9,0.3-1.3c0.2-0.4,0.4-0.7,0.8-1c0.3-0.3,0.7-0.5,1.1-0.6c0.4-0.1,0.9-0.2,1.4-0.2c0.6,0,1.2,0.1,1.9,0.3
		c0.6,0.2,1.2,0.5,1.7,0.8l-1,1.9c-0.5-0.3-0.9-0.5-1.4-0.7s-0.9-0.2-1.2-0.2c-0.3,0-0.6,0.1-0.8,0.2s-0.3,0.3-0.3,0.5v0
		c0,0.1,0.1,0.2,0.2,0.4s0.3,0.2,0.4,0.3c0.2,0.1,0.4,0.2,0.6,0.3c0.2,0.1,0.5,0.2,0.7,0.3c0.3,0.1,0.7,0.2,1,0.4
		c0.3,0.1,0.7,0.3,0.9,0.5s0.5,0.5,0.7,0.8c0.2,0.3,0.3,0.7,0.3,1.1v0c0,0.5-0.1,1-0.3,1.4c-0.2,0.4-0.4,0.7-0.8,1s-0.7,0.4-1.2,0.6
		C631.7,152.8,631.2,152.8,630.7,152.8z"/>
	<path class="st5" d="M640.9,152.9c-0.7,0-1.4-0.1-2-0.4c-0.6-0.3-1.1-0.6-1.6-1.1c-0.4-0.5-0.8-1-1-1.6s-0.4-1.3-0.4-1.9v0
		c0-0.7,0.1-1.3,0.4-1.9s0.6-1.1,1-1.6c0.4-0.5,1-0.8,1.6-1.1c0.6-0.3,1.3-0.4,2-0.4c0.9,0,1.7,0.1,2.3,0.4c0.6,0.3,1.1,0.7,1.6,1.2
		l-1.7,1.8c-0.3-0.3-0.6-0.6-1-0.8c-0.3-0.2-0.7-0.3-1.2-0.3c-0.3,0-0.7,0.1-0.9,0.2c-0.3,0.1-0.5,0.3-0.7,0.6
		c-0.2,0.2-0.4,0.5-0.5,0.8s-0.2,0.7-0.2,1v0c0,0.4,0.1,0.7,0.2,1c0.1,0.3,0.3,0.6,0.5,0.8c0.2,0.2,0.5,0.4,0.8,0.6
		c0.3,0.1,0.6,0.2,1,0.2c0.5,0,0.9-0.1,1.2-0.3c0.3-0.2,0.7-0.4,1-0.7l1.6,1.6c-0.5,0.5-1,0.9-1.6,1.3
		C642.7,152.7,641.9,152.9,640.9,152.9z"/>
	<path class="st5" d="M649.4,152.8c-0.5,0-0.9-0.1-1.3-0.2s-0.8-0.3-1.1-0.6s-0.5-0.6-0.7-0.9s-0.3-0.8-0.3-1.3v0
		c0-0.5,0.1-1,0.3-1.4c0.2-0.4,0.5-0.7,0.8-1c0.3-0.3,0.7-0.4,1.2-0.6c0.5-0.1,1-0.2,1.6-0.2c0.5,0,0.9,0,1.3,0.1
		c0.4,0.1,0.7,0.2,1.1,0.3V147c0-0.6-0.2-1-0.5-1.3c-0.3-0.3-0.9-0.5-1.5-0.5c-0.5,0-1,0-1.4,0.1c-0.4,0.1-0.8,0.2-1.3,0.4l-0.7-2.1
		c0.5-0.2,1.1-0.4,1.7-0.6s1.3-0.2,2.1-0.2c0.8,0,1.4,0.1,1.9,0.3c0.5,0.2,1,0.5,1.3,0.8c0.4,0.4,0.6,0.8,0.8,1.3s0.3,1.1,0.3,1.8
		v5.6h-2.6v-1c-0.3,0.4-0.7,0.7-1.2,0.9C650.6,152.7,650.1,152.8,649.4,152.8z M650.2,151c0.6,0,1.2-0.2,1.6-0.5
		c0.4-0.3,0.6-0.7,0.6-1.2v-0.5c-0.2-0.1-0.5-0.2-0.8-0.3s-0.6-0.1-0.9-0.1c-0.6,0-1,0.1-1.4,0.3s-0.5,0.6-0.5,1v0
		c0,0.4,0.1,0.7,0.4,0.9C649.4,150.8,649.8,151,650.2,151z"/>
	<path class="st5" d="M657.3,143h2.7v1.4c0.2-0.2,0.3-0.4,0.5-0.6c0.2-0.2,0.4-0.4,0.6-0.5c0.2-0.1,0.5-0.3,0.8-0.3
		c0.3-0.1,0.6-0.1,0.9-0.1c1,0,1.9,0.3,2.4,1c0.6,0.6,0.9,1.5,0.9,2.6v6.2h-2.7v-5.4c0-0.6-0.1-1.1-0.4-1.5
		c-0.3-0.3-0.7-0.5-1.2-0.5s-0.9,0.2-1.3,0.5s-0.5,0.8-0.5,1.5v5.4h-2.7V143z"/>
	<path class="st5" d="M681.2,151.4c-0.5,0.4-1.1,0.8-1.7,1c-0.6,0.3-1.3,0.4-2,0.4c-0.6,0-1.2-0.1-1.7-0.3c-0.5-0.2-1-0.4-1.3-0.7
		s-0.7-0.7-0.9-1.1c-0.2-0.4-0.3-0.9-0.3-1.5v0c0-0.8,0.2-1.5,0.6-2.1c0.4-0.6,1-1,1.8-1.4c-0.3-0.4-0.5-0.9-0.7-1.3
		c-0.1-0.4-0.2-0.8-0.2-1.3v0c0-0.4,0.1-0.8,0.3-1.2s0.4-0.7,0.7-1.1c0.3-0.3,0.7-0.6,1.2-0.7c0.5-0.2,1-0.3,1.6-0.3
		c0.5,0,1,0.1,1.5,0.2c0.4,0.2,0.8,0.4,1.1,0.7c0.3,0.3,0.6,0.6,0.7,1c0.2,0.4,0.3,0.8,0.3,1.2v0c0,0.4-0.1,0.8-0.2,1.1
		c-0.1,0.3-0.3,0.6-0.5,0.9c-0.2,0.3-0.5,0.5-0.8,0.7c-0.3,0.2-0.7,0.4-1.1,0.5l1.7,1.7c0.2-0.3,0.4-0.7,0.6-1
		c0.2-0.4,0.4-0.7,0.6-1.1l2,1.1c-0.2,0.4-0.5,0.9-0.8,1.4s-0.6,0.9-0.9,1.3l1.9,1.9l-2,1.4L681.2,151.4z M677.9,150.6
		c0.3,0,0.6-0.1,0.9-0.2c0.3-0.1,0.6-0.3,0.9-0.5l-2.4-2.4c-0.4,0.2-0.7,0.5-0.9,0.8s-0.3,0.6-0.3,0.9v0c0,0.4,0.2,0.8,0.5,1.1
		C676.9,150.4,677.3,150.6,677.9,150.6z M678.1,144.9c0.6-0.2,1-0.4,1.3-0.7c0.3-0.3,0.4-0.6,0.4-1v0c0-0.4-0.1-0.6-0.3-0.9
		s-0.5-0.3-0.9-0.3c-0.4,0-0.7,0.1-0.9,0.4c-0.2,0.2-0.3,0.5-0.3,0.9v0c0,0.3,0.1,0.5,0.2,0.8C677.7,144.3,677.9,144.6,678.1,144.9z
		"/>
	<path class="st5" d="M691,143h2.9l2.2,6.5l2.2-6.5h2.8l-3.8,9.7h-2.5L691,143z"/>
	<path class="st5" d="M707.2,152.9c-0.7,0-1.4-0.1-2-0.4s-1.2-0.6-1.6-1c-0.4-0.4-0.8-1-1.1-1.6c-0.3-0.6-0.4-1.3-0.4-2v0
		c0-0.7,0.1-1.3,0.4-1.9c0.2-0.6,0.6-1.1,1-1.6s0.9-0.8,1.5-1.1c0.6-0.3,1.2-0.4,1.9-0.4c0.8,0,1.5,0.1,2.1,0.4s1.1,0.7,1.5,1.2
		c0.4,0.5,0.7,1,0.9,1.7c0.2,0.6,0.3,1.3,0.3,2c0,0.1,0,0.2,0,0.3c0,0.1,0,0.2,0,0.4h-6.7c0.1,0.6,0.4,1.1,0.8,1.4
		c0.4,0.3,0.9,0.5,1.5,0.5c0.5,0,0.9-0.1,1.2-0.2c0.4-0.2,0.7-0.4,1.1-0.8l1.6,1.4c-0.5,0.6-1,1-1.7,1.3
		C708.9,152.7,708.1,152.9,707.2,152.9z M709,147.1c-0.1-0.6-0.3-1.1-0.6-1.5c-0.3-0.4-0.8-0.6-1.4-0.6c-0.6,0-1,0.2-1.4,0.6
		c-0.4,0.4-0.6,0.9-0.7,1.5H709z"/>
	<path class="st5" d="M713.7,143h2.7v1.9c0.3-0.7,0.7-1.2,1.1-1.6c0.5-0.4,1.1-0.6,1.9-0.5v2.9h-0.1c-0.9,0-1.6,0.3-2.2,0.8
		c-0.5,0.6-0.8,1.4-0.8,2.6v3.6h-2.7V143z"/>
	<path class="st5" d="M721.3,139.5h2.9v2.4h-2.9V139.5z M721.3,143h2.7v9.6h-2.7V143z"/>
	<path class="st5" d="M727.1,145.4H726v-2.2h1.1v-0.6c0-1,0.3-1.8,0.8-2.3c0.5-0.5,1.2-0.8,2.2-0.8c0.4,0,0.8,0,1.1,0.1
		s0.6,0.1,0.8,0.2v2.3c-0.2-0.1-0.4-0.1-0.6-0.2c-0.2,0-0.4-0.1-0.6-0.1c-0.7,0-1,0.3-1,1v0.4h2.2v2.2h-2.2v7.3h-2.7V145.4z"/>
	<path class="st5" d="M735.8,155.6c-0.5,0-0.9-0.1-1.3-0.2c-0.4-0.1-0.8-0.3-1.1-0.5l0.9-2c0.2,0.1,0.4,0.2,0.6,0.3
		c0.2,0.1,0.4,0.1,0.6,0.1c0.2,0,0.4,0,0.6-0.1c0.1-0.1,0.3-0.3,0.4-0.5l-3.8-9.7h2.9l2.2,6.6l2.1-6.6h2.8l-3.7,9.9
		c-0.2,0.5-0.4,0.9-0.6,1.3c-0.2,0.3-0.4,0.6-0.7,0.8c-0.2,0.2-0.5,0.4-0.8,0.5C736.6,155.5,736.2,155.6,735.8,155.6z"/>
</g>
<g>
	<g>
		<path class="st5" d="M678.6,105.2c-22.7,0-41.2-18.5-41.2-41.2s18.5-41.2,41.2-41.2s41.2,18.5,41.2,41.2S701.3,105.2,678.6,105.2
			L678.6,105.2z M678.6,31.1c-18.1,0-32.9,14.8-32.9,32.9c0,18.1,14.8,32.9,32.9,32.9c18.2,0,32.9-14.8,32.9-32.9
			C711.5,45.9,696.7,31.1,678.6,31.1L678.6,31.1z"/>
	</g>
	<g>
		<path class="st5" d="M655.4,64h-4.1c0-15,12.2-27.3,27.3-27.3v4.1C665.8,40.9,655.5,51.3,655.4,64L655.4,64z"/>
	</g>
	<g>
		<path class="st5" d="M727.7,118.8c-1.1,0-2.1-0.4-2.9-1.2l-23-23c-1.6-1.6-1.6-4.2,0-5.8s4.2-1.6,5.8,0l23,23
			c1.6,1.6,1.6,4.2,0,5.8C729.8,118.4,728.7,118.8,727.7,118.8L727.7,118.8z"/>
	</g>
</g>
<g>
	<g>
		<path class="st5" d="M681.1,72.4c-0.3,0-0.6-0.1-0.8-0.4l-3-3.1c-0.4-0.5-0.4-1.2,0-1.6c0.5-0.4,1.2-0.4,1.6,0l2.1,2.2l5.8-7
			c0.4-0.5,1.1-0.6,1.6-0.1c0.5,0.4,0.6,1.1,0.1,1.6l-6.6,8C681.8,72.3,681.4,72.4,681.1,72.4L681.1,72.4L681.1,72.4z"/>
	</g>
	<g>
		<path class="st5" d="M695.4,81.5h-25.1c-0.6,0-1.1-0.5-1.1-1.1V55.3c0-0.6,0.5-1.1,1.1-1.1h25.1c0.6,0,1.1,0.5,1.1,1.1v25.1
			C696.6,81,696,81.5,695.4,81.5L695.4,81.5z M671.5,79.3h22.8V56.5h-22.8V79.3L671.5,79.3z"/>
	</g>
</g>
<g>
	<g>
		<path class="st5" d="M485.4,88.8c-9.7,0-17.6-7.9-17.6-17.6s7.9-17.6,17.6-17.6c8,0,14.8,5.4,16.9,12.7h6.8
			c-2.3-11-12-19.3-23.7-19.3c-13.3,0-24.2,10.9-24.2,24.2c0,13.3,10.9,24.2,24.2,24.2c11.7,0,21.4-8.3,23.7-19.3h-6.8
			C500.2,83.4,493.4,88.8,485.4,88.8"/>
		<path class="st5" d="M473.5,83.1c3,3,7.2,4.9,11.9,4.9v-7c-2.7,0-5.1-1.1-6.9-2.9L473.5,83.1z"/>
		<path class="st5" d="M468.6,71.2c0,2.4,0.5,4.7,1.4,6.8l6.4-2.8c-0.5-1.2-0.8-2.5-0.8-3.9c0-5.4,4.4-9.8,9.8-9.8v-7
			C476.1,54.4,468.6,62,468.6,71.2"/>
		<path class="st5" d="M491.5,55.6l-2.5,6.5c2.1,0.8,3.8,2.3,4.9,4.2h7.6C499.9,61.4,496.2,57.4,491.5,55.6"/>
		<path class="st5" d="M488.9,80.3l2.5,6.5c4.8-1.9,8.5-5.8,10-10.8h-7.6C492.7,78,491,79.5,488.9,80.3"/>
		<path class="st5" d="M454.3,80.6c-0.1-0.4-0.2-0.7-0.3-1.1c0,0,0,0,0-0.1c-0.1-0.3-0.2-0.7-0.3-1c0-0.1,0-0.1,0-0.2
			c-0.1-0.3-0.1-0.6-0.2-0.9c0-0.1,0-0.3-0.1-0.4c0-0.2-0.1-0.5-0.1-0.7s-0.1-0.4-0.1-0.6c-0.2-1.4-0.3-2.9-0.3-4.3h-6.6
			c0,1.6,0.1,3.2,0.3,4.7l0,0v0.1c0.1,0.4,0.1,0.8,0.2,1.3c0,0.1,0,0.2,0.1,0.3c0.1,0.3,0.1,0.7,0.2,1c0,0.2,0.1,0.4,0.1,0.5
			c0.1,0.3,0.1,0.5,0.2,0.8c0.1,0.2,0.1,0.5,0.2,0.7c0.1,0.2,0.1,0.4,0.2,0.6c0.1,0.3,0.2,0.6,0.2,0.8c0,0.1,0.1,0.2,0.1,0.3l0,0
			c0.5,1.5,1,3,1.6,4.4l6.1-2.7C455.2,83.1,454.7,81.8,454.3,80.6z"/>
		<path class="st5" d="M485.4,103.6c-8.9,0-17.1-3.6-22.9-9.5l-4.7,4.7c7.1,7.1,16.8,11.4,27.6,11.4c19.9,0,36.4-14.9,38.8-34.2
			h-6.7C515.1,91.7,501.6,103.6,485.4,103.6"/>
		<path class="st5" d="M485.4,38.8c7.3,0,14,2.4,19.4,6.5l4-5.3c-6.5-4.9-14.6-7.8-23.4-7.8c-16.6,0-30.7,10.3-36.4,24.9l6.2,2.4
			C459.9,47.4,471.6,38.8,485.4,38.8"/>
		<path class="st5" d="M517.5,66.3h6.7c-0.7-5.7-2.7-11.1-5.6-15.8L513,54C515.2,57.7,516.8,61.9,517.5,66.3"/>
		<path class="st5" d="M509.9,66.3h6.7c-1.8-11.3-9.5-20.6-19.8-24.6l-2.4,6.2C502.3,51,508.2,57.9,509.9,66.3"/>
		<path class="st5" d="M485.4,46.2L485.4,46.2v-6.6l0,0c-13.4,0-24.9,8.4-29.5,20.2l6.2,2.4C465.7,52.8,474.8,46.2,485.4,46.2"/>
		<path class="st5" d="M460.4,71.2L460.4,71.2h-6.6l0,0c0,13.3,8.2,24.7,19.9,29.4l2.5-6.1C466.9,90.7,460.4,81.7,460.4,71.2"/>
		<path class="st5" d="M485.4,96.2v6.6c15.8,0,28.9-11.6,31.2-26.7h-6.7C507.6,87.6,497.5,96.2,485.4,96.2"/>
	</g>
	<rect x="432" y="19" class="st12" width="105.2" height="104.7"/>
</g>
<g>
	<g>
		<g>
			<path class="st5" d="M315.4,47.7c0,0.8-0.3,1.7-0.8,2.4c-1.3,1.8-3.9,2.2-5.7,0.9l-24.5-17.8L259.9,51c-1.8,1.3-4.4,0.9-5.7-0.9
				s-0.9-4.4,0.9-5.7L282,24.8c1.4-1,3.4-1,4.8,0l26.9,19.6C314.9,45.2,315.4,46.4,315.4,47.7L315.4,47.7z"/>
		</g>
		<g>
			<path class="st5" d="M288.6,28.1v50.6c0,2.3-1.8,4.1-4.1,4.1c-2.3,0-4.1-1.8-4.1-4.1V28.1c0-2.3,1.8-4.1,4.1-4.1
				C286.7,24,288.6,25.9,288.6,28.1L288.6,28.1z"/>
		</g>
	</g>
	<g>
		<path class="st5" d="M331.9,112.8c0,2.3-1.8,4.1-4.1,4.1h-86.7c-2.3,0-4.1-1.8-4.1-4.1c0-2.3,1.8-4.1,4.1-4.1h86.8
			C330.1,108.7,331.9,110.6,331.9,112.8L331.9,112.8z"/>
	</g>
	<g>
		<g>
			<path class="st5" d="M331.9,58.3v54.5c0,2.3-1.8,4.1-4.1,4.1c-2.3,0-4.1-1.8-4.1-4.1V58.3c0-2.3,1.8-4.1,4.1-4.1
				C330.1,54.2,331.9,56,331.9,58.3L331.9,58.3z"/>
		</g>
		<g>
			<path class="st5" d="M245.2,58.3v54.5c0,2.3-1.8,4.1-4.1,4.1s-4.1-1.8-4.1-4.1V58.3c0-2.3,1.8-4.1,4.1-4.1
				C243.3,54.2,245.2,56,245.2,58.3L245.2,58.3z"/>
		</g>
	</g>
</g>
<g>
</g>
<g>
</g>
<g>
</g>
<g>
</g>
<g>
</g>
<g>
</g>
<g>
</g>
<g>
</g>
<g>
</g>
<g>
</g>
<g>
</g>
<g>
</g>
<g>
</g>
<g>
</g>
<g>
</g>
</svg>
