<svg id="Layer_1" data-name="Layer 1" xmlns="http://www.w3.org/2000/svg" viewBox="0 0 476.9 169.2"><defs><style>.cls-1{fill:#465565;}.cls-2{fill:#fff;}.cls-3{fill:#59b7b2;}.cls-4{opacity:0;}.cls-5,.cls-6{fill:none;stroke-miterlimit:10;}.cls-5{stroke:#fff;stroke-width:4px;}.cls-6{stroke:#414548;stroke-linecap:square;stroke-width:8px;}.cls-7{fill:#414548;}</style></defs><title>compliance-winrm-node</title><rect class="cls-1" x="307.7" width="169.2" height="169.2"/><path class="cls-2" d="M441.8,129.9h-99a3.59,3.59,0,0,1-3.6-3.6h0V98a3.59,3.59,0,0,1,3.6-3.6h99a3.59,3.59,0,0,1,3.6,3.6h0v28.3a3.52,3.52,0,0,1-3.6,3.6h0Zm-95.3-7.2h91.7v-21H346.5v21h0Z"/><path class="cls-2" d="M356.3,107.9a4.3,4.3,0,1,0,4.3,4.3h0a4.4,4.4,0,0,0-4.3-4.3h0Z"/><path class="cls-2" d="M370.2,107.9a4.3,4.3,0,1,0,4.3,4.3h0a4.33,4.33,0,0,0-4.3-4.3h0Z"/><path class="cls-2" d="M384.1,107.9a4.3,4.3,0,1,0,4.3,4.3h0a4.27,4.27,0,0,0-4.3-4.3h0Z"/><path class="cls-2" d="M441.8,91.4h-99a3.59,3.59,0,0,1-3.6-3.6h0V59.5a3.59,3.59,0,0,1,3.6-3.6h99a3.59,3.59,0,0,1,3.6,3.6h0V87.8a3.52,3.52,0,0,1-3.6,3.6h0Zm-95.3-7.3h91.7v-21H346.5v21h0Z"/><path class="cls-2" d="M356.3,69.3a4.3,4.3,0,1,0,4.3,4.3h0a4.47,4.47,0,0,0-4.3-4.3h0Z"/><path class="cls-2" d="M370.2,69.3a4.3,4.3,0,1,0,4.3,4.3h0a4.4,4.4,0,0,0-4.3-4.3h0Z"/><path class="cls-2" d="M384.1,69.3a4.3,4.3,0,1,0,4.3,4.3h0a4.33,4.33,0,0,0-4.3-4.3h0Z"/><path class="cls-2" d="M441.8,52.9h-99a3.59,3.59,0,0,1-3.6-3.6h0V21a3.59,3.59,0,0,1,3.6-3.6h99a3.59,3.59,0,0,1,3.6,3.6h0V49.2a3.61,3.61,0,0,1-3.6,3.7h0Zm-95.3-7.3h91.7v-21H346.5v21h0Z"/><path class="cls-2" d="M356.3,30.8a4.3,4.3,0,1,0,4.3,4.3h0a4.4,4.4,0,0,0-4.3-4.3h0Z"/><path class="cls-2" d="M370.2,30.8a4.3,4.3,0,1,0,4.3,4.3h0a4.33,4.33,0,0,0-4.3-4.3h0Z"/><path class="cls-2" d="M384.1,30.8a4.3,4.3,0,1,0,4.3,4.3h0a4.27,4.27,0,0,0-4.3-4.3h0Z"/><path class="cls-2" d="M370.4,146.2h2.7v1.4a3.56,3.56,0,0,1,2.8-1.6c2.1,0,3.3,1.4,3.3,3.6v6.2h-2.7v-5.4c0-1.3-.6-2-1.7-2a1.67,1.67,0,0,0-1.7,1.6v5.8h-2.7v-9.6h0Z"/><path class="cls-2" d="M381.1,151.1h0a5.23,5.23,0,0,1,5.5-4.9,5.35,5.35,0,0,1,4.9,4.9h0A5.21,5.21,0,0,1,381.1,151.1Zm7.8,0h0a2.58,2.58,0,0,0-2.5-2.7h-0.1a2.46,2.46,0,0,0-2.5,2.4V151h0a2.56,2.56,0,0,0,2.4,2.7h0.1a2.46,2.46,0,0,0,2.5-2.4c0.1,0,.1-0.1.1-0.2h0Z"/><path class="cls-2" d="M393.1,151.1h0c0-3.2,2.1-5,4.4-5a3.75,3.75,0,0,1,3,1.4v-4.8h2.7v13.1h-2.7v-1.4a3.66,3.66,0,0,1-3,1.6C395.3,156.1,393.1,154.3,393.1,151.1Zm7.5,0h0a2.38,2.38,0,0,0-4.7-.7V151h0a2.38,2.38,0,0,0,4.7.7v-0.6Z"/><path class="cls-2" d="M405.2,151.1h0a4.8,4.8,0,0,1,4.6-5H410c3.2,0,4.7,2.5,4.7,5.2V152H408a2.29,2.29,0,0,0,2.4,1.9,3.26,3.26,0,0,0,2.3-1l1.6,1.4a5.09,5.09,0,0,1-7.2.7A4.93,4.93,0,0,1,405.2,151.1Zm6.8-.8a2.05,2.05,0,1,0-4.1,0H412Z"/><rect class="cls-3" width="169.2" height="169.2"/><path class="cls-2" d="M11.9,150h0a6,6,0,0,1,5.8-6.2h0.4a6.18,6.18,0,0,1,4.7,1.8l-1.7,1.9a4.34,4.34,0,0,0-3-1.3,3.56,3.56,0,0,0-3.5,3.6v0.1h0a3.55,3.55,0,0,0,3.3,3.7H18a4.1,4.1,0,0,0,3.1-1.4l1.6,1.7a6,6,0,0,1-4.9,2.1,6,6,0,0,1-6.1-5.9C11.9,150.1,11.9,150.1,11.9,150Z"/><path class="cls-2" d="M24.7,143.5h2.6v4.6a3.28,3.28,0,0,1,2.7-1.5c2,0,3.1,1.3,3.1,3.4v5.9H30.5v-5.1a1.62,1.62,0,0,0-1.6-1.9,1.56,1.56,0,0,0-1.6,1.5v5.4H24.7V143.5Z"/><path class="cls-2" d="M34.8,151.4h0a4.49,4.49,0,0,1,4.3-4.7h0.2c3,0,4.4,2.4,4.4,4.9v0.7H37.3a2.06,2.06,0,0,0,2.2,1.7,3.1,3.1,0,0,0,2.2-.9l1.5,1.3a4.88,4.88,0,0,1-6.8.6A6,6,0,0,1,34.8,151.4Zm6.5-.8a1.9,1.9,0,0,0-1.9-1.9,2,2,0,0,0-2,1.9h3.9Z"/><path class="cls-2" d="M46.2,149H45.1v-2.1h1.1v-0.6a2.93,2.93,0,0,1,.7-2.2,2.7,2.7,0,0,1,2.1-.7,11,11,0,0,1,1.8.2v2.1a5,5,0,0,0-1.2-.2,0.77,0.77,0,0,0-.9.8v0.6h2.1V149H48.7v6.9H46.1V149h0.1Z"/><path class="cls-2" d="M57,150h0a6,6,0,0,1,5.8-6.2h0.4a6.18,6.18,0,0,1,4.7,1.8l-1.7,1.9a4.34,4.34,0,0,0-3-1.3,3.63,3.63,0,0,0-3.5,3.6v0.1h0a3.55,3.55,0,0,0,3.3,3.7h0.1a4.1,4.1,0,0,0,3.1-1.4L68,154a6.31,6.31,0,0,1-11-3.8V150Z"/><path class="cls-2" d="M69.2,151.4h0a4.9,4.9,0,0,1,9.8,0h0A4.9,4.9,0,0,1,69.2,151.4Zm7.3,0h0a2.37,2.37,0,0,0-2.3-2.5H74.1a2.41,2.41,0,0,0-2.4,2.3v0.2h0a2.37,2.37,0,0,0,2.3,2.5h0.1a2.41,2.41,0,0,0,2.4-2.3C76.6,151.5,76.6,151.5,76.5,151.4Z"/><path class="cls-2" d="M81,146.8h2.6v1.3a3.28,3.28,0,0,1,2.7-1.5,2.71,2.71,0,0,1,2.6,1.4,3.48,3.48,0,0,1,3-1.4c1.9,0,3.1,1.2,3.1,3.4v5.9H92.4v-5.1c0-1.2-.5-1.9-1.5-1.9s-1.6.6-1.6,1.9v5.1H86.7v-5.1c0-1.2-.5-1.9-1.5-1.9s-1.6.6-1.6,1.9v5.1H81v-9.1h0Z"/><path class="cls-2" d="M97.1,146.8h2.6v1.3a3.46,3.46,0,0,1,2.8-1.5,4.36,4.36,0,0,1,4.2,4.7h0c0,3-2,4.7-4.2,4.7a3.37,3.37,0,0,1-2.8-1.4v3.9H97.1V146.8Zm7,4.6h0a2.22,2.22,0,0,0-4.4-.6v0.6h0a2.24,2.24,0,1,0,4.4.8v-0.8h0Z"/><path class="cls-2" d="M108.7,143.5h2.6v12.4h-2.6V143.5Z"/><path class="cls-2" d="M113.8,143.5h2.7v2.3h-2.7v-2.3Zm0,3.3h2.6v9.1h-2.6v-9.1Z"/><path class="cls-2" d="M118.3,153.3h0c0-2,1.5-2.9,3.7-2.9a5.38,5.38,0,0,1,2.2.4v-0.1c0-1.1-.7-1.7-2-1.7a7,7,0,0,0-2.5.5l-0.7-2a7.1,7.1,0,0,1,3.5-.7,4.45,4.45,0,0,1,3.1,1,3.83,3.83,0,0,1,1,2.9V156h-2.5v-1a3.63,3.63,0,0,1-2.8,1.2A2.92,2.92,0,0,1,118.3,153.3Zm5.9-.6v-0.5a4.67,4.67,0,0,0-1.7-.3c-1.1,0-1.8.4-1.8,1.3h0a1.11,1.11,0,0,0,1.3,1.1h0.1a1.67,1.67,0,0,0,2-1.5A0.1,0.1,0,0,0,124.2,152.7Z"/><path class="cls-2" d="M128.9,146.8h2.6v1.3a3.28,3.28,0,0,1,2.7-1.5c2,0,3.1,1.3,3.1,3.4v5.9h-2.6v-5.1a1.62,1.62,0,0,0-1.6-1.9,1.56,1.56,0,0,0-1.6,1.5v5.4h-2.6v-9h0Z"/><path class="cls-2" d="M139.1,151.4h0a4.61,4.61,0,0,1,4.6-4.7h0.2a4.42,4.42,0,0,1,3.6,1.5l-1.6,1.7a2.81,2.81,0,0,0-2.1-1,2.32,2.32,0,0,0-2.2,2.4h0a2.27,2.27,0,0,0,2.1,2.5h0.2a2.81,2.81,0,0,0,2.1-1l1.5,1.5a4.8,4.8,0,0,1-3.7,1.7,4.53,4.53,0,0,1-4.7-4.5v-0.1Z"/><path class="cls-2" d="M148.5,151.4h0a4.49,4.49,0,0,1,4.3-4.7H153c3,0,4.4,2.4,4.4,4.9v0.7h-6.3a2.08,2.08,0,0,0,2.2,1.8,3.1,3.1,0,0,0,2.2-.9l1.4,1.3a4.78,4.78,0,0,1-6.8.5A5.71,5.71,0,0,1,148.5,151.4Zm6.5-.8a1.9,1.9,0,0,0-1.9-1.9,2,2,0,0,0-2,1.9H155Z"/><path class="cls-2" d="M128.1,129.9h-99a3.59,3.59,0,0,1-3.6-3.6V98a3.59,3.59,0,0,1,3.6-3.6h99a3.59,3.59,0,0,1,3.6,3.6h0v28.3a3.52,3.52,0,0,1-3.6,3.6h0Zm-95.4-7.2h91.7v-21H32.8l-0.1,21h0Z"/><path class="cls-2" d="M42.5,107.9a4.3,4.3,0,1,0,4.3,4.3h0a4.27,4.27,0,0,0-4.3-4.3h0Z"/><path class="cls-2" d="M56.5,107.9a4.3,4.3,0,1,0,4.3,4.3h0a4.4,4.4,0,0,0-4.3-4.3h0Z"/><path class="cls-2" d="M70.4,107.9a4.3,4.3,0,1,0,4.3,4.3h0a4.33,4.33,0,0,0-4.3-4.3h0Z"/><path class="cls-2" d="M128.1,91.4h-99a3.59,3.59,0,0,1-3.6-3.6V59.5a3.59,3.59,0,0,1,3.6-3.6h99a3.59,3.59,0,0,1,3.6,3.6h0V87.8a3.52,3.52,0,0,1-3.6,3.6h0ZM32.8,84.1h91.7v-21H32.8v21h0Z"/><path class="cls-2" d="M42.5,69.3a4.3,4.3,0,1,0,4.3,4.3h0a4.33,4.33,0,0,0-4.3-4.3h0Z"/><path class="cls-2" d="M56.5,69.3a4.3,4.3,0,1,0,4.3,4.3h0a4.47,4.47,0,0,0-4.3-4.3h0Z"/><path class="cls-2" d="M70.4,69.3a4.3,4.3,0,1,0,4.3,4.3h0a4.4,4.4,0,0,0-4.3-4.3h0Z"/><path class="cls-2" d="M128.1,52.9h-99a3.59,3.59,0,0,1-3.6-3.6h0V21a3.59,3.59,0,0,1,3.6-3.6h99a3.59,3.59,0,0,1,3.6,3.6h0V49.2a3.61,3.61,0,0,1-3.6,3.7h0ZM32.8,45.6h91.7v-21H32.8v21h0Z"/><path class="cls-2" d="M42.5,30.8a4.3,4.3,0,1,0,4.3,4.3h0a4.27,4.27,0,0,0-4.3-4.3h0Z"/><path class="cls-2" d="M56.5,30.8a4.3,4.3,0,1,0,4.3,4.3h0a4.4,4.4,0,0,0-4.3-4.3h0Z"/><path class="cls-2" d="M70.4,30.8a4.3,4.3,0,1,0,4.3,4.3h0a4.33,4.33,0,0,0-4.3-4.3h0Z"/><path class="cls-3" d="M129.1,110.3a18,18,0,1,1,18-18A18.05,18.05,0,0,1,129.1,110.3Z"/><path class="cls-2" d="M129.1,77.3a15,15,0,1,1-15,15h0a15,15,0,0,1,15-15m0-6a21,21,0,1,0,21,21h0a21,21,0,0,0-21-21h0Z"/><g class="cls-4"><path class="cls-2" d="M129.1,71.3a21,21,0,1,1-21,21h0a21,21,0,0,1,21-21m0-2a23,23,0,1,0,23,23h0a23,23,0,0,0-23-23h0Z"/></g><polyline class="cls-5" points="121.7 93.7 127.7 98.4 137 86.4"/><line class="cls-6" x1="277.5" y1="83" x2="296.5" y2="83"/><polygon class="cls-7" points="293.8 91 307.6 83 293.8 75 293.8 91"/><line class="cls-6" x1="176.8" y1="83" x2="200" y2="83"/><path d="M221.75,89.18h-2.41l-2.84-8.25-2.84,8.25h-2.41l-4.3-12.69h3L212.52,85l2.83-8.57h2.38L220.55,85l2.61-8.53h2.9Z"/><path d="M227.6,78.38V75.95h2.88v2.43H227.6Zm0.07,10.71V79.44h2.74v9.65h-2.74Z"/><path d="M239.08,89.09V83.71c0-1.3-.61-2-1.66-2a1.68,1.68,0,0,0-1.71,2v5.38H233V79.44h2.74v1.37a3.41,3.41,0,0,1,2.83-1.55c2.07,0,3.28,1.37,3.28,3.58v6.25h-2.74Z"/><path d="M252.13,89.09l-2.7-4h-2.18v4h-2.77V76.49h5.76c3,0,4.75,1.57,4.75,4.16v0a3.91,3.91,0,0,1-2.7,3.91l3.08,4.5h-3.24Zm0.05-8.3c0-1.19-.83-1.8-2.18-1.8h-2.75v3.62h2.81c1.35,0,2.12-.72,2.12-1.78v0Z"/><path d="M267.34,89.09V80.86l-3.55,5.38h-0.07l-3.51-5.33v8.17H257.5V76.49h3l3.31,5.33,3.31-5.33h3v12.6h-2.75Z"/></svg>