<?xml version="1.0" encoding="utf-8"?>
<!-- Generator: Adobe Illustrator 19.1.0, SVG Export Plug-In . SVG Version: 6.00 Build 0)  -->
<svg version="1.1" id="Layer_1" xmlns="http://www.w3.org/2000/svg" xmlns:xlink="http://www.w3.org/1999/xlink" x="0px" y="0px"
	 viewBox="0 0 126.6 126.6" style="enable-background:new 0 0 126.6 126.6;" xml:space="preserve">
<style type="text/css">
	.st0{fill:#6CB2E2;}
	.st1{fill:#FFFFFF;}
</style>
<g>
	<rect class="st0" width="126.6" height="126.6"/>
	<g>
		<path class="st1" d="M17.9,97.9L17.9,97.9c0-2.7,2-4.9,4.9-4.9c1.8,0,2.8,0.6,3.7,1.5L25.2,96c-0.7-0.7-1.5-1.1-2.4-1.1
			c-1.6,0-2.7,1.3-2.7,2.9v0c0,1.6,1.1,3,2.7,3c1.1,0,1.7-0.4,2.5-1.1l1.3,1.3c-1,1-2,1.7-3.9,1.7C19.9,102.8,17.9,100.7,17.9,97.9z
			"/>
		<path class="st1" d="M28,92.8h2v3.6c0.5-0.6,1.1-1.2,2.1-1.2c1.5,0,2.5,1,2.5,2.7v4.7h-2v-4c0-1-0.5-1.5-1.2-1.5
			c-0.8,0-1.3,0.5-1.3,1.5v4h-2V92.8z"/>
		<path class="st1" d="M36,99.1L36,99.1c0-2.1,1.5-3.8,3.6-3.8c2.4,0,3.5,1.9,3.5,3.9c0,0.2,0,0.4,0,0.5h-5c0.2,0.9,0.8,1.4,1.8,1.4
			c0.7,0,1.2-0.2,1.8-0.7l1.2,1c-0.7,0.8-1.6,1.3-3,1.3C37.6,102.8,36,101.3,36,99.1z M41.1,98.5c-0.1-0.9-0.7-1.5-1.5-1.5
			c-0.8,0-1.4,0.6-1.6,1.5H41.1z"/>
		<path class="st1" d="M45,97.2h-0.8v-1.7H45V95c0-0.8,0.2-1.4,0.6-1.8s0.9-0.6,1.7-0.6c0.6,0,1.1,0.1,1.5,0.2v1.7
			c-0.3-0.1-0.6-0.2-0.9-0.2c-0.5,0-0.7,0.2-0.7,0.8v0.3h1.7v1.7H47v5.5h-2V97.2z"/>
		<path class="st1" d="M54,93.2h3.7c3,0,5,2,5,4.7v0c0,2.7-2,4.7-5,4.7H54V93.2z M56.1,95.1v5.7h1.6c1.7,0,2.8-1.1,2.8-2.8v0
			c0-1.7-1.1-2.8-2.8-2.8H56.1z"/>
		<path class="st1" d="M64,99.1L64,99.1c0-2.1,1.5-3.8,3.6-3.8c2.4,0,3.5,1.9,3.5,3.9c0,0.2,0,0.4,0,0.5h-5c0.2,0.9,0.8,1.4,1.8,1.4
			c0.7,0,1.2-0.2,1.8-0.7l1.2,1c-0.7,0.8-1.6,1.3-3,1.3C65.6,102.8,64,101.3,64,99.1z M69.1,98.5c-0.1-0.9-0.7-1.5-1.5-1.5
			c-0.8,0-1.4,0.6-1.6,1.5H69.1z"/>
		<path class="st1" d="M72.7,92.8h2v9.8h-2V92.8z"/>
		<path class="st1" d="M76.7,92.8h2.2v1.8h-2.2V92.8z M76.8,95.4h2v7.2h-2V95.4z"/>
		<path class="st1" d="M80.1,95.4h2.2l1.6,4.8l1.6-4.8h2.1l-2.8,7.3h-1.9L80.1,95.4z"/>
		<path class="st1" d="M88.1,99.1L88.1,99.1c0-2.1,1.5-3.8,3.6-3.8c2.4,0,3.5,1.9,3.5,3.9c0,0.2,0,0.4,0,0.5h-5
			c0.2,0.9,0.8,1.4,1.8,1.4c0.7,0,1.2-0.2,1.8-0.7l1.2,1c-0.7,0.8-1.6,1.3-3,1.3C89.7,102.8,88.1,101.3,88.1,99.1z M93.2,98.5
			c-0.1-0.9-0.7-1.5-1.5-1.5c-0.8,0-1.4,0.6-1.6,1.5H93.2z"/>
		<path class="st1" d="M96.7,95.4h2v1.5c0.4-1,1.1-1.6,2.3-1.6v2.1h-0.1c-1.4,0-2.2,0.8-2.2,2.5v2.7h-2V95.4z"/>
		<path class="st1" d="M107.1,95.4h2.1l-2.8,7.4c-0.6,1.5-1.1,2-2.4,2c-0.7,0-1.3-0.2-1.8-0.5l0.7-1.5c0.3,0.2,0.6,0.3,0.9,0.3
			c0.4,0,0.5-0.1,0.7-0.5l-2.8-7.2h2.2l1.6,4.9L107.1,95.4z"/>
		<path class="st1" d="M42.6,117.8l0.9-1.3c0.8,0.6,1.6,0.9,2.3,0.9c0.6,0,0.9-0.2,0.9-0.5v0c0-0.4-0.7-0.6-1.5-0.8
			c-1-0.3-2.2-0.8-2.2-2.2v0c0-1.5,1.2-2.3,2.6-2.3c0.9,0,1.9,0.3,2.7,0.8l-0.8,1.4c-0.7-0.4-1.4-0.7-2-0.7c-0.5,0-0.8,0.2-0.8,0.5
			v0c0,0.4,0.7,0.6,1.5,0.9c1,0.3,2.2,0.8,2.2,2.1v0c0,1.6-1.2,2.3-2.8,2.3C44.6,118.9,43.5,118.6,42.6,117.8z"/>
		<path class="st1" d="M49.5,115.2L49.5,115.2c0-2.1,1.5-3.8,3.6-3.8c2.4,0,3.5,1.9,3.5,3.9c0,0.2,0,0.4,0,0.5h-5
			c0.2,0.9,0.8,1.4,1.8,1.4c0.7,0,1.2-0.2,1.8-0.7l1.2,1c-0.7,0.8-1.6,1.3-3,1.3C51.1,119,49.5,117.4,49.5,115.2z M54.6,114.6
			c-0.1-0.9-0.7-1.5-1.5-1.5c-0.8,0-1.4,0.6-1.6,1.5H54.6z"/>
		<path class="st1" d="M58.1,111.6h2v1.5c0.4-1,1.1-1.6,2.3-1.6v2.1h-0.1c-1.4,0-2.2,0.8-2.2,2.5v2.7h-2V111.6z"/>
		<path class="st1" d="M63.1,111.6h2.2l1.6,4.8l1.6-4.8h2.1l-2.8,7.3H66L63.1,111.6z"/>
		<path class="st1" d="M71.1,115.2L71.1,115.2c0-2.1,1.5-3.8,3.6-3.8c2.4,0,3.5,1.9,3.5,3.9c0,0.2,0,0.4,0,0.5h-5
			c0.2,0.9,0.8,1.4,1.8,1.4c0.7,0,1.2-0.2,1.8-0.7l1.2,1c-0.7,0.8-1.6,1.3-3,1.3C72.7,119,71.1,117.4,71.1,115.2z M76.2,114.6
			c-0.1-0.9-0.7-1.5-1.5-1.5c-0.8,0-1.4,0.6-1.6,1.5H76.2z"/>
		<path class="st1" d="M79.7,111.6h2v1.5c0.4-1,1.1-1.6,2.3-1.6v2.1h-0.1c-1.4,0-2.2,0.8-2.2,2.5v2.7h-2V111.6z"/>
	</g>
	<g>
		<path class="st1" d="M25.5,24.7h39.2v31H25.5V24.7 M18,17.2v46.1h54.3V17.2H18L18,17.2z"/>
		<g>
			<path class="st1" d="M48.7,75.3h20.6c2.1,0,3.8-1.7,3.8-3.8s-1.7-3.8-3.8-3.8H48.7c-2.1,0-3.8,1.7-3.8,3.8S46.6,75.3,48.7,75.3
				L48.7,75.3z"/>
		</g>
		<path class="st1" d="M32.6,73.5c1.7,0,3.1,1.4,3.1,3.1c0,1.7-1.4,3.1-3.1,3.1c-1.7,0-3.1-1.4-3.1-3.1
			C29.5,74.9,30.9,73.5,32.6,73.5 M32.6,67.1c-5.3,0-9.6,4.3-9.6,9.6c0,5.3,4.3,9.6,9.6,9.6c5.3,0,9.5-4.3,9.5-9.6
			S37.9,67.1,32.6,67.1L32.6,67.1z"/>
		<path class="st1" d="M84.7,39.6h8.6l7.9,15.4v8.7c-3.8-4.9-9.8-7.9-16.4-8L84.7,39.6 M77.2,32.1v33.4c2.1-1.4,4.7-2.3,7.5-2.3
			c7,0,12.7,5.3,13.4,12.1h10.6V53.2L97.9,32.1H77.2L77.2,32.1z"/>
		<path class="st1" d="M84.6,73.5c1.7,0,3.1,1.4,3.1,3.1c0,1.7-1.4,3.1-3.1,3.1c-1.7,0-3.1-1.4-3.1-3.1S82.9,73.5,84.6,73.5
			 M84.6,67.1c-5.3,0-9.6,4.3-9.6,9.6c0,5.3,4.3,9.6,9.6,9.6c5.3,0,9.5-4.3,9.5-9.6C94.2,71.4,89.9,67.1,84.6,67.1L84.6,67.1z"/>
	</g>
</g>
<g>
</g>
<g>
</g>
<g>
</g>
<g>
</g>
<g>
</g>
<g>
</g>
<g>
</g>
<g>
</g>
<g>
</g>
<g>
</g>
<g>
</g>
<g>
</g>
<g>
</g>
<g>
</g>
<g>
</g>
</svg>
