<?xml version="1.0" encoding="utf-8"?>
<!-- Generator: Adobe Illustrator 19.1.0, SVG Export Plug-In . SVG Version: 6.00 Build 0)  -->
<svg version="1.1" id="Layer_1" xmlns="http://www.w3.org/2000/svg" xmlns:xlink="http://www.w3.org/1999/xlink" x="0px" y="0px"
	 viewBox="0 0 63.7 63.7" style="enable-background:new 0 0 63.7 63.7;" xml:space="preserve">
<style type="text/css">
	.st0{fill:#59B8B3;}
	.st1{fill:#FFFFFF;}
</style>
<g>
	<rect class="st0" width="63.7" height="63.7"/>
	<g>
		<g>
			<g>
				<path class="st1" d="M48.1,43.7H15.7c-0.7,0-1.2-0.5-1.2-1.2v-9.2c0-0.7,0.5-1.2,1.2-1.2h32.4c0.7,0,1.2,0.5,1.2,1.2v9.2
					C49.2,43.2,48.7,43.7,48.1,43.7L48.1,43.7z M16.9,41.4h30v-6.9h-30V41.4L16.9,41.4z"/>
			</g>
			<path class="st1" d="M20.1,36.5c-0.8,0-1.4,0.6-1.4,1.4s0.6,1.4,1.4,1.4c0.8,0,1.4-0.6,1.4-1.4S20.9,36.5,20.1,36.5L20.1,36.5z"
				/>
			<path class="st1" d="M24.6,36.5c-0.8,0-1.4,0.6-1.4,1.4s0.6,1.4,1.4,1.4c0.8,0,1.4-0.6,1.4-1.4S25.4,36.5,24.6,36.5L24.6,36.5z"
				/>
			<path class="st1" d="M29.2,36.5c-0.8,0-1.4,0.6-1.4,1.4s0.6,1.4,1.4,1.4c0.8,0,1.4-0.6,1.4-1.4S30,36.5,29.2,36.5L29.2,36.5z"/>
		</g>
		<g>
			<g>
				<path class="st1" d="M48.1,31.1H15.7c-0.7,0-1.2-0.5-1.2-1.2v-9.2c0-0.7,0.5-1.2,1.2-1.2h32.4c0.7,0,1.2,0.5,1.2,1.2V30
					C49.2,30.6,48.7,31.1,48.1,31.1L48.1,31.1z M16.9,28.8h30v-6.9h-30V28.8L16.9,28.8z"/>
			</g>
			<path class="st1" d="M20.1,23.9c-0.8,0-1.4,0.6-1.4,1.4c0,0.8,0.6,1.4,1.4,1.4c0.8,0,1.4-0.6,1.4-1.4
				C21.5,24.6,20.9,23.9,20.1,23.9L20.1,23.9z"/>
			<path class="st1" d="M24.6,23.9c-0.8,0-1.4,0.6-1.4,1.4c0,0.8,0.6,1.4,1.4,1.4c0.8,0,1.4-0.6,1.4-1.4
				C26,24.6,25.4,23.9,24.6,23.9L24.6,23.9z"/>
			<path class="st1" d="M29.2,23.9c-0.8,0-1.4,0.6-1.4,1.4c0,0.8,0.6,1.4,1.4,1.4c0.8,0,1.4-0.6,1.4-1.4
				C30.6,24.6,30,23.9,29.2,23.9L29.2,23.9z"/>
		</g>
		<g>
			<g>
				<path class="st1" d="M48.1,18.5H15.7c-0.7,0-1.2-0.5-1.2-1.2V8.1c0-0.7,0.5-1.2,1.2-1.2h32.4c0.7,0,1.2,0.5,1.2,1.2v9.2
					C49.2,18,48.7,18.5,48.1,18.5L48.1,18.5z M16.9,16.2h30V9.3h-30V16.2L16.9,16.2z"/>
			</g>
			<path class="st1" d="M20.1,11.3c-0.8,0-1.4,0.6-1.4,1.4c0,0.8,0.6,1.4,1.4,1.4c0.8,0,1.4-0.6,1.4-1.4
				C21.5,12,20.9,11.3,20.1,11.3L20.1,11.3z"/>
			<path class="st1" d="M24.6,11.3c-0.8,0-1.4,0.6-1.4,1.4c0,0.8,0.6,1.4,1.4,1.4c0.8,0,1.4-0.6,1.4-1.4C26,12,25.4,11.3,24.6,11.3
				L24.6,11.3z"/>
			<path class="st1" d="M29.2,11.3c-0.8,0-1.4,0.6-1.4,1.4c0,0.8,0.6,1.4,1.4,1.4c0.8,0,1.4-0.6,1.4-1.4C30.6,12,30,11.3,29.2,11.3
				L29.2,11.3z"/>
		</g>
	</g>
	<g>
		<path class="st1" d="M12,49.4h2.3c1.9,0,3.1,1.3,3.1,2.9v0c0,1.7-1.3,3-3.1,3H12V49.4z M13.3,50.6v3.6h1c1.1,0,1.8-0.7,1.8-1.8v0
			c0-1-0.7-1.8-1.8-1.8H13.3z"/>
		<path class="st1" d="M18.2,53.1L18.2,53.1c0-1.3,0.9-2.4,2.2-2.4c1.5,0,2.2,1.2,2.2,2.5c0,0.1,0,0.2,0,0.3h-3.2
			c0.1,0.6,0.5,0.9,1.1,0.9c0.4,0,0.7-0.1,1.1-0.5l0.7,0.7c-0.4,0.5-1,0.8-1.9,0.8C19.2,55.4,18.2,54.4,18.2,53.1z M21.4,52.7
			c-0.1-0.6-0.4-1-1-1c-0.5,0-0.9,0.4-1,1H21.4z"/>
		<path class="st1" d="M23.7,49.1H25v6.2h-1.3V49.1z"/>
		<path class="st1" d="M26.2,49.1h1.4v1.1h-1.4V49.1z M26.3,50.8h1.3v4.5h-1.3V50.8z"/>
		<path class="st1" d="M28.3,50.8h1.4l1,3l1-3h1.3l-1.8,4.6h-1.2L28.3,50.8z"/>
		<path class="st1" d="M33.3,53.1L33.3,53.1c0-1.3,0.9-2.4,2.2-2.4c1.5,0,2.2,1.2,2.2,2.5c0,0.1,0,0.2,0,0.3h-3.2
			c0.1,0.6,0.5,0.9,1.1,0.9c0.4,0,0.7-0.1,1.1-0.5l0.7,0.7c-0.4,0.5-1,0.8-1.9,0.8C34.4,55.4,33.3,54.4,33.3,53.1z M36.5,52.7
			c-0.1-0.6-0.4-1-1-1c-0.5,0-0.9,0.4-1,1H36.5z"/>
		<path class="st1" d="M38.7,50.8H40v0.9c0.3-0.6,0.7-1,1.4-1V52h-0.1c-0.9,0-1.4,0.5-1.4,1.6v1.7h-1.3V50.8z"/>
		<path class="st1" d="M41.9,53.1L41.9,53.1c0-1.3,0.9-2.4,2.2-2.4c1.5,0,2.2,1.2,2.2,2.5c0,0.1,0,0.2,0,0.3h-3.2
			c0.1,0.6,0.5,0.9,1.1,0.9c0.4,0,0.7-0.1,1.1-0.5l0.7,0.7c-0.4,0.5-1,0.8-1.9,0.8C42.9,55.4,41.9,54.4,41.9,53.1z M45.1,52.7
			c-0.1-0.6-0.4-1-1-1c-0.5,0-0.9,0.4-1,1H45.1z"/>
		<path class="st1" d="M47.1,53L47.1,53c0-1.5,1-2.4,2.1-2.4c0.7,0,1.1,0.3,1.4,0.7v-2.2h1.3v6.2h-1.3v-0.7
			c-0.3,0.4-0.7,0.7-1.4,0.7C48.1,55.4,47.1,54.6,47.1,53z M50.6,53L50.6,53c0-0.8-0.5-1.3-1.1-1.3c-0.6,0-1.1,0.5-1.1,1.3v0
			c0,0.8,0.5,1.3,1.1,1.3C50.1,54.3,50.6,53.8,50.6,53z"/>
	</g>
</g>
<g>
</g>
<g>
</g>
<g>
</g>
<g>
</g>
<g>
</g>
<g>
</g>
<g>
</g>
<g>
</g>
<g>
</g>
<g>
</g>
<g>
</g>
<g>
</g>
<g>
</g>
<g>
</g>
<g>
</g>
</svg>
