<?xml version="1.0" encoding="utf-8"?>
<!-- Generator: Adobe Illustrator 19.1.0, SVG Export Plug-In . SVG Version: 6.00 Build 0)  -->
<svg version="1.1" id="Layer_1" xmlns="http://www.w3.org/2000/svg" xmlns:xlink="http://www.w3.org/1999/xlink" x="0px" y="0px"
	 viewBox="0 0 63.7 63.7" style="enable-background:new 0 0 63.7 63.7;" xml:space="preserve">
<style type="text/css">
	.st0{fill:#59B8B3;}
	.st1{fill:#FFFFFF;}
</style>
<g>
	<rect class="st0" width="63.7" height="63.7"/>
	<g>
		<g>
			<g>
				<path class="st1" d="M48.1,43.7H15.7c-0.7,0-1.2-0.5-1.2-1.2v-9.2c0-0.7,0.5-1.2,1.2-1.2h32.4c0.7,0,1.2,0.5,1.2,1.2v9.2
					C49.2,43.2,48.7,43.7,48.1,43.7L48.1,43.7z M16.9,41.4h30v-6.9h-30V41.4L16.9,41.4z"/>
			</g>
			<path class="st1" d="M20.1,36.5c-0.8,0-1.4,0.6-1.4,1.4s0.6,1.4,1.4,1.4c0.8,0,1.4-0.6,1.4-1.4S20.9,36.5,20.1,36.5L20.1,36.5z"
				/>
			<path class="st1" d="M24.6,36.5c-0.8,0-1.4,0.6-1.4,1.4s0.6,1.4,1.4,1.4c0.8,0,1.4-0.6,1.4-1.4S25.4,36.5,24.6,36.5L24.6,36.5z"
				/>
			<path class="st1" d="M29.2,36.5c-0.8,0-1.4,0.6-1.4,1.4s0.6,1.4,1.4,1.4c0.8,0,1.4-0.6,1.4-1.4S30,36.5,29.2,36.5L29.2,36.5z"/>
		</g>
		<g>
			<g>
				<path class="st1" d="M48.1,31.1H15.7c-0.7,0-1.2-0.5-1.2-1.2v-9.2c0-0.7,0.5-1.2,1.2-1.2h32.4c0.7,0,1.2,0.5,1.2,1.2V30
					C49.2,30.6,48.7,31.1,48.1,31.1L48.1,31.1z M16.9,28.8h30v-6.9h-30V28.8L16.9,28.8z"/>
			</g>
			<path class="st1" d="M20.1,23.9c-0.8,0-1.4,0.6-1.4,1.4c0,0.8,0.6,1.4,1.4,1.4c0.8,0,1.4-0.6,1.4-1.4
				C21.5,24.6,20.9,23.9,20.1,23.9L20.1,23.9z"/>
			<path class="st1" d="M24.6,23.9c-0.8,0-1.4,0.6-1.4,1.4c0,0.8,0.6,1.4,1.4,1.4c0.8,0,1.4-0.6,1.4-1.4
				C26,24.6,25.4,23.9,24.6,23.9L24.6,23.9z"/>
			<path class="st1" d="M29.2,23.9c-0.8,0-1.4,0.6-1.4,1.4c0,0.8,0.6,1.4,1.4,1.4c0.8,0,1.4-0.6,1.4-1.4
				C30.6,24.6,30,23.9,29.2,23.9L29.2,23.9z"/>
		</g>
		<g>
			<g>
				<path class="st1" d="M48.1,18.5H15.7c-0.7,0-1.2-0.5-1.2-1.2V8.1c0-0.7,0.5-1.2,1.2-1.2h32.4c0.7,0,1.2,0.5,1.2,1.2v9.2
					C49.2,18,48.7,18.5,48.1,18.5L48.1,18.5z M16.9,16.2h30V9.3h-30V16.2L16.9,16.2z"/>
			</g>
			<path class="st1" d="M20.1,11.3c-0.8,0-1.4,0.6-1.4,1.4c0,0.8,0.6,1.4,1.4,1.4c0.8,0,1.4-0.6,1.4-1.4
				C21.5,12,20.9,11.3,20.1,11.3L20.1,11.3z"/>
			<path class="st1" d="M24.6,11.3c-0.8,0-1.4,0.6-1.4,1.4c0,0.8,0.6,1.4,1.4,1.4c0.8,0,1.4-0.6,1.4-1.4C26,12,25.4,11.3,24.6,11.3
				L24.6,11.3z"/>
			<path class="st1" d="M29.2,11.3c-0.8,0-1.4,0.6-1.4,1.4c0,0.8,0.6,1.4,1.4,1.4c0.8,0,1.4-0.6,1.4-1.4C30.6,12,30,11.3,29.2,11.3
				L29.2,11.3z"/>
		</g>
	</g>
	<g>
		<path class="st1" d="M11.6,49.4h2.7c0.8,0,1.3,0.2,1.7,0.6c0.3,0.3,0.5,0.8,0.5,1.4v0c0,1-0.5,1.6-1.3,1.8l1.4,2.1h-1.5l-1.3-1.9
			h-1v1.9h-1.3V49.4z M14.2,52.3c0.6,0,1-0.3,1-0.8v0c0-0.6-0.4-0.8-1-0.8h-1.3v1.7H14.2z"/>
		<path class="st1" d="M17.3,53.1L17.3,53.1c0-1.3,0.9-2.4,2.2-2.4c1.5,0,2.2,1.2,2.2,2.5c0,0.1,0,0.2,0,0.3h-3.2
			c0.1,0.6,0.5,0.9,1.1,0.9c0.4,0,0.7-0.1,1.1-0.5l0.7,0.7c-0.4,0.5-1,0.8-1.9,0.8C18.3,55.4,17.3,54.4,17.3,53.1z M20.5,52.7
			c-0.1-0.6-0.4-1-1-1c-0.5,0-0.9,0.4-1,1H20.5z"/>
		<path class="st1" d="M22.7,49.1h1.3v2.3c0.3-0.4,0.7-0.7,1.3-0.7c1,0,1.5,0.6,1.5,1.7v2.9h-1.3v-2.5c0-0.6-0.3-0.9-0.8-0.9
			s-0.8,0.3-0.8,0.9v2.5h-1.3V49.1z"/>
		<path class="st1" d="M27.7,53.1L27.7,53.1c0-1.3,0.9-2.4,2.2-2.4c1.5,0,2.2,1.2,2.2,2.5c0,0.1,0,0.2,0,0.3H29
			c0.1,0.6,0.5,0.9,1.1,0.9c0.4,0,0.7-0.1,1.1-0.5l0.7,0.7c-0.4,0.5-1,0.8-1.9,0.8C28.7,55.4,27.7,54.4,27.7,53.1z M30.9,52.7
			c-0.1-0.6-0.4-1-1-1c-0.5,0-0.9,0.4-1,1H30.9z"/>
		<path class="st1" d="M32.8,54L32.8,54c0-1,0.8-1.5,1.8-1.5c0.5,0,0.8,0.1,1.1,0.2v-0.1c0-0.5-0.3-0.8-1-0.8
			c-0.5,0-0.8,0.1-1.3,0.2l-0.3-1c0.5-0.2,1-0.4,1.8-0.4c0.7,0,1.2,0.2,1.5,0.5c0.3,0.3,0.5,0.8,0.5,1.4v2.6h-1.2v-0.5
			c-0.3,0.3-0.7,0.6-1.4,0.6C33.5,55.4,32.8,54.9,32.8,54z M35.8,53.7v-0.2c-0.2-0.1-0.5-0.2-0.8-0.2c-0.5,0-0.9,0.2-0.9,0.6v0
			c0,0.3,0.3,0.5,0.7,0.5C35.4,54.5,35.8,54.2,35.8,53.7z"/>
		<path class="st1" d="M38.1,50.8h1.3v0.9c0.3-0.6,0.7-1,1.4-1V52h-0.1c-0.9,0-1.4,0.5-1.4,1.6v1.7h-1.3V50.8z"/>
		<path class="st1" d="M41.3,54.7l0.5-0.8c0.5,0.4,1,0.5,1.4,0.5c0.4,0,0.5-0.1,0.5-0.3v0c0-0.3-0.4-0.4-0.9-0.5
			c-0.6-0.2-1.4-0.5-1.4-1.4v0c0-0.9,0.7-1.4,1.7-1.4c0.6,0,1.2,0.2,1.7,0.5l-0.5,0.9c-0.4-0.3-0.9-0.4-1.2-0.4
			c-0.3,0-0.5,0.1-0.5,0.3v0c0,0.3,0.4,0.4,0.9,0.5c0.6,0.2,1.4,0.5,1.4,1.3v0c0,1-0.8,1.5-1.7,1.5C42.6,55.4,41.9,55.2,41.3,54.7z"
			/>
		<path class="st1" d="M45.6,54L45.6,54c0-1,0.8-1.5,1.8-1.5c0.5,0,0.8,0.1,1.1,0.2v-0.1c0-0.5-0.3-0.8-1-0.8
			c-0.5,0-0.8,0.1-1.3,0.2l-0.3-1c0.5-0.2,1-0.4,1.8-0.4c0.7,0,1.2,0.2,1.5,0.5c0.3,0.3,0.5,0.8,0.5,1.4v2.6h-1.2v-0.5
			c-0.3,0.3-0.7,0.6-1.4,0.6C46.3,55.4,45.6,54.9,45.6,54z M48.6,53.7v-0.2c-0.2-0.1-0.5-0.2-0.8-0.2c-0.5,0-0.9,0.2-0.9,0.6v0
			c0,0.3,0.3,0.5,0.7,0.5C48.2,54.5,48.6,54.2,48.6,53.7z"/>
		<path class="st1" d="M50.9,49.1h1.3v6.2h-1.3V49.1z"/>
	</g>
</g>
<g>
</g>
<g>
</g>
<g>
</g>
<g>
</g>
<g>
</g>
<g>
</g>
<g>
</g>
<g>
</g>
<g>
</g>
<g>
</g>
<g>
</g>
<g>
</g>
<g>
</g>
<g>
</g>
<g>
</g>
</svg>
