<?xml version="1.0" encoding="utf-8"?>
<!-- Generator: Adobe Illustrator 19.1.0, SVG Export Plug-In . SVG Version: 6.00 Build 0)  -->
<svg version="1.1" id="Layer_1" xmlns="http://www.w3.org/2000/svg" xmlns:xlink="http://www.w3.org/1999/xlink" x="0px" y="0px"
	 viewBox="0 0 63.7 63.7" style="enable-background:new 0 0 63.7 63.7;" xml:space="preserve">
<style type="text/css">
	.st0{fill:#59B8B3;}
	.st1{fill:#FFFFFF;}
</style>
<g>
	<rect class="st0" width="63.7" height="63.7"/>
	<g>
		<g>
			<g>
				<path class="st1" d="M48.1,43.7H15.7c-0.7,0-1.2-0.5-1.2-1.2v-9.2c0-0.7,0.5-1.2,1.2-1.2h32.4c0.7,0,1.2,0.5,1.2,1.2v9.2
					C49.2,43.2,48.7,43.7,48.1,43.7L48.1,43.7z M16.9,41.4h30v-6.9h-30V41.4L16.9,41.4z"/>
			</g>
			<path class="st1" d="M20.1,36.5c-0.8,0-1.4,0.6-1.4,1.4s0.6,1.4,1.4,1.4c0.8,0,1.4-0.6,1.4-1.4S20.9,36.5,20.1,36.5L20.1,36.5z"
				/>
			<path class="st1" d="M24.6,36.5c-0.8,0-1.4,0.6-1.4,1.4s0.6,1.4,1.4,1.4c0.8,0,1.4-0.6,1.4-1.4S25.4,36.5,24.6,36.5L24.6,36.5z"
				/>
			<path class="st1" d="M29.2,36.5c-0.8,0-1.4,0.6-1.4,1.4s0.6,1.4,1.4,1.4c0.8,0,1.4-0.6,1.4-1.4S30,36.5,29.2,36.5L29.2,36.5z"/>
		</g>
		<g>
			<g>
				<path class="st1" d="M48.1,31.1H15.7c-0.7,0-1.2-0.5-1.2-1.2v-9.2c0-0.7,0.5-1.2,1.2-1.2h32.4c0.7,0,1.2,0.5,1.2,1.2V30
					C49.2,30.6,48.7,31.1,48.1,31.1L48.1,31.1z M16.9,28.8h30v-6.9h-30V28.8L16.9,28.8z"/>
			</g>
			<path class="st1" d="M20.1,23.9c-0.8,0-1.4,0.6-1.4,1.4c0,0.8,0.6,1.4,1.4,1.4c0.8,0,1.4-0.6,1.4-1.4
				C21.5,24.6,20.9,23.9,20.1,23.9L20.1,23.9z"/>
			<path class="st1" d="M24.6,23.9c-0.8,0-1.4,0.6-1.4,1.4c0,0.8,0.6,1.4,1.4,1.4c0.8,0,1.4-0.6,1.4-1.4
				C26,24.6,25.4,23.9,24.6,23.9L24.6,23.9z"/>
			<path class="st1" d="M29.2,23.9c-0.8,0-1.4,0.6-1.4,1.4c0,0.8,0.6,1.4,1.4,1.4c0.8,0,1.4-0.6,1.4-1.4
				C30.6,24.6,30,23.9,29.2,23.9L29.2,23.9z"/>
		</g>
		<g>
			<g>
				<path class="st1" d="M48.1,18.5H15.7c-0.7,0-1.2-0.5-1.2-1.2V8.1c0-0.7,0.5-1.2,1.2-1.2h32.4c0.7,0,1.2,0.5,1.2,1.2v9.2
					C49.2,18,48.7,18.5,48.1,18.5L48.1,18.5z M16.9,16.2h30V9.3h-30V16.2L16.9,16.2z"/>
			</g>
			<path class="st1" d="M20.1,11.3c-0.8,0-1.4,0.6-1.4,1.4c0,0.8,0.6,1.4,1.4,1.4c0.8,0,1.4-0.6,1.4-1.4
				C21.5,12,20.9,11.3,20.1,11.3L20.1,11.3z"/>
			<path class="st1" d="M24.6,11.3c-0.8,0-1.4,0.6-1.4,1.4c0,0.8,0.6,1.4,1.4,1.4c0.8,0,1.4-0.6,1.4-1.4C26,12,25.4,11.3,24.6,11.3
				L24.6,11.3z"/>
			<path class="st1" d="M29.2,11.3c-0.8,0-1.4,0.6-1.4,1.4c0,0.8,0.6,1.4,1.4,1.4c0.8,0,1.4-0.6,1.4-1.4C30.6,12,30,11.3,29.2,11.3
				L29.2,11.3z"/>
		</g>
	</g>
	<g>
		<path class="st1" d="M19.9,52.8v-3.4h1.3v3.3c0,1,0.5,1.5,1.3,1.5s1.3-0.5,1.3-1.4v-3.4h1.3v3.3c0,1.8-1,2.7-2.6,2.7
			C20.9,55.4,19.9,54.5,19.9,52.8z"/>
		<path class="st1" d="M26.3,50.8h1.3v0.6c0.3-0.4,0.7-0.7,1.3-0.7c1,0,1.5,0.6,1.5,1.7v2.9h-1.3v-2.5c0-0.6-0.3-0.9-0.8-0.9
			s-0.8,0.3-0.8,0.9v2.5h-1.3V50.8z"/>
		<path class="st1" d="M31.6,49.1h1.4v1.1h-1.4V49.1z M31.6,50.8h1.3v4.5h-1.3V50.8z"/>
		<path class="st1" d="M33.9,53.1L33.9,53.1c0-1.3,1-2.4,2.5-2.4c1.4,0,2.4,1,2.4,2.3v0c0,1.3-1,2.4-2.5,2.4
			C34.9,55.4,33.9,54.4,33.9,53.1z M37.5,53.1L37.5,53.1c0-0.7-0.5-1.3-1.2-1.3c-0.7,0-1.2,0.6-1.2,1.2v0c0,0.7,0.5,1.3,1.2,1.3
			C37.1,54.3,37.5,53.7,37.5,53.1z"/>
		<path class="st1" d="M39.7,50.8H41v0.6c0.3-0.4,0.7-0.7,1.3-0.7c1,0,1.5,0.6,1.5,1.7v2.9h-1.3v-2.5c0-0.6-0.3-0.9-0.8-0.9
			S41,52.2,41,52.8v2.5h-1.3V50.8z"/>
	</g>
</g>
<g>
</g>
<g>
</g>
<g>
</g>
<g>
</g>
<g>
</g>
<g>
</g>
<g>
</g>
<g>
</g>
<g>
</g>
<g>
</g>
<g>
</g>
<g>
</g>
<g>
</g>
<g>
</g>
<g>
</g>
</svg>
